<svg width="400" height="400" viewBox="0 0 400 400" fill="none" xmlns="http://www.w3.org/2000/svg">
<g clip-path="url(#clip0_90_215)">
<path d="M235.498 88.2553C238.541 88.221 242.285 87.0349 245.241 87.1272C268.67 87.861 291.266 92.7824 308.934 108.537C334.745 131.558 344.461 165.149 346.627 198.357C346.844 201.706 346.948 205.202 347.132 208.567C347.429 235.57 341.405 259.329 326.936 287.65C312.351 316.197 281.627 346.898 251.031 359.114C234.799 365.825 217.003 366.89 199.642 366.099C181.889 365.283 164.694 364.889 147.678 358.516C132.116 352.589 117.547 339.872 106.197 328.162C80.6461 301.546 63.1853 282.951 55.8005 236.789C51.734 211.37 53.4142 187.798 63.1853 163.466C71.654 141.464 84.6907 122.86 106.859 113.162C112.401 110.737 118.471 109.076 123.832 106.687C126.307 105.583 131.252 100.87 133.984 99.0172C144.125 92.1367 155.165 86.2832 167.17 83.4444C178.139 81.1435 197.41 81.3913 207.824 85.7605C214.969 88.8067 227.717 88.3742 235.498 88.2553Z" fill="#D0D570"/>
<path d="M199.541 106.443C201.311 103.263 205.685 99.3527 209.563 98.9432C209.493 113.017 203.747 126.844 198.587 139.77C194.503 139.307 189.394 136.344 185.248 135.229C179.579 133.704 173.768 133.231 167.959 134.344C164.305 135.045 159.174 137.758 156.185 134.379C153.379 131.134 158 127.884 160.225 126.136C158.223 125.447 156.181 124.999 155.287 122.913C155.526 118.786 165.025 118.146 168.332 117.635C165.245 115.098 160.796 113.03 158.595 110.945C158.277 109.249 159.874 107.695 161.425 107.578C167.852 107.094 175.396 113.018 180.357 116.434C179.102 114.235 173.473 106.963 173.66 105.134C173.739 104.357 174.164 103.739 174.755 103.255C175.723 102.462 176.898 102.127 178.138 102.329C182.311 103.007 186.415 108.821 188.603 112.06C188.634 109.522 188.531 97.0607 194.387 98.9433C196.812 99.7226 198.47 104.079 199.541 106.443Z" fill="#ABA860"/>
<path d="M219.45 100.02C222.344 98.3213 227.841 95.7664 231.115 95.0394C235.073 94.1601 237.669 93.3886 239.623 97.3378C233.499 102.685 225.49 108.585 221.779 115.977C228.404 110.527 237.738 107.825 246.179 107.074C247.845 106.925 261.749 108.809 262.775 112.459C263.214 114.024 258.407 113.015 256.115 113.035C252.219 113.07 244.573 111.592 242.078 115.552C243.021 116.332 266.331 112.782 262.626 121.671C256.825 122.707 249.901 120.552 244.88 126.749C246.028 127.93 248.374 128.428 247.628 129.892C246.024 133.038 243.089 131.01 239.622 130.53C240.405 131.145 247.182 139.524 242.791 138.343C238.942 137.308 235.523 135.067 231.558 134.318C226.636 133.527 220.233 136.704 215.654 138.09C213.191 138.835 211.046 139.257 208.559 139.659C209.834 133.356 213.786 126.296 215.462 119.554C217.061 113.117 219.039 106.928 219.45 100.02Z" fill="#ABA860"/>
<path d="M186.4 40.0176C192.614 37.125 201.732 29.4117 206.765 37.8661C215.847 53.123 223.215 69.7145 221.966 87.5189C220.55 107.711 216.704 120.345 208.56 139.659C207.394 139.96 200.058 139.842 198.587 139.77C205.37 122.78 210.192 104.294 208.159 85.9036C205.946 65.8887 194.758 56.1199 186.4 40.0176Z" fill="#59300E"/>
<path d="M71.1695 197.803L71.5054 197.786C78.3604 197.52 80.051 207.01 75.1758 211.819C69.0861 213.761 66.0367 203.233 71.1695 197.803Z" fill="#ABA860"/>
<path d="M294.703 287.807C302.46 285.431 301.171 297.913 295.689 299.934C286.428 303.347 290.391 289.127 294.703 287.807Z" fill="#ABA860"/>
<path d="M106.746 295.888C107.172 295.841 107.599 295.805 108.027 295.783C112.379 295.605 116.889 302.403 113.119 306.454C110.556 306.833 109.865 306.663 108.133 304.408C106.669 302.502 105.513 299.62 105.636 297.198C105.671 296.503 106.226 296.286 106.746 295.888Z" fill="#ABA860"/>
<path d="M308.766 268.561C313.943 267.14 312.513 276.474 309.186 277.963C307.63 278.659 305.698 276.369 305.684 274.529C305.667 271.903 306.394 269.211 308.766 268.561Z" fill="#ABA860"/>
<path d="M222.087 207.639C227.757 206.048 227.513 213.296 224.076 216.296C223.443 216.85 222.087 215.838 221.531 215.239C219.07 212.583 219.183 208.454 222.087 207.639Z" fill="#ABA860"/>
<path d="M88.979 165.87C94.3873 164.754 93.6379 171.509 89.3927 173.772C88.2051 174.405 87.4784 174.604 86.4965 173.659C84.2945 171.54 86.5323 166.375 88.979 165.87Z" fill="#ABA860"/>
<path d="M285.437 229.865C286.59 229.278 287.976 231.598 287.983 232.919C287.997 235.24 287.868 238.031 285.695 237.957C280.638 237.784 281.521 231.861 285.437 229.865Z" fill="#ABA860"/>
<path d="M294.508 107.737C295.744 107.352 295.836 107.28 296.609 108.059C297.408 108.864 297.569 110.749 296.876 111.758C295.662 113.524 294.618 113.612 292.571 114.326C291.775 114.605 290.798 113.868 290.522 113.128C289.523 110.442 292.299 108.424 294.508 107.737Z" fill="#ABA860"/>
<path d="M197.991 354.648C201.65 354.546 205.863 356.37 202.782 360.457C198.954 361.35 195.807 358.414 197.991 354.648Z" fill="#ABA860"/>
<path d="M238.501 353.253C241.032 353.168 243.989 354.398 242.713 357.362C241.932 358.084 241.776 358.04 240.669 358.213C238.594 358.32 235.905 358.46 235.598 355.741C236.198 354.178 237.015 353.986 238.501 353.253Z" fill="#ABA860"/>
<path d="M78.8249 240.555C81.4972 238.675 85.0625 244.272 82.0493 246.032C78.2425 248.256 75.7234 242.738 78.8249 240.555Z" fill="#ABA860"/>
<path d="M304.626 172.635C307.097 171.53 310.351 177.265 307.425 178.438C303.847 179.873 300.922 174.292 304.626 172.635Z" fill="#ABA860"/>
<path d="M140.808 339.376C142.543 339.533 144.04 344.999 141.091 345.271C137.439 345.607 137.924 339.116 140.808 339.376Z" fill="#ABA860"/>
<path d="M166.836 227.39C167.724 227.096 167.866 227.508 168.371 228.288C169.223 229.603 169.29 232.716 167.722 233.114C166.297 233.477 164.968 232.689 164.949 230.829C164.935 229.467 165.656 227.781 166.836 227.39Z" fill="#ABA860"/>
<path d="M306.873 164.194C308.318 163.269 310.641 164.978 310.993 166.764C311.203 167.833 311.387 167.909 310.314 168.184C307.641 168.867 302.926 166.721 306.873 164.194Z" fill="#ABA860"/>
<path d="M262.383 134.115C264.069 134.014 266.496 134.097 266.664 136.283C265.991 137.185 266.279 136.89 265.167 137.375L264.971 137.373C263.497 137.348 260.927 137.625 260.756 135.666C261.326 134.732 261.427 134.716 262.383 134.115Z" fill="#ABA860"/>
<path d="M129.59 168.135C131.325 168.091 132.974 168.253 133.214 170.318C132.616 171.471 132.895 171.081 131.687 171.828C130.447 172.093 130.048 172.24 128.917 171.785C127.613 170.293 128.475 169.424 129.59 168.135Z" fill="#ABA860"/>
<path d="M120.288 235.817C122.657 234.911 124.849 240.523 121.924 241.074C118.519 241.716 116.767 237.164 120.288 235.817Z" fill="#ABA860"/>
<path d="M135.09 175.706C136.395 175.45 136.767 177.413 136.506 178.577C136.074 180.504 134.933 180.236 133.481 180.29C133.113 180.304 132.814 180.342 132.564 180.071C131.933 179.386 131.834 179.756 132.052 178.841C132.462 177.119 133.394 176.039 135.09 175.706Z" fill="#ABA860"/>
<path d="M166.224 88.048C169.623 87.5836 168.855 92.9427 166.479 93.5802C163.093 94.489 164.206 88.3239 166.224 88.048Z" fill="#ABA860"/>
<path d="M247.936 329.573C249.332 329.114 250.75 330.621 250.718 332.213C250.695 333.336 250.632 333.848 249.554 334.289C248.363 334.778 247.422 334.501 246.831 333.32C246.209 332.076 246.602 330.012 247.936 329.573Z" fill="#ABA860"/>
<path d="M116.423 190.653C117.478 190.575 117.668 190.757 118.329 191.601C119.005 192.464 118.966 192.186 118.442 193.191C117.889 194.252 117.639 194.66 116.4 194.638C115.031 194.615 113.796 193.546 114.163 192.133C114.434 191.094 115.32 190.734 116.423 190.653Z" fill="#ABA860"/>
<path d="M171.97 171.328C175.04 170.646 175.618 176.596 172.984 176.964C169.801 177.408 168.882 172.014 171.97 171.328Z" fill="#ABA860"/>
<path d="M142.677 325.404C145.029 324.478 146.194 329.175 143.395 329.595C140.536 330.025 140.047 326.439 142.677 325.404Z" fill="#ABA860"/>
<path d="M318.128 265.789C320.962 265.158 322.537 267.978 320.947 270.258C320.078 271.504 318.777 270.774 317.887 269.525C317.122 268.451 316.868 266.07 318.128 265.789Z" fill="#ABA860"/>
<path d="M183.429 153.776C185.875 153.279 186.085 159.43 183.533 159.062C180.316 158.599 180.153 154.442 183.429 153.776Z" fill="#ABA860"/>
<path d="M172.131 200.132C173.364 199.812 174.386 201.282 174.428 202.593C174.467 203.804 174.612 203.831 173.327 204.417C172.281 204.893 171.801 204.659 171.079 203.834C169.779 202.349 170.434 200.572 172.131 200.132Z" fill="#ABA860"/>
<path d="M245.703 185.544C247.828 184.578 249.514 188.759 247.904 190.293C247.233 190.932 246.846 190.548 246.102 190.076C244.431 189.018 244.059 186.292 245.703 185.544Z" fill="#ABA860"/>
<path d="M327.039 213.613C327.737 213.67 327.534 213.648 328.21 213.909C329.374 215.491 328.693 217.082 327.734 218.603C325.015 218.051 325.309 215.373 327.039 213.613Z" fill="#ABA860"/>
<path d="M303.011 114.167C304.054 113.713 303.936 113.893 304.467 114.777C305.359 116.263 305.07 119.044 303.316 118.931C300.473 118.747 300.333 115.332 303.011 114.167Z" fill="#ABA860"/>
<path d="M173.95 216.579C174.644 215.453 175.951 216.321 176.7 217.271C177.438 218.208 177.991 220.487 176.809 220.908C173.621 222.044 172.477 218.966 173.95 216.579Z" fill="#ABA860"/>
<path d="M246.81 173.572C247.668 173.315 247.811 173.469 248.543 173.915C249.469 174.48 249.723 174.65 249.694 175.677C249.659 176.905 249.98 176.914 248.791 177.194C247.366 177.529 245.683 176.647 245.582 175.03C245.529 174.177 245.984 173.819 246.81 173.572Z" fill="#ABA860"/>
<path d="M210.298 259.7C212.098 258.89 213.369 264.415 211.393 264.463C208.346 264.535 207.453 260.98 210.298 259.7Z" fill="#ABA860"/>
<path d="M109.068 278.372C109.52 278.435 110.065 278.63 110.436 278.897C112.469 280.347 111.724 281.168 110.483 282.489C108.176 281.75 107.307 280.344 109.068 278.372Z" fill="#ABA860"/>
<path d="M246.258 339.146C247.676 339.31 248.645 339.247 249.57 340.231C249.593 341.343 249.583 341.002 249.004 342.104C247.586 342.431 247.046 342.571 246.003 341.472C245.681 340.406 245.833 340.258 246.258 339.146Z" fill="#ABA860"/>
<path d="M135.932 121.471C137.598 121.444 138.149 125.229 136.5 125.534C134.851 125.839 134.354 122.987 134.354 122.987C134.405 122.332 134.266 121.497 135.932 121.471Z" fill="#ABA860"/>
<path d="M269.457 233.62C271.8 234.82 272.012 236.16 270.402 238.045C268.079 238.097 268.298 235.152 269.457 233.62Z" fill="#ABA860"/>
<path d="M126.792 113.307C129.211 112.836 131.12 115.655 129.452 117.338C128.544 118.254 127.066 116.733 126.369 115.549C126.16 114.479 125.657 113.528 126.792 113.307Z" fill="#ABA860"/>
<path d="M257.236 284.563C258.691 284.577 259.571 284.659 260.345 285.975C260.242 287.019 260.334 286.645 259.565 287.568C258.096 287.694 257.587 287.697 256.729 286.414C256.667 285.211 256.592 285.678 257.236 284.563Z" fill="#ABA860"/>
<path d="M111.405 118.765C112.329 118.148 115.625 121.444 114.456 122.375C112.691 123.78 109.53 120.017 111.405 118.765Z" fill="#ABA860"/>
<path d="M224.128 315.233C224.74 315.326 224.751 315.036 225.081 315.587C225.815 316.816 225.533 317.622 225.056 318.985C224.978 319.205 224.494 319.185 224.494 319.185C223.745 318.556 222.895 318.032 222.656 317.128C223.017 315.98 223.105 316.189 224.128 315.233Z" fill="#ABA860"/>
<path d="M279.84 218.191C279.989 217.937 280.337 218.227 280.56 218.419C281.653 219.362 282.149 221.994 280.813 222.342C279.835 222.596 279.283 221.603 278.989 220.666C278.673 219.663 279.283 219.147 279.84 218.191Z" fill="#ABA860"/>
<path d="M119.248 144.928C120.221 144.293 121.166 145.164 121.727 146.134C122.216 146.98 122.501 147.625 121.614 148.162C120.475 148.85 119.765 148.382 119.134 147.179C118.622 146.203 118.3 145.548 119.248 144.928Z" fill="#ABA860"/>
<path d="M150.031 335.578C151.392 335.578 150.857 340.298 149.332 339.791C148.251 339.432 148.423 338.464 148.477 337.379C148.869 336.388 148.913 335.578 150.031 335.578Z" fill="#ABA860"/>
<path d="M218.511 265.745C219.537 265.063 220.318 265.912 220.744 267.006C221.129 267.998 221.345 268.624 220.356 269.137C219.401 269.633 218.646 268.74 218.225 267.833C217.681 266.661 217.314 266.541 218.511 265.745Z" fill="#ABA860"/>
<path d="M170.331 298.758C170.532 298.536 170.879 298.813 171.03 299.071C171.753 300.31 172.022 302.117 170.486 302.276C169.554 302.373 169.073 301.713 169.014 300.774C168.938 299.568 169.389 299.796 170.331 298.758Z" fill="#ABA860"/>
<path d="M333.951 204.167C334.967 203.648 335.245 204.585 335.431 205.612C335.628 206.696 335.736 207.283 334.764 207.88C334.112 208.28 333.928 207.738 333.61 207.032C333.141 205.988 332.919 204.694 333.951 204.167Z" fill="#ABA860"/>
<path d="M238.608 167.226C239.306 166.42 239.972 167.004 240.891 167.542C241.841 168.099 242.217 168.056 241.577 168.963C240.981 169.807 239.852 169.638 239.069 169.033C238.238 168.391 237.809 168.146 238.608 167.226Z" fill="#ABA860"/>
</g>
<defs>
<clipPath id="clip0_90_215">
<rect width="294.447" height="334" fill="white" transform="translate(53 33)"/>
</clipPath>
</defs>
</svg>
