<svg width="400" height="400" viewBox="0 0 400 400" fill="none" xmlns="http://www.w3.org/2000/svg">
<path d="M63.4688 105.808C76.371 90.1976 107.777 80.9014 126.73 90.1977C128.843 92.4592 130.639 95.0379 132.701 97.2005C141.173 106.088 151.715 112.266 162.775 117.351C199.671 136.445 242.235 140.416 281.452 152.707C311.602 162.418 351.211 187.56 361.397 220.015C369.721 246.511 367.305 276.251 353.788 300.758C339.715 325.681 315.052 343.014 287.125 348.655C275.343 351.035 261.836 350.99 249.879 350.774C225.9 349.502 201.687 337.832 181.293 326.18C140.115 302.396 107.266 268.622 85.0975 226.558C74.2954 206.063 66.1989 183.348 62.2045 160.509C59.1367 142.965 59.3329 123.236 63.4688 105.808Z" fill="#691445"/>
<path d="M49.42 104.632C45.1934 103.107 36.2255 98.5963 33.4326 94.5534C33.209 94.0628 33.1988 93.3956 33.5249 92.9828C35.6206 90.3294 44.964 92.9828 52.0995 90.9746C62.334 88.0942 65.3563 78.5528 73.3077 72.786C76.1246 70.7013 81.6856 69.4306 82.7081 67.2484C84.8646 62.1506 84.2153 56.0721 86.2884 50.9375C87.2954 48.4434 92.8006 47.9484 93.6668 49.0117C96.5374 52.5349 98.014 63.0646 98.5365 67.3932C108.299 65.5043 110.882 68.7922 119.234 71.5348C126.464 72.7317 134.366 68.0976 140.083 64.2316C142.218 62.7882 147.856 56.8321 149.858 58.1409C152.931 60.1489 148.561 69.5188 147.342 72.047C143.003 81.0468 136.227 87.0695 126.73 90.1977C118.214 92.1835 115.626 92.0845 107.333 90.6613C106.702 94.8475 101.928 116.373 94.0409 114.085C88.3141 112.424 82.8125 102.553 81.4758 97.3261C74.6624 105.79 59.3333 108.209 49.42 104.632Z" fill="#92BF67"/>
<path d="M333.902 299.28C341.058 298.739 339.583 308.698 334.53 310.157C331.589 311.007 328.866 309.363 328.149 306.553C327.303 303.236 328.468 300.611 333.902 299.28Z" fill="#C79D7E"/>
</svg>
