<svg width="400" height="400" viewBox="0 0 400 400" fill="none" xmlns="http://www.w3.org/2000/svg">
<g clip-path="url(#clip0_90_464)">
<path d="M170.31 207.464C169.581 204.753 170.062 202.014 169.911 199.252C169.475 191.301 165.455 183.334 161.581 176.566C156.961 168.494 147.387 155.994 153.065 146.183C155.943 141.21 163.15 143.082 165.684 139.069C171.686 129.569 155.051 113.132 162.467 100.19C165.178 95.4601 171.486 95.2501 172.362 93.4407C173.688 90.7028 170.285 79.6492 172.277 73.1196C175.129 63.7691 182.65 63.6234 187.946 57.7935C189.938 55.6009 191 52.2745 192.24 49.6038C195.693 42.1707 201.848 36.4161 209.84 34.3197C213.544 33.3482 218.813 32.5278 222.237 34.5645C224.275 35.7774 225.748 38.1546 226.27 40.4311C228.179 48.7442 219.001 59.2258 222.152 68.0143C223.576 71.9862 227.994 74.8581 230.624 78.0832C233.361 81.4413 235.259 85.0248 236.953 88.9911C242.76 81.0807 250.189 75.2312 259.199 71.3699C265.812 68.5359 272.48 66.147 278.982 70.7864C283.258 73.8371 285.293 89.2196 290.401 88.3216C297.007 87.1617 303.044 76.3351 307.575 72.0456C317.364 62.7751 331.27 56.1247 344.954 56.7142C352.476 57.0653 363.943 59.2323 365.205 68.2059C367.379 81.2946 356.09 91.3073 347.416 99.2466C343.658 102.705 338.846 106.291 336.569 110.94C340.049 117.21 346.17 121.709 343.728 130.307C342.364 135.109 338.256 137.982 333.028 141.364C325.629 145.912 310.067 146.315 304.989 153.406C303.603 155.344 308.016 161.979 304.548 166.858C292.962 183.157 271.449 172.773 255.972 178.853C252.653 180.157 250.297 184.955 250.297 187.058C258.971 188.164 257.904 193.339 265.82 192.641C284.749 190.973 286.364 183.365 296.283 180.943C309.376 177.746 310.827 185.674 331.19 185.674C342.094 185.674 361.564 196.457 360.117 210.08C358.81 222.446 338.878 214.17 338.068 224.231C337.469 233.261 338.349 241.012 330.24 247.065C314.923 258.497 298.316 239.317 283.555 250.038C267.556 261.655 246.916 251.432 234.334 240.543C224.71 232.214 213.694 226.807 200.888 226.995C199.635 227.013 198.252 227.66 196.79 228.184C163.421 240.414 150.909 250.173 170.31 207.464ZM203.113 214.074C210.104 209.601 213.016 202.735 219.251 198.95C214.694 199.093 206.573 199.671 202.264 201.127C200.289 201.795 196.098 203.94 194.478 205.517C174.668 224.801 167.899 236.61 203.113 214.074ZM200.998 192.979C201.556 192.477 204.304 181.261 203.851 178.937C203.57 178.982 188.734 193.89 187.303 195.332C168.56 214.21 173.571 220.562 200.998 192.979Z" fill="#92BF67"/>
<path d="M179.235 192.125C190.888 168.253 199.673 143.097 208.195 117.978C208.968 115.7 211.384 106.301 213.494 106.361C227.963 106.773 199.164 167.018 196.31 174.115C191.324 186.509 185.249 197.949 179.362 209.862C194.744 194.486 210.403 179.825 226.539 165.152C241.955 151.134 266.831 124.62 287.633 119.697C288.927 119.391 290.605 119.408 291.074 120.709C294.273 129.59 285.75 124.775 232.844 171.161C214.142 187.557 195.295 205.551 179.642 224.814C191.819 218.985 203.739 213.247 216.904 210.186C223.652 208.616 255.128 203.979 260.181 208.731C260.856 209.366 261.774 210.316 261.304 211.134C257.666 217.479 251.147 213.541 229.834 217.479C222.871 218.765 216.079 220.707 209.412 223.06C195.432 227.992 183.057 234.589 170.371 241.977C187.365 254.771 193.777 280.223 192.497 300.536C190.725 328.67 170.535 358.647 141.833 364.771C124.647 368.439 107.402 365.842 92.2415 356.784C84.792 352.283 77.7667 345.661 68.8039 343.71C61.9391 342.218 54.1091 343.407 47.3208 344.879C44.5513 345.481 38.5824 348.705 35.8964 347.1C32.8859 342.359 40.2344 338.602 42.2233 335.862C54.8611 318.455 44.9458 296.396 47.1341 276.898C48.351 266.054 51.3294 251.582 59.4885 243.462C86.6261 216.452 123.675 210.997 156.385 231.27C161.236 217.323 172.717 205.477 179.235 192.125Z" fill="#D12759"/>
</g>
<defs>
<clipPath id="clip0_90_464">
<rect width="330.991" height="334" fill="white" transform="translate(35 33)"/>
</clipPath>
</defs>
</svg>
