<svg width="400" height="400" viewBox="0 0 400 400" fill="none" xmlns="http://www.w3.org/2000/svg">
<g clip-path="url(#clip0_90_120)">
<path d="M285.846 88.2968C289.372 82.8777 292.859 77.3202 296.602 72.0549C301.637 64.9757 323.827 34.9877 331.367 33.4495C338.398 32.019 323.113 54.9062 321.319 57.4744C323.674 55.6732 326.509 52.2007 328.443 50.6715C332.248 47.6653 345.94 33.9796 350.169 34.1563C361.475 34.6286 346.205 48.6104 343.636 51.2736C342.434 52.5192 339.989 54.9346 338.74 56.1343C340.59 55.3344 342.303 54.5124 343.636 53.304C348.445 48.9444 350.459 44.8711 357.034 44.2321C362.925 43.6596 353.011 60.8517 348.902 64.3924C354.757 61.8598 360.387 59.6771 363.201 60.4382C364.447 60.7753 366.275 64.3787 364.013 67.0035C360.341 71.2656 355.151 73.9229 350.496 76.9497C352.915 76.2733 359.61 74.6817 361.483 76.1068C366.234 79.7209 359.25 84.4779 357.486 85.7763C348.694 92.1388 339.061 96.7377 329.41 101.584C323.286 104.659 314.652 110.262 308.538 112.755C303.939 100.401 298.318 93.9981 285.846 88.2968Z" fill="#92BF67"/>
<path d="M308.537 112.755C311.031 126.689 296.619 147.92 288.35 158.748C264.45 190.041 237.021 221.245 205.492 244.831C171.673 270.136 132.121 286.724 97.8148 311.195C86.4446 319.309 74.0166 325.6 64.0626 335.511C54.4512 345.079 49.8805 360.947 36.6263 365.931C35.7586 366.249 34.7424 365.64 34.6602 364.558C35.7611 361.822 41.1945 359.419 42.7762 356.731C46.5771 350.27 49.4947 343.44 53.9735 337.364C61.1821 327.589 68.4062 317.632 75.9838 308.154C82.9696 300.256 90.3539 291.802 95.6801 282.637C111.438 255.537 128.301 229.357 145.799 203.277C167.429 171.505 192.244 143.352 221.494 118.463C237.674 104.819 262.832 80.5148 285.845 88.2968C299.435 92.8923 306.073 98.9877 308.537 112.755Z" fill="#F5823B"/>
<path d="M164.469 220.682C170.921 222.7 186.216 238.326 189.506 244.859C190.092 246.022 190.734 249.651 189.839 250.707C186.547 249.039 184.156 244.415 181.619 241.783C175.797 235.74 169.165 228.743 162.508 223.725C163.215 222.241 163.459 221.949 164.469 220.682Z" fill="#FFC971"/>
<path d="M193.988 177.119C198.45 177.191 210.683 188.752 214.294 192.165C216.502 194.249 221.555 200.711 221.949 203.825C221.949 203.825 221.38 204.14 221.154 203.924C212.667 195.784 202.449 188.004 193.171 180.731C191.443 179.377 192.866 178.321 193.988 177.119Z" fill="#FFC971"/>
<path d="M257.199 104.491C262.534 104.946 277.201 118.373 275.3 124.192C274.727 124.738 274.762 124.692 273.973 124.813C270.95 122.515 267.973 118.905 265.098 116.362C261.714 113.367 258.032 110.419 254.529 107.551C255.461 105.89 255.613 105.566 257.199 104.491Z" fill="#FFC971"/>
<path d="M262.207 95.0895C267.989 96.4469 281.567 108.444 280.575 115.229C280.575 115.229 279.99 115.554 279.389 115.053C276.501 112.643 273.349 109.005 270.387 106.382C266.745 103.157 263.651 101.18 259.613 98.5486C260.646 96.8151 260.826 96.5981 262.207 95.0895Z" fill="#FFC971"/>
<path d="M225.358 182.226C225.837 182.196 227.238 182.091 227.627 182.334C232.37 185.298 242.428 194.533 239.88 200.777C237.38 198.97 227.573 188.366 224.914 185.148C224.424 184.556 225 182.986 225.358 182.226Z" fill="#FFC971"/>
<path d="M251.344 140.525C256.58 142.184 269.302 155.033 269.419 160.749L268.919 161.26C267.787 160.418 262.31 154.733 261.376 153.441C257.892 148.619 248.026 146.598 251.344 140.525Z" fill="#FFC971"/>
<path d="M126.663 246.618C133.007 247.839 139.058 254.704 141.544 260.42C142.032 261.541 142.792 263.221 142.351 264.374L141.757 264.366C137.38 261.473 132.673 254.899 128.226 251.679C127.546 251.186 125.319 249.359 125.092 248.681C125.362 247.674 125.867 247.369 126.663 246.618Z" fill="#FFC971"/>
<path d="M169.488 236.77C171.052 236.77 183.699 247.133 182.066 251.894L181.56 251.747C177.082 248.608 171.519 242.925 167.566 239.019C168.007 238.07 168.477 236.77 169.488 236.77Z" fill="#FFC971"/>
<path d="M109.358 273.594C114.051 273.483 121.884 282.16 121.198 287.051C121.198 287.051 120.502 287.134 120.213 286.87C116.042 283.071 111.706 279.46 107.215 276.046C108.035 274.779 108.221 274.594 109.358 273.594Z" fill="#FFC971"/>
<path d="M210.515 130.486C212.919 131.131 218.982 138.584 218.535 140.544L217.921 140.591C215.391 139.324 208.14 135.066 208.008 132.163C208.413 130.969 209.206 130.134 210.515 130.486Z" fill="#FFC971"/>
<path d="M205.556 226.799C208.422 226.994 212.148 232.088 213.234 234.649C213.564 235.425 213.368 235.6 213.021 236.265C210.749 234.935 205.8 231.217 204.838 228.667C204.605 228.045 205.229 227.296 205.556 226.799Z" fill="#FFC971"/>
<path d="M104.518 290.634C107.132 291.104 110.309 293.822 109.175 296.489C108.354 297.045 108.81 296.878 107.718 296.878C105.876 295.817 102.81 294.398 102.619 292.177C103.017 291.33 103.676 291.109 104.518 290.634Z" fill="#FFC971"/>
<path d="M81.4994 306.819C83.2296 306.867 83.7849 306.809 84.9998 308.23C85.9551 309.347 86.7571 310.56 86.6706 312.098L86.2191 312.395C84.8526 312.134 83.5547 311.591 82.4062 310.806C80.704 309.636 80.0964 308.492 81.4994 306.819Z" fill="#FFC971"/>
</g>
<defs>
<clipPath id="clip0_90_120">
<rect width="331.97" height="334" fill="white" transform="translate(34 33)"/>
</clipPath>
</defs>
</svg>
