<svg width="400" height="400" viewBox="0 0 400 400" fill="none" xmlns="http://www.w3.org/2000/svg">
<g clip-path="url(#clip0_90_1207)">
<path d="M210.601 82.8221C212.785 72.3839 213.718 61.3178 214.396 50.705C214.889 45.1534 215.714 36.7608 222.028 34.7747C224.787 33.9071 232.888 33.3744 235.19 34.9323C242.491 39.8697 237.812 53.8404 237.927 60.3798C238.032 66.4686 238.986 72.7578 240.482 77.8288C232.712 81.9388 234.714 81.607 232.247 89.6684C230.488 88.0236 227.17 85.5744 224.93 84.696C218.201 88.534 219.12 92.2858 212.545 94.7422C208.247 93.8942 203.964 93.2546 200.511 90.4151C199.45 89.5423 197.82 87.2389 196.744 86.9505C194.614 86.3792 190.864 90.1696 189.168 91.1716C186.616 92.6804 183.864 92.9747 181.093 93.4119C180.371 90.4109 177.989 81.9101 175.32 80.0302C175.029 79.8261 173.853 79.5395 173.426 79.4373C176.823 76.6698 174.444 57.2589 174.259 52.6647C174.122 49.2746 172.48 44.1728 175.746 41.8403C178.29 40.0238 184.264 36.6753 186.808 39.8772C190.181 48.698 190.284 60.1884 191.05 69.5386L191.131 69.2004C192.577 63.0015 194.669 40.8271 199.779 37.3912C201.661 36.1252 204.748 35.9071 206.943 36.3959C208.652 36.7762 209.979 37.6397 210.88 39.1529C211.614 40.3877 211.584 42.6541 211.582 44.0729C211.575 48.6851 210.736 53.4129 210.581 58.062C210.409 63.2325 210.188 68.4492 210.128 73.6187C210.095 76.5013 210.294 79.4836 210.087 82.3508C209.798 84.8301 209.756 86.0644 210.106 88.5584C210.212 87.4944 210.661 83.6828 210.601 82.8221Z" fill="#9DB328"/>
<path d="M242.922 76.9087C243.991 76.9135 248.343 82.0553 250.25 83.8527C252.316 85.7986 254.707 87.4828 255.726 90.2104C255.948 90.8041 258.132 88.9813 258.628 88.8844C261.439 88.3343 265.781 98.4024 268.927 104.105C272.511 110.599 279.964 114.992 284.236 120.96C290.34 129.619 293.967 140.147 300.211 148.933C305.129 155.857 312.423 160.4 316.811 167.935C323.01 178.577 322.327 190.097 321.253 201.887C320.731 207.639 319.379 212.999 319.236 218.826C319.304 221.402 319.266 220.937 319.286 226.451C319.266 231.905 318.938 238.956 317.267 244.434C317.202 246.66 317.773 248.996 317.479 252.032C316.671 260.432 315.647 269.592 316.711 277.996C317.322 279.554 318.456 281.593 319.311 282.967C321.504 286.493 324.996 286.945 321.235 290.875C320.118 288.919 319.321 287.932 317.903 286.145C316.754 287.426 315.465 289.415 313.58 288.826C312.651 286.875 314.525 284.878 315.864 283.64C312.982 278.719 313.204 276.925 313.284 271.371C311.218 274.965 308.934 278.485 307.339 282.306L307.399 282.48C307.434 282.58 307.466 282.677 307.499 282.775C309.014 287.171 308.962 291.957 307.352 296.322C310.365 301.872 310.355 301.528 315.567 305.165C316.96 304.652 323.865 302.638 324.575 304.048C323.7 306.646 321.006 306.571 318.693 306.666L318.453 306.94C319.543 309.103 325.946 308.797 326.205 312.032C323.414 315.88 307.284 304.235 305.198 299.654C301.133 304.338 298.286 306.748 292.85 309.652C295.888 313.58 298.212 320.609 298.099 325.651C298.069 326.942 297.339 329.657 297.02 331.01C297.853 332.04 300.455 334.956 298.396 335.985C297.038 335.704 296.499 334.599 295.749 333.48C295.26 335.031 294.607 338.273 292.666 337.987C291.546 336.908 292.314 334.565 292.785 333.291C297.052 321.795 295.006 322.541 291.93 311.975C290.45 316.481 289.116 316.775 289.368 321.745C286.878 325.041 284.677 325.342 280.654 325.275C276.773 325.21 272.882 325.153 269.004 325.18C269.178 327.047 269.483 328.944 269.754 330.803C271.783 332.924 273.954 334.814 275.956 336.987C278.376 339.595 280.562 343.184 283.371 345.35C284.954 346.571 290.043 346.913 292.042 346.808C296.509 346.576 301.581 342.202 303.521 348.837C303.919 350.2 303.192 351.93 302.444 353.049C299.717 356.923 294.847 358.864 290.37 359.831C287.292 360.457 284.096 359.909 281.255 359.572C269.744 358.214 268.62 351.741 260.684 346.501C260.696 347.105 260.776 349.443 260.624 349.816C259.914 351.561 259.597 356.282 257.827 357.027C255.806 355.706 256.835 353.877 256.574 351.92C255.106 352.379 254.293 353.488 252.66 352.892L252.601 352.339C253.52 350.407 255.886 349.315 257.778 348.513C257.012 342.468 252.12 335.003 248.637 329.993C246.713 330.103 235.494 332.571 234.864 333.625C236.419 338.954 240.12 343.588 242.653 348.423C243.882 350.774 249.066 364.049 244.876 364.849C244.004 364.355 242.952 358.49 241.613 356.417C238.735 354.759 235.611 353.655 232.972 351.389C227.314 346.526 225.489 342.272 224.681 335.185C217.31 337.548 216.911 332.142 208.868 337.86C203.725 341.516 203.283 340.813 201.851 347.434C203.296 349.866 209.811 356.726 208.496 358.986C205.879 359.831 203.14 354.201 201.87 352.304C201.856 352.75 201.835 353.196 201.806 353.64C201.697 355.298 201.163 356.997 199.887 358.122C199.375 358.244 198.119 358.231 198.081 357.553C197.847 353.393 199.334 347.875 198.952 343.797C190.333 346.893 177.976 340.953 171.208 335.746C168.976 335.888 158.305 337.93 157.224 338.72C160.049 341.611 172.871 348.351 171.556 352.887C169.215 353.872 166.461 349.734 165.185 348.092C164.206 349.968 162.665 356.349 161.078 356.723C157.841 354.881 161.285 348.66 162.526 346.312C160.594 344.946 158.675 343.595 156.792 342.184C155.861 341.484 153.06 339.094 152.182 338.692C147.091 336.352 142.235 334.968 137.994 330.948C138.364 336.23 138.218 342.167 137.895 347.157C137.444 354.131 131.551 356.918 126.713 360.455C125.595 361.272 124.367 365.033 122.995 366.165C121.993 365.876 120.481 364.375 119.766 363.528C114.666 357.491 118.254 351.883 122.802 347.875C119.638 343.971 115.037 343.004 111.268 339.465C110.301 344.3 106.993 348.007 103.633 351.651L102.048 349.373C103.026 347.553 103.743 346.544 105.018 344.958C102.578 345.23 100.072 346.389 97.8858 345.893C97.2893 345.342 97.4483 345.674 97.3997 344.859C99.0867 342.222 107.857 342.979 107.74 340.749C107.344 333.219 104.838 325.91 106.279 318.276C100.889 317.104 96.5545 315.736 92.7666 311.733C93.4017 314.273 94.1056 315.644 93.4219 318.311C92.9565 320.128 98.8983 321.549 96.7482 324.861L96.2696 324.946C94.8013 324.41 93.3469 322.919 92.4204 321.683C91.5236 324.001 88.8822 330.569 86.138 330.574C85.3099 329.996 85.5958 330.36 85.198 329.485C85.2578 328.171 88.2965 322.074 89.0301 320.242C91.6734 313.65 87.3675 309.549 84.5228 303.301C83.2476 306.005 77.4752 312.346 74.2521 311.155L74.1341 310.606C74.9101 308.657 76.872 307.413 78.5385 306.105C77.1484 306.202 75.1521 306.553 74.0915 305.813C73.7992 302.648 80.3463 303.739 81.4542 302.521C83.9896 299.734 82.6195 292.892 83.0569 289.412C83.5248 285.688 84.5507 282.777 85.1796 279.342C85.0051 279.063 84.8523 278.804 84.6836 278.52C82.9271 275.581 81.8653 272.279 81.5791 268.864C81.0779 263.188 82.1923 257.951 82.8939 252.363C83.7401 245.623 81.9547 236.553 83.217 230.175C83.6644 218.168 79.2556 207.672 80.712 195.553C81.7194 185.229 82.8306 174.836 85.6424 164.811C87.4794 159.491 90.2143 153.908 92.8965 148.965C99.5393 136.721 112.519 124.847 122.925 116.043C124.758 114.011 127.37 112.035 129.54 110.32L142.978 98.3258C147.939 93.9752 152.846 87.4093 158.466 84.1827C161.017 82.7185 164.032 84.7815 164.902 87.1683L165.041 87.5578L165.365 87.6112C167.36 86.2956 171.673 81.3519 173.426 79.4371C180.182 79.8598 180.006 88.8913 181.093 93.4118C183.864 92.9746 186.616 92.6802 189.168 91.1715C190.864 90.1695 194.614 86.3791 196.745 86.9504C197.82 87.2388 199.45 89.5421 200.511 90.415C203.964 93.2545 208.247 93.8941 212.545 94.7421C219.12 92.2857 218.201 88.5339 224.93 84.6959C227.17 85.5743 230.489 88.0234 232.247 89.6683C233.726 84.8353 234.021 76.8686 242.922 76.9087Z" fill="#F5E7D7"/>
<path d="M83.217 230.175C84.4223 233.313 86.6492 238.365 86.8055 241.501C86.9558 244.512 87.1592 249.569 86.8566 252.578C86.4929 256.194 82.7897 270.616 86.1564 272.996C86.8319 272.416 87.1587 270.91 87.9341 269.791C90.2095 266.503 92.9264 264.093 94.8352 260.564C96.3863 257.697 94.8878 252.53 97.552 251.406C100.296 252.236 99.1704 259.17 98.3968 261.294C96.7462 265.818 92.6692 268.592 90.2703 272.727C85.7773 280.377 84.8812 294.112 88.4939 301.98C93.925 313.806 105.018 314.33 115.609 314.33C115.697 314.492 115.785 314.652 115.873 314.814C115.608 318.388 112.608 318.114 109.75 318.124C108.778 322.994 108.766 329.824 111.41 334.717C114.493 340.422 127.075 341.736 126.388 349.36C126.265 350.736 122.099 353.795 121.454 356.344C120.962 358.284 120.86 359.522 121.857 361.516C123.452 359.983 123.779 357.703 125.468 356.414C129.39 353.421 134.456 350.769 134.179 345.118C133.973 340.926 134.939 335.143 134.487 331.028C134.252 328.897 130.325 324.642 129.051 322.162C126.695 317.57 126.945 314.151 125.717 309.293C114.474 308.799 113.763 299.804 115.521 290.803C112.787 289.652 99.1782 284.714 98.3347 282.461C98.2153 282.144 98.2293 282.104 98.2053 281.805C99.9905 279.868 113.877 286.122 116.646 287.304C117.551 285.07 120.77 276.576 122.971 276.324C126.388 278.52 117.37 292.224 118.896 300.34C122.265 306.2 126.555 305.783 132.531 304.819C134.835 313.068 148.826 316.234 156 314.54C159.032 313.821 160.683 309.618 161.818 306.98C160.38 304.173 158.415 301.399 159.552 298.164C161.826 291.688 169.675 285.302 176.822 287.299C181.596 288.679 182.644 294.981 184.386 298.797C187.192 304.946 189.146 307.7 187.501 314.495C189.038 315.903 192.215 321.055 193.737 321.17C195.202 320.482 196.284 318.276 197.34 317.015C200.441 313.311 203.992 312.76 208.142 311.112C207.708 309.582 207.33 307.032 208.391 305.634C213.035 299.52 216.844 311.429 221.595 309.976C224.825 308.986 227.028 306.673 229.182 305.016C228.932 301.015 229.186 297.665 228.235 293.729C227.014 288.675 224.557 285.123 222.51 280.531C221.637 278.572 221.13 274.826 220.788 272.603C221.61 272.127 222.561 271.543 223.393 271.115C224.587 273.792 224.385 276.391 225.309 278.714C227.53 284.298 231.978 290.165 232.388 296.469C233.089 307.253 230.538 315.711 228.235 325.651C225.27 338.453 228.907 345.699 240.908 351.539C234.251 341.751 230.35 335.559 232.972 323.63C233.685 318.52 235.365 314.151 235.801 308.999C236.409 301.775 235.569 295.262 235.644 287.884C235.686 283.595 237.974 274.106 240.158 270.03C240.235 269.888 240.631 269.746 240.803 269.676C244.56 270.933 240.771 279.981 240.272 282.648C239.465 286.972 239.418 290.138 239.654 294.515C247.401 287.007 251.499 283.094 263.523 283.44C277.91 283.851 276.429 284.078 288.067 277.024C289.906 269.041 297.683 265.88 303.017 260.374C303.371 260.013 303.777 260.063 304.214 260.078C305.829 261.364 305.235 264.315 303.984 265.698C299.767 270.354 291.18 273.206 291.751 280.688C291.988 285.988 298.002 293.4 294.086 297.8C290.913 301.367 287.633 301.19 284.398 305.978C284.191 308.895 284.122 313.152 286.183 315.574C287.987 315.402 288.451 308.58 289.789 307.334C294.64 302.855 300.233 300.821 303.67 294.736C306.818 289.161 303.017 284.756 304.52 279.579C305.926 274.724 310.515 269.402 312.332 264.447C313.842 260.329 313.122 256.937 314.081 252.75C314.692 249.783 316.878 246.157 317.267 244.434C317.202 246.66 317.773 248.996 317.479 252.032C316.671 260.432 315.647 269.592 316.711 277.996C317.322 279.554 318.456 281.593 319.311 282.967C321.504 286.494 324.996 286.945 321.235 290.875C320.118 288.919 319.321 287.932 317.903 286.145C316.754 287.426 315.465 289.415 313.58 288.827C312.651 286.875 314.525 284.878 315.864 283.64C312.982 278.719 313.204 276.925 313.284 271.371C311.218 274.966 308.934 278.485 307.339 282.306C308.906 286.877 309.037 291.752 307.352 296.322C310.365 301.872 310.355 301.529 315.567 305.165C316.96 304.652 323.865 302.638 324.575 304.048C323.7 306.646 321.006 306.571 318.693 306.666L318.453 306.94C319.543 309.103 325.946 308.797 326.205 312.032C323.414 315.881 307.284 304.235 305.198 299.654C301.133 304.338 298.286 306.748 292.85 309.652C295.888 313.58 298.212 320.609 298.099 325.651C298.069 326.942 297.339 329.657 297.02 331.01C297.853 332.04 300.455 334.956 298.396 335.985C297.038 335.704 296.499 334.6 295.749 333.48C295.26 335.031 294.607 338.274 292.666 337.987C291.546 336.908 292.314 334.565 292.785 333.291C297.052 321.795 295.006 322.541 291.93 311.975C290.45 316.481 289.116 316.775 289.368 321.745C286.878 325.041 284.677 325.342 280.654 325.275C276.773 325.21 272.882 325.153 269.004 325.18C269.178 327.047 269.483 328.944 269.754 330.803C271.783 332.925 273.954 334.814 275.956 336.987C278.376 339.595 280.562 343.184 283.371 345.35C284.954 346.571 290.043 346.913 292.042 346.808C296.509 346.576 301.581 342.202 303.521 348.837C303.919 350.2 303.192 351.93 302.444 353.049C299.717 356.923 294.847 358.864 290.37 359.831C270.412 362.513 270.325 352.866 260.684 346.501C260.696 347.105 260.776 349.443 260.624 349.816C259.914 351.561 259.597 356.282 257.827 357.027C255.806 355.706 256.835 353.877 256.574 351.92C255.106 352.379 254.293 353.488 252.66 352.892L252.601 352.339C253.52 350.407 255.886 349.315 257.778 348.513C257.012 342.468 252.12 335.003 248.637 329.993C246.713 330.103 235.494 332.571 234.864 333.625C236.419 338.954 240.12 343.588 242.653 348.423C243.882 350.774 249.066 364.049 244.876 364.849C244.004 364.355 242.952 358.49 241.613 356.417C238.735 354.759 235.611 353.655 232.972 351.389C227.314 346.526 225.489 342.272 224.681 335.185C217.31 337.548 216.911 332.142 208.868 337.86C203.725 341.516 203.283 340.813 201.851 347.434C203.296 349.866 209.811 356.726 208.496 358.986C205.879 359.831 203.14 354.201 201.87 352.304C201.802 354.4 201.566 356.643 199.887 358.122C199.375 358.244 198.119 358.231 198.081 357.553C197.847 353.393 199.334 347.875 198.952 343.797C190.333 346.893 177.976 340.953 171.208 335.746C168.976 335.888 158.305 337.93 157.224 338.72C160.049 341.611 172.871 348.351 171.556 352.887C169.215 353.872 166.461 349.734 165.185 348.092C164.206 349.968 162.665 356.349 161.078 356.723C157.841 354.881 161.285 348.66 162.526 346.312C159.261 344.004 155.257 341.576 152.182 338.692C147.091 336.352 142.235 334.968 137.994 330.948C138.364 336.23 138.218 342.167 137.895 347.157C137.444 354.131 131.551 356.918 126.713 360.455C125.595 361.272 124.367 365.033 122.995 366.165C121.993 365.876 120.481 364.375 119.766 363.528C114.666 357.491 118.254 351.883 122.802 347.875C119.638 343.971 115.037 343.004 111.268 339.465C110.301 344.3 106.993 348.007 103.633 351.651L102.048 349.373C103.026 347.553 103.743 346.544 105.018 344.958C102.578 345.23 100.072 346.389 97.8858 345.893C97.2893 345.342 97.4483 345.674 97.3997 344.859C99.0867 342.222 107.857 342.979 107.74 340.749C107.344 333.219 104.838 325.911 106.279 318.276C100.889 317.104 96.5545 315.736 92.7666 311.733C93.4017 314.273 94.1056 315.644 93.4219 318.311C92.9565 320.128 98.8983 321.549 96.7482 324.861L96.2696 324.946C94.8013 324.41 93.3469 322.919 92.4204 321.683C91.5236 324.001 88.8822 330.569 86.138 330.574C85.3099 329.996 85.5958 330.36 85.198 329.485C85.2578 328.171 88.2965 322.075 89.0301 320.243C91.6734 313.65 87.3675 309.549 84.5228 303.301C83.2476 306.005 77.4752 312.346 74.2521 311.155L74.1341 310.606C74.9101 308.657 76.872 307.413 78.5385 306.105C77.1484 306.202 75.1521 306.553 74.0915 305.813C73.7992 302.648 80.3463 303.739 81.4542 302.521C83.9896 299.734 82.6195 292.892 83.0569 289.412C83.5248 285.688 84.5507 282.777 85.1796 279.342C83.1902 276.159 81.8939 272.62 81.5791 268.864C81.0779 263.188 82.1923 257.951 82.8939 252.363C83.7401 245.623 81.9547 236.553 83.217 230.175Z" fill="#C79D7E"/>
<path d="M173.802 290.477C175.514 290.327 177.022 291.743 177.554 293.166C179.075 297.236 182.421 303.141 183.505 307.064C184.809 311.785 181.247 321.105 178.956 325.061C175.797 330.517 171.2 332.052 165.227 332.576C163.594 332.763 160.701 333.946 158.886 334.373C151.441 336.117 143.065 330.372 137.078 326.718C134.38 324.32 131.833 319.462 131.167 315.92C130.754 313.725 130.613 311.628 129.95 309.455L129.848 309.128C134.291 311.85 137.204 315.758 142.332 316.975C153.734 319.677 162.701 320.307 166.384 307.249C165.616 304.624 164.809 303.293 163.471 300.888C165.543 295.158 168.09 292.516 173.802 290.477Z" fill="#F5E7D7"/>
<path d="M261.935 300.661C262.159 300.875 265.651 308.59 265.731 308.999C267.149 316.294 263.289 326.058 266.977 332.583C268.513 335.287 272.307 337.855 274.009 340.148C279.662 347.748 282.743 351.486 292.912 351.322C294.21 351.3 299.036 348.632 299.542 349.993C297.74 353.934 290.395 355.954 286.564 355.816C266.431 355.09 271.298 347.963 260.3 342.673C257.166 341.165 256.701 336.192 254.874 333.116C253.917 331.506 250.258 326.751 249.767 325.524C248.039 321.225 248.655 319.477 245.629 315.337C248.126 313.328 250.479 311 252.892 308.859C255.868 306.217 259.405 303.707 261.935 300.661Z" fill="#F5E7D7"/>
<path d="M287.838 282.244L288.072 282.468C288.735 286.935 291.213 289.422 291.293 293.286C291.34 295.464 286.083 297.77 283.89 299.43L283.655 299.609C278.154 295.21 269.794 291.75 262.795 295.006C259.986 296.312 257.481 299.343 255.096 301.324C251.325 304.46 247.638 307.713 244.069 311.087C242.085 312.84 240.265 314.031 238.092 315.522C239.308 310.649 239.727 306.539 240.171 301.603C240.333 299.826 244.091 296.449 245.285 295.03C252.105 286.785 261.24 286.813 271.028 287.276C279.131 287.66 281.068 286.204 287.838 282.244Z" fill="#F5E7D7"/>
<path d="M209.246 314.968C213.524 315.424 210.254 325.395 225.504 325.337C225.318 326.409 224.871 331.429 224.017 331.758C221.447 332.75 217.44 330.644 214.786 331.097C207.517 332.339 203.021 339.552 195.761 340.709C192.238 341.277 189.424 340.31 186.104 339.425C182.505 338.298 177.932 336.018 174.902 333.789C177.205 332.638 179.096 331.337 181.137 329.789C185.417 332.189 186.945 331.751 190.88 332.83C199.868 335.29 210.171 323.283 197.395 321.9C201.495 317.895 203.681 315.96 209.246 314.968Z" fill="#F5E7D7"/>
<path d="M266.712 297.294C273.981 296.753 275.71 298.67 282.026 301.596C278.709 308.732 281.149 313.809 285.272 319.913C280.797 322.471 274.192 321.31 269.192 321.426C269.384 318.388 270.184 309.278 269.2 307.094C267.806 304.004 266.545 302.084 265.506 298.331C265.768 297.578 265.753 297.797 266.712 297.294Z" fill="#F5E7D7"/>
<path d="M212.275 309.063C213.582 309.577 213.6 310.651 214.521 311.519C216.926 313.787 221.375 313.62 224.434 313.059C226.488 312.683 227.479 311.86 228.909 310.552C228.539 313.376 228.253 315.447 227.624 318.231L226.294 321.748C222.602 322.182 221.18 321.798 217.958 320.098C216.328 316.79 212.751 312.162 212.275 309.063Z" fill="#F5E7D7"/>
<path d="M186.557 319.298C186.893 319.56 189.123 321.895 189.399 322.269C191.608 325.277 195.551 325.168 199.41 325.559C197.948 327.528 197.016 328.418 194.806 329.418C191.602 330.494 185.495 328.772 182.441 327.64C184.03 324.948 185.252 322.137 186.557 319.298Z" fill="#F5E7D7"/>
<path d="M243.149 317.119C244.602 318.572 245.422 323.839 245.883 326.03C241.609 326.641 240.225 327.214 236.332 328.772C236.043 328.941 234.789 329.437 234.41 329.592C234.769 321.461 236.987 321.053 243.149 317.119Z" fill="#F5E7D7"/>
<path d="M319.286 221.436C319.286 222.157 319.266 222.931 319.291 224.925C316.706 224.457 312.927 223.29 311.245 221.137C310.851 220.633 310.686 219.808 310.908 219.065C311.479 217.169 314.089 214.871 315.671 213.741C316.794 212.945 318.516 212.288 319.864 211.964C319.864 211.964 319.764 212.463 319.445 215.454C317.272 216.949 316.773 217.448 313.782 219.065C316.275 219.94 317.242 219.94 319.286 221.436Z" fill="#C79D7E"/>
<path d="M122.924 116.043C124.757 114.011 127.369 112.035 129.539 110.321C131.376 110.542 132.434 110.731 133.541 112.39C136.275 116.493 127.912 117.334 125.755 117.623C124.5 117.792 122.924 116.043 122.924 116.043Z" fill="#C79D7E"/>
<path d="M140.874 213.539C149.467 212.448 159.287 224.625 147.04 231.389C145.356 232.319 137.71 230.496 135.79 230.439C126.296 230.157 128.131 223.707 132.198 218.009C135.114 213.923 136.225 214.33 140.874 213.539Z" fill="#C79D7E"/>
<path d="M140.969 216.745C144.247 216.052 148.948 220.261 149.064 223.218C149.171 225.938 147.784 227.56 145.341 228.677C144.281 229.161 143.324 228.029 142.24 227.627C139.481 227.179 135.541 227.465 133.748 227.029C131.56 225.197 133.406 221.71 134.485 219.659C135.532 217.667 138.908 217.228 140.969 216.745Z" fill="#F5E7D7"/>
<path d="M240.304 202.565C243.557 202.173 247.794 202.253 250.965 203.006C255.422 204.063 257.515 206.872 255.885 211.353C254.253 215.848 251.994 217.263 247.949 219.252C242.416 220.454 234.925 217.964 232.511 212.056C231.043 208.466 237.51 202.901 240.304 202.565Z" fill="#C79D7E"/>
<path d="M241.959 205.444C245.089 204.783 246.67 205.583 249.705 206.174C251.463 206.516 252.901 207.575 252.161 209.541C250.907 212.884 249.499 214.569 246.336 216.197C241.485 217.67 235.852 215.208 235.725 210.87C235.698 209.97 239.585 205.945 241.959 205.444Z" fill="#F5E7D7"/>
<path d="M190.131 262.887C193.035 263.051 198.879 262.642 200.967 264.477C207.888 270.559 202.526 273.687 196.386 274.22C192.149 274.026 182.878 273.804 181.785 268.495C181.024 264.801 187.462 263.365 190.131 262.887Z" fill="#C79D7E"/>
<path d="M191.25 266.349C193.726 266.13 199.864 266.269 200.665 269.083C199.994 270.501 196.917 270.329 195.583 270.342C191.915 270.27 188.811 269.609 185.264 268.831C187.533 267.63 188.815 267.117 191.25 266.349Z" fill="#F5E7D7"/>
<path d="M111.828 144.597C114.801 144.485 118.179 146.293 120.148 148.656C122.176 151.091 122.731 155.048 119.772 157.026C117.58 158.491 115.826 157.876 113.438 157.425C111.024 157.285 108.473 157.291 106.266 156.677C100.028 154.942 103.953 147.401 108.591 146.532C109.869 146.292 110.567 144.645 111.828 144.597Z" fill="#C79D7E"/>
<path d="M110.71 148.63C112.317 148.936 120.384 150.821 118.122 153.864C116.781 154.258 115.65 153.915 114.191 153.731C112.371 153.586 105.89 154.339 106.296 151.703C107.538 150.118 108.941 149.525 110.71 148.63Z" fill="#F5E7D7"/>
<path d="M283.224 153.697C285.367 153.14 287.925 154.198 290.783 154.326C294.659 154.499 300.41 156.996 297.351 161.722C296.751 162.647 294.899 162.993 293.782 163.28C289.612 164.231 286.269 164.865 282.092 162.781C279.756 161.616 278.206 158.52 280.405 156.309C281.491 155.215 281.346 154.184 283.224 153.697Z" fill="#C79D7E"/>
<path d="M286.364 156.63C287.498 156.155 294.572 158.085 294.657 159.135C294.727 159.999 282.062 162.456 282.446 158.688C283.453 157.857 284.622 157.359 286.364 156.63Z" fill="#F5E7D7"/>
<path d="M277.086 168.993C278.699 168.732 278.761 168.652 280.16 169.458C286.892 173.338 280.135 177.139 275.339 176.084C273.225 175.543 265.264 173.83 270.96 169.809C271.441 169.469 276.179 169.086 277.086 168.993Z" fill="#C79D7E"/>
<path d="M208.012 119.984C210.25 119.058 212.633 121.195 213.391 123.569C213.785 124.774 213.656 126.089 213.036 127.195C212.125 128.786 211.163 129.01 209.507 129.41C206.145 128.673 203.678 128.893 203.271 125.523C202.941 122.789 205.493 121.026 208.012 119.984Z" fill="#C79D7E"/>
<path d="M209.196 123.176C210.248 123.07 210.431 123.866 210.475 124.888C209.713 125.64 209.873 125.416 208.677 125.722C208.064 125.738 207.83 126.027 207.559 125.481C207.251 124.863 208.303 123.265 209.196 123.176Z" fill="#F5E7D7"/>
<path d="M129.969 286.242C134.64 285.44 140.974 290.681 134.772 294.313C130.75 295.28 128.451 293.762 127.7 290.19C127.329 288.423 128.192 286.547 129.969 286.242Z" fill="#C79D7E"/>
<path d="M209.662 250.429C210.779 250.394 212.071 250.334 213.177 250.252C217.492 249.935 219.92 252.138 217.688 255.033C217.071 255.833 204.311 258.889 207.033 251.665C207.35 250.825 208.782 250.586 209.662 250.429Z" fill="#C79D7E"/>
<path d="M274.582 270.327C276.02 270.24 277.291 270.05 278.455 271.07C278.946 271.503 279.243 272.117 279.275 272.772C279.44 275.624 276.117 277.147 273.672 277.256C265.534 275.3 268.455 271.942 274.582 270.327Z" fill="#C79D7E"/>
<path d="M164.32 181.617C166.747 181.403 170.583 181.586 171.434 185.106C171.824 186.721 169.248 187.261 167.958 187.48C162.887 188.486 160.713 188.243 160.497 183.145C160.432 181.598 162.867 182.132 164.32 181.617Z" fill="#C79D7E"/>
<path d="M96.168 229.487C97.8759 229.397 99.8442 229.13 101.404 229.848C105.057 231.533 105.172 234.068 101.163 235.322C100.572 235.469 98.4818 235.952 97.9315 235.868C93.5045 235.175 92.4212 232.181 96.168 229.487Z" fill="#C79D7E"/>
</g>
<defs>
<clipPath id="clip0_90_1207">
<rect width="252.245" height="334" fill="white" transform="translate(74 33)"/>
</clipPath>
</defs>
</svg>
