<svg width="400" height="400" viewBox="0 0 400 400" fill="none" xmlns="http://www.w3.org/2000/svg">
<path d="M296.186 223.775C331.715 227.515 357.237 272.439 354.35 306.262C352.858 323.733 346.222 343.333 332.81 355.199C305.966 378.943 259.206 359.903 240.071 335.519C227.969 320.929 221.128 304.864 222.83 285.617C224.161 270.557 232.998 256.651 248.189 252.526C251.47 251.617 254.034 251.204 256.867 249.109C263.372 249.109 272.265 221.257 296.186 223.775Z" fill="#A7001B"/>
<path d="M156.448 243.548C177.043 246.964 188.149 270.581 188.023 289.476C188.084 315.574 176.275 339.075 154.636 354.245C131.701 370.316 102.493 369.609 82.3703 349.052C66.5023 332.839 58.9216 311.206 62.9521 288.592C67.2682 264.376 89.4678 225.154 119.577 231.661C127.905 233.464 131.038 236.162 135.595 242.998C144.299 248.42 142.234 241.181 156.448 243.548Z" fill="#A7001B"/>
<path d="M210.506 92.2899C215.311 90.4848 231.326 95.4308 236.124 97.4205C240.385 99.1881 245.618 102.309 247.206 106.904C244.103 116.994 241.274 166.748 245.383 191.517C248.797 212.12 256.903 232.339 267.397 250.261C270.011 254.794 276.668 260.3 275.986 265.837C275.774 267.576 272.419 267.719 271.075 266.743C259.343 258.211 251.648 241.72 246.435 228.336C232.571 192.292 229.943 152.897 238.896 115.331C232.139 121.078 225.039 128.003 218.739 134.286C198.213 154.752 178.772 177.559 164.277 202.737C160.818 209.598 156.419 216.574 153.392 223.607C149.372 232.951 141.334 250.261 137.209 261.531C135.34 263.042 133.22 260.782 132.246 259.29C130.8 246.42 140.261 230.244 145.397 218.973C163.21 179.877 204.577 131.322 235.323 106.476C227.786 102.297 218.739 100.195 210.152 96.878C210.547 95.4318 209.66 93.4984 210.506 92.2899Z" fill="#B7C865"/>
<path d="M91.1697 40.6667C86.1395 35.5082 91.3614 33.4289 96.2889 33.1877C102.078 32.9046 108.534 33.003 113.979 35.1712C116.929 36.3464 119.544 38.3697 122.396 39.8067L122.658 39.9367C120.018 36.2688 122.282 33.0039 127.12 33.6085C136.827 34.8212 148.431 41.6835 154.941 48.7901C156.4 47.1219 157.008 46.7701 158.976 46.0003C168.803 48.2783 178.53 57.9463 184.688 65.7634C185.423 64.1573 186.605 62.4765 188.595 62.5017C192.872 62.5197 196.117 67.1419 199.415 69.4559C204.588 73.0862 211.609 85.9607 212.032 92.0325C211.186 93.241 210.546 95.4318 210.151 96.878C204.454 103.369 195.415 108.864 187.246 111.469C182.695 112.92 171.784 117.476 169.973 110.688C162.298 113.999 145.138 117.77 137.626 112.662C136.324 111.777 137.233 110.077 137.202 108.76C130.676 108.02 123.966 108.786 117.307 107.752C115.124 107.414 108.993 106.167 107.615 104.05C107.158 103.348 107.718 101.693 107.957 100.859C103.164 100.581 98.4476 98.4993 93.9079 97.0494C89.1213 95.3135 79.7243 93.66 84.1308 87.1517C78.2989 85.2626 70.3474 80.472 66.0856 76.019C64.2803 74.1324 62.109 70.8107 60.4776 69.3255C56.8389 66.0405 52.6392 62.6257 49.5465 58.8566C43.1241 51.0293 41.2214 49.1903 52.5633 46.9203C59.1351 45.605 62.0781 44.064 69.0884 45.605C68.9442 39.4752 74.825 39.9649 79.3061 39.5841C83.3872 39.2374 87.1565 39.9925 91.1697 40.6667Z" fill="#72A546"/>
<path d="M74.3318 55.3288C76.5774 55.0067 80.8863 55.3503 83.2561 55.5045C99.4628 56.5571 115.288 64.8206 129.708 71.7299C148.476 80.6843 169.768 88.7867 190.814 89.7787C193.562 89.9707 197.858 88.2725 200.017 88.7147L200.304 89.2434C200.228 93.4851 194.574 94.1116 191.297 94.4244C173.886 96.0971 153.964 89.2075 138.089 83.2391C134.116 81.5056 130.043 79.1767 126.15 77.3481C110.239 69.8739 94.0168 61.8759 76.0554 61.6857C71.5568 61.6383 67.692 62.5684 63.791 60.0132C67.0058 56.9568 70.0464 55.9291 74.3318 55.3288Z" fill="#B7C865"/>
</svg>
