<svg width="400" height="400" viewBox="0 0 400 400" fill="none" xmlns="http://www.w3.org/2000/svg">
<path d="M248.422 96.3159C254.832 122.325 266.116 150.298 276.432 174.194C298.145 203.274 337.375 212.848 356.164 245.117C369.756 268.454 363.453 304.829 346.097 324.977C332.248 341.241 309.15 358.462 287.448 363.474C267.068 368.18 245.234 367.422 226.981 356.207C209.338 345.366 195.671 324.019 191.176 303.749C187.179 285.722 178.066 269.688 168.068 254.342C153.966 232.702 133.572 212.68 117.356 192.39C97.6252 160.037 123.47 173.161 140.917 170.041C150.46 181.586 162.258 192.209 172.504 203.143C174.569 205.347 180.749 210.972 182.118 212.793C184.321 208.777 185.115 205.059 186.876 201.704C178.867 193.638 171.183 185.729 163.91 176.982C162.428 175.199 160.679 173.155 159.087 171.493C160.003 171.009 161.054 170.359 161.964 169.829C164.396 172.701 174.012 185.112 176.158 186.302C176.658 186.579 176.432 186.537 176.974 186.399C177.338 183.177 166.416 170.893 163.668 168.078L166.002 166.148L168.53 163.879C172.153 167.661 192.181 192.397 195.355 193.225L195.517 192.965C195.07 190.911 193.002 188.263 191.718 186.592C185.072 177.94 177.529 170.2 170.52 161.85L172.864 160.037L174.472 158.875C171.225 155.892 154.002 137.8 154.378 134.984C155.206 134.436 154.756 134.587 155.798 134.575C157.898 135.734 165.853 146.184 168.218 148.667C170.563 151.129 173.623 154.29 176.118 156.785C177.17 155.743 177.71 155.241 178.887 154.34C184.179 160.369 189.78 165.264 195.016 171.629C194.475 169.895 193.212 167.172 192.486 165.427C189.536 158.333 185.876 151.497 182.415 144.625C184.095 143.838 185.344 143.287 186.889 142.273C187.924 145.153 195.272 162.197 197.554 162.77L197.775 162.359C195.016 155.765 190.796 146.719 188.084 140.854C188.415 140.197 191.654 141.168 192.473 140.194L192.54 139.814C193.401 139.712 194.205 139.622 195.069 139.554L195.328 139.357C196.289 138.928 196.607 138.74 197.482 138.15L197.925 137.286C199.878 138.208 199.155 137.579 200.683 137.288L200.507 136.66L201.685 136.205L204.401 134.809C204.957 135.968 208.295 141.937 208.998 142.874C211.734 146.514 223.193 170.465 226.563 170.879C227.614 167.665 208.914 139.275 206.456 133.31L206.342 133.028C207.39 132.316 208.379 131.535 209.383 130.762C209.664 131.091 211.285 133.973 211.662 134.606C213.143 137.088 214.674 139.54 216.255 141.96L235.731 171.789L222.333 124.414C220.477 117.939 217.895 112.545 216.498 105.349L216.481 105.291C222.333 83.9735 247.852 91.0728 248.422 96.3159Z" fill="#DEE777"/>
<path d="M243.373 110.477C255.679 137.872 258.975 176.536 290.973 199.193C308.254 211.419 326.799 223.461 340.499 239.759C357.324 259.754 359.895 293.784 343.138 315.073C333.026 327.926 317.246 340.777 301.851 346.719C290.973 321.274 283.143 298.938 275.821 274.216C273.232 265.48 272.099 255.53 270.466 246.544C268.108 230.965 266.445 215.197 266.589 199.427C266.614 196.939 266.848 189.532 266.435 187.418C265.65 183.392 262.561 169.242 259.134 167.311L258.44 167.264C256.311 169.3 262.663 184.377 262.727 188.415C263.212 218.594 264.72 248.778 272.678 278.068C276.045 290.461 280.978 302.601 285.049 314.783C288.366 324.467 293.513 340.601 300.715 347.576C286.455 354.42 275.265 359.048 258.992 357.358L258.865 357.025C248.224 341.155 245.103 327.705 241.681 310.762C232.491 265.469 237.29 219.881 244.882 175.654C241.795 162.377 236.793 149.303 233.102 135.645C230.331 128.925 227.191 109.908 221.385 103.577C223.427 92.1965 244.745 79.223 243.373 110.477Z" fill="#F9FAF5"/>
<path d="M253.808 187.217L254.349 187.268C254.349 190.059 250.164 237.774 250.88 262.528C251.315 267.911 252.627 273.398 253.164 278.788C254.285 294.258 256.74 309.497 260.811 324.467C261.621 327.442 266.348 339.957 265.428 341.957C264.71 341.873 264.889 341.823 264.245 341.093C255.593 325.763 252.177 309.12 250.164 291.644C249.71 287.866 249.578 283.99 249.103 280.195C246.317 258.014 246.835 237.395 248.119 215.042C248.505 208.335 249.183 192.378 253.808 187.217Z" fill="#DEE777"/>
<path d="M274.049 190.92L275.031 191.143C278.736 194.519 280.62 207.307 281.452 212.247C283.142 222.295 287.803 235.781 292.715 244.471C298.167 254.213 305.414 259.762 310.563 269.859C315.342 279.38 319.223 289.323 322.158 299.561C323.155 302.949 326.92 319.112 325.777 321.214C322.158 315.807 317.433 294.16 314.211 285.605C303.5 257.106 286.835 257.158 275.031 206.958C274.129 203.122 271.763 194.772 274.049 190.92Z" fill="#DEE777"/>
<path d="M287.241 202.922C288.645 203.623 293.039 212.416 295.668 214.769C306.464 224.568 319.287 233.765 327.657 245.841C334.044 255.053 339.195 266.914 341.668 277.844C342.066 279.601 342.652 287.011 341.75 288.329L341.188 288.16C340.055 285.779 339.026 279.777 338.124 276.823C335.08 266.855 330.197 255.838 324.22 247.274C318.412 238.952 308.489 230.716 300.952 223.88C296.913 220.216 292.741 216.608 289.525 212.142C288.094 210.154 286.588 206.992 285.375 204.751L287.241 202.922Z" fill="#DEE777"/>
<path d="M243.027 123.564C243.226 123.675 243.263 123.687 243.459 123.853C245.634 125.699 254.913 157.327 255.445 161.495C255.542 162.261 255.602 162.451 255.134 163.059C252.07 160.127 246.971 140.413 245.422 135.766C244.476 132.916 242.905 128.428 242.023 125.448C241.836 124.815 242.602 124.094 243.027 123.564Z" fill="#92BF67"/>
<path d="M135.071 174.851C140.574 180.991 196.301 245.229 202.81 235.627C202.673 232.96 189.73 219.682 186.814 217.441C188.348 215.105 190.424 212.073 191.446 209.522C201.49 216.461 219.771 220.604 231.871 221.981C226.054 244.238 228.078 273.627 231.495 295.697C234.815 317.122 239.894 336.963 250.693 355.814C245.327 354.284 238.3 352.132 233.608 349.142C211.594 335.109 203.766 311.855 196.301 288.475C193.405 280.247 188.974 271.273 184.43 263.868C170.156 240.614 140.917 209.522 122.476 186.083C118.038 182.625 137.891 169.983 135.071 174.851Z" fill="#F9FAF5"/>
<path d="M51.9161 69.4013C51.9276 66.1651 51.8558 64.6005 51.4882 61.4757C51.2146 59.1504 48.6008 51.4309 49.0729 50.0919C50.5106 49.7708 51.5655 51.8054 52.2357 52.905C55.6533 58.5142 55.6567 64.8918 54.9992 71.1963C54.484 76.1345 57.4609 79.8286 59.5455 83.9738C65.5336 95.8807 72.6154 107.113 79.873 118.271C81.2271 120.353 83.2008 122.972 84.1193 125.224C86.6599 123.129 91.6408 119.8 94.9487 122.032C102.424 127.076 107.708 134.523 113.667 140.982L132.43 160.948C134.602 163.304 138.624 168.269 140.917 170.041L137.444 171.617C141.883 176.21 146.392 180.736 150.968 185.192C153.771 187.956 157.174 191.124 159.566 194.211C160.312 195.176 160.733 197.618 160.983 198.87C159.359 197.631 157.886 196.136 156.461 194.675C150.389 188.453 143.952 182.533 138.21 176.002C137.672 175.39 136.716 174.105 136.073 173.705C135.492 173.98 135.396 174.29 135.071 174.851C133.945 176.046 132.709 177.307 131.624 178.526C138.317 185.577 144.368 193.037 150.955 200.012C162.053 211.765 173.945 222.664 184.134 235.321C185.444 236.906 190.881 241.648 191.13 243.065C190.608 244.402 188.271 244.059 187.522 243.405C179.987 236.827 174.061 228.611 167.176 221.382C164.152 218.199 161.428 215.497 158.604 212.515C150.889 204.505 143.458 196.226 136.325 187.694C134.464 185.476 131.342 182.491 129.997 180.237L126.663 182.79C137.163 193.798 147.592 204.851 157.446 216.454C160.787 220.388 172.164 231.954 173.586 236.797L173.456 237.232C168.598 237.376 128.005 186.068 123.611 185.104L122.957 185.481C122.756 186.403 122.117 186.999 121.497 187.752C119.976 186.36 115.087 181.745 113.321 181.468C111.49 182.913 116.575 190.234 118.997 190.556C120.741 189.978 120.594 188.083 121.497 188.071C126.126 193.713 137.145 206.769 140.002 212.831C135.402 211.561 134.417 209.443 131.558 206.062C130.012 204.233 120.28 191.169 118.59 191.165C118.213 191.563 117.781 192.068 117.356 192.39C115.983 191.416 113.106 187.525 111.866 185.949C106.902 185.579 101.307 183.715 96.3419 185.034C86.1273 187.749 76.951 199.544 65.5818 196.356C64.8345 196.146 64.425 195.905 64.1019 195.224C64.9874 193.96 69.636 193.489 71.4469 192.88C79.3094 190.236 84.9111 185.405 92.6833 182.296L91.2705 182.296C86.3035 182.312 77.291 178.431 72.9532 179.255C64.891 180.96 57.1617 187.352 48.7138 186.902C47.7742 186.852 45.9283 185.979 46.3182 184.715C47.1803 184.075 48.852 183.926 49.9377 183.702C56.7005 182.304 63.0791 179.193 69.4318 176.459C63.9076 176.115 59.1811 173.127 53.7949 172.188C51.1435 171.726 38.6235 171.945 38.2574 168.446C39.6787 167.343 44.5247 168.93 45.9628 168.123C44.6146 166.31 37.4431 163.552 36.2587 159.973C35.9115 158.925 34.7676 155.307 36.9498 155.284C40.2284 155.249 43.7302 158.587 46.5774 160.098C54.6441 165.299 63.421 168.168 72.4788 171.02C75.865 172.086 79.8143 173.049 82.9023 174.654C82.5994 174.384 82.3022 174.108 82.0112 173.825C80.7261 172.575 74.7554 166.099 74.7276 164.724L75.1408 164.352C79.0584 163.9 83.9173 172.552 87.6492 174.6C91.5076 176.814 96.3901 176.916 100.679 177.979C101.991 178.305 104.586 179.577 105.541 178.982C105.251 178.279 99.0613 171.78 98.1498 171.076C93.5272 167.555 87.8144 163.798 82.2937 162C75.6741 159.844 68.9584 161.128 62.2393 160.766C60.9866 160.699 58.6242 158.198 57.9401 157.176L58.2604 156.64C60.0045 156.632 61.7967 157.758 63.7635 158.003C66.4529 158.339 68.7981 157.765 71.525 157.842C73.2168 157.89 76.1684 158.508 77.6672 158.149L77.6749 157.777C74.8409 155.203 70.3175 151.775 67.2329 149.34C58.957 149.956 44.1484 148.142 40.9667 138.847C40.8072 138.382 40.8713 138.026 41.1223 137.628C42.6153 137.867 45.7526 140.687 47.1658 141.666C51.2404 144.486 55.579 145.771 60.4115 146.526C61.7498 146.735 63.2836 147.269 64.6047 147.048C64.5975 146.93 64.59 146.811 64.5828 146.692C61.7699 144.76 54.1858 136.274 51.9462 134.984C47.9693 132.695 36.4346 128.032 36.3016 123.74L36.581 123.493C37.6869 123.491 46.5659 129.263 48.435 130.252C46.0239 127.957 38.4177 119.592 40.0669 116.115C40.6121 115.828 40.9339 115.619 41.5877 115.834C45.9193 117.264 48.4502 120.863 51.2934 124.079C54.2628 127.438 57.32 130.319 59.8551 134.042C58.5427 129.194 59.1652 126.493 59.379 121.643C59.4433 120.185 58.994 117.959 59.3081 116.585C65.3574 116.471 61.0895 135.294 64.6738 138.347C70.1475 143.01 78.8896 152.764 84.8611 156.178C82.4088 152.921 78.4306 149.936 75.5571 146.766C72.8001 143.724 73.3819 142.577 73.4465 138.614C73.5089 134.805 78.2597 129.488 80.9714 127.122C77.0608 123.47 74.9035 119.217 70.436 115.863C64.2881 111.246 58.5477 110.44 51.2693 108.758C48.8595 108.201 45.9337 107.293 43.9705 105.712C42.8166 104.783 41.008 102.524 42.4026 101.115C43.4071 101.151 46.5632 103.384 47.7208 103.971C49.1895 104.716 50.5541 105.295 52.0836 105.907C50.2521 103.641 39.6317 90.0884 41.1919 87.9326C44.7913 88.4716 53.5248 103.65 55.8983 105.731C58.0564 107.623 64.0664 108.288 68.6035 111.205C65.3902 106.138 61.9697 101.284 59.0643 96.0122C58.2925 94.6116 56.915 92.3499 55.7035 91.3168C50.0456 86.4929 43.4354 83.2305 37.5204 78.7361C38.1533 78.7128 38.7868 78.6984 39.42 78.6924C44.0167 78.6733 50.8697 83.9121 54.0588 87.1105C51.6639 82.9728 41.8616 66.5411 44.0575 62.7665C47.2665 61.2866 50.691 67.0916 51.9161 69.4013Z" fill="#92BF67"/>
<path d="M87.8516 145.854C94.0037 147.315 98.0783 156.01 102.519 159.749C106.307 162.937 119.99 177.634 126.452 183.101C125.756 183.333 124.081 185.059 123.47 184.592C118.54 180.983 114.108 175.493 109.798 171.286C103.362 165.002 96.8544 159.299 91.6063 151.902C90.4048 150.208 88.3973 147.852 87.8516 145.854Z" fill="#DEE777"/>
<path d="M101.465 149.381C108.407 151.578 114.374 160.484 119.313 165.518C121.544 167.791 128.938 175.646 131.423 178.389C130.926 179.125 130.429 179.622 129.932 180.119C123.099 174.458 115.592 166.201 109.61 159.679C107.156 157.003 104.265 154.618 102.003 151.77C101.665 151.345 101.531 149.946 101.465 149.381Z" fill="#DEE777"/>
<path d="M114.824 151.261C116.678 151.349 116.989 151.57 118.434 152.829C125.167 158.777 131.063 165.346 137.387 171.67C136.901 171.71 136.271 173.976 135.896 173.658C129.879 168.566 122.079 160.615 116.723 154.822C115.711 153.727 115.218 152.34 114.824 151.261Z" fill="#DEE777"/>
<path d="M96.2244 131.336C98.4871 132.023 109.228 143.977 110.434 146.053L109.978 146.959C109.712 147.013 108.836 147.168 108.592 147.025C105.545 145.253 95.162 134.766 96.2244 131.336Z" fill="#DEE777"/>
<path d="M176.037 247.704C177.738 247.612 178.276 247.662 179.694 248.795C188.098 255.522 198.664 266.203 203.988 275.548C213.789 301.468 223.491 314.813 227.12 326.214C226.349 325.623 224.247 322.725 223.491 321.724C215.902 311.681 211.307 299.325 205.899 287.998C202.569 281.027 200.275 274.037 195.146 268.003C189.977 261.923 181.125 253.679 176.037 247.704Z" fill="#DEE777"/>
<path d="M203.405 222.14C207.764 222.774 213.999 226.901 219.086 226.804C220.746 226.772 226.365 226.541 227.073 227.62C226.636 228.363 226.767 228.132 225.855 228.579C223.763 229.394 222.009 230.112 219.22 229.541C214.628 228.601 206.645 227.133 203.288 223.683C202.878 223.261 203.223 222.622 203.405 222.14Z" fill="#DEE777"/>
<path d="M196.955 250.125C201.475 250.95 217.897 263.346 217.715 267.98C214.845 266.37 208.284 259.914 205.163 257.647C202.939 256.032 198.279 253.437 196.716 251.71C196.488 250.811 196.52 251.149 196.955 250.125Z" fill="#DEE777"/>
<path d="M207.693 238.733C209.91 238.768 216.744 241.295 218.556 242.431L218.71 243.236C216.352 243.318 210.017 242.294 208.225 240.5C207.601 239.874 207.723 239.506 207.693 238.733Z" fill="#DEE777"/>
<path d="M200.506 136.66L201.684 136.205C208.797 149.455 218.233 162.549 226.468 175.159C229.46 179.741 232.92 184.241 236.118 188.683C236.595 189.343 237.512 189.838 238.25 190.181C237.189 194.686 236.593 199.083 235.745 203.617C235.166 206.729 233.991 209.973 233.63 213.114C228.059 212.294 222.495 211.044 216.988 209.848C215.534 200.198 211.548 187.863 207.981 178.871C204.082 169.037 197.745 150.317 190.454 142.802L189.574 141.351C189.906 140.694 190.568 140.854 192.473 140.194L192.54 139.814C193.4 139.712 194.205 139.622 195.069 139.554L195.328 139.357C196.289 138.928 196.607 138.74 197.482 138.15L197.924 137.286C199.878 138.208 199.154 137.579 200.683 137.288L200.506 136.66Z" fill="#F9FAF5"/>
<path d="M192.54 139.814C193.4 139.712 194.205 139.622 195.069 139.554C200.119 147.42 203.966 156.224 208.208 164.543C211.048 170.113 214.174 175.546 216.866 181.188C217.355 182.225 218.742 185.386 218.352 186.439C217.48 186.239 216.62 184.704 216.133 183.934C212.552 178.286 209.13 171.375 206.2 165.685C204.035 161.48 195.246 142.709 192.473 140.194L192.54 139.814Z" fill="#92BF67"/>
<path d="M197.925 137.286C199.878 138.208 199.155 137.579 200.683 137.288C201.953 141.824 208.029 147.49 207.917 152.297L207.649 152.716C205.045 152.209 200.057 139.829 197.482 138.15L197.925 137.286Z" fill="#92BF67"/>
<path d="M213.102 165.778C213.43 165.876 214.339 166.18 214.558 166.474C219.091 172.58 222.473 179.794 226.233 186.418C227.533 188.712 231.089 194.844 230.406 197.276C229.755 197.229 229.166 197.148 228.825 196.569C226.323 192.32 224.014 187.783 221.653 183.459C218.78 178.192 215.699 173.098 213.189 167.658C212.933 167.098 213.022 166.369 213.102 165.778Z" fill="#92BF67"/>
<path d="M172.864 160.037C175.143 160.885 196.458 186.393 201.772 189.925C204.694 196.181 204.828 201.139 206.866 206.858C196.078 202.717 194.144 200.315 187.066 191.728L175.14 177.101L168.778 169.492C168.242 168.854 166.339 166.691 166.002 166.148L168.53 163.879C172.153 167.661 192.181 192.397 195.355 193.225L195.517 192.965C195.07 190.911 193.002 188.263 191.718 186.592C185.072 177.94 177.529 170.2 170.52 161.85L172.864 160.037Z" fill="#F9FAF5"/>
<path d="M246.828 109.858C247.663 110.024 248.281 110.362 248.801 111.033C249.842 112.373 256.813 131.023 257.479 133.657C257.707 134.551 257.678 135.319 257.541 136.225C253.783 134.813 248.617 116.164 246.865 111.958C246.676 111.507 246.768 110.383 246.828 109.858Z" fill="#92BF67"/>
<path d="M176.574 157.077C178.479 158.82 187.667 168.991 187.645 171.043L186.994 171.363C184.133 170.248 182.016 167.361 180.109 165.031C179.027 163.709 174.711 159.942 174.664 158.747C175.148 158.05 175.991 157.703 176.574 157.077Z" fill="#92BF67"/>
<path d="M121.092 76.9086C119.024 74.55 114.482 71 114.547 67.3622C114.588 65.104 117.913 65.7263 119.182 64.7544C119.411 63.1338 115.771 55.2157 114.733 53.5378C113.797 52.0373 112.786 50.5855 111.703 49.1876C110.231 47.2994 106.331 43.5083 106.202 41.3346L106.542 41.0063C111.388 41.52 119.115 53.2403 120.486 57.9608C121.516 59.9608 122.189 66.4201 123.429 67.9572C138.575 86.7156 156.954 105.445 163.661 129.201C165.634 136.19 164.375 139.705 170.26 144.891C173.047 147.346 176.051 151.584 178.888 154.34C177.71 155.241 177.17 155.743 176.119 156.785C173.623 154.29 170.563 151.129 168.218 148.667C165.853 146.185 157.899 135.734 155.798 134.575C154.756 134.587 155.207 134.436 154.379 134.984C154.002 137.8 171.226 155.892 174.472 158.876L172.865 160.037L170.52 161.85C177.529 170.2 185.073 177.94 191.719 186.592C193.002 188.263 195.07 190.911 195.518 192.965L195.356 193.225C192.181 192.397 172.153 167.661 168.53 163.879L166.002 166.148L163.668 168.078C166.416 170.893 177.338 183.177 176.974 186.399C176.432 186.537 176.658 186.579 176.158 186.302C174.013 185.112 164.396 172.701 161.964 169.829C161.054 170.359 160.003 171.009 159.087 171.493C156.368 169.328 152.018 162.466 149.452 159.635C144.166 153.804 139.161 147.484 134.017 141.543C130.446 137.42 128.216 132.801 122.929 130.757C120.591 129.854 117.458 127.834 115.17 126.585C108.528 121.959 102.918 116.877 96.1016 112.322C94.4696 111.21 92.7711 110.199 91.0151 109.296C88.4472 108.002 74.6933 102.793 76.878 99.266C78.0256 99.0741 91.6813 106.207 93.7186 107.239C91.8866 105.112 90.0538 102.479 87.9822 100.594C85.7948 98.6039 83.091 96.8566 80.7381 94.9732C75.1536 90.5027 70.2976 85.4238 66.1261 79.6223C64.2317 76.9876 61.1387 71.3874 61.7247 68.1304L62.0895 67.9609C63.7337 69.0797 65.137 72.991 66.4382 74.7542C70.3635 80.0721 77.8974 89.9043 83.4645 93.2162C80.2118 89.7256 73.8312 79.9101 73.3769 74.6568C73.4008 73.7425 74.1553 72.3427 74.8901 71.83C77.9456 69.6988 81.0512 77.3793 82.053 79.4007C82.2568 76.506 82.643 73.6513 83.4146 70.8489C82.3157 68.5275 81.9802 65.9736 80.4292 63.4802C78.749 60.7789 77.7848 60.6094 75.5629 58.7414C69.8764 53.9605 63.6693 51.6431 57.1151 48.4403C56.2649 48.0248 54.5683 47.2626 54.2793 46.3834C54.6051 46.0499 54.5942 45.9261 55.0345 45.9187C61.349 45.812 70.5804 51.499 75.3961 54.8852C73.9977 52.2177 65.269 43.6719 65.345 41.894C68.1502 40.8304 71.0392 44.5163 72.6508 46.2623C77.9826 52.0393 81.8932 57.9317 84.6258 65.3436C84.7193 61.7272 85.1415 52.078 86.009 48.7485C91.571 57.5244 87.3391 68.4952 85.8691 77.8067C85.4792 80.2764 85.7113 82.9889 85.9586 85.4626C88.7703 89.2273 91.5501 93.7969 94.5261 97.7622C101.238 106.707 107.549 112.701 115.78 120.012C114.043 115.035 113.752 112.083 113.117 106.883C111.975 105.568 110.684 104.317 109.476 102.977C104.7 97.6812 101.084 91.4232 98.6881 84.7188C98.0723 82.9951 96.5678 77.138 98.0184 75.801C98.8688 76.8629 103.323 87.283 104.442 89.4974C107.505 95.5564 109.434 98.042 113.579 103.348C113.221 101.166 112.159 89.9791 113.413 88.6617C117.49 89.2393 116.619 103.706 116.64 106.775C117.856 104.191 119.574 101.803 120.84 99.0801C121.798 97.0207 122.753 91.3295 124.279 90.2087C124.598 90.4609 124.709 90.5688 124.847 90.9589C127.734 99.0783 121.744 104.187 118.373 110.515C116.421 114.178 118.763 118.936 120.235 122.556C122.197 124.248 126.6 126.638 129.05 128.178C130.786 122.672 136.951 118.838 142.241 117.371C146.658 118.616 150.033 123.815 153.161 127.03C155.428 129.358 157.734 131.741 159.973 134.091C157.116 127.887 156.876 125.856 151.462 120.586C149.821 118.994 147.957 117.649 145.928 116.595C143.123 115.133 127.568 110.227 128.929 106.998C130.228 106.28 132.224 107.196 133.517 107.726C140.653 110.647 146.463 112.292 152.375 117.444C147.408 107.936 137.696 96.9687 131.074 88.4279C128.952 85.692 125.93 82.4325 124.13 79.6365C116.654 80.1039 107.008 75.2485 101.655 70.2485C99.537 68.2703 96.2005 63.9676 96.1275 60.9459L96.4846 60.643C98.0298 60.885 104.193 68.493 106.481 70.1428C111.588 73.8263 115.039 75.291 121.092 76.9086Z" fill="#92BF67"/>
<path d="M142.928 131.351C144.153 131.573 146.339 133.783 147.145 134.747C154.408 143.424 162.347 153.532 170.19 161.729C170.19 162.723 169.195 163.22 168.201 163.717C162.903 158.428 144.104 138.119 142.928 131.351Z" fill="#DEE777"/>
<path d="M148.383 150.962C152.164 151.854 160.824 164.343 163.232 167.693C162.735 169.185 162.574 169.301 161.741 169.682C158.838 165.773 149.099 155.43 148.383 150.962Z" fill="#DEE777"/>
<path d="M148.344 37.9171C151.48 31.1106 155.014 37.8109 157.441 41.1447C159.781 44.3597 161.644 47.9276 163.457 51.4543C162.637 47.0193 161.188 44.9783 160.389 41.6139L160.6 41.3045C161.238 41.3594 162.955 42.3895 163.293 42.8948C167.596 49.3143 164.833 56.1158 169.441 63.2312C171.572 66.5205 175.308 79.3109 175.362 82.6989C176.741 82.5669 178.15 82.6639 179.537 82.7163C181.095 83.7096 182.669 85.1033 183.677 86.6468C189.147 95.0196 193.955 104.587 199.483 112.871C199.406 111.452 198.166 107.72 197.736 106.015C195.512 96.9705 192.855 89.0173 186.588 81.8967C184.209 79.1934 174.556 71.4915 175.612 67.9567L176.151 67.8503C178.339 68.5089 188.87 79.9007 191.004 82.2655C188.285 76.4956 186.78 68.8511 183.877 62.9007C182.223 58.9673 179.627 55.3144 178.192 51.3101C177.765 50.122 179.9 47.1053 181.306 47.4366C186.548 48.6719 188.407 58.8959 190.85 61.6246C191.52 61.299 190.448 55.2475 191.423 53.0929L191.776 53.1262C193.876 56.3288 194.428 60.2888 193.793 63.9907C193.653 65.4398 193.105 67.4989 193.553 68.9082C196.046 76.757 198.166 85.1112 200.621 92.9314C201.54 88.6279 202.646 84.68 202.952 80.2667C203.022 79.2627 203.049 77.2731 203.623 76.6643C205.462 76.8815 206.004 83.268 205.775 84.7819C205.002 89.8834 203.255 95.0427 202.177 100.147C203.123 102.671 203.335 104.801 203.993 107.237C205.817 113.992 206.988 124.447 209.384 130.762C208.38 131.535 207.39 132.316 206.342 133.028L206.456 133.31C208.914 139.275 227.614 167.665 226.563 170.879C223.193 170.465 211.734 146.514 208.998 142.874C208.295 141.937 204.958 135.968 204.401 134.809L201.685 136.205L200.507 136.66L200.683 137.288C199.155 137.579 199.878 138.208 197.925 137.286L197.482 138.15C196.608 138.74 196.289 138.928 195.328 139.357L195.069 139.554C194.205 139.622 193.401 139.712 192.54 139.814L192.473 140.194C191.066 140.854 189.906 140.694 189.575 141.351C192.473 147.813 196.533 155.765 197.776 162.359L197.554 162.77C195.272 162.197 187.924 145.153 186.889 142.273C185.344 143.287 184.095 143.838 182.415 144.625C181.468 143.417 179.12 138.003 178.288 136.39L166.297 113.07C164.633 109.878 161.93 104.464 160.076 101.574C158.867 99.6889 152.352 94.0922 150.195 92.0415C144.085 86.2323 138.565 80.5055 133.677 73.3208C130.38 68.4743 122.875 56.666 123.367 50.6391C123.481 49.9003 124.697 48.1649 125.335 47.9311C128.011 46.9492 129.813 52.4038 130.555 54.2687C130.504 49.9421 129.593 47.2681 128.068 43.1972C127.517 41.7258 125.879 39.1378 125.865 37.8758L126.199 37.5731C131.953 38.2275 135.031 53.0179 132.67 57.3137C132.108 58.3353 137.067 67.1928 137.923 68.1379L138.24 68.0819C138.404 67.2623 137.963 65.1207 137.895 64.1219C137.618 60.0108 139.548 48.0315 142.019 45.0802L142.828 45.2989C143.736 48.7363 143.178 52.4053 142.523 55.8594C142.368 56.6814 141.663 58.3582 141.625 59.1211C141.289 65.9012 140.555 72.837 145.367 78.3005C147.644 80.8863 150.305 83.345 152.211 85.9447L152.46 86.2894C150.858 79.5788 152.412 72.8136 149.783 66.3232C149.498 65.6194 148.381 62.722 148.524 62.1398L149.069 62.0384C156.581 64.8627 155.054 78.7349 155.359 85.1989C155.568 89.6187 157.606 91.2022 160.685 93.876C164.184 88.7151 166.623 87.2479 171.831 83.9079C168.702 74.1402 163.975 67.0757 154.905 61.9723C152.514 60.6276 147.828 58.8631 148.307 55.5072L148.701 55.2279C153.447 56.3462 160.86 61.8371 164.39 65.1674C161.833 61.3781 159.356 56.4213 156.964 52.3792C154.335 47.9353 150.176 42.5198 148.344 37.9171Z" fill="#92BF67"/>
<path d="M197.526 137.872C193.984 132.607 174.27 96.4794 175.488 91.9157C175.6 91.4952 175.678 91.5524 176.024 91.3513C177.099 91.7271 177.545 92.2467 178.046 93.3173C183.144 104.213 188.433 114.997 194.41 125.45C196.386 128.906 198.247 133.076 200.322 136.373C199.514 137.872 198.52 137.872 197.526 137.872Z" fill="#DEE777"/>
<path d="M192.556 139.86C190.787 138.165 185.71 129.288 186.398 127.127L186.944 127.003C190.364 128.328 193.761 137.878 195.041 139.363C194.372 139.872 193.381 139.763 192.556 139.86Z" fill="#DEE777"/>
<path d="M172.369 109.43C174.62 110.355 175.848 113.912 176.987 116.018C180.137 121.839 183.61 130.914 189.077 141.351C188.386 141.441 187.776 141.851 187.089 141.848C185.598 139.363 178.984 127.348 177.816 124.603C175.86 120.006 171.491 114.406 172.369 109.43Z" fill="#DEE777"/>
<path d="M195.231 114.616C196.014 114.824 197.085 115.216 197.443 116.028C199.776 121.31 202.587 126.374 204.958 131.621C205.204 132.166 204.615 132.885 204.344 133.304C201.039 132.838 196.02 120.384 194.941 117.274C194.478 115.938 194.564 115.72 195.231 114.616Z" fill="#DEE777"/>
<path d="M169.086 92.9719C169.335 93.0176 170.077 93.1476 170.272 93.3114C172.129 94.8678 176.221 101.815 174.733 103.982C172.427 103.007 169.618 96.8745 168.547 94.4808C168.293 93.9118 168.782 93.4177 169.086 92.9719Z" fill="#DEE777"/>
<path d="M186.143 33.7259C187.063 33.8653 191.324 34.3524 191.778 34.6501C195.013 36.7692 199.436 43.1882 202.05 46.317C202.219 44.8399 203.017 39.6248 203.983 38.7257C206.343 40.7363 204.895 47.4232 205.325 50.2388C205.96 51.1154 207.177 52.3544 208.705 53.6026C211.185 47.7748 228.606 41.3063 233.196 48.1687C238.805 56.5592 238.339 66.6699 242.2 75.3996C241.499 63.811 243.827 53.0333 235.12 44.3133C233.775 42.9678 230.266 39.0324 229.816 37.4983C230.015 36.5614 229.864 36.9034 230.626 36.1747C233.435 35.8194 240.555 45.8381 241.847 48.1948C241.648 46.32 239.906 35.6924 241.519 34.8656C249.518 30.7676 249.091 43.2909 248.897 47.7383C249.866 46.0168 251.969 40.9211 253.127 40.0883L253.442 40.3174C254.986 44.4027 249.995 49.8924 249.802 52.3544C249.521 55.8917 249.687 61.9902 249.645 65.8687C250.362 66.5001 260.122 54.8984 260.868 53.8879C262.242 52.0233 263.982 48.1147 265.227 47.075C265.336 47.2007 265.46 47.3227 265.495 47.4838C267.96 57.3604 253.783 63.8205 250.53 70.7395C248.753 74.5157 250.232 83.5921 248.574 89.0588C250.922 86.6575 253.584 84.6042 256.032 82.224C258.418 79.9074 262.299 69.8702 265.527 70.285L265.843 70.7631C265.91 72.75 264.573 74.5293 263.674 76.253C261.298 80.8018 259.414 84.3204 255.209 87.4432C250.345 91.0559 248.574 93.1397 247.008 100.209C246.101 103.789 244.779 107.065 243.373 110.477C241.69 114.336 237.905 113.526 238.392 109.436C238.85 105.606 240.649 101.742 240.885 97.8686L240.902 97.5201C238.542 98.5895 236.385 99.3868 233.81 100.595C234.307 102.583 236.437 106.24 235.259 108.176L234.724 108.113C233.087 106.674 232.816 104.023 231.561 101.273L227.505 101.794C230.303 109.157 233.713 116.318 236.541 123.665C240.686 134.44 244.024 145.232 246.914 156.397C247.523 158.743 252.56 171.911 250.952 173.502C248.979 172.446 243.537 155.225 242.846 152.142C238.976 134.908 231.355 118.526 225.361 102.086C224.366 102.583 223.869 102.583 222.875 103.08C223.16 103.851 224.634 107.195 224.953 108.208C227.587 116.58 230.49 125.237 232.376 133.792C232.326 134.892 231.757 136.576 231.437 137.687C230.042 133.084 221.856 106.224 219.839 104.023C218.678 104.218 218.114 104.814 216.737 105.271L216.499 105.349L216.481 105.291C211.964 90.9966 208.705 73.7557 205.39 58.9968C202.369 53.7752 197.176 49.5533 193.743 44.5146C189.037 45.8717 182.187 43.3761 178.762 40.0113C177.903 39.1676 176.506 37.5304 177.606 36.4434C179.781 36.2237 182.334 39.2309 184.646 40.0068C187.238 40.8768 189.718 41.2802 192.372 42.0068C190.018 39.4663 187.931 36.6914 186.143 33.7259Z" fill="#92BF67"/>
<path d="M225.325 102.121C223.151 97.5186 212.972 62.5771 214.112 59.215L214.542 59.0447C217.338 61.0905 220.897 80.7753 222.301 84.8755C222.992 86.8897 227.629 100.382 227.348 101.589C226.121 102.355 225.857 102.086 225.325 102.121Z" fill="#DEE777"/>
<path d="M228.076 60.8838C228.496 60.9954 229.078 61.0434 229.276 61.4539C233.026 69.1168 235.328 78.6156 237.554 86.8762C237.79 87.7534 237.669 89.1041 237.592 89.8451C234.759 88.9187 232.413 78.268 231.501 75.1641C230.472 71.6578 227.515 64.0466 228.076 60.8838Z" fill="#DEE777"/>
<path d="M226.041 78.5922C228.73 80.1976 232.319 96.619 233.81 100.595C233.28 100.584 231.578 101.545 231.325 101.092C229.481 97.7759 225.609 81.5614 226.041 78.5922Z" fill="#DEE777"/>
<path d="M218.948 95.4614C220.389 96.122 221.383 99.1042 222.874 103.08C222.173 103.077 220.324 104.123 219.892 103.577C218.232 101.48 218.843 97.8794 218.948 95.4614Z" fill="#DEE777"/>
</svg>
