<svg width="400" height="400" viewBox="0 0 400 400" fill="none" xmlns="http://www.w3.org/2000/svg">
<path d="M140.84 325.839C150.182 326.08 158.428 333.932 166.95 337.26C167.088 338.85 168.845 341.801 168.941 345.007C169.052 348.693 167.219 353.434 167.707 356.351C168.368 360.294 169.797 361.778 170.192 366.425C159.666 368.896 159.715 359.316 160.999 351.693C162.38 343.497 160.877 336.497 153.369 331.941C153.247 333.18 152.918 336.371 153.033 337.495C153.606 343.077 155.187 347.652 155.063 353.345C153.073 353.371 151.193 353.58 149.644 352.036C145.953 348.358 146.286 338.152 145.844 333.142C145.504 329.291 143.534 328.152 140.84 325.839Z" fill="#C79D7E"/>
<path d="M225.857 338.318C226.992 338.095 230.471 337.103 232.148 336.688C231.389 341.435 236.315 346.943 237.237 351.358C237.896 353.877 237.105 356.62 236.118 358.87C235.281 360.78 232.682 365.127 230.238 364.984C226.805 364.784 229.612 356.665 230.039 355.138C227.486 350.511 223.884 343.831 225.857 338.318Z" fill="#C79D7E"/>
<path d="M209.301 343.185C209.787 343.22 213.947 342.696 215.069 342.653C217.127 349.093 222.641 354.627 219.092 362.244C218.234 364.086 216.824 365.341 215.188 366.522C212.173 363.228 212.475 359.814 211.388 355.659C210.35 351.69 208.119 347.28 209.301 343.185Z" fill="#C79D7E"/>
<path d="M242.5 336.048C246.346 335.682 249.652 336.285 253.358 337.226C257.176 341.681 256.215 350.297 252.452 354.529C251.369 355.991 247.532 357.335 246.37 355.513C244.277 352.233 247.253 346.139 247.504 342.41L247.525 342.036C246.302 339.474 244.646 337.826 242.5 336.048Z" fill="#C79D7E"/>
<path d="M170.953 338.976C175.405 339.628 178.948 342.985 181.416 343.397C183.281 346.58 183.957 349.897 184.126 353.537C184.337 358.092 184.164 362.796 178.352 359.785C175.411 353.302 176.622 343.832 170.953 338.976Z" fill="#C79D7E"/>
<path d="M193.652 344.927C195.301 345.004 197.83 344.864 199.54 344.821C199.524 347.489 199.702 349.176 200.069 351.881C200.486 355.842 203.923 361.547 200.544 364.955C198.735 366.783 196.551 364.009 195.713 362.499C193.528 358.567 192.351 349.308 193.652 344.927Z" fill="#C79D7E"/>
<path d="M132.794 323.786C134.32 323.789 139.742 324.681 140.624 325.753C139.99 326.508 140.211 328.104 140.045 329.162C139.267 333.9 137.08 339.534 131.215 338.77C124.449 337.884 130.909 332.791 131.768 329.597C132.243 327.829 132.521 325.645 132.794 323.786Z" fill="#C79D7E"/>
<path d="M258.894 337.809C259.836 337.858 266.189 338.084 266.664 338.347L266.197 338.687C265.538 341.461 268.477 346.929 268.223 349.917C266.012 354.961 256.489 345.619 258.894 337.809Z" fill="#C79D7E"/>
<path d="M228.549 45.9897C240.401 41.2784 249.527 33.5437 263.128 33.8951C268.903 34.0441 271.351 33.875 276.963 36.2599C287.505 40.6423 293.263 53.7578 279.291 58.2631C275.097 59.6151 273.022 58.5713 268.71 58.2205C257.049 57.2722 249.992 69.7655 244.994 78.4183C239.117 88.5924 238.205 102.865 241.407 113.958C247.912 136.306 285.373 157.195 300.655 172.263C324.454 195.727 340.722 234.203 338.212 267.037C336.017 294.745 315.385 326.177 287.554 334.086C283.289 335.307 270.706 338.51 266.662 338.347C253.88 337.832 246.821 335.938 242.499 336.048C233.291 336.282 204.123 349.544 181.415 343.397C161.801 338.088 151.04 326.144 132.793 323.786C111.107 320.984 98.9681 316.748 83.8709 299.98C56.4911 269.571 53.9492 233.302 70.6573 197.694C90.3975 155.624 134.352 151.039 167.234 126.128C194.458 105.03 182.048 63.0362 211.441 43.3554C218.309 38.7568 224.322 38.9747 228.549 45.9897Z" fill="#CFC7CA"/>
<path d="M260.069 42.2714C264.228 41.7749 277.765 43.4006 276.592 49.8072C272.09 54.9922 253.317 50.4239 245.71 58.9882C228.458 78.4079 222.771 114.49 242.92 133.761C264.724 157.511 291.701 173.81 309.815 200.776C325.872 223.783 334.694 253.932 325.88 281.455C321.803 294.195 305.777 313.334 293.799 319.554C274.265 329.697 257.95 321.14 238.894 324.821C220.479 328.384 199.724 338.377 180.765 332.167C168.39 329.911 159.177 320.932 147.7 316.728C118.812 306.14 90.6211 307.352 75.3363 274.973C42.5669 205.548 107.83 157.106 166.879 137.324C180.297 132.828 190.366 111.937 192.824 98.3347C196.826 76.2012 194.756 58.4378 217.887 47.5013C218.413 52.7249 220.994 53.8029 225.828 53.8956C238.188 54.133 247.754 43.5162 260.069 42.2714Z" fill="#F6F7F2"/>
<path d="M201.915 87.8078C203.014 87.915 203.032 87.7477 203.857 88.3519C207.32 97.5707 200.98 116.542 197.272 124.316C186.836 146.194 163.948 157.255 143.903 168.377C131.314 175.284 119.552 183.711 109.734 194.239C90.341 214.813 93.2953 235.25 97.1686 261.693C97.3016 262.603 98.0532 264.468 97.0519 264.984C94.0348 263.765 91.0194 258.466 90.3859 255.613C88.0674 245.167 86.6027 230.4 87.7691 219.728C90.3262 196.328 113.036 179.081 131.474 167.395C143.932 159.824 158.316 153.907 170.487 145.037C176.654 140.544 179.474 136.823 184.488 131.105C189.705 125.207 194.41 117.839 196.602 110.196C198.54 103.437 199.87 96.0437 200.975 89.0951C201.059 88.5664 201.499 88.1401 201.915 87.8078Z" fill="#CFC7CA"/>
<path d="M171.789 170.234C173.452 170.254 173.87 170.096 174.582 171.665C161.801 183.986 151.861 198.086 146.596 207.851C139.592 220.841 134.351 236.817 133.413 251.567C131.8 276.889 149.79 301.956 155.532 314.424L153.302 313.154C150.276 310.294 144.498 305.282 142.35 301.956C131.529 285.213 124.544 261.833 127.8 241.853C132.217 214.751 149.308 186.591 171.789 170.234Z" fill="#CFC7CA"/>
<path d="M219.325 147.671C220.359 147.579 220.75 147.464 221.725 147.833C224.713 153.675 226.953 164.219 230.634 170.982C245.577 198.437 269.322 212.582 259.823 271.616C258.693 272.929 256.768 274.01 256.715 271.393C256.322 264.284 258.632 256.108 257.955 249.093C256.903 238.187 254.763 224.753 251.033 214.57C245.246 199.124 233.626 186.778 226.454 172.059C223.983 166.989 217.521 153.14 219.325 147.671Z" fill="#CFC7CA"/>
<path d="M265.593 180.617C291.488 195.567 307.409 240.129 302.728 265.073C301.356 272.388 296.368 284.338 291.488 290.037C290.825 290.812 289.271 291.824 288.387 292.399C287.015 293.091 284.672 293.501 286.035 291.164C293.087 279.05 299.768 264.341 298.701 250.008C297.231 230.263 288.566 211.24 276.752 195.567C273.748 191.581 261.886 182.842 265.593 180.617Z" fill="#CFC7CA"/>
<path d="M192.149 190.423C192.503 190.54 192.357 190.515 192.648 190.979C192.698 193.93 189.839 200.551 188.806 203.725C183.837 218.99 181.417 229.331 182.691 245.519C182.924 248.484 185.003 263.277 183.983 264.747C183.148 264.369 183.306 264.283 182.702 263.363C179.089 256.131 178.797 247.93 178.076 240.086C176.767 225.839 180.14 213.609 185.284 200.453C186.445 197.484 187.626 193.575 189.728 191.135C190.35 190.414 191.192 190.476 192.149 190.423Z" fill="#CFC7CA"/>
<path d="M87.014 198.438L88.092 199.072C88.35 199.595 88.5802 199.943 88.3071 200.547C86.0314 205.581 83.9007 210.663 82.919 216.157C80.6365 228.931 81.5216 242.336 83.6379 255.073C83.9928 257.206 86.34 265.914 86.2462 267.077L85.9053 267.358L85.1973 267.015C79.8967 261.058 79.0795 246.16 78.4278 238.316C77.5359 227.584 79.543 206.748 87.014 198.438Z" fill="#CF849E"/>
<path d="M322.525 256.265C324.772 258.547 323.391 262.865 322.742 265.625C318.856 282.102 308.836 298.281 294.708 307.849C292.762 309.168 291.174 310.657 288.804 311.172C288.509 310.955 288.16 310.643 287.872 310.4C287.784 308.195 293.325 305.05 295.17 303.683C299.315 300.563 303.025 296.906 306.202 292.802C311.215 286.294 316.256 276.823 318.713 268.996C319.614 266.128 321.172 258.384 322.525 256.265Z" fill="#CF849E"/>
<path d="M242.666 227.292L243.462 227.658C246.992 231.996 248.739 248.501 248.444 254.003C247.905 264.032 246.792 277.089 240.537 285.319C239.787 285.936 239.611 286.325 238.828 286.297C238.792 285.719 241.753 276.754 242.171 274.978C244.719 264.447 245.401 253.552 244.185 242.785C243.633 237.847 242.176 233.815 241.932 229.093C241.905 228.57 242.383 227.755 242.666 227.292Z" fill="#CF849E"/>
<path d="M190.669 142.99C191.978 143.992 191.429 145.685 190.683 146.913C185.11 156.084 176.383 162.252 167.757 168.292C161.944 172.364 157.959 175.799 150.982 177.681L150.685 177.881L150.352 177.705C150.422 175.87 155.469 172.996 157.292 171.657C164.988 166.006 173.463 160.743 180.564 154.336C184.203 151.052 187.033 146.477 190.669 142.99Z" fill="#CF849E"/>
<path d="M232.322 61.4644C237.266 62.901 230.345 68.8767 229.008 71.3525C226.868 75.3162 225.143 79.0514 224.423 83.5518C222.869 93.2693 221.229 104.159 221.146 114.036C220.773 114.007 220.859 113.981 220.492 113.748C217.385 102.31 220.405 85.9842 223.693 74.7566C224.53 71.8979 230.235 63.9694 232.322 61.4644Z" fill="#CF849E"/>
<path d="M168.714 234.389C169.143 234.601 169.699 234.93 170.078 235.204C170.208 235.299 170.639 235.882 170.629 235.956C170.391 237.726 169.997 240.861 169.86 242.516C169.741 244.046 169.734 245.582 169.84 247.109C170.403 256.005 174.512 266.048 178.318 274.043C179.979 277.532 182.688 282.542 183.285 286.239C177.26 281.089 169.22 261.481 168.069 253.366C167.544 249.66 166.649 237.329 168.714 234.389Z" fill="#CF849E"/>
<path d="M224.942 130.309L225.64 130.694C226.167 131.773 227.074 136.119 227.268 137.426C227.667 140.114 228.767 142.555 229.355 144.741C230.497 148.997 237.592 159.515 237.704 163.2L237.127 163.576C231.504 159.197 224.4 142.774 223.929 135.222C223.759 132.508 223.351 132.358 224.942 130.309Z" fill="#CF849E"/>
<path d="M161.541 216.729C162.439 216.977 162.077 216.746 162.682 217.421C162.867 218.427 162.832 219.691 162.621 220.678C161.324 226.737 160.076 232.645 160.2 238.893C160.235 240.64 160.794 243.371 160.473 244.97L160.046 244.993C157.868 241.684 157.463 241.544 157.232 237.306C156.989 232.831 158.849 219.625 161.541 216.729Z" fill="#CF849E"/>
<path d="M117.812 246.986C118.567 247.338 118.581 247.363 119.058 248.073C119.253 249.099 119.1 255.668 119.126 257.286C119.174 260.223 122.253 277.183 121.496 278.459L121.132 278.376C117.842 272.256 117.23 263.597 116.279 256.746C115.783 253.165 116.101 250.174 117.812 246.986Z" fill="#CF849E"/>
<path d="M218.95 65.1369C219.902 65.4123 221.39 66.3425 220.923 67.5364C219.431 71.3502 217.399 74.8358 216.519 78.8781L216.449 79.2101C216.418 79.3151 216.222 79.531 216.141 79.6328C215.447 79.2908 214.923 78.3156 214.465 77.6333C215.159 73.1641 216.401 68.9213 218.95 65.1369Z" fill="#CF849E"/>
</svg>
