<svg width="400" height="400" viewBox="0 0 400 400" fill="none" xmlns="http://www.w3.org/2000/svg">
<path d="M69.4417 57.764C68.2454 54.1774 61.2821 35.0179 65.3291 33.1374C68.85 33.3738 69.0523 36.4526 69.5958 39.3944C70.6023 44.8413 71.5524 50.0417 73.0064 55.3956C72.532 56.0296 70.1575 57.5313 69.4417 57.764Z" fill="#92BF67"/>
<path d="M78.9749 61.8122C79.9056 64.6893 81.7244 68.7624 82.3303 71.5055C83.6106 77.303 84.385 83.4472 85.4258 89.2992C92.3354 114.402 90.93 140.478 89.4159 166.19C88.6846 183.333 85.5881 201.246 82.9145 218.164C78.8448 237.276 77.9696 260.218 81.4394 279.367C84.2973 295.138 89.2715 310.387 91.7414 326.358C93.5098 337.795 96.1478 342.999 92.2628 354.875C93.1294 356.294 93.4833 356.764 94.5116 358.006C95.9219 359.711 101.312 363.325 101.107 365.477C98.9918 367.77 92.1895 362.067 90.6945 360.273C89.6259 359.157 88.7471 356.935 87.6191 355.979C71.4082 349.107 63.1455 319.052 59.9645 297.377C52.4643 246.268 60.4339 191.904 66.392 141.148C69.1691 121.217 73.0069 86.1815 69.4825 65.5822C69.4825 59.8393 72.8993 59.3425 78.9749 61.8122Z" fill="#92BF67"/>
<path d="M73.0065 55.3956C76.7529 57.1692 77.6941 58.1423 78.9745 61.8122C76.5972 66.1203 71.9048 66.7976 69.4821 65.5822C68.5656 64.269 67.4825 63.5448 67.4351 61.9469C67.2409 55.3956 70.9108 56.3601 73.0065 55.3956Z" fill="#72441B"/>
<path d="M75.9226 80.8989C76.8364 80.8843 77.995 80.8085 78.7604 81.3572C84.012 96.163 82.2104 117.691 81.6506 133.434C80.8637 155.535 78.3217 177.437 75.2499 199.344C72.4971 218.967 71.5925 238.628 70.5498 258.418C68.914 289.464 76.8746 310.339 84.624 335.186C85.0795 337.077 84.9456 338.729 84.5395 340.603L84.0713 340.668C79.1083 339 68.8264 301.773 67.9161 295.267C64.2172 268.82 66.8549 240.565 68.6835 213.974C72.3557 186.218 76.1346 158.69 77.6391 130.736C78.5317 114.169 75.9634 97.4491 75.9226 80.8989Z" fill="#5F913C"/>
<path d="M142.213 63.0255C144.081 64.114 146.458 63.0257 148.446 64.8095C143.272 80.8707 141.768 103.658 140.634 120.353C139.475 137.415 140.381 154.754 141.578 171.792C141.782 174.7 142.289 177.58 142.416 180.497C142.585 184.369 142.38 188.241 142.652 192.116C143.13 198.944 144.066 205.731 144.617 212.55C146.786 239.418 147.353 267.201 156.787 292.799C160.59 303.118 165.264 312.775 167.299 323.684C168.707 331.227 169.34 335.25 166.489 342.569C167.265 345.481 170.929 352.276 165.977 353.749C163.092 353.098 163.853 348.019 161.492 345.101C157.662 340.372 152.001 334.793 149.102 329.591C127.243 290.374 121.442 243.765 116.78 199.776C112.847 168.662 114.49 132.695 123.335 102.837C126.878 90.8762 128.774 80.9539 137.08 70.7843C138.901 68.5536 140.116 65.1388 142.213 63.0255Z" fill="#92BF67"/>
<path d="M132.041 100.247C132.558 100.299 133.157 100.316 133.636 100.526C135.127 101.179 133.039 106.065 132.7 107.436C130.544 116.141 129.345 125.01 128.236 133.898C124.724 162.058 126.174 188.885 128.783 216.896C130.592 236.331 130.553 250.696 139.026 273.798C142.938 286.911 147.158 299.743 152.298 312.442C153.52 315.461 155.428 318.625 156.244 321.743C156.393 322.308 156.404 322.618 156.09 323.103L155.533 322.904C153.409 321.415 151.64 319.743 150.282 317.514C135.524 285.985 128.998 261.366 126.109 236.253C125.381 229.923 125.117 223.591 124.54 217.254C123.674 207.746 122.269 198.188 121.74 188.66C120.332 163.306 124.54 123.458 132.041 100.247Z" fill="#5F913C"/>
<path d="M193.476 71.3973C194.353 71.1538 197.261 70.1279 197.799 70.2731C212.342 106.988 217.559 145.028 222.788 184.105C224.911 199.975 224.045 216.956 223.932 232.925C223.802 251.641 220.952 270.515 220.837 289.315C220.787 297.713 223.251 307.449 225.268 315.531C227.583 324.813 228.925 334.435 228.405 344.005C228.159 348.543 225.991 353.061 224.244 357.174C223.143 359.766 222.97 365.569 220.015 366.988C217.198 366.734 218.53 360.382 218.316 358.319C213.458 351.24 207.268 344.702 204.369 336.46C200.482 325.414 199.707 312.993 199.489 301.328C199.021 281.614 199.342 261.731 200.973 242.013C202.274 226.282 205.069 210.46 204.07 194.648C203.275 182.068 200.627 169.576 199.027 157.033C195.235 128.794 192.402 99.9243 193.476 71.3973Z" fill="#92BF67"/>
<path d="M200.714 104.743C201.4 104.952 201.693 105.764 201.947 106.359C206.074 122.961 210.664 147.84 213.711 165.942C217.356 187.604 218.609 210.089 217.059 232.051C216.069 246.092 213.278 259.876 212.038 273.875C210.951 286.158 215.545 321.771 214.918 332.884C214.768 333.182 214.173 333.247 213.863 333.339C208.587 319.286 206.119 285.498 207.896 269.303C209.087 258.452 211.185 247.807 211.897 236.889C213.362 213.536 213.351 189.515 209.141 166.417C208.264 161.603 206.988 156.867 206.074 152.056C203.337 137.641 200.717 122.879 199.127 108.28C199.034 107.429 199.277 104.304 200.714 104.743Z" fill="#5F913C"/>
<path d="M273.647 78.1608C277.056 77.5746 277.103 77.5507 280.033 75.5865L280.093 75.9217C284.447 99.2694 291.31 117.298 292.138 141.564C292.121 175.141 280.093 190.06 277.441 242.19C275.836 273.742 286.249 305.218 276.895 336.194C275.911 339.457 272.372 344.641 270.51 347.797C271.333 350.767 273.91 355.454 273.525 357.688C270.043 362.422 265.622 348.183 264.896 346.846C247.347 314.553 253.931 273.499 257.178 238.514C260.21 200.135 270.117 162.661 273.048 124.335C274.234 108.901 274.536 93.6153 273.647 78.1608Z" fill="#92BF67"/>
<path d="M280.452 117.834C281.578 118.134 282.216 118.945 282.35 120.125C285.536 148.787 274.304 184.007 270.024 211.871C267.745 226.72 264.997 241.265 264.212 256.32C262.952 280.356 264.212 301.393 268.464 326.413C268.544 327.375 268.957 330.391 267.455 329.328C263.578 323.684 262.616 315.779 261.786 309.094C257.433 274.076 261.78 240.101 267.373 205.626C271.933 177.514 278.667 147.315 279.612 119.357C279.756 118.763 280.084 118.308 280.452 117.834Z" fill="#5F913C"/>
<path d="M326.426 62.7054C328.794 64.6467 329.231 64.6776 332.435 64.8963C326.069 133.52 342.295 204.361 342.653 273.122C342.738 288.344 346.046 303.692 340.201 318.277C338.476 322.566 337.472 326.647 335.163 330.682C335.703 332.193 335.954 333.65 336.575 335.225C337.579 337.78 338.715 340.24 339.691 342.802C333.004 347.633 331.408 333.011 329.999 329.137C321.162 304.857 320.402 277.486 318.021 251.932C316.346 237.903 314.805 223.979 314.149 209.861C313.901 205.244 314.716 200.614 314.84 196.029C315.379 175.87 314.253 155.215 313.938 135.014C313.655 116.844 314.424 77.8905 326.426 62.7054Z" fill="#92BF67"/>
<path d="M326.687 78.0572C327.139 78.2466 327.176 78.3266 327.581 78.626C327.581 82.2052 324.192 106.301 324.005 115.007C322.658 177.386 329.101 230.318 334.977 300.709C335.332 304.966 336.041 307.71 335.77 312.086C335.33 312.663 335.392 312.479 334.415 312.638C331.351 309.472 331.615 302.404 331.212 298.09C330.68 292.372 330.372 286.661 329.686 280.94C323.525 228.295 317.628 176.909 320.561 123.675C321.078 114.265 322.564 85.7007 326.687 78.0572Z" fill="#5F913C"/>
<path d="M145.207 56.4938C148.077 52.0553 151.603 37.0257 154.001 36.2555C156.399 35.4854 156.897 37.1969 157.093 38.5597C157.515 41.4899 151.96 55.0234 150.065 57.6052C148.412 57.1832 146.633 57.1924 145.207 56.4938Z" fill="#92BF67"/>
<path d="M272.499 70.0434C271.04 65.6169 272.081 58.5657 271.04 53.8345C270.689 52.2398 270.237 46.3861 272.494 46.1875C273.746 46.7358 274.934 48.1985 275.013 49.5656C275.269 53.962 275.356 58.3236 275.846 62.7116C276.082 64.8103 276.316 67.2604 276.005 69.3339L275.732 69.8799C275.085 69.9508 272.874 70.2805 272.499 70.0434Z" fill="#92BF67"/>
<path d="M328.645 56.338C330.096 53.7831 336.47 37.3055 340.481 43.6463C341.401 45.0981 334.012 55.6804 333.123 58.0686C331.259 56.9004 330.183 57.3278 328.645 56.338Z" fill="#92BF67"/>
<path d="M191.48 64.3361C190.188 59.2506 189.325 53.9759 188.663 48.7661C188.434 46.9686 188.295 45.1068 190.17 44.2956C194.677 44.5936 193.198 52.2701 193.895 55.4791C194.383 57.7237 194.497 60.0307 195.07 62.2598C193.959 63.1823 192.747 63.642 191.48 64.3361Z" fill="#92BF67"/>
<path d="M142.214 63.0255C140.418 59.7796 142.267 57.2746 145.207 56.4938C146.742 56.0861 148.702 56.5796 150.065 57.6052C151.381 58.5955 151.846 60.2531 151.133 61.8997C149.441 65.8035 147.671 65.4862 144.268 64.0732C143.496 63.7523 142.933 63.4449 142.214 63.0255Z" fill="#72441B"/>
<path d="M195.069 62.2598C199.146 63.7812 199.973 66.6234 197.798 70.2731C197.364 71.0011 195.288 71.8037 193.475 71.3973C190.693 70.7738 190.494 69.9167 189.969 67.6515C189.699 63.3184 192.184 62.3244 195.069 62.2598Z" fill="#72441B"/>
<path d="M272.498 70.0435C273.646 69.334 274.69 69.78 276.005 69.334C278.169 69.334 280.952 72.7622 280.033 75.5865C278.942 78.9408 274.193 78.2292 273.646 78.1608C269.364 77.6253 270.463 72.834 272.498 70.0435Z" fill="#72441B"/>
<path d="M328.645 56.338C330.357 56.338 331.568 56.5131 333.123 58.0686C334.735 59.6808 334.824 62.8094 333.315 64.4986C330.854 66.3008 327.691 64.6364 326.426 62.7054C324.223 59.3438 325.223 57.6862 328.645 56.338Z" fill="#72441B"/>
</svg>
