<svg width="400" height="400" viewBox="0 0 400 400" fill="none" xmlns="http://www.w3.org/2000/svg">
<path d="M220.776 106.103C225.9 98.0592 229.744 89.4071 236.096 81.9756C253.716 61.5638 273.657 42.8622 302.216 41.3636C324.794 40.179 342.162 48.9351 353.087 69.4155C366.67 94.88 354.549 117.954 331.283 131.423C297.616 150.92 256.55 152.229 222.956 172.825C220.896 174.087 217.583 180.756 215.347 183.321L215.561 183.636C253.992 178.605 303.366 190.541 332.921 214.962C363.184 239.966 380.226 283.157 353.433 316.483C335.865 338.342 310.702 342.531 287.175 328.805C251.789 309.617 237.503 275.972 224.222 237.972C219.097 227.455 215.221 220.234 205.972 212.425C205.644 216.656 204.633 220.805 202.983 224.714C197.928 236.797 188.221 249.9 175.759 255.056C160.741 288.277 154.624 337.128 121.299 353.05C107.472 358.898 91.4912 359.516 77.4392 354.567C49.0081 344.553 27.3673 317.133 38.0356 286.118C56.2892 233.047 114.306 209.322 164.105 196.864C167.495 196.011 174.797 191.055 178.963 189.142C175.176 186.96 170.279 185.178 165.813 184.743C141.895 182.416 119.476 186.553 96.0151 188.469C66.1312 190.862 38.1555 170.863 33.9436 140.76C30.501 104.735 66.2308 83.3834 98.3651 81.0272C104.522 80.5758 117.164 81.8359 123.328 83.457C135.125 86.559 147.804 93.6073 157.103 101.587C165.309 108.807 182.752 132.548 183.596 142.862C188.526 124.488 202.213 110.519 220.776 106.103Z" fill="#92BF67"/>
<path d="M210.112 188.85C241.566 184.561 277.073 191.654 306.227 203.687C311.703 206.23 317.618 208.349 322.453 212.054C353.881 236.141 379.649 275.726 351.121 312.935C330.606 339.69 304.551 338.614 279.466 318.914C268.749 310.494 259.491 301.13 252.275 289.552C238.449 267.836 228.461 221.225 206.344 207.283C206.745 204.255 207.308 200.784 207.334 197.767C207.237 195.534 207.111 192.429 208.459 190.606L210.112 188.85Z" fill="#4E7D33"/>
<path d="M207.333 197.767C207.236 195.534 207.11 192.429 208.458 190.606C211.159 191.78 218.73 193.255 221.8 194.001C228.75 195.733 235.497 198.207 241.919 201.381C259.023 199.029 288.579 206.128 299.933 219.963C294.281 217.936 291.624 215.608 286.845 213.135C277.437 208.268 257.219 203.41 246.961 204.036C259.656 209.496 270.939 219.422 281.302 228.329C296.021 228.847 308.573 235.256 320.4 243.6C323.913 246.076 328.282 249.381 331.182 252.489C332.275 253.653 333.227 254.942 334.021 256.325C319.918 248.077 307.97 237.335 291.931 232.874C289.256 232.148 285.91 231.465 283.397 230.627C287.853 234.169 291.802 239.182 295.708 243.378C301.436 249.533 306.393 256.533 311.986 262.805C313.75 264.786 318.572 266.122 320.872 267.628C328.542 272.503 338.451 280.531 341.724 289.057C333.101 282.429 325.75 272.872 315.475 268.48C320.591 274.85 324.868 284.946 324.816 293.214C318.786 288.178 317.28 284.656 313.545 277.879C312.346 275.705 310.87 273.464 309.642 271.278C309.264 280.572 310.216 290.167 312.027 299.326C312.66 302.525 316.079 312.264 315.528 314.994C311.76 315.656 308.511 298.277 307.884 294.978C306.173 285.948 307.474 277.402 307.248 268.536C299.883 258.135 290.627 248.619 281.94 239.358C280.602 237.931 279.104 236.616 277.836 235.127C277.516 247.904 279.143 255.182 282.412 267.464C284.202 274.185 285.755 279.253 286.156 286.276C277.332 273.762 271.673 247.716 274.938 232.698C264.28 223.544 255.288 216.813 242.654 210.451C243.498 220.91 246.428 231.702 249.891 241.579C251.91 247.336 256.469 255.49 256.811 261.138C247.199 253.143 239.561 221.271 239.303 208.778C228.96 204.257 218.267 200.575 207.333 197.767Z" fill="#A4CA81"/>
<path d="M171.206 255.797C169.925 258.431 169.269 261.499 168.089 264.106C164.102 272.916 161.995 282.743 158.553 291.602C150.567 312.158 141.208 338.163 120.205 348.655C107.649 354.925 91.4839 355.44 78.4919 350.307C65.136 345.007 49.6463 334.451 44.0445 320.822C38.9293 308.373 37.6897 298.909 42.5576 286.323C50.4192 265.996 62.6035 252.316 79.3553 238.971C93.7586 227.013 110.251 217.826 127.975 211.755C138.627 208.107 150.145 205.929 160.924 202.728C161.03 202.678 161.136 202.628 161.243 202.577C156.758 207.149 155.566 211.356 152.418 216.664C152.34 218.183 151.168 223.371 150.612 224.782C149.017 232.602 151.966 245.774 158.196 251.291C162.402 255.018 165.684 255.958 171.206 255.797Z" fill="#4E7D33"/>
<path d="M152.418 216.664C152.34 218.183 151.168 223.371 150.612 224.782C149.18 225.461 148.179 226.382 147.034 227.432C147.243 228.34 147.385 229.261 147.461 230.188C148.695 244.125 147.366 268.164 138.114 279.119C138.981 273.933 141.108 268.823 142.287 263.488C144.884 251.736 144.362 241.242 144.307 229.3C137.779 234.486 131.461 239.929 125.371 245.625C128.685 259.102 126.985 283.475 117.341 294.19C120.83 282.268 124.836 270.048 123.858 257.435C123.613 254.271 123.309 251.101 123.021 247.939C114.612 257.883 106.225 266.013 100.454 278.166C102.567 289.924 106.156 311.631 97.1868 320.918C99.8216 307.696 101.121 295.971 97.621 282.552C95.83 286.1 94.2514 289.751 92.8928 293.486C90.377 300.295 88.736 308.138 83.7151 313.283C81.0962 302.085 86.4246 293.413 89.7219 283.2C81.4806 287.659 74.6274 291.822 68.2296 298.842C66.9504 300.246 63.8717 304.658 62.1956 304.693C61.6093 303.515 62.9433 300.67 63.6983 299.718C69.7214 292.109 81.7349 281.949 91.3212 279.857C93.6883 276.822 97.5348 269.646 100.02 265.987C105.345 258.147 110.213 252.753 116.802 246.099C104.48 245.962 97.5547 248.569 86.4082 253.573C85.2035 254.112 82.6487 254.915 81.3953 254.391C81.7203 252.389 84.3957 251.336 86.0262 250.532C95.3375 245.953 108.748 240.685 118.984 243.958C125.011 237.643 130.27 232.025 138.379 226.578C134.782 221.391 116.755 225.021 111.279 225.115C112.955 224.246 115.015 223.188 116.801 222.648C124.061 220.451 135.885 219.886 142.551 223.822C145.466 221.286 149.167 218.786 152.418 216.664Z" fill="#A4CA81"/>
<path d="M162.093 152.343C159.919 161.15 164.025 169.776 169.598 176.76C170.758 178.213 172.438 179.739 173.739 181.164L173.555 181.419L172.53 181.104C163.177 178.163 140.343 179.258 130.075 180.031C118.858 180.876 108.109 183.382 97.0049 184.496C70.0462 187.201 41.0174 168.208 38.0562 140.182C36.8781 127.572 40.1097 118.577 47.8169 109.049C59.5963 94.4865 76.6528 87.791 94.9262 85.5963C115.149 83.1672 136.608 89.9576 152.214 103.106C163.474 112.593 173.48 128.393 179.237 141.918C180.686 145.308 182.122 147.992 182.463 151.753C177.76 149.143 164.326 143.299 162.093 152.343Z" fill="#4E7D33"/>
<path d="M116.002 93.08C125.358 96.555 134.303 110.651 135.786 120.294C136.018 121.798 136.837 127.623 137.887 128.309C141.812 130.873 145.645 132.1 149.648 134.632C154.348 137.5 157.874 140.708 161.907 144.143C162.006 139.385 161.5 137.163 160.941 132.898C160.546 129.882 152.939 115.484 155.082 113.847C160.054 114.881 166.013 136.512 165.476 142.224C165.267 144.442 165.244 145.179 166.599 147.728C165.111 148.106 163.083 149.404 162.093 152.343C160.179 151.332 157.556 154.639 155.985 155.923C152.558 158.732 148.703 160.975 144.567 162.565C139.309 164.574 128.4 166.647 123.208 164.309L123.13 163.913C125.582 161.123 136.61 161.536 142.3 159.663C148.808 157.521 153.115 152.935 158.72 149.456C155.899 147.395 153.223 145.031 150.362 143.058C145.935 140.005 140.898 137.685 136.002 135.493C125.525 144.256 105.826 158.717 91.5664 154.34C96.8406 152.721 102.695 151.588 107.855 149.619C116.451 146.337 124.928 139.388 132.408 133.896C131.073 133.529 129.475 132.971 128.156 132.483C120.602 129.683 112.495 128.581 104.849 126.294C94.0078 138.808 77.5788 147.106 60.9277 142.415C79.1126 140.393 87.4257 138.43 100.58 125.454C97.4861 125.416 81.2349 123.352 79.0001 122.148L78.945 121.627C83.1472 117.663 94.6705 118.268 100.142 118.506C95.7774 112.985 88.2806 108.961 82.0957 105.771C80.3015 104.846 73.7797 102.222 73.8963 100.164C83.3922 98.4246 99.5041 112.488 104.066 119.184C114.84 120.848 123.828 123.409 134.039 126.931C132.513 121.798 132.781 118.682 130.423 113.101C126.53 103.884 120.071 101.222 116.002 93.08Z" fill="#A4CA81"/>
<path d="M225.981 106.587C229.556 99.8979 234.991 90.7197 239.684 84.8085C251.005 70.5549 270.509 53.0093 288.187 47.7271C301.855 44.4164 317.864 45.1846 330.468 51.6856C342.222 57.7486 349.954 68.915 353.716 81.2824C360.994 105.202 338.557 124.175 319.132 132.944C311.166 136.539 301.389 138.616 293.048 141.267C275.261 146.016 257.761 151.038 240.812 158.398C235.606 160.659 230.739 163.705 225.568 166.038C231.314 157.385 237.197 140.614 237.32 136.595C237.502 130.652 237.352 129.956 237.159 126.983C236.558 117.199 235.477 111.292 225.981 106.587Z" fill="#4E7D33"/>
<path d="M243.478 120.63C250.507 114.259 259.415 109.173 265.87 102.279C268.071 99.9302 270.62 93.697 272.893 90.5899C281.237 79.185 293.874 66.1888 307.553 62.1082C291.281 75.7858 284.211 79.4378 272.635 98.0067C284.09 91.0776 297.936 87.3672 306.947 77.2229C310.164 73.6048 326.67 62.7765 330.822 64.0937C330.71 65.4406 326.163 67.8026 324.909 68.5898C318.357 72.7341 313.09 76.7436 306.27 82.2167C313.067 79.9842 317.948 80.5974 325.044 80.5731C321.496 83.643 313.211 87.6029 308.643 88.5484C317.359 91.797 328.876 90.691 338 90.5471C338.838 90.5338 341.943 91.6796 340.364 92.6709C334.299 96.463 319.958 94.5208 313.466 93.5183C309.879 92.983 306.334 92.189 302.862 91.1427C295.037 94.6685 287.375 98.1919 280.042 102.67C278.067 103.875 275.858 105.198 273.763 106.133C285.861 111.582 303.697 110.582 316.674 110.335C318.391 110.302 319.817 110.045 320.395 111.44C319.258 113.908 312.08 113.869 309.569 114.083C297 115.157 282.635 113.942 271.127 108.541C263.881 111.916 252.912 122.975 246.428 127.459C261.224 132.796 278.981 131.162 294.263 129.782C295.339 129.685 296.719 130.008 297.466 130.843C297.387 133.427 291.211 133.576 289.333 133.797C274.552 135.539 258.892 135.057 244.647 130.494C242.932 129.945 238.135 135.159 237.319 136.595C237.117 134.533 237.352 129.956 237.158 126.983C237.879 126.282 240.191 124.215 240.41 123.452C239.845 111.316 253.929 80.6892 264.792 78.137L265.287 78.4086C265.041 80.0123 262.191 83.3438 260.995 84.6869C251.388 95.495 247.533 107.128 243.478 120.63Z" fill="#A4CA81"/>
<path d="M199.165 193.751C205.86 195.695 200.894 216.151 199.989 219.693C197.007 231.355 182.417 256.034 166.844 251.482C154.484 247.865 153.034 229.561 155.948 219.395C158.807 209.418 166.116 200.397 175.172 195.38C179.584 192.936 185.262 189.71 190.465 191.333C191.937 191.373 197.367 193.244 199.165 193.751Z" fill="#4E7D33"/>
<path d="M190.464 191.333C191.936 191.373 197.365 193.244 199.164 193.751C193.27 198.073 190.735 200.311 186.183 205.984C189.452 211.34 192.34 217.463 190.912 222.205L190.452 222.347C188.342 220.859 185.458 211.899 184.389 209.006C182.458 212.239 180.062 217.279 179.063 220.826C181.515 225.742 182.473 230.381 182.842 235.857C182.38 236.706 181.67 238.306 180.924 238.757C179.277 237.503 178.333 227.456 177.787 224.656C176.983 225.938 174.126 233.181 172.251 231.89C170.31 227.911 171.622 224.084 172.98 220.029L172.827 220.191C170.912 222.246 165.505 230.472 163.5 230.287C162.593 227.986 166.076 222.676 167.525 220.905C169.496 218.497 171.743 217.022 174.316 215.373C175.415 212.628 176.984 208.72 178.414 206.21C176.407 207.243 174.866 208.384 172.987 209.561C171.215 210.669 168.365 213.316 166.62 211.34C166.62 206.828 177.036 204.133 181.06 201.689C184.178 199.797 189.499 194.778 190.464 191.333Z" fill="#A4CA81"/>
<path d="M187.01 155.689C188.035 143.943 190.03 135.364 197.811 125.54C203.102 118.305 220.983 103.963 228.902 114.55C232.263 119.045 232.828 131.052 231.823 136.503C228.841 152.676 219.421 167.34 211.112 181.301C214.575 171.767 215.27 166.94 215.932 156.97C215.82 153.505 215.82 153.505 215.141 152.622C214.452 149.333 212.471 142.756 208.537 141.792C205.964 141.161 203.586 141.531 201.083 142.445C195.253 146.023 190.447 151.457 189.726 158.465C188.751 157.554 187.815 156.753 187.01 155.689Z" fill="#4E7D33"/>
<path d="M210.647 125.478C211.981 124.543 214.224 124.797 215.586 125.69C217.634 128.704 211.813 137.807 210.222 140.666C215.083 135.217 217.204 134.377 223.98 132.496C220.345 137.3 216.003 138.942 211.719 144.13C210.702 143.188 209.877 142.12 208.537 141.791C205.965 141.161 203.586 141.531 201.084 142.445C199.988 139.009 198.274 132.113 201.468 129.465C203.363 129.28 203.53 132.299 203.501 133.674C203.472 134.894 203.395 136.113 203.272 137.328C205.341 133.58 207.297 127.825 210.647 125.478Z" fill="#A4CA81"/>
<path d="M215.141 152.622C216.793 150.905 221.097 147.189 223.587 147.669C224.953 149.852 217.757 155.659 215.932 156.97C215.82 154.677 215.82 154.677 215.141 152.622Z" fill="#A4CA81"/>
<path d="M194.059 148.443C192.409 147.713 192.221 146.406 192.404 144.687C193.645 142.689 195.382 144.735 196.484 145.888C195.898 146.474 195.312 147.06 194.059 148.443Z" fill="#A4CA81"/>
<path d="M170.363 151.75C179.325 150.101 194.227 172.163 197.518 180.312C198.59 182.965 199.493 187.211 199.979 190.072C198.655 189.768 197.72 189.465 196.449 189.042C193.683 188.002 188.028 186.18 185.637 184.786C179.454 181.179 172.57 173.72 169.211 167.459C166.244 161.932 162.972 153.11 170.363 151.75Z" fill="#4E7D33"/>
<path d="M204.642 145.947C213.926 146.908 210.891 170.209 208.377 176.014C207.117 178.925 205.778 182.266 204.627 185.231L203.279 179.944C201.094 173.664 196.192 166.506 191.748 161.526C193.193 154.604 197.168 147.447 204.642 145.947Z" fill="#4E7D33"/>
</svg>
