<svg width="400" height="400" viewBox="0 0 400 400" fill="none" xmlns="http://www.w3.org/2000/svg">
<path d="M42.7072 335.757C42.2592 334.875 40.4792 332.265 40.4015 331.552C39.8413 326.413 45.59 328.819 47.5063 330.362C45.3617 343.97 53.9252 360.834 69.3123 360.26C69.3782 361.59 68.9887 364.935 68.1632 365.703C66.1396 368.27 60.5813 362.129 59.925 362.221C53.7696 363.081 56.1426 361.493 52.7449 357.475C51.6304 356.157 47.7106 356.851 46.5171 355.536C45.3206 354.219 46.4496 351.058 46.5459 349.47C47.0828 346.13 43.1552 345.558 41.6717 343.652C40.5504 342.211 42.3068 337.74 42.7072 335.757Z" fill="#C79D7E"/>
<path d="M173.48 199.23C176.05 194.852 178.905 190.456 181.275 185.861C194.18 160.842 204.222 133.719 207.585 105.657C210.01 85.4214 211.274 64.9269 208.68 44.6137C212.307 37.4605 246.332 31.3025 249.248 33.4972C256.539 38.507 253.24 64.5425 252.719 73.493C256.312 66.505 257.927 58.3137 262.586 51.9306C266.585 46.4504 280.767 53.1329 285.034 55.3662C287.255 56.529 293.071 59.7905 294 62.2416C291.791 70.3073 283.101 80.3775 279.362 88.1484C281.804 85.2076 289.112 75.5931 292.897 74.1376C294.529 73.5089 300.891 77.2902 302.484 78.7728C301.48 83.3596 298.036 87.812 295.31 91.6214C300.138 88.3425 311.252 81.5825 317.057 81.7617C319.82 81.8472 334.224 95.445 332.509 99.7465C331.948 101.157 327.301 104.384 325.921 105.548C317.375 111.921 310.21 119 302.392 126.048C311.669 122.671 330.012 117.24 339.624 121.326C349.088 125.348 354.998 137.22 358.392 146.107C359.08 147.909 359.717 150.906 358.797 152.742C339.624 155.765 319.825 155.268 280.549 176.482C254.067 190.785 228.373 209.633 208.269 228.057C202.031 221.869 195.375 215.395 188.355 209.633C183.746 205.882 177.734 203.26 173.48 199.23Z" fill="#015734"/>
<path d="M173.48 199.229C174.58 200.271 176.272 201.067 177.591 201.849C181.393 204.101 184.93 206.845 188.355 209.632C192.863 213.333 197.206 217.231 201.371 221.315C203.311 223.199 206.333 226.404 208.269 228.057C194.998 241.323 183.948 256.444 170.971 269.941C151.751 289.561 130.463 306.495 110.397 325.096C105.013 330.118 99.8165 335.339 94.8187 340.745C87.1591 348.893 80.904 359.412 69.3132 360.26C51.9294 361.533 44.4741 339.688 47.5072 330.362C51.4325 318.292 61.0552 314.676 69.2707 308.396C86.5344 295.197 103.735 280.368 118.671 264.657C138.624 243.931 157.038 222.697 173.48 199.229Z" fill="#F6F7F2"/>
</svg>
