<svg width="400" height="400" viewBox="0 0 400 400" fill="none" xmlns="http://www.w3.org/2000/svg">
<path d="M128.331 200.077C122.441 194.226 110.611 194.704 102.334 191.064C65.3386 174.796 74.3279 122.668 87.0167 93.8099C106.59 49.2948 127.816 50.1024 167.201 51.3871C198.27 52.4005 233.656 15.037 263.493 46.8658C275.563 59.7469 271.873 81.0246 280.372 95.6376C288.879 110.276 306.817 116.224 311.174 134.258C314.665 148.785 304.257 162.98 307.273 175.762C308.908 182.705 317.123 192.419 319.463 198.994C327.127 220.521 301.905 229.372 304.486 246.642C305.93 254.408 314.949 260.558 316.9 268.017C320.724 282.62 316.116 296.859 313.704 311.251C312.299 319.631 322.481 323.2 314.964 336.998C304.876 345.873 298.337 345.873 285.228 354.638C268.659 346.377 265.955 354.203 257.152 349.571C252.179 346.955 247.238 339.083 242.911 336.324C235.772 331.772 223.408 329.121 217.369 323.2C211.802 317.745 213.154 311.06 205.749 305.718C197.701 299.913 187.173 300.592 181.095 292.972C161.015 272.937 172.984 266.817 165.811 257.527C157.581 246.499 137.665 240.099 131.84 227.666C127.995 219.46 128.277 208.948 128.331 200.077Z" fill="#A4CA81"/>
<path d="M188.036 144.601C188.915 136.655 191.423 128.975 195.404 122.042C200.164 113.679 205.046 107.791 207.876 98.2533C210.028 91.6082 210.73 84.7079 211.774 77.8455C212.248 74.7296 211.384 64.0688 214.994 62.9096C222.885 65.6367 211.468 109.75 207.216 116.005C196.865 131.227 190.334 145.373 194.869 163.106C197.649 175.51 202.941 186.391 208.367 197.79C210.121 201.476 211.504 205.662 213.642 209.228C214.61 202.69 216.784 195.426 219.874 189.592C226.476 177.126 235.333 165.725 241.314 152.956C247.729 139.259 252.029 124.671 258.834 111.156C259.418 109.995 260.481 107.666 261.743 107.215C268.156 113.482 249.699 152.666 245.589 160.47C235.84 178.977 218.4 196.207 219.151 218.309C223.388 230.684 237.675 257.793 252.53 268.397C252.282 251.537 265.641 244.265 271.587 222.016C274.311 211.822 274.695 192.958 280.015 189.379C280.422 191.913 281.477 194.26 281.519 196.923C281.671 206.538 280.702 216.837 277.915 225.312C274.793 234.441 269.401 242.857 264.524 251.164C259.641 259.481 257.628 264.735 256.794 274.396C264.524 284.27 272.408 294.622 281.222 303.779C283.428 306.07 285.719 309.068 288.06 311.163L288.204 311.025C287.354 307.856 287.392 304.32 287.804 301.085C288.362 296.704 292.271 273.815 293.827 271.126C302.187 272.36 294.753 296.217 294.456 300.879C293.442 310.632 296.565 321.394 304.164 327.742C310.77 333.263 322.82 340.463 324.821 349.312C323.042 354.02 311.659 363.708 307.016 366.074C292.099 373.678 265.645 331.005 259.898 321.052C255.144 312.818 253.33 311.815 244.889 307.68C229.806 300.135 212.198 296.167 199.751 284.27C197.193 281.822 184.274 268.724 187.714 265.575C190.911 265.371 195.961 273.734 198.863 276.45C209.927 286.81 218.747 289.222 232.198 294.335C237.52 296.36 242.755 298.603 247.892 301.06C244.159 295.532 240.878 290.157 237.402 284.478C231.738 275.225 226.279 264.376 219.286 256.189C213.436 249.348 203.934 241.835 196.23 237.518C185.828 231.689 146.29 222.103 148.276 205.411C156.996 211.558 166.45 216.589 176.419 220.389C184.216 223.342 191.173 225.124 198.726 229.262C203.472 231.862 205.34 234.315 209.526 237.079L209.863 237.299C203.732 224.902 198.863 207.042 191.974 195.77C176.427 179.307 153.41 172.358 137.35 156.499C119.768 139.136 102.162 96.1507 113.326 93.9993C114.194 94.3801 114.852 95.2317 114.984 96.1507C117.818 115.95 125.995 133.966 139.595 148.724C147.554 157.361 160.64 163.377 170.693 169.215C176.367 172.51 182.566 176.678 187.842 180.564C180.368 159.977 178.675 136.907 167.268 118.017C159.853 105.737 148.315 95.8463 144.261 81.6984C143.323 78.4263 140.537 66.7129 145.003 65.6367C147.635 66.729 147.577 74.1615 148.156 76.9758C150.202 86.9164 159.169 95.5347 165.496 103.082C167.352 105.296 169.584 109.051 171.183 110.758L171.481 110.72C171.531 106.543 169.336 102.091 169.081 97.8529C168.727 91.9545 168.375 84.7107 170.019 79.0178C170.483 75.7561 173.965 74.8778 174.392 77.8936C175.94 88.8504 175.696 100.198 178.209 111.128C179.174 115.327 180.561 119.432 181.598 123.623C183.308 130.538 184.881 138.193 188.036 144.601Z" fill="#EFF6E9"/>
</svg>
