<svg width="400" height="400" viewBox="0 0 400 400" fill="none" xmlns="http://www.w3.org/2000/svg">
<g clip-path="url(#clip0_90_875)">
<path d="M309.506 63.0738C308.425 65.8677 305.554 68.7235 304.711 71.0813C300.378 83.2114 294.443 95.919 287.421 106.725C281.7 115.531 272.429 124.063 263.687 129.755C232.283 150.203 183.642 164.972 146.857 164.028C125.836 163.433 104.932 160.672 84.4767 155.791C77.8939 154.183 71.9307 151.149 65.6939 148.6C61.0023 146.682 54.3113 145.459 51.5601 140.647C50.0435 137.994 47.3393 124.354 48.1565 121.788C50.2071 115.349 65.0065 111.222 70.4091 109.489C82.7863 105.518 97.3468 103.057 110.237 102.492C129.212 101.662 147.859 102.231 166.8 100.113C190.306 97.4863 213.455 86.629 234.931 77.2232C251.675 70.0657 287.342 51.9891 305.596 57.6976C305.96 60.1914 306.557 62.822 309.506 63.0738Z" fill="#72A546"/>
<path d="M123.301 113.19C130.309 113.863 135.828 120.914 134.943 128.068C133.986 135.818 130.233 141.477 121.526 140.299C115.453 139.271 107.257 138.026 105.919 130.773C104.167 121.225 114.009 112.291 123.301 113.19Z" fill="#92BF67"/>
<path d="M155.954 110.7C162.961 109.831 170.905 111.887 172.483 119.752C173.981 127.305 169.158 135.45 161.409 136.899C142.147 139.571 137.294 114.496 155.954 110.7Z" fill="#92BF67"/>
<path d="M244.826 91.105C250.285 94.663 251.36 101.718 247.869 107.076C244.965 111.533 242.058 113.536 237.03 114.762C226.246 117.25 216.747 102.985 224.778 94.574C229.32 89.8171 238.838 87.2031 244.826 91.105Z" fill="#92BF67"/>
<path d="M198.007 103.026C214.976 101.219 213.145 126.222 196.519 128.245C190.787 128.293 185.559 124.414 184.352 118.695C182.572 110.526 190.837 104.406 198.007 103.026Z" fill="#92BF67"/>
<path d="M83.1825 113.678C90.0867 112.774 94.8118 117.721 95.3948 124.295C96.0565 131.772 90.2135 137.488 83.0502 138.142C77.1195 138.137 70.9112 134.577 70.1362 128.581C68.99 119.713 75.8211 115.006 83.1825 113.678Z" fill="#92BF67"/>
<path d="M269.639 73.8034C276.071 73.2878 280.714 76.1104 281.024 82.8497C281.373 90.3763 275.687 95.3362 268.66 95.809C254.279 94.0557 252.265 76.6087 269.639 73.8034Z" fill="#92BF67"/>
<path d="M41.323 173.854C45.7109 179.113 56.2723 180.976 62.2195 183.939C94.7925 200.554 130.145 220.799 156.654 246.336C185.968 274.562 214.272 302.128 238.339 335.002C240.014 337.326 244.095 340.795 241.514 343.714C239.357 346.152 232.385 356.72 229.105 355.89C202.056 349.047 174.716 345.16 149.706 331.922C125.321 318.959 102.869 301.392 84.8257 280.442C82.2315 277.432 79.4 273.537 76.7109 270.705C63.7653 257.078 51.8377 238.855 46.0485 220.991C43.1734 211.876 39.9332 186.838 35.2305 179.953C37.839 178.879 40.8725 176.83 41.323 173.854Z" fill="#72A546"/>
<path d="M158.072 267.323C169.744 265.851 176.941 278.797 170.205 288.173C167.004 292.63 164.267 294.266 158.926 295.43C143.686 296.788 136.314 270.794 158.072 267.323Z" fill="#92BF67"/>
<path d="M94.867 224.428C111.718 223.516 118.219 243.284 101.386 248.665L101.043 248.737C85.8909 251.819 77.0161 227.691 94.867 224.428Z" fill="#92BF67"/>
<path d="M128.038 245.543C139.171 245.31 146.49 256.24 139.37 265.256C137.011 268.255 133.601 269.674 129.901 270.061C114.791 271.656 110.669 246.928 128.038 245.543Z" fill="#92BF67"/>
<path d="M184.603 292.809C193.44 292.112 204.064 301.167 198.573 310.312C196.596 313.604 194.063 315.485 190.413 316.474C173.501 317.673 168.621 297.321 184.603 292.809Z" fill="#92BF67"/>
<path d="M212.061 318.585C219.522 318.002 229.558 329.078 222.491 335.84C218.158 339.986 211.649 341.761 206.278 338.647C194.464 331.795 201.788 320.554 212.061 318.585Z" fill="#92BF67"/>
<path d="M68.694 202.621C70.8157 202.455 72.9379 202.931 74.7873 203.984C83.6677 208.935 83.8769 222.312 72.7466 225.191C70.2302 225.545 66.0123 225.766 63.9818 224.193C56.1554 218.125 58.8009 204.423 68.694 202.621Z" fill="#92BF67"/>
<path d="M186.529 249.545C186.584 249.49 186.639 249.438 186.694 249.384C190.711 244.195 193.721 239.946 198.591 235.395C208.877 225.782 224.001 220.489 235.369 211.725C251.677 199.145 266.004 182.933 278.058 166.295C281.083 161.765 283.422 156.773 286.066 152.03C299.272 128.343 308.575 102.284 324.858 80.3093C330.063 73.2851 336.025 67.8167 342.098 61.5929C344.345 59.2896 344.865 53.3576 348.525 52.9153C351.072 52.7887 353.614 59.6615 354.757 61.5009C361.968 75.1235 365.645 87.4845 366.424 103.426C366.312 134.201 352.034 163.395 338.344 190.183C319.107 227.852 276.232 272.072 231.338 269.213C227.318 268.958 218.22 265.165 214.804 262.845C208.975 258.886 200.413 250.571 192.336 254.268C191.176 252.578 188.318 250.556 186.529 249.545Z" fill="#72A546"/>
<path d="M257.313 203.615C272.533 202.48 273.244 229.222 257.181 230.038C252.488 229.309 246.906 226.878 245.558 222.104C242.622 211.715 249.057 206.62 257.313 203.615Z" fill="#92BF67"/>
<path d="M326.406 118.934C336.644 127.271 330.284 140.365 318.663 141.386C310.288 140.435 301.307 129.951 307.965 121.882C311.877 117.137 321.304 114.76 326.406 118.934Z" fill="#92BF67"/>
<path d="M341.965 89.4591C349.681 96.3963 348.486 111.192 336.177 111.695C330.605 110.734 325.543 107.683 324.46 101.693C322.852 92.9232 334.257 82.5315 341.965 89.4591Z" fill="#92BF67"/>
<path d="M299.698 151.308C305.296 150.72 311.043 154.015 312.842 159.439C315.56 167.468 310.508 170.98 303.845 173.202C290.12 177.123 284.646 155.15 299.698 151.308Z" fill="#92BF67"/>
<path d="M281.191 180.358C287.16 179.57 293.011 184.342 294.276 189.992C295.688 196.14 291.632 200.493 285.918 201.727C277.422 203.169 270.839 199.534 271.748 189.97C272.296 184.221 275.581 181.003 281.191 180.358Z" fill="#92BF67"/>
<path d="M226.554 230.37C240.322 229.317 245.158 247.711 229.72 251.106C221.551 251.518 212.172 244.36 218.101 235.536C220.21 232.399 222.962 231.118 226.554 230.37Z" fill="#92BF67"/>
<path d="M35.2315 179.953C33.2339 176.784 33.6901 169.874 33.6819 166.129C33.6735 162.274 37.6589 159.219 39.4033 156.167C40.5101 154.23 40.3146 152.072 42.2485 150.453C43.0044 150.358 43.1972 150.498 43.8979 150.777C47.4542 154.197 38.8279 163.41 37.4402 166.328C39.1253 169.583 38.4223 170.44 41.324 173.854C40.8736 176.83 37.8401 178.879 35.2315 179.953Z" fill="#72441B"/>
<path d="M322.769 43.7479C323.998 44.9719 324.531 45.4644 325.363 47.0395C324.01 51.6697 322.018 56.1116 317.588 58.5108C315.088 59.8646 311.183 60.797 309.506 63.0738C306.557 62.822 305.96 60.1914 305.596 57.6976C307.442 56.6923 309.332 56.9391 311.295 56.4091C318.007 54.5972 319.932 49.4695 322.769 43.7479Z" fill="#72441B"/>
<path d="M192.337 254.267C187.379 258.658 182.86 259.709 176.514 257.008C173.896 255.893 170.468 249.131 174.98 248.982C176.605 249.748 177.77 252.498 179.259 254.315C183.329 252.934 183.556 252.605 186.53 249.545C188.319 250.556 191.177 252.578 192.337 254.267Z" fill="#72441B"/>
</g>
<defs>
<clipPath id="clip0_90_875">
<rect width="334" height="313.187" fill="white" transform="translate(33 43)"/>
</clipPath>
</defs>
</svg>
