<svg width="400" height="400" viewBox="0 0 400 400" fill="none" xmlns="http://www.w3.org/2000/svg">
<g clip-path="url(#clip0_91_2358)">
<path d="M262.385 63.5052C262.385 55.9928 245.966 36.3853 251.776 34.1071C259.228 31.1848 269.646 44.6336 273.533 50.9613C275.789 46.2276 277.807 30.799 286.196 35.647C293.766 40.0215 293.174 45.6732 292.919 52.7355C299.159 47.802 316.474 34.3887 323.066 43.4931C330.486 53.7413 314.612 61.1379 310.319 67.2841C327.601 66.279 337.074 83.8105 326.334 86.7965C313.079 90.4819 294.514 90.6571 290.33 109.525C287.522 122.193 292.644 134.421 299.44 144.978C303.164 150.762 307.553 155.692 311.28 161.183C327.902 185.67 339.211 218.033 333.023 247.896C326.988 278.428 307.311 315.279 277.508 329.102C262.397 336.116 245.173 338.819 228.625 339.395C211.267 339.901 192.978 338.555 176.101 334.632C174.919 334.357 173.573 334.036 172.38 333.848C156.365 334.632 102.778 295.602 100.23 293.073C69.235 262.323 59.67 228.394 68.6173 180.866C77.3173 134.652 105.877 104.569 144.294 94.9856C177.243 86.7647 210.139 94.9257 243.096 89.1779C259.157 86.3767 262.385 77.6597 262.385 63.5052Z" fill="#CF845B"/>
<path d="M74.7482 288.586C75.6319 283.732 79.8864 283.736 84.3806 284.342C90.1999 285.128 95.7574 289.43 100.23 293.073C103.364 280.617 123.081 285.086 128.022 295.019C132.503 304.029 132.678 312.998 132.678 312.998C143.587 313.189 156.366 307.098 162.142 314.15C164.616 317.171 161.991 322.237 157.873 326.638C162.603 327.427 169.395 330.105 172.381 333.848C176.009 337.641 181.535 350.007 171.493 349.453C158.322 348.726 150.92 343.402 142.987 338.555C149.105 350.058 169.569 350.065 167.84 361.338C166.43 370.074 152.265 365.244 147.921 362.251C142.601 358.587 133.896 349.921 130.239 344.703C130.191 349.592 128.304 353.807 123.666 356.044C117.947 358.803 110.311 354.411 108.119 348.864C105.345 341.839 109.641 334.219 112.391 327.807C107.243 330.17 104.304 331.951 98.208 333.348C92.3943 334.68 80.7144 333.23 86.0594 324.637C88.5874 320.574 100.301 315.426 105.427 314.771C92.8332 311.333 71.9197 304.122 74.7482 288.586Z" fill="#E8C2A5"/>
<path d="M173.177 109.898C174.093 109.959 175.225 110.265 175.743 111.078C175.635 113.29 169.937 115.758 167.752 117.064C153.25 125.819 139.989 137.012 128.698 149.648C122.059 157.078 115.677 167.201 110.822 175.88C108.187 179.717 106.438 183.273 104.51 187.451C100.571 195.982 97.6387 215.003 91.9296 221.514L91.1173 221.834L90.5972 221.601C87.1394 216.035 93.9035 192.116 96.6393 185.927C104.114 169.018 114.426 153.414 127.29 140.117C129.011 138.338 131.356 136.678 133.169 134.891C143.457 124.754 159.002 113.373 173.177 109.898Z" fill="#E8C2A5"/>
<path d="M269.949 159.316C270.166 159.346 270.383 159.38 270.598 159.421C276.172 160.485 267.973 185.779 266.607 189.817C260.479 207.615 252.398 224.681 242.511 240.702C241.107 242.98 239.319 245.483 237.797 247.752C231.755 256.764 226.534 266.372 217.169 272.327C216.063 272.734 216.265 272.868 215.416 272.521C214.496 269.549 225.551 255.119 227.563 251.946C234.699 240.694 241.624 229.216 247.353 217.175C248.714 214.202 250.972 211.2 252.174 208.187C255.827 199.639 258.429 190.427 262.02 181.887C264.069 177.017 264.956 160.93 269.949 159.316Z" fill="#E8C2A5"/>
<path d="M230.834 109.363C231.658 109.546 232.088 109.901 232.521 110.601C232.349 113.094 226.292 114.808 224.098 116.364C217.856 120.788 212.286 125.832 206.549 130.862C202.907 134.056 198.178 136.776 194.5 140.037C186.011 147.599 177.732 155.627 170.402 164.318C167.897 166.555 165.305 171.889 163.105 174.039C158.442 178.599 156.487 182.79 152.957 188.028C151.721 189.862 148.139 192.696 146.402 194.788C145.959 195.326 146.232 195.17 145.571 195.298C143.955 192.415 148.286 182.425 150.115 179.623C159.79 164.806 171.668 151.115 184.821 139.277C193.546 131.424 204.222 125.04 213.164 117.421C217.213 113.99 225.692 110.49 230.834 109.363Z" fill="#E8C2A5"/>
<path d="M296.298 212.262C297.054 212.285 297.255 212.348 297.986 212.553C301.109 215.597 296.241 234.371 294.031 238.091C290.261 244.438 287.38 251.281 283.908 257.707C275.227 274.019 263.824 288.732 250.19 301.212C244.802 306.236 243.236 308.837 236.213 311.528C235.314 311.843 235.363 312.001 234.601 311.731C234.343 310.666 235.671 308.3 236.367 307.499C247.109 295.124 259.714 284.658 268.085 270.241C269.29 268.164 271.262 266.102 272.49 263.905C276.751 256.281 280.468 248.393 284.993 240.911C286.344 238.648 287.811 234.766 288.917 232.205C290.258 229.174 291.482 226.093 292.588 222.969C293.601 220.015 294.783 214.513 296.298 212.262Z" fill="#E8C2A5"/>
<path d="M319.677 205.748C321.547 206.118 322.285 209.51 322.379 211.088C323.485 229.629 319.226 261.814 305.02 274.952C304.315 275.434 303.864 275.761 303.063 275.463C302.79 274.627 303.595 271.389 303.974 270.542C308.508 260.395 312.588 248.862 314.68 237.901C315.383 234.033 315.937 230.139 316.342 226.229C316.881 220.563 316.633 210.239 319.677 205.748Z" fill="#E8C2A5"/>
<path d="M195.127 172.383C196.339 172.493 197.317 172.768 197.948 173.901C197.929 175.892 192.934 179.751 191.695 182.004C186.337 190.819 181.004 199.438 175.701 208.298C171.663 215.045 166.832 222.544 162.509 229.119C162.282 229.389 161.993 229.59 161.714 229.814L161.136 229.74C160.76 229.178 160.615 228.87 160.635 228.171C160.88 219.428 181.172 188.762 187.481 180.664C189.803 177.684 192.443 175.03 195.127 172.383Z" fill="#E8C2A5"/>
</g>
<defs>
<clipPath id="clip0_91_2358">
<rect width="269.862" height="334" fill="white" transform="translate(65 33)"/>
</clipPath>
</defs>
</svg>
