<svg width="400" height="400" viewBox="0 0 400 400" fill="none" xmlns="http://www.w3.org/2000/svg">
<g clip-path="url(#clip0_90_1336)">
<path d="M128.816 306.659C141.758 306.85 158.928 313.307 161.863 327.712C164.876 342.498 154.637 358.055 138.994 359.936C125.71 361.485 106.214 354.97 105.32 338.954C104.505 324.349 113.24 308.153 128.816 306.659Z" fill="#4E7D33"/>
<path d="M223.474 192.085C223.377 207.313 212.582 222.444 196.598 222.357C185.198 222.219 170.22 216.494 168.37 203.721C166.692 192.139 170.603 178.723 181.3 172.69C197.731 163.423 223.61 170.512 223.474 192.085Z" fill="#4E7D33"/>
<path d="M193.419 102.256C201.856 101.994 208.402 104.707 214.287 110.198C232.127 126.841 220.48 155.718 197.379 156.292C181.707 156.693 169.44 147.329 167.64 131.119C166.034 116.664 179.842 103.462 193.419 102.256Z" fill="#80B44E"/>
<path d="M200.159 38.3045C214.716 36.9787 228.435 45.8776 231.808 60.5158C235.259 74.9749 223.931 88.6259 210.378 91.744C202.767 93.0393 192.359 91.4813 186.001 86.9937C167.385 73.8543 180.085 42.1442 200.159 38.3045Z" fill="#4E7D33"/>
<path d="M90.4148 123.728C91.2548 140.082 76.1586 154.704 60.2873 155.332C43.5975 155.424 34.2307 146.135 33.6009 129.597C33.1376 117.432 43.4903 107.244 54.6949 104.304C69.1149 100.521 89.4976 106.449 90.4148 123.728Z" fill="#80B44E"/>
<path d="M292.799 122.949C295.752 137.437 284.164 153.776 269.684 156.209C262.464 157.283 255.297 156.081 249.532 151.284C236.498 140.549 238.024 116.762 251.098 106.561C266.095 94.8576 289.163 105.086 292.799 122.949Z" fill="#80B44E"/>
<path d="M60.8478 242.783C76.7897 241.423 88.4525 253.115 90.9323 268.48C91.6736 273.075 89.0884 282.115 85.9368 285.588C76.1482 296.372 56.2355 295.234 45.6972 286.451C25.7015 269.784 36.9068 244.358 60.8478 242.783Z" fill="#80B44E"/>
<path d="M195.17 237.939C210.753 236.28 222.002 253.064 220.956 266.94C219.857 281.541 210.375 290.777 196.267 293.36C185.123 294.223 171.196 283.286 169.984 272.016C167.561 255.064 178.259 240.017 195.17 237.939Z" fill="#80B44E"/>
<path d="M61.0749 39.1052C76.0247 37.7084 91.7716 49.1715 93.5831 64.2199C95.518 80.2916 79.8228 91.6595 65.1962 91.6756C49.9801 91.6919 36.3871 75.3541 39.4428 60.4038C41.6516 49.596 49.9998 40.514 61.0749 39.1052Z" fill="#4E7D33"/>
<path d="M259.469 169.926C273.923 168.674 286.576 175.277 291.98 189.011C296.881 201.47 287.472 218.254 275.298 222.256C241.836 231.586 228.084 176.842 259.469 169.926Z" fill="#4E7D33"/>
<path d="M260.945 241.253C276.281 239.538 288.744 249.454 290.437 264.588C292.064 279.114 283.701 293.566 268.633 293.411C251.85 293.238 239.976 280.321 238.64 263.514C237.581 250.194 248.807 242.184 260.945 241.253Z" fill="#80B44E"/>
<path d="M129.738 40.3824C146.369 37.7411 160.165 54.8271 161.289 69.5758C162.259 82.2988 153.349 91.0195 141.001 92.0905C129.424 93.72 114.938 88.6703 111.183 76.7942C106.092 60.696 111.684 43.1605 129.738 40.3824Z" fill="#4E7D33"/>
<path d="M127.354 240.329C141.648 239.214 154.17 249.827 155.412 264.109C156.654 278.393 146.153 291.008 131.881 292.377C117.43 293.765 104.62 283.101 103.362 268.638C102.104 254.173 112.88 241.459 127.354 240.329Z" fill="#80B44E"/>
<path d="M59.158 170.004C74.6295 168.975 95.3746 183.67 88.4601 201.297C84.7018 210.88 75.0595 218.791 64.6962 220.171C61.7136 220.539 55.21 220.679 52.4344 219.951C24.4489 212.611 34.0833 172.368 59.158 170.004Z" fill="#4E7D33"/>
<path d="M123.653 171.512C137.761 168.918 151.315 178.211 153.982 192.306C156.65 206.401 147.429 220.003 133.348 222.744C119.162 225.506 105.436 216.202 102.749 202.001C100.061 187.801 109.438 174.124 123.653 171.512Z" fill="#4E7D33"/>
<path d="M267.606 306.694C276.944 305.597 286.152 309.612 291.699 317.201C303.452 333.278 292.797 356.793 272.96 358.556C258.762 359.816 246.184 349.442 244.72 335.265C243.256 321.085 253.449 308.362 267.606 306.694Z" fill="#4E7D33"/>
<path d="M334.633 304.645C355.655 303.154 372.856 329.687 358.846 347.037C349.607 358.478 332.303 360.59 320.976 350.771C312.248 343.213 307.683 323.839 316.388 314.675C321.335 309.469 327.258 305.18 334.633 304.645Z" fill="#4E7D33"/>
<path d="M127.5 104.199C147.272 102.864 161.406 124.302 152.388 141.948C148.129 150.281 139.718 155.68 130.368 156.083C116.155 156.694 104.093 145.762 103.308 131.557C102.523 117.353 113.306 105.158 127.5 104.199Z" fill="#80B44E"/>
<path d="M266.625 41.917C273.486 41.5346 280.298 43.2545 286.154 46.8465C306.775 59.3679 297.639 86.0562 276.836 90.876C262.673 94.3533 247.271 87.1681 245.533 71.5114C244.076 58.4118 252.976 43.3408 266.625 41.917Z" fill="#4E7D33"/>
<path d="M338.646 102.758C345.216 102.102 352.762 104.131 357.864 108.384C376.792 123.982 361.851 150.267 340.463 152.338C328.097 153.61 315.249 143.749 313.512 131.373C311.493 116.962 325.473 104.54 338.646 102.758Z" fill="#80B44E"/>
<path d="M336.223 245.318C349.773 244.068 365.234 252.085 365.952 266.92C366.711 282.571 358.849 293.726 342.961 294.918C329.36 295.651 314.815 285.027 313.469 270.858C312.237 257.834 324.105 246.651 336.223 245.318Z" fill="#80B44E"/>
<path d="M336.228 176.074C352.295 173.933 366.771 187.469 364.712 203.557C362.963 217.213 355.13 225.025 341.128 225.654C321.744 226.432 303.308 202.785 317.639 185.934C322.893 179.756 328.265 176.866 336.228 176.074Z" fill="#4E7D33"/>
<path d="M60.6506 311.516C80.9582 307.715 93.1161 336.097 80.6173 350.369C71.0266 361.321 54.1373 365.391 42.1874 355.468C33.0979 347.92 31.213 330.085 38.7754 320.956C44.4417 314.113 52.4197 312.379 60.6506 311.516Z" fill="#4E7D33"/>
<path d="M195.113 308.97C201.532 308.609 206.022 309.171 211.578 312.476C232.52 324.937 229.878 353.587 204.996 359.042C190.64 361.544 175.797 350.98 174.408 336.36C173.155 323.422 181.558 310.066 195.113 308.97Z" fill="#4E7D33"/>
<path d="M332.034 39.8833C340.114 39.7782 347.056 41.6363 353.09 47.2321C367.42 60.5211 362.122 88.8077 340.585 90.0574C323.977 89.9689 310.842 81.315 311.93 63.4006C312.69 50.8129 318.849 41.2238 332.034 39.8833Z" fill="#4E7D33"/>
</g>
<defs>
<clipPath id="clip0_90_1336">
<rect width="334" height="323.817" fill="white" transform="translate(33 38)"/>
</clipPath>
</defs>
</svg>
