<svg width="400" height="400" viewBox="0 0 400 400" fill="none" xmlns="http://www.w3.org/2000/svg">
<g clip-path="url(#clip0_90_373)">
<path d="M268.922 252.96C280.401 250.572 289.718 252.273 299.62 258.864C320.046 272.461 347.396 306.676 342.285 334C341.268 339.457 339.46 344.003 340.975 349.733C341.725 354.178 349.658 362.95 349.318 365.59C348.713 366.207 347.95 366.727 347.073 366.617C341.638 365.94 337.475 359.65 332.113 357.09C324.538 353.472 322.215 353.338 314.398 351.905C301.553 349.55 292.25 341.445 283.451 332.125C271.207 319.157 260.752 300.292 256.644 282.872C255.101 276.323 254.773 265.76 259.535 260.452C260.523 260.896 262.887 261.84 264 262.5C266.084 261.967 266.873 260.802 269 260.5C273.196 256.802 269.827 256.448 268.922 252.96Z" fill="#F24B73"/>
<path d="M193.645 128.721C193.974 127.65 196.369 125.981 197.242 125.851C204.164 124.821 202.861 123.982 200.842 118.103C198.871 112.366 195.989 109.298 192.905 104.133C187.166 94.5235 182.012 79.717 189.766 69.7557C192.143 66.7022 199.417 65.9017 202.749 67.4085C203.384 67.6515 205.686 68.8652 205.981 68.73C205.936 67.2365 205.416 64.6705 205.045 63.257C202.73 54.4483 203.798 43.6227 212.544 39.0068C216.139 37.1095 217.907 33.4927 222.904 33.6982C243.326 34.7349 236.974 70.1546 234.574 83.2342C233.645 88.2967 232.809 95.4187 232.495 100.545C230.861 131.32 234.733 162.139 243.928 191.553C246.879 200.987 264.596 246.4 268.922 252.96C270.906 255.968 274.191 258.966 269.456 261.942C266.268 263.945 262.009 263.29 259.535 260.452C254.197 254.328 246.494 246.18 240.321 240.872C235.985 237.143 227.724 231.135 222.046 229.828C209.572 226.957 192.761 231.905 180.764 235.652C174.824 237.507 165.853 239.509 159.946 237.874C156.297 236.864 151.616 235.176 149.755 231.715C147.042 226.67 150.855 223.139 152.053 218.739L152.13 218.446C143.5 218 137.538 220.658 129.274 222.546C121.801 224.253 110.969 224.641 103.961 221.338C94.1188 216.698 90.784 211.203 95.2582 201.405C85.8318 196.984 52.8737 206.331 51.5109 190.22C49.5771 167.358 95.114 169.584 108.672 171.19C132.329 174.033 155.814 181.811 177.599 191.341C198.988 200.701 219.341 210.974 237.872 225.319C239.023 225.921 239.141 226.4 240.683 226.789L240.302 226.644L240.811 226.608L240.581 226.708L240.855 226.696C240.313 225.975 239.436 225.441 238.686 224.918C234.79 221.852 231.213 216.404 227.906 212.593C221.009 204.643 212.73 196.917 203.867 191.229C196.368 186.417 187.127 180.863 178.985 177.399C168.7 173.023 157.727 172.125 148.651 164.313C143.873 160.2 145.245 155.176 145.228 149.926C144.522 139.026 120.159 134.977 113.017 129.96C106.049 125.065 102.745 111.448 107.328 104.106C109.116 101.241 113.881 101.302 116.301 101.148C114.78 98.0602 114.294 95.1162 112.55 92.043C106.944 82.167 98.917 76.9002 98.766 64.7955C98.6613 56.4157 101.089 43.1061 111.691 42.8601C120 42.6769 129.357 54.7445 132.166 61.8095C145.744 96.092 164.173 129.653 189.283 156.901C201.38 170.029 215.425 179.819 227.5 192.799C229.267 194.699 230.697 196.697 232.618 198.504C234.789 200.687 236.964 203.798 238.622 206.364C237.334 202.684 236.156 198.818 234.786 195.203C231.63 184.583 225.124 176.685 218.267 168.196C209.616 157.487 188.763 144.653 193.645 128.721Z" fill="#92BF67"/>
</g>
<defs>
<clipPath id="clip0_90_373">
<rect width="299" height="334" fill="white" transform="translate(51 33)"/>
</clipPath>
</defs>
</svg>
