<svg width="400" height="400" viewBox="0 0 400 400" fill="none" xmlns="http://www.w3.org/2000/svg">
<g clip-path="url(#clip0_90_1026)">
<path d="M41.613 93.5402C48.688 91.1242 49.0668 92.3156 54.7458 97.1418C60.4248 101.968 67.1878 112.037 69.943 118.833C73.1034 126.627 74.1106 135.594 78.3573 142.924C83.4468 151.708 91.4165 158.683 96.5231 167.432C100.919 174.964 101.964 184.244 106.949 191.481C113.274 200.664 121.891 207.978 127.512 217.774C131.43 224.6 131.663 233.542 136.545 239.81C140.408 244.772 150.884 250.364 156.143 254.916C164.531 262.177 169.888 272.66 178.611 279.369C187.225 286.001 200.551 289.109 210.101 295.155C213.603 297.369 217.054 300.074 220.865 301.709C231.366 306.216 243.166 307.732 253.86 312.301C258.437 314.254 264.877 319.355 268.538 320.537C275.994 322.943 284.241 320.62 291.883 323.548C303.964 328.174 313.868 339.31 326.293 342.209C334.699 344.169 343.162 340.474 351.282 341.872C353.76 342.301 353.233 345.512 352.851 347.221C343.987 355.551 331.654 358.481 320.06 360.541C305.971 363.046 295.683 358.132 282.379 357.12C270.65 356.222 259.228 359.613 247.62 358.676C234.896 357.649 220.162 349.881 207.313 346.414C198.219 343.958 187.675 344.127 179.11 340.23C172.472 337.206 166.725 332.133 160.601 328.216C154.55 324.345 148.187 321.169 142.282 317.03C127.712 306.815 120.501 290.13 110.354 275.996C102.892 265.6 92.4575 257.911 85.116 247.34C79.9099 239.838 78.4266 230.986 74.3495 223.021C69.5852 213.72 61.9683 205.917 56.8606 196.786C51.0211 186.347 49.4344 174.674 45.4454 163.616C41.966 153.972 36.0106 145.769 34.2804 135.432C31.7412 120.259 32.7657 106.049 41.613 93.5402Z" fill="#4E7D33"/>
<path d="M41.6133 93.5402C43.0753 90.9262 44.889 88.513 47.9555 87.7086C53.2214 86.2836 59.6204 92.9983 54.7461 97.1419C49.5703 98.0163 45.9019 96.0295 41.6133 93.5402Z" fill="#59300E"/>
<path d="M71.39 142.995C72.1145 143.134 72.8867 143.336 73.3776 143.934C75.6556 146.71 76.8401 150.821 78.6469 153.966C82.9648 161.481 88.8254 168.397 91.7691 176.632C93.3131 180.951 94.1886 185.62 96.7376 189.499C102.913 198.898 112.223 205.685 118.009 215.549C121.378 221.293 122.648 229.656 126.739 234.661C133.617 243.078 143.135 248.447 151.145 255.634C159.757 263.367 165.835 272.671 172.6 281.841C176.383 286.964 185.218 287.544 190.764 290.403C200.548 295.401 208.79 304.173 218.833 308.361C226.823 311.689 235.467 311.55 243.468 315.451C249.297 318.297 253.86 323.986 260.14 325.694C270.289 328.449 281.237 325.86 291.629 327.581C295.635 328.257 306.358 332.487 308.638 335.691C308.806 336.917 308.027 337.504 306.89 337.497C303.534 337.464 297.738 333.654 293.008 333.112C282.128 331.865 271.238 333.439 260.471 330.931C253.574 329.327 248.316 323.414 241.815 320.646C233.909 317.28 225.156 316.537 217.373 312.996C207.231 308.385 198.463 300.369 188.823 294.778C182.307 290.998 180.512 294.778 169.275 284.452C161.047 276.891 155.222 267.006 146.928 259.402C141.668 254.579 134.989 251.477 129.956 246.467C127.379 243.901 124.449 240.685 122.61 237.538C119.02 231.391 117.305 224.33 113.506 218.237C108.004 209.413 100.151 202.62 94.4608 194.148C90.2064 187.814 88.605 179.891 85.0618 173.133C84.0823 171.266 82.8837 169.546 81.8794 167.701C78.1294 160.809 70.327 153.108 70.5151 145.101C70.5381 144.127 70.6841 143.667 71.39 142.995Z" fill="#92BF67"/>
<path d="M53.3452 58.364C53.6843 56.7119 57.2904 47.8107 64.0317 47.8106C67.0078 49.829 72.8668 52.2747 76.1883 53.6014C118.018 70.3094 103.823 79.4222 119.829 92.7323C127.633 99.2212 136.045 103.255 141.221 111.149C145.345 117.439 149.9 127.561 157.711 134.527C166.457 142.326 171.154 142.236 182.818 159.385C186.894 163.775 189.298 169.737 192.793 174.459C199.649 183.719 209.106 189.915 216.522 198.817C219.248 202.09 224.01 210.074 226.606 212.512C253.642 225.698 257.008 234.857 270.577 245.197C275.418 249.005 278.042 248.879 283.193 251.105C292.874 255.287 299.546 262.558 306.143 270.325C308.489 273.04 312.051 274.495 314.754 276.818C328.175 288.353 336.409 298.716 356.463 297.686C359.682 297.557 364.785 295.244 365.942 299.897C366.587 302.491 361.03 303.976 359.29 304.877C333.766 318.075 317.031 307.958 292.889 302.754C285.559 300.813 278.36 301.142 271.354 298.359C262.354 294.781 256.754 287.747 248.662 283.177C240.654 278.655 230.409 275.346 223.342 269.265C214.727 261.377 209.673 251.245 201.704 242.877C195.745 236.614 187.665 231.882 181.588 225.698C172.777 216.729 167.189 204.894 158.128 196.116C148.482 186.771 136.829 181.111 130.094 168.682C126.74 162.535 124.247 155.032 119.905 149.522C114.652 142.856 107.356 139.135 101.298 132.949C94.3794 125.883 93.0163 119.32 88.0784 111.33C78.4341 95.7229 49.3611 77.7715 53.3452 58.364Z" fill="#4E7D33"/>
<path d="M53.3457 58.3639C47.1862 57.6737 52.5003 48.3869 55.7105 46.4674C59.5384 44.1788 61.4361 44.048 64.0322 47.8105C63.5008 52.6672 57.1644 56.1347 53.3457 58.3639Z" fill="#59300E"/>
<path d="M93.2633 67.2508C100.056 70.0339 105.77 77.8217 109.262 84.0693C110.885 86.9735 112.228 90.1691 114.459 92.6672C120.191 99.0866 128.617 102.446 134.336 109.604C139.739 116.364 142.898 124.815 148.674 131.16C153.466 136.425 158.851 139.97 164.203 144.52C177.377 155.72 184.556 171.061 195.186 184.311C199.492 189.679 205.423 193.628 209.474 199.169C213.226 204.299 215.468 211.893 220.051 215.972C228.202 223.233 239.84 227.651 248.843 234.086C254.738 238.304 258.861 245.134 264.996 248.861C274.904 254.868 286.697 255.714 295.899 263.929C300.294 267.856 301.569 272.14 305.041 275.512C308.725 279.095 313.814 280.96 316.648 285.527C317.202 286.421 317.667 287.539 317.323 288.594C317.065 289.384 316.506 289.718 315.835 290.133C310.729 286.566 304.024 281.513 299.801 276.988C296.458 273.412 294.376 268.605 290.332 265.697C282.029 259.733 272.255 258.129 263.716 253.17C256.86 249.177 251.965 241.776 245.584 236.961C236.513 230.22 223.662 225.985 215.949 217.892C211.541 213.264 209.049 206.804 205.203 201.65C200.959 195.963 194.448 192.186 190.462 186.246C177.228 166.527 166.601 148.815 147.499 136.676C138.477 130.943 136.078 119.36 129.14 111.349C124.693 106.213 118.411 102.643 113.264 98.219C106.354 92.2792 103.357 82.6783 97.4937 75.7084C96.188 74.156 91.741 70.9719 91.6074 69.1572C91.8597 68.2303 92.5376 67.8275 93.2633 67.2508Z" fill="#92BF67"/>
<path d="M112.27 42.0996C113.758 40.2044 116.853 39.2006 119.024 39.1948C139.232 39.1408 155.085 49.155 174.478 50.4359C182.385 50.9579 196.644 59.2452 202.81 64.12C210.785 70.7563 214.603 75.8662 225.116 78.5721C230.397 79.9314 237.715 84.1054 242.239 87.0787C249.835 92.1596 254.473 99.6602 260.629 106.102C273.716 119.792 291.663 127.954 303.343 143.705C307.609 149.461 310.646 157.572 314.499 163.324C316.351 166.088 321.341 169.865 323.925 172.333C340.098 187.782 336.082 195.702 342.702 209.088C350.626 225.112 358.465 241.223 353.208 260.035C352.434 262.8 345.769 285.166 340.098 278.62C338.783 277.101 341.518 265.799 338.881 263.038C334.471 256.477 328.353 253.625 323.421 246.993C317.751 240.875 319.717 231.07 315.939 225.003C311.908 218.527 304.856 214.107 299.791 207.713C293.908 200.286 290.244 187.825 284.143 181.566C277.483 174.735 271.59 172.664 265.136 164.477C260.242 158.291 258.614 149.772 253.01 144.248C242.607 133.988 228.445 133.996 216.787 126.9C207.872 121.138 203.154 112.403 195.173 106.342C188.385 101.205 179.609 98.9021 172.371 94.7605C165.704 90.945 160.237 83.8508 153.279 80.1761C145.473 76.0537 136.971 74.9685 128.926 71.2611C120.271 67.2725 114.647 63.7268 109.318 55.7197C107.391 50.4359 106.885 47.0968 112.27 42.0996Z" fill="#4E7D33"/>
<path d="M109.316 55.7198C107.455 55.2071 105.635 55.3303 104.474 53.5672C101.153 48.5279 106.548 41.2143 112.269 42.0996C112.965 42.9083 114.212 44.1983 113.944 45.2456C113.004 48.9145 111.822 49.8864 111.682 53.8618C111.641 55.0359 109.316 55.7198 109.316 55.7198Z" fill="#59300E"/>
<path d="M148.148 48.0043C152.486 48.7877 156.061 52.1991 160.358 53.2896C166.292 54.7957 172.619 54.2322 178.61 55.763C192.834 59.3973 199.177 70.8597 210.47 78.1448C221.971 85.5617 233.991 86.4113 244.414 97.2694C247.416 100.396 249.912 103.709 252.721 106.887C257.553 112.342 265.256 116.014 271.114 120.208C282.559 128.4 293.376 139.219 300.714 151.266C303.542 155.909 305.303 161.156 308.846 165.363C315.549 173.322 324.438 178.749 329.926 188.004C333.659 194.297 333.671 201.29 336.841 207.555C339.617 213.027 344.94 216.584 345.844 223.155C345.978 224.132 346.072 224.939 345.459 225.716C342.886 223.219 341.431 219.522 339.303 216.64C337.016 213.54 332.342 210.83 331.902 207.003C329.926 189.806 318.38 181.898 306.93 168.491C300.655 161.151 296.884 152.086 290.666 144.659C278.898 130.713 264.22 121.816 250.667 110.127C243.549 103.988 237.836 96.361 229.84 91.189C223.008 86.7696 214.449 86.3284 207.765 81.9749C199.127 76.3439 193.213 67.6174 183.874 62.5915C175.362 58.0114 165.542 59.5803 156.795 56.2835C153.388 54.9994 150.081 52.5571 146.982 50.6351C147.33 49.7424 147.749 48.8755 148.148 48.0043Z" fill="#92BF67"/>
</g>
<defs>
<clipPath id="clip0_90_1026">
<rect width="334" height="322.867" fill="white" transform="translate(33 39)"/>
</clipPath>
</defs>
</svg>
