<svg width="400" height="400" viewBox="0 0 400 400" fill="none" xmlns="http://www.w3.org/2000/svg">
<g clip-path="url(#clip0_90_512)">
<path d="M100.533 51.785C98.7531 47.9245 95.553 38.0226 98.8989 34.4314C105.912 30.9014 122.077 61.9927 125.608 67.3999C135.014 81.8027 143.826 94.4378 155.188 112.582L154.943 112.732C152.085 114.461 148.508 115.719 145.783 117.667C137.184 123.812 129.462 131.641 121.895 138.946C119.58 141.182 114.55 148.396 112.901 149.669C101.807 143.527 90.2958 137.666 79.329 131.277C66.4343 123.764 53.3701 115.217 42.1419 105.385C39.3262 102.919 34.1654 98.3301 33.9273 94.4378C33.7605 91.7124 37.5026 91.3738 39.3917 92.1162C47.3133 95.4236 55.1013 100.475 62.4496 104.836C65.801 106.825 82.1204 119.507 84.5574 119.597C84.1338 118.924 82.0453 117.028 81.3537 116.456C73.3873 109.87 67.072 101.446 59.5155 94.4408C51.9744 87.4501 44.8152 80.1312 38.4282 72.0583C36.2956 69.3627 33.2198 60.8637 39.3026 61.1061C53.3565 64.0257 67.0773 82.0915 77.8837 90.5694C85.4959 96.5421 92.5807 103.09 100.073 109.177C94.8435 101.664 86.6186 96.4007 80.3538 89.8096C70.817 79.7766 59.6641 70.1975 51.6918 58.7883C48.5577 54.3034 42.3911 45.0265 43.2671 39.5914C44.9041 36.7019 49.233 37.8608 51.4704 39.3088C59.1058 44.2502 64.8331 51.3672 71.2685 57.6785C75.3633 61.6941 79.5157 65.1103 83.6146 69.0968C85.5801 71.0082 88.8591 75.3368 90.7941 76.6399C84.296 67.0321 77.3268 58.3149 72.8046 47.2997C71.2942 43.6197 70.1985 39.806 74.5837 38.473C79.7918 39.6271 86.0626 46.5915 89.7746 50.4725C92.809 53.6451 111.945 76.6399 116.583 81.1223C111.945 70.4364 104.697 60.8167 100.533 51.785Z" fill="#92BF67"/>
<path d="M288.864 126.558C301.291 138.08 310.734 156.962 315.344 172.832C320.184 189.504 317.272 209.399 313.287 225.799C310.088 237.895 302.153 248.671 302.153 261.578C302.153 277.956 319.532 290.145 327.717 303.262C333.664 312.626 337.595 323.206 343.531 332.614C347.4 338.747 356.626 343.96 360.53 350.389C361.755 352.816 370.866 368.597 362.496 365.816C360.937 365.3 357.8 360.103 355.118 358.754C346.444 354.387 336.525 351.11 328.628 345.369C320.258 339.036 313.061 330.4 305.448 323.335C291.68 310.565 271.443 302.521 252.615 304.36C247.537 304.856 238.741 308.801 233.435 310.01C181.782 321.785 149.182 308.271 119.957 276.955C135.224 166.082 174.191 126.558 288.864 126.558Z" fill="#F9FAF5"/>
<path d="M250.611 119.294C251.692 120.51 247.476 122.427 246.687 122.797C236.765 127.441 227.095 132.544 217.638 138.073C214.694 139.794 212.054 143.657 208.95 144.555L208.613 143.937C210.288 137.361 233.183 126.633 239.47 123.308C242.96 121.464 246.993 120.84 250.611 119.294Z" fill="#C9CCBE"/>
<path d="M212.349 123.006L212.539 123.852C211.513 125.281 206.988 128.569 205.331 129.868C201.303 133.025 197.248 136.165 193.288 139.427C191.249 141.107 189.245 144.399 187.088 145.515C186.864 145.122 186.399 144.271 186.679 143.838C192.383 135.012 203.665 128.188 212.349 123.006Z" fill="#C9CCBE"/>
<path d="M119.71 175.653C120.043 176.709 117.907 179.453 117.192 180.629C113.341 186.961 109.766 193.404 106.393 200.001C105.986 200.796 105.428 200.803 104.659 200.999C102.727 198.018 111.853 184.508 113.953 181.608C115.172 179.924 118.116 177.175 119.71 175.653Z" fill="#C9CCBE"/>
<path d="M284.006 126.103L288.864 126.558C301.291 138.08 310.734 156.962 315.344 172.832C320.184 189.504 317.272 209.399 313.287 225.799C310.091 237.885 302.017 248.674 302.153 261.578C302.224 268.306 311.385 281.935 319.453 291.752C322.454 295.405 325.254 299.227 327.717 303.262C335.108 315.37 337.658 323.305 343.531 332.614C347.4 338.747 356.626 343.959 360.53 350.389C361.755 352.816 370.866 368.597 362.496 365.816C360.937 365.3 357.8 360.103 355.118 358.754C346.444 354.387 336.525 351.11 328.628 345.369C320.258 339.035 313.061 330.4 305.448 323.335C291.68 310.565 271.443 302.521 252.615 304.36C247.537 304.856 238.741 308.801 233.435 310.01C202.024 316.888 181.276 316.888 154.96 304.36C141.716 298.772 129.642 287.332 119.957 276.955C120.317 276.426 120.265 274.523 120.548 273.873C121.895 274.525 126.412 278.435 127.955 279.624C136.666 286.534 144.385 293.594 154.509 298.485C164.361 303.247 171.409 306.739 182.288 307.779C199.652 309.436 215.915 308.32 233.066 305.028C239.409 303.822 245.408 300.572 251.874 299.469C266.929 297.526 284.358 303.465 297.103 311.265C300.582 313.393 307.108 318.983 310.207 321.867C316.27 327.51 324.018 336.864 330.703 341.523C337.674 346.381 350.715 351.778 358.62 355.551C356.145 350.546 354.49 348.813 350.209 345.351C347.481 343.142 344.726 340.164 342.074 337.829C337.224 333.554 333.567 325.727 331.009 319.785C328.327 313.54 326.181 309.122 322.558 303.416C314.535 290.784 304.555 281.555 298.745 267.175C295.213 258.428 298.464 250.579 302.204 242.687C306.038 234.592 309.288 225.657 311.007 216.873C313.575 203.757 314.063 190.891 311.67 177.705C308.386 159.603 296.773 138.87 284.006 126.103Z" fill="#C9CCBE"/>
<path d="M215.908 271.53L216.217 271.972C216.222 277.61 198.573 295.603 193.418 297.44L193.025 296.575C193.273 293.986 199.391 290.484 201.434 288.202C206.35 282.706 211.101 277.096 215.908 271.53Z" fill="#C9CCBE"/>
<path d="M150.348 244.503C150.49 244.655 150.559 244.863 150.656 245.068C149.739 248.863 145.073 254.67 143.347 258.526C141.661 262.294 139.322 266.241 137.586 270.039C136.939 271.45 135.368 269.793 135.7 268.744C138.08 261.239 144.108 249.055 150.348 244.503Z" fill="#C9CCBE"/>
<path d="M300.62 230.504C303.588 233.147 289.226 247.745 286.84 248.876C286.324 248.254 285.716 247.534 286.448 246.811C291.607 241.705 295.934 236 300.62 230.504Z" fill="#C9CCBE"/>
<path d="M300.62 216.294C300.974 216.497 300.853 216.43 301.103 216.812C301.182 221.066 293.867 230.831 290.764 233.955C289.913 234.81 288.429 235.278 288.004 234.036C288.206 232.113 291.116 230.14 292.273 228.463C295.069 224.413 297.806 220.332 300.62 216.294Z" fill="#C9CCBE"/>
<path d="M286.304 287.683C286.967 287.779 286.686 287.65 287.187 288.073C287.423 290.681 283.336 297.007 280.631 297.404C279.902 297.05 279.381 296.921 279.037 296.213C279.427 294.325 284.667 288.92 286.304 287.683Z" fill="#C9CCBE"/>
<path d="M296.464 287.936C298.058 289.606 293.952 296.357 292.241 297.544C291.162 298.29 290.496 297.817 289.797 296.939C289.812 294.636 294.69 289.917 296.464 287.936Z" fill="#C9CCBE"/>
<path d="M325.7 318.355C325.991 318.573 325.92 318.56 326.115 318.909C325.839 320.41 324.622 323.026 323.167 323.58C320.419 320.752 323.296 319.491 325.7 318.355Z" fill="#C9CCBE"/>
<path d="M288.865 126.558C263.099 132.295 239.055 138.849 216.624 153.255C195.206 167.012 175.871 185.223 159.94 204.973C141.987 227.23 127.128 256.667 119.958 276.955C96.7643 246.039 82.1746 198.954 108.595 156.443C117.374 142.317 132.344 127.271 145.784 117.667C188.343 87.2516 249.817 93.2944 288.865 126.558Z" fill="#C45890"/>
</g>
<defs>
<clipPath id="clip0_90_512">
<rect width="334" height="332.988" fill="white" transform="translate(33 34)"/>
</clipPath>
</defs>
</svg>
