<svg width="400" height="400" viewBox="0 0 400 400" fill="none" xmlns="http://www.w3.org/2000/svg">
<path d="M307.325 33.602C307.548 33.575 307.726 33.5473 307.962 33.5532C315.216 33.7376 321.361 34.7807 326.753 39.9934C331.299 44.3901 333.948 54.173 333.904 60.2794C337.31 60.46 340.725 61.0758 343.849 62.4987C347.489 64.137 350.304 67.1899 351.642 70.9513C352.843 74.2846 352.774 77.8902 351.273 81.1073C353.522 83.2583 356.24 86.2281 357.554 89.0688C358.448 91 358.738 93.0449 359.251 95.0578C360.77 101.031 361.146 106.343 358.815 112.242C356.565 117.935 351.446 124.401 346.337 127.849C344.58 129.034 342.122 130.089 340.167 130.949C334.305 141.217 325.011 148.821 313.408 151.678C309.171 152.721 303.45 153.564 299.609 155.385C294.099 158.001 291.512 162.863 286.527 166.25C284.916 169.613 283.88 176.814 283.236 180.605C282.034 187.707 280.974 195.062 280.025 202.219C279.586 205.542 279.425 210.404 279.205 213.86C284.705 210.373 289.983 208.57 296.4 207.703C297.523 207.551 301.13 207.334 301.827 207.021C309.658 203.501 308.141 193.364 311.834 186.767C315.101 180.856 322.419 177.292 329.124 176.68C337.773 175.89 340.221 171.601 352.784 177.821C356.165 179.495 358.81 182.947 359.761 186.643C361.307 192.522 359.211 195.965 356.491 200.82C357.927 204.126 359.514 210.845 356.733 213.493C351.196 218.767 345.571 233.186 336.835 227.866C329.864 232.088 319.057 229.425 316.262 221.158C315.558 219.082 312.587 217.516 310.484 216.965C299.785 214.16 288.722 215.897 279.004 221.059C278.172 230.865 278.618 240.404 279.324 250.204C279.703 255.499 280.984 260.519 282.074 265.68C284.896 260.445 291.566 258.566 295.583 253.442C298.256 250.033 297.59 246.787 299.403 243.442C300.796 240.874 308.232 238.078 311.071 237.306C313.328 236.693 314.795 237.682 316.574 238.847C321.577 237.522 328.485 241.327 328.683 246.854C328.854 248.759 328.163 250.697 328.18 252.588C328.212 254.689 331.178 256.558 330.383 259.466C328.683 265.68 321.735 270.764 319.48 271.359C314.436 272.69 307.575 265.36 300.902 264.027C293.911 262.544 283.28 266.892 283.709 274.087C284.787 292.156 293.786 309.474 307.307 322.956C314.594 330.22 322.518 336.487 328.975 344.5C332.402 348.719 332.843 350.771 328.393 354.183C311.071 339.249 295.571 318.264 271.291 308.448C261.145 304.818 251.231 301.788 240.894 298.567C228.515 294.88 217.432 307.066 211.402 316.533C205.124 326.392 218.002 331.303 216.825 341.42C215.807 350.174 208.798 364.021 198.095 360.927C192.527 368.608 177.775 368.89 172.903 359.889C171.864 357.969 172.396 354.682 171.225 352.879C167.842 347.674 167.317 342.265 169.189 330.986C171.06 319.707 182.366 317.571 191.984 317.299C196.817 313.914 199.518 314.335 205.321 314.536C208.973 307.039 214.222 299.408 222.861 294.271C205.734 290.19 192.669 289.55 177.216 290.849C171.535 291.326 158.327 292.172 155.654 295.537C148.805 304.159 153.588 313.473 154.373 322.993C155.209 333.131 144.711 343.777 134.861 344.314L134.824 344.529C132.43 357.705 114.443 359.78 103.925 355.87C95.902 360.161 94.7925 360.54 85.3079 360.493C74.1229 360.436 57.0753 352.78 57.8689 339.581C49.4837 336.744 43.7626 328.578 41.1127 320.47C36.2425 305.5 42.8622 284.884 58.9779 279.684C57.6365 270.207 64.8678 261.859 72.7356 257.724C79.5435 254.146 88.2673 256.267 95.1359 258.321C102.228 248.026 115.785 248.245 126.186 253.75C138.628 260.336 140.119 276.376 152.564 282.809C154.356 283.735 158.171 284.843 160.161 284.912C165.41 285.103 171.054 283.426 176.306 282.977C187.669 282.006 205.464 281.669 216.02 285.485C211.479 281.637 209.143 278.074 207.614 272.211C206.983 269.788 206.573 267.313 205.734 264.947C199.668 260.122 195.262 262.645 188.331 263.108C182.44 263.502 181.208 259.852 177.797 256.421C172.798 251.393 171.545 249.708 171.565 242.483C168.521 238.378 168.087 235.394 169.238 230.335C170.125 226.433 173.49 222.894 176.816 220.852C180.248 218.744 183.757 219.373 187.449 220.35C194.501 217.137 199.133 219.012 205.284 223.048C211.024 226.816 212.169 231.391 213.37 237.804C214.997 239.397 216.758 241.222 217.321 243.492C218.74 249.195 214.986 253.004 212.581 257.697C212.631 262.181 212.957 267.191 214.506 271.426C216.379 276.542 221.825 282.898 226.538 285.599C236.924 291.551 250.511 293.37 261.868 297.13C270.639 300.027 278.659 303.806 287.007 307.616C284.933 303.827 282.488 298.441 280.758 294.402C278.414 288.926 277.8 279.025 273.484 274.625C270.099 271.176 263.773 268.128 258.912 268.406C251.464 268.618 250.012 278.43 240.882 272.439C236.887 269.986 230.998 267.447 228.827 263.034C226.057 257.392 229.365 254.151 234.115 251.901C234.194 246.264 236.451 237.555 244.004 240.959C252.913 238.675 258.87 241.401 259.916 251.042C260.352 255.073 259.316 257 261.967 260.452C266.67 262.29 268.608 261.421 273.025 265.175C270.61 254.111 270.045 242.704 270.124 231.417C270.146 228.433 271.147 221.244 270.352 218.767C268.835 214.039 263.233 207.981 259.212 205.083C257.864 204.148 255.654 203.065 254.135 202.312C245.837 204.052 243.196 209.199 235.676 211.103C231.679 212.114 227.524 207.652 224.6 206.47C222.311 205.544 218.436 205.952 215.777 203.73C207.413 198.139 201.219 182.676 209.648 175.171C210.876 174.079 213.106 173.467 214.155 171.988C216.074 169.283 217.122 165.952 219.315 163.402C223.138 158.996 227.46 159.153 232.809 159.543C240.159 160.08 246.159 158.472 252.52 163.947C255.656 166.612 255.996 168.389 258.109 171.71C258.895 172.943 261.427 174.964 262.012 176.211C264.234 180.957 262.51 185.985 261.937 190.784C261.712 192.684 262.044 196.139 262.208 198.09C265.771 201.473 268.808 204.389 271.479 208.633C271.246 202.342 276.427 173.91 279.012 167.994C278.105 166.776 277.084 164.195 276.519 162.677C274.135 156.207 269.48 150.665 263.821 146.779C260.054 144.368 256.382 141.219 252.797 138.685C246.345 134.127 241.32 130.816 237.683 123.418C234.828 117.61 232.688 112.98 236.29 106.92C228.064 97.5301 231.513 75.9697 240.423 68.0915C243.429 65.4344 246.127 64.7071 249.824 63.5976C251.729 59.0195 252.567 55.8752 255.919 51.9867C264.063 42.54 275.892 35.2646 288.251 40.3341C288.415 40.1425 288.576 39.9522 288.742 39.7634C292.961 34.9358 301.277 34.0101 307.325 33.602Z" fill="#015734"/>
<path d="M313.298 45.802C314.442 45.8737 315.739 46.42 315.342 47.833C314.447 51.2845 312.805 54.4456 311.707 57.8476C308.657 67.313 308.511 77.5773 306.826 87.3771C305.503 95.0734 304.308 102.458 301.548 109.823C297.693 120.117 289.371 128.853 286.375 139.394C285.307 143.156 284.925 146.74 284.645 150.57C286.751 146.221 289.038 140.073 291.873 136.071C293.954 133.131 297.889 128.586 300.369 125.947C310.422 115.133 322.744 106.152 330.399 93.2112C332.24 90.0947 337.508 73.3473 341.551 73.8887C342.649 75.7711 339.574 81.5256 338.97 83.2806C335.206 94.535 330.758 100.94 322.366 109.123C311.388 119.83 298.212 130.379 291.134 144.189C294.809 141.32 306.135 135.036 310.386 133.307C322.059 128.562 331.799 123.719 340.181 113.883C342.473 111.195 348.544 100.662 351.244 99.6377C352.409 99.9229 352.302 101.812 351.918 102.551C345.309 115.232 334.007 127.868 320.079 132.783C309.827 136.402 292.673 145.812 287.859 151.905C286.608 153.487 284.737 158.558 282.725 158.914C280.772 157.149 280.465 150.444 276.63 146.205C266.937 135.018 255.205 136.071 247.918 115.792C245.095 107.939 240.95 86.6709 244.382 79.346C245.861 79.2962 246.585 81.3176 246.706 82.653C247.765 94.1322 247.49 107.025 253.17 117.481C255.086 121.008 258.096 125.378 260.774 128.369C264.709 132.529 270.397 136.213 275.111 139.458C273.983 134.688 273.136 129.901 273.121 125.003C273.097 115.041 273.163 105.344 270.886 95.5613C267.96 82.9605 263.849 69.6847 268.423 56.9097C268.889 55.6045 271.761 48.9574 273.483 49.8018C274.625 55.6136 270.647 63.1054 270.562 69.2863C270.401 80.5898 274.672 90.422 275.958 101.502C276.384 105.185 277.033 109.797 277.033 113.486C277.031 119.959 276.419 126.382 277.442 132.846C278.156 137.354 279.722 141.509 281.186 145.812C281.439 143.471 281.729 140.592 282.512 138.36C286.139 128.014 293.949 119.329 297.202 108.868C300.327 98.8248 302.115 88.8049 303.563 78.4029C304.74 69.5898 306.224 52.209 313.298 45.802Z" fill="#80B44E"/>
<path d="M107.847 256.25C109.89 256.195 111.759 257.132 113.444 258.336C123.286 265.37 127.531 277.586 136.624 285.584C139.958 288.515 143.694 288.245 147.198 290.096L147.515 290.267C145.415 292.36 144.223 293.956 143.34 296.862C142.43 300.299 140.548 306.882 140.711 310.309C141.268 322.024 137.344 330.855 128.548 338.672C127.348 339.74 122.304 343.932 120.533 342.302C120.496 337.692 130.14 331.403 132.892 327.116C137.306 320.285 136.862 316.548 137.356 308.954C137.624 304.838 139.309 298.193 140.969 294.494C138.945 296.288 137.127 297.643 135.016 299.605C127.997 306.139 124.061 312.678 119.167 320.81C111.107 334.202 99.9512 343.769 84.5111 347.53C82.4747 348.025 77.5112 348.739 75.6601 347.577L75.5813 347.121C89.0496 342.302 96.4775 338.788 103.389 333.303C111.911 326.541 116.911 316.707 122.943 307.891C126.823 302.222 131.55 297.497 136.885 293.2C134.113 293.755 133.306 292.779 129.801 293.874C121.916 296.34 115.825 300.819 108.996 305.205C99.7507 311.144 92.4627 314.928 81.8126 317.453C75.6631 318.882 56.8637 323.082 52.0757 318.216C51.761 317.299 51.7553 317.74 52.0784 316.841C63.281 316.454 77.4891 314.343 88.0337 311.389C100.667 307.849 113.128 295.44 125.046 291.937C121.082 291.52 116.699 290.542 112.663 289.952C100.426 288.171 86.1345 288.396 74.2409 292.113C70.8362 293.193 67.4764 294.412 64.1703 295.765C61.7823 296.761 54.7328 300.423 52.4147 299.03C51.675 296.914 56.4157 294.536 57.9831 293.718C75.9931 284.318 96.2985 282.7 116.061 286.421C117.133 286.624 127.106 288.641 127.358 288.604C127.064 288.208 122.127 286.084 121.232 285.69C109.683 280.584 99.7973 273.723 86.9148 272.358C82.9073 271.934 71.7421 273.098 70.0839 270.579C70.7698 267.286 77.674 268.022 80.1352 267.885C89.955 267.345 99.2577 270.494 107.899 274.875C110.797 276.347 113.565 278.039 116.502 279.471C122.732 282.449 129.003 285.341 135.314 288.146C126.85 281.604 122.877 271.877 116.259 265.249C113.824 262.819 107.998 260.618 106.661 257.548C106.868 256.664 106.833 256.934 107.847 256.25Z" fill="#80B44E"/>
<path d="M340.805 183.588C341.628 183.801 341.751 184.155 341.826 184.882C340.949 187.247 337.016 189.537 335.451 191.745C330.433 198.82 327.366 203.011 319.893 207.897C324.695 206.181 329.078 204.78 333.518 202.113C335.587 200.869 347.133 189.99 348.637 192.572C347.988 196.353 337.549 204.129 334.127 206.159C332.309 207.236 328.367 208.979 326.278 209.955C330.862 210.87 333.89 211.59 338.573 211.451C341.365 211.368 344.923 209.935 347.329 210.611C347.723 211.62 346.543 212.418 345.758 212.9C337.797 217.801 327.621 213.327 319.142 211.5C320.876 212.456 322.447 213.661 324.05 214.826C329.531 219.509 331.573 221.121 338.657 222.818C337.083 224.062 336.499 224.407 334.682 225.18C325.198 222.545 324.843 218.851 316.952 214.048C314.405 212.498 307.967 212.032 305.428 210.797C305.916 209.291 312.494 206.141 313.659 203.707C314.851 201.491 316.055 199.327 317.133 197.052C318.354 194.472 319.665 185.16 323.097 184.829C324.026 185.206 323.669 184.919 324.256 185.657C324.135 186.948 322.821 188.146 322.507 189.343C320.728 196.088 318.391 200.842 314.979 206.878C318.852 204.578 322.217 203.276 325.537 199.698C331.481 193.285 332.277 187.535 340.805 183.588Z" fill="#80B44E"/>
<path d="M201.043 319.972C202.399 320.441 202.671 320.213 203.987 321.003C204.263 322.121 203.24 325.367 203.526 326.64C204.014 328.714 204.617 330.077 205.391 332.16C207.668 338.288 210.058 348.583 205.07 353.962C204.673 354.391 204.428 354.302 203.959 354.237C203.011 352.555 206.495 344.7 204.048 337.725C203.603 336.456 203.079 332.039 201.765 330.832C200.461 331.194 200.163 332.696 199.753 334.006C199.021 336.288 198.48 338.627 198.138 341.001C197.722 343.868 197.714 355.29 194.58 355.813C193.348 354.319 194.502 350.711 194.533 348.885C194.685 339.884 196.061 333.845 200.419 325.84C197.828 328.778 194.755 331.026 192.724 334.264C190.599 337.654 189.106 340.947 188.043 344.802C186.772 349.416 187.624 354.041 184.664 357.845C183.647 357.914 183.347 356.108 183.061 355.365C184.284 344.227 185.115 337.924 192.902 328.659C189.915 330.471 184.485 334.841 182.3 337.624C180.12 340.401 179.735 346.425 176.396 348.09C175.624 348.068 175.678 348.08 175.038 347.649C174.481 345.843 176.059 344.19 176.571 342.421C179.072 333.786 184.437 330.793 191.266 325.907C186.713 327.629 181.425 328.793 177.604 332.126C176.094 333.444 175.264 335.334 173.707 336.633C172.959 335.939 172.449 335.255 171.812 334.465C174.363 327.839 181.535 324.844 188.036 323.285C192.307 322.262 197.113 322.294 201.043 319.972Z" fill="#80B44E"/>
<path d="M242.187 162.984C252.033 167.016 255.227 178.199 255.068 187.797C255.044 189.253 255.138 191.03 255.381 192.469C255.616 193.866 257.385 196.915 256.818 198.159C253.686 199.222 252.365 194.347 245.266 198.054C237.016 202.365 224.803 201.641 218.487 193.808C222.526 194.507 224.483 195.518 228.229 196.71C233.267 198.312 239.583 197.845 244.362 195.583C245.145 195.212 245.983 194.913 246.282 194.123C243.698 192.233 227.865 195.282 227.276 191.924C227.754 191.146 229.003 190.589 229.887 190.616C232.786 190.703 235.591 190.268 238.477 190.016C242.7 189.646 246.146 190.937 249.925 192.58C246.731 190.13 241.096 187.253 237.278 186.141C233.505 185.156 214.688 184.055 213.629 179.674C213.87 179.315 214.429 178.649 215.001 178.73C219.652 179.348 224.285 181.146 229.025 181.609C236.983 182.385 242.288 183.695 249.005 188.16C247.771 186.813 246.468 185.403 245.153 184.138C240.527 179.69 234.018 177.653 229.721 172.786C228.604 171.521 226.607 168.034 227.655 166.485L228.21 166.577C230.236 167.966 231.651 171.065 233.854 172.634C241.228 177.889 247.999 180.428 252.11 189.111C252.13 183.143 251.463 176.282 248.017 171.209C246.01 168.255 241.946 167.051 242.187 162.984Z" fill="#80B44E"/>
<path d="M178.842 224.098C180.71 224.881 183.561 231.621 185.953 233.935C190.15 237.995 195.322 242.496 200.459 245.152C199.511 243.725 198.505 242.394 197.328 241.147C192.554 236.092 185.351 232.33 189.159 224.287C190.199 226.181 191.938 231.05 193.079 232.291C198.694 238.4 202.33 240.243 205.518 248.581C205.631 246.071 205.681 244.22 205.392 241.664C205.012 238.297 198.446 229.368 200.839 226.782L201.462 226.804C206.992 231.22 210.143 242.387 208.903 248.839C208.272 250.345 206.796 257.07 205.203 257.013C200.96 256.718 198.188 255.526 193.793 256.039C190.958 256.371 187.226 259.354 185.092 258.252C184.75 257.531 184.772 257.892 185.031 257.132C188.191 254.049 194.095 253.034 198.389 252.845C193.099 249.178 188.538 249.317 183.145 246.406C180.795 245.137 177.342 240.824 179.178 238.192C181.049 238.429 182.827 242.399 184.938 243.819C188.06 246.012 192.048 246.297 195.499 247.776C197.799 248.759 199.5 250.499 201.727 251.636C197.132 246.522 172.788 232.775 178.842 224.098Z" fill="#80B44E"/>
<path d="M311.847 240.571C312.684 240.574 312.853 240.639 313.239 241.262C313.026 242.825 309.431 245.407 308.422 246.864C306.567 249.54 305.34 252.382 303.631 255.224C309.82 254.144 314.391 251.978 318.861 247.679C320.036 246.552 322.625 244.381 324.253 245.417L324.29 246.017C323.321 248.128 317.008 253.093 314.711 254.483C313.992 254.919 311.272 256.007 310.34 256.381C310.69 256.926 311.485 257.1 312.139 257.333C317.464 260.343 316.983 261.037 323.485 262.464C315.982 267.211 314.28 260.744 307.431 259.079C304.319 258.321 297.503 260.888 295.764 259.473L295.796 258.899C296.671 257.501 299.602 255.9 300.724 254.292C304.277 249.213 305.38 243.44 311.847 240.571Z" fill="#80B44E"/>
<path d="M245.55 245.962C250.689 246.386 254.321 254.399 255.496 258.611C255.934 260.175 258.518 261.669 257.825 263.71C256.502 264.426 254.386 263.591 252.203 264.035C247.79 264.932 244.735 267.766 240.094 266.646C238.862 266.349 237.527 265.992 236.818 264.867C237.197 262.31 241.567 263.776 243.253 263.755C245.405 263.727 248.734 262.025 250.919 261.309C247.004 260.873 240.215 259.431 238.275 255.526C238.306 254.834 239.028 253.073 240.007 253.747C243.92 256.446 246.64 257.575 251.511 258.078C250.275 252.679 248.399 252.835 244.784 248.903C244.98 247.907 245.275 246.941 245.55 245.962Z" fill="#80B44E"/>
</svg>
