<svg xmlns="http://www.w3.org/2000/svg" width="632" height="632" viewBox="0 0 632 632" fill="none"><metadata><rdf:RDF xmlns:rdf="http://www.w3.org/1999/02/22-rdf-syntax-ns#" xmlns:dc="http://purl.org/dc/elements/1.1/"><rdf:Description><dc:creator>RealFaviconGenerator</dc:creator><dc:source>https://realfavicongenerator.net</dc:source></rdf:Description></rdf:RDF></metadata><rect width="632" height="632" rx="84.2667" fill="url(#paint0_linear_190_339)"></rect><path d="M314.344 240.39C341.472 240.39 366.693 247.171 390.007 260.735C413.744 274.3 432.819 293.587 447.231 318.596C461.643 343.181 468.849 372.429 468.849 406.339C468.849 440.249 461.643 469.709 447.231 494.718C432.819 519.303 413.744 538.166 390.007 551.307C366.693 564.447 341.472 571.017 314.344 571.017C287.216 571.017 261.783 564.447 238.046 551.307C214.309 538.166 195.021 519.303 180.186 494.718C165.774 469.709 158.567 440.249 158.567 406.339C158.567 372.428 165.774 343.181 180.186 318.596C195.021 293.587 214.309 274.3 238.046 260.735C261.783 247.171 287.216 240.39 314.344 240.39ZM314.344 288.076C296.541 288.076 279.586 292.739 263.479 302.064C247.795 310.966 234.866 324.318 224.693 342.121C214.52 359.5 209.434 380.906 209.434 406.339C209.434 431.348 214.308 452.754 224.058 470.557C234.231 487.936 247.371 501.076 263.479 509.978C279.586 518.879 296.541 523.33 314.344 523.33C332.147 523.33 348.891 518.879 364.574 509.978C380.258 501.076 392.974 487.936 402.724 470.557C412.897 452.754 417.983 431.348 417.983 406.339C417.983 381.33 412.897 360.136 402.724 342.757C392.974 324.954 380.258 311.39 364.574 302.064C348.891 292.739 332.147 288.076 314.344 288.076ZM202.476 210.85L161.753 240.436L87.0078 137.558L127.73 107.972L202.476 210.85ZM538.924 137.558L464.179 240.436L423.456 210.85L498.201 107.972L538.924 137.558ZM338.357 183.167H288.021V56.0029H338.357V183.167Z" fill="white"></path><defs>
<linearGradient id="paint0_linear_190_339" x1="0" y1="316" x2="632" y2="316" gradientUnits="userSpaceOnUse">
<stop stop-color="#0D3B66"></stop>
<stop offset="0.5" stop-color="#5C946E"></stop>
<stop offset="0.75" stop-color="#EDAE49"></stop>
<stop offset="1" stop-color="#F28482"></stop>
</linearGradient>
</defs></svg>