<svg width="400" height="400" viewBox="0 0 400 400" fill="none" xmlns="http://www.w3.org/2000/svg">
<path d="M166.716 33.6488C178.506 32.2246 183.46 47.703 184.332 57.4043C185.432 69.6342 185.036 82.0356 184.849 94.28C184.795 97.8149 184.428 101.776 184.602 105.238L190.216 227.12C191.451 253.683 191.814 280.44 194.006 306.942C194.963 318.446 194.314 330.082 194.514 341.623C194.587 345.786 195.123 352.734 192.26 356.038C188.885 359.891 181.696 360.173 176.893 360.543C171.571 361.122 151.511 358.537 151.263 351.916C150.897 342.158 152.138 332.584 151.354 322.155C150.469 310.398 150.451 298.677 150.318 286.975C150.066 264.69 150.441 242.414 150.426 220.128C150.493 207.178 150.43 194.228 150.234 181.279C150.036 171.164 149.085 161.757 149.908 151.482C150.551 143.459 150.126 134.668 150.379 126.512C150.778 113.614 150.029 100.23 150.42 87.372C150.835 73.7756 148.209 35.8844 166.716 33.6488Z" fill="#5F913C"/>
<path d="M172.711 76.1379C176.928 78.9487 175.451 80.0548 181.735 80.5775L181.743 80.7922C181.876 85.9647 181.086 89.5721 180.986 94.5621C180.774 100.701 181.873 106.996 181.985 113.059C182.133 121.128 181.968 128.763 182.822 136.826C183.662 144.762 182.866 153.213 183.274 161.207C183.58 167.213 184.16 173.229 184.272 179.245C184.314 186.346 183.939 193.312 184.293 200.414L187.831 285.063C188.037 289.757 188.793 294.409 189.168 299.077C190.456 315.112 189.897 331.397 189.482 347.451C189.199 358.419 163.977 358.675 159.262 353.034C154.81 347.042 156.125 337.665 155.895 330.421L154.779 291.822L153.707 232.886C153.261 211.045 152.67 189.515 153.656 167.648C153.901 162.208 152.518 155.997 152.774 150.711C153.253 140.837 153.821 131.087 153.811 121.186C153.771 116.598 153.569 112.013 153.206 107.439C152.889 103.606 152.381 99.4386 152.445 95.6326C161.557 96.6166 162.24 90.0105 164.863 89.8722C167.229 93.8907 168.882 95.6405 173.577 95.6326C178.09 95.625 180.984 91.1115 180.911 88.8548C180.852 87.0164 176.038 91.1115 173.577 91.1115C166.807 91.1115 168.196 84.6191 167.549 81.4901C171.646 79.4661 170.377 80.0271 172.493 76.4933L172.711 76.1379Z" fill="#A4CA81"/>
<path d="M163.213 120.521C166.803 121.742 169.191 131.204 170.796 134.472C171.932 136.784 173.323 139.503 174.389 141.83C171.429 144.894 164.393 148.905 160.052 148.833C157.76 146.956 162.146 126.642 162.105 122.774C162.099 122.211 162.86 121.025 163.213 120.521Z" fill="#5F913C"/>
<path d="M164.355 128.859C165.607 130.207 167.841 137.262 169.132 139.864L166.318 141.57L162.646 143.242C163.784 137.574 163.971 134.67 164.355 128.859Z" fill="#A4CA81"/>
<path d="M171.093 185.724C172.834 186.191 174.057 189.353 174.372 190.859C175.051 194.104 176.476 210.614 175.316 212.613C173.616 213.407 170.595 212.535 168.611 212.158C166.411 211.295 163.504 210.265 162.561 207.958C162.651 205.292 165.173 200.236 166.333 197.611C167.69 194.538 169.244 188.292 171.093 185.724Z" fill="#5F913C"/>
<path d="M171.16 193.35L171.685 193.771C172.032 195.714 171.901 205.371 171.925 208.068C170.47 207.683 167.823 207.541 166.729 206.391C167.096 202.123 170.186 197.64 171.16 193.35Z" fill="#A4CA81"/>
<path d="M178.924 306.936C183.604 306.471 182.888 310.426 183.38 314.082C183.911 318.028 184.362 322.438 184.204 326.39C181.338 329.098 180.339 328.897 176.792 327.783C174.678 327.14 169.368 326.291 170.086 323.473C171.407 318.282 174.582 310.231 178.924 306.936Z" fill="#5F913C"/>
<path d="M178.215 313.34C178.534 313.831 179.676 322.962 179.884 324.364C177.872 323.914 175.905 323.251 173.893 322.779C175.2 319.476 176.411 316.432 178.215 313.34Z" fill="#A4CA81"/>
<path d="M160.6 242.782C161.566 242.812 162.691 242.879 163.062 243.94C164.083 246.859 169.822 260.772 169.149 262.851C167.653 264.792 157.432 268.585 155.227 267.226C155.297 266.25 156.023 262.822 156.369 262.01C158.023 258.134 158.642 245.663 160.6 242.782Z" fill="#5F913C"/>
<path d="M162.057 254.879C163.365 255.981 163.736 258.557 163.805 260.176C163.331 261.317 162.153 261.422 161.039 261.587C161.114 260.309 161.794 256.174 162.057 254.879Z" fill="#A4CA81"/>
<path d="M172.923 39.3319C175.613 41.3162 179.044 48.4323 179.023 51.8891C179.004 54.8993 177.901 60.1843 175.676 62.4346C174.55 63.5734 174.025 63.5953 172.454 63.5923C169.623 63.5869 168.826 63.4069 167.655 60.948C166.188 57.8666 164.196 54.4797 166.133 51.6611C171.104 44.4264 170.558 46.4759 172.807 39.6761C172.852 39.5414 172.809 39.2477 172.923 39.3319Z" fill="#A4CA81"/>
<path d="M162.382 58.5936C162.806 59.0619 162.716 58.9098 162.866 59.478C164.114 64.1923 165.782 65.1667 169.705 67.3563C169.902 68.7208 169.653 70.7166 169.283 72.0478C168.431 75.1162 168.352 79.0745 164.202 77.8607C160.944 76.409 154.138 68.9014 156.28 65.1484C159.617 63.5382 160.633 61.8081 162.382 58.5936Z" fill="#A4CA81"/>
<path d="M153.769 72.357C154.885 73.0459 155.892 76.6925 157.535 78.2122C159.704 80.2181 160.716 80.6432 163.386 81.8168C162.632 86.0713 162.527 87.0395 159.393 90.2748C157.778 91.7296 155.309 93.6399 153.119 92.4376C152.141 89.8847 154.025 80.1747 153.652 76.8183C153.55 75.9049 153.585 73.2273 153.769 72.357Z" fill="#A4CA81"/>
<path d="M180.552 62.3054C180.886 62.8685 180.962 75.3128 181.098 77.2395C179.84 76.5749 178.433 75.9997 177.647 74.884C176.732 73.6386 174.448 70.2258 174.382 68.6325C174.31 66.8646 176.913 65.8725 178.106 64.7317C178.927 63.9463 179.723 63.1759 180.552 62.3054Z" fill="#A4CA81"/>
<path d="M158.399 46.3865C158.769 46.6328 161.563 50.7452 162.129 51.4972C161.078 53.871 158.454 59.1324 156.886 60.9945L155.043 62.8524C155.508 58.5225 155.764 49.8884 158.399 46.3865Z" fill="#A4CA81"/>
<path d="M167.076 37.6647C169.867 37.1733 168.51 41.2239 168.115 42.8764C167.602 45.0226 166.856 46.9944 164.839 48.1149C163.089 46.9465 162.69 45.7811 162.723 43.7188C162.793 39.3096 162.47 37.7431 167.076 37.6647Z" fill="#A4CA81"/>
<path d="M228.113 44.8956C237.986 44.3848 240.375 52.1608 242.483 59.8359C247.355 77.5711 246.185 98.4977 247.428 116.422C248.563 131.594 247.602 146.669 247.355 161.85C247.044 180.651 248.274 199.808 249.631 218.543L251.899 254.444C253.239 279.409 255.969 305.046 256.263 329.955C256.464 348.684 267.485 365.694 240.646 366.148C230.164 366.3 220.477 365.355 211.582 359.217C210.756 355.203 211.255 345.564 211.244 340.963C211.143 317.686 210.446 294.426 210.276 271.158C210.07 241.082 210.868 211.143 212.454 181.157C213.663 158.284 215.457 135.103 214.008 112.225C213.783 108.653 214.855 104.251 214.505 100.589C213.689 92.0709 212.098 83.5152 212.564 74.9305C212.95 68.1222 214.564 61.566 217.388 55.3202C219.109 51.5108 224.212 46.2153 228.113 44.8956Z" fill="#FFDEAA"/>
<path d="M226.467 94.711C227.711 95.9858 226.05 97.7102 231.176 101.603C235.949 102.314 237.968 102.145 242.674 101.782C243.038 110.659 244.301 119.408 244.327 128.439C244.349 134.869 245.371 139.196 244.533 146.008C241.066 149.529 233.861 163.884 231.658 169.135C235.734 171.101 238.507 172.396 242.956 173.551C243.279 189.624 244.54 205.523 245.421 221.593C245.723 227.115 246.925 233.029 246.301 238.558C245.664 244.196 236.753 260.244 237.777 263.877C238.451 266.264 246.138 270.924 248.412 272.371C247.486 286.321 250.029 296.924 250.479 309.393C250.9 321.055 251.362 332.226 253.574 343.736C254.304 347.544 254.798 354.292 253.729 357.917C251.926 364.029 224.973 363.209 219.336 358.698C212.14 352.943 216.422 338.655 215.04 330.991C215.088 330.94 215.138 330.889 215.189 330.838L215.446 330.593C218.848 327.292 223.711 324.658 228.151 320.435C224.639 312.066 219.336 301.554 214.309 293.407C213.519 289.74 213.621 283.658 213.494 279.799C213.844 263.695 212.559 247.841 213.745 231.626C218.538 226.717 222.106 228.618 226.253 221.342C224.464 215.424 218.744 196.213 214.811 192.279C214.515 175.747 216.93 159.932 217.048 142.96C220.459 141.826 222.851 138.977 227.474 137.679C226.941 132.545 221.316 117.451 218.188 113.384C218.143 109.342 218.244 104.739 217.404 100.818C222.033 98.9258 223.237 98.5145 226.467 94.711Z" fill="#FFF6E8"/>
<path d="M233.223 82.7922C233.621 83.0853 233.525 82.9522 233.737 83.3006C236.256 87.3997 237.584 87.2175 242.039 87.1845C242.061 90.0641 243.508 95.7971 241.864 97.8767C237.895 97.8818 232.655 99.3642 231.485 95.8123C231.102 94.6546 229.164 87.4829 229.959 86.4973C231.144 85.0318 232.455 84.7485 233.223 82.7922Z" fill="#FFF6E8"/>
<path d="M214.205 300.674C216.335 303.354 221.799 316.587 223.029 320.147C220.554 322.161 217.735 323.736 215.034 325.416C216.501 317.356 212.526 308.535 214.205 300.674Z" fill="#FFF6E8"/>
<path d="M222.561 52.8792L223.046 53.2524C223.926 57.9735 224.062 57.7529 227.453 61.0272C227.296 63.2244 225.01 71.6346 221.867 71.1891C220.502 69.9296 218.753 68.661 218.397 66.8528C217.681 63.2129 220.756 55.833 222.561 52.8792Z" fill="#FFF6E8"/>
<path d="M214.784 200.967C216.234 201.96 220.635 218.433 221.902 221.541C219.588 223.138 217.471 224.5 214.767 225.389C214.81 220.451 214.781 215.513 214.686 210.576C214.649 207.753 214.494 203.701 214.784 200.967Z" fill="#FFF6E8"/>
<path d="M236.832 57.7707L237.36 58.0726C238.835 60.977 240.107 67.8587 240.909 71.3936L235.712 71.3468C231.015 69.9476 231.563 65.5213 231.492 61.5691C234.133 60.6283 235.047 59.7911 236.832 57.7707Z" fill="#FFF6E8"/>
<path d="M219.957 82.5736C221.842 83.1201 223.869 86.2866 225.787 87.4169L225.257 89.0203C224.244 92.1637 222.786 93.6498 220.391 95.8371C219.546 96.4779 218.765 97.2691 217.638 97.0809C215.455 94.4565 216.875 88.4657 216.143 85.2199C217.886 84.3172 218.512 83.8574 219.957 82.5736Z" fill="#FFF6E8"/>
<path d="M227.887 70.0526C228.471 70.2884 231.551 73.4374 232.248 74.0941C231.286 76.4276 229.509 82.1344 228.149 83.6504L227.179 83.7824C223.591 82.5919 223.706 77.2691 223.757 74.1751C226.056 72.9686 226.727 72.3592 227.887 70.0526Z" fill="#FFF6E8"/>
<path d="M230.546 48.6413C234.434 48.2018 234.668 49.7116 235.861 52.9288C234.538 54.5331 233.441 56.0832 232.233 57.7747C226.165 58.8743 227.009 53.17 227.077 48.8802L230.546 48.6413Z" fill="#FFF6E8"/>
<path d="M247.001 251.265C247.602 252.114 248.358 265.288 248.386 267.229C246.08 265.645 243.713 264.193 241.309 262.766C243.692 257.906 244.922 257.262 247.001 251.265Z" fill="#FFF6E8"/>
<path d="M243.623 156.734C244.534 157.951 243.803 167.7 243.721 169.903C241.843 169.205 238.654 168.752 237.377 167.055C237.772 165.224 242.297 158.875 243.623 156.734Z" fill="#FFF6E8"/>
<path d="M234.891 74.759L240.908 74.7824C241.644 78.1411 241.841 80.408 241.841 83.8481C236.707 83.9378 235.5 79.0866 234.891 74.759Z" fill="#FFF6E8"/>
<path d="M218.436 123.471C219.596 124.867 221.232 132.652 222.784 135.337C220.985 136.83 218.963 137.979 216.967 139.181C217.224 136.294 217.494 125.237 218.436 123.471Z" fill="#FFF6E8"/>
<path d="M217.051 72.0103C217.708 72.2718 219.026 73.4064 219.773 73.8891C219.607 75.3231 219.121 81.7049 216.447 81.1823C215.785 79.424 216.879 74.4823 217.051 72.0103Z" fill="#FFF6E8"/>
<path d="M113.802 46.5902C113.903 46.5848 114.005 46.5795 114.107 46.5744C125.376 47.0506 124.977 59.4131 126.038 66.7842C128.078 80.9552 126.637 94.1798 126.817 108.15C126.853 112.142 126.966 116.133 127.157 120.121C128.173 139.309 125.445 157.664 124.809 176.729C124.105 197.777 124.543 219.094 124.816 240.153C124.872 244.43 125.622 249.101 125.782 253.527L126.925 296.352C127.376 314.409 129.153 332.285 132.838 349.967C135.593 363.192 119.315 364.885 108.911 364.086C94.6925 362.159 87.9093 358.209 86.4254 343.905C84.8448 328.663 86.9828 313.509 87.4305 298.318C87.7504 287.475 86.8026 276.033 87.5363 265.189C88.659 248.594 89.6779 232.059 90.3488 215.438C90.7601 205.636 91.7248 195.93 92.0261 186.084L93.038 144.79C93.2981 137.054 94.1018 129.855 94.0798 121.944C94.0817 107.861 93.0526 93.7544 94.2231 79.6757C95.1777 68.1916 101.261 49.6337 113.802 46.5902Z" fill="#FFDEAA"/>
<path d="M107.96 89.3033L108.494 89.5219C110.804 94.9855 116.564 96.6233 122.004 96.2696C122.075 103.97 122.357 111.562 122.131 119.27C118.079 123.004 113.069 135.036 111.493 140.384C114.416 143.407 116.952 143.994 121.053 148.541C121.335 155.175 121.363 163.744 121.029 170.411C120.327 184.432 120.545 198.465 119.658 212.471C119.513 214.753 116.644 217.278 115.952 220.246C114.973 224.454 110.008 234.126 110.567 238.055C112.35 240.887 117.033 240.697 119.887 241.58C120.739 251.288 120.401 258.938 120.657 268.532C120.989 280.97 122.446 292.677 122.149 305.258C119.51 309.247 112.928 323.724 111.056 328.223C115.042 332.824 119.749 335.614 125.246 338.288C125.698 342.455 126.751 347.253 127.793 351.555C125.154 358.062 117.776 359.481 111.355 359.508C102.393 359.539 92.8841 355.908 91.1918 346.117C90.5667 343.245 91.5966 339.803 91.3126 336.954C90.18 325.589 90.2776 314.152 90.7791 302.753C90.9791 298.211 91.4234 293.619 91.5253 289.083C95.7801 288.722 99.2846 284.857 102.665 281.963C101.93 278.848 98.9932 270.29 97.6191 267.548C93.4506 259.231 93.5386 257.903 93.9169 248.69C94.2512 240.543 94.305 231.679 94.9981 223.449C95.4918 217.585 94.3939 208.375 96.0202 202.787C98.5661 200.843 101.007 199.027 103.379 196.856C106.556 194.211 104.631 192.086 104.087 189.128C103.03 183.377 97.2698 173.899 96.5073 168.847C94.6693 156.668 97.3471 142.831 97.445 130.464C97.4386 118.65 98.6085 106.915 98.4877 95.1189C98.9415 95.1144 99.3954 95.0944 99.8482 95.0585C103.236 94.7711 105.879 91.6957 107.96 89.3033Z" fill="#FFF6E8"/>
<path d="M113.043 60.5082C115.147 61.9116 114.988 62.7435 118.228 64.4163C117.253 70.8917 114.724 80.2264 107.35 78.0161C101.527 76.2708 103.194 69.9378 101.809 64.5678C107.595 66.1608 109.51 65.2172 113.043 60.5082Z" fill="#FFF6E8"/>
<path d="M121.667 67.5563C122.626 69.3755 122.202 88.1498 122.187 91.6128C118.346 92.8731 115.826 92.4569 112.541 89.6832C110.781 87.4832 110.52 84.768 109.51 81.9138C115.017 82.2853 116.95 80.1061 119.064 75.3159C120.243 72.6428 121.013 70.4167 121.667 67.5563Z" fill="#FFF6E8"/>
<path d="M122.381 313.038C123.086 314.034 124.226 330.367 124.588 333.137C123.259 332.254 121.761 331.484 120.354 330.714C117.049 328.999 115.337 328.322 117.224 324.387C118.905 320.883 120.299 316.288 122.381 313.038Z" fill="#FFF6E8"/>
<path d="M99.9711 74.0637C102.49 77.0066 102.598 79.5176 106.907 80.9947C105.241 83.8631 105.046 86.7413 102.679 89.211C101.772 90.0195 99.5229 91.4748 98.4238 92.2249C98.4656 87.2256 98.6241 83.1697 99.4515 78.2175C99.7124 76.6555 99.5062 75.8203 99.9711 74.0637Z" fill="#FFF6E8"/>
<path d="M92.9337 266.371C94.4599 267.093 96.6991 277.074 97.7827 279.774C95.7009 281.556 93.6415 283.328 91.666 285.226C92.0502 278.939 92.4725 272.653 92.9337 266.371Z" fill="#FFF6E8"/>
<path d="M95.4609 180.105C96.9507 181.131 99.4263 191.108 100.074 193.543C98.9401 194.631 97.8832 195.96 96.4663 196.674C95.8531 195.325 95.6229 182.554 95.4609 180.105Z" fill="#FFF6E8"/>
<path d="M119.486 223.054C120.357 223.972 119.732 235.153 119.765 237.297C118.29 236.937 116.709 236.724 115.331 236.075C115.251 235.606 119.048 224.337 119.486 223.054Z" fill="#FFF6E8"/>
<path d="M116.782 51.4532C119.426 52.7455 123.052 58.3636 121.084 61.1466C119.778 60.5745 119.615 60.8636 118.408 60.7429C115.255 60.4275 116.406 53.4725 116.782 51.4532Z" fill="#FFF6E8"/>
<path d="M121.84 127.504C121.002 131.933 121.275 136.922 120.82 141.45C119.564 141.486 117.683 140.162 117.207 139.004C117.625 137.081 120.59 128.931 121.84 127.504Z" fill="#FFF6E8"/>
<path d="M110.743 53.1681L111.248 53.3272L111.488 53.8448C111.028 57.2466 108.374 60.1846 105.747 62.1864C105.541 62.203 105.375 62.1009 105.148 62.016C104.869 59.7987 109.062 54.6747 110.743 53.1681Z" fill="#FFF6E8"/>
<path d="M284.349 53.3311C294.746 52.6988 300.195 64.0369 301.807 72.9454C304.58 88.2527 301.855 104.482 303.088 120.025C305.318 148.309 307.886 176.863 312.047 204.936C314.655 222.924 314.416 241.412 314.403 259.553C314.496 273.57 314.38 287.59 314.059 301.605C313.63 314.859 312.849 327.922 313.122 341.248C313.458 357.175 316.16 357.925 298.764 359.406C295.067 359.945 275.628 362.155 274.633 356.199C272.87 345.592 273.209 334.751 273.352 324.04C273.44 312.64 273.778 301.244 274.371 289.861C275.917 263.663 277.561 238.731 275.561 212.415C273.465 184.881 275.034 156.977 274.912 129.397C274.842 114.055 271.968 98.8994 272.34 83.4289C272.525 75.5979 274.759 56.3507 284.349 53.3311Z" fill="#5F913C"/>
<path d="M285.214 96.4216C286.771 98.0789 286.881 99.5357 289.535 100.871C292.548 102.388 295.29 102.073 298.34 101.218C298.052 109.34 298.421 116.852 299.203 124.935C299.62 128.715 299.144 132.894 299.589 136.631C301.866 155.693 304.879 174.652 306.828 193.756C307.257 197.949 307.037 202.465 307.564 206.62C308.433 214.64 310.097 222.934 310.43 231.015C311.152 248.543 310.56 266.278 310.574 283.827C310.577 288.121 309.654 292.787 309.654 297.089C309.646 309.642 309.291 322.099 308.577 334.632C308.3 339.888 308.478 345.456 308.371 350.754C308.128 351.073 307.874 351.38 307.615 351.682C304.867 354.805 300.735 355.248 296.836 355.516C295.764 355.674 294.215 355.708 293.098 355.716C288.523 355.857 278.672 356.644 278.181 349.99C277.338 338.599 278.119 326.531 277.972 315.047C278.099 312.118 278.497 309.171 278.706 306.251C279.795 291.069 280.401 275.878 281.276 260.687C281.47 257.257 280.757 252.96 280.666 249.412C280.449 240.76 279.989 232.245 278.537 223.698C277.992 220.525 278.082 216.936 277.764 213.71C277.357 210.213 277.132 206.694 276.819 203.194C276.119 195.394 277.614 187.621 277.696 179.954C277.862 164.338 277.642 148.803 278.235 133.183C278.345 123.236 276.926 113.363 276.652 103.46C276.587 101.127 276.7 101.222 278.884 100.889C281.315 100.52 283.437 98.104 285.214 96.4216Z" fill="#A4CA81"/>
<path d="M286.144 292.708C286.861 292.891 302.24 304.843 302.847 305.842C303.07 306.209 303.095 306.121 302.951 306.516C301.165 311.381 290.226 313.017 286.091 312.812C284.356 306.92 285.597 301.249 284.184 294.959C284.437 294.022 285.383 293.382 286.144 292.708Z" fill="#5F913C"/>
<path d="M289.081 300.245C289.862 300.665 296.359 305.783 297.482 306.637C294.645 307.445 292.032 308.677 289.332 309.87C289.126 307.379 289.05 302.767 289.081 300.245Z" fill="#A4CA81"/>
<path d="M296.209 229.748C297.69 230.289 299.338 232.26 300.503 233.468C300.492 237.637 300.7 241.529 301.177 245.657C301.389 247.493 301.803 251.386 300.554 252.87C298.387 253.821 295.408 252.924 293.211 252.221C288.748 250.698 285.309 250.608 288.452 245.169C291.118 240.559 292.638 233.704 296.209 229.748Z" fill="#5F913C"/>
<path d="M295.367 238.226C297.252 239.216 296.797 247.546 297.042 249.615C295.137 249.111 293.244 248.403 291.4 247.711C293.285 244.431 294.337 241.84 295.367 238.226Z" fill="#A4CA81"/>
<path d="M288.668 175.033L289.614 175.223C291.45 176.686 299.713 187.95 299.332 191.03C299.193 192.162 294.313 193.877 292.835 194.388C289.69 195.367 283.001 199.257 283.636 191.983C284.079 186.915 285.024 178.605 288.668 175.033Z" fill="#5F913C"/>
<path d="M288.999 182.313C290.474 183.013 294.034 187.995 294.091 189.775C292.907 191.415 289.581 191.656 287.777 192.442C287.913 188.997 287.8 185.521 288.999 182.313Z" fill="#A4CA81"/>
<path d="M285.363 119.69C285.995 119.798 286.523 120.114 287.005 120.527C288.02 121.396 293.657 136.963 293.691 139.008C293.702 139.8 293.55 140.386 292.929 140.914C290.132 143.303 282.345 140.229 280.136 138.346C279.645 133.426 282.358 122.758 285.363 119.69Z" fill="#5F913C"/>
<path d="M284.967 128.757C285.697 129.237 289.285 137.128 289.105 138.055C287.139 136.952 286.487 136.885 284.326 136.636C284.814 133.878 284.467 131.305 284.967 128.757Z" fill="#A4CA81"/>
<path d="M286.339 58.0692C293.437 57.8669 297.268 74.4572 289.595 74.8561C284.366 72.3636 283.423 67.7786 281.287 62.9297C282.785 59.9976 283.496 59.423 286.339 58.0692Z" fill="#A4CA81"/>
<path d="M290.99 85.6642C293.978 86.9407 295.964 88.3467 299.369 89.5794C299.541 94.3449 300.285 95.7175 295.512 97.7038C288.017 99.7394 287.899 94.7686 287.727 88.9258C289.944 88.0406 290 87.7639 290.99 85.6642Z" fill="#A4CA81"/>
<path d="M279.429 68.1366C280.28 68.762 280.839 70.8723 281.663 72.0204C283.702 74.8606 286.295 76.5368 289.209 78.3151C288.456 80.7235 288.277 83.9683 285.999 85.4803C282.754 85.7503 280.588 82.7894 279.146 80.2613C276.856 76.2406 278.125 72.2402 279.429 68.1366Z" fill="#A4CA81"/>
<path d="M276.819 83.5934C277.107 83.7124 282.783 88.2674 283.629 88.8993C283.945 89.9605 283.674 90.9321 283.508 92.0565C282.486 93.4618 278.75 98.5241 276.729 97.6019C276.021 95.3342 276.695 86.4967 276.819 83.5934Z" fill="#A4CA81"/>
<path d="M296.875 74.1164C297.662 74.8972 298.181 76.7396 298.305 77.8276C298.497 79.4855 300.193 84.2078 298.599 85.2538C297.389 85.3432 296.579 85.023 295.405 84.7026C289.713 79.874 294.427 77.7834 296.875 74.1164Z" fill="#A4CA81"/>
</svg>
