<svg width="400" height="400" viewBox="0 0 400 400" fill="none" xmlns="http://www.w3.org/2000/svg">
<path d="M316.785 34.0637C320.202 34.0633 322.256 34.5761 325.424 34.3527C313.896 50.0423 306.127 68.5832 300.073 87.032C302.467 101.345 304.158 115.759 317.899 124.975C315.955 126.109 313.381 127.59 311.307 128.465C301.024 120.443 298.948 113.168 295.492 101.345C288.674 134.988 288.674 148.719 286.647 179.467C297.77 187.642 304.817 195.946 311.177 208.212C308.817 209.374 306.263 211.229 304.288 212.968L304.125 212.833C300.162 204.236 293.043 194.173 286.225 187.621C286.499 210.621 286.048 233.703 285.238 256.689C284.871 267.043 293.574 273.831 297.201 282.591C296.856 282.995 292.644 284.35 290.405 286.293C287.519 282.842 284.905 277.047 282.548 273.091C282.277 281.872 275.215 296.269 271.2 304.178C270.944 304.166 264.784 301.697 264.001 301.427C268.27 288.832 272.579 277.283 275.915 264.233L276.013 263.856C279.975 245.877 276.187 227.269 277.191 209.018C273.252 213.252 271.681 215.781 268.89 220.71C267.964 220.419 263.284 216.941 261.301 216.074C264.535 211.345 270.242 203.113 277.25 200.338C276.804 194.143 277.504 187.421 277.738 181.197C278.149 170.333 279.341 159.543 280.334 148.719C280.903 142.526 281.361 136.364 282.119 130.188C267.311 135.804 260.624 148.31 254.281 161.736L254.077 161.717C251.939 160.002 249.692 158.736 247.271 157.487C249.187 142.828 268.022 123.301 283.159 124.662C284.701 108.364 291.223 85.7337 297.544 70.8013C265.52 94.1 226.603 107.401 200.546 96.122C200.161 95.1498 199.237 89.0831 199.541 87.9764C259.609 103.46 306.194 49.7642 316.785 34.0637Z" fill="#D0D570"/>
<path d="M110.098 52.0776C97.085 32.2115 132.789 43.0981 140.419 51.179C139.426 26.0081 186.699 62.5723 196.213 79.307C200.512 86.8689 204.458 108.012 196.463 114.686C194.383 116.423 193.595 115.819 191.255 115.692C191.302 117.498 192.201 118.961 192.587 120.999C194.092 128.942 193.912 153.807 179.538 145.846C179.47 145.808 178.778 145.291 178.576 145.167C180.788 152.722 173.151 192.967 156.605 172.449C155.305 175.436 153.328 178.699 151.174 181.013C147.572 184.883 142.358 191.942 136.983 186.489C131.24 180.663 122.945 169.895 122.65 161.536C116.649 170.065 100.175 182.463 89.3952 176.501C87.0998 175.232 88.2099 172.213 88.034 170.421C82.542 175.028 50.1935 179.983 52.6835 166.286C41.987 163.451 21.4202 152.725 41.6223 145.906C33.6931 139.741 45.6024 132.917 51.4036 131.373C48.9142 115.74 64.0356 105.923 75.1309 100.714C48.6513 87.3102 45.4734 70.7967 75.0805 61.3072C53.7673 49.2161 87.6816 42.5431 110.098 52.0776Z" fill="#80B44E"/>
<path d="M92.6034 70.5579C112.465 68.6491 129.781 79.6444 149.241 80.3501C159.15 80.7095 170.286 80.9196 179.626 84.1605C183.28 85.4283 187.724 89.0964 182.955 91.013C174.655 88.4346 165.329 83.17 157.085 86.7286C137.726 95.0853 140.696 124.901 143.358 138.56C144.897 146.457 145.403 160.557 140.788 167.726C140.425 168.29 140.371 168.212 139.913 168.267C139.142 166.785 139.716 150.477 139.183 147.053C136.938 132.619 132.57 118.2 137.726 103.768C139.794 97.978 141.396 93.4978 145.704 89.0666C133.908 94.144 123.054 100.327 113.822 109.227C98.2245 124.257 87.9149 147.114 66.5935 155.089C64.5299 155.861 56.2267 157.624 56.5689 153.495C57.659 151.933 61.1279 151.868 63.0385 151.262C77.666 146.617 87.8592 132.516 96.7282 120.887C108.917 105.876 122.719 90.2033 142.143 84.6396C136.478 83.484 131.02 81.5094 125.381 80.3299C116.361 78.4417 107.198 76.1406 97.9225 76.3699C87.6813 74.395 75.3657 80.3299 72.4248 77.683C72.3711 73.5019 89.1004 70.8419 92.6034 70.5579Z" fill="#D0D570"/>
<path d="M247.51 278.101C258.444 277.125 268.131 272.256 275.353 264.083C289.307 248.135 277.836 219.227 257 214.311C263.786 207.931 268.296 199.763 268.69 190.338C269.954 160.112 242.985 155.274 241.135 154.857C224.716 151.157 206.936 157.527 200.112 173.786C191.496 194.313 204.256 212.17 222.09 221.444C209.793 234.981 210.239 256.341 223.004 269.938C228.041 275.303 240.354 278.278 247.51 278.101Z" fill="#422428"/>
<path d="M223.318 191.452C231.728 191.951 234.534 203.406 224.372 207.289C222.984 207.461 221.753 207.399 220.36 207.376C213.818 203.256 214.591 192.805 223.318 191.452Z" fill="#C79D7E"/>
<path d="M231.534 257.886C238.517 257.768 245.844 265.3 236.837 270.024C231.232 272.522 227.787 267.262 228.785 261.319C229.061 259.664 230.218 258.782 231.534 257.886Z" fill="#C79D7E"/>
<path d="M297.201 282.591C298.76 282.236 300.442 281.746 301.994 281.542C310.499 280.436 319.127 282.278 326.438 286.764C338.817 294.505 341.121 307.905 337.379 321.026C336.308 324.782 335.881 326.654 333.67 330.031C332.652 331.575 331.492 333.021 330.204 334.349C329.041 335.536 325.423 338.704 324.788 339.95C324.088 342.576 323.566 345.482 321.016 346.997C318.172 348.689 314.654 345.965 312.923 343.783C303.876 346.031 294.198 343.581 287.528 336.952C285.648 346.049 282.848 353.529 274.759 358.864C266.929 364.027 260.128 366.261 250.716 364.175C249.096 363.815 245.987 363.027 244.652 362.153C239.317 364.441 234.603 364.894 233.928 357.736C233.566 354.399 230.969 353.524 229.435 350.817C225.696 343.94 222.651 334.024 224.824 326.191C229.918 307.841 245.231 297.03 264 301.427C264.783 301.698 270.944 304.166 271.2 304.178C271.729 305.008 275.71 307.112 277.2 308.419C277.661 301.698 280.762 294.976 285.599 290.278C287.124 288.798 289.119 288.106 290.405 286.293C292.644 284.35 296.856 282.995 297.201 282.591Z" fill="#422428"/>
<path d="M312.922 343.782C311.14 340.722 312.206 337.691 315.403 336.12C320.307 333.709 324.006 335.55 324.787 339.95C325.262 342.625 323.565 345.481 321.016 346.997C318.171 348.688 314.324 346.19 312.922 343.782Z" fill="#C79D7E"/>
<path d="M233.926 357.736C234.113 351.32 244.438 353.06 246.443 359.551C246.638 360.183 245.18 361.953 244.65 362.152C239.315 364.441 234.601 364.894 233.926 357.736Z" fill="#C79D7E"/>
<path d="M333.517 123.481C373.997 132.007 375.181 170.488 347.539 186.025C338.426 191.148 323.647 189.67 318.228 187.699C300.612 181.293 292.888 165.154 298.299 146.437C302.447 132.093 317.908 120.193 333.517 123.481Z" fill="#422428"/>
<path d="M347.541 186.025C343.43 178.885 351.007 172.827 357.049 178.831C358.5 182.35 359.017 184.702 354.49 186.512C352.371 187.358 349.438 187.543 347.541 186.025Z" fill="#C79D7E"/>
<path d="M336.188 207.213C361.652 217.513 361.019 258.765 335.457 268.265C315.638 275.633 298.409 264.369 291.763 245.186C288.46 235.654 291.643 227.237 297.288 219.197C306.077 206.748 322.322 201.603 336.188 207.213Z" fill="#422428"/>
<path d="M334.078 248.836C343.726 248.573 345.943 259.206 337.147 261.768C328.041 261.608 326.942 257.058 331.174 250.014C332.42 249.354 332.743 249.243 334.078 248.836Z" fill="#C79D7E"/>
</svg>
