<svg width="400" height="400" viewBox="0 0 400 400" fill="none" xmlns="http://www.w3.org/2000/svg">
<path d="M266.579 33.3885C270.011 33.4532 272.476 33.5094 275.908 33.0976C271.275 39.9671 268.024 43.7643 261.634 53.7192C271.641 77.7659 281.438 101.881 291.292 132.165C294.209 129.1 297.563 125.617 299.833 122.046C302.274 118.205 302.814 113.595 306.171 110.349C311.56 115.766 311.731 125.343 309.709 132.268C312.098 131.186 314.063 130.187 316.305 128.796C317.584 128.002 321.377 125.233 322.685 125.349C323.592 125.769 323.949 126.338 324.239 127.273C325.664 131.895 322.794 136.389 320.686 140.043C325.924 139.909 330.314 139.301 335.404 138.099C336.697 137.794 337.611 140.655 337.378 141.854C336.546 146.134 333.327 150.656 330.294 153.63C299.278 144.498 283.445 144.003 256.582 150.639C254.5 147.916 249.82 138.388 251.847 135.468C252.439 135.238 252.994 135.169 253.554 135.537C259.701 139.579 261.609 141.398 269.278 141.564C266.049 135.421 266.485 126.034 268.024 119.359C268.232 118.45 268.698 117.675 269.31 116.975C271.916 115.942 273.951 124.783 275.608 126.997C278.413 130.747 280.915 131.803 284.298 134.58C272.023 97.9168 265.184 84.372 257.587 59.9794C244.958 79.9602 232.738 100.197 220.937 120.679C201.333 154.818 185.302 183.647 161.55 223.615C171.922 223.615 175.989 221.514 182.802 217.59C183.827 216.997 186.025 215.518 187.149 216.497C192.196 221.748 185.206 232.319 181.429 236.455C150.118 237.662 127.961 213.875 120.387 207.166C119.272 200.676 123.523 192.039 127.961 187.522C128.699 186.77 129.351 186.444 130.379 186.457C132.893 187.535 132.439 194.03 132.602 196.613C132.986 202.693 135.112 205.773 138.667 210.669C141.154 206.871 150.844 195.789 155.734 194.412C160.074 193.19 156.813 204.15 156.793 206.343C156.761 209.767 157.192 214.024 157.339 217.899C159.286 214.621 161.25 210.669 163.148 207.275C188.617 162.549 212.768 116.65 240.741 73.4177C232.045 75.2732 226.928 77.1037 214.092 79.1971C207.623 87.7365 179.028 101.958 168.949 104.921C164.6 106.199 173.23 94.0877 169.444 90.4836C168.077 89.1974 137.253 102.262 137.233 100.452C132.694 100.386 130.241 96.199 143.676 87.5103C135.594 87.4637 122.332 91.6863 115.429 87.5103C112.09 85.4897 118.604 80.7872 122.863 81.0681C126.654 81.318 107.999 75.027 109.483 69.175C113.211 64.9914 125.029 66.8829 131.107 65.7061C129.097 64.777 122.517 55.9668 122.863 53.3174C125.641 48.8944 135.743 52.4628 140.207 53.3174C138.097 52.3102 143.086 50.7398 148.631 48.3619C156.506 44.985 162.448 55.6257 170.435 58.7684C169.401 57.8083 166.107 43.3759 165.975 41.9198C170.435 41.9198 204.133 58.7684 214.516 73.3285C225.937 70.6616 235.67 67.8667 245.848 64.4082C252.953 54.4808 260.13 43.4064 266.579 33.3885Z" fill="#AABD47"/>
<path d="M57.5683 284.404C55.8616 276.282 58.0579 272.571 60.7027 265.289C61.3308 263.559 60.8878 259.221 61.1088 257.055C61.7104 251.158 64.1001 245.437 68.5043 241.359C70.1362 239.82 73.5188 237.654 74.5349 235.63C78.2999 228.132 78.1822 222.892 85.9908 217.921C91.2632 214.567 93.2932 216.338 98.8124 214.616C103.536 210.407 117.907 200.495 130.964 212.287C137.117 210.947 144.164 210.573 149.845 213.87C155.512 217.161 155.559 223.719 159.735 227.669C160.46 228.355 168.653 232.414 169.893 232.805C173.8 234.039 177.626 234.215 181.428 236.455C182.039 236.869 185.513 239.178 185.842 239.57C188.84 240.043 191.711 240.635 194.828 241.051C196.604 241.287 201.095 239.304 202.683 240.764C203.228 241.264 203.331 243.559 202.995 244.228C200.8 249.753 196.678 253.294 191.704 255.861C191.466 255.985 191.225 256.104 190.983 256.22C189.189 261.626 197.898 267.045 200.002 272.474C202.133 277.975 201.879 283.666 199.093 288.986C198.358 290.547 195.799 293.121 195.265 294.632C192.663 302.006 189.674 309.088 183.168 313.932C181.737 314.997 179.04 316.018 177.15 316.707C173.305 318.112 172.924 323 171.296 326.251C168.25 333.35 166.328 337.391 158.704 340.263C156.845 340.964 154.704 341.516 152.912 342.275L152.627 342.398C150.167 345.701 148.422 350.632 145.5 353.719C140.152 359.369 137.122 360.558 129.792 360.987C127.782 362.647 126.196 364.309 123.978 365.214C117.64 367.798 113.407 365.048 107.794 362.815C106.322 362.23 101.734 363.719 98.7209 362.23C95.4533 360.615 93.1834 358.308 89.8348 357.136C86.3548 356.261 82.2211 356.593 78.7957 355.072C76.7535 354.165 74.2648 352.272 72.6863 350.652C70.408 348.31 70.1632 344.542 68.1091 342.079C65.3447 338.764 62.2079 336.804 59.8587 333.023C57.8282 329.755 58.4202 327.886 57.2799 324.72C56.3141 322.728 54.2169 320.926 53.4639 318.84C51.6448 313.798 53.7964 309.496 54.8188 304.67C55.0926 303.376 54.4087 300.438 54.259 298.902C53.7447 293.617 55.5296 289.144 57.5683 284.404Z" fill="#2E191C"/>
<path d="M185.844 239.57C188.842 240.043 191.713 240.635 194.83 241.051C196.606 241.287 201.097 239.304 202.685 240.764C203.23 241.264 203.333 243.559 202.997 244.228C200.802 249.753 196.68 253.294 191.706 255.861C191.467 255.985 191.227 256.104 190.984 256.22C190.923 255.68 191.168 253.665 191.222 252.979C191.712 246.758 189.807 244.067 185.844 239.57Z" fill="#AABD47"/>
<path d="M100.636 232.493C111.081 231.604 113.265 238.028 112.364 246.946C108.232 250.687 106.575 253.12 104.043 258.098C102.481 261.171 102.595 267.063 100.442 268.606C94.462 270.757 90.1812 262.987 89.0293 258.212C87.539 252.038 89.0378 243.606 92.181 238.105C94.2281 234.522 96.8402 233.464 100.636 232.493Z" fill="#685E5E"/>
<path d="M147.62 247.422C161.783 245.469 165.615 274.659 146.319 275.707C139.779 275.304 134.543 273.046 133.372 265.809C132.421 259.929 135.72 254.31 139.668 250.177C141.637 248.113 144.894 247.806 147.62 247.422Z" fill="#685E5E"/>
<path d="M160.394 275.864C161.086 275.738 162.437 275.501 163.103 275.839C170.792 279.737 171.731 287.573 168.572 295.17C165.25 303.161 159.797 302.395 153.196 304.452C151.414 305.007 148.111 303.542 146.483 302.636C140.343 299.216 143.548 285.407 147.626 282.155C152.066 278.613 153.44 277.122 160.394 275.864Z" fill="#685E5E"/>
<path d="M119.56 248.388C120.933 248.351 123.044 249.062 124.274 249.679C127.309 251.198 129.606 253.871 130.651 257.102C131.701 260.333 131.801 265.241 130.098 268.264C127.386 273.076 122.299 274.273 117.428 275.606C102.101 278.376 103.268 258.066 111.837 251.443C114.607 249.305 116.128 248.978 119.56 248.388Z" fill="#685E5E"/>
<path d="M130.13 274.895C134.119 274.895 135.811 276.32 138.92 278.495C144.941 282.705 141.247 291.852 137.301 296.288C134.642 299.276 131.251 300.961 127.053 301.179C122.53 300.525 115.459 296.721 115.16 291.905C114.588 282.665 121.93 276.203 130.13 274.895Z" fill="#685E5E"/>
<path d="M99.7781 274.858C105.396 274.87 110.251 278.121 113.886 282.103C112.607 289.999 110.688 296.647 102.667 300.202C101.178 300.512 100.368 300.292 98.9242 299.957C84.582 296.639 87.2917 283.284 96.4564 276.198C97.3303 275.522 98.6779 275.177 99.7781 274.858Z" fill="#685E5E"/>
<path d="M132.936 227.079C139.514 226.083 145.795 236.326 142.826 242.087C140.936 245.754 136.332 250.157 132.588 251.678C131.642 250.729 131.102 250.167 130.007 249.354C126.124 246.686 122.154 246.004 118.044 244.099C115.709 243.016 116.619 240.348 117.223 238.685C119.746 231.745 125.965 228.251 132.936 227.079Z" fill="#685E5E"/>
<path d="M109.319 299.643C119.871 299.273 127.307 308.775 120.863 318.181C118.333 321.873 117.438 322.75 113.019 323.848C103.181 325.104 96.6251 317.386 100.557 307.936C101.771 305.014 106.256 300.616 109.319 299.643Z" fill="#685E5E"/>
<path d="M180.753 282.095C181.901 281.933 184.823 282.518 185.64 283.25C191.68 288.656 188.854 299.088 184.686 304.675C181.651 308.744 179.059 310.86 174.347 311.355C171.583 311.645 171.787 310.19 168.583 311.015C168.444 311.051 168.347 311.189 168.228 311.11C167.464 310.597 166.162 309.193 166.221 308.193C166.504 303.35 172.057 300.292 173.729 295.064C175.663 289.013 172.631 283.239 180.753 282.095Z" fill="#685E5E"/>
<path d="M140.629 303.173C140.726 303.146 141.31 303.153 141.432 303.151C144.209 304.975 148.707 307.207 149.356 310.594C150.7 317.611 144.016 325.267 137.624 327.017C136.768 326.796 135.898 326.509 135.052 326.246C133.474 325.29 131.969 323.578 130.475 322.388C128.086 320.485 126.221 320.104 124.883 317.232C127.109 308.079 131.161 304.298 140.629 303.173Z" fill="#685E5E"/>
<path d="M84.2163 265.469C87.2659 265.207 89.3333 267.122 91.4667 268.725C96.2876 272.348 93.7658 274.461 90.6765 277.88C89.0558 279.674 87.0952 282.405 86.2129 284.679C85.0129 287.777 85.528 292.891 82.5443 295.029C81.4796 295.445 79.3579 295.971 78.5549 295.185C76.7489 293.421 73.2872 286.493 72.701 284.251C71.7651 280.673 74.8346 273.579 76.6034 270.514C78.4649 267.69 80.8463 266.146 84.2163 265.469Z" fill="#685E5E"/>
<path d="M175.002 252.736C176.261 252.253 178.076 253.716 179.054 254.619C182.755 258.038 184.096 260.987 184.449 265.955C185.05 274.399 181.904 278.413 173.697 277.707C170.251 277.41 166.404 273.322 164.227 270.256C163.044 268.591 163.684 263.343 164.167 261.465C165.341 256.896 168.703 258.594 169.283 258.16C171.341 256.62 171.833 253.954 175.002 252.736Z" fill="#685E5E"/>
<path d="M77.8121 240.65C81.33 240.382 82.311 240.719 84.4126 243.586C84.8621 249.808 84.4607 252.863 84.5789 258.685C82.1197 260.464 79.3488 261.356 76.8822 262.95C75.6728 263.73 74.6951 265.234 73.1946 266.275C72.265 266.639 69.9805 266.508 69.2305 265.925C64.2331 262.04 65.9261 252.536 68.6237 247.922C71.1648 243.576 73.4642 241.931 77.8121 240.65Z" fill="#685E5E"/>
<path d="M84.7879 298.664C89.4565 298.379 95.8062 300.334 96.5344 305.572C97.5349 312.77 94.9898 319.145 87.2384 320.401C85.6222 320.456 84.0334 320.577 82.5592 319.777C72.0778 314.098 73.9158 302.326 84.7879 298.664Z" fill="#685E5E"/>
<path d="M152.345 231.284C170.327 229.887 177.734 249.728 166.216 253.348C164.02 253.014 161.248 252.62 160.554 250.125C158.605 243.118 148.087 245.759 146.395 239.587C144.975 234.401 147.392 232.226 152.345 231.284Z" fill="#685E5E"/>
<path d="M156.754 308.025C160.809 306.952 160.059 308.979 162.51 311.206C171.896 319.737 168.348 329.358 157.743 334.088C154.246 335.648 152.422 336.099 149.4 333.845C147.243 332.236 146.758 330.88 147.167 328.221C147.794 324.144 152.199 321.982 153.59 318.065C154.687 314.977 153.179 308.971 156.754 308.025Z" fill="#685E5E"/>
<path d="M114.927 212.466C116.41 212.287 119.698 212.208 121.166 212.49C126.607 213.531 127.408 217.057 129.978 220.766L129.03 223.861C123.134 224.805 122.529 226.804 118.319 230.811C115.049 233.796 112.68 230.37 109.631 228.737C108.645 228.209 107.692 227.545 106.763 226.918C106.096 225.446 105.302 223.561 105.06 221.97C104.192 216.257 110.258 213.226 114.927 212.466Z" fill="#685E5E"/>
<path d="M139.128 331.189C141.394 330.306 145.334 337.369 145.76 339.72C147.473 349.18 140.718 354.227 132.41 355.397C128.623 355.93 124.639 353.035 125.035 348.675C125.467 343.912 131.323 340.795 134.19 337.663C135.994 335.693 136.446 332.234 139.128 331.189Z" fill="#685E5E"/>
<path d="M122.876 323.335C123.555 323.142 129.509 325.879 129.908 326.152C132.927 328.218 130.18 335.421 128.557 337.384C125.351 341.261 122.246 342.075 117.781 342.621C115.813 342.863 111.798 341.358 111.207 339.718C110.521 337.817 109.034 332.554 109.719 330.637C111.135 326.672 115.944 326.474 119.308 325.126C120.686 324.574 121.499 323.725 122.876 323.335Z" fill="#685E5E"/>
<path d="M96.1079 321.467C100.926 320.486 104.083 324.787 106.447 328.565C107.238 329.83 107.06 331.413 106.468 332.777C104.669 336.925 101.752 338.081 97.6503 339.574C89.8168 342.425 80.0333 324.738 96.1079 321.467Z" fill="#685E5E"/>
<path d="M67.623 315.659C72.362 315.522 72.9633 317.633 76.1782 320.255C77.4475 321.288 79.6703 322.165 81.0831 323.171C82.4367 324.137 83.1872 325.106 84.266 326.36C83.9999 327.552 83.718 328.741 83.4206 329.925C81.8522 331.286 80.0239 332.126 78.1864 333.067C76.4668 334.128 74.6105 335.451 72.4995 335.342C68.9451 335.156 66.6294 331.841 65.4525 328.806C63.6978 324.279 63.4215 318.961 67.623 315.659Z" fill="#685E5E"/>
<path d="M68.4856 288.223C70.0352 287.691 70.5443 288.382 71.4299 289.709C73.0959 292.207 75.6346 294.848 75.5003 297.846C75.3837 300.449 71.6163 305.658 70.0416 307.851C69.4084 308.733 67.1919 308.644 66.0628 308.557C62.9998 308.324 59.1446 302.651 59.285 299.942C59.5989 293.883 62.4278 290.302 68.4856 288.223Z" fill="#685E5E"/>
<path d="M102.719 341.306C106.407 340.976 111.184 342.483 113.375 345.607C113.939 351.985 113.154 354.475 106.94 357.136C105.256 357.515 103.504 357.473 101.839 357.017C97.1378 355.761 95.1021 351.549 96.8249 347.044C98.0593 343.816 99.7387 342.644 102.719 341.306Z" fill="#685E5E"/>
<path d="M92.4679 221.091C96.0723 220.687 98.8875 221.747 100.668 225.243C101.73 227.934 97.9566 228.985 96.4881 230.02C94.2933 231.569 90.4102 234.681 89.395 237.052C88.3242 237.828 87.7 237.902 86.4314 238.244C77.2048 235.419 83.1018 225.337 88.8259 222.394C90.1557 221.71 91.0254 221.45 92.4679 221.091Z" fill="#685E5E"/>
<path d="M82.5387 334.319C83.1413 334.271 83.7526 334.274 84.3579 334.267C86.2704 335.295 86.3411 337.998 87.8696 339.497C89.3867 340.989 91.8488 341.732 93.2081 343.414C93.8395 344.197 93.4011 345.615 93.1975 346.628C91.1231 348.427 89.6969 349.423 87.0158 350.102C82.9096 350.647 78.7711 350.191 76.7968 345.917C75.8575 343.831 75.8329 341.45 76.7291 339.343C77.9115 336.556 79.9371 335.404 82.5387 334.319Z" fill="#685E5E"/>
<path d="M139.442 215.404C145.597 215.052 149.255 218.722 149.915 224.559C150.288 227.855 147.799 228.551 145.248 228.519C144.192 227.634 143.215 226.794 142.079 225.915C139.81 224.133 136.01 222.659 134.838 219.914C133.641 217.109 137.436 215.867 139.442 215.404Z" fill="#685E5E"/>
<path d="M175.352 238.903C177.545 237.502 180.143 238.973 182.441 240.447C186.62 243.128 189.393 248.746 186.334 253.2C186.062 253.596 184.944 253.999 184.53 253.94C181.743 253.543 178.296 249.116 176.224 247.513C176.139 247.448 176.022 247.453 176.007 247.347C175.588 244.342 173.093 240.347 175.352 238.903Z" fill="#685E5E"/>
<path d="M189.291 269.087C191.966 268.429 195.263 271.285 196.572 273.78C198.81 278.049 197.463 281.481 194.306 284.58C193.646 285.228 193.691 285.63 192.8 285.777C191.976 285.913 187.102 281.319 186.675 280.202C185.9 278.177 186.942 269.665 189.291 269.087Z" fill="#685E5E"/>
<path d="M66.67 269.114C73.9031 268.531 69.9538 274.84 69.0179 279.664C68.7261 281.169 69.6189 282.297 68.4302 283.815C67.8009 284.618 67.5811 284.75 66.5448 284.617C65.1062 284.434 63.6239 283.461 62.7608 282.259C59.8198 278.163 62.1887 269.476 66.67 269.114Z" fill="#685E5E"/>
<path d="M119.129 350.853C122.888 350.776 123.151 353.752 124.864 356.621C124.102 359.398 123.743 359.696 121.118 360.791C113.359 361.494 114.846 353.122 119.129 350.853Z" fill="#685E5E"/>
<path d="M60.3233 308.761C62.8278 309.923 63.5733 311.774 64.7015 314.172C63.6264 315.716 62.9378 316.618 61.7041 318.032L61.0706 318.29C56.8601 317.517 57.0804 311.206 60.3233 308.761Z" fill="#685E5E"/>
<path d="M265.494 146.678C275.492 134.588 278.465 137.561 285.562 138.089C290.854 133.16 298.571 129.827 307.465 133.16C315.476 136.162 320.092 142.021 320.86 149.513C330.498 150.941 337.436 156.887 339.225 167.778C348.841 177.083 348.219 183.863 343.236 196.038C346.356 203.964 345.311 209.354 339.938 216.7C342.547 226.532 341.973 231.014 336.358 240.162C336.358 248.068 333.471 249.059 327.339 252.724C320.956 260.373 318.875 262.283 307.973 261.909C304.967 264.986 303.357 268.601 298.847 270.613C291.004 274.112 283.916 268.354 280.941 267.749C279.568 267.625 278.123 268.113 276.768 268.354C266.372 270.214 262.457 266.57 258.373 257.543C252.241 255.318 247.687 252.216 247.179 245.167C246.842 240.501 245.633 237.667 242.959 234.205C241.165 231.881 242.384 224.351 243.16 221.537C242.689 220.746 242.231 219.946 241.785 219.143C238.611 213.375 240.489 206.908 242.194 201.006C238.361 193.57 240.479 189.097 245.276 183.085C242.583 174.26 244.709 171.097 249.949 164.353C250.922 152.092 253.688 147.967 265.494 146.678Z" fill="#2E191C"/>
<path d="M287.69 208.266C295.889 208.484 300.879 211.655 303.736 219.549C306.365 226.809 301.789 232.003 295.265 234.109C290.976 234.542 288 234.436 284.521 231.581C278.656 226.77 276.33 217.82 281.689 211.715C283.513 209.638 284.888 208.509 287.69 208.266Z" fill="#685E5E"/>
<path d="M290.934 180.962C302.946 179.798 312.929 200.399 292.626 206.125C287.881 207.413 280.894 203.811 279.695 198.823C277.326 188.966 281.489 183.302 290.934 180.962Z" fill="#685E5E"/>
<path d="M297.548 154.21C304.332 153.467 309.342 161.137 309.644 167.186C309.81 170.342 308.676 173.428 306.503 175.724C303.891 178.451 301.384 178.942 297.855 178.988C295.15 178.942 292.63 178.854 290.224 177.488C287.86 176.161 286.121 173.95 285.387 171.34C283.167 163.252 290.063 156.09 297.548 154.21Z" fill="#685E5E"/>
<path d="M317.415 173.306C320.79 173.104 322.267 174.596 324.162 177.211C329.477 184.538 326.429 199.611 314.98 196.928C310.435 195.052 308.129 193.002 305.871 188.586C302.061 181.129 310.765 174.579 317.415 173.306Z" fill="#685E5E"/>
<path d="M312.123 198.811C315.249 198.22 319.694 200.484 321.509 202.849C325.616 208.202 324.289 218.688 317.096 220.915C314.906 221.592 314.861 222.673 312.539 221.745C308.886 220.284 307.068 218.008 304.717 214.757C302.821 212.136 300.137 212.232 300.061 208.925C299.914 202.482 305.881 199.99 312.123 198.811Z" fill="#685E5E"/>
<path d="M265.01 180.871C267.947 180.095 269.215 182.948 271.455 184.494C272.799 185.421 274.586 184.679 275.251 186.207C276.359 188.753 275.009 192.764 275.117 195.64C275.185 197.436 276.503 204.138 275.385 205.29C274.098 206.616 272.41 206.242 270.558 206.246C258.933 206.276 257.837 196 259.944 187.03C260.673 183.922 261.538 181.788 265.01 180.871Z" fill="#685E5E"/>
<path d="M301.53 137.127C307.616 136.546 312.787 139.164 315.128 145.233C316.506 148.806 317.833 153.966 313.351 156.185C311.438 157.132 309.169 156.688 307.442 155.62C305.183 154.224 303.586 151.499 300.99 150.952C295.905 149.881 287.63 150.552 292.597 142.596C294.602 139.386 297.8 137.484 301.53 137.127Z" fill="#685E5E"/>
<path d="M276.961 156.771C279.329 156.584 281.553 159.446 281.812 161.459C282.219 164.621 281.428 167.989 282.199 171.125C283.45 176.216 281.38 180.697 276.341 182.033C275.193 182.338 274.271 181.665 273.133 181.377C264.313 179.142 265.144 169.292 267.796 162.615C268.834 160.001 270.331 158.08 272.83 156.952C274.066 156.395 275.604 156.879 276.961 156.771Z" fill="#685E5E"/>
<path d="M264.08 210.156C266.551 209.409 270.637 210.018 272.646 210.654C276.613 211.91 273.491 217.52 274.016 220.461C275.131 226.705 281.85 229.243 273.481 232.818C271.55 233.643 269.736 233.894 267.671 233.593C265.596 233.291 261.352 229.713 260.564 227.803C258.423 222.607 257.916 212.019 264.08 210.156Z" fill="#685E5E"/>
<path d="M309.668 223.474C310.127 223.206 310.756 223.751 311.283 223.794C312.545 223.895 314.111 223.404 315.33 223.784C319.336 225.034 322.234 229.808 320.619 233.868C319.488 236.713 317.418 239.083 314.963 240.875C313.718 241.784 312.315 242.452 310.917 243.1C308.782 244.09 307.619 245.883 305.473 244.929C295.516 240.502 301.005 236.133 305.017 230.1C307.353 226.586 304.876 226.269 309.668 223.474Z" fill="#685E5E"/>
<path d="M288.299 236.247C293.371 235.937 297.89 237.107 299.317 242.54C301.072 249.228 298.693 252.818 291.944 254.015C288.7 254.02 285.487 253.537 282.826 251.743C277.692 248.276 280.291 239.138 285.38 236.975C286.436 236.527 287.211 236.405 288.299 236.247Z" fill="#685E5E"/>
<path d="M321.946 155.194C326.476 154.844 329.072 158.446 331.042 161.959C334.536 168.193 334.96 171.782 327.023 173.4L324.992 172.6C320.943 170.796 318.351 172.113 314.672 170.348C312.045 169.007 312.685 166.422 312.023 163.577C311.017 159.241 319.157 155.809 321.946 155.194Z" fill="#685E5E"/>
<path d="M332.179 194.644C333.77 194.45 334.793 194.595 336.245 195.306C340.886 197.579 341.755 203.402 339.555 207.679C337.647 211.383 334.907 213.033 331.133 214.314C324.448 214.475 326.795 208.291 325.095 205.823C321.698 200.887 321.074 200.842 327.045 196.536C328.717 195.331 329.862 194.952 332.179 194.644Z" fill="#685E5E"/>
<path d="M334.847 172.797C345 172.163 344.614 189.83 334.797 192.756C332.855 192.776 330.429 192.646 329.22 190.869C327.966 189.024 328.412 186.06 328.172 183.893C328.011 182.469 326.754 178.153 327.22 177.095C328.196 174.879 332.731 173.499 334.847 172.797Z" fill="#685E5E"/>
<path d="M328.389 216.361C331.033 215.742 335.047 218.211 336.02 220.736C338.728 227.761 335.234 231.802 329.459 234.272C327.907 234.936 325.721 235.181 324.204 234.024C322.814 232.965 323.705 230.194 323.341 229.289C322.05 226.074 320.446 225.455 321.446 222.049C322.487 218.507 324.827 217.194 328.389 216.361Z" fill="#685E5E"/>
<path d="M280.38 141.073C284.332 140.941 286.938 142.484 288.848 145.889C288.73 152.337 289.508 160.861 280.831 155.118C279.901 154.602 278.786 153.987 277.704 154.074C274.004 154.376 268.115 153.646 271.177 148.458C273.529 144.475 275.811 142.283 280.38 141.073Z" fill="#685E5E"/>
<path d="M258.268 166.135C260.686 165.796 262.159 166.141 263.075 168.174C263.634 169.414 263.064 171.089 263.095 172.435C263.198 176.963 262.164 177.504 258.67 180.284C257.001 181.611 257.707 184.593 256.675 186.471C256.365 187.034 254.916 186.93 254.239 187.047C253.657 187.148 253.12 186.823 252.688 186.448C245.877 180.539 249.06 167.425 258.268 166.135Z" fill="#685E5E"/>
<path d="M316.413 244.406C319.714 244.352 321.728 247.315 322.677 250.12C320.935 255.891 313.668 258.695 308.148 257.699C305.028 256.733 299.914 253.762 301.963 249.344C302.989 247.129 308.341 247.352 310.155 246.629C312.397 245.729 313.846 244.887 316.413 244.406Z" fill="#685E5E"/>
<path d="M251.874 198.583C256.486 198.241 258.22 201.685 259.682 205.461C259.288 207.76 257.053 215.553 255.948 217.451C255.185 218.013 254.345 218.491 253.53 218.982C246.763 219.971 241.978 203.347 251.874 198.583Z" fill="#685E5E"/>
<path d="M272.044 235.224C272.208 235.182 276.346 235.411 276.385 235.422C281.254 236.707 277.369 242.199 276.531 244.991C276.185 246.146 276.28 247.671 275.642 248.747C274.812 250.148 274.08 251.103 272.418 250.566C267.018 248.818 263.666 244.799 264.096 239.49C264.423 235.447 267.987 236.243 272.044 235.224Z" fill="#685E5E"/>
<path d="M248.836 222.431C253.839 222.451 254.451 226.651 256.483 229.832C258.116 232.394 262.258 236.336 256.966 238.821C248.727 239.349 242.3 228.353 248.836 222.431Z" fill="#685E5E"/>
<path d="M293.79 256.27C297.45 255.657 305.766 256.618 301.51 263.282C300.216 265.308 295.985 265.983 293.574 265.938C290.928 265.888 286.962 265.206 285.346 262.833C284.284 261.274 283.694 259.471 285.031 258.361C287.566 256.256 290.85 256.761 293.79 256.27Z" fill="#685E5E"/>
<path d="M274.798 252.607C284.377 253.554 282.513 264.094 271.577 262.714C270.37 262.521 268.797 262.32 267.746 261.731C266.331 260.943 265.325 259.582 264.993 257.997C263.772 252.29 271.217 253.346 274.798 252.607Z" fill="#685E5E"/>
<path d="M261.856 150.985C262.59 150.695 263.549 150.814 264.327 150.921C265.266 151.05 266.111 151.56 266.653 152.336C267.972 154.222 268.12 157.546 266.928 159.395C265.053 162.305 262.573 163.526 259.193 163.804C255.314 164.123 253.649 164.302 253.591 160.283C253.525 155.79 257.798 152.584 261.856 150.985Z" fill="#685E5E"/>
<path d="M254.267 241.901C262.394 240.996 262.727 242.654 264.386 249.513C264.824 251.325 263.39 252.641 261.68 253.058C260.696 253.299 259.217 253.126 258.194 252.962C255.015 252.45 250.718 249.114 251.445 245.501C251.699 244.238 252.957 242.047 254.267 241.901Z" fill="#685E5E"/>
<path d="M327.403 237.25C329.878 237.06 332.98 237.62 332.517 241.029C331.934 245.333 329.209 247.184 324.974 246.822C316.677 240.739 317.499 238.373 327.403 237.25Z" fill="#685E5E"/>
<path d="M248.569 187.609C250.784 187.725 253.75 189.037 254.51 191.307C254.892 192.46 254.761 193.721 254.151 194.771C253.11 196.571 251.968 196.648 250.095 197.081C242.446 199.836 242.966 190.172 248.569 187.609Z" fill="#685E5E"/>
<path d="M159.568 41.2212C158.534 40.261 156.985 39.0244 156.854 37.5682C156.422 32.7916 164.491 34.6752 166.981 34.783C185.428 35.5818 213.116 53.9496 214.517 73.3285C208.594 74.6261 205.126 75.5501 198.715 75.5501C194.976 64.4602 184.067 53.8403 174.071 48.029C173.027 47.422 170.891 46.448 170.219 47.9069C170.412 49.2555 171.487 50.4525 172.574 51.1876C182.111 57.6372 190.575 65.1993 195.889 75.7527C188.772 76.1127 182.826 76.1127 172.915 75.4889C170.81 69.175 150.615 49.8486 144.753 52.3361C143.965 54.655 149.895 57.2081 151.595 58.2395C154.386 59.9534 157.035 61.887 159.519 64.0224C164.201 67.9833 166.272 70.4689 169.735 75.4889C168.373 75.4145 167.084 75.3028 165.73 75.1603C159.781 74.5334 154.162 74.5404 148.224 73.5322C146.092 67.2318 138.04 59.0413 132.064 56.077C129.441 54.7761 128.546 54.7075 125.727 54.7992L125.996 55.0475C127.99 56.8646 131.142 58.8788 133.428 60.5067C137.72 63.564 143.011 68.9216 145.295 73.6628C138.379 72.8885 121.196 71.2373 113.406 69.8522C113.21 69.9407 113.014 70.0294 112.817 70.1181C111.135 74.169 121.574 74.9106 124.042 75.2619C130.973 76.2488 138.42 77.5305 145.414 77.6346C136.983 82.0913 129.762 83.5626 120.451 84.8817C120.073 84.9353 119.716 85.2928 119.499 85.5849C119.52 87.7549 122.026 87.6908 123.623 87.4509C130.773 86.3776 138.27 85.3523 144.617 81.6535C146.755 80.4203 147.631 79.3888 149.324 78.229C155.508 78.5286 165.334 79.704 170.81 79.5806C162.819 85.1964 154.872 90.1522 145.325 92.6879C144.133 93.0045 139.836 94.0378 141.432 95.8805C144.699 96.9687 156.374 92.3655 159.415 90.8239C165.954 87.5096 169.492 84.8807 174.606 79.7887C182.935 79.8797 188.274 81.2015 197.362 80.3648C191.802 85.9591 187.553 90.4782 180.751 94.6961C179.254 95.6245 171.413 99.4484 171.017 100.013C171.531 101.822 174.822 101.325 176.115 100.744C185.969 96.3113 195.609 90.4487 200.482 80.372C204.445 80.1007 206.612 80.372 214.094 79.1971C211.007 83.2722 209.572 87.9351 205.633 91.7607C196.596 100.539 186.197 107.591 174.025 111.169C169.676 112.447 164.117 114.561 160.331 110.957C158.964 109.671 159.782 107.4 159.762 105.59C157.923 105.563 155.995 106.288 154.159 106.481C146.272 107.313 138.373 107.192 130.707 104.921C128.791 104.353 123.427 103.319 123.999 100.452C124.347 98.7103 127.287 97.1268 128.756 96.1768C120.674 96.1302 113.267 94.2196 106.364 90.0436C103.025 88.023 102.842 84.5163 107.1 84.7972C107.792 84.8428 109.599 84.4409 110.37 84.2977C105.586 82.1634 90.7206 72.6603 92.2551 66.6101C93.5244 65.1859 105.044 62.1452 107.593 61.1744C111.775 59.5825 115.07 57.6265 119.508 56.7673C117.498 55.8381 113.597 54.2457 113.943 51.5962C116.721 47.1732 130.195 47.9886 134.659 48.8432C132.549 47.836 125.563 44.3659 131.108 41.988C138.983 38.6111 151.581 38.0784 159.568 41.2212Z" fill="#4E7D33"/>
</svg>
