<svg width="400" height="400" viewBox="0 0 400 400" fill="none" xmlns="http://www.w3.org/2000/svg">
<g clip-path="url(#clip0_90_2029)">
<path d="M98.4879 59.526C109.962 67.1875 124.499 80.8065 127.362 94.7112C136.386 138.529 85.0078 140.537 58.8267 123.227C36.6095 108.539 27.5654 72.5531 52.6572 55.872C66.4115 46.7087 85.4786 51.1765 98.4879 59.526Z" fill="#103161"/>
<path d="M97.0027 63.0183C103.609 62.655 104.51 68.4063 102.947 73.504C106.047 72.8163 111.819 72.3343 113.886 75.426C115.234 77.441 113.693 78.7983 113.218 80.619C115.25 81.7303 117.163 81.977 119.201 83.405C120.872 84.5758 121.825 86.853 120.39 88.5975C118.915 90.3915 114.733 90.694 112.498 90.8245C115.73 94.265 116.457 96.8735 112.552 99.9248C108.554 100.552 104.039 99.2548 101.255 96.2468C99.8867 98.9585 97.4892 104.058 93.6912 102.258C91.1079 99.6863 90.8762 94.4975 90.7754 91.0443C88.3517 92.3258 84.3984 94.908 81.6429 93.7153C76.8695 91.648 80.3941 85.0797 82.0564 82.14C77.9544 82.086 65.2127 79.1575 72.5459 73.7455C75.1887 71.7953 81.9559 71.8355 85.0832 72.658C81.8383 69.6997 80.6033 67.3777 84.9244 66.023C87.1368 65.3294 89.5754 67.0255 91.5344 68.2645C93.2837 65.6825 94.3287 64.5338 97.0027 63.0183Z" fill="#84ACE8"/>
<path d="M97.45 66.9035C101.095 69.5215 97.3658 72.8167 98.316 75.715C99.3803 78.961 108.919 75.4815 109.886 77.7057C108.318 79.2715 104.671 78.89 104.157 80.8347C104.856 82.6195 107.273 83.1673 108.961 83.6195C112.045 84.4453 114.306 85.2592 117.051 86.877C112.559 86.9458 105.499 86.877 104.999 88.8707C104.499 90.8645 108.964 93.0253 111.631 96.4915C106.786 95.914 105.951 94.6302 102.53 91.5132C100.868 89.999 99.624 90.44 98.303 92.08C97.7498 93.8183 96.8598 95.9012 96.229 97.767C95.4885 94.651 95.247 91.9682 94.773 88.8707C94.0275 83.998 87.169 89.3593 84.7275 89.9855C83.9213 89.8043 84.2625 90.01 83.742 89.2383C83.2308 85.0035 91.2695 80.1415 81.7508 78.5208C79.4035 78.121 76.38 77.1488 74.1973 76.2285C76.933 76.0103 79.7105 76.1055 82.4488 76.1602C89.8264 76.307 89.4993 74.5002 89.1813 71.0123C90.3648 71.7668 90.7163 74.504 92.2798 75.075C94.4278 74.5545 95.6303 68.994 97.45 66.9035Z" fill="#103161"/>
<path d="M68.038 57.1C70.8073 56.801 78.7898 56.7227 79.2173 60.6332C78.5278 62.047 76.454 62.057 74.9403 62.071C67.7398 62.1372 63.4943 64.714 57.8193 68.965C56.2748 70.1092 52.2675 73.9967 51.0773 73.9688C50.8825 73.6157 50.817 73.4455 50.7895 73.028C50.1583 63.4508 59.0578 57.9405 68.038 57.1Z" fill="#84ACE8"/>
<path d="M45.3742 75.9582C46.3546 75.3441 47.2104 75.6663 47.6489 76.635C48.5148 78.5477 46.4203 81.655 45.4787 83.637C45.3754 83.8545 45.2484 83.851 45.0204 83.9972C44.812 84.131 44.6155 83.8637 44.4894 83.6505C42.9289 81.0102 42.7451 77.6051 45.3742 75.9582Z" fill="#84ACE8"/>
<path d="M161.714 162.099C184.678 159.283 211.788 171.604 221.136 193.339C230.569 215.279 210.675 231.998 190.769 234.468C166.908 236.532 132.308 223.998 129.057 197.064C126.643 177.072 143.564 164.082 161.714 162.099Z" fill="#103161"/>
<path d="M180.23 168.009C184.539 167.916 187.737 171.346 189.204 175.111C192.267 173.533 200.587 169.649 200.724 176.224C200.744 177.183 200.394 178.099 200.458 179.047C201.536 179.911 209.002 180.869 205.62 184.898C203.872 186.981 199.754 188.086 197.025 188.161C198.65 190.67 199.073 191.895 199.915 194.788C199.477 196.187 199.072 197.321 197.884 198.253C197.089 198.885 196.072 199.165 195.066 199.03C192.421 198.698 190.7 196.397 189.213 194.456L188.293 192.778C186.807 195.447 183.438 200.753 179.46 197.234C177.869 195.826 177.939 192.835 177.995 190.808C175.649 192.208 173.418 192.981 170.876 193.884C163.804 191.523 167.608 188.9 169.996 185.464L169.854 185.123C168.794 185.006 167.4 184.713 166.632 183.949C159.884 177.232 174.809 176.44 178.148 176.427C178.982 175.466 176.865 170.544 180.23 168.009Z" fill="#84ACE8"/>
<path d="M182.772 172.288C184.338 174.636 184.757 176.015 185.824 178.142C187.533 181.552 193.603 175.499 196.516 176.094L196.747 176.497C196.24 178.645 191.723 181.197 193.474 183.413C195.844 184.351 201 182.109 201.5 184C201.764 185 190.5 184 193.013 189.47C194.72 191.917 195.144 193.028 195.421 195.954C194.343 194.925 193.076 193.294 192.313 192.027C187.169 183.48 184.958 190.18 182.042 195.801C182.051 193.374 182.688 188.246 180.724 186.863C178.175 186.471 174.549 189.266 171.684 189.991C170.451 189.2 176.054 185.694 176.505 184.711C176.105 182.229 171.635 183.004 169.629 181.153C169.772 179.029 175.849 178.767 177.392 179.04C178.992 179.324 180.946 180.969 182.5 180.5C184.155 180 182.833 176.497 182.772 172.288Z" fill="#103161"/>
<path d="M155.224 170.526C158.646 170.255 158.947 172.421 158.059 175.252C149.995 179.512 146.619 182.741 143.474 191.216C139.388 190.452 139.203 185.531 141.003 182.498C144.338 176.877 148.939 172.517 155.224 170.526Z" fill="#84ACE8"/>
<path d="M152.924 182.033C154.159 181.48 155.745 181.334 156.292 182.641C156.906 184.109 154.513 186.474 153.069 187.878C152.406 188.523 151.021 188.282 150.5 187.567C149.175 185.748 151.18 182.813 152.924 182.033Z" fill="#84ACE8"/>
<path d="M89.8921 292.86C108.655 291.996 124.869 303.106 125.082 323.103C125.351 348.428 92.6406 366.46 70.1268 366.332C42.4082 364.67 20.1615 335.494 44.4181 312.005C54.6193 302.13 76.0963 293.187 89.8921 292.86Z" fill="#103161"/>
<path fill-rule="evenodd" clip-rule="evenodd" d="M68.7233 302.803C72.1008 302.803 73.4359 304.506 75.2965 307.203C77.1122 305.418 81.3788 301.983 83.4596 304.905C84.6341 306.563 86.8824 305.5 88.5494 305.978C96.3535 308.202 85.8563 315.315 82.941 316.618C84.5747 318.066 86.7935 319.606 86.8502 321.958C85.5857 324.953 80.6019 323.56 78.191 322.923C77.9636 324.383 79.3951 329.588 74.9986 329.115C72.9944 328.898 71.8182 327.18 70.8053 325.567C68.968 327.655 67.3565 329.731 64.7965 329.08C60.7439 328.049 61.5626 325.458 63.3854 322.141C61.9622 322.013 59.7267 322.028 59.0729 320.375C57.3611 316.047 65.7279 314.761 65.5221 313.471C65.1356 311.076 63.9034 304.06 68.7233 302.803ZM70.1031 306.152C68.0004 306.5 67.4179 308.948 68.0004 310.5C70.3991 316.893 66.3998 316.504 61.7565 319.229C67.6432 317.931 71.6657 317.459 66.3795 324.415C69.7422 323.518 69.8635 318.893 73.7477 322.27C74.452 321.395 73.2173 320.765 74.2252 319.095C76.0169 318.135 78.3339 319.595 80.7711 319.938L80.7731 319.725C79.9218 319.217 76.7262 317.315 78.1471 315.57C79.3919 314.04 82.9467 313.392 84.5004 312C85.3335 311.255 85.763 309.904 86.5914 309.104C83.9494 310.356 82.7422 310.371 80.0004 308.5C75.5917 308.635 75.4935 317.182 70.1031 306.152Z" fill="#84ACE8"/>
<path d="M54.0474 309.983C55.2602 309.988 55.5729 309.952 56.3769 310.9C56.6472 312.005 56.3542 312.915 56.1339 314.052C55.2712 315.055 54.2369 316.048 53.3367 317.035C47.1804 323.783 44.7112 333.278 44.8599 342.255C44.8839 343.708 44.5884 345.747 43.6199 346.867C42.7717 347.08 43.1842 347.107 42.3459 346.717C41.6344 346.057 40.2897 344.873 39.9717 344.033C35.7647 332.905 44.4727 314.903 54.0474 309.983Z" fill="#84ACE8"/>
<path d="M49.0718 333.112C49.2686 332.53 51.4383 333.76 51.5725 334.237C52.028 335.865 54.2018 344.013 53.031 344.153C47.9339 344.76 47.8289 336.788 49.0718 333.112Z" fill="#84ACE8"/>
<path d="M308.935 257.605C322.722 256.648 342.467 261.795 353.687 270.063C379.625 289.174 362.927 324.4 334.81 327.473C334.472 327.518 334.132 327.552 333.792 327.58C311.27 329.532 277.387 313.47 276.305 288.457C275.499 269.819 291.363 258.795 308.935 257.605Z" fill="#103161"/>
<path fill-rule="evenodd" clip-rule="evenodd" d="M329.271 263.575C333.279 263.598 334.767 266.853 335.047 270.351C346.729 265.431 348.029 272.241 338.399 278.351C346.421 282.063 342.772 293.029 335.067 286.271C333.43 294.565 330.601 297.61 326.744 288.018C326.569 287.508 326.024 286.395 325.779 285.855C322.266 292.348 315.617 295.057 316.054 284.965C312.829 285.035 309.476 286.525 306.659 284.96C298.379 280.359 311.81 276.571 315.122 274.833C312.954 273.013 312.051 271.232 314.466 268.755C316.684 266.482 320.477 266.926 323.462 266.998C325.594 264.626 326.177 264.083 329.271 263.575ZM329.831 267.74C327.392 267.273 325.869 269.54 325.779 271.308C320.717 270.105 321.194 269.94 316.261 271.308C317.639 272.268 323.466 274.26 321.499 276.5C319.432 278.85 314.082 278.912 311.382 280.52C318.021 282.692 323.756 277.393 318.636 288.697C325.753 282.452 327.162 277.957 330.786 290.103C332.213 279.268 332.16 283.575 339.441 284.098L339.566 283.785C337.957 281.581 333.464 281.009 333.081 277.975C333.423 276.24 337.914 274.132 339.441 273C329.271 274.978 330.786 270.351 329.831 267.74Z" fill="#84ACE8"/>
<path d="M294.661 265.245C298.266 264.92 297.534 267.178 296.886 269.56C289.056 277.055 288.029 279.678 287.536 290.283C287.509 290.91 287.101 291.268 286.629 291.595L285.911 291.358C280.579 286.57 281.454 281.23 284.571 275.53C287.061 270.978 290.056 267.643 294.661 265.245Z" fill="#84ACE8"/>
<path d="M292.797 281.16C293.665 280.663 294.415 281.252 295.107 281.892C295.267 282.04 295.428 282.272 295.375 282.483C294.696 285.148 296.194 287.887 295.647 290.392C295.587 290.67 294.686 291.088 294.512 291.04C290.25 289.856 289.182 283.232 292.797 281.16Z" fill="#84ACE8"/>
<path d="M354.531 61.8215C356.331 81.9535 336.986 96.9642 319.203 101.207C306.469 104.246 289.907 103.728 279.216 95.6322C265.618 85.3335 261.638 65.7845 272.571 52.0435C291.568 28.1654 350.993 22.2817 354.531 61.8215Z" fill="#103161"/>
<path d="M308.423 36.973C312.051 37.9 312.043 41.1272 312.456 44.2227C313.773 43.7037 320.233 40.7865 321.098 41.164C327.326 43.8835 320.078 48.1222 317.198 49.721C317.793 50.1522 319.626 51.3325 319.998 51.7725C326.133 59.0122 316.616 57.8525 313.386 57.481C312.051 59.524 315.538 64.2835 308.308 63.989C305.988 62.6187 305.438 61.5662 304.478 59.1722C304.311 59.3415 304.143 59.5097 303.976 59.677C295.581 68.013 289.381 62.649 299.206 54.2787C288.543 53.2045 294.938 47.4162 302.331 46.7027C303.191 42.7348 304.757 39.1247 308.423 36.973Z" fill="#84ACE8"/>
<path d="M308.001 41.4998C309.599 43.0368 308.001 46.4998 308.916 48.211C311.144 48.5797 315.001 45.4998 317.579 45.4998C311.501 49.9998 313.001 50.8885 317.579 54.5425C314.001 55.4998 311.319 51.1398 309.501 53.4998C309.01 55.2088 310.001 58.4998 309.101 59.289C307.436 58.4112 307.166 51.2562 300.989 58.0572C300.116 59.0165 298.614 60.2345 297.589 61.053C296.501 58.4998 302.001 54.4998 302.001 53.4998C302.001 52.482 296.247 51.9028 296.728 50.8885C297.203 49.8861 304.209 49.3233 304.501 48.211C305.174 45.6467 306.459 41.8821 308.001 41.4998Z" fill="#103161"/>
<path d="M284.431 45.6803C285.093 45.707 285.988 46.2158 286.348 46.7548C288.348 49.7268 284.548 53.2312 282.901 55.67C278.228 62.5795 280.023 70.993 280.708 78.7457C280.856 80.4147 281.706 82.9912 281.488 84.5443L281.113 84.7977C280.321 84.6477 279.983 84.1608 279.396 83.5785C273.031 76.9085 271.898 71.4897 273.546 62.1575C274.781 55.1663 278.531 49.6268 284.431 45.6803Z" fill="#84ACE8"/>
<path d="M283.487 64.754C286.975 64.4635 286.415 65.1662 286.725 68.2802C286.935 70.3972 286.97 72.6145 287.645 74.6422C287.875 75.3295 287.662 75.5867 287.332 76.12C285.245 75.7932 284.497 75.211 283.572 73.1922C282.722 71.339 282.432 66.3645 283.487 64.754Z" fill="#84ACE8"/>
</g>
<defs>
<clipPath id="clip0_90_2029">
<rect width="333" height="334" fill="white" transform="translate(34 33)"/>
</clipPath>
</defs>
</svg>
