<svg width="400" height="400" viewBox="0 0 400 400" fill="none" xmlns="http://www.w3.org/2000/svg">
<g clip-path="url(#clip0_90_1003)">
<path d="M44.4219 285.742C47.7069 280.918 50.921 275.931 53.8026 270.631C57.0829 264.596 126.087 280.597 129.587 280.994C136.476 281.784 144.608 280.469 151.609 280.396C182.333 280.078 212.35 273.524 242.728 269.46C274.158 265.37 314.81 260.633 346.038 270.205C346.071 273.545 345.105 276.88 345.355 280.404C344.151 281.685 337.264 284.526 335.335 285.669C324.119 292.427 313.188 298.463 300.804 302.86C279.997 310.243 254.306 312.552 232.41 315.121C226.79 315.814 220.993 316.056 215.352 316.695C189.749 320.181 158.507 323.179 132.425 320.698C105.228 318.109 56.0983 317.041 44.4219 285.742Z" fill="#9DB328"/>
<path d="M345.262 148.767C346.748 150.807 349.064 156.488 349.815 159.038C336.497 168.138 326.278 181.149 311.645 188.614C291.123 199.078 267.894 202.523 245.064 201.707C199.456 201.157 151.873 190.947 106.409 196.703C88.7023 198.865 70.6679 205.861 52.8176 200.907C44.2396 198.526 37.9296 189.007 39.7076 179.868C42.0085 168.04 104.503 159.148 114.234 157.95C133.435 155.586 152.384 154.905 171.731 155.211C203.615 155.714 235.123 159.618 266.86 161.028C294.257 162.247 319.984 160.037 345.262 148.767Z" fill="#9DB328"/>
<path d="M350.39 74.2397C348.385 75.4912 344.654 76.5104 342.308 77.4649C323.811 85.0844 305.724 91.1521 285.528 91.7076C254.534 92.5596 226.592 87.5061 196.318 81.309C183.489 78.087 171.215 75.5134 158.089 74.1489C132.251 71.4622 102.973 78.9126 78.2569 86.3654C69.5139 89.0018 47.5134 94.0594 38.83 88.5081C37.2518 87.5432 32.9583 79.8168 33.4078 78.358C35.4098 71.8614 47.7811 64.5166 52.7911 61.638C117.208 24.6288 181.014 38.3249 251.578 50.4286C281.522 55.5653 310.918 63.2439 341.508 62.8994C345.199 62.858 348.153 62.6713 351.846 63.0449C349.873 67.5572 349.416 69.3342 350.494 74.0795L350.39 74.2397Z" fill="#9DB328"/>
<path d="M183.345 94.5549C187.617 93.9502 195.219 95.7163 198.371 98.3987C203.902 103.106 210.67 100.604 215.677 103.697C229.227 112.071 222.944 132.537 209.275 135.804C173.744 141.669 155.291 103.22 183.345 94.5549Z" fill="#D0D570"/>
<path d="M342.702 194.497C348.348 194.373 350.689 197.18 353.375 201.612C361.072 214.3 353.486 229.214 341.766 236.131C334.582 240.369 327.069 240.185 319.229 238.023C309.33 234.354 297.585 223.262 305.367 212.118C308.815 205.973 320.313 208.032 324.024 205.945C332.594 201.126 331.274 196.015 342.702 194.497Z" fill="#D0D570"/>
<path d="M346.419 101.716C353.406 110.456 347.667 120.956 340.23 126.864C331.588 133.729 322.794 136.917 311.732 135.829C299.293 133.333 288.236 118.335 298.054 106.83C303.536 100.406 312.469 102.428 319.747 100.754C330.239 97.8276 338.243 91.4896 346.419 101.716Z" fill="#D0D570"/>
<path d="M185.565 212.93C191.36 212.057 194.989 215.445 200.286 216.646C203.194 217.241 206.195 216.707 209.134 216.949C216.324 217.544 223.884 221.795 226.5 228.815C230.595 239.795 224.754 247.715 214.548 251.517C202.91 253.888 191.345 250.492 181.849 243.598C170.316 235.223 167.184 215.082 185.565 212.93Z" fill="#D0D570"/>
<path d="M83.173 99.5211C91.6875 99.4121 100.051 106.619 100.196 115.307C100.418 128.718 82.2735 144.444 69.5681 144.371C65.3613 143.967 61.5783 143.051 57.7994 140.722C48.1812 134.794 44.5844 119.597 54.9379 112.553C58.0907 110.408 63.9849 110.079 67.306 108.079C72.9072 104.706 76.1442 99.66 83.173 99.5211Z" fill="#D0D570"/>
<path d="M335.21 303.183C344.883 302.789 352.459 308.713 353.426 318.582C354.216 326.678 348.367 332.624 342.435 337.108C332.917 344.298 318.526 350.011 307.357 343.228C300.311 338.947 297.672 330.064 302.168 322.979C306.634 315.948 313.686 316.65 320.018 312.966C325.982 309.498 327.561 304.846 335.21 303.183Z" fill="#D0D570"/>
<path d="M257.402 110.194C262.955 109.686 264.085 107.365 270.106 109.2C290.815 110.194 286.779 136.897 266.797 143.4C257.038 146.577 244.951 146.072 236.78 140.163C228.722 134.333 227.504 122.017 233.329 114.232C240.37 104.821 248.413 110.258 257.402 110.194Z" fill="#D0D570"/>
<path d="M158.539 94.8607C165.145 102.653 162.718 113.219 155.024 119.051C146.784 125.297 136.313 128.868 126.024 127.705C113.127 126.327 102.545 111.614 112.277 99.9897C119.605 91.2376 124.867 93.566 134.661 92.7538C144.169 91.9655 150.152 85.1145 158.539 94.8607Z" fill="#D0D570"/>
<path d="M86.3816 216.215C94.1869 215.211 103.467 221.744 102.759 230.256C101.335 247.38 81.6957 257.533 66.0406 255.634C54.8825 253.783 42.9461 239.723 52.254 229.121C57.7735 222.838 64.289 224.855 70.9245 222.085C77.3701 219.401 79.0848 216.873 86.3816 216.215Z" fill="#D0D570"/>
<path d="M135.175 213.223C141.581 213.485 146.078 210.416 153.075 212.527C161.248 214.991 163.469 222.128 161.188 229.605C155.828 247.165 132.131 250.807 118.403 241.219C109.279 234.85 106.908 223.114 113.178 213.788C118.768 205.469 128.238 212.941 135.175 213.223Z" fill="#D0D570"/>
<path d="M292.261 221.298C298.967 229.716 294.911 240.11 286.993 246.121C278.502 252.566 268.752 254.748 258.318 253.273C248.367 250.937 236.683 238.966 244.643 228.359C251.544 219.154 261.66 222.93 270.687 220.261C277.958 218.113 286.189 213.68 292.261 221.298Z" fill="#D0D570"/>
<path d="M277.352 321.407C294.589 324.735 293.087 343.292 280.796 351.104C269.791 358.099 254.561 358.829 244.106 350.317C238.023 345.355 235.74 335.469 241.253 329.278C246.488 323.312 252.175 325.457 259.139 324.429C265.297 323.518 270.996 320.168 277.352 321.407Z" fill="#D0D570"/>
<path d="M60.3396 313.947C69.6535 315.693 67.709 321.51 73.3895 326.389C75.9379 328.576 79.4436 329.154 82.3863 330.617C94.0917 336.427 93.0714 353.426 80.8667 357.231C73.6186 358.894 64.0398 356.303 57.8353 352.436C51.7277 348.629 45.2228 341.467 43.5962 334.283C42.4698 329.308 43.0732 322.593 45.8514 318.223C49.2437 312.887 54.7833 312.905 60.3396 313.947Z" fill="#D0D570"/>
<path d="M209.39 329.717C217.209 331.58 224.497 337.987 222.409 346.596C218.982 360.663 201.684 364.013 189.472 360.975C177.287 359.153 164.604 344.567 174.935 333.125C180.44 327.025 187.188 330.509 194.029 330.471C199.189 330.439 204.231 328.492 209.39 329.717Z" fill="#D0D570"/>
<path d="M120.326 330.965C123.136 331.626 126.521 333.483 129.398 333.337C134.421 333.079 138.283 330.244 143.684 331.586C151.978 333.645 157.734 341.749 155.313 350.289C150.46 367.402 122.706 366.393 111.681 357.239C105.716 352.287 101.621 341.256 107.4 334.616C110.553 330.994 115.772 329.891 120.326 330.965Z" fill="#D0D570"/>
<path d="M345.262 148.767C345.262 144.465 360.463 145 362.625 149.331C365.566 155.23 357.148 159.36 353.248 159.784C346.506 160.516 345.262 154.1 345.262 148.767Z" fill="#8C5E38"/>
<path d="M346.039 270.205C349.386 265.838 359.258 268.716 359.989 273.555C360.713 278.333 352.055 282.031 348.208 282.185C346.775 282.321 345.973 281.529 345.355 280.404C343.791 274.635 344.577 272.112 346.039 270.205Z" fill="#8C5E38"/>
<path d="M351.847 63.045C353.882 61.722 360.968 63.2146 363.779 65.7392C371.934 73.0616 355.527 80.1697 350.504 74.3031C347.828 71.3082 350.351 63.7402 351.847 63.045Z" fill="#8C5E38"/>
</g>
<defs>
<clipPath id="clip0_90_1003">
<rect width="334" height="326.937" fill="white" transform="translate(33 37)"/>
</clipPath>
</defs>
</svg>
