<svg width="400" height="400" viewBox="0 0 400 400" fill="none" xmlns="http://www.w3.org/2000/svg">
<path d="M268.075 194.497C255.656 213.596 245.038 233.016 239.636 255.599C231.007 291.678 236.474 316.152 248.651 356.347C231.331 370.384 187.621 370.375 168.73 357.017C172.665 336.092 176.766 287.527 171.417 268.266C164.442 243.151 149.096 226.328 130.654 208.908C131.47 198.91 135.795 191.473 146.046 190.804C154.684 202.67 162.695 210.83 174.591 224.905C172.874 219.302 170.176 207.131 170.446 201.296C174.591 192.127 181.16 193.935 185.439 188.837C186.125 198.006 187.574 204.293 188.687 210.83C190.421 202.866 192.178 194.319 195.207 186.755C200.875 187.143 221.673 191.359 225.4 194.958C225.956 202.486 226.097 210.393 227.58 217.794C231.861 208.866 236.636 200.019 242.702 192.127C255.916 174.077 253.922 171.585 268.075 194.497Z" fill="#92BF67"/>
<path fill-rule="evenodd" clip-rule="evenodd" d="M213.603 35.0519C216.954 36.3791 218.579 40.2868 222.055 41.6211C225.79 43.055 229.42 46.4745 230.987 50.381C236.405 50.0392 243.825 50.0289 249.245 51.4764C252.845 49.91 255.798 49.3642 259.617 50.6079C269.034 53.6752 274.457 58.9663 281.061 65.7238C284.141 68.876 287.567 72.2894 289.843 76.1282C292.072 79.8878 293.222 84.0928 291.891 88.8995C296.193 91.2969 299.94 95.123 300.451 100.328C313.349 101.998 322.009 111.009 316.465 123.148C318.06 127.628 319.109 132.08 316.357 136.47C327.584 138.2 337.589 144.674 334.285 156.75C336.986 159.165 337.938 161.853 337.805 164.685C337.543 170.249 333.086 173.206 332.061 177.901C329.578 189.278 330.193 191.525 319.196 197.592C313.233 205.403 305.933 207.61 296.802 203.963C288.887 211.123 277.24 205.177 276.656 195.3C267.248 195.416 257.321 193.503 255.085 182.576C247.148 191.518 237.401 195.166 225.538 195.015C219.615 195.997 212.995 196.036 208.346 190.553C196.993 191.815 188.617 184.048 186.108 178.984C187.368 189.128 185.795 193.512 174.642 197.369C174.27 201.898 167.378 203.336 163.793 202.544L163.789 202.543C160.588 201.805 158.759 199.148 156.086 197.491C153.973 196.182 152.407 194.648 151.111 192.527C149.449 192.474 147.993 192.193 146.467 191.534C145.615 192.521 141.508 197.085 135.759 199.822C135.136 207.177 128.212 214.229 120.631 212.503C113.707 215.925 105.394 218.713 101.337 210.155C98.0066 209.963 94.4388 210.184 91.2335 209.154C84.2584 206.912 84.3431 200.264 79.612 197.123C74.8934 193.993 65.0572 193.122 63.3901 186.739C62.8873 184.814 63.3314 182.497 65.0005 179.617C60.4264 174.114 60.9459 167.642 65.2264 162.143C63.624 155.899 64.272 151.573 70.2621 148.306C70.7751 142.633 72.6678 138.083 75.6142 133.265C70.5567 128.991 66.5944 120.791 67.7939 114.1C69.0407 107.147 75.2284 105.71 80.2108 102.24C83.0042 96.7124 84.4082 92.2231 90.2423 88.9482C87.4641 80.227 96.0223 73.9133 103.498 72.5266C105.074 70.762 106.355 68.6575 108.326 67.2855C112.185 64.5993 116.551 63.888 120.966 63.8359C127.489 63.7588 134.392 63.8837 140.848 64.6664C143.354 59.6501 147.284 56.6669 153.066 57.2034C154.22 52.9404 156.659 50.839 158.208 48.9523C161.619 44.7977 167.232 45.4902 170.498 41.811C173.733 38.1645 176.156 35.5877 179.055 34.4308C181.966 33.2697 185.267 33.5652 190.173 35.3362C197.202 33.1882 206.631 32.2914 213.603 35.0519Z" fill="#015734"/>
<path d="M95.3964 194.012C101.518 192.632 105.791 198.867 99.7948 203.218C99.3141 203.567 98.5342 203.545 97.9488 203.467C96.2759 203.244 94.7644 202.353 93.7561 201C91.7649 198.327 92.331 194.702 95.3964 194.012Z" fill="#92BF67"/>
<path d="M225.582 138.965C231.074 136.809 236.579 145.604 230.844 148.876C226.886 151.134 219.769 141.247 225.582 138.965Z" fill="#92BF67"/>
<path d="M310.446 172.117C317.059 172.459 316.558 180.659 311.258 181.853C310.361 182.055 309.423 181.735 308.599 181.311C307.551 180.771 306.761 179.836 306.413 178.712C305.452 175.611 307.276 171.953 310.446 172.117Z" fill="#92BF67"/>
<path d="M76.0366 179.814C82.4189 177.82 86.1947 187.931 80.0246 188.565C74.8487 189.097 68.5303 182.159 76.0366 179.814Z" fill="#92BF67"/>
<path d="M285.084 190.491C286.63 189.626 288.393 190.87 289.695 192.21C290.582 193.123 291.045 194.371 290.944 195.641C290.8 197.438 290.022 199.331 288.369 199.704C282.433 201.045 279.344 193.703 285.084 190.491Z" fill="#92BF67"/>
<path d="M306.241 188.523C313.241 186.839 312.068 197.11 306.879 198.041C305.873 198.221 304.758 197.775 304.017 197.077C300.62 193.88 302.37 189.454 306.241 188.523Z" fill="#92BF67"/>
<path d="M216.796 179.58C222.899 178.405 226.706 184.492 221.07 188.209C219.551 189.21 217.373 188.1 216.132 186.817C215.107 185.756 214.584 184.308 214.707 182.837C214.832 181.34 215.437 179.842 216.796 179.58Z" fill="#92BF67"/>
<path d="M113.404 199.518C118.326 197.756 123.432 205.791 117.131 208.432C112.341 210.44 107.192 201.742 113.404 199.518Z" fill="#92BF67"/>
<path d="M245.484 171.528C251.211 171.277 255.091 177.415 248.826 180.536C245.72 182.083 242.292 178.465 242.746 174.686C242.932 173.139 244.019 171.592 245.484 171.528Z" fill="#92BF67"/>
<path d="M249.395 151.682C255.446 150.773 257.748 157.975 251.315 160.568C248.309 161.778 245.649 158.368 245.726 155.638C245.802 152.942 246.879 152.06 249.395 151.682Z" fill="#92BF67"/>
<path d="M325.576 161.612C331.284 160.582 331.537 169.15 325.616 171.263C324.46 171.675 323.327 170.914 322.508 170.025C319.974 167.277 322.153 162.23 325.576 161.612Z" fill="#92BF67"/>
<path d="M291.351 162.348C295.484 161.276 296.299 166.743 295.204 169.931C294.601 171.688 293.738 172.57 291.829 172.271C285.176 171.227 286.059 163.721 291.351 162.348Z" fill="#92BF67"/>
<path d="M106.289 183.587C107.208 182.92 108.77 183.109 109.82 183.567C114.492 185.606 114.618 189.327 111.102 192.254C108.156 194.705 101.364 187.157 106.289 183.587Z" fill="#92BF67"/>
<path d="M265.103 176.571C268.606 176.081 270.007 177.914 270.779 181.288C270.848 181.59 270.636 181.89 270.557 182.19C270.093 183.942 270.12 185.238 268.348 185.603C265.004 186.291 263.464 185.704 262.426 182.44C261.548 179.677 261.88 177.023 265.103 176.571Z" fill="#92BF67"/>
<path d="M294.144 139.171C298.687 137.927 300.296 141.083 299.208 145.23C298.762 146.932 298.01 147.779 296.272 147.958C290.716 148.53 288.182 140.804 294.144 139.171Z" fill="#92BF67"/>
<path d="M106.044 145.707C111.337 145.561 113.244 152.748 107.805 154.75C105.801 155.488 104.069 154.457 103.013 152.333C102.49 151.281 102.421 150.063 102.794 148.949C103.383 147.188 104.327 145.754 106.044 145.707Z" fill="#92BF67"/>
<path d="M139.783 129.692C145.031 128.039 148.006 137.129 141.413 138.662C136.293 139.852 133.882 131.55 139.783 129.692Z" fill="#92BF67"/>
<path d="M270.136 164.584C272.328 163.56 273.196 164.374 274.987 165.982C275.76 166.677 276.456 168.028 276.32 169.076C276.025 171.348 275.322 172.932 273.087 173.237C268.091 173.919 264.429 167.251 270.136 164.584Z" fill="#92BF67"/>
<path d="M215.758 160.392C218.907 159.313 222.461 161.277 221.724 165.816C221.513 167.11 220.747 168.513 219.435 168.653C213.631 169.273 210.135 162.319 215.758 160.392Z" fill="#92BF67"/>
<path d="M180.307 150.652C185.732 148.57 190.254 156.395 184.522 158.878C180.013 160.831 174.808 152.763 180.307 150.652Z" fill="#92BF67"/>
<path d="M207.795 106.828C209.803 105.639 211.924 106.624 213.144 109.101C213.635 110.099 213.704 111.254 213.315 112.296C212.874 113.478 212.091 115.059 210.809 115.099C204.732 115.288 202.147 110.173 207.795 106.828Z" fill="#92BF67"/>
<path d="M270.886 126.712C272.44 126.194 273.354 127.02 274.286 128.293C276.331 131.088 275.953 135.051 272.085 136.149C271.771 136.238 271.444 136.034 271.128 135.958C266.386 134.821 265.884 128.379 270.886 126.712Z" fill="#92BF67"/>
<path d="M88.8141 164.84C94.3031 163.877 97.9049 172.207 91.8542 173.023C86.6098 173.729 82.1004 166.017 88.8141 164.84Z" fill="#92BF67"/>
<path d="M194.942 45.926C200.99 44.8342 199.517 55.6132 195.051 54.6935C188.402 53.3242 189.539 46.9016 194.942 45.926Z" fill="#92BF67"/>
<path d="M183.743 127.718C189.491 126.403 192.481 134.597 186.592 136.101C182.179 137.228 177.616 129.119 183.743 127.718Z" fill="#92BF67"/>
<path d="M243.588 108.014C247.356 106.622 251.709 114.452 245.019 116.462C239.719 118.055 238.015 110.074 243.588 108.014Z" fill="#92BF67"/>
<path d="M164.234 185.57C165.219 184.853 166.855 185.53 168.089 185.574C168.189 185.578 168.216 185.664 168.297 185.722C171.41 187.969 172.611 191.164 169.402 193.446C167.737 194.63 166.223 193.73 164.642 192.346C162.206 190.214 161.763 187.37 164.234 185.57Z" fill="#92BF67"/>
<path d="M220.009 73.6657C226.1 71.6681 227.725 80.6577 222.68 82.0329C217.712 83.3875 213.964 75.6483 220.009 73.6657Z" fill="#92BF67"/>
<path d="M316.237 143.664C319.423 142.41 321.031 144.413 321.077 147.669C321.12 150.705 320.473 151.894 317.54 152.44C312.517 153.374 311.004 145.722 316.237 143.664Z" fill="#92BF67"/>
<path d="M127.858 156.136C134.103 155.877 135.956 161.44 131.208 164.052C127.562 164.35 126.085 162.581 125.211 159.355C125.946 157.347 125.949 157.133 127.858 156.136Z" fill="#92BF67"/>
<path d="M83.1096 138.64C87.8257 138.383 89.191 146.193 84.0708 147.701C80.9402 148.623 79.1966 146.258 79.7794 142.762C80.1438 140.576 81.0449 138.752 83.1096 138.64Z" fill="#92BF67"/>
<path d="M172.923 168.609C177.686 166.68 180.985 173.653 176.649 176.843C176.577 176.896 176.509 176.848 176.42 176.85C171.19 176.956 167.485 170.811 172.923 168.609Z" fill="#92BF67"/>
<path d="M128.593 183.587C130.015 182.891 131.634 182.89 133.057 183.585C136.304 185.17 136.882 188.509 133.796 190.786C131.474 192.499 129.895 190.96 127.999 189.218C127.161 188.447 126.748 187.496 127.148 186.431C127.599 185.23 127.417 184.162 128.593 183.587Z" fill="#92BF67"/>
<path d="M197.747 172.606C198.062 172.349 198.559 172.548 198.966 172.54C200.523 172.512 201.817 172.739 202.951 173.918C203.598 174.591 203.936 175.502 203.887 176.436C203.798 178.102 203.308 180.149 201.759 180.526C197.206 181.635 193.377 176.178 197.747 172.606Z" fill="#92BF67"/>
<path d="M257.864 71.9045C263.95 70.4656 265.085 77.3292 260.384 79.8248C258.873 80.6268 256.894 79.6052 255.965 78.1104C254.167 75.2198 255.324 72.5051 257.864 71.9045Z" fill="#92BF67"/>
<path d="M150.161 161.063C155.147 159.129 159.728 165.866 154.649 169.406C151.296 171.744 145.404 162.908 150.161 161.063Z" fill="#92BF67"/>
<path d="M93.395 109.549C94.3117 109.165 95.4112 109.535 96.308 109.999C97.0797 110.397 97.6529 111.094 97.9129 111.923C98.7918 114.724 96.7802 117.017 94.2192 117.31C89.0601 117.901 88.3354 111.665 93.395 109.549Z" fill="#92BF67"/>
<path d="M121.901 96.7484C126.704 95.4128 127.734 105.792 122.392 105.678C116.349 105.549 116.54 98.2391 121.901 96.7484Z" fill="#92BF67"/>
<path d="M283.367 98.0634C289.258 97.1585 288.833 105.084 284.137 105.96C281.318 106.485 279.533 105.65 279.242 102.848C278.947 100.004 280.531 98.4991 283.367 98.0634Z" fill="#92BF67"/>
<path d="M164.935 66.902C170.122 65.1971 172.041 73.5634 166.79 74.9529C161.51 76.3501 159.863 68.5694 164.935 66.902Z" fill="#92BF67"/>
<path d="M147.524 177.048C152.261 175.456 156.481 181.8 151.397 184.496C146.364 187.165 142.582 178.711 147.524 177.048Z" fill="#92BF67"/>
<path d="M161.717 106.741C167.096 105.478 167.668 113.637 163.205 114.853C157.938 116.289 156.484 107.97 161.717 106.741Z" fill="#92BF67"/>
</svg>
