<svg width="400" height="400" viewBox="0 0 400 400" fill="none" xmlns="http://www.w3.org/2000/svg">
<path d="M312.888 185C319.481 192.716 336.714 174.942 349.56 187.024C351.205 192.156 358.136 196.302 358.587 201.692C359.809 216.288 358.458 231.084 351.817 244.235C342.291 263.099 318.254 271.218 298.783 273.909C292.873 274.724 285.017 272.405 279.037 272.781C273.056 273.097 268.317 275.602 264.049 278.482C263.138 279.096 261.406 279.833 260.331 280.29C246.232 274.817 233.763 255.841 225.089 244.235C222.195 240.366 225.439 233.852 232.778 224.17C261.528 198.972 261.547 202.821 312.888 185Z" fill="#E8F09B"/>
<path d="M304.405 156.282C308.842 156.074 310.885 156.336 315.184 157.01C327.904 157.839 341.441 163.741 349.757 173.476C351.842 175.915 353.563 178.471 355.738 180.915C356.612 182.112 357.707 183.493 357.893 185C352.635 188.476 346.125 189.918 339.904 189.748C336.014 189.084 333.452 188.106 329.971 186.256C323.094 192.076 314.916 192.305 306.811 189.048C303.277 195.155 301.153 198.855 293.649 201.034C289.877 202.129 287.051 201.668 283.293 200.94C278.444 210.068 273.389 213.997 262.76 213.416C262.531 216.659 261.829 216.918 260.844 219.935C260.384 221.335 260.348 223.391 259.73 224.901C259.304 225.93 258.635 226.842 257.781 227.557C252.587 231.995 243.23 230.941 237.343 228.562C235.257 227.065 234.452 226.094 232.777 224.17C233.089 223.295 234.112 221.707 234.628 220.847C238.57 213.599 240.722 205.888 243.255 198.049C243.687 197.024 244.076 195.868 244.46 194.814C247.464 187.592 251.36 179.505 256.796 173.785C257.888 172.634 261.016 170.21 262.362 169.123C263.355 168.168 264.703 167.388 265.939 166.796C276.576 159.657 291.66 155.919 304.405 156.282Z" fill="#80B44E"/>
<path d="M304.406 156.282C308.844 156.074 310.886 156.336 315.185 157.01C316.099 157.818 316.965 158.29 318 158.907C324.522 162.787 331.377 166.66 336.176 172.695C336.867 173.564 337.739 174.816 337.758 175.932L337.386 176.235C334.322 176.215 331.095 172.179 328.686 170.145C326.853 168.591 324.931 167.141 322.934 165.801C315.577 160.875 311.569 159.798 304.406 156.282Z" fill="#E8F09B"/>
<path d="M262.363 169.123C263.356 168.168 264.705 167.388 265.94 166.796C277.591 168.095 287.842 170.459 296.539 179.06C296.914 179.43 297.044 179.899 297.129 180.394C295.814 182.626 292.398 180.062 291.095 179.019C284.485 173.728 276.976 171.152 268.615 170.165C267.165 169.994 263.621 169.588 262.363 169.123Z" fill="#E8F09B"/>
<path d="M244.46 194.814C246.458 194.639 248.367 193.881 250.339 193.68C254.526 193.254 268.571 191.575 269.804 197.189L269.505 197.656C263.64 197.591 257.578 195.868 251.459 196.619C249.501 196.859 244.599 198.592 243.256 198.049C243.687 197.024 244.077 195.868 244.46 194.814Z" fill="#E8F09B"/>
<path d="M357.895 185C359.539 190.132 361.364 195.77 361.816 201.161C363.037 215.756 359.926 233.033 353.285 246.185C343.759 265.048 319.375 272.837 299.905 275.528C293.995 276.343 287.286 275.601 281.306 275.977C275.326 276.292 269.901 277.424 264.05 278.482C263.684 276.73 263.805 276.73 263.684 274.338C270.561 271.218 275.802 267.299 283.461 266.182C293.374 264.732 303.033 264.823 312.534 268.236C314.142 268.814 316.627 269.511 317.262 267.333C315.657 261.384 292.686 260.619 287.247 261.488C290.525 259.44 293.727 257.271 296.841 254.98C299.044 253.378 305.058 248.692 307.321 247.883C315.891 244.949 324.977 246.814 333.502 248.839C336.32 249.51 344.236 254.23 345.57 251.372C345.096 248.091 341.124 247.163 338.334 246.19C329.668 243.163 320.749 241.727 311.603 243.005C316.554 238.235 320.246 231.905 326.1 228.079C332.089 224.168 339.268 220.682 346.484 220.045C349.77 219.754 353.153 219.963 356.481 219.835C357.359 219.045 357.517 218.67 357.277 217.555C356.366 216.583 355.449 216.336 354.163 216.135C346.036 214.861 337.618 217.532 330.469 221.134C334.639 215.888 337.922 210.237 340.997 204.305C343.068 200.309 346.752 193.558 343.92 189.28C349.785 187.709 352.662 188.46 357.895 185Z" fill="#80B44E"/>
<path d="M306.811 189.048C314.916 192.305 323.094 192.076 329.971 186.256C333.452 188.106 336.014 189.084 339.904 189.748C335.232 203.296 328.14 210.041 317.339 218.966C318.724 214.46 321.99 195.466 319.094 192.102C318.376 191.267 318.453 191.47 317.35 191.643C317.333 191.668 315.83 207.873 315.556 210.111C313.728 225.029 305.229 228.006 293.671 235.504C296.016 226.805 299.705 218.742 298.216 209.384C297.914 207.489 297.931 204.561 295.956 203.637C295.46 203.65 294.47 203.695 294.185 204.174C293.265 205.717 294.207 208.969 294.382 210.882C295.003 217.733 291.612 234.554 286.636 239.27C282.498 243.189 269.973 248.094 264.181 250.032C270.579 241.18 273.118 231.532 272.937 220.661C272.901 218.716 269.717 218.815 269.524 220.786C268.559 230.788 266.133 245.835 256.717 251.389C254.821 252.509 243.624 254.344 241.01 253.544C232.997 251.093 234.573 234.071 237.343 228.562C243.23 230.941 252.587 231.995 257.78 227.557C261.333 224.585 262.459 217.677 262.759 213.416C273.389 213.997 278.444 210.068 283.293 200.94C287.051 201.668 289.877 202.129 293.649 201.034C301.152 198.855 303.277 195.155 306.811 189.048Z" fill="#80B44E"/>
<path d="M40.6689 290.332C37.9822 284.246 37.2574 275.077 37.8488 268.535C38.1303 265.421 39.2034 262.65 41.707 260.639C44.7169 258.221 48.6149 257.398 51.9868 255.643C66.9488 247.849 63.2457 246.531 81.3187 248.625C90.1333 249.386 95.3162 251.2 103.574 251.341C115.95 251.553 123.533 255.158 132.912 263.189C138.182 267.065 128.045 292.187 130.091 298.169C107.523 323.558 85.3808 354.794 52.2327 337.098C45.8597 326.593 44.5496 315.698 45.4625 303.811C45.8446 298.839 40.9251 295.326 40.6689 290.332Z" fill="#E8F09B"/>
<path d="M148.687 265.04C150.102 266.081 150.885 266.913 151.967 268.318C155.093 272.665 157.798 277.082 159.544 282.191C159.896 283.161 160.609 285.714 160.864 286.307C163.648 294.493 164.655 300.479 165.243 309.142C165.55 313.68 165.772 317.642 164.823 322.074C161.226 337.343 157.803 343.045 144.187 351.474L143.864 351.671C142.473 352.478 140.762 353.538 139.333 354.187C129.332 359.956 115.906 362.546 104.617 365.054C100.579 366.273 96.1673 366.3 91.9708 366.377C85.0146 366.509 80.2692 364.625 73.9037 362.331C72.6685 361.716 70.8653 360.568 69.6309 359.832C69.7919 351.905 71.3006 348.472 78.9295 345.575C79.2717 337.673 85.6394 335.662 92.2103 334.173C94.1223 321.394 98.6922 315.219 112.265 315.075C112.557 308.646 113.465 305.292 117.757 300.51C120.793 298.471 127.474 296.924 129.549 294.149C129.249 292.098 127.369 288.716 126.787 286.377C125.803 282.436 127.446 277.232 129.43 273.855C131.795 269.83 134.923 267.99 139.273 266.856L142.511 267.782L144.925 265.581C146.297 265.5 147.405 265.528 148.687 265.04Z" fill="#80B44E"/>
<path d="M164.825 322.074C162.17 322.028 159.33 322.655 156.63 322.635C147.591 322.57 138.321 320.26 130.563 315.563C129.025 314.632 127.686 313.941 127.139 312.13C127.341 311.016 127.112 311.495 127.84 310.637C129.944 310.48 131.918 312.336 133.751 313.298C136.833 314.92 139.876 315.978 143.187 317.013C146.035 317.901 161.122 319.608 165.354 318.714C165.354 318.714 165.354 320.306 164.825 322.074Z" fill="#E8F09B"/>
<path d="M139.335 354.187C138.666 353.821 133.008 352.562 131.395 351.894C123.908 348.796 116.163 344.218 110.419 338.455C109.432 337.465 108.5 336.051 108.568 334.68L109.001 334.333C111.063 334.381 113.801 337.366 115.509 338.681C118.443 340.915 121.523 342.949 124.728 344.771C131.602 348.672 136.355 350.009 143.865 351.671C142.475 352.478 140.763 353.538 139.335 354.187Z" fill="#E8F09B"/>
<path d="M159.546 282.191C159.898 283.161 160.611 285.714 160.865 286.307C157.054 288.355 148.755 293.181 145.396 287.999C145.708 287.063 147.09 286.826 148.054 286.583C152.302 285.506 155.732 284.422 159.546 282.191Z" fill="#E8F09B"/>
<path d="M100.548 365.917C98.7928 363.99 95.3501 362.495 94.6979 359.147C94.5035 358.148 94.3599 357.209 94.8688 356.359C95.481 356.591 96.6943 358.365 97.4734 359.079C99.779 361.197 102.23 363.011 104.617 365.054C102.983 365.547 102.234 365.657 100.548 365.917Z" fill="#E8F09B"/>
<path d="M40.6701 290.332C42.6427 285.193 46.3145 277.133 52.5212 275.17C53.1071 274.984 55.4597 274.896 56.2121 274.859C53.6752 280.346 53.0865 282.941 51.2585 288.205C46.0742 303.131 46.8923 314.042 52.1784 328.632C53.5277 332.356 55.0583 335.126 58.2762 337.58C52.6512 320.57 47.9729 307.69 54.0222 289.875C55.6064 285.209 55.8409 282.764 58.3332 277.819C58.8302 276.84 59.3402 275.867 59.863 274.902C62.4678 275.226 65.0527 275.596 67.6815 275.615C67.3701 279.785 66.1723 286.896 66.5066 290.71C67.6775 304.062 71.8582 318.37 80.0714 329.129C81.2508 330.672 82.7609 331.707 84.7237 331.191L85.1152 330.689C84.92 329.309 82.4198 326.751 81.5414 325.416C72.4184 311.568 67.1636 292.488 70.7803 276.072C76.5198 277.319 82.3893 278.654 87.7621 281.102C87.7325 290.595 90.363 303.368 97.0774 310.417C97.9573 311.34 99.5537 312.838 100.832 312.959C103.05 311.236 97.4704 305.949 96.4893 304.124C92.7244 297.114 91.0195 290.2 90.7952 282.228C94.4404 283.813 98.9085 285.802 102.383 287.681C106.161 289.726 116.228 296.694 117.759 300.51C113.467 305.292 112.559 308.646 112.267 315.075C98.6941 315.219 94.1242 321.394 92.2122 334.173C85.6413 335.662 79.2736 337.673 78.9314 345.575C71.3025 348.472 69.7938 351.905 69.6327 359.832C60.3377 354.437 52.189 344.762 46.7312 335.764C40.3581 325.258 40.019 317.828 40.9319 305.941C41.314 300.968 40.9263 295.326 40.6701 290.332Z" fill="#80B44E"/>
<path d="M81.3183 248.625C90.1329 249.386 96.3545 248.365 104.612 248.506C116.989 248.718 139.308 257.009 148.687 265.04C134.393 270.481 139.118 293.655 127.834 295.912C121.299 288.383 110.144 277.336 101.383 272.62C107.68 269.785 115.553 269.398 122.501 269.759C123.813 269.827 127.557 272.056 128.2 270.809C127.815 264.746 119.716 265.485 115.329 265.607C109.519 265.768 103.115 267.708 97.8649 270.123C94.2196 267.347 88.4311 264.258 84.1195 262.664C94.1345 259.412 98.2672 257.575 109.216 258.111C110.801 258.187 119.897 259.127 120.592 258.724L120.547 258.224C117.978 254.969 113.504 255.048 109.808 254.613C98.3252 253.259 89.7879 256.233 79.6559 261.138C75.9515 259.812 72.1065 258.915 68.1973 258.467C69.1582 256.419 69.7223 252.469 81.3183 248.625Z" fill="#80B44E"/>
<path d="M139.994 39.0989C149.854 33.4102 168.439 33.5831 179.483 34.8359C183.393 35.397 185.065 35.6492 188.85 36.9866C193.047 38.474 199.572 40.9833 202.907 43.8578C211.956 51.3574 235.594 69.1081 240.382 109.666C236.413 114.46 232.029 115.761 227.152 119.092C204.973 134.24 178.964 151.329 150.714 144.541C122.101 137.666 96.5853 95.4013 110.063 67.3758C116.023 54.9813 127.56 44.7243 139.994 39.0989Z" fill="#80B44E"/>
<path d="M179.484 34.8359C183.393 35.397 185.065 35.6492 188.85 36.9866C183.401 37.5841 178.377 38.9553 173.38 41.3187C170.989 42.4496 169.514 45.4576 166.849 45.2931C163.422 41.1566 176.851 35.355 179.484 34.8359Z" fill="#E8F09B"/>
<path d="M139.994 39.0989C141.465 39.8639 145.862 39.6425 147.653 39.7717C155.161 40.3133 162.562 46.7905 162.977 54.4386C166.853 54.4502 171.444 54.2183 174.254 57.3374C177.889 61.3717 181.13 67.171 179.256 72.6512C183.947 70.7259 187.868 69.2703 192.947 71.1321C196.812 72.5494 197.026 75.9528 198.761 76.7173C207.175 72.3049 215.699 76.6794 220.362 83.7773C219.246 85.1973 218.396 85.4701 216.977 86.5982C215.848 84.9056 213.285 82.3144 211.914 81.5521C206.182 78.3664 200.856 80.7981 195.277 81.8997C194.447 82.0636 193.854 78.4068 193.177 77.2691C189.188 70.5606 177.876 78.7521 174.893 77.8107C174.795 71.5347 177.566 68.0604 172.395 61.9542C168.908 57.8367 163.908 59.2048 159.189 58.6446C158.962 56.7335 159.792 54.2183 158.812 52.5348C149.375 36.3194 137.698 47.5581 132.07 43.3574C134.229 41.5517 137.402 40.2715 139.994 39.0989Z" fill="#4E7D33"/>
<path d="M202.906 43.8578C209.879 46.1995 220.121 56.0832 227.664 60.0994C230.628 61.6772 239.972 64.919 241.318 67.2734C243.041 70.2887 242.644 104.408 241.47 108.038C241.253 108.707 240.858 109.164 240.381 109.666C238.11 108.873 232.821 107.032 230.208 107.29C224.503 107.854 210.772 112.739 206.283 116.022C203.039 118.394 198.442 133.379 195.982 134.348C192.483 131.252 199.289 119.753 201.286 116.368C193.271 118.99 182.727 117.88 174.639 120.887C168.743 123.08 161.133 138.822 158.55 139.766L158.176 139.487C156.868 132.728 165.521 124.076 169.803 119.834C157.839 120.165 144.863 116.228 133.538 121.08C131.759 121.842 128.405 124.045 126.768 124.207C125.734 123.719 126.071 124.087 125.598 123.199C126.081 118.697 135.211 116.688 138.751 116.072C134.792 114.903 131.355 113.451 128.137 110.794C124.998 108.202 111.044 98.5255 115.414 94.1336C116.019 93.9827 116.33 93.8588 116.887 94.331C124.182 100.514 131.131 106.591 140.95 107.86C129.842 96.9816 116.854 75.2911 118.327 58.9832C118.393 58.2554 118.764 57.8802 119.33 57.5278C121.392 58.3576 122.182 65.2117 122.722 67.2801C126.491 81.7355 134.884 96.4245 145.546 106.839C149.808 111.002 163.833 109.28 169.601 108.735C162.886 104.254 157.086 99.3529 151.78 92.8043C147.252 87.2166 139.607 74.236 139.856 66.5983C139.943 63.9237 142.613 67.4174 142.989 68.4043C148.88 83.8803 159.635 99.2973 174.726 106.952C180.705 109.985 198.888 100.01 204.599 97.3599C200.901 97.3746 198.599 98.0256 194.469 97.4315C184.677 96.0374 175.15 91.8661 167.277 85.9046C165.43 84.5057 160.827 81.1885 161.201 78.5961C163.772 76.673 169.603 82.6385 172.102 84.148C180.514 89.2308 189.599 93.5809 199.6 93.9367C211.229 94.3507 219.618 84.7169 225.982 76.1419C224.305 71.8114 217.698 62.629 213.157 60.4701C206.78 57.3301 199.683 57.3047 192.995 59.4063C190.562 60.1711 186.203 63.6073 183.962 62.3105C183.151 60.1835 185.142 58.9138 186.81 57.9225C193.784 53.7774 202.761 53.4183 210.516 55.1794C207.949 52.7466 204.029 45.6755 202.906 43.8578Z" fill="#E8F09B"/>
<path d="M355.738 180.915C356.612 182.112 357.707 183.493 357.893 185C352.635 188.476 346.125 189.918 339.904 189.748C336.014 189.084 333.452 188.106 329.971 186.256C323.094 192.076 314.916 192.305 306.811 189.048C303.277 195.155 301.153 198.855 293.649 201.034C289.877 202.129 287.051 201.668 283.293 200.94C278.444 210.068 273.389 213.997 262.76 213.416C262.459 217.677 261.333 224.585 257.781 227.557C252.587 231.995 243.23 230.941 237.343 228.562C235.257 227.065 234.452 226.094 232.777 224.17C233.089 223.295 234.112 221.707 234.628 220.847C238.958 225.227 244.174 228.094 250.593 226.616C260.418 224.17 258.469 209.04 259.662 209.099C267.874 209.507 274.96 209.797 278.864 200.992C279.4 199.782 280.61 196.197 282.162 195.948C289.183 198.754 296.301 197.902 300.87 191.435C302.642 188.93 303.545 186.081 305.257 183.666L305.449 183.402C309.897 184.748 312.309 186.96 317.802 186.815C323.435 186.666 326.251 184.358 329.977 180.529C333.382 182.858 336.46 184.852 340.699 185.31C346.099 185.907 351.512 184.325 355.738 180.915Z" fill="#4E7D33"/>
<path d="M148.687 265.04C150.102 266.081 150.885 266.913 151.967 268.318C150.352 269.906 149.266 269.383 147.069 270.112C146.066 270.444 145.575 272.028 144.551 272.239C142.913 272.576 141.817 271.465 140.163 271.666C136.611 272.099 134.773 273.844 133.067 277.04C131.8 279.412 130.023 283.884 130.962 286.451C132.69 291.176 137.267 297.196 129.596 299.74C118.636 303.376 116.8 308.694 115.899 319.605C109.776 319.49 105.908 319.055 100.991 323.642C97.4835 326.914 96.7571 332.356 96.7032 336.971C91.9395 338.963 85.4155 339.713 83.8465 344.142C83.1407 346.136 83.201 347.31 82.8665 349.279C80.0813 350.015 76.9114 350.176 75.1974 352.907C73.7887 355.152 73.9201 359.677 73.9037 362.331C72.6685 361.716 70.8653 360.568 69.6309 359.832C69.7919 351.905 71.3006 348.472 78.9295 345.575C79.2717 337.673 85.6394 335.662 92.2103 334.173C94.1223 321.394 98.6922 315.219 112.265 315.075C112.557 308.646 113.053 304.887 117.757 300.51C120.435 298.019 127.782 296.913 128.962 293.655C129.668 291.706 127.369 288.716 126.787 286.377C125.803 282.436 127.446 277.232 129.43 273.855C131.795 269.83 134.778 266.856 139.273 266.856C141.099 266.856 141.233 268.093 142.511 267.782C143.75 267.48 143.631 266.574 144.925 265.581C146.016 264.744 147.405 265.528 148.687 265.04Z" fill="#4E7D33"/>
</svg>
