<svg width="400" height="400" viewBox="0 0 400 400" fill="none" xmlns="http://www.w3.org/2000/svg">
<path d="M239.65 98.2634C247.797 86.3328 261.125 84.9429 273.499 86.4929C275.165 86.7023 278.559 64.1273 305.447 73.0867C308.374 67.9458 311.763 64.8232 317.715 62.8594C327.854 59.5135 341.368 62.1224 350.732 67.2795C368.008 75.2631 355.904 91.7961 343.054 95.5862L342.661 95.6981C346.344 105.426 341.991 116.689 334.518 123.351C338.42 132.344 338.817 139.726 336.238 148.885C344.761 147.731 355.28 142.973 363.879 148.688C372.019 154.098 359.783 162.926 357.728 168.176C350.408 186.057 366.547 212.206 350.131 226.485C337.143 237.78 339.331 250.891 337.411 267.729C336.349 277.049 328.955 287.46 318.196 286.946C313.006 287.09 311.037 287.398 306.529 284.592C288.691 301.339 264.937 328.076 240.475 333.654C232.609 329.944 226.186 331.92 213.632 335.386C197.833 333.302 165.908 316.604 160.608 312.886C147.627 306.228 149.302 317.021 136.757 317.098C94.7597 317.354 105.973 297.262 90.1581 278.517C74.3666 259.808 52.5737 256.41 54.7509 225.981C55.6775 213.029 59.0818 200.872 53.8077 188.192C48.2659 174.871 33.407 166.665 33.1777 151.607C35.0674 149.307 37.2816 148.315 40.0623 147.468C51.2345 144.063 62.5465 146.657 72.571 152.208C72.7175 145.373 72.6332 142.238 76.1775 136.203C66.1076 132.652 57.5896 122.101 59.8295 111.02C56.9209 106.263 54.3766 102.475 53.26 96.8014C51.4489 87.7869 56.683 75.3261 66.6869 73.9303C75.8509 72.6516 85.3388 77.8593 92.4408 83.0852C100.873 77.441 115.698 81.4597 122.612 87.7706C131.978 80.4258 148.041 82.7799 158.176 86.9534C162.977 88.9304 168.482 91.4389 171.029 96.2653C181.224 108.101 207.905 113.213 225.27 101.424C228.547 99.1997 235.694 98.2143 239.65 98.2634Z" fill="#7FB069"/>
<path d="M181.224 100.195C188.933 95.6883 222.233 101.677 233.597 108.101C236.561 114.524 243.951 117.769 245.949 119.959C251.168 114.721 256.043 115.051 259.783 111.559C261.76 111.559 271.918 114.469 275.594 117.488C282.838 113.425 287.774 108.697 296.012 112.495C303.878 115.397 304.656 124.563 308.698 132.805C313.049 141.693 319.995 150.098 319.995 164.082C313.722 176.297 315.731 180.288 316.845 193.106C302.769 194.565 292.062 202.89 290.824 217.955C265.712 221.246 285.476 253.855 277.704 262.064C275.485 261.439 276.339 256.166 271.414 256.308C271.019 247.324 267.041 239.933 259.613 235.154C268.677 208.893 237.056 187.648 218.843 222.276C204.446 220.257 194.857 230.655 191.828 242.402C179.033 247.65 175.079 260.646 171.031 272.203C167.355 282.697 162.863 292.211 151.537 295.524C143.04 280.006 141.384 261.931 122.871 254.522C123.144 241.61 124.899 227.669 108.236 221.31C110.578 207.955 101.677 192.589 90.6585 186.234C91.3011 179.743 88.3366 169.861 82.1875 161.686C91.3011 157.015 98.7124 158.497 105.63 147.133C108.884 146.615 118.155 144.112 121.44 144.663C122.171 129.543 122.648 135.706 133.298 125.393C138.985 121.865 140.908 113.623 149.603 120.452C151.865 116.981 156.356 116.741 159.979 115.018C162.421 101.551 171.253 94.875 181.224 100.195Z" fill="#F6F7F2"/>
<path d="M196.501 232.152C192.746 230.767 191.771 226.115 195.081 224.143C196.004 223.59 197.123 223.464 198.146 223.8C199.81 224.346 200.627 225.613 201.329 227.103C199.559 228.714 197.906 230.186 196.501 232.152Z" fill="#C9CCBE"/>
<path d="M102.584 198.091L103.775 196.897C108.501 192.196 114.488 195.222 109.755 200.546C108.969 201.431 105.897 201.266 104.713 201.73C104.269 201.219 102.991 198.822 102.584 198.091Z" fill="#C9CCBE"/>
<path d="M177.703 255.782C177.188 255.028 175.177 254.347 174.75 253.47C173.282 250.448 177.233 246.575 180.25 248.012C181.269 248.499 181.422 248.835 181.752 249.804C180.135 251.79 179.083 254.045 177.703 255.782Z" fill="#C9CCBE"/>
<path d="M277.601 234.43C276.239 233.936 269.399 235.465 271.837 229.003C272.761 226.554 276.417 228.471 277.867 230.141C277.674 231.757 277.571 232.609 277.601 234.43Z" fill="#C9CCBE"/>
<path d="M150.141 292.971C152.716 288.586 155.517 287.793 157.509 292.887C157.807 293.115 153.062 295.358 151.538 295.523L150.141 292.971Z" fill="#C9CCBE"/>
<path d="M228.891 209.264C227.807 204.1 234.232 199.548 237.55 204.793C233.462 206.086 232.387 207.121 228.891 209.264Z" fill="#C9CCBE"/>
<path d="M166.831 273.749C168.32 272.282 168.978 271.998 171.031 272.203C170.327 274.873 169.366 277.077 168.181 279.547C166.731 277.222 166.019 276.734 166.831 273.749Z" fill="#C9CCBE"/>
<path d="M112.838 223.39C116.76 221.438 120.425 224.497 118.272 228.143C116.35 226.006 115.112 225.117 112.838 223.39Z" fill="#C9CCBE"/>
<path d="M153.566 253.61C156.758 252.68 158.191 255.577 158.246 258.309C158.301 261.041 156.285 262.111 155.032 262.961C153.78 263.811 154.223 263.282 153.464 263.136C152.704 262.991 152.33 263.436 151.193 261.538C150.056 259.639 150.374 254.541 153.566 253.61Z" fill="#C9CCBE"/>
<path d="M182.931 150.586C188.535 149.324 190.374 156.237 184.724 158.468C181.652 159.682 179.647 158.704 179.205 155.589C178.831 152.959 180.286 151.182 182.931 150.586Z" fill="#C9CCBE"/>
<path d="M136.475 217.426C139.432 215.979 139.998 218.809 140.672 220.233C141.347 221.656 141.131 222.485 140.684 223.928C140.236 225.372 141.568 226.363 137.923 226.947C134.277 227.531 133.518 218.873 136.475 217.426Z" fill="#C9CCBE"/>
<path d="M131.743 249.912C137.428 249.552 136.779 255.555 131.625 257.645C124.902 257.499 126.755 252.393 131.743 249.912Z" fill="#C9CCBE"/>
<path d="M285.82 135.792C291.093 133.813 293.287 141.023 287.937 143.338C283.066 145.444 280.344 137.848 285.82 135.792Z" fill="#C9CCBE"/>
<path d="M151.391 236.088C157.582 235.071 156.937 242.186 151.939 244.129C147.809 245.735 145.68 237.025 151.391 236.088Z" fill="#C9CCBE"/>
<path d="M279.357 203.92C281.775 203.377 283.761 204.868 283.811 207.295C283.864 209.836 282.463 211.5 279.834 211.883C272.786 212.907 274.772 204.95 279.357 203.92Z" fill="#C9CCBE"/>
<path d="M147.37 148.842C152.527 147.723 153.518 154.802 148.566 156.943C148.053 157.165 147.272 157.119 146.723 157.069C145.974 157 145.288 156.613 144.854 155.998C143.163 153.599 144.769 149.406 147.37 148.842Z" fill="#C9CCBE"/>
<path d="M299.548 182.23C302.124 181.128 302.747 182.09 303.731 184.602C304.181 185.751 304.134 187.185 303.746 188.361C303.252 189.855 302.569 191.216 301.006 191.206C296.532 191.18 294.748 184.282 299.548 182.23Z" fill="#C9CCBE"/>
<path d="M261.033 170.134C266.039 168.055 268.606 175.205 263.163 177.473C257.836 179.693 255.915 172.26 261.033 170.134Z" fill="#C9CCBE"/>
<path d="M184.829 202.034C190.281 199.605 192.916 206.378 188.099 209.027C182.873 211.901 180.17 204.11 184.829 202.034Z" fill="#C9CCBE"/>
<path d="M152.761 191.64C158.523 189.892 159.438 197.543 154.51 199.223C148.329 201.329 148.287 192.997 152.761 191.64Z" fill="#C9CCBE"/>
<path d="M181.062 114.279C186.841 112.351 187.544 119.476 182.921 121.786C177.422 124.534 176.545 115.787 181.062 114.279Z" fill="#C9CCBE"/>
<path d="M233.949 148.139C236.689 146.904 238.835 148.305 239.292 151.137C239.682 153.549 238.226 154.881 235.861 155.456C230.342 156.799 228.97 150.383 233.949 148.139Z" fill="#C9CCBE"/>
<path d="M114.153 161.479C119.616 159.312 121.264 166.171 116.684 168.77C111.472 171.728 109.522 163.317 114.153 161.479Z" fill="#C9CCBE"/>
<path d="M207.301 174.313C212.699 172.26 213.84 179.673 209.52 181.434C204.257 183.578 203.078 175.918 207.301 174.313Z" fill="#C9CCBE"/>
<path d="M169.106 222.088C169.404 222.062 169.625 222.044 169.858 222.231C170.628 222.851 171.355 223.537 171.256 224.544C170.972 227.442 170.245 230.074 166.961 229.68C163.793 229.299 163.577 226.096 165.434 223.751C166.601 222.276 167.359 222.241 169.106 222.088Z" fill="#C9CCBE"/>
<path d="M148.774 270.693C149.783 270.57 150.12 270.241 150.949 270.765C153.435 272.335 151.571 277.153 148.909 277.405C143.828 277.887 145.452 272.749 148.774 270.693Z" fill="#C9CCBE"/>
<path d="M227.332 253.492C227.883 247.578 230.405 240.29 235.262 236.483C235.87 236.009 236.441 235.749 237.211 235.89C237.935 236.639 238.163 238.546 237.777 239.215C234.39 245.11 233.59 249.065 233.58 255.9C236.031 252.301 241.134 247.746 245.292 246.078C247.429 245.221 248.985 246.226 250.875 247.18C246.231 252.985 238.484 256.38 234.608 262.521C236.122 269.567 239.563 277.855 242.407 284.56C244.81 280.639 245.964 277.003 249.425 273.46C251.068 271.78 259.979 262.536 262.311 264.92C262.597 267.912 254.201 275.103 251.792 278.05C249.702 280.577 247.958 283.376 246.609 286.366C246.236 287.196 244.667 291.18 244.712 291.907C245.218 300.222 247.078 308.328 245.944 316.759C250.72 311.369 258.217 305.136 263.843 300.706C267.175 298.08 281.4 282.418 283.505 281.981L283.732 282.415C283.848 295.047 261.024 310.514 252.367 318.071C246.505 323.19 243.706 326.455 240.475 333.654C231.884 340.206 220.751 339.825 213.633 335.386C214.891 332.634 222.301 327.651 217.674 323.108C207.586 313.202 192.208 309.664 182.905 298.75C181.242 296.798 178.994 291.457 181.479 289.686C182.862 290.111 184.564 293.624 185.62 294.898C194.581 305.706 217.654 311.248 223.011 324.657C234.608 302.769 224.642 286.214 211.76 279.698C208.966 278.285 194.695 272.877 196.011 269.325C196.931 268.986 198.383 269.176 199.333 269.428C210.241 272.324 222.556 278.077 228.866 287.613C227.439 279.075 227.693 268.875 225.709 260.552C224.968 257.435 219.885 251.14 217.755 248.583C215.145 245.453 210.978 243.195 208.127 239.905C208.048 238.222 209.649 237.108 211.045 237.632C217.693 240.124 223.786 247.746 227.332 253.492Z" fill="#F6F7F2"/>
<path d="M114.717 299.933C108.965 290.768 107.081 280.133 100.662 271.131C92.4527 259.618 74.6478 257.689 69.4631 244.371C60.8614 222.276 77.962 189.624 48.7484 163.706C47.8109 162.699 47.5577 161.424 48.9142 160.639C55.1606 160.296 64.2851 172.265 66.295 177.854C67.4368 176.918 69.2835 174.973 70.7242 175.847C71.7563 178.309 69.4863 183.573 70.0216 185.816C71.496 191.994 72.7 197.34 73.2944 203.704C73.832 209.884 74.1858 216.077 74.3557 222.276C74.5057 228.012 74.3765 232.145 74.9857 237.854C76.1186 226.451 79.5836 216.421 89.4408 209.919C87.1329 222.093 77.9013 234.452 80.5821 247.222C82.3586 248.724 85.0766 250.097 87.1967 251.155C93.0313 254.065 97.3335 256.419 101.993 261.19C106.868 266.18 111.597 273.594 114.748 279.787C118.268 286.704 116.71 287.26 122.313 293.196C120.13 286.781 120.021 281.138 125.327 276.375C127.853 283.043 126.53 290.266 129.762 297.06C132.132 302.04 144.429 301.312 149.181 304.036C153.53 306.532 156.986 309.706 160.609 312.886C158.512 314.716 155.516 313.026 153.522 311.742C149.181 314.627 132.311 327.967 114.717 299.933Z" fill="#F6F7F2"/>
<path d="M341.319 184.893C341.154 175.849 339.782 166.688 346.766 159.505C348.394 157.831 354.17 153.761 353.387 159.334C352.95 162.449 349.215 166.585 349.069 170.196C348.031 183.072 351.156 196.026 347.218 208.54C343.762 219.516 335.358 221.836 333.056 233.084C331.949 238.694 331.526 245.154 331.714 250.873C332.018 260.076 333.577 268.584 328.94 277.154C324.246 285.83 315.463 290.154 306.528 284.592C309.685 280.536 311.296 275.343 312.652 271.689C309.7 260.12 303.094 247.721 293.635 240.169C292.158 238.988 287.128 235.614 287.341 233.855C287.854 233.291 288.662 232.619 289.413 232.726C294.134 233.388 301.662 238.993 304.752 242.145C309.07 246.548 315.627 257.173 317.126 262.83C319.602 256.019 319.73 251.775 320.57 244.764C321.484 237.125 321.538 230.084 318.628 222.733C316.499 217.354 311.168 213.834 308.366 208.112C309.668 205.378 313.176 207.797 314.918 208.978C320.617 212.844 324.194 219.63 326.842 225.794C328.589 222.256 331.43 219.287 333.545 216.132C337.221 210.648 342.853 202.369 340.484 195.514C338.77 190.551 335.605 185.005 331.978 181.192C329.508 178.679 325.82 177.163 324.335 173.943C325.521 173.473 326.694 172.983 327.917 172.624C334.118 174.691 338.285 179.208 341.319 184.893Z" fill="#F6F7F2"/>
<path d="M72.0527 94.0197C72.4465 92.9752 72.9421 91.6693 73.8986 91.0127C74.3816 90.6809 75.3913 90.6893 75.5415 90.8519C77.7055 93.1904 80.2678 97.8577 82.1686 100.334C88.2547 108.264 93.9535 111.898 103.278 115.07C103.109 108.761 98.3656 101.293 98.2648 97.1682L98.5618 96.9432C99.6542 97.1606 100.962 97.4217 101.693 98.3083C106.138 103.699 107.034 110.032 107.218 116.464C113.372 118.364 120.494 124.27 125.394 128.358C124.019 130.194 122.053 133.468 120.947 134.781C116.34 130.768 110.819 126.682 105.502 123.672C97.6055 126.447 85.87 125.775 78.5944 121.46C79.3232 120.484 80.0984 119.674 80.9188 118.779C86.7342 120.282 91.9292 121.135 97.9703 120.757C86.4283 116.855 74.9537 106.038 72.0527 94.0197Z" fill="#F6F7F2"/>
<path d="M298.231 97.7421C309.128 86.8293 321.86 74.6512 338.296 73.6257C341.547 73.2596 343.894 75.7181 341.675 78.5258C340.951 79.4425 335.628 79.528 334.341 79.9749C325.168 83.1583 317.114 88.2584 310.027 94.8552C307.932 96.8041 306 99.3627 303.777 101.128C307.603 101.219 311.482 101.49 315.227 100.502C318.597 99.6127 321.961 97.4691 325.418 97.0842C326.732 96.9378 328.982 98.48 329.005 100.088C328.538 101.251 327.616 101.609 326.527 102.081C319.338 105.2 315.677 106.603 307.566 106.142C305.18 106.007 302.905 106.2 300.232 105.884C299.029 107.555 296.966 110.684 296.012 112.495C294.359 111.733 290.832 111.782 289.695 110.742C291.121 107.999 293.302 104.749 295.059 102.175C292.534 97.8365 292.025 92.7267 293.27 87.8612C293.984 85.0729 296.032 80.2239 299.115 84.3804C299.357 85.1316 298.962 86.3389 298.759 87.1475C297.746 91.1819 297.576 93.6748 298.231 97.7421Z" fill="#F6F7F2"/>
<path d="M135.71 118.774C135.902 115.211 136.101 112.095 135.989 108.344C135.917 105.211 134.327 101.665 134.975 98.6034C135.399 97.7824 137.461 97.0616 137.994 97.8738C141.285 102.883 141.015 110.467 140.942 116.043C139.111 116.926 137.444 117.697 135.71 118.774Z" fill="#F6F7F2"/>
<path d="M90.4558 142.674C95.6605 143.369 100.929 144.064 106.19 143.842L106.486 144.16C106.203 144.405 100.596 148.625 100.44 148.685C98.0178 148.675 90.4516 147.774 88.5749 146.047C88.0519 145.566 88.1581 145.14 88.2001 144.582C88.7782 143.613 89.4934 143.291 90.4558 142.674Z" fill="#F6F7F2"/>
<path d="M260.833 98.5525C262.08 97.7538 263.118 97.0559 264.511 97.9381C265.964 100.116 264.2 106.351 263.864 109.652C263.217 110.256 258.671 110.625 258.18 109.896C258.36 106.292 259.207 101.788 260.833 98.5525Z" fill="#F6F7F2"/>
<path d="M313.114 133.017C315.189 132.45 319.369 130.894 320.609 133.323C320.313 135.798 316.303 137.19 314.221 137.884L311.32 136.362C311.641 135.233 311.96 133.517 313.114 133.017Z" fill="#F6F7F2"/>
<path d="M271.414 256.308C274.828 256.209 277.319 258.539 277.336 261.961C275.016 261.533 273.317 261.746 271.096 262.383C271.387 260.088 271.397 258.606 271.414 256.308Z" fill="#C9CCBE"/>
<path d="M181.285 97.5675C191.068 91.848 197.208 91.9824 204.516 98.9692C216.458 91.5181 223.221 97.7249 226.331 102.524C233.664 103.089 238.054 105.93 239.817 113.215C242.525 114.2 243.958 114.816 245.956 117.006C254.843 106.124 267.89 107.46 276.864 114.83C297.914 98.0812 316.18 124.899 313.112 133.017C312.65 134.287 318.678 142.152 318.204 145.618C317.591 150.118 325.388 150.458 325.388 157.025C323.275 159.212 322.038 160.967 319.995 164.082C319.572 163.726 318.799 163.212 318.898 162.571C319.97 155.702 317.006 153.466 311.571 150.458C311.43 146.786 311.635 142.811 308.754 139.96C306.711 137.937 303.774 139.527 303.957 136.02C304.331 128.819 304.453 126.913 299.816 122.012C295.879 117.847 285.945 115.279 280.639 117.542C277.728 118.784 276.365 124.151 271.352 119.398C268.536 117.024 262.535 115.511 258.627 116.072C252.088 117.01 250.067 118.979 245.653 123.29C240.514 118.476 234.782 119.326 234.032 115.698C233.624 113.752 234.602 111.725 232.71 110.321C229.768 108.139 227.302 110.584 224.952 109.671C220.826 108.069 222.62 100.84 210.691 103.022C208.09 103.497 205.274 104.318 202.804 105.261C194.765 97.7471 189.54 99.3541 180.512 104.084C170.118 100.999 162.943 108.595 162.023 116.765C156.557 118.117 153.061 119.464 150.359 123.944C142.192 120.453 139.745 122.848 136.79 130.401C122.333 132.758 127.863 141.698 123.412 149.525C117.982 147.627 102.171 146.639 100.574 159.1C93.2775 159.1 89.8189 159.1 86.0107 167.835C84.7528 166.056 83.651 163.757 82.1875 161.686C86.0107 155.038 91.3011 151.086 98.0073 153.522C99.7005 143.675 109.073 141.126 118.835 142.763C118.636 128.712 123.412 122.923 131.855 123.52C133.792 115.018 142.838 112.739 148.995 117.575C151.257 114.103 153.501 112.906 157.124 111.182C158.498 103.608 164.62 99.4646 171.029 96.2654C175.029 95.4902 177.604 95.6033 181.285 97.5675Z" fill="#C9CCBE"/>
</svg>
