<svg width="400" height="400" viewBox="0 0 400 400" fill="none" xmlns="http://www.w3.org/2000/svg">
<path d="M199.457 106.842C200.192 105.466 202.768 100.332 203.717 99.5424C204.836 102.03 205.423 102.153 206.643 104.281C206.616 108.403 206.11 111.439 204.04 113.88C203.326 113.104 200.229 108.052 199.457 106.842Z" fill="#DEE777"/>
<path d="M129.752 143.6C133.872 144.321 136.028 145.154 140.106 143.799C142.345 147.37 145.056 149.397 148.151 152.106C139.308 155.973 139.527 149.232 134.542 150.009C132.661 148.759 130.813 145.594 129.752 143.6Z" fill="#DEE777"/>
<path d="M45.146 127.558C46.7953 123.857 47.9969 121.228 52.2959 120.308C56.6769 121.929 56.085 123.486 58.2034 126.995C59.4189 128.885 62.2577 127.023 64.1073 127.412C71.9146 129.054 72.1276 142.249 76.5352 147.326C78.1495 147.191 96.6038 157.072 99.3213 158.875C90.1118 162.638 85.6584 153.765 80.8903 157.694C78.61 156.364 75.7809 155.065 73.6911 153.567C71.3724 153.41 66.3745 155.713 65.5628 157.778C66.0891 159.179 68.694 159.214 69.987 159.333C73.4421 159.654 76.4185 161.286 77.9686 164.483C78.9714 166.339 79.1153 168.037 79.8134 169.594C81.9432 169.565 82.6909 169.482 84.4315 170.972C88.1181 174.129 92.0624 178.12 95.9839 180.944C97.665 182.681 100.572 185.474 102.698 186.674L107.185 190.497C104.753 191.109 104.378 191.517 102.61 193.316C99.2469 190.572 96.3771 188.253 91.9751 190.707C87.373 186.528 82.2086 182.849 77.5458 178.434C74.0206 179.556 65.9608 189.891 60.3541 185.543C58.9486 184.453 59.212 180.932 59.3023 179.32C56.9828 180.901 55.6474 183.217 52.8715 182.98C48.0885 182.573 45.6088 178.811 47.1662 173.921C37.5916 177.733 23.0042 162.942 34.0491 158.078C36.5794 156.964 38.9506 160.552 41.888 161.305C45.0572 160.529 41.3706 153.529 51.3875 154.537C49.0133 153.276 45.7935 152.617 43.2895 150.714C39.9149 148.149 36.4541 146.003 39.588 142.063C37.1751 140.971 35.4641 139.077 34.2045 136.738C31.4897 131.699 28.2398 124.598 34.6817 120.96C38.799 122.48 41.8313 124.703 45.146 127.558Z" fill="#80B44E"/>
<path d="M77.5452 178.434C68.4606 173.179 59.3604 172.295 56.0189 171.409C54.9124 171.116 52.4853 168.548 52.6207 167.219C53.3765 166.579 57.3169 167.644 58.6145 167.786C70.4849 170.142 79.3393 166.613 84.4309 170.972C88.1175 174.129 92.0618 178.12 95.9832 180.944C97.6644 182.681 100.572 185.474 102.697 186.674L107.185 190.497C104.753 191.109 104.377 191.517 102.609 193.316C99.2463 190.572 96.3764 188.253 91.9745 190.707C87.3724 186.528 82.208 182.849 77.5452 178.434Z" fill="#DEE777"/>
<path d="M45.959 134.073C47.5989 132.455 50.1666 134.946 51.5952 135.809C67.0091 145.118 84.1494 147.876 99.3216 158.875C90.112 162.638 85.6587 153.765 80.8906 157.694C73.3923 153.32 47.713 139.779 45.959 134.073Z" fill="#DEE777"/>
<path fill-rule="evenodd" clip-rule="evenodd" d="M121.597 82.5939C139.518 92.0396 136.822 93.7277 144.507 110.422L173.336 145.37C178.067 151.053 184.239 157.544 188.57 163.252C187.66 159.967 185.934 145.97 184.532 143.846C169.818 121.561 173.337 106.885 176.695 108.909C180.09 112.055 184.614 116.5 196.579 114.542C201.43 121.8 206.784 127.641 211.807 134.627C210.496 130.223 211.483 129.634 209.033 124.91C208.639 122.573 214.206 119.536 215.375 120.356C220.474 125.873 220.785 138.862 223.735 144.585C258.739 188.867 292.607 232.518 330.177 270.821C340.405 281.25 362.82 311.709 368.207 332.816C355.397 332.816 344.166 332.64 331.951 331.006C329.25 321.426 326.194 311.521 322.579 302.227C307.321 264.986 276.309 233.906 248.749 199.189C237.963 186.63 219.643 163.564 208.958 154.506C211.789 160.023 216.106 164.642 219.643 169.624C227.958 181.343 237.456 191.619 246.717 202.561C260.882 219.514 274.701 236.755 288.162 254.272C290.902 257.88 293.905 261.307 296.681 264.986C308.13 280.385 314.912 292.103 322.639 313.711C310.413 306.92 298.417 296.906 288.47 286.951C273.921 272.391 258.739 247.57 252.666 239.473C240.787 221.148 220.066 191.879 212.439 178.169C209.647 177.74 207.626 176.721 203.623 176.089C237.783 219.23 265.461 278.439 309.582 310.04C314.886 313.689 318.171 315.577 324.139 317.839C325.443 321.885 327.563 326.515 328.069 330.564C300.236 322.467 285.336 311.947 266.474 296.776C238.497 259.209 214.206 221.255 184.854 181.782C180.806 182.288 171.094 179.758 168.66 177.733C177.263 188.361 181.249 202.61 180.893 202.834C179.952 203.424 207.679 220.17 206.564 218.967L246.785 274.603C222.808 252.63 197 233.906 169.3 212.497C166.463 213.621 158.61 213.299 155.455 212.783C191.928 240.38 231.416 269.32 265.461 299.679C280.811 313.227 301.272 325.761 318.636 331.566C331.852 335.99 345.343 337.418 359.324 336.7C362.489 336.538 365.732 336.674 368.981 336.456C369.027 349.03 353.63 359.89 344.351 366.006C330.587 366.101 315.76 361.151 303.513 355.424C235.216 322.857 184.614 255.282 117.572 211.211C110.607 208.662 88.7027 208.603 96.7997 200C110.893 199.084 95.2815 176.215 95.2815 170.383C87.6469 165.08 117.699 175.398 113.5 167.106C140.92 167.106 130.847 161.033 150.442 164.544C151.494 165.515 161.886 162.643 163.107 163.901C166.216 165.523 169.89 167.234 173.155 168.472C173.239 168.504 179.958 170.058 179.77 170.05C179.534 169.08 177.384 166.727 176.695 165.687C164.878 147.866 150.476 130.199 136.822 113.714C132.758 109.27 118.56 94.7439 121.597 82.5939ZM117.296 186.624C115.781 185.997 100.366 175.476 98.8239 176.215C96.7804 177.196 104.531 189.394 103.378 189.373C108.812 194.001 113.779 194.682 119.103 199.574C123.167 202.108 129.071 205.374 133.826 206.434C131.268 201.442 122.176 189.029 117.296 186.624ZM116.536 168.118C117.546 169.851 117.296 172.166 120.379 174.527C127.837 182.311 135.26 188.867 140.489 199.014C145.225 204.511 154.996 204.342 162.301 204.342C153.621 195.643 142.69 189.462 133.771 181.036C126.657 170.383 121.412 171.507 116.536 168.118ZM163.86 185.98C161.576 183.3 156.17 183.805 154.212 185.905C156.095 187.127 167.277 196.38 168.278 196.365C168.487 195.087 164.486 187.693 163.86 185.98ZM198.979 153.916C199.559 157.001 199.649 162.635 202.272 164.544C203.149 165.183 205.219 165.525 206.309 165.66C204.981 163.038 200.91 156.039 198.979 153.916ZM192.99 130.159C192.6 130.627 192.374 130.865 192.049 131.388C195.43 135.282 198.329 140.072 202.16 143.536C198.979 138.767 195.977 134.437 192.99 130.159Z" fill="#DEE777"/>
<path d="M79.1826 107.693C85.8026 110.278 83.6734 115.16 89.1695 117.82C93.2017 116.418 99.5607 116.174 101.936 120.648C103.439 123.48 104.88 129.934 104.078 133.246C103.835 134.253 106.433 135.063 107.297 135.926C110.134 138.761 104.797 147.38 105.105 149.536C104.078 153.252 105.105 156.384 97.1432 153.252C94.0236 152.025 90.7411 150.609 87.69 149.536C82.3362 147.653 82.9217 143.805 81.6173 139.273C81.1269 137.569 79.0789 136.793 78.3673 134.914C75.6688 127.788 72.2663 119.559 74.5542 111.893C75.3406 109.441 77.1042 108.559 79.1826 107.693Z" fill="#80B44E"/>
<path d="M97.1447 153.252C93.4827 148.687 88.1975 131.682 90.266 124.559C92.2685 125.014 89.7157 136.236 105.107 149.536C110.539 153.061 116.526 156.508 121.284 160.89C126.983 167.72 125.225 165.474 132.391 169.721C128.985 173.665 128.803 174.276 130.848 178.89C128.051 177.32 121.938 172.505 118.884 170.383C118.337 169.627 117.416 168.95 116.66 168.375C114.306 166.582 113.164 163.367 110.966 161.392C108.945 159.575 105.764 158.878 103.182 158.112C100.426 156.198 99.6105 155.511 97.1447 153.252Z" fill="#DEE777"/>
<path d="M115.145 89.3524C112.361 87.1095 109.876 84.0815 109.133 80.5522C107.927 74.8302 108.21 67.6917 113.964 64.7242C119.422 67.6006 118 71.9239 124.017 74.8869C129.241 66.2821 131.373 69.996 134.428 77.2489C141.706 71.7409 146.241 78.6349 143.863 86.1364C146.14 82.4516 149.573 85.6937 150.458 88.9288C152.165 95.1728 147.56 104.766 144.507 110.422C134.754 100.812 130.451 84.9164 122.532 85.7067C122.25 86.0883 121.896 86.6045 122.105 87.1416C123.348 90.3445 126.25 91.7334 128.175 94.7394C130.295 98.0488 131.211 102.836 136.822 113.714C133.646 110.242 128.317 111.554 124.257 111.73C116.91 112.05 117.042 103.342 120.301 101.279C113.615 99.5545 110.248 95.4739 115.145 89.3524Z" fill="#80B44E"/>
<path d="M157.131 160.385C162.083 160.021 169.262 163.71 169.167 170.649C169.081 177.059 169.845 178.226 172.912 183.806C168.202 179.206 156.866 176.862 150.902 173.385C148.622 172.056 141.366 166.464 139.809 166.019C136.066 168.658 149.475 176.753 150.874 177.682C153.979 179.743 161.577 182.288 163.86 185.98C162.628 185.18 162.122 184.972 160.641 184.877C154.492 184.976 148.054 190.663 144.179 186.592C142.816 185.16 142.489 183.721 142.099 181.846C130.707 184.818 125.177 178.074 132.391 169.721C122.104 167.612 109.595 149.904 122.395 148.067C124.818 147.719 129.211 152.072 131.117 153.925C133.339 148.198 137.286 148.888 142.126 152.106C150.902 148.888 150.732 154.475 157.131 160.385Z" fill="#80B44E"/>
<path d="M91.9737 190.707C96.3756 188.253 99.2455 190.572 102.609 193.316C104.376 191.517 104.752 191.109 107.184 190.497C111.981 189.879 121.596 197.976 123.379 208.158C118.979 205.164 113.852 203.429 108.608 202.672C105.862 202.277 100.008 200.964 98.0148 203.375C98.2382 206.02 103.395 205.268 105.908 206.072C111.147 207.749 110.969 207.591 117.571 211.212C111.475 210.121 103.299 221.935 97.6838 221.287C94.6512 220.938 94.0318 217.56 94.2565 214.987C90.0709 216.832 85.6942 216.895 81.9233 213.995C79.9788 212.502 80.5337 208.823 80.3945 208.732C77.9002 207.12 65.0327 200.818 68.5643 196.274C71.1981 192.367 75.1598 196.598 78.3634 196.121C79.2096 195.996 80.0306 192.645 82.1153 192.554C84.4571 192.452 86.6008 193.803 88.3852 195.069C89.5732 193.185 90.3285 192.164 91.9737 190.707Z" fill="#80B44E"/>
<path d="M80.8897 157.694C85.367 154.005 95.7639 159.642 103.182 158.112C113.554 155.973 113.078 164.975 118.054 168.118C122.048 170.64 120.254 180.621 119.987 184.413C117.1 181.379 102.029 168.9 98.0947 171.194C97.2984 173.998 114.469 181.905 117.296 186.624C115.781 185.997 115.095 185.655 113.554 186.395C107.734 189.189 97.9302 188.136 95.9832 180.944C95.703 178.17 89.9385 175 87.7703 173.03C84.1611 169.749 78.3085 163.02 80.8897 157.694Z" fill="#80B44E"/>
<path d="M152.732 228.028C153.845 227.912 154.566 228.167 155.469 228.83C176.257 244.033 195.635 261.345 215.706 277.47C217.607 278.999 221.103 281.443 221.405 283.918C212.635 280.135 206.427 273.068 199.176 267.22C183.918 254.92 168.636 242.565 153.71 229.87C152.902 229.182 152.882 229.005 152.732 228.028Z" fill="#FEFEFD"/>
<path d="M293.154 341.616C299.943 341.906 308.21 348.469 314.553 350.771C329.588 356.227 335.155 354.063 341.405 358.058L341.43 358.493L340.883 358.713C334.411 361.555 320.459 356.029 313.759 354.063C307.433 352.203 298.898 348.318 293.961 343.946C293.043 343.099 293.177 342.679 293.154 341.616Z" fill="#FEFEFD"/>
<path d="M280.138 325.587C282.036 325.862 299.111 335.847 303.053 337.649C310.12 340.882 320.107 343.068 326.726 346.856C327.407 347.246 327.445 347.77 327.493 348.385C318.505 348.302 308.787 343.875 300.844 340.075C297.413 338.433 281.406 329.767 279.842 327.659C279.61 326.788 279.835 326.442 280.138 325.587Z" fill="#FEFEFD"/>
<path d="M307.46 261.046C308.786 261.269 310.183 262.987 310.868 264.131C318.808 277.359 327.892 290.089 332.844 304.838C333.428 306.574 333.808 307.566 333.492 309.403C329.132 306.414 326.032 295.046 323.183 290.218C318.057 281.539 312.877 272.754 307.951 263.951C307.311 262.81 307.333 262.324 307.46 261.046Z" fill="#FEFEFD"/>
<path d="M276.325 249.488C283.218 252.711 294.224 271.136 299.515 278.824C300.487 280.233 301.461 281.734 301.089 283.48C300.237 283.239 299.313 282.65 298.766 281.964C293.235 274.996 288.273 267.658 283.218 260.35C281.441 257.782 278.777 255.383 277.122 252.711C276.431 251.595 276.229 250.753 276.325 249.488Z" fill="#FEFEFD"/>
<path d="M218.905 208.988C220.628 209.215 221.961 211.184 222.839 212.55C225.797 217.148 242.173 239.928 241.351 244.123C239.334 243.18 237.479 240.158 236.341 238.258C230.746 228.911 224.648 219.911 218.781 210.746C218.373 210.111 218.692 209.623 218.905 208.988Z" fill="#FEFEFD"/>
<path d="M183.133 214.306C185.725 214.372 199.305 224.435 199.335 227.383C195.956 226.515 185.584 219.187 183.151 215.903C182.725 215.329 182.965 214.919 183.133 214.306Z" fill="#FEFEFD"/>
<path d="M269.073 209.241C271.656 211.991 280.191 221.935 280.709 225.179L280.35 225.667C278.354 224.706 267.883 211.984 267.299 210.124C267.445 209.292 268.245 208.356 269.073 209.241Z" fill="#FEFEFD"/>
<path d="M153.779 54.8099C151.765 50.8422 148.924 40.0847 156.447 33.9233C160.775 33.4975 160.875 42.1812 163.144 44.6753C165.386 47.0011 168.66 42.1089 176.253 49.0277C183.842 47.5131 185.798 40.2617 188.18 41.1959C190.193 41.9859 189.991 45.8643 190.939 47.5131C192.802 50.7503 197.156 54.1791 193.986 56.7879C188.18 61.5664 189.67 65.4827 188.526 70.597C187.947 73.1873 187.241 75.1366 186.115 77.5174C186.372 82.0877 186.878 84.112 184.352 84.6749C179.228 84.2814 177.88 81.2744 175.503 77.3623C174.456 75.6394 173.812 75.1758 173.109 73.1615C171.124 76.3947 169.881 80.6247 170.935 84.3796C171.571 86.6423 170.178 92.2089 164.833 89.5267C157.527 85.1241 159.832 81.841 156.447 78.5453C151.125 73.3647 145.887 72.4726 146.231 66.9099C146.515 62.3113 150.072 63.1037 149.697 61.5664C148.784 57.8337 150.779 56.6082 153.779 54.8099Z" fill="#80B44E"/>
<path d="M156.371 54.3254C162.66 56.1652 163.058 64.9805 163.48 70.4647C164.133 78.9527 166.92 80.6607 172.782 84.4418C174.989 85.8646 179.004 90.5998 180.16 92.7126C178.332 96.1918 177.719 98.0501 176.891 101.929C175.24 97.776 173.479 92.4193 169.528 95.7002C159.552 85.6305 161.221 76.6206 159.231 64.704C158.631 61.114 156.815 58.1611 156.371 54.3254Z" fill="#DEE777"/>
<path d="M181.445 80.8136C178.267 76.5736 176.643 70.9379 177.378 65.6644C177.603 64.0539 179.804 55.3876 180.927 54.8654C182.107 55.6285 181.748 57.5624 182.325 58.8091C180.717 63.5459 179.289 72.7914 186.116 77.5174C188.887 79.4351 189.042 80.5846 190.889 82.4447C188.738 83.7556 186.374 85.1242 186.547 87.4762C185.207 84.9781 183.111 83.0707 181.445 80.8136Z" fill="#DEE777"/>
<path d="M69.7349 68.1143C74.6818 68.1769 78.0766 75.3851 84.8998 76.4122C87.2596 66.754 93.7948 70.0426 95.7272 78.065C96.6657 76.8709 98.467 74.9383 100.213 75.6718C105.68 77.9677 99.8372 85.6302 107.052 93.1721C109.132 94.4322 110.601 95.6258 112.258 97.3752C113.937 103.461 111.649 106.361 114.761 111.781C114.79 112.73 114.388 113.315 113.761 113.966C111.277 114.401 109.552 110.747 107.586 109.573C102.825 106.728 98.8251 110.933 92.622 108.79C89.0834 104.779 93.0398 105.491 86.6409 105.376C82.6792 105.304 81.5472 101.04 82.1033 97.3312C81.7597 96.8031 78.0887 95.6285 76.9357 94.8733C72.3612 91.8761 75.7017 86.8284 75.2148 85.8654C73.7442 82.9565 68.8916 80.2231 68.3147 75.3851C68.0017 72.7602 68.1657 70.4341 69.7349 68.1143Z" fill="#80B44E"/>
<path d="M82.4863 80.328C85.7608 81.3442 90.5795 88.6813 93.8087 91.3275C98.1223 94.8618 108.867 99.5712 108.952 105.714C105.303 106.364 105.141 103.454 102.712 101.675C98.8832 98.8716 93.9648 96.8686 90.6481 93.3953C86.6401 89.1983 82.6599 86.4587 82.4863 80.328Z" fill="#DEE777"/>
<path d="M190.888 82.4446C190.748 81.3429 190.35 80.8488 190.016 79.9164C188.787 76.0573 194.53 73.0697 193.796 70.7088C192.23 66.1065 193.656 57.0912 199.298 56.3084C203.94 55.6642 202.832 62.6362 204.69 65.1376C207.752 69.2587 215.957 67.6849 216.605 73.8662C216.723 75.1187 215.957 78.1224 216.147 79.0184C216.827 82.2488 219.697 84.5534 216.539 88.281C213.406 91.979 209.438 91.1721 199.456 106.842C197.495 109.921 192.951 104.355 193.624 98.3732C190.885 93.3771 187.027 93.7081 186.546 87.4761C186.356 85.0219 188.737 83.7556 190.888 82.4446Z" fill="#80B44E"/>
<path d="M200.324 70.5469C206.242 74.8267 203.145 86.4509 201.27 92.0565C200.598 94.0666 200.86 96.6349 200.073 98.9971C193.52 99.6596 199.779 84.685 199.864 81.954C199.927 79.9407 199.81 78.1894 199.685 76.1951C199.552 74.0818 199.071 72.3267 200.324 70.5469Z" fill="#DEE777"/>
<path d="M115.35 130.934C112.053 129.022 103.237 122.911 106.328 117.916C109.838 116.216 116.794 122.989 121.414 119.913C123.336 118.634 124.888 116.176 127.127 116.038C129.269 115.906 129.612 116.86 131.43 118.135C140.261 117.156 141.691 123.418 145.651 129.706C147.551 132.722 151.445 137.201 151.804 140.654C150.656 143.427 147.405 142.309 143.863 142.309C142.744 142.309 142.741 143.87 135.766 145.345C132.633 146.008 128.681 145.345 127.506 140.44C121.712 142.743 110.902 138.629 115.35 130.934Z" fill="#80B44E"/>
<path d="M121.333 129.404C124.192 129.2 129.722 130.1 132.662 130.565C136.244 131.131 149.395 135.714 148.208 140.497C143.282 139.091 138.288 134.336 132.306 133.829C129.52 133.592 120.44 133.672 121.333 129.404Z" fill="#DEE777"/>
<path d="M77.7308 41.039C79.6888 41.0122 82.6204 44.1733 84.2335 45.6568C86.1785 39.1112 88.6375 40.9813 92.4815 44.423C99.8191 42.936 104.839 38.7724 105.03 49.636C107.307 50.889 108.803 51.8862 110.551 53.8393C115.511 59.3807 111.827 60.91 107.623 64.1478C106.599 65.8643 105.898 69.4371 104.604 70.6238C103.628 71.5178 98.1926 70.5902 96.616 70.4108C95.8848 69.0814 95.0912 67.2631 94.0751 66.3079C92.0954 65.6606 88.9378 68.4789 87.012 68.4007C83.614 68.2628 82.6895 64.5837 81.7867 62.0747C81.2702 61.5292 78.7736 59.9781 78.4426 59.4508C75.4996 54.7647 73.2542 45.2029 77.7308 41.039Z" fill="#80B44E"/>
<path d="M82.6865 49.573C86.4352 49.7579 88.4505 54.2657 91.5532 55.6176C94.4205 56.8668 107.583 57.5024 104.435 63.538C102.014 64.1733 99.5469 59.2154 93.9704 60.244C90.4604 60.8915 82.4125 54.3206 82.6865 49.573Z" fill="#DEE777"/>
<path d="M62.6829 92.7483C66.2154 92.622 68.3583 94.81 70.3173 97.4885C73.3208 98.5495 74.485 98.988 76.7048 101.317C77.1234 106.005 73.2347 108.2 72.0614 112.498C71.2515 115.465 72.1174 119.262 71.4276 121.5C69.3894 122.838 62.3934 120.954 60.3912 119.725C54.2056 115.864 57.8591 111.328 51.9286 107.012C49.6728 105.37 44.2658 98.2013 45.5692 95.3107C47.4317 91.1792 52.4774 95.8363 55.3789 95.6136C57.7936 95.2576 60.3008 93.5547 62.6829 92.7483Z" fill="#80B44E"/>
<path d="M52.1914 98.7753C57.1953 98.5784 65.8401 103.05 68.1766 107.693C68.5407 108.416 68.2538 108.733 67.9554 109.385C67.4823 109.569 67.0294 109.715 66.5491 109.876C65.3298 109.73 63.6016 107.319 62.6013 106.444C59.6404 103.855 52.3465 103.452 52.1914 98.7753Z" fill="#DEE777"/>
<path d="M206.642 104.281C208.188 102.184 210.704 100.606 213.143 98.5166C214.588 97.2796 215.691 94.3014 218.105 94.1159C221.19 93.8787 221.616 98.3897 221.379 100.631C223.148 100.258 226.043 99.8215 227.432 100.99C230.61 103.664 224.342 106.762 223.087 107.436C225.233 108.397 230.789 110.759 229.41 114.104C228.758 115.682 225.731 117.161 224.15 117.56C216.887 119.264 211.003 122.009 206.224 128.057C204.361 127.461 204.14 126.546 203.803 124.771C205.006 121.742 204.018 116.413 204.039 113.88C204.085 108.403 205.097 106.379 206.642 104.281Z" fill="#80B44E"/>
<path d="M216.997 105.864C218.009 105.983 217.635 105.762 218.255 106.352C218.166 108.205 213.895 111.586 212.751 113.501C211.489 115.611 210.768 118.27 209.222 120.031C207.189 118.462 207.049 116.974 208.17 114.545C210.126 110.31 212.648 107.687 216.997 105.864Z" fill="#DEE777"/>
<path d="M126.199 40.8247C130.46 42.0511 129.894 44.6164 131.745 47.8471C133.637 51.1494 139.376 48.5108 143.174 49.8943C147.349 51.4153 148.938 52.6055 146.53 57.2653C145.558 59.1461 143.564 60.7476 142.789 62.8019C141.22 65.9187 142.439 69.1628 139.07 71.0299C135.721 72.3925 132.697 64.7186 128.997 64.0321C127.233 63.7048 125.95 66.7269 124.647 67.9754C120.717 62.8234 120.537 59.9657 123.385 54.4939C122.657 49.8053 122.282 44.129 126.199 40.8247Z" fill="#80B44E"/>
<path d="M129.053 51.9054C130.246 52.8308 130.61 55.1045 131.509 56.2662C133.889 59.345 139.765 62.1111 136.479 66.7267C136.243 66.403 135.917 66.002 135.697 65.6746C133.256 62.0393 127.981 59.6735 127.702 54.7968C127.626 53.4755 128.221 52.7655 129.053 51.9054Z" fill="#DEE777"/>
<path d="M155.899 89.3628C158.837 88.4015 161.067 91.4496 161.78 94.2149C162.643 97.5637 160.639 100.517 160.726 103.96C160.752 104.968 162.83 106.675 163.396 107.358C164.783 109.032 159.724 113.034 159.232 114.488C158.725 115.985 158.694 117.904 157.807 119.397C156.105 122.264 149.673 111.28 149.595 109.661C149.427 106.138 151.548 103.123 152.535 99.7532C153.448 96.6401 152.638 90.4293 155.899 89.3628Z" fill="#80B44E"/>
<path d="M154.831 146.302C156.037 145.732 157.131 146.029 158.31 146.63C159.981 147.482 161.126 149.108 162.414 150.471C163.801 151.94 167.816 155.848 167.523 157.669C167.353 158.727 167.013 159.464 165.902 159.574C161.569 160.001 157.41 155.302 154.711 152.226C152.834 150.087 152.041 147.624 154.831 146.302Z" fill="#80B44E"/>
<path d="M115.435 42.8636C117.548 42.1926 118.899 44.0203 119.297 45.9858C119.791 48.4303 120.299 55.4845 117.743 56.1037C116.772 56.3391 116.296 55.4991 115.421 54.9451C113.892 53.976 109.597 50.4816 109.679 48.5009C109.794 45.7148 112.811 43.6973 115.435 42.8636Z" fill="#80B44E"/>
<path d="M76.8486 183.859C79.6859 183.542 83.1666 185.169 82.6982 188.34C81.5145 190.456 78.3311 190.463 75.6156 192.019L75.2664 192.221C74.4722 192.534 73.6329 192.832 72.8295 193.131C71.7389 192.605 71.1256 192.465 70.4298 191.517C69.5399 188.556 74.6134 185.091 76.8486 183.859Z" fill="#80B44E"/>
<path d="M111.045 141.408C113.367 141.621 116.676 142.749 117.705 145.049C118.69 147.249 117.308 149.446 115.224 150.338C112.831 150.663 110.607 149.82 108.443 148.933C108.929 146.526 109.573 143.361 111.045 141.408Z" fill="#80B44E"/>
<path d="M158.577 121.173C161.115 121.26 171.41 126.663 166.958 130.89C163.374 131.99 158.727 126.825 157.692 123.721C157.379 122.782 158.064 121.901 158.577 121.173Z" fill="#80B44E"/>
<path d="M64.9928 83.4127C65.444 83.3632 65.8959 83.3219 66.3485 83.2887C68.4416 83.1422 69.062 83.5952 70.6015 84.9226C71.5491 87.8476 72.8904 90.6287 69.1799 91.8693C67.5704 91.3698 64.4809 89.505 63.4293 88.1867C61.5756 85.8631 63.1328 84.6415 64.9928 83.4127Z" fill="#80B44E"/>
<path d="M148.768 76.6351C152.889 77.6555 158.936 84.2697 154.384 86.7697C150.419 85.4835 144.743 81.0742 148.768 76.6351Z" fill="#80B44E"/>
<path d="M178.052 144.511C181.443 143.085 187.326 150.646 183.731 153.194C182.573 154.014 181.584 152.626 180.66 151.576C178.892 149.566 174.624 145.953 178.052 144.511Z" fill="#80B44E"/>
<path d="M99.7452 110.948C101.89 111.069 103.693 111.042 105.407 112.535C107.013 113.934 105.986 115.9 104.679 116.995C101.988 117.164 98.4548 115.694 98.4356 112.287C98.4323 111.675 99.2564 111.266 99.7452 110.948Z" fill="#80B44E"/>
<path d="M182.42 91.787C185.431 93.6304 186.804 102.472 189.727 105.18C198.559 113.365 200.542 114.476 192.989 130.159C191.269 133.732 187.831 136.427 186.259 140.093C185.336 137.714 184.257 135.034 183.861 132.537C183.315 129.086 182.086 110.158 175.847 111.481C175.269 112.874 177.191 117.513 177.748 119.223C179.731 125.306 179.068 131.456 181.29 137.331C182.101 139.475 183.817 141.64 184.532 143.846C179.638 138.642 178.673 140.582 173.174 137.135C171.285 135.871 170.268 132.486 170.823 130.375C171.9 126.276 165.792 122.837 164.605 118.967C163.41 115.076 166.211 113.777 166.639 110.254C166.875 108.249 165.458 106.019 165.315 104.001C164.231 91.9679 174.733 89.6786 176.89 101.928C177.472 99.2039 178.528 91.6368 182.42 91.787Z" fill="#80B44E"/>
</svg>
