<svg width="400" height="400" viewBox="0 0 400 400" fill="none" xmlns="http://www.w3.org/2000/svg">
<path d="M212.919 35.5045C239.841 45.9347 237.213 71.5386 251.518 97.9946C269.536 131.319 282.195 165.663 281.461 204.286C280.799 239.076 260.85 319.212 222.776 366.453C221.587 366.91 219.609 365.731 218.481 365.243C193.536 362.889 177.767 365.86 160.082 364.847C153.404 364.464 152.278 358.778 149.533 353.797C128.103 307.311 118.419 251.587 118.516 200.643C118.423 160.414 126.622 108.234 148.507 73.3179C159.702 55.3602 188.677 26.1124 212.919 35.5045Z" fill="#D0D570"/>
<path d="M170.975 110.065C172.116 110.213 171.778 110.01 172.414 110.709C173.223 113.621 168.732 117.557 167.625 120.129C167.006 121.567 166.353 124.758 166.096 126.303C169.751 124.218 177.635 119.632 180.346 125.434C181.529 127.965 179.6 138.648 178.488 141.181C181.725 138.69 186.135 137.182 189.235 134.253C190.017 133.515 190.841 133.198 191.731 133.965C191.906 135.55 189.148 138.446 187.948 139.303C184.02 142.106 181.331 142.315 178.702 146.611C178.551 149.369 178.434 151.591 178.985 154.353C179.57 157.28 180.605 160.081 180.869 163.053C183.552 158.783 187.176 155.515 190.095 151.411C190.869 150.322 192.425 148.154 193.767 147.959C196.147 150.279 188.637 159.207 186.98 160.759C179.775 167.507 184.582 173.395 185.143 181.668C188 178.326 190.287 175.81 192.085 171.665C192.806 170.005 193.829 166.473 194.968 165.162C195.266 164.817 195.793 164.993 196.255 165.055C197.68 166.387 196.903 167.929 196.624 169.599C195.773 174.689 192.386 177.72 189.627 181.739C186.49 186.31 187.433 193.535 188.272 198.688C188.426 199.563 188.645 200.197 189.382 200.674C190.937 199.626 192.353 191.257 195.213 191.413C196.475 192.666 195.756 195.465 195.275 196.911C194.245 200.012 191.89 202.574 190.649 205.173C189.027 208.57 190.67 216.02 190.814 219.871C190.878 221.587 191.036 223.989 191.198 225.653C191.877 223.45 192.779 217.759 195.03 217.009C200.018 218.605 191.49 228.763 191.205 231.473C191.731 244.191 191.731 258.578 181.667 307.348C179.329 318.68 172.982 349.421 163.093 359.963C145.748 359.963 118.514 217.009 126.93 188.581C127.455 181.299 132.315 174.993 132.777 167.981C133.473 157.434 128.891 147.391 135.529 137.583C136.092 136.688 136.666 135.887 137.687 135.673L138.07 136.006C139.004 138.295 136.613 146.16 136.261 149.123C135.747 153.44 136.412 157.344 136.673 161.707C139.668 157.453 141.824 153.049 144.441 148.63C145.889 146.185 147.619 144.802 149.004 141.952C147.631 135.45 146.437 131.633 148.855 124.881C150.231 121.038 152.503 117.115 156.224 114.738C156.693 114.438 156.943 114.616 157.375 114.783C157.63 115.341 157.834 115.768 157.595 116.391C155.623 121.528 152.173 125.901 151.414 131.521C151.057 134.166 151.518 135.92 152.059 138.521C154.504 135.723 161.23 130.183 161.919 126.899C163.423 119.735 163.86 114.145 170.975 110.065Z" fill="#F9FAF5"/>
<path d="M217.625 56.6274C227.637 56.1709 219.561 72.8508 220.062 77.1409C220.408 80.1038 224.163 87.1751 225.47 90.3843C226.163 86.6928 227.631 83.2405 228.093 79.4316C228.216 78.4201 228.542 77.868 229.393 77.2848C232.188 76.8185 232.29 81.1746 231.903 83.0355C230.839 88.1544 227.177 94.532 228.326 99.9192C229.24 104.201 230.944 107.616 231.276 112.164C233.28 108.48 235.081 100.694 237.657 98.8473C238.114 98.7954 238.366 98.6564 238.556 98.9552C241.739 103.958 234.85 112.78 234.056 117.179C232.5 122.584 234.947 130.457 233.805 135.555C232.195 142.742 228.816 149.721 227.196 157.134C218.298 197.84 221.622 220.553 224.569 253.26C225.24 260.716 226.253 271.45 224.931 278.747C222.593 291.65 217.721 304.989 212.257 316.9C205.275 332.122 194.464 346.983 182.989 359.012C179.218 359.138 175.186 358.678 171.482 359.48C187.791 329.37 194.615 291.019 200.922 257.338C206.487 225.981 208.407 194.085 206.642 162.287C205.478 143.042 204.052 132.307 195.048 114.81C195.206 112.877 196.572 108.437 196.086 106.785C194.812 102.451 184.841 91.134 190.224 86.7331L190.799 86.801C192.136 87.8253 192.479 88.7628 192.854 90.3296C193.99 95.0675 195.38 98.2436 198.07 102.32C198.793 99.6063 200.808 88.1218 200.072 85.8373C197.716 79.4771 190.789 76.0662 190.697 68.4459C190.678 66.8822 191.707 64.7762 193.518 64.9247C195.024 66.2507 195.455 71.7563 196.515 73.7742C197.682 75.9971 199.656 77.9834 201.301 79.9589C201.148 75.4265 198.783 55.7015 207.349 58.7491C210.927 60.0221 214.29 68.5661 216.312 72.1815C217.239 69.3233 218.71 65.4322 218.298 62.5246C217.984 60.3045 217.712 58.9261 217.625 56.6274Z" fill="#F9FAF5"/>
<path d="M257.023 125.919C258.126 126.804 260.452 132.205 260.997 133.679C280.612 186.64 269.245 234.428 266.091 251.868C259.571 287.933 243.507 332.231 217.926 358.617C213.123 360.171 201.604 358.778 195.773 358.796C219.19 332.144 233.362 294.957 233.266 259.75C233.416 257.266 235.451 250.763 236.209 248.171C238.478 240.409 237.151 238.335 233.353 231.645C232.286 229.765 231.182 226.81 231.879 224.603C232.092 223.928 232.469 223.613 233.056 223.344C234.267 224.174 239.401 234.243 239.951 235.977C240.463 230.977 242.512 226.227 242.786 221.55C243.021 217.554 237.699 212.974 235.638 209.677C233.148 205.692 232.96 203.696 233.118 199.108C233.656 198.384 233.87 197.976 234.655 197.525C236.265 198.421 236.036 202.488 237.656 205.298C239.889 209.17 241.995 211.63 244.712 215.095C245.308 212.642 245.851 210.176 246.341 207.699C249.28 192.491 235.693 191.333 237.834 177.383C237.998 176.308 238.439 174.689 239.387 174.077C240.589 174.657 241.022 177.514 241.034 178.698C241.102 185.457 245.422 188.436 248.575 194.507C249.18 191.603 251.666 179.04 251.306 176.98C249.552 166.934 234.543 157.482 244.681 145.998C244.192 156.916 246.198 160.993 252.972 169.232C254.175 161.206 257.088 150.222 251.948 143.303C248.287 138.375 248.374 135.211 248.572 129.317C249.294 128.305 249.459 127.91 250.511 127.601C251.791 128.317 251.916 135.445 252.916 137.577C253.896 139.665 254.391 140.231 255.765 142C255.933 137.132 256.688 131.015 257.023 125.919Z" fill="#F9FAF5"/>
<path d="M186.165 46.8394L186.491 47.2908C185.374 50.5907 184.631 52.9562 182.052 55.4821C178.512 58.9497 174.59 61.9437 171.658 65.9594C173.264 65.8967 176.357 65.1702 176.942 67.2083C176.107 69.649 168.959 69.8232 167.633 71.2628C165.919 73.1237 164.472 76.1849 162.783 78.4687C164.843 77.8454 173.107 76.2119 174.62 77.5821L174.611 78.4117C173.218 81.7175 166.258 80.6906 163.438 81.7774C162.3 82.2159 161.545 82.7853 160.549 83.4761C159.287 85.8576 158.51 88.8078 157.21 91.4472C160.443 90.2425 165.795 90.1464 169.24 88.603C170.049 88.2407 170.378 88.9989 170.114 89.6318C167.962 94.7736 161.74 93.4936 157.628 95.1315C155.351 96.0381 154.67 98.3926 153.93 100.51C153.536 102.313 151.739 103.437 150.236 104.364C144.32 108.014 140.472 112.231 136.092 117.484C137.594 113.055 139.886 108.166 141.222 104.166C148.551 82.2236 158.77 66.0765 177.788 52.5256C180.483 50.6046 183.365 48.753 186.165 46.8394Z" fill="#F9FAF5"/>
</svg>
