<svg width="400" height="400" viewBox="0 0 400 400" fill="none" xmlns="http://www.w3.org/2000/svg">
<path d="M142.661 67.8851C144.305 62.4153 142.349 59.5757 144.271 54.1809C147.654 44.6934 157.302 48.7132 163.836 44.4707C168.707 41.3076 169.633 37.0831 176.248 34.906C182.132 32.9694 185.098 36.0573 190.031 35.9161C196.892 35.613 203.286 30.8752 210.07 34.7374C217.133 38.7586 215.802 44.4707 230.942 45.8851C234.351 46.2035 241.108 51.7821 243.098 54.5438C248.471 61.9528 249.28 67.6731 257.629 72.9207C271.572 81.6834 267.232 100.235 270.304 113.992C270.98 117.017 274.888 121.994 276.152 125.05C278.625 131.026 279.672 139.22 279.395 145.67C279.216 149.823 277.522 154.389 277.936 158.631C279.462 168.464 283.274 172.306 284.321 183.176C291.746 260.263 268.763 311.139 217 359.812C212.012 356.566 206.89 353.349 202.285 349.588C202.068 351.365 202.227 354.467 200.138 354.952C197.284 354.082 195.274 346.439 194.456 343.658C194.391 343.436 194.554 343.462 194.306 342.925L194.148 343.043L193.729 342.974C183.768 333.329 178.309 327.855 170.919 316.075C170.869 318.261 170.536 322.65 169.257 324.323C168.916 324.492 168.632 324.744 168.329 324.563C164.222 322.084 164.921 310.491 165.825 307.204C165.749 307.171 165.673 307.138 165.597 307.102C158.15 296.181 152.34 279.213 148.704 267.045C148.046 269.371 148.909 274.011 145.891 276.046C144.588 276.925 143.187 274.918 142.804 273.814C140.716 267.796 141.213 260.968 142.374 254.798C142.78 252.674 143.324 249.76 144.103 247.799C143.693 246.699 143.332 242.897 143.128 241.484C141.619 231.069 140.976 223.88 142.663 213.391C135.814 212.778 129.34 208.005 127.766 201.162C126.729 196.655 126.323 192.167 122.839 188.139C121.171 186.211 115.163 179.264 114.422 176.944C112.356 170.478 115.537 168.917 117 163.11C118.266 158.088 113.961 153.145 114.781 147.535C115.664 141.503 120.076 137.775 121.92 132.256C122.881 126.132 117.506 123.689 120.667 114.675C123.2 107.451 129.803 105.348 130.235 98.3907C130.581 92.8139 127.816 86.6308 129.631 81.3445C131.586 75.6506 140.939 73.6129 142.661 67.8851Z" fill="#B7C865"/>
<path d="M117.086 159.144C117.116 159.654 118.107 161.608 118.107 163.11C118.107 165.272 117.738 166.128 117.055 170.917C116.634 173.868 118.715 175.596 120.566 178.084C124.47 183.332 130.257 182.301 133.806 188.698C136.569 193.677 135.018 203.279 140.903 205.628C145.185 207.334 149.669 205.367 154.604 207.855C160.666 210.63 161.94 217.905 166.676 221.845C168.953 223.74 173.328 223.263 176.173 223.398C187.029 223.911 193.017 231.449 194.496 241.684C194.889 244.403 194.401 248.599 195.81 251.208C199.997 256.706 202.741 254.747 205.377 263.184C206.842 267.872 204.686 275.633 206.459 278.472C210.185 284.44 217.369 284.56 220.547 293.438C222.132 297.866 220.32 300.626 221.294 305.422C221.906 308.439 225.759 308.969 228.166 310.986C235.634 317.25 236.08 326.144 237.573 333.585C233.229 341.391 232.448 343.592 226.147 349.802C223.652 352.928 219.879 357.105 217 359.812C212.012 356.566 206.89 353.349 202.285 349.588C202.068 351.365 202.227 354.467 200.138 354.952C197.284 354.082 195.274 346.439 194.456 343.658C194.391 343.436 194.554 343.462 194.306 342.925L194.148 343.043L193.729 342.974C183.768 333.329 178.309 327.855 170.919 316.075C170.869 318.261 170.536 322.651 169.257 324.323C168.916 324.492 168.632 324.744 168.329 324.563C164.222 322.084 164.921 310.491 165.825 307.204C165.749 307.171 165.673 307.138 165.597 307.102C158.15 296.181 152.34 279.213 148.704 267.045C148.046 269.371 148.909 274.011 145.891 276.046C144.588 276.925 143.187 274.918 142.804 273.814C140.716 267.796 141.213 260.968 142.374 254.798C142.78 252.674 143.324 249.76 144.103 247.799C143.693 246.699 143.332 242.897 143.128 241.484C141.619 231.069 140.976 223.88 142.663 213.391C135.814 212.778 129.34 208.005 127.766 201.162C126.729 196.655 126.322 192.168 122.839 188.139C121.171 186.211 115.163 179.264 114.422 176.944C112.356 170.478 115.537 168.917 117 163.11C117.202 162.311 117.177 160.004 117.086 159.144Z" fill="#838F1D"/>
<path d="M142.663 213.391C144.7 213.383 148.36 213.577 150.335 213.894C155.897 217.956 153.346 223.267 163.815 228.852C172.833 233.664 180.754 228.331 184.158 239.02C186.747 247.152 184.737 254.508 192.225 260.263C189.858 263.971 187.428 266.573 185.26 270.301C150.335 353.211 123.133 334.839 142.663 213.391Z" fill="#B7C865"/>
<path d="M142.663 213.391C144.7 213.383 148.36 213.577 150.335 213.894C153.548 216.24 155.006 219.734 157.33 222.869C159.326 225.451 160.917 227.149 163.815 228.852C156.072 238.257 152.721 244.988 149.788 257.084C149.159 259.681 148.324 263.557 148.593 266.19C150.716 286.512 138.125 262.858 144.103 247.799C143.693 246.699 143.332 242.896 143.128 241.484C141.619 231.069 140.976 223.88 142.663 213.391Z" fill="#F2F6E4"/>
<path d="M142.663 213.391C144.7 213.383 148.554 212.983 150.335 213.894C153.877 215.706 155.006 219.734 157.33 222.869C154.62 225.89 152.893 228.296 150.815 231.807C150.799 230.139 151.18 224.968 150.379 224.092C145.99 223.962 147.388 234.084 148.01 236.801C146.704 240.501 145.219 244.04 144.103 247.799C143.693 246.699 143.332 242.896 143.128 241.484C141.619 231.069 140.976 223.88 142.663 213.391Z" fill="#B7C865"/>
<path d="M176.659 267.724C177.753 266.363 179.166 264.019 180.205 262.467C182.482 259.045 184.692 256.476 187.053 253.113C188.86 256.504 189.905 256.869 192.929 259.193C190.562 262.901 187.429 266.573 185.261 270.301C177.221 284.133 171.914 299.84 170.86 315.83C170.88 315.912 170.9 315.993 170.92 316.075C170.558 331.788 163.104 318.375 165.603 309.29C165.507 304.99 166.729 296.878 167.42 292.606C165.904 289.123 162.816 283.487 165.08 279.8C165.493 279.128 165.677 278.781 166.433 278.6C166.691 278.922 168.341 286.317 168.635 287.404C170.092 284.823 173.3 275.673 174.531 272.431C173.501 268.534 172.413 264.045 172.47 259.992C172.491 258.458 174.102 255.207 175.831 255.393C176.252 256.55 176.486 265.554 176.659 267.724Z" fill="#F2F6E4"/>
<path d="M192.929 259.193C197.205 261.787 197.434 265.038 197.078 269.765C196.457 278.005 197.777 280.579 203.209 286.304C204.999 287.79 209.686 290.596 210.543 291.753C208.112 297.475 205.31 303.331 203.381 309.25C200.232 318.91 199.005 329.463 200.26 339.573C200.566 342.042 201.014 347.662 202.285 349.588C202.068 351.365 202.228 354.467 200.138 354.952C197.284 354.082 195.274 346.439 194.456 343.658C194.391 343.436 194.554 343.462 194.306 342.925L194.148 343.043L193.729 342.974C183.768 333.329 178.309 327.855 170.919 316.075C170.899 315.993 170.879 315.912 170.859 315.83C171.913 299.84 177.221 284.133 185.26 270.301C187.429 266.573 190.562 262.901 192.929 259.193Z" fill="#B7C865"/>
<path d="M203.209 286.304C204.998 287.79 209.685 290.596 210.542 291.753C208.111 297.475 205.309 303.331 203.38 309.25C200.231 318.91 199.004 329.463 200.259 339.573C200.566 342.042 201.013 347.662 202.285 349.588C201.864 353.027 195.761 346.07 194.305 342.925C192.293 335.484 193.966 329.236 189.883 322.459C188.327 319.877 185.786 309.329 189.524 307.666C191.471 309.658 189.881 318.901 192.693 319.469C193.083 318.815 195.522 306.834 195.968 305.011C194.141 300.369 192.304 296.26 192.73 291.214C192.766 290.788 194.496 287.938 195.177 289.189C196.321 291.288 195.921 297.616 197.992 298.951C199.215 297.961 202.554 288.347 203.209 286.304Z" fill="#F2F6E4"/>
<path d="M210.542 291.753C211.565 292.948 212.363 294.072 212.782 295.438C213.978 299.322 212.107 303.578 213.76 307.416C215.464 311.369 220.514 313.67 222.915 316.231C228.158 321.821 230.289 334.711 228.257 341.981C227.801 343.61 226.207 348.64 226.146 349.802C223.651 352.928 219.878 357.105 216.999 359.812C212.012 356.566 206.889 353.349 202.284 349.588C201.013 347.662 200.565 342.042 200.259 339.573C199.004 329.463 200.231 318.91 203.38 309.25C205.309 303.331 208.111 297.475 210.542 291.753Z" fill="#B7C865"/>
<path d="M221.015 104.553C213.486 90.1914 205.613 76.013 197.403 62.0297C195.285 58.4081 192.9 54.9195 190.361 51.5818C189.315 50.2064 188.527 49.0267 189.765 47.428C190.976 47.0316 192.555 48.0505 193.418 48.8561C197.652 52.8067 201.892 57.615 205.513 62.1653C214.798 73.8302 221.836 87.1783 230.103 99.5409C229.554 96.5569 229.655 92.6855 229.453 89.5799C229.114 84.3801 228.552 79.5085 227.584 74.3949C226.138 66.7448 222.258 59.8332 220.93 52.2615C227.397 50.8746 230.847 59.6984 231.967 64.0312C232.656 62.5948 234.257 58.6486 235 57.7189C239.127 57.1366 234.292 66.4076 233.352 67.5795C234.547 71.8135 235.578 76.2158 235.675 80.2869C236.842 77.9895 237.503 75.1293 239.183 73.1089C243.244 73.1174 237.457 83.5666 236.616 84.8446C236.536 87.821 236.582 91.411 236.693 94.3613C237.783 92.1674 238.349 89.0258 240.058 87.3062C244.8 88.6657 237.453 98.1122 236.861 100.235C236.188 102.648 235.84 105.82 235.448 108.331C243.13 120.247 249.068 132.18 255.654 144.03C256.666 145.851 257.505 147.68 258.586 149.504C258.293 145.489 258.416 140.821 257.781 136.913C256.557 129.393 254.986 121.884 253.145 114.495C257.529 111.648 261.221 120.752 261.547 122.798C262.145 120.741 262.596 117.549 264.667 116.717C265.644 116.904 265.345 116.708 265.966 117.362C266.4 119.852 263.958 125.69 262.984 128.303C263.691 131.557 264.11 133.486 264.53 136.833C266.465 134.125 266.518 131.941 268.416 129.53C268.675 129.201 268.763 129.318 269.266 129.343C272.534 132.024 266.944 138.973 265.223 141.58C265.114 143.881 265.201 146.656 265.218 148.994C266.651 146.57 269.339 141.847 271.195 139.887C271.913 147.447 269.006 147.451 265.634 153.028C264.675 154.615 264.137 158.316 263.808 160.244C282.042 193.685 282.565 221.813 284.642 257.536C286.528 289.967 282.906 339.581 250.866 357.613C239.135 364.212 224.889 364.387 211.776 365.197C170.198 368.532 153.972 364.946 136.191 331.246C114.563 290.269 110.957 244.153 122.838 188.139C127.338 190.989 126.729 196.655 127.765 201.162C129.339 208.005 135.814 212.778 142.662 213.391C140.067 250.049 152.537 286.774 170.919 316.075C182.337 334.277 199.129 348.183 216.999 359.812C225.21 352.091 231.686 343.155 237.572 333.585C239.76 330.028 250.013 306.569 249.798 302.302C249.419 294.756 244.152 277.686 240.531 270.817C228.165 247.355 208.586 223.107 187.554 207.155L173.127 196.338C170.86 194.632 159.984 185.016 165.426 182.501C168.658 182.567 179.26 191.637 181.922 194.071C180.275 190.973 178.504 187.991 176.654 185.016C176.053 184.049 173.961 180.549 176.104 180.236C179.643 181.742 184.34 190.197 185.825 193.685C188.445 199.844 191.623 200.983 196.485 205.214C199.402 207.753 202.583 210.814 205.427 213.61C204.499 211.769 200.687 205.411 201.212 203.741C201.962 203.1 201.607 203.263 202.548 203.092C204.887 203.871 207.174 209.466 208.209 211.693C208.827 213.023 210.343 217.829 210.955 218.689C217.694 226.046 223.563 232.454 228.723 240.44C228.115 238.512 226.537 233.931 227.877 232.241C232.185 233.56 230.884 241.017 232.457 244.153C238.376 255.945 247.334 266.187 250.522 279.654C250.788 280.775 252.134 285.987 252.846 286.465C255.793 282.476 258.155 237.218 255.704 231.853C243.574 205.937 219.061 186.244 195.815 170.549C180.042 159.899 163.371 154.654 145.522 149.051C140.859 147.586 130.363 144.844 131.258 140.119C132.917 136.673 146.915 140.719 150.113 141.901C148.671 140.276 143.558 135.271 143.816 133.352C146.283 132.239 149.229 135.988 150.767 137.56C152.54 139.372 154.03 141.673 155.931 143.352C163.559 146.886 172.359 148.935 179.626 152.58C178.353 151.138 173.743 147.222 175.979 145.571C178.926 145.377 182.377 151.572 183.964 153.747C185.946 156.462 190.564 158.163 193.525 160.022C199.797 163.961 206.148 168.055 211.832 172.81C209.908 169.612 207.628 166.447 205.49 163.374C214.05 164.651 212.751 172.736 217.981 177.464C226.101 184.803 234.46 191.895 241.663 200.296C246.455 205.886 250.323 211.744 254.563 217.714C252.289 205.048 251.449 191.494 247.321 178.91C246.206 175.413 243.65 172.794 241.342 169.955C224.947 149.793 199.236 137.523 176.482 125.895C169.427 122.29 161.104 120.077 153.998 116.702C153.795 114.927 156.195 113.778 158.452 113.18C162.903 112.001 166.732 113.486 170.879 115.168C169.416 113.135 164.718 108.128 165.204 105.823C168.438 103.715 174.69 114.606 175.931 116.963C177.969 118.204 180.796 119.178 182.976 120.247C187.556 122.495 194.487 125.719 198.497 128.663C197.244 126.807 193.182 122.204 193.707 120.066C197.898 117.585 201.303 128.956 203.202 130.827C204.474 132.081 209.853 135.094 211.72 136.206C214.775 138.058 217.803 139.952 220.805 141.887C220.046 140.27 217.196 135.857 218.014 134.391C222.638 133.68 224.61 144.566 227.584 146.886C233.728 151.677 238.272 155.761 243.13 161.813C241.679 158.189 240.914 154.09 239.427 150.469C236.309 142.873 233.998 134.597 230.749 127.128C227.998 120.806 220.628 113.435 215.801 108.689C199.677 94.5403 179.814 85.1799 159.9 77.6503C157.315 76.6729 151.272 76.1121 149.685 74.0463C148.749 68.2385 165.797 71.9801 168.575 73.1605C167.525 71.5181 164.81 67.5456 165.64 65.7318C168.859 65.157 171.991 72.1034 172.524 74.5856C177.064 77.1348 183.668 79.3633 187.911 82.2715C186.609 79.8854 183.068 75.0787 182.513 72.9059C183.11 71.9778 184.989 72.9823 185.689 73.4766C188.037 75.1336 190.811 79.625 191.555 82.3968C191.627 82.6649 191.803 83.5653 191.998 83.7088C195.021 85.9317 198.289 87.3042 201.341 89.6138C200.449 88.0495 198.302 85.0783 199.053 83.4073C203.188 81.8384 204.286 90.4894 206.441 92.2891C211.3 96.3469 216.382 100.088 221.015 104.553Z" fill="#F2F6E4"/>
</svg>
