<svg width="400" height="400" viewBox="0 0 400 400" fill="none" xmlns="http://www.w3.org/2000/svg">
<g clip-path="url(#clip0_90_732)">
<path d="M308.888 54.8099C339.691 54.8099 352.82 62.258 347.227 86.8534C351.472 99.8578 342.935 112.997 335.356 122.761C313.009 152.122 283.312 174.903 259.665 203.126C257.367 205.652 255.398 208.926 253.095 211.403C242.626 222.667 233.911 235.014 224.903 247.431C203.618 276.78 181.818 307.374 153.872 330.897C130.486 350.321 102.874 369.53 71.3941 362.089C44.6385 355.757 28.5414 333.667 35.3528 306.43C40.3438 286.469 55.2794 267.94 72.4699 256.653C81.609 250.652 91.7355 246.136 101.254 240.822C129.614 224.974 159.346 205.602 182.704 182.771C190.013 175.609 197.292 168.477 204.074 160.804C228.936 132.672 249.03 99.5685 275.942 73.3169C286.017 64.1731 299.449 62.1157 308.888 54.8099Z" fill="#015734"/>
<path d="M308.888 54.8099C315.24 44.0285 319.136 45.8991 329.608 42.5428C333.899 41.1679 339.463 34.4703 345.436 37.8875C347.414 38.9048 349.343 42.0334 350.055 44.2414C360.881 45.9978 363.835 48.1578 366.049 59.2932C364.402 64.3029 361.483 63.4333 358.836 67.18C358.001 68.3627 357.394 72.5479 357.166 74.1906C356.528 78.7637 351.675 85.4313 347.227 86.8535C346.208 83.937 345.478 80.4686 344.381 77.2525C343.735 82.6454 342.947 85.6553 339.681 90.2407C337.898 92.7444 334.593 96.187 332.643 95.654C330.694 95.1211 337.189 87.7342 338.034 86.0434C341.001 80.111 340.24 77.951 341.747 72.3358C339.652 68.8571 332.754 60.5901 328.718 59.8591C321.206 58.4981 312.58 61.9571 306.204 65.7944C304.251 66.9705 299.824 70.6258 297.686 69.988C296.811 67.5574 300.216 65.6361 301.864 64.5645C307.856 60.672 313.291 57.3533 320.536 56.5078C316.763 55.623 313.433 54.8099 308.888 54.8099Z" fill="#72A546"/>
<path d="M93.4637 274.4C93.5609 274.442 93.7872 274.71 93.8755 274.805C93.8198 277.467 79.9588 290.777 77.0308 293.921C75.1489 295.958 73.357 298.077 71.6605 300.272C67.4858 305.653 62.4094 313.283 61.3575 317.49C60.973 319.027 61.3575 321.16 65.91 323.815C69.3997 325.85 71.1821 329.879 73.4377 333.239C76.9725 338.505 88.302 332.962 92.4297 331.48C109.409 325.391 120.905 310.98 136.243 302.144C132.748 308.255 129.089 310.857 123.899 315.289C114.031 323.715 104.005 331.451 91.4734 335.453C87.7162 336.653 73.9559 338.395 73.001 341.413C72.1594 344.073 80.8798 347.164 83.788 348.256C86.7086 349.377 99.0162 352.712 99.8394 354.143C97.003 356.997 83.6228 351.869 80.1786 350.648C76.0871 349.201 71.9278 346.841 68.3568 344.346C67.1359 345.843 65.0352 346.867 61.2902 347.319C61.7056 349.157 63.5731 356.104 62.8465 357.525C59.8403 357.044 58.0785 348.794 57.1579 346.368C51.9063 341.642 50.3308 339.541 48.2302 335.865C46.2065 335.082 37.8643 333.061 37.5996 330.424L38.02 329.975C39.9366 329.51 45.346 331.887 47.1799 332.714C46.6547 330.088 46.475 328.468 47.4794 325.724C44.663 316.481 44.012 310.101 46.1972 300.543C46.5684 298.921 48.5055 291.767 50.9257 292.345C51.9595 295.17 44.9715 310.45 49.9883 318.372C50.9408 319.876 52.4315 319.538 54.6641 319.538C59.1591 315.347 59.7124 311.45 62.8754 306.367C69.3438 295.974 83.235 280.757 93.4637 274.4Z" fill="#72A546"/>
<path d="M53.2963 323.826C54.3289 323.185 58.5198 323.629 61.2438 325.159C64.9062 327.218 69.1059 330.615 69.2819 334.833C69.4113 337.936 68.5466 339.59 65.8542 341.429C62.6793 342.114 57.0709 339.079 54.9511 336.679C50.8738 332.06 48.282 326.937 53.2963 323.826Z" fill="#D0D570"/>
<path d="M243.798 143.874C244.917 153.302 224.607 168.101 218.758 174.198C208.168 185.235 195.823 195.294 183.619 204.523C171.133 214.034 158.283 223.059 145.099 231.577C143.659 232.495 135.71 238.902 134.938 236.077C135.15 235.064 135.88 234.111 136.718 233.538C155.165 220.947 173.678 208.346 191.123 194.343C206.067 182.348 219.471 168.838 232.831 155.104C235.196 152.712 241.789 145.551 243.798 143.874Z" fill="#72A546"/>
<path d="M194.706 266.234C194.721 266.308 194.746 266.379 194.752 266.455C195.077 270.635 171.189 300.973 166.955 305.684C162.426 310.72 146.241 327.168 140.356 327.507L140.168 326.798C140.308 326.367 151.319 317.067 152.899 315.733C169.267 301.932 180.039 281.209 194.706 266.234Z" fill="#72A546"/>
<path d="M317.307 111.809C318.052 112.425 317.824 112.051 318.076 112.927C317.375 115.457 296.253 135.192 293.26 138.575C283.718 149.362 273.078 159.736 263.221 170.258C263.221 170.258 262.386 170.707 262.619 169.987C263.242 168.072 265.012 165.867 266.235 164.229C273.698 154.236 283.174 144.419 292.259 135.789C298.204 130.144 304.285 124.646 309.939 118.701C312.41 116.103 314.347 113.864 317.307 111.809Z" fill="#72A546"/>
</g>
<defs>
<clipPath id="clip0_90_732">
<rect width="334" height="328.748" fill="white" transform="translate(33 36.0001)"/>
</clipPath>
</defs>
</svg>
