<svg width="400" height="400" viewBox="0 0 400 400" fill="none" xmlns="http://www.w3.org/2000/svg">
<g clip-path="url(#clip0_90_1317)">
<path d="M36.6347 49.8593C39.2066 46.1553 39.7708 46.1553 44.6654 41.9491C55.3134 36.4908 66.0369 41.2351 75.9565 46.0758C123.19 68.6986 157.564 112.665 193.743 149.448L211.445 167.38C261.302 218.556 314.021 265.924 361.198 319.942C366.133 325.593 367.497 338.214 365.144 345.415C355.398 375.436 311.075 362.604 290.46 354.761C280.248 350.88 270.617 349.218 260.566 344.259C220.311 324.397 163.854 273.009 128.018 229.905C91.075 185.468 44.6654 115.551 33.9345 67.7069C32.9937 63.5122 33.8959 53.1612 36.6347 49.8593Z" fill="#015734"/>
<path d="M36.6353 49.8593C36.2502 49.5095 35.8773 49.1459 35.5176 48.7696C29.6774 42.6148 35.154 30.0388 44.666 41.9491C46.1582 45.7971 39.8292 50.7242 36.6353 49.8593Z" fill="#72A546"/>
<path d="M44.1732 56.2019C44.3413 56.2617 44.7846 56.4163 44.8401 56.6087C47.1893 64.7567 52.4157 73.8994 56.1318 81.6144C65.141 100.319 73.0583 116.115 86.1021 135.759C94.1635 147.899 102.755 159.745 111.581 171.35C146.059 217.375 182.086 259.652 227.866 294.624C250.737 312.121 275.199 330.504 301.225 343.085C304.991 344.908 322.715 354.369 323.313 357.991C323.425 358.671 321.553 358.101 321.553 358.101C302.745 353.066 281.326 340.346 264.928 329.821C232.344 308.921 196.096 285.508 170.8 255.591C158.699 241.286 146.02 227.484 133.983 213.096C121.335 197.871 107.06 181.72 97.1286 164.699C86.3404 146.208 71.1754 128.873 62.7672 109.09C56.9473 95.3965 49.0034 82.3621 44.2607 68.227C42.7568 63.7454 39.5373 59.6017 44.1732 56.2019Z" fill="#72A546"/>
<path d="M57.854 50.393C58.6653 50.3107 59.5032 50.27 60.2975 50.4901C82.649 61.9528 107.15 83.182 124.413 98.4727C137.226 109.821 148.493 122.893 160.918 134.679C199.711 170.936 236.673 204.693 277.977 244.129C301.088 266.196 325.197 288.644 341.186 316.718C343.618 320.989 348.664 332.033 347.35 336.49C345.005 335.838 341.544 331.062 340.469 328.955C331.856 312.074 319.821 296.529 306.576 282.968C261.319 236.638 212.989 193.235 165.851 148.855C140.587 125.166 115.692 95.6218 87.7608 75.3088C80.105 69.7411 71.5452 64.6073 64.3653 58.4609C61.7681 56.2372 56.5584 54.2157 57.854 50.393Z" fill="#72A546"/>
<path d="M77.4916 89.0908C79.7182 89.3638 82.5972 93.3456 84.07 95.1668C92.3427 105.398 101.491 114.627 110.307 124.335C130.679 146.77 148.671 171.419 168.727 194.164C192.966 222.006 219.501 247.763 248.052 271.163C270.114 289.029 293.658 304.928 317.064 320.952C322.11 324.351 334.827 331.071 334.159 338.298C329.259 337.427 316.782 328.761 312.105 326.14C281.76 309.131 252.545 285.87 226.802 262.677C207.699 245.472 190.467 226.58 172.691 207.985C145.274 179.304 129.93 157.168 109.309 131.019C104.045 124.246 76.0453 95.637 77.4916 89.0908Z" fill="#72A546"/>
<path d="M352.014 345.788C359.572 344.781 355.815 352.906 351.131 355.32C349.479 356.171 347.332 354.537 346.897 352.97C345.966 349.523 348.739 346.558 352.014 345.788Z" fill="#BEBF67"/>
</g>
<defs>
<clipPath id="clip0_90_1317">
<rect width="334" height="328.358" fill="white" transform="translate(33 36)"/>
</clipPath>
</defs>
</svg>
