<svg width="400" height="400" viewBox="0 0 400 400" fill="none" xmlns="http://www.w3.org/2000/svg">
<g clip-path="url(#clip0_90_992)">
<path d="M119.065 35.0905C138.001 34.9698 141.881 65.2188 142.254 69.3793C142.627 73.5397 152.001 76.6325 153.233 72.8182C154.936 67.5465 155.425 60.6457 159.644 57.5438C168.926 50.7193 172.366 54.0044 172.973 64.3701C173.085 66.2792 175.416 68.5761 175.613 69.4601C176.79 74.7334 176.191 79.1289 179.819 83.4399C182.496 86.7044 187.693 90.0629 189.534 86.6728C196.29 74.2316 201.575 88.7771 200.548 97.1344C199.472 105.886 195.759 119.295 202.83 120.046C207.979 120.592 205.906 108.918 210.955 106.442C212.725 105.574 216.971 106.911 221.637 111.111C227.386 116.33 231.487 123.332 231.004 131.294C230.824 134.292 228.204 141.048 231.219 141.956C235.521 143.254 246.069 124.7 258.97 132.956C264.176 137.092 259.028 149.31 264.439 155.411C270.552 162.311 280.105 160.062 285.762 166.117C292.733 173.101 301.059 185.497 283.726 188.719C275.712 190.209 276.407 198.304 278.077 205.607C279.548 212.028 285.937 217.019 291.965 214.802C294.868 213.734 298.849 206.563 302.176 211.235C310.275 222.607 312.861 231.304 308.074 245.217C304.93 255.077 314.756 258.682 319.893 264.429C326.603 271.944 323.879 280.351 326.836 288.509C329.431 295.631 337.725 298.791 342.865 303.865C353.217 316.233 369.407 340.696 366.656 357.986C366.355 359.877 364.642 361.856 362.866 362.45C350.081 366.736 351.083 363.099 346.709 353.395C343.928 347.229 338.698 340.218 335.536 334.081C332.365 327.928 323.09 324.901 316.996 323.186C311.249 321.545 305.95 319.814 301.022 316.233C296.081 312.959 289.552 303.443 284.943 301.871C279.758 300.116 272.289 307.225 270.846 311.547C269.605 315.257 269.515 322.592 263.707 321.156C257.515 319.624 252.24 314.383 250.464 308.289C249.525 305.068 250.085 298.767 247.651 296.771C243.047 292.995 233.863 300.262 231.224 303.854C226.092 310.841 216.489 298.2 209.486 300.45C204.74 301.153 199.862 305.943 198.855 310.669C197.905 315.122 199.308 320.899 192.643 321.948C188.977 322.523 188.378 321.158 185.397 320.472C177.923 318.754 175.549 315.361 173.193 308.363C172.3 305.781 168.138 301.879 165.698 300.143C161.733 296.951 155.253 298.489 151.549 296.609C148.668 295.146 154.415 288.668 154.431 286.812C154.48 281.102 145.031 270.048 140.795 278.003C139.872 279.737 141.08 283.096 140.069 284.792C135.742 291.297 126.976 283.97 122.144 281.502C113.41 277.041 111.632 268.214 109.758 259.692C106.155 243.315 91.4128 263.124 84.3267 253.863C79.6997 247.815 79.0911 236.61 82.5578 230.331C87.0769 222.146 88.9879 214.973 80.1215 213.24C71.3447 211.525 64.823 210.339 57.8646 203.776C52.5222 198.737 49.0375 186.569 58.6498 183.519C64.8871 181.54 70.241 181.324 71.0966 178.612C73.7234 170.287 51.5563 159.956 55.4158 154.011C56.6051 152.179 61.7064 152.111 63.7772 151.479C70.657 149.38 75.4253 145.152 73.1223 137.65C68.9406 132.963 58.8032 137.15 56.1368 132.265C51.8682 124.445 60.0279 120.13 58.1785 117.009C53.2949 108.769 38.9305 120.857 34.6667 107.556C34.3024 106.419 34.8843 105.327 35.9452 104.78C40.9317 102.211 50.8306 91.4118 49.9995 85.9823C49.0057 79.4907 40.542 77.1986 37.7859 71.5898C33.2814 62.4212 32.1305 52.9396 35.5163 43.1895C36.6002 40.0679 37.278 37.9002 40.4349 37.4067C42.5436 37.0771 46.2495 38.596 47.7839 45.3231C48.562 48.7342 51.7397 51.6015 54.3876 53.8687C57.1566 56.2398 62.0176 58.9924 65.5875 59.7365C75.4427 61.7908 80.9024 50.5662 85.6322 44.0605C93.361 34.6497 95.2691 52.4674 99.5613 56.2581C103.876 60.0687 108.867 58.4188 112.501 49.1983C114.78 43.4174 109.82 35.1494 119.065 35.0905Z" fill="#80B44E"/>
<path d="M121.937 73.731C131.328 81.4866 132.013 93.5821 135.849 104.073C137.757 109.293 137.048 116.128 137.952 121.089C138.247 122.71 141.927 129.238 142.801 131.023C145.231 135.985 149.954 140.948 152.86 145.739C158.822 154.943 163.439 164.964 169.231 174.223C174.13 182.054 180.348 188.899 185.051 196.952C184.616 191.528 182.28 184.056 182.591 179.388C183.357 167.919 185.43 156.821 183.067 145.255C181.011 135.198 169.857 124.759 172.476 114.264C183.485 120.487 189.013 135.074 191.663 146.726C194.3 158.32 191.015 169.127 190.755 180.572C190.643 186.877 192.11 192.945 192.459 199.213C192.784 205.048 197.158 208.316 201.253 211.85C205.97 215.919 210.754 220.131 215.877 223.661C221.126 227.279 226.905 230.286 231.893 234.274C231.103 231.305 229.757 229.525 228.739 226.993C225.001 217.697 225.412 204.36 228.545 194.962C230.292 189.725 232.386 187.061 232.771 181.003C233.383 176.811 230.22 162.961 234.475 161.576C243.757 161.641 240.552 185.885 238.899 190.715C237.813 193.993 236.249 196.782 235.109 200.422C231.294 212.598 232.288 229.213 242.086 238.507C246.844 243.02 257.198 246.441 262.918 250.316C264.339 251.276 268.776 253.913 270.216 254.624L270.401 254.358C269.85 252.15 268.291 251.27 267.557 249.534C263.92 240.925 259.313 230.587 263.022 221.286C263.589 219.861 264.599 218.72 266.004 218.206C269.927 218.909 269.386 229.717 269.845 232.488C270.916 238.977 275.25 249.963 279.459 254.995C298.879 278.215 326.559 293.302 344.215 318.304C350.119 326.665 359.521 344.082 359.521 354.089C359.169 355.629 357.427 356.446 356.189 357.188C341.021 323.936 323.891 309.555 299.762 288.601C292.082 281.386 285.015 276.514 275.849 271.331C267.39 266.552 257.659 258.897 248.376 256.063C246.051 256.739 244.861 256.256 242.91 256.771C238.306 257.985 233.6 260.105 229.118 261.68C220.055 264.861 211.727 273.065 201.892 272.845C198.167 272.742 194.626 271.204 192.008 268.551C196.789 266.274 202.456 266.441 207.318 264.278C213.94 261.335 220.466 257.465 227.329 254.971C231.551 253.436 235.673 252.503 239.973 250.87C226.809 245.544 216.349 234.931 203.381 229.733C194.757 227.712 187.362 228.888 178.956 231.08C167.875 233.969 156.159 235.622 144.645 234.441C139.005 233.862 95.1701 222.14 96.6462 213.404C105.148 208.06 121.827 217.909 129.441 221.175C143.252 227.1 157.779 226.739 172.363 224.789C176.349 223.69 192.305 223.67 194.659 221.224C194.213 220.514 191.26 217.992 190.436 217.186C186.965 213.608 182.769 210.25 179.586 206.427C174.065 199.797 169.249 192.072 164.109 185.122C160.09 179.687 158.895 174.01 151.69 171.657C134.041 165.891 105.4 166.711 97.6097 145.978C102.205 147.163 105.95 148.146 110.189 150.476C113.056 152.051 117.14 155.147 120.163 156.132C130.598 159.53 141.683 161.488 152.319 164.244C140.923 143.131 125.684 123.062 106.025 109.44C92.4773 100.051 72.2382 94.3794 63.7832 79.6791C64.8107 79.2036 66.3935 78.5619 67.4593 79.0032C79.2077 83.868 90.083 89.7061 101.555 95.09C109.46 98.8006 116.344 104.415 123.131 109.828C125.084 111.399 128.769 116.115 130.84 116.884C132.38 114.276 128.917 108.866 128.341 106.182C126.853 99.2399 125.141 90.4953 121.306 84.3533C119.405 81.3078 116.145 78.759 114.32 75.59C113.047 73.4105 112.537 71.7299 114.995 70.4239C117.336 69.1937 120.366 72.434 121.937 73.731Z" fill="#EFF6E9"/>
</g>
<defs>
<clipPath id="clip0_90_992">
<rect width="334" height="329.759" fill="white" transform="translate(33 35)"/>
</clipPath>
</defs>
</svg>
