<svg width="400" height="400" viewBox="0 0 400 400" fill="none" xmlns="http://www.w3.org/2000/svg">
<g clip-path="url(#clip0_90_1760)">
<path d="M287.484 35.7775C295.072 41.8277 291.275 50.8975 287.959 57.9279C285.954 62.1807 286.374 66.6456 283.26 70.678C276.783 79.064 267.151 79.981 259.146 85.5438C251.229 91.1388 242.941 96.6918 234.558 101.526C226.788 106.003 228.049 112.339 224.486 119.016C221.586 124.451 213.341 124.881 209.177 128.513C205.763 131.491 203.051 135.511 199.94 138.808C189.75 148.453 182.029 159.427 169.295 165.872C161.463 170.351 155.518 174.964 149.221 181.353C143.797 186.855 139.398 191.379 134.431 197.242C131.589 200.596 123.391 204.217 119.692 206.956C111.673 212.897 104.575 219.123 94.205 220.679C67.9573 224.617 47.2899 197.855 50.2518 173.515C50.5381 171.163 51.418 168.39 51.7473 165.818C52.2501 161.89 51.7546 157.537 52.5185 153.766C54.1327 145.797 63.2568 137.278 69.266 132.237C73.081 129.037 78.5422 125.454 82.0938 121.604C84.0493 119.483 85.027 115.175 87.0522 112.371C90.3896 107.751 98.1686 104.012 103.872 104.098C105.322 104.12 109.304 105.632 110.584 105.455C113.616 105.035 118.944 103.117 121.703 101.925C140.071 93.9853 155.298 81.3031 172.568 71.5365C177.828 68.5617 182.221 67.9839 186.764 65.7242C194.044 62.1036 197.303 58.4691 205.863 56.0107C213.899 53.7028 222.031 52.5224 229.905 49.9425C234.143 48.5546 237.615 45.3777 242.047 43.618C247.285 41.538 253.026 41.8922 257.958 40.4388C265.619 38.1804 279.525 29.4266 287.484 35.7775Z" fill="#926823"/>
<path d="M280.129 37.4947C285.118 36.5252 287.367 41.0237 288.471 44.7437C287.091 51.1249 283.528 57.5272 282.071 64.1144C280.033 73.3326 261.787 77.3226 255.743 82.8002C246.599 91.0868 231.522 95.7047 224.829 103.601C221.535 107.486 224.954 111.359 218.46 113.208C215.936 113.927 214.529 119.497 212.73 121.846C211.598 123.324 207.111 123.689 205.852 124.866C201.195 129.087 197.772 134.829 193.548 139.438C188.408 144.584 183.704 150.409 178.326 155.3C171.522 161.488 161.333 165.273 154.215 171.312C149.704 175.787 142.206 181.829 138.454 186.76C131.285 196.179 125.738 199.299 115.7 205.136C107.839 209.706 101.476 215.765 91.5317 216.636C81.4072 217.523 75.2025 214.568 67.5247 208.515C54.3737 197.622 51.9574 184.014 55.6864 167.918C56.6336 163.83 54.6766 158.763 55.905 155.154C60.5934 141.381 75.8944 134.849 85.0571 124.616C86.6882 122.794 88.2983 118.502 89.3488 116.18C96.8436 120.948 101.855 115.77 103.925 108.611C116.488 113.693 131.097 102.732 141.545 96.3998C149.481 91.6486 156.8 85.2002 164.835 80.8281C173.344 76.1982 182.707 73.2152 191.06 68.6016C196.982 65.3303 199.749 62.5688 206.375 60.4468C215.403 57.556 224.617 56.421 233.558 53.3556C237.243 52.0922 240.339 48.9207 243.874 47.508C248.93 45.4814 254.718 45.6007 259.894 44.1944C266.797 42.318 272.935 38.5636 280.129 37.4947Z" fill="#EDBA71"/>
<path d="M74.6571 144.367C77.4595 145.147 77.2548 153.145 78.0907 155.544C80.2429 164.355 87.1506 169.224 93.5683 174.872C99.6775 180.249 105.619 186.052 112.548 190.424C114.464 191.633 110.216 192.686 109.491 192.495C104.495 191.183 93.5548 181.023 89.9982 177.944C81.8126 170.857 74.6571 165.252 73.6105 153.12C73.0578 150.04 72.1037 146.779 74.6571 144.367Z" fill="#BF9049"/>
<path d="M141.006 106.765C141.599 106.907 142.709 107.246 142.825 107.853C145.223 120.422 149.79 132.525 159.886 140.956C161.531 142.33 165.365 144.742 166.731 146.54C166.628 147.431 166.124 147.754 165.469 148.404C162.94 148.585 160.875 147.238 158.883 145.721C148.59 137.88 142.02 125.287 140.125 112.58C139.734 109.958 139.505 108.82 141.006 106.765Z" fill="#BF9049"/>
<path d="M210.478 66.0605C214.312 66.5416 215.341 79.7937 217.589 82.7089C220.328 86.2624 224.695 89.0705 228.255 91.3893C228.027 92.3815 227.9 92.2331 227.055 93.0972C220.842 93.6222 214.048 86.5132 212.31 81.0968C211.72 79.2608 211.471 76.0715 210.956 74.1064C210.164 71.085 207.702 68.2673 210.478 66.0605Z" fill="#BF9049"/>
<path d="M133.6 136.246C136.184 135.997 143.02 142.078 140.484 145.098C138.554 147.396 133.054 147.589 130.641 146.193C128.233 144.8 126.67 141.815 128.276 139.225C129.508 137.239 131.422 136.455 133.6 136.246Z" fill="#926823"/>
<path d="M197.28 80.782C201.033 80.2721 206.379 85.6755 204.862 89.3908C204.191 90.1887 203.466 90.3056 202.458 90.649C197.991 91.2158 192.545 90.3865 194.777 83.893C195.276 82.4413 195.934 81.5882 197.28 80.782Z" fill="#926823"/>
<path d="M69.9629 187.523C71.0248 187.536 78.058 190.701 78.9493 191.891C79.6219 192.788 79.5496 192.775 79.463 193.744C78.2973 195.67 73.2296 197.138 71.0979 196.715C68.238 196.175 66.5328 193.152 67.189 190.386C67.5627 188.849 68.6868 188.344 69.9629 187.523Z" fill="#926823"/>
<path d="M271.339 48.5458C275.825 48.46 279.71 53.9572 275.052 57.7593C273.455 58.3835 271.692 58.3467 270.701 56.8743C268.554 53.681 268.497 50.8936 271.339 48.5458Z" fill="#926823"/>
<path d="M69.8231 251.627C82.7633 251.376 93.0498 262.454 106.684 262.104C113.401 261.933 124.533 263.35 130.506 260.675C137.436 257.576 141.274 251.148 149.973 251.669C156.367 251.71 157.557 256.21 159.816 260.986C161.205 263.924 164.603 269.334 167.945 270.418C173.327 272.163 178.922 273.369 184.437 274.8C193.224 277.079 202.156 280.86 211.259 281.368C216.918 281.47 222.753 274.452 229.42 275.285C236.652 276.19 238.833 281.615 245.059 284.309C247.92 285.429 254.384 286.168 257.634 286.612C276.725 289.224 287.053 294.391 298.714 314.162C302 319.314 308.732 328.587 308.06 334.928C307.593 339.352 300.426 350.082 296.593 353.067C281.781 363.248 272.575 366.484 254.255 366.134C226.434 365.86 201.479 351.96 176.8 344.092C171.464 343.2 165.407 344.574 159.998 343.392C154.079 342.469 149.803 340.64 144.393 339.769C139.219 338.934 134.958 341.846 129.152 338.441C123.152 334.923 124.307 330.792 119.151 326.985C108.726 319.292 95.2012 316.606 85.5348 308.073C76.3137 299.931 70.6301 289.379 62.8724 280.059C60.1386 276.776 52.2347 274.32 52.1748 270C52.0303 259.522 56.883 251.879 69.8231 251.627Z" fill="#926823"/>
<path d="M63.9281 255.234C66.9294 255.403 71.8442 255.247 74.5759 255.857C82.1762 257.548 88.9249 262.314 96.6935 264.471C105.806 267.062 128.72 268.6 136.34 261.572C137.985 260.053 142.311 256.969 144.515 256.492C145.466 258.087 146.583 259.972 147.972 261.126C149.023 262.001 153.107 260.883 154.278 260.543C154.842 260.379 156.079 263.359 156.37 264.036C157.196 265.968 161.501 272.552 163.55 273.369C168.842 275.477 177.107 276.639 182.857 278.36C188.88 280.1 194.737 282.071 200.843 283.536C204.724 284.467 209.328 284.763 213.052 285.917C214.406 285.429 215.767 284.96 217.132 284.506C219.064 282.131 220.745 281.327 223.32 279.763C224.647 285.586 231.715 289.732 234.658 282.362C237.266 284.203 239.8 287.268 242.556 288.484C245.077 289.402 248.326 289.278 250.937 289.578C265.249 291.228 281.866 296.984 288.23 305.975C295.35 316.034 301.313 322.869 303.12 331.518C304.927 340.167 287.127 355.157 278.137 358.432C258.027 365.75 236.794 362.304 217.559 354.159C206.069 349.293 193.527 344.642 181.548 341.136C173.842 339.025 166.591 340.845 158.682 339.357C147.953 337.334 146.171 333.04 135.411 335.999C134.655 334.362 133.117 331.795 131.401 331.079C128.561 329.897 128.514 332.005 127.726 332.288C126.212 330.496 125.508 326.316 123.052 324.187C113.029 315.485 98.8918 313.95 88.9859 305.252C80.186 297.527 77.5245 289.724 67.9239 278.791C64.5096 274.903 61.2537 273.866 57.0339 271.26C56.9851 265.742 59.5469 258.764 63.9281 255.234Z" fill="#EDBA71"/>
<path d="M148.195 273.599C148.665 273.62 148.686 273.667 149.146 273.804C151.307 276.778 146.888 281.433 144.877 283.246C141.509 286.285 137.901 295.908 138.468 300.195C139.516 308.135 138.248 308.127 135.398 315.845C135.829 317.642 137.739 321.581 136.66 322.794L135.519 322.797C128.613 319.04 134.186 310.235 134.454 304.717C134.706 299.502 133.565 297.41 135.205 291.643C137.331 284.166 141.425 277.543 148.195 273.599Z" fill="#BF9049"/>
<path d="M239.563 300.301C246.675 300.508 238.85 320.323 241.41 334.321C242.797 339.222 244.623 344.271 247.457 348.526C247.991 349.33 249.617 351.449 249.666 352.227C248.501 353.169 246.81 352.7 245.802 351.667C241.957 347.717 238.028 338.574 237.053 333.268C235.317 323.819 237.317 315.389 238.85 306.255C239.268 303.76 237.095 301.943 239.563 300.301Z" fill="#BF9049"/>
<path d="M202.013 289.223C203.428 289.246 203.219 289.039 204.286 289.659C205.464 291.676 202.421 294.923 201.348 297.638C197.149 308.27 192.877 317.94 192.375 329.583C192.311 331.095 193.411 334.92 193.501 336.613C193.54 337.352 193.238 337.43 192.677 338.045C184.416 334.915 189.384 314.651 191.913 308.929C194.434 303.226 196.291 292.327 202.013 289.223Z" fill="#BF9049"/>
<path d="M93.67 272.648C94.95 272.583 95.4756 272.443 96.424 273.062C97.7574 276.706 93.1343 285.372 92.5443 289.226C91.8698 293.636 91.9866 297.706 94.5475 301.429C92.0463 305.283 88.4414 298.54 88.4414 293.344C88.4414 287.195 89.5355 277.121 93.67 272.648Z" fill="#BF9049"/>
<path d="M222.864 331.261C227.135 331.162 230.801 336.992 228.812 340.127C227.906 341.528 224.877 342.7 223.289 341.81C219.145 339.445 217.299 333.118 222.864 331.261Z" fill="#926823"/>
<path d="M175.447 309.398C181.973 309.833 184.883 321.879 176.879 320.245C170.746 319.496 171.135 312.116 175.447 309.398Z" fill="#926823"/>
<path d="M282.976 332.545C291.417 331.753 287.67 343.126 283.36 341.618C280.311 340.882 274.704 341.304 278.874 335.755C279.924 334.36 281.288 333.089 282.976 332.545Z" fill="#926823"/>
<path d="M123.136 288.966C132.744 289.109 128.202 301.542 123.447 299.225C120.811 297.941 118.951 293.362 120.201 290.655C120.724 289.521 121.989 288.949 123.136 288.966Z" fill="#926823"/>
<path d="M78.6958 268.532C81.4275 268.252 83.0202 268.327 85.0854 270.656C87.377 273.236 86.6616 276.09 83.7911 276.68C80.0158 277.456 72.4322 271.938 78.6958 268.532Z" fill="#926823"/>
<path d="M297.576 92.4235C301.694 91.8981 309.717 93.4716 313.112 96.3246C316.506 99.1776 315.156 112.252 316.657 118.701C319.379 130.422 324.759 138.283 327.991 152.964C330.761 165.547 333.001 178.341 335.138 191.049C336.121 197.376 336.429 202.738 338.097 208.996C341.401 221.234 353.426 232.942 350.103 246.104C344.748 267.45 330.099 275.01 305.221 275.396C289.713 275.637 275.09 267.108 266.774 253.71C260.704 243.926 248.747 236.784 253.007 223.544C255.416 216.406 253.995 210.913 254.428 203.595C254.815 197.044 256.046 191.024 256.384 184.508C257.016 176.858 255.092 169.392 256.679 161.85C257.784 156.604 263.043 154.665 265.208 151.05C269.86 143.278 274.538 134.847 277.036 126.105C280.716 113.198 282.337 96.1803 297.576 92.4235Z" fill="#926823"/>
<path d="M311.379 100.722C311.807 106.617 311.177 112.97 312.178 118.845C314.078 129.978 320.755 140.55 323.1 151.804C326.054 164.877 329.369 178.724 330.766 192.081C332 203.884 333.849 214.64 340.117 224.968C343.894 231.191 346.587 234.748 346.587 243.428C346.587 263.887 319.201 271.513 303.066 271.003C289.718 270.582 282.904 265.866 274.74 256.987C271.248 253.189 268.366 248.038 265.166 244.019C263.67 242.139 261.961 240.757 260.195 239.141C262.205 236.73 263.369 233.807 261.979 230.724C260.831 228.14 258.655 226.509 256.064 225.575C256.643 223.968 258.03 220.297 258.201 218.77C258.748 213.336 258.214 208.062 258.554 202.571C259.044 194.649 260.854 186.702 261.342 178.811C261.471 176.711 260.8 172.787 260.535 170.605C264.395 166.745 264.968 162.05 264.632 156.817C272.951 150.935 278.256 136.74 280.943 127.38C283.461 118.607 284.198 109.175 289.311 101.223C293.96 93.9991 305.997 93.9447 311.379 100.722Z" fill="#EDBA71"/>
<path d="M329.902 245.902C332.173 247.714 328.664 249.635 320.953 252.87C307.279 258.606 296.753 259.705 283.928 255.253C283.054 254.833 282.224 254.55 282.068 253.541C285.689 250.963 296.768 255.3 301.836 254.882C309.613 254.218 313.539 252.058 320.512 249.239C323.37 248.083 326.826 247.19 329.902 245.902Z" fill="#BF9049"/>
<path d="M271.553 172.508C282.321 172.791 292.726 177.408 303.465 177.103C306.328 177.022 309.566 175.594 312.341 174.929C315.347 174.207 315.985 173.987 318.609 175.519C304.167 183.404 294.352 179.381 281.296 176.341C278.871 175.776 270.84 175.776 270.127 173.667C270.591 172.846 270.581 173.049 271.553 172.508Z" fill="#BF9049"/>
<path d="M306.39 231.681C311.895 231.136 313.275 236.317 310.298 240.243C307.068 244.503 297.17 240.022 300.558 234.502C301.873 232.363 304.082 232.114 306.39 231.681Z" fill="#926823"/>
<path d="M307.798 158.806C313.063 158.32 313.415 164.641 310.248 167.402C307.969 169.346 302.304 167.511 301.382 164.803C300.088 161.006 305.329 159.489 307.798 158.806Z" fill="#926823"/>
<path d="M289.019 118.14C289.597 118.183 292.105 119.093 292.629 119.378C295.251 120.805 302.286 119.151 304.041 121.594C303.722 125.637 294.537 123.833 292.25 123.241C289.151 122.439 288.049 121.084 289.019 118.14Z" fill="#BF9049"/>
<path d="M301.037 103.605C305.957 104.255 305.725 113.213 300.944 113.448C297.51 110.858 294.793 104.987 301.037 103.605Z" fill="#926823"/>
</g>
<defs>
<clipPath id="clip0_90_1760">
<rect width="301.845" height="334" fill="white" transform="translate(49 33)"/>
</clipPath>
</defs>
</svg>
