<svg width="400" height="400" viewBox="0 0 400 400" fill="none" xmlns="http://www.w3.org/2000/svg">
<g clip-path="url(#clip0_90_1543)">
<path d="M106.162 50.6032C113.311 52.9808 113.257 43.7721 116.011 40.7704C123.062 33.0859 125.396 46.8745 130.965 46.3586C135.237 45.9627 133.002 40.2691 137.246 40.1675C141.106 40.0751 141.818 42.0677 144.631 44.9113C144.96 45.2432 145.056 44.0794 145.273 43.6662C150.185 34.3261 158.346 40.1155 155.935 48.6113C155.665 49.5621 153.909 53.0524 154.556 53.2275C160.527 54.8411 161.263 67.3244 151.863 68.1415C151.736 68.1526 151.617 68.0681 151.537 68.1672C150.391 69.5741 153.409 70.3877 153.267 73.1311C153.053 77.2657 149.127 79.3548 147.423 82.6841C146.737 84.0241 148.048 87.4266 147.024 88.4847C142.884 92.7604 141.978 85.4259 137.454 89.0768C135.471 90.6768 137.804 94.4366 137.838 94.8063C138.072 97.3824 137.071 103.079 133.896 103.559C132.894 103.711 131.889 101.431 131.176 102.064C129.661 103.41 129.31 106.779 130.63 108.48C135.111 114.255 134.269 112.097 130.098 120.206C127.417 125.416 132.769 131.681 138.171 129.268C141.296 127.872 135.813 121.631 138.856 118.636C140.495 117.022 142.038 118.596 143.834 117.955C145.266 117.445 146.318 114.152 145.3 112.99C143.154 110.542 140.279 110.27 139.197 106.58C138.055 102.686 141.29 95.3172 145.111 93.8073C146.803 93.1386 149.293 97.4633 150.928 98.316C152.857 99.323 154.665 101.03 156.927 100.947C158.4 100.893 160.418 96.9573 158.961 96.5724C150.95 94.4562 151.089 97.3662 150.607 88.6033C150.41 85.0198 151.307 80.7452 155.066 79.3494C158.486 78.0797 161.851 84.4981 162.966 82.1476C164.135 79.6836 160.979 75.6898 161.044 73.0012C161.099 70.7083 163.233 68.8553 164.936 67.6458C169.556 64.3656 163.382 59.3023 162.164 56.2272C160.996 53.2795 163.077 46.461 165.579 44.6371C169.037 42.1172 171.607 50.4447 174.532 50.3505C177.54 50.2535 177.355 46.3514 180.578 47.4176C183.318 48.3237 184.072 50.7793 184.278 53.3857C184.446 55.5095 182.843 57.5731 182.759 59.6616C182.735 60.2708 184.524 59.2431 185.307 59.2572C193.647 59.4078 184.486 75.9064 189.493 78.8338C196.473 82.9147 200.006 80.9742 196.358 88.4847C195.415 90.4259 193.889 91.6715 194.392 93.9493C195.534 99.1176 193.654 100.075 188.49 97.6528C187.492 97.1849 185.344 101.497 186.055 102.209C187.879 104.036 190.563 104.458 190.508 107.439C190.42 112.185 183.427 112.939 182.581 116.893C181.87 120.219 188.046 119.795 188.458 122.363C189.456 128.585 187.719 128.816 179.434 132.412C172.524 135.411 183.942 148.826 174.345 151.205C169.906 152.306 168.817 139.991 163.762 141.432C161.093 142.192 158.586 146.295 160.867 147.902C166.029 151.54 174.81 152.411 170.019 158.696C167.284 162.284 158.528 160.137 160.408 165.777C160.662 166.54 161.924 166.88 162.748 166.652C165.114 165.998 165.967 164.134 168.42 164.462C171.645 164.893 174.19 167.697 175.294 170.841C176.814 175.167 171.997 179.655 176.822 179.09C182.954 178.37 177.919 174.371 178.533 169.949C179.163 165.409 191.423 166.652 191.649 165.821C192.02 164.462 182.691 158.54 181.331 149.052C180.953 146.414 185.339 143.464 187.322 143.272C191.142 142.901 194.96 145.599 196.421 149.314C196.957 150.674 197.317 152.027 198.222 153.113C198.344 153.26 198.569 153.244 198.712 153.117C199.605 152.318 200.463 151.893 200.42 150.704C200.271 146.586 198.759 142.095 194.24 140.292C186.53 137.216 188.898 125.976 195.784 123.841C198.047 123.139 201.208 128.139 202.486 126.397C205.607 122.142 202.992 118.503 199.286 114.294C197.946 112.771 195.744 109.278 196.518 107.137C197.538 104.313 199.299 101.007 200.894 98.3824C202.583 95.6033 206.341 95.2323 205.374 91.7493C204.166 87.3973 197.733 80.8533 204.622 77.7246C206.241 76.9893 208.087 76.9503 209.733 77.6224C214.249 79.4664 212.557 91.2754 217.189 90.0392C228.063 87.1365 229.638 86.1402 231.012 94.7303C231.45 97.4728 225.8 102.924 228.563 103.214C234.554 103.843 235.317 99.4223 239.853 103.865C243.795 107.726 234.286 119.92 239.782 120.42C243.087 120.721 251.265 117.934 252.504 122.425C253.167 124.829 246.445 130.385 247.499 132.852C249.303 137.079 246.512 138.22 251.182 140.87C264.664 148.522 264.736 157.143 253.223 158.978C248.618 159.712 247.847 157.553 243.591 156.71C238.957 155.791 234.445 150.156 233.972 155.338C233.511 160.385 242.234 159.455 242.421 164.989C242.549 168.801 237.047 176.258 232.97 175.775C228.341 175.226 227.41 172.846 225.515 177.768C224.911 179.338 228.93 180.824 229.896 182.189C233.773 187.667 232.308 190.844 233.421 197.139C234.264 201.911 238.498 200.9 239.053 206.216C239.357 209.123 237.776 210.646 235.004 210.544C230.984 210.396 232.783 206.623 229.206 204.588C225.232 202.328 223.569 202.136 219.133 201.576C217.555 201.377 216.456 204.036 216.891 205.568C219.355 214.23 225.36 207.661 230.913 212.739C233.349 214.967 238.142 220.882 235.09 224.117C232.865 226.475 225.944 225.269 222.95 225.608C222.548 225.653 222.038 227.792 222.042 228.087C222.092 232.346 230.013 230.207 232.056 233.39C233.761 236.047 228.64 243.337 231.702 243.279C237.608 243.167 241.848 230.416 246.543 240.653C247.581 242.918 251.553 243.863 253.921 243.029C256.306 242.19 256.826 238.826 256.3 236.21C255.944 234.437 250.608 233.088 249.812 231.516C248.897 229.708 248.673 226.101 247.89 224.031C245.927 218.841 241.725 212.861 249.615 210.446C255.508 208.643 260.543 216.604 261.29 213.868C262.496 209.45 256.488 207.588 253.846 203.931C252.053 201.45 249.739 198.617 250.276 195.345C251.006 190.896 257.512 191.447 258.313 187.289C258.725 185.152 256.757 183.464 255.087 182.294C251.667 179.899 247.616 174.134 248.298 169.817C248.862 166.256 254.159 161.618 258.119 162.893C261.81 164.081 261.902 170.893 265.42 171.805C268.071 172.492 268.546 167.861 271.179 168.302C277.652 169.387 280.605 175.819 279.529 182.356C279.354 183.418 278.473 187.696 280.329 187.887C283.272 188.19 287.047 185.082 290.339 187.197C294.607 189.94 292.258 194.112 293.431 198.257C293.478 198.42 293.391 198.728 293.552 198.674C298.971 196.862 303.181 195.291 306.771 201.119C312.914 211.09 291.831 217.519 296.065 222.352C298.947 225.642 303.725 213.173 310.424 225.261C313.984 231.686 309.805 240.193 302.152 241.861C300.373 242.249 298.397 240.019 297.442 241.866C293.982 248.558 307.479 248.146 309.359 252.885C310.453 255.64 306.454 258.932 306.436 261.714C306.4 266.953 304.73 270.395 299.387 272.125C294.781 273.617 292.321 264.681 289.468 266.142C288.407 266.685 287.999 267.342 288.225 268.513C288.67 270.824 293.268 271.886 293.459 274.797C293.801 280.014 285.644 277.815 286.608 281.918C287.248 284.647 292.226 285.178 294.186 287.226C299.877 293.174 294.349 299.55 287.783 298.449C281.578 297.41 263.81 301.926 261.552 305.402C259.25 308.947 261.046 322.2 254.933 323.411C247.834 324.817 251.372 316.772 245.69 315.187C238.309 313.128 238.856 319.905 236.679 327.412C236.268 328.83 232.774 332.344 233.758 333.693C236.837 337.915 246.158 344.135 238.349 348.221C232.551 351.255 227.38 347.281 222.406 343.991C218.808 341.611 220.497 334.122 218.512 330.268C218.449 330.144 218.474 329.892 218.349 329.952C212.296 332.848 211.85 340.004 205.865 339.644C198.113 339.179 203.858 331.363 201.494 329.639C200.008 328.556 198.519 330.366 196.869 331.014C192.217 332.843 185.564 336.949 180.848 333.398C178.592 331.7 177.944 326.832 179.788 324.672C180.201 324.188 180.818 324.014 180.244 323.726C173.01 320.104 171.746 339.644 156.11 337.576C153.058 337.172 146.506 333.549 144.66 330.813C142.163 327.11 144.291 322.822 147.968 321.575C150.428 320.74 151.942 324.165 153.854 322.465C154.934 321.505 149.313 318.621 148.284 318.267C142.961 316.439 139.383 316.31 136.099 311.128C134.214 308.154 131.161 303.903 132.174 300.195C135.181 289.181 141.672 300.273 145.98 300.531C147.523 300.623 147.895 295.879 148.552 294.264C151.788 286.31 154.661 291.948 161.522 293.119C166.799 294.019 171.664 287.55 176.886 289.408C179.427 290.312 179.66 295.596 179.138 297.574C179.105 297.699 179.289 297.775 179.416 297.753C182.53 297.223 184.531 298.321 187.047 298.031C187.223 298.01 187.376 297.841 187.323 297.672C186.779 295.957 184.578 294.453 183.757 292.279C181.85 287.229 183.846 281.104 188.395 278.662C189.32 278.165 192.37 279.875 193.441 279.671C199.585 278.501 200.229 280.489 200.958 285.289C201.564 289.272 200.572 292.736 200.4 296.525C200.222 300.422 207.365 300.317 208.158 297.238C208.656 295.307 205.894 293.114 207.366 291.076C209.578 288.011 211.736 289.328 215.209 289.668C216.345 289.779 216.524 287.549 216.446 286.406C216.29 284.147 214.499 282.307 212.764 280.768C210.549 278.803 208.723 282.098 206.67 282.214C202.564 282.444 203.4 275.648 200.695 273.917C197.675 271.984 192.755 274.257 189.893 271.654C188.417 270.312 187.406 267.817 186.593 265.998C185.041 262.522 182.687 259.812 179.784 264.073C178.571 265.854 181.884 269.078 182.384 271.361C183.551 276.686 180.612 281.375 175.306 280.839C166.742 279.973 169.564 273.48 165.624 267.562C165.56 267.465 165.527 267.716 165.464 267.814C163.577 270.743 162.597 273.705 160.827 276.749C160.316 277.629 159.438 278.207 158.478 277.872C154.48 276.48 154.191 277.494 151.28 280.397C144.332 287.327 139.203 282.029 141.071 273.821C141.574 271.611 144.599 267.202 143.194 265.304C142.711 264.652 142.674 264.664 142.079 265.158C137.06 269.321 137.447 277.203 135.54 282.779C134.5 285.819 131.653 287.791 128.71 286.641C125.293 285.306 122.715 281.737 124.273 277.915C124.557 277.219 124.662 277.047 124.762 276.321C124.783 276.172 124.513 276.204 124.381 276.275C121.91 277.6 118.764 281.944 120.239 284.736C121.037 286.247 121.003 287.579 119.657 288.772C115.813 292.18 111.088 293.605 107.126 289.365C104.871 286.952 107.624 282.547 107.289 279.822C106.749 275.425 98.1336 282.583 96.4647 283.979C95.306 284.949 92.2495 289.548 90.9476 289.855C87.4266 290.685 84.3859 291.605 80.4831 291.252C76.4141 290.885 74.1131 285.412 76.7955 281.621C78.7434 278.868 83.8325 281.366 84.7479 279.368C85.3138 278.133 85.7349 275.299 84.3753 275.307C77.9188 275.342 78.6146 278.839 73.8049 272.779C71.517 269.896 71.2882 268.322 67.4549 268.49C63.0693 268.683 64.6776 273.775 60.0746 274.078C56.3591 274.322 50.592 270.173 52.0964 265.044C52.7935 262.668 55.8019 261.866 57.9243 260.874C59.1802 260.288 60.1722 258.61 59.2451 257.58C57.1072 255.203 56.392 253.818 53.1721 253.397C51.6836 253.203 50.2559 254.109 48.8144 254.525C47.7718 254.826 46.9055 254.567 46.1296 253.808C41.9374 249.709 45.8273 247.226 44.0426 242.068C42.0171 236.214 34.4587 238.125 33.7539 230.703C32.7418 220.046 36.9505 216.596 46.037 223.423C46.8405 224.027 48.1793 226.176 48.9312 226.62C55.0536 230.239 47.9367 233.87 54.3789 236.304C60.2705 238.53 55.511 232.177 54.7298 227.828C53.7438 222.338 53.3027 214.371 60.6941 213.568C61.7055 213.458 64.0837 213.324 64.8651 214.155C67.1294 216.561 65.4013 222.546 67.6458 224.672C68.7839 225.751 78.0258 216.83 78.9244 216.615C79.9703 216.363 81.0827 216.652 81.9506 217.26C83.6276 218.435 84.5975 220.571 84.9445 222.544C85.6148 226.357 82.8697 226.524 81.6875 229.185C81.4925 229.624 81.5479 229.932 81.7533 230.348C82.785 232.437 88.0661 235.911 89.3909 234.225C92.0793 230.803 87.9628 220.162 95.8055 220.799C97.699 220.953 101.677 226.373 103.388 225.459C106.73 223.672 106.25 216.756 111.918 218.564C117.206 220.25 112.044 231.495 113.547 233.135C114.837 234.543 119.752 235.672 121.006 233.92C122.234 232.204 119.515 230.645 119.807 228.456C120.233 225.272 122.987 222.777 126.259 223.774C127.244 224.074 128.377 225.834 129.444 225.967C130.792 226.136 131.572 225.643 132.99 225.825C135.15 226.102 136.541 231.593 137.692 230.678C140.481 228.461 134.353 223.484 144.604 214.593C147.498 212.083 142.054 210.022 137.884 211.026C134.584 211.821 133.371 215.12 130.331 215.185C126.783 215.26 124.409 211.726 124.611 207.912C124.819 203.979 127.549 201.37 130.314 198.921C131.232 198.107 128.861 193.9 124.73 199.039C123.802 200.193 123.57 202.34 123.102 203.826C122.048 207.182 119.642 207.761 116.222 206.955C112.211 206.009 113.266 198.241 111.495 199.415C109.2 200.937 108.153 203.467 105.347 203.368C100.616 203.203 101.714 199.847 98.7169 196.468C96.7537 194.255 93.1542 202.481 88.5165 203.51C84.9474 204.302 80.2936 203.007 77.1441 201.303C75.1024 200.198 74.275 195.912 76.827 194.712C78.8285 193.77 82.3371 193.942 83.143 192.004C85.4576 186.436 79.4486 186.612 75.9088 185.075C73.7931 184.157 75.1965 179.188 72.3793 178.343C70.916 177.904 70.2389 181.568 66.6976 182.858C66.5707 182.904 66.5025 183.01 66.3721 182.975C58.4389 180.855 55.8446 178.361 60.6338 170.658C61.4693 169.315 61.3625 167.591 60.0958 166.643C56.8562 164.218 56.0838 164.117 52.4869 164.94C48.7551 165.794 46.3081 166.117 42.8244 163.968C40.0555 162.26 36.6702 156.719 39.111 153.665C42.7069 149.165 44.359 150.254 48.5735 145.98C50.6626 143.861 47.4405 141.371 44.7852 140.157C41.2634 138.546 37.5193 139.379 36.0758 135.114C34.0549 129.142 36.4592 122.233 38.6393 116.608C39.2362 115.068 40.7113 112.876 42.3698 112.423C48.1973 110.833 44.5162 120.923 47.5692 121.894C51.0349 122.995 49.204 112.591 49.1126 111.563C48.7143 107.082 53.5677 103.903 57.5998 103.978C65.0076 104.117 66.2987 123.532 69.4352 122.792C73.5591 121.819 76.311 122.239 79.6476 124.482C82.5444 126.428 84.0254 128.399 83.4924 131.683C82.7399 136.32 78.4888 132.775 75.8127 136.096C73.3569 139.144 76.7589 141.481 80.0649 143.789C80.1275 143.833 80.1053 143.677 80.1317 143.606C80.1757 143.486 80.2027 143.42 80.2465 143.301C82.7687 136.426 89.1211 133.561 94.4047 138.414C97.3123 141.085 90.9073 146.003 94.6014 147.312C103.406 150.432 101.766 149.608 105.356 155.076C105.603 155.451 107.767 157.367 107.9 156.781C108.699 153.27 106.575 149.436 105.281 146.069C103.562 141.598 99.0636 143.811 97.1191 139.465C95.5175 135.885 96.8042 133.982 98.5138 130.978C98.9553 130.202 97.0382 124.516 96.0757 125.117C93.7928 126.542 93.9519 131.482 90.5695 131.104C81.4829 130.088 88.7045 117.57 83.4969 114.74C76.1761 110.761 74.9508 108.382 71.673 101.803C69.0764 96.592 62.959 102.426 57.3667 101.256C51.8848 100.109 48.1192 92.5276 54.5923 89.6214C55.7941 89.0819 62.6844 92.5472 62.7229 89.1964C62.794 83.0085 59.2241 86.8333 55.4833 84.1732C52.6899 82.1868 52.8609 77.1141 52.7606 74.0037C52.5332 66.9483 56.6585 71.7666 63.4721 67.8978C70.5205 63.8957 58.2931 47.4411 71.6435 48.5483C77.2773 49.0155 73.5968 52.799 78.3081 56.1425C85.5476 61.2802 85.3968 58.5899 87.2078 69.2954C88.1516 74.8748 94.8645 68.7155 96.5706 74.3262C97.1027 76.076 95.9659 76.9589 94.9917 78.4559C93.9629 80.0366 94.6576 83.0987 96.4677 83.0249C97.9974 82.9626 98.0896 79.5013 98.2921 78.0238C98.8325 74.0799 102.76 69.5023 100.322 66.3512C95.3131 59.8756 92.7755 54.6152 95.1471 47.7181C97.5103 40.8453 101.063 48.9078 106.162 50.6032Z" fill="#015734"/>
<path d="M103.936 106.685C103.141 98.6099 103.722 87.5357 106.045 79.774C107.618 74.5208 111.125 70.5035 109.851 64.4589C109.223 61.4771 106.877 58.8922 106.881 55.9346C106.882 55.5744 107.297 55.451 107.6 55.2636C111.135 55.4053 112.788 63.5624 112.965 66.4281C115.77 62.0473 119.468 58.2842 124.483 56.5832C125.858 56.117 127.932 56.0602 128.409 57.79C127.515 59.8657 123.04 63.1958 120.917 65.8633C123.007 65.0601 128.385 62.882 129.944 65.2054L129.772 65.8073C127.341 68.0209 122.142 68.2903 118.905 70.1172C114.625 72.5324 115.04 80.0081 113.731 84.8251L113.626 85.201C114.905 83.7219 125.339 72.5418 126.621 77.7228C125.842 79.3978 120.539 82.5691 118.866 84.2504C116.952 86.1732 116.247 86.8937 114.772 89.3427L114.611 89.6146C114.617 93.0457 114.836 96.8922 115.06 100.33C116.938 97.4275 118.815 94.3302 121.219 91.6537C125.538 86.7981 131.739 82.1506 134.802 76.3984C135.981 74.1845 135.983 66.83 135.768 64.2685C135.555 61.7294 134.851 59.1026 135.162 56.5014L135.738 56.1543C138.99 56.8705 139.064 66.6158 138.976 69.3894C139.473 67.9901 145.352 56.5731 146.102 56.1253C146.483 56.2946 146.624 56.2552 146.694 56.5764C148.199 63.4642 144.403 71.0703 141.513 76.7294C142.632 76.1704 145.579 74.4847 146.035 76.5192C145.1 78.8184 142.168 79.7677 140.087 80.7525C136.984 82.2222 134.766 85.3443 132.375 87.7852C129.23 90.997 125.375 94.1271 122.652 97.6669C121.298 99.4008 120.229 101.339 119.483 103.408C116.845 110.812 119.445 114.598 122.237 121.397C123.977 126.012 125.603 130.587 127.538 135.127C131.299 143.956 136.778 152.31 140.794 160.899C141.23 150.626 144.284 148.997 137.767 138.786C138.171 138.193 138.939 137.389 139.435 136.835C142.483 138.927 143.687 140.899 144.71 144.339C145.661 142.547 147.598 138.967 148.813 137.408C152.077 133.22 154.609 130.232 157.409 125.677C157.102 116.064 154.15 111.096 146.738 105.503C147.35 104.84 148.256 104.088 148.95 103.477C155.709 106.782 159.702 112.907 160.482 120.342C161.422 117.637 164.032 112.74 164.628 110.214C165.763 105.41 170.518 95.3199 170.18 90.9219C169.824 86.2905 166.361 79.5767 165.297 75.1938C165.919 74.1121 166.047 73.817 167.316 73.9893C169.856 75.6699 171.313 81.1148 172.06 83.9724C173.246 79.8703 172.83 76.2897 172.004 72.155C171.736 70.8108 170.305 66.5264 172.647 66.5628C179.374 70.1553 178.656 89.0732 176.561 95.1993C177.973 93.4566 186.442 85.9916 188.328 88.993C188.016 91.4244 182.678 94.6165 180.838 96.3625C174.849 102.045 172.584 109.393 169.347 116.686C168.041 119.628 166.101 122.965 164.522 125.879C168.353 124.276 181.127 121.806 182.458 127.201C180.744 129.499 175.278 125.284 164.097 129.736C154.603 133.517 149.916 146.834 146.803 155.491C151.106 153.533 155.656 151.744 160.451 151.769C161.969 151.777 164.67 152.425 165.156 154.039C163.716 155.052 156.008 156.25 153.753 156.98C150.204 158.129 149.263 158.555 146.037 160.503C146.013 161.88 146 163.257 145.997 164.635C146.018 171.056 149.786 174.467 153.366 179.394C164.811 195.15 178.698 208.764 192.492 222.417C192.248 215.985 192.362 208.224 195.093 202.289C195.653 201.071 196.058 199.931 196.465 198.662C195.02 193.835 193.682 189.136 190.617 185.001C189.124 182.986 181.779 177.739 184.283 175.256C186.916 174.485 188.38 176.697 190.028 178.37C194.352 182.759 196.521 187.642 198.307 193.446C200.786 188.636 203.58 184.041 205.486 178.967C206.691 175.757 207.767 172.577 208.72 169.286C208.021 167.881 207.157 165.432 206.255 164.245C205.113 162.742 200.21 160.94 200.502 158.613C201.695 157.55 204.412 158.18 205.651 158.999C208.401 160.816 209.497 162.427 210.218 165.646C211.06 159.71 215.316 152.054 214.598 146.482C211.421 142.777 208.824 140.333 204.302 138.511C202.26 137.689 197.68 136.155 200.186 133.311C203.936 132.058 213.108 139.669 215.67 142.526C215.91 137.895 215.697 133.375 215.536 128.671C215.593 122.593 213.727 118.857 209.099 114.953C207.959 113.992 204.745 111.989 204.749 110.498C208.145 107.163 214.264 116.134 215.891 118.533C214.964 113.727 214.688 109.224 212.679 104.704C212.245 103.727 211.474 101.891 211.985 100.919C216.869 99.7307 219.186 119.65 220.059 123.554C220.582 121.497 220.87 120.484 221.725 118.468C222.986 115.492 228.325 107.213 232.222 109.178C233.343 110.993 228.907 114.238 227.618 115.801C226.738 116.865 225.953 118.005 225.272 119.206C223.722 121.935 220.641 129.062 220.914 132.257C221.182 135.403 221.52 138.096 221.47 141.418C225.229 139.892 229.442 139.607 233.45 139.963C239.134 140.456 244.381 143.207 248.016 147.602C248.622 148.336 248.715 148.226 248.652 148.903C243.877 150.132 234.2 138.866 220.822 146.247C220.439 151.905 217.593 161.554 215.517 166.744C220.563 163.93 223.759 162.769 229.575 162.088C230.939 161.928 232.225 161.669 233.334 162.534C234.641 165.137 232.869 165.647 230.665 165.818C225.229 166.24 220.009 167.087 215.628 170.636L215.292 170.912C213.458 172.389 210.79 182.282 209.204 185.308C207.543 188.476 205.926 191.924 204.047 195.179C207.61 191.667 211.896 188.974 216.606 187.286C218.679 186.548 226.876 184.483 227.799 187.203C227.661 187.624 227.195 188.752 226.863 188.875C224.106 189.891 221.4 189.609 218.555 190.564C213.284 192.157 204.05 197.468 201.3 202.313C199.838 204.888 199.037 216.376 198.595 219.882C199.751 219.24 200.933 218.647 202.139 218.104C204.78 216.93 214.775 213.45 216.309 217.465C215.676 218.292 210.254 219.504 208.823 219.845C205.024 220.751 202.328 221.735 198.968 223.76C200.73 231.861 201.063 230.88 206.93 236.558C214.962 244.333 223.455 251.677 232.039 258.834C236.619 262.653 241.735 266.005 246.404 269.734C252.941 275.266 260.009 279.782 266.659 284.999C263.553 278.177 263.954 270.276 264.398 262.996C260.299 258.271 256.881 256.293 250.693 254.729C248.594 254.199 244.596 254.411 244.361 251.937C245.09 250.456 248.887 250.625 250.317 250.93C255.784 252.09 261.793 254.84 265.097 259.517C266.777 253.778 270.168 242.396 270.173 236.765C268.034 234.419 265.143 232.202 262.436 230.55C261.331 229.876 256.298 227.623 255.637 226.892C255.509 225.933 256.101 224.662 257.005 224.656C261.492 224.627 267.194 229.056 270.375 231.43C270.37 223.672 272.342 216.824 272.002 209.079C271.815 204.836 265.062 195.238 267.968 193.436C273.707 193.76 277.489 214.879 277.458 219.729C279.166 216.011 289.252 201.737 294.02 204.655L294.052 205.137C291.916 207.504 289.115 209.846 286.729 212.172C282.718 216.084 278.528 223.037 277.415 228.589C277.118 230.073 277.171 235.423 277.163 237.207C282.531 233.693 290.843 228.375 297.814 230.126C298.174 230.217 298.149 230.446 298.258 230.769C297.523 231.844 288.402 234.702 286.436 235.532C272.822 241.283 276.495 245.269 271.926 257.002C277.35 254.326 282.779 253.46 289.002 254.149C289.895 254.247 292.392 255.413 292.932 256.374C291.974 258.566 275.68 256.313 271.987 260.615C269.313 263.733 270.019 268.861 269.921 272.9C272.252 271.525 273.977 270.498 276.671 269.958C278.112 269.668 283.212 269.689 284.194 270.39L284.227 271.074C283.465 272.683 282.546 273.046 280.846 273.18C275.655 273.586 273.785 274.159 270.13 278.066C272.183 285.546 274.633 290.836 281.583 295.039C294.439 302.82 307.638 310.304 320.717 317.687C334.385 325.492 357.234 332.674 366.778 344.778C364.634 351.032 361.778 355.59 359.795 362.119L359.556 362.01C347.938 356.894 336.627 351.964 325.288 346.165C303.906 335.228 280.929 309.496 257.867 302.773C243.73 298.661 233.905 308.048 230.522 321.219C229.865 323.777 230.114 328.696 227.786 329.74C226.249 329.544 225.466 327.046 225.624 325.881C226.646 318.333 230.406 310.548 235.418 305.379C227.562 308.265 219.058 311.196 212.627 316.658C209.417 319.382 207.582 325.089 205.161 326.183L204.678 325.984C202.513 322.271 207.919 316.741 210.316 314.226C201.146 316.986 190.816 314.256 181.682 315.891C172.705 317.498 165.358 321.395 160.038 328.81C158.159 327.368 157.744 327.034 158.937 324.978C162.656 318.626 171.279 314.65 178.128 312.836C171.084 311.845 165.696 309.577 160.501 304.418C168.377 304.272 176.814 305.582 184.565 306.787C188.04 307.329 194.848 308.394 198.112 308.273C198.334 307.989 193.735 304.434 195.699 303.134C197.886 301.687 205.775 309.35 211.903 307.004C218.105 305.492 230.776 301.87 236.604 298.144C236.147 297.551 230.75 295.523 229.52 294.837C227.054 293.46 220.016 289.1 220.309 285.765C220.872 285.205 220.819 285.269 221.814 285.203C223.595 285.082 225.209 287.41 226.684 288.611C231.137 292.239 237.913 295.458 243.604 296.265C244.613 296.406 249.543 296.023 250.723 295.957C248.375 293.677 244.51 290.589 241.917 288.364C235.769 283.134 229.665 277.849 223.606 272.516C217.868 267.436 212.226 262.247 206.683 256.954C204.115 254.532 201.197 251.694 198.68 249.353C195.171 246.092 185.832 243.486 181.333 243.884C177.612 244.217 167.232 251.783 164.339 254.343C162.29 256.167 160.409 258.173 158.722 260.335C157.003 262.565 154.205 269.757 151.615 269.845C150.18 269.091 150.176 268.066 150.707 266.699C154.473 257.01 165.225 248.19 174.479 243.831C163.435 243.822 151.583 249.829 141.217 253.299C133.402 255.915 123.422 261.116 116.75 269.383C115.331 271.142 114.413 273.187 113.009 274.938C111.321 275.235 110.423 274.603 111.013 272.892C113.42 265.927 122.591 259.048 129.033 255.915C125.1 256.921 115.139 258.135 111.158 257.754C102.132 256.886 95.8803 257.608 87.3447 260.953C83.0049 262.653 81.0274 265.587 77.1052 267.708C76.528 268.021 76.0782 267.988 75.5033 267.749C75.2298 266.926 75.6062 265.95 76.0785 265.266C80.2388 259.257 87.6537 256.863 94.2799 255.075C86.0286 252.015 78.0613 249.25 71.2534 243.438C70.3281 242.648 66.8791 240.368 67.0862 239.174C68.9398 239.162 88.1509 247.017 91.7712 248.213C95.3306 249.389 99.6802 250.224 103.316 251.17C99.4592 247.381 97.5337 245.163 95.4212 240.047C94.3998 237.573 93.0242 233.673 94.0993 231.016L94.6904 230.792C97.7045 231.859 100.449 242.805 103.279 245.872C105.844 248.655 107.263 249.578 110.21 251.896C117.622 251.573 125.003 250.751 132.304 249.432C128.921 247.25 124.4 243.677 122.054 240.325C121.783 239.036 121.714 237.638 123.054 237.002C124.934 237.441 128.711 242.416 131.057 244.026C133.942 246.006 133.95 246.23 137.434 247.736C144.984 246.806 147.883 245.663 154.64 242.878L165.626 238.473C161.939 237.34 157.449 235.025 154.415 232.669C152.137 230.9 142.782 224.22 145.35 221.14C145.617 221.035 145.929 220.913 146.286 220.772C150.971 224.095 154.725 228.47 159.613 231.566C163.871 234.235 171.433 237.411 176.444 237.792C181.058 238.143 183.573 237.946 188.251 238.993C178.788 229.616 169.261 220.554 160.34 210.624C153.86 203.411 147.733 196.102 141.65 188.553C138.309 184.407 132.443 184.418 127.881 184.573C118.795 184.882 110.491 187.311 104.051 194.062C102.667 195.513 101.176 193.062 102.223 191.701C107.729 184.534 115.152 183.2 122.908 181.52C116.241 179.136 108.838 179.087 102.306 177.184C95.1553 175.101 92.3867 171.742 84.736 176.198C83.3066 177.03 79.312 180.216 77.9919 180.289C77.5091 179.599 77.2674 178.734 77.701 177.956C79.9977 173.838 84.6653 171.999 88.91 170.76C85.3856 169.306 79.2903 164.461 76.5056 161.67C69.7267 154.874 61.1153 154.607 52.0438 155.311C50.8332 155.405 48.4402 156.286 47.3519 155.686C46.7899 154.509 47.3434 152.845 48.5159 152.375C53.8175 150.248 62.1826 150.99 67.4469 152.315C61.4102 144.845 58.1762 140.836 55.3387 131.457C54.9171 130.062 54.1074 128.313 54.7539 126.996C54.9378 127.008 55.1217 127.019 55.3054 127.031C57.0642 128.686 64.5317 138.295 65.8796 138.966C65.3854 134.363 65.5221 132.447 69.5034 129.741C69.0751 136.756 68.7607 143.108 73.6983 148.675C78.4886 154.077 83.7282 158.926 89.6983 163.01C88.2132 159.18 87.1721 155.231 86.8782 151.123C87.3451 149.897 89.9279 146.65 90.1779 149.654C90.5013 153.533 91.6314 162.059 94.1975 165.073C99.2024 170.952 111.78 172.388 119.095 173.487C116.569 170.443 112.606 165.591 112.235 161.471C112.147 160.501 113.459 158.736 114.981 159.147C115.797 159.957 116.624 162.328 117.222 163.502C118.52 166.055 119.775 167.964 121.443 170.205C125.841 176.116 128.928 176.349 135.525 178.572C130.167 171.232 121.23 155.212 117.471 146.977C112.205 135.535 110.055 121.096 100.788 112.11C95.3135 106.801 85.907 107.431 78.9263 107.93C78.3529 107.971 77.9377 107.419 77.5986 107.041C77.2187 103.713 87.2892 104.493 89.7896 104.471C86.0584 101.342 84.1848 97.5968 80.8206 94.394C78.3811 92.0719 69.0942 95.1319 67.3884 94.0691C67.4119 90.354 76.5005 90.4272 79.1392 90.4794C77.8012 87.7796 76.5621 84.6901 74.8191 82.2828C72.6229 79.2498 65.4747 79.1148 64.0131 77.0099L64.1546 76.5604C66.7212 73.9988 71.6514 76.8038 74.3923 78.0676C74.2372 76.0861 73.9821 69.4376 75.3696 68.2361C76.8689 68.8325 77.0746 71.0529 77.7717 72.3485C80.0146 76.5162 82.0115 79.3073 83.0211 84.0567C83.4091 82.1649 84.9638 73.4883 88.3171 75.6408C89.0997 79.4942 85.0077 85.3596 86.7753 89.601C88.0899 92.7548 91.3151 96.3476 93.4391 99.0345C93.6036 97.0449 94.0663 90.3028 96.4605 89.7733C101.226 88.7191 95.5282 100.477 97.4984 102.271C98.5576 103.235 102.63 105.783 103.936 106.685Z" fill="#7FB069"/>
</g>
<defs>
<clipPath id="clip0_90_1543">
<rect width="334" height="324.918" fill="white" transform="translate(33 38)"/>
</clipPath>
</defs>
</svg>
