<svg width="400" height="400" viewBox="0 0 400 400" fill="none" xmlns="http://www.w3.org/2000/svg">
<g clip-path="url(#clip0_90_1190)">
<path fill-rule="evenodd" clip-rule="evenodd" d="M229.277 37.5091C239.885 32.5064 263.786 28.2179 265.268 45.5161C272.61 42.8953 283.11 40.7763 292.735 41.4973C302.197 42.2061 318.522 49.3902 316.01 61.626C313.983 71.4966 299.189 77.5561 293.64 85.6362C290.341 90.5733 291.104 97.7005 293.872 102.824C296.29 107.304 297.982 113.46 295.715 118.485L295.714 118.487C294.031 122.175 289.154 124.565 285.521 125.861C288.489 127.666 291.491 128.502 294.961 127.779C313.515 123.907 317.365 101.197 332.415 97.5445C340.11 95.6764 347.603 100.523 349.096 108.243C351.562 122.855 331.359 138.609 327.681 151.324C331.497 154.136 337.201 155.066 338.03 160.623C340.265 175.528 314.607 178.302 315.826 192.128C316.67 201.66 332.761 205.113 323.441 217.787C318.252 224.84 310.497 222.655 303.178 224.591C289.555 228.196 290.977 247.553 275.22 250.136C261.162 252.488 254.527 238.443 241.642 236.768C233.041 235.649 227.491 241.767 219.541 243.836C211.9 245.831 205.507 239.151 198.047 240.106C192.225 240.853 185.573 244.474 180.743 247.694C178.169 247.694 174.104 243.112 175.085 239.677C175.733 235.177 177.638 230.951 180.579 227.483C192.769 213.104 215.307 209.386 223.282 190.973C225.346 186.206 226.283 180.865 226.997 174.215C222.167 175.255 218.852 176.905 216.117 179.276C204.853 189.042 203.152 208.796 186.3 211.214C179.915 212.131 179.129 206.855 174.875 203.531C168.255 198.356 156.859 203.039 148.84 203.248C143.779 204.049 145.579 200.622 142.949 199.494C145.282 194.039 150.062 188.16 152.229 182.795C157.109 170.713 154.589 158.137 151.44 146.092V146.088C148.882 136.009 138.715 111.921 152.734 106.361C158.564 104.049 163.1 106.906 167.049 111.059C165.719 94.329 174.296 55.4362 195.458 54.645C199.598 54.4902 203.749 56.286 207.002 60.1108C216.819 54.9818 218.976 42.3622 229.277 37.5091Z" fill="#4E7D33"/>
<path d="M115.143 274.024C135.357 283.705 144.786 298.682 143.394 326.26C142.333 347.284 123.219 363.105 101.116 364.396C68.3984 366.307 39.6625 344.547 43.8507 311.761C45.7613 296.805 51.3179 284.758 68.376 275.403C84.0639 266.8 101.116 267.306 115.143 274.024Z" fill="#F0F5C6"/>
<path d="M53.1948 345.492C55.2166 347.168 57.9562 349.042 60.0442 350.96C66.6671 357.051 73.9184 359.854 82.0402 362.749C80.2449 365.641 67.747 366.767 64.9277 366.464C62.1135 366.162 55.4146 360.682 53.59 358.356C52.9634 357.557 54.244 353.761 54.1944 352.651C53.9275 349.536 51.7764 348.602 53.1948 345.492Z" fill="#D0D570"/>
<path d="M65.8189 316.037C67.3918 316.541 75.3354 324.45 75.9151 325.354C75.6512 326.024 75.6894 325.822 74.7848 326.227C71.2427 325.296 64.9518 321.229 63.6758 317.77C63.9216 317.015 64.8882 315.715 65.8189 316.037Z" fill="#D0D570"/>
<path d="M104.604 323.13C106.551 323.261 113.467 329.863 113.45 331.459L112.592 331.659C109.995 330.893 104.211 327.439 103.146 324.863C103.435 323.954 103.82 323.838 104.604 323.13Z" fill="#D0D570"/>
<path d="M115.518 305.218C117.508 306.123 123.337 309.393 124.042 311.462C123.851 312.31 124.005 312.001 123.242 312.631C121.321 312.166 114.694 308.962 114.145 307.186C114.336 306.354 114.921 305.873 115.518 305.218Z" fill="#D0D570"/>
<path d="M79.7384 347.904C81.3001 348.688 86.9452 352.372 86.4381 354.242L85.7754 354.331C83.4377 353.724 79.2389 352.281 78.5957 349.678C78.6886 348.789 79.06 348.584 79.7384 347.904Z" fill="#D0D570"/>
<path d="M78.7175 282.389C79.9545 282.685 82.9856 285.461 83.1265 286.835L82.5628 287.29C80.6625 286.99 77.9397 286.154 77.4473 284.034C77.7765 283.029 77.8326 283.222 78.7175 282.389Z" fill="#D0D570"/>
<path d="M200.592 143.716C203.269 138.911 206.134 134.243 208.9 129.505C214.624 119.702 219.987 109.706 226.499 100.392C228.188 97.9777 230.122 95.6726 231.476 93.0527C232.914 90.0017 232.856 86.024 233.076 82.6893C233.813 71.493 235.828 60.0973 242.856 50.9727C244.404 48.9649 247.555 44.5197 250.429 45.3013C253.485 48.253 246.67 53.445 245.121 55.7732C243.557 58.0781 242.251 60.5489 241.231 63.141C238.949 68.9278 238.202 74.207 237.501 80.3554C237.261 82.4606 236.897 86.1758 236.412 88.1391C241.937 81.7197 250.024 73.8156 257.036 69.091C262.629 65.323 284.23 50.1891 291.939 53.8672C292.533 54.6515 292.379 54.2214 292.427 55.2027C284.464 59.3151 274.343 61.8454 260.32 71.6613C242.869 83.8765 229.517 102.526 219.096 120.452C231.318 110.289 248.934 113.856 263.726 111.228C269.07 110.277 273.171 107.424 278.06 107.062C280.172 106.905 279.055 109.681 278.543 110.541C267.413 116.851 256.077 117.142 243.691 117.512C231.316 117.881 223.932 121.076 214.578 128.822C213.062 130.077 211.464 134.217 210.181 135.933C205.04 144.11 199.001 155.921 192.258 162.781C201.733 160.116 212.439 160.325 222.734 157.127C231.641 154.302 241.694 145.229 250.781 145.378C252.775 148.322 238.512 154.304 236.683 155.285C227.431 160.243 218.663 162.502 208.281 163.934C202.029 164.797 192.525 165.065 187.454 168.957C182.582 172.697 178.436 177.809 173.38 181.482C158.087 193.727 145.57 204.853 134.513 221.487C129.83 228.538 126.412 238.478 124.345 246.545C122.048 255.504 117.812 265.321 115.143 274.024C113.11 280.658 109.241 287.379 103.319 291.539C90.8369 292.887 104.191 275.994 107.368 271.008C117.294 255.428 118.287 229.786 130.591 213.77C140.163 201.311 145.804 195.445 163.627 182.848C164.83 181.573 166.075 179.102 166.359 177.379C167.433 170.872 166.064 162.086 164.53 155.746C162.815 148.658 155.982 130.572 161.195 124.227L161.624 124.093C163.941 125.42 163.452 135.156 164.189 138.216C166.896 149.461 173.338 167.878 169.325 179.221C176.172 175.457 193.402 157.675 196.06 149.508C197.067 146.242 196.989 142.74 196.979 139.374C196.922 119.603 187.646 100.922 192.583 80.9022C193.099 78.8106 194.322 74.4173 196.688 73.7235C198.917 74.7404 196.046 83.119 195.734 85.5658C194.681 93.8255 195.48 102.026 196.874 110.246C198.571 120.257 202.002 133.531 200.592 143.716Z" fill="#D0D570"/>
<path d="M253.758 195.377C259.378 192.101 264.426 189.47 269.613 185.467C288.796 170.663 299.777 148.495 316.085 130.954C318.491 128.364 332.608 113.708 334.834 113.387C335.738 113.672 335.697 113.639 336.358 114.314C336.494 114.8 336.659 115.428 336.277 115.885C330.131 123.219 322.555 128.883 316.505 136.455C310.513 143.951 304.372 151.238 298.798 159.06C295.382 163.618 291.103 170.043 287.384 174.038C292.965 170.678 298.876 171.568 305.541 169.617C312.113 167.68 319.382 164.576 326.206 162.635L326.611 163.041C326.216 168.159 306.153 173.47 301.735 174.388C297.664 175.234 292.485 175.075 288.454 176.997C277.576 182.642 270.337 191.33 259.247 197.022C248.531 202.523 238.222 207.237 226.898 211.376C221.598 213.443 216.783 214.693 211.494 217.193C220.972 214.881 232.995 216.763 242.301 219.377C247.514 220.84 249.758 222.208 255.621 222.947C263.174 223.901 271.44 222.613 278.677 223.403C278.135 223.909 276.713 225.28 276.012 225.516C262.591 230.057 251.413 226.312 237.897 222.234C226.267 218.724 210.545 216.917 199.861 223.458C185.276 232.388 176.452 259.005 166.252 273.72C162.149 279.639 157.753 286.477 152.478 291.384C148.724 294.874 144.12 298.393 140.01 301.45C137.2 300.2 135.682 297.164 136.122 294.593C153.241 282.385 167.447 255.643 175.581 239.781C182.746 225.809 193.265 221.829 201.718 217.163C219.2 207.507 241.865 206.545 253.963 189.313C260.651 179.79 261.175 170.409 265.294 160.137C267.951 153.513 274.036 141.29 280.744 138.438C282.057 140.024 276.84 146.512 275.954 147.996C272.09 154.487 268.69 161.175 266.744 168.523C263.953 179.048 260.699 186.844 253.758 195.377Z" fill="#D0D570"/>
<path d="M85.2954 217.414C89.7207 204.554 100.452 189.973 104.948 183.041C116.864 164.665 128.903 135.376 116.957 113.31C107.939 96.4972 101.775 87.1485 93.678 62.8576C92.7644 60.1168 93.1958 47.4951 95.7737 46.6637C106.867 43.0863 109.288 69.3061 109.366 74.4968C112.475 71.0093 110.625 59.9901 115.439 59.8211C127.408 59.4005 123.676 60.1518 122.523 67.918C121.633 73.9199 117.569 92.3764 122.523 96.7635C129.35 102.74 135.792 97.1379 136.187 107.017C136.631 118.12 129.615 128.91 131.633 140.285C133.665 151.319 139.155 151.049 135.175 161.539C132.401 168.792 131.776 177.155 123.536 181.276C113.414 186.336 108.566 197.03 107.848 197.47C107.238 198.677 117.463 195.445 115.945 203.542C114.725 208.452 100.257 214.676 90.7558 220.556C88.6708 224.82 86.7878 228.114 84.0601 232.029C82.4794 234.296 79.8148 236.803 78.7055 238.987C77.2929 248.726 82.5446 248.076 81.9374 270.342C80.5204 271.861 74.9537 273.885 73.2056 273.222C74.4194 264.014 72.0478 256.201 71.0275 247.534C61.3902 257.635 49.6609 279.295 49.2482 294.16C49.063 300.831 56.5524 307.482 49.6336 311.822C43.8628 315.437 41.5793 306.569 40.8382 302.794C38.9688 293.282 42.6141 282.46 45.9732 273.561C51.0695 260.06 58.2537 250.606 68.727 238.119C67.8406 231.895 68.8838 223.544 68.9932 217.216C69.3871 194.433 69.8931 192.915 66.3507 183.806C62.0899 176 50.719 176.317 54.2052 165.082C55.2201 161.751 65.0018 163.951 67.3628 161.539C60.8521 153.579 45.1055 134.741 46.6143 119.03C46.7403 117.719 53.9181 114.982 67.8689 143.827C69.1272 142.369 60.655 107.464 61.7961 105.873C65.2447 101.324 63.4087 104.21 68.3749 100.812C75.3297 96.0534 72.9945 116.514 74.4477 123.585C75.1941 127.218 80.0143 112.452 84.5689 114.476C93.2181 122.26 82.4132 141.124 79.5083 149.394C83.4965 153.786 89.7001 145.465 89.6295 151.924C89.5718 157.21 91.6537 165.082 78.4961 175.709C75.5718 183.785 76.3938 185.937 76.978 201.012C77.3688 211.099 76.4394 220.602 76.5798 230.341C79.3072 225.882 82.6677 221.733 85.2954 217.414Z" fill="#D0D570"/>
<path d="M85.2961 217.414C80.2178 208.694 93.7926 195.358 98.288 188.426C103.485 180.41 106.856 173.077 109.911 163.999C115.945 148.281 119.323 139.283 113.547 122.652C111.54 116.873 110.302 112.715 107.217 107.017C98.1986 90.2036 83.846 71.0312 89.7386 50.8776C90.5493 48.1047 93.6841 40.2177 96.262 39.3862C107.355 35.8089 107.914 53.4109 107.992 58.6016C111.101 55.1141 113.526 52.7217 118.34 52.5527C130.31 52.1321 128.404 64.5101 127.251 72.2764C126.36 78.2783 124.668 86.0129 129.622 90.3999C136.449 96.3765 143.223 101.376 143.618 111.255C143.927 118.991 138.927 120.231 138.273 127.609C137.423 137.186 139.801 144.427 141.424 153.574C143.456 164.609 142.426 175.989 138.446 186.479C135.672 193.732 132.762 201.268 123.55 201.106C122.7 201.091 121.635 200.99 120.916 201.43C120.306 202.637 119.793 205.83 119.405 207.391C117.431 215.339 111.962 217.689 104.948 220.455C102.145 221.561 93.6962 221.748 90.7565 220.556C94.4546 209.673 101.114 214.316 108.868 208.198C110.611 206.825 115.934 202.025 113.058 199.918C111.595 199.612 110.612 200.74 109.575 201.832C104.678 206.984 101.692 206.662 95.9426 208.907C98.6756 203.993 101.383 200.071 104.532 195.584C108.754 189.428 110.327 184.863 117.446 181.598C125.893 177.723 131.706 163.596 134.05 155.047C134.05 155.047 133.481 150.061 132.524 151.313C131.325 152.882 130.134 155.83 129.308 157.652C124.427 168.429 124.744 171.326 115.241 178.586C121.998 168.415 127.463 151.193 128.146 138.907C128.391 134.467 128.886 130.67 128.333 124.577C130.08 118.075 133.181 113.047 132.15 105.935C131.936 104.458 131.694 102.517 129.671 102.916C127.817 104.705 129.097 108.34 128.886 110.502C128.589 113.545 127.366 116.987 126.465 119.92C125.828 114.92 123.557 107.938 121.372 103.292C120.562 101.569 117.881 97.5533 117.611 95.7584C116.617 89.1591 116.466 81.8796 117.235 75.2224C117.61 71.9869 120.186 67.1847 119.234 64.1235C118.897 63.0366 117.738 63.6546 117.314 64.3105C112.138 72.3265 112.956 81.1889 114.092 89.7426C108.859 78.9595 105.318 74.4968 101.286 57.3198C100.932 55.811 99.7163 48.697 97.2895 49.6135C93.4548 51.0613 96.2225 55.6553 96.7022 58.2942C102.24 88.7453 127.251 105.935 122.675 143.749C118.974 173.421 100.764 190.891 85.2961 217.414Z" fill="#4E7D33"/>
<path d="M41.952 130.514C41.4112 128.554 41.1265 127.135 41.5332 125.03C43.1644 116.589 49.3747 112.51 53.9198 106.174C57.3683 101.625 57.3714 95.6794 62.3376 92.2812C69.2924 87.5225 75.7115 93.0869 77.1647 100.158C77.9111 103.791 78.0136 107.183 78.3301 110.897C82.5562 110.5 86.336 110.365 89.7223 113.31C93.2536 116.382 95.3867 120.643 95.7753 125.282C96.3841 132.545 92.6954 137.251 90.491 143.527C94.4793 147.918 96.7328 150.791 96.6622 157.25C96.6045 162.536 92.5117 167.2 90.8883 171.684C89.4961 175.529 89.9834 178.808 87.6743 183.041C84.2371 189.341 78.8077 193.927 76.9796 201.412C76.4736 186.842 74.7381 180.968 74.7381 172.837C78.2894 168.594 83.9972 166.378 86.2793 160.829C86.8259 159.5 88.6313 155.196 86.8426 154.473C84.0618 154.844 83.3138 158.531 81.8273 160.685C80.0685 163.233 77.6738 165.002 75.3588 167.001C76.4175 157.876 76.9185 150.163 74.873 140.989C77.4015 133.702 83.4198 128.764 84.4494 121.395C84.6825 119.727 83.9312 118.912 82.9191 117.777C81.4687 119.891 80.2365 123.403 78.965 125.831C77.3631 128.89 74.8226 132.522 73.6966 135.661C73.5294 133.16 72.7792 130.235 72.309 127.773C71.1327 121.615 70.1104 115.619 70.0611 109.336C70.043 107.036 68.8205 102.93 66.0498 105.617C63.1898 108.421 69.7213 137.609 70.6304 143.036C71.3002 147.033 71.5446 150.303 71.6557 154.473C64.8403 148.952 58.8078 143.169 56.022 134.581C55.2216 132.113 53.3932 123.025 51.1446 122.08C50.4271 122.399 50.1584 123.042 50.1949 123.849C50.6815 134.625 56.0913 145.652 64.3328 152.626C66.9774 154.864 69.0963 156.502 71.5181 159.03C71.4103 164.739 70.1335 171.43 69.4485 177.113C66.5407 174.486 62.8128 172.106 59.8738 169.426C58.9419 168.575 57.7611 167.484 56.7105 166.842L56.2143 167.028C53.7644 171.587 66.1133 178.419 69.0573 180.968C69.6654 183.845 69.4784 196.19 69.3159 199.542C67.7578 196.511 66.2231 193.14 64.6242 190.21C60.3635 182.404 45.4787 179.338 48.965 168.102C49.9799 164.771 52.702 162.347 55.063 159.935C48.5523 151.975 35.9534 156.279 37.4622 140.568C37.8711 136.309 40.0879 134.134 41.952 130.514Z" fill="#4E7D33"/>
<path d="M224.733 270.532C237.655 264.687 249.307 270.17 262.275 266.061C272.447 262.836 282.007 255.361 291.682 250.798C293.975 249.718 299.212 251.325 300.31 253.445C305.385 260.712 297.621 260.727 296.366 266.544C314.118 266.544 328.667 260.573 339.963 283.68C341.576 286.98 339.439 294.674 341.496 298.135C350.209 310.238 368.85 319.844 359.798 337.676C355.889 345.32 343.053 347.81 339.095 338.759C336.532 345.9 328.237 349.295 321.957 343.283C312.992 334.712 316.188 325.703 313.129 315.895C302.489 306.581 278.191 315.03 265.167 309.797C251.994 304.501 246.144 297.061 230.445 293.738C222.724 292.103 217.157 291.091 199.951 296.658C199.951 286.152 216.082 274.444 224.733 270.532Z" fill="#4E7D33"/>
<path d="M229.563 276.86C233.578 276.127 239.221 276.643 243.172 277.706C251.036 279.823 254.364 280.003 262.172 277.235C268.201 275.093 283.945 261.739 286.711 263.587C287.096 264.275 287.236 264.118 286.926 264.978C285.82 268.048 268.27 278.439 260.361 281.332C268.733 281.8 276.428 281.542 284.727 281.911C289.181 282.108 294.358 283.634 298.54 283.872C308.403 284.436 316.445 282.323 326.037 286.486C327.171 286.979 329.765 287.641 330.404 288.705C330.891 289.514 330.609 289.745 330.45 290.678C328.666 292.751 320.906 288.745 318.373 288.196C313.694 287.184 309.633 286.972 304.848 287.146C315.589 291.169 325.683 300.238 332.32 309.474C334.924 313.097 336.801 317.237 339.648 320.812C341.391 323.003 347.428 326.707 347.059 329.273C346.545 329.66 346.216 329.807 345.518 329.607C335.64 326.756 331.51 314.291 325.47 307.206C317.907 298.335 305.774 289.932 294.535 287.359C291.061 286.552 287.513 286.086 283.945 285.97C288.528 289.196 299.603 299.188 299.244 304.995C296.86 307.112 284.803 290.99 282.053 289.489C274.912 285.044 266.661 285.967 258.622 284.841C248.61 283.437 240.352 280.9 228.291 283.5C219.051 285.492 202.199 296.015 193.879 300.706C176.555 310.474 165.619 320.221 150.521 333.261C139.633 342.663 138.038 347.014 125.595 352.352C118.649 355.325 108.896 356.099 102.235 351.444C101.338 349.791 100.422 348.04 101.639 346.393C103.974 345.105 109.348 346.368 112.03 346.505C130.218 347.566 154.553 316.312 165.392 308.38C180.722 297.164 212.604 279.958 229.563 276.86Z" fill="#D0D570"/>
</g>
<defs>
<clipPath id="clip0_90_1190">
<rect width="325.903" height="334" fill="white" transform="translate(37 33)"/>
</clipPath>
</defs>
</svg>
