<svg width="400" height="400" viewBox="0 0 400 400" fill="none" xmlns="http://www.w3.org/2000/svg">
<path d="M253.968 171.041C255.86 169.859 259.467 168.058 261.545 166.897C268.402 163.07 275.772 158.868 283.306 156.725C295.147 153.358 306.791 154.219 318.699 156.476C319.996 156.722 325.646 156.831 326.429 157.273C328.05 160.01 329.589 174.149 329.88 177.91C325.344 188.995 300.132 203.857 289.23 208.41C281.187 211.769 260.136 219.436 252.567 214.999C247.213 211.861 251.023 204.997 252.936 199.618C256.095 190.74 255.762 180.279 253.968 171.041Z" fill="#FAD8B9"/>
<path d="M112.578 340.333C116.468 330.453 127.799 320.889 135.376 314.006C150.166 300.567 175.393 293.141 195.579 294.467C205.362 302.94 213.247 313.159 224.182 320.232C228.189 323.313 222.099 329.574 219.953 331.686C200.372 350.961 171.35 360.85 144.384 362.933C127.426 364.245 119.402 354.269 112.578 340.333Z" fill="#FAD8B9"/>
<path d="M112.578 340.333C104.178 351.359 90.2866 357.818 76.537 356.335C65.4074 355.028 56.2873 347.865 49.4999 339.381C31.6187 317.031 30.6352 282.069 39.6044 255.941C55.2439 210.383 104.605 190.258 149.868 196.738C169.862 199.13 193.093 208.294 205.484 224.945C220.086 244.567 223.063 274.251 201.92 291.179C184.871 304.829 158.686 279.808 112.578 340.333Z" fill="#C79D7E"/>
<path d="M131.398 279.538C138.382 281.797 141.18 291.048 136.326 296.742C134.613 298.752 131.235 299.728 129.189 301.604C125.1 305.35 123.145 311.415 117.635 312.933C111.655 314.58 106.579 311.507 105.967 305.271C105.628 301.811 108.251 301.442 110.95 299.7C118.06 295.112 119.811 275.821 131.398 279.538Z" fill="#8C5E38"/>
<path d="M46.7169 273.991C58.395 271.113 55.2898 283.497 57.6845 290.851C58.4194 293.108 61.0299 295.764 61.9581 298.33C63.4345 302.412 63.6328 307.879 58.8125 308.727C53.3526 309.687 49.1303 306.404 46.6517 301.192C43.6305 294.838 37.2275 276.329 46.7169 273.991Z" fill="#8C5E38"/>
<path d="M172.826 210.841C184.391 208.176 190.878 231.795 179.369 233.526C174.217 234.32 174.531 226.613 173.661 223.473C172.826 220.456 163.046 213.094 172.826 210.841Z" fill="#8C5E38"/>
<path d="M293.683 155.286C276.808 157.031 266.916 166.341 253.144 171.406C236.978 177.35 223.872 182.548 206.958 175.548C183.587 165.876 168.416 140.195 178.874 115.625C192.049 84.6729 228.651 62.5472 258.54 50.0849C281.169 40.6499 309.444 30.2935 333.614 40.0676C345.556 44.8967 352.287 54.9953 357.404 66.4505C366.886 87.6801 371.864 114.903 359.36 136.025C352.432 147.724 335.68 155.854 326.597 157.199C319.867 158.195 303.164 154.305 293.683 155.286Z" fill="#C79D7E"/>
<path d="M226.442 151.274C244.173 150.022 229.07 174.089 213.196 168.74C208.115 167.287 202.096 162.46 205.863 156.836C208.718 152.575 213.372 155.339 217.227 154.381C220.419 153.586 223.142 151.949 226.442 151.274Z" fill="#8C5E38"/>
<path d="M275.639 61.4492C281.972 61.9833 288.803 69.6316 287.77 76.171C286.891 81.7335 284.658 85.3532 279.126 83.5656C275.379 82.3547 275.035 77.1468 271.149 74.4391C270.051 73.6745 267.944 74.1897 266.973 73.3655C262.621 69.6714 267.884 63.3909 271.858 62.052C273.04 61.6538 274.383 61.3502 275.639 61.4492Z" fill="#8C5E38"/>
<path d="M342.77 94.2167C351.363 93.2608 352.707 112.028 342.697 113.914C334.309 115.495 336.887 109.544 336.576 103.542C336.509 102.291 335.788 101.174 336.096 99.9622C336.921 96.7141 339.432 94.5879 342.77 94.2167Z" fill="#8C5E38"/>
</svg>
