<svg width="400" height="400" viewBox="0 0 400 400" fill="none" xmlns="http://www.w3.org/2000/svg">
<g clip-path="url(#clip0_90_996)">
<path d="M131.335 105.008C128.837 89.775 126.742 73.9938 132.108 58.6578C135.463 49.0713 148.127 35.5099 158.456 33.6025C167.088 32.0088 169.538 38.9575 173.434 44.0613C179.607 39.347 182.112 37.2371 189.82 38.179C199.095 39.3124 200.626 52.3091 200.481 60.7635C207.307 57.141 211.402 56.2835 219.318 57.158C222.028 48.5417 233.19 42.6873 241.873 45.194C254.5 48.84 255.679 67.2436 254.804 77.6697C260.928 76.8967 264.168 79.2842 269.136 82.8067C275.108 87.043 276.471 94.722 278.158 101.42C283.313 101.771 286.106 102.189 289.693 106.355C300.02 118.338 302.893 136.925 302.076 152.176C301.482 163.281 293.309 170.549 289.873 180.353C289.081 182.618 288.538 186.86 288.381 189.233C287.773 198.389 286.091 206.086 280.336 213.527C273.239 222.707 264.501 230 254.922 236.554C254.355 237.301 254.225 237.871 254.019 238.766C252.82 268.284 298.184 357.983 243.001 363C242.041 362.965 237.895 362.57 237.141 362.005C204.67 361.202 184.001 361 158.158 332.027C157.522 327.7 156.887 321.755 158.116 317.622C155.369 313.71 153.406 302.115 153.583 297.067C154.136 281.307 161.428 266.557 163.558 251.105C164.108 247.11 163.834 237.745 163.559 233.802C163.525 233.74 163.492 233.677 163.459 233.615C157.197 225.588 148.497 219.847 141.389 212.496C122.569 193.031 71.0006 128 114.823 101.194C119.983 98.0373 127.677 100.721 131.335 105.008Z" fill="#015734"/>
<path d="M186.408 211.3C185.078 206.644 184.352 201.911 183.107 197.308C177.92 178.183 168.552 161.806 159.236 144.556C150.197 127.817 146.741 106.352 146.891 87.527C146.92 83.8558 147.607 67.8773 150.764 66.512C152.23 67.8178 151.314 85.007 151.276 88.3792C151.056 107.916 154.738 127.384 164.211 144.617C167.216 150.123 171.238 156.721 173.675 162.395L173.947 162.47C174.01 161.794 168.508 143.948 167.845 141.214C166.154 134.237 165.825 127.257 164.688 120.231C164.062 116.355 162.843 112.563 162.166 108.672C159.531 93.5263 160.142 79.012 164.573 64.1862C165.536 60.9671 168 53 170.947 52.9668C172.499 52.9493 170.137 59.1883 169.624 60.8655C165.867 73.1508 162.495 90.6185 165.764 103.133C166.406 98.8405 166.309 95.5398 167.865 91.3205C169.128 87.8968 173.513 72.842 177.847 73.2773C180.658 75.0578 177.018 81.1157 176.071 83.4607C174.707 86.9167 173.627 90.4782 172.842 94.11C167.421 118.201 173.665 139.152 186.139 159.558C189.16 164.5 191.352 171.275 192.822 176.818C192.07 169.689 191.785 162.778 190.53 155.677C188.479 144.064 184.481 132.49 184.964 120.573C185.103 117.136 185.118 103.205 187.509 102.525C190.533 101.664 188.152 115.413 188.07 116.982C186.999 137.736 197.394 152 196.908 179.519C197.16 182.798 196.763 186.687 197.394 189.986C199.553 201.278 203.299 212.011 203.753 223.626C203.978 229.364 203.372 232.401 202.921 237.863L201.673 254.71C200.323 273.97 199.317 292.155 204.219 311.255C208.548 328.117 223.5 350.5 237.14 362.005C234.31 361.935 231.167 363.865 228.327 364.508C210.529 368.545 191.31 366.861 173.812 362.323C162.913 359.496 159.579 345.054 158.157 332.027C157.118 322.5 165.5 305 176.016 278.42C181.396 264.824 192.488 234.708 186.323 219.658C180.763 206.085 167.327 198.038 158.036 187.316C148.153 175.277 143.827 153.728 142.062 138.398C141.97 137.601 142.799 136.818 143.387 136.382C145.326 136.762 146.382 145.393 146.835 147.508C148.851 156.909 151.7 166.617 155.461 175.472C161.824 189.947 178 197.308 186.408 211.3Z" fill="#E0E7BB"/>
<path d="M232.5 352.5C241.531 340.27 248.761 329.61 247.504 313.237C245.794 290.941 233.207 265.722 236.429 243.57C239.8 220.4 256.656 202.094 262.377 179.689C265.69 166.73 268.842 152.977 269.197 139.559C269.263 137.064 267.335 119.245 269.917 119.122C272.5 119 273.567 134.626 273.492 137.719C273.262 147.18 273.04 156.557 272.995 166.018C272.98 168.924 272.072 172.41 271.865 175.477C273.832 172.202 276.315 169.24 278.305 165.929C283.73 156.894 286.575 145.038 284.987 134.566C284.472 131.158 284.397 128.506 284.56 125.159C285.865 126.437 287.115 128.269 287.62 130.056C291.142 142.486 287.4 158.604 280.245 169.203C277.357 173.479 273.14 177.929 271.042 182.147C270.117 184.005 268.422 189.563 267.685 191.725C265.725 197.485 263.925 202.959 261.56 208.589C260.485 211.153 259.722 213.838 258.487 216.412C261.28 214.185 267.377 208.715 269.815 206.194C272.335 203.586 273.892 198.656 277.495 195.907C277.912 206.843 267.282 212.937 260.467 219.895C254.612 225.876 254.127 230.703 254.019 238.766C253.863 250.366 259.915 262.12 263.285 272.733C269.999 295.754 280.916 344.79 258.686 360.133C254.122 363.282 247.823 363.354 242.292 362.962C237.5 360 234 354.5 232.5 352.5Z" fill="#E0E7BB"/>
<path d="M132.199 188.74C125.434 179.88 120.529 173.91 117.389 162.799C116.341 159.179 112.73 138.739 116.508 137.771C118.885 137.163 118.688 140.609 118.864 142.62C119.89 154.402 120.479 163.556 128.057 173.371C129.113 174.739 133.108 179.917 134.202 180.864C134.748 180.03 133.414 174.61 133.384 172.983C133.107 158.326 132.437 143.583 125.051 130.502C123.874 128.417 119.136 119.76 121.398 118.684C123.659 117.607 126.102 124.315 127.271 126.477C133.537 138.056 135.704 148.34 136.497 161.405C137.016 169.936 135.803 176.19 139.671 184.576C144.354 194.727 155.504 199.73 160.866 206.242C171.628 218.728 180.485 233.768 178.449 250.92C175.737 273.779 163.796 295.265 158.115 317.623C155.368 313.71 153.405 302.115 153.582 297.068C154.135 281.308 161.427 266.558 163.557 251.105C167.437 222.944 147.914 209.32 132.199 188.74Z" fill="#E0E7BB"/>
<path d="M230 348.5C215.829 332.852 207.756 314.67 205.602 293.867C202.685 264.734 205.386 233.158 214.489 205.395C216.753 198.487 219.959 191.861 221.54 184.766C221.477 179.511 220.083 174.383 219.422 169.196C218.416 161.3 215.796 153.906 212.831 146.559C203.922 124.486 195.075 100.59 204.865 77.0865C205.41 75.779 206.537 72.8033 208.439 73.9075C210.211 74.9675 208.092 78.4475 207.784 79.8562C201.715 98.0575 205.821 117.27 212.272 134.739C216.402 145.924 222.329 156.362 223.622 168.46C223.92 171.207 224.449 173.812 225.267 176.441C226.367 170.75 227.694 165.734 230.437 160.723C234.109 154.014 232.869 141.524 232.332 134.337C231.161 120.484 226.823 106.867 228.511 92.8583C228.896 89.6603 227.819 83.5272 233.25 86.784C233.382 91.3432 232.856 108.132 233.802 111.229C234.912 111.554 235.067 111.604 235.988 112.295C241.619 102.565 242.666 84.515 243.647 73.2988C247.196 78.045 246.271 80.0385 246.093 85.5303C245.811 94.2143 244.239 101.823 240.882 109.841C240.404 112.077 237.113 116.911 236.982 118.843C236.038 132.67 239.841 147.075 239.972 160.991C240.074 171.775 237.637 182.41 236.389 192.945C243.499 181.874 248.94 170.908 251.167 157.82C252.026 152.503 252.517 147.133 252.636 141.749C252.687 139.28 252.279 130.576 253.756 129.023C255.447 129.395 256.815 133.691 256.957 135.223C257.683 143.039 256.129 153.358 255.048 161.104C252.867 176.729 244 187 236.446 201.65C228.486 217.083 229.971 239.801 232 256.94C234.403 277.23 244.614 294.831 243.452 315.733C242.712 329.02 237.765 338.363 230 348.5Z" fill="#E0E7BB"/>
</g>
<defs>
<clipPath id="clip0_90_996">
<rect width="206" height="334" fill="white" transform="translate(97 33)"/>
</clipPath>
</defs>
</svg>
