<svg width="400" height="400" viewBox="0 0 400 400" fill="none" xmlns="http://www.w3.org/2000/svg">
<g clip-path="url(#clip0_90_1739)">
<path d="M350.687 34.0291C354.673 33.7349 362.844 33.8042 366.817 33.9446C366.328 35.2771 366.002 36.2558 365.051 37.3597C358.172 45.2684 348.481 51.7474 340.52 58.5237C337.528 61.0713 334.439 63.4273 331.554 66.0479C333.117 65.4311 334.58 64.5727 335.821 63.4303C344.966 56.0202 355.754 50.6076 366.363 45.5787C365.761 50.2127 366.532 55.6429 366.005 59.8654C360.351 63.4174 357.772 65.6199 352.918 70.1515C351.107 71.8414 349.27 73.1054 347.483 75.0196C350.34 73.2947 364.017 63.4303 365.918 63.9651C366.492 65.8361 366.315 76.5413 366.514 79.4802C363.152 81.6196 359.372 83.0615 355.709 84.9778C347.222 89.4157 337.304 95.3904 328.604 99.2344C326.777 92.071 316.787 81.4245 311.665 75.9488C310.477 74.6782 305.848 72.707 304.051 71.0623C305.964 64.3349 323.812 38.635 329.305 34.005C332.068 33.8323 335.545 34.0259 338.306 34.1737C336.36 38.9377 333.184 42.0277 330.738 46.2934C326.946 52.9063 322.91 59.137 318.892 65.5797C321.061 63.6005 323.84 60.1206 326.002 57.8564C334.501 48.9515 340.773 41.52 350.687 34.0291Z" fill="#80B44E"/>
<path d="M328.103 101.019C331.477 107.667 333.431 113.169 329.104 119.99C326.127 124.683 322.059 128.08 318.373 132.186C310.376 141.093 303.09 150.722 293.803 158.375C286.626 164.177 275.6 169.636 266.869 172.781C254.972 177.259 243.229 182.363 231.24 186.591C221.761 189.936 211.736 191.952 203.184 197.42C183.101 205.972 172.429 226.944 156.307 240.237C139.476 254.361 116.699 264.705 106.656 284.579C97.9671 301.88 92.288 321.701 80.9233 337.435C76.1069 344.102 73.407 343.091 67.3274 347.837C65.1199 349.562 60.9906 354.84 59.0438 357.017C52.7584 364.045 50.0278 363.26 41.4524 364.535C39.5184 364.823 36.1663 366.105 34.6344 366.192C33.8355 365.907 33.8536 365.832 33.325 365.193C32.6687 361.925 41.1805 359.719 43.5369 358.804C50.0273 356.289 51.8583 349.47 56.4642 344.877C62.3811 338.978 69.7497 335.089 74.3725 327.822C79.0011 320.654 80.8388 309.86 83.1793 301.644C86.7263 289.191 90.6006 273.87 97.8633 263.122C112.547 241.568 137.548 227.22 153.262 205.972C158.985 198.234 160.352 185.433 167.579 177.689C179.539 164.876 195.661 158.906 208.535 147.335C220.066 136.373 225.584 117.752 234.63 104.704C244.738 89.9758 260.196 75.0774 276.738 67.9152C283.003 65.148 290.237 67.6518 296.169 70.1819C304.872 77.2353 319.782 89.1638 328.103 101.019Z" fill="#FFEBC7"/>
<path d="M258.869 87.032C261.697 88.193 267.112 93.8655 268.543 96.6369C268.797 97.131 268.297 97.6208 268.036 97.9304C267.773 97.8539 266.92 97.588 266.746 97.4841C265.084 96.4848 258.215 89.9776 257.73 88.6982C257.976 87.701 258.041 87.8953 258.869 87.032Z" fill="#8C5E38"/>
<path d="M257.17 93.5054C259.483 94.3402 266.173 100.678 267.05 103.057L266.797 103.389C263.454 102.392 257.873 98.6002 256.496 95.3491C256.523 94.2097 256.489 94.5909 257.17 93.5054Z" fill="#8C5E38"/>
<path d="M135.037 238.882C136.04 239.347 141.907 245.197 142.351 246.571C142.508 247.056 141.754 247.851 141.432 248.214C139.362 247.858 135.265 243.678 134.636 241.561C134.285 240.381 134.501 239.899 135.037 238.882Z" fill="#8C5E38"/>
<path d="M254.974 157.376C257.161 158.613 262.832 162.266 260.016 165.216C258.292 164.208 254.651 161.03 254.082 158.991C254.266 157.959 254.206 158.282 254.974 157.376Z" fill="#8C5E38"/>
<path d="M169.551 180.981C171.654 181.222 175.062 184.874 175.134 187.058C171.839 187.284 168.822 184.313 169.551 180.981Z" fill="#8C5E38"/>
<path d="M253.176 164.167C255.972 164.153 259.235 166.12 259.242 169.115C256.29 168.848 253.253 167.514 253.176 164.167Z" fill="#8C5E38"/>
<path d="M88.633 298.361C89.7075 299.276 92.0309 302.444 91.2987 303.938L90.5868 304.181C89.0236 303.18 86.9714 301.994 87.0698 299.956C87.3715 299.114 87.8583 298.915 88.633 298.361Z" fill="#8C5E38"/>
<path d="M139.032 238.728C142.522 238.793 143.525 240.731 143.2 243.927C140.615 243.539 138.995 241.285 139.032 238.728Z" fill="#8C5E38"/>
<path d="M54.4213 353.223C54.9059 353.339 54.8937 353.369 55.349 353.595C55.8309 354.373 55.8488 354.326 55.8324 355.218C55.3922 356.1 55.7205 355.782 54.7896 356.18C53.8321 355.926 53.3363 355.884 52.9961 354.912C53.2774 354.045 53.6872 353.839 54.4213 353.223Z" fill="#8C5E38"/>
<path d="M296.168 70.1818C296.421 69.2826 297.02 69.2673 297.888 69.0817C301.389 68.3331 309.512 73.6459 311.665 75.9488C316.787 81.4245 326.777 92.071 328.604 99.2344C328.604 100.497 327.446 102.064 326.054 101.211C321.844 98.6268 318.464 90.8774 315.274 87.5389C311.446 83.6872 306.807 80.5855 302.582 77.1697C299.361 74.5666 297.995 74.0415 296.168 70.1818Z" fill="#8C5E38"/>
</g>
<defs>
<clipPath id="clip0_90_1739">
<rect width="334" height="334" fill="white" transform="translate(33 33)"/>
</clipPath>
</defs>
</svg>
