<svg width="400" height="400" viewBox="0 0 400 400" fill="none" xmlns="http://www.w3.org/2000/svg">
<g clip-path="url(#clip0_90_1452)">
<path d="M230 33.9873C232.719 33.9522 235.329 34.6137 238.008 34.7931C241.112 35.0013 244.412 34.9836 247.53 35.0145C245.73 38.0125 243.749 39.1254 241.583 41.6414C237.318 46.5933 235.152 52.8159 233.113 58.8865C227.278 57.5901 225.464 58.3705 219.581 60.0114C218.322 60.3626 216.949 60.8546 215.65 60.8519C218.096 53.5522 223.806 38.4432 230 33.9873Z" fill="#A47956"/>
<path d="M218.713 58.9224C238.236 52.0153 245.223 65.9239 249.62 81.0036C260.473 118.186 257.734 157.575 256.669 195.843C256.28 209.894 258.663 222.383 263.569 235.534C271.162 255.882 276.618 275.048 277.472 297.074C278.636 327.073 261.066 354.992 232.1 363.52C222.97 366.207 216.861 366.15 207.491 366.088C202.756 366.055 196.979 366.3 192.286 365.888C182.625 365.041 171.584 362.578 163.027 357.965C145.436 348.477 131.98 331.062 126.936 311.648C124.005 300.372 121.915 289.033 124.012 277.366C128.756 250.974 145.432 228.913 149.881 201.571C155.079 169.63 166.868 130.209 179.815 101.224C186.566 86.1084 201.435 65.0352 218.713 58.9224Z" fill="#B7C865"/>
<path d="M228.224 221.019C235.921 221.763 238.212 234.122 229.466 234.439C227.55 234.509 226.307 234.476 224.595 233.293C221.319 231.028 221.478 226.072 223.763 223.163C225.09 221.474 226.21 220.824 228.224 221.019Z" fill="#969454"/>
<path d="M187.467 164.837C194.843 163.768 195.927 177.85 186.988 179.482C182.421 180.316 180.919 176.033 180.95 172.2C180.984 167.859 183.284 165.442 187.467 164.837Z" fill="#969454"/>
<path d="M205.652 138.711C214.517 135.993 215.022 148.754 208.846 151.273C201.331 154.339 198.906 140.779 205.652 138.711Z" fill="#969454"/>
<path d="M133.789 285.083C140.234 285.594 143.665 293.969 135.703 296.097C134.266 296.252 133.284 296.204 132.018 295.397C130.423 294.358 129.336 292.7 129.024 290.823C128.394 287.186 130.442 285.419 133.789 285.083Z" fill="#969454"/>
<path d="M248.547 299.25C250.143 298.618 251.509 298.345 252.981 299.248C257.314 301.906 257.174 308.545 251.999 310.15C247.073 311.678 244.808 308.653 244.671 304.171C244.592 301.58 246.085 300.225 248.547 299.25Z" fill="#969454"/>
<path d="M146.412 314.211C150.27 313.954 153.325 315.504 154.893 319.343C155.802 321.569 153.922 323.373 151.852 324.019C143.797 325.629 139.607 317.453 146.412 314.211Z" fill="#969454"/>
<path d="M189.04 311.195C195.953 310.788 200.298 318.363 192.842 321.197C188.33 321.977 184.279 319.881 185.558 314.373C185.918 312.822 187.638 311.845 189.04 311.195Z" fill="#969454"/>
<path d="M235.67 281.543C242.091 281.097 247.51 289.32 240.434 291.234C232.6 291.504 228.4 284.684 235.67 281.543Z" fill="#969454"/>
<path d="M169.763 339.123C175.569 338.839 179.87 345.898 172.273 348.966C170.805 349.168 170.035 349.448 168.634 348.777C167.35 348.149 166.37 347.035 165.912 345.681C164.754 342.331 166.508 339.953 169.763 339.123Z" fill="#969454"/>
<path d="M224.995 325.651C231.118 324.458 236.181 332.581 229.613 335.225C228.488 335.678 227.65 336.286 226.555 335.764C223.472 334.293 221.725 331.98 222.604 328.219C222.956 326.713 223.506 325.941 224.995 325.651Z" fill="#969454"/>
<path d="M155.938 218.225C162.246 217.157 166.26 224.796 160.188 227.378C159.147 227.821 157.711 227.8 156.648 227.383C154.067 226.372 153.285 225.621 153.142 222.994C153.019 220.717 153.519 218.635 155.938 218.225Z" fill="#969454"/>
<path d="M178.134 250.369C183.936 249.763 187.49 257.322 180.634 258.796C179.713 258.995 179.209 259.089 178.306 258.752C176.902 258.227 175.767 257.15 175.205 255.761C174.008 252.803 175.478 250.647 178.134 250.369Z" fill="#969454"/>
<path d="M212.664 353.102C218.028 351.031 219.873 357.274 215.329 359.794C210.332 362.565 208.447 354.729 212.664 353.102Z" fill="#969454"/>
<path d="M225.377 314.178C231.087 313.842 230.952 317.688 227.438 320.988C221.578 322.047 222.53 316.748 225.377 314.178Z" fill="#969454"/>
<path d="M205.254 277.543C209.981 277.042 213.501 280.915 209.286 283.438C207.182 283.712 205.908 283.846 204.282 282.181C203.769 281.661 203.509 280.94 203.572 280.212C203.672 278.976 204.354 278.261 205.254 277.543Z" fill="#969454"/>
<path d="M174.308 130.198C179.079 129.154 178.668 135.436 175.273 136.888C170.689 138.849 170.32 131.07 174.308 130.198Z" fill="#969454"/>
<path d="M255.857 281.262C260.246 280.339 260.2 287.529 256.334 288.754C253.305 289.714 251.328 282.214 255.857 281.262Z" fill="#969454"/>
<path d="M261.754 266.805C266.042 266.545 265.054 274.41 261.2 274.499C257.5 274.585 256.932 267.098 261.754 266.805Z" fill="#969454"/>
<path d="M254.341 241.331C259.465 240.217 259.286 247.094 254.996 248.121C249.591 249.415 250.741 242.114 254.341 241.331Z" fill="#969454"/>
<path d="M182.994 353.824C188.137 353.351 187.745 357.01 184.928 359.959C182.867 360.2 180.717 360.19 180.908 357.072C180.993 355.691 181.893 354.642 182.994 353.824Z" fill="#969454"/>
<path d="M185.036 206.961C189.514 206.977 187.973 213.034 184.621 213.533C179.524 214.291 181.016 206.946 185.036 206.961Z" fill="#969454"/>
<path d="M191.786 96.8506C196.737 95.2469 197.33 99.9474 193.491 102.422C192.478 103.076 191.348 103.04 190.483 102.162C188.815 100.468 189.894 97.4634 191.786 96.8506Z" fill="#969454"/>
<path d="M227.877 151.631C228.768 151.189 230.08 151.715 230.88 152.367C231.473 152.85 231.829 153.565 231.857 154.329C231.909 155.75 231.61 157.877 230.257 158.078C226.843 158.586 223.922 153.592 227.877 151.631Z" fill="#969454"/>
<path d="M251.486 340.512C255.655 339.552 255.666 345.613 252.104 347.072C249.219 348.254 247.161 341.508 251.486 340.512Z" fill="#969454"/>
<path d="M179.07 293.774C182.214 293.729 183.794 299.377 178.303 299.083C176.947 298.56 175.69 297.715 175.34 296.232C175.646 294.161 177.337 294.131 179.07 293.774Z" fill="#969454"/>
<path d="M232.819 92.5494C235.108 91.7649 237.518 93.6145 235.843 96.3368C235.432 97.0036 234.438 97.9704 233.669 98.2244C232.558 98.5915 231.101 98.6156 230.451 97.5883C229.214 95.633 230.923 93.1993 232.819 92.5494Z" fill="#969454"/>
<path d="M199.517 175.547C204.202 174.947 203.649 179.774 200.282 181.576C199.485 182.003 197.948 181.748 197.356 180.955C195.917 179.028 197.669 175.784 199.517 175.547Z" fill="#969454"/>
<path d="M180.87 120.696C185.64 120.298 184.423 126.154 181.057 126.926C176.339 128.008 177.562 120.972 180.87 120.696Z" fill="#969454"/>
<path d="M238.173 212.917C239.977 212.178 241.783 213.428 241.999 215.223C242.224 217.102 241.173 218.366 239.272 218.742C234.057 219.774 234.61 214.375 238.173 212.917Z" fill="#969454"/>
<path d="M238.976 197.274C243.315 195.288 244.785 201.183 240.788 202.701C235.861 204.572 235.233 198.987 238.976 197.274Z" fill="#969454"/>
<path d="M244.617 144.369C248.585 143.095 250.051 147.35 246.063 149.751C245.132 150.312 243.828 150.2 243.069 149.438C241.245 147.605 242.661 144.997 244.617 144.369Z" fill="#969454"/>
<path d="M153.754 297.972C155.59 297.8 156.78 297.792 158.169 299.196C159.708 300.753 158.611 301.887 157.247 302.752C153.333 303.946 151.055 300.454 153.754 297.972Z" fill="#969454"/>
<path d="M175.441 263.325C180.39 262.957 180.031 266.725 176.988 268.816C172.457 269.557 172.853 264.873 175.441 263.325Z" fill="#969454"/>
<path d="M267.553 283.951C271.858 282.847 272.89 286.999 268.949 289.34C268.086 289.852 266.751 289.701 266.075 288.974C264.417 287.19 265.556 284.463 267.553 283.951Z" fill="#969454"/>
<path d="M240.378 102.73C244.957 101.53 244.828 107.452 240.914 108.491C235.934 109.813 237.331 103.528 240.378 102.73Z" fill="#969454"/>
<path d="M138.651 275.06C140.829 274.808 143.882 275.444 143.732 278.168C143.303 278.886 143.081 278.921 142.335 279.288C140.589 280.018 139.428 280.257 137.997 278.63C137.561 278.138 137.349 277.49 137.408 276.84C137.496 275.833 137.983 275.611 138.651 275.06Z" fill="#969454"/>
<path d="M210.359 120.21C213.275 117.941 217.918 122.074 214.754 125.343C212.506 127.665 207.599 122.359 210.359 120.21Z" fill="#969454"/>
<path d="M176.602 198.51C177.824 198.314 178.352 198.622 178.822 199.62C179.74 201.568 178.475 203.969 176.448 204.157C171.525 204.614 173.823 198.957 176.602 198.51Z" fill="#969454"/>
<path d="M153.321 238.667C156.998 238.427 158.202 242.49 154.658 243.54C152.642 243.275 150.39 242.106 151.143 239.739C151.793 238.983 152.329 238.948 153.321 238.667Z" fill="#969454"/>
<path d="M138.211 261.546C141.232 261.77 143.993 264.135 140.452 266.272C136.307 266.571 134.712 263.796 138.211 261.546Z" fill="#969454"/>
<path d="M134.053 304.206C136.141 304.118 138.298 305.16 137.575 307.565C136.982 308.358 136.5 308.415 135.523 308.782C133.369 309.375 131.731 307.548 132.308 305.392C132.86 304.577 133.078 304.582 134.053 304.206Z" fill="#969454"/>
<path d="M204.999 239.447C207.795 237.72 212.652 240.846 209.094 243.829C206.885 245.681 202.012 241.292 204.999 239.447Z" fill="#969454"/>
<path d="M191.658 341.073C195.615 339.69 196.206 345.039 192.961 346.202C189.163 347.563 188.892 342.039 191.658 341.073Z" fill="#969454"/>
<path d="M210.213 304.233C212.743 302.49 217.754 305.224 214.296 308.348C212.314 310.139 207.402 306.169 210.213 304.233Z" fill="#969454"/>
<path d="M236.254 261.299C239.536 260.087 242.309 263.073 239.492 266.06C238.905 266.682 237.79 265.879 237.054 265.439C235.415 264.458 234.529 261.936 236.254 261.299Z" fill="#969454"/>
<path d="M261.216 312.625C263.707 310.99 268.031 314.4 264.807 316.912C262.335 318.839 258.412 314.466 261.216 312.625Z" fill="#969454"/>
<path d="M210.194 93.0086C213.021 91.6388 216.277 95.7027 213.228 97.8718C210.864 99.5533 207.436 94.3455 210.194 93.0086Z" fill="#969454"/>
<path d="M252.324 323.934C255.834 324.303 256.379 326.688 253.339 328.642C253.127 328.58 252.915 328.513 252.703 328.44C251.013 327.862 249.921 326.658 250.529 324.836C251.128 324.161 251.404 324.178 252.324 323.934Z" fill="#969454"/>
<path d="M235.985 120.707C238.277 118.976 242.465 123.24 239.452 125.467C237.249 127.096 233.809 122.349 235.985 120.707Z" fill="#969454"/>
<path d="M220.822 183.722C223.294 182.651 227.2 187.119 223.601 188.536C220.916 189.593 217.509 185.157 220.822 183.722Z" fill="#969454"/>
<path d="M227.599 257.804C230.455 256.416 233.203 260.367 230.301 262.281C228.314 263.592 224.466 259.328 227.599 257.804Z" fill="#969454"/>
<path d="M228.297 70.0461C231.133 68.8304 234.06 73.3138 230.982 74.9873C228.628 76.267 225.418 71.2804 228.297 70.0461Z" fill="#969454"/>
<path d="M208.307 77.1282C211.388 76.1099 213.118 78.6285 210.989 81.6028C210.703 82.0024 210.341 81.9974 209.858 81.8944C207.65 81.4238 206.16 77.8378 208.307 77.1282Z" fill="#969454"/>
<path d="M168.524 174.874C171.105 172.924 175.507 176.251 172.422 178.975C170.457 180.711 166.341 176.523 168.524 174.874Z" fill="#969454"/>
<path d="M187.792 272.782C190.798 271.294 194.077 274.6 191.083 277.059C189.23 278.581 185.076 274.126 187.792 272.782Z" fill="#969454"/>
<path d="M189.991 192.622C190.289 192.603 190.504 192.652 190.718 192.86C191.925 194.031 192.069 194.827 190.93 196.028C190.25 196.744 189.8 196.906 188.829 196.526C187.473 195.994 186.125 194.657 187.22 193.263C187.892 192.408 188.869 192.693 189.991 192.622Z" fill="#969454"/>
<path d="M164.636 194.776C166.801 192.69 171.286 196.074 168.564 198.662C166.403 200.718 162.594 196.745 164.636 194.776Z" fill="#969454"/>
<path d="M240.7 347.057C243.159 345.785 246.267 349.771 243.283 351.085C241.076 352.057 237.883 348.515 240.7 347.057Z" fill="#969454"/>
<path d="M240.193 170.502C242.713 169.097 245.566 173.266 242.865 174.813C240.64 176.087 237.535 171.985 240.193 170.502Z" fill="#969454"/>
<path d="M208.173 328.131C209.41 326.97 211.592 327.704 212.126 329.585C212.408 330.577 212.415 331.27 211.398 331.648C209.47 332.365 206.418 329.778 208.173 328.131Z" fill="#969454"/>
<path d="M186.719 228.898C188.809 228.115 191.986 230.444 189.673 232.4C188.51 233.384 186.673 232.523 186.185 230.91C185.889 229.929 185.716 229.275 186.719 228.898Z" fill="#969454"/>
<path d="M171.664 316.838C173.257 316.47 174.818 317.498 174.693 319.293C174.625 320.273 174.743 320.358 173.659 320.457C172.222 320.587 170.321 319.758 170.38 318.161C170.419 317.113 170.483 317.11 171.664 316.838Z" fill="#969454"/>
<path d="M195.779 291.264C197.356 291.225 198.577 291.947 198.249 293.7C198.073 294.64 197.877 295.108 196.885 295.048C195.427 294.959 193.638 293.68 194.208 292.107C194.557 291.145 194.63 291.293 195.779 291.264Z" fill="#969454"/>
<path d="M248.951 227.784C250.16 227.126 250.997 227.602 251.551 228.903C251.995 229.946 252.252 230.778 251.212 231.334C250.202 231.873 249.138 230.829 248.709 229.771C248.351 228.885 248.075 228.262 248.951 227.784Z" fill="#969454"/>
<path d="M168.578 288.141C169.783 287.295 171.053 288.041 171.511 289.512C171.829 290.532 171.969 290.817 170.85 291.227C169.216 291.824 166.888 289.327 168.578 288.141Z" fill="#969454"/>
<path d="M197.967 254.472C198.992 253.591 200.287 254.691 201.361 255.521C201.48 255.613 201.455 255.765 201.4 255.905C201.323 256.1 201.111 256.059 200.93 256.164C199.919 256.753 199.338 257.438 198.425 256.645C197.655 255.977 197.162 255.164 197.967 254.472Z" fill="#969454"/>
<path d="M216.478 103.194C217.116 102.924 217.854 103.196 218.163 103.814C218.474 104.433 218.252 105.187 217.654 105.538C217.233 105.786 216.707 105.778 216.291 105.518C215.877 105.257 215.64 104.788 215.68 104.299C215.718 103.81 216.027 103.384 216.478 103.194Z" fill="#969454"/>
<path d="M228.118 170.643C229.232 170.088 229.136 170.474 229.836 171.441C230.42 172.247 230.65 172.589 229.943 173.312C229.247 174.024 228.602 173.838 228.034 173.085C227.518 172.4 227.34 171.031 228.118 170.643Z" fill="#969454"/>
<path d="M144.418 246.451C145.514 246.016 145.858 246.479 145.993 247.558C146.118 248.547 146.258 249.088 145.276 249.315C144.394 249.519 143.863 248.772 143.601 247.926C143.326 247.038 143.28 246.903 144.418 246.451Z" fill="#969454"/>
</g>
<defs>
<clipPath id="clip0_90_1452">
<rect width="154.537" height="334" fill="white" transform="translate(123 33)"/>
</clipPath>
</defs>
</svg>
