<svg width="400" height="400" viewBox="0 0 400 400" fill="none" xmlns="http://www.w3.org/2000/svg">
<g clip-path="url(#clip0_90_137)">
<path d="M257.999 84.7718C266.238 85.7374 275.284 91.1573 279.763 97.9445C290.896 96.0861 301.081 97.6226 310.681 103.868C317.317 108.186 323.879 117.006 325.178 124.886C326.337 131.92 327.01 140.723 322.732 146.919C327.268 149.307 332.041 155.753 334.808 160.05C344.326 174.834 341.277 212.945 337.512 229.805C330.991 259.054 319.514 289.466 302.823 314.256C295.731 324.789 287.353 334.992 276.477 341.808C263.12 350.179 250.718 352.879 235.061 351.282C228.919 350.655 223.591 348.298 217.627 347.308C212.32 346.423 212.599 359.784 185.234 365.879C167.346 369.863 149.688 359.373 137.147 347.731C133.98 344.787 131.13 342.027 128.582 338.504C125.358 334.046 123.256 328.781 119.982 324.379C119.925 324.304 119.866 324.227 119.808 324.152C103.896 320.014 89.3361 303.394 81.8684 289.448C69.795 266.902 65.8764 243.955 61.9439 219.239C56.3491 180.875 61.8723 131.151 93.1481 104.929C106.349 93.8607 122.362 87.4328 139.74 88.8907C153.986 75.9971 171.278 66.9925 190.886 73.9194C196.351 75.8502 201.633 78.1653 207.097 80.0564C223.245 85.6457 241.257 82.8097 257.999 84.7718Z" fill="#EB3849"/>
<path d="M175.821 121.589C171.715 116.461 166.608 111.864 161.771 107.458C159.122 105.045 156.107 102.912 153.746 100.206C151.819 97.9981 152.875 92.4822 156.641 93.5125C165.025 95.8088 180.009 112.873 184.373 119.449C181.987 121.483 178.872 123.214 175.821 121.589Z" fill="#FA919B"/>
<path d="M289.98 34.1403C298.407 32.494 310.334 32.7466 317.976 37.5677C321.398 40.0392 326.576 46.8756 328.155 51.3053C324.463 61.1496 285.708 67.382 276.068 72.7689C255.425 84.0776 243.226 99.5025 239.297 123.579C241.047 123.772 244.253 124.337 245.82 124.304C251.194 124.191 253.33 121.709 257.08 127.086C256.773 127.531 255.482 129.405 255.33 129.833C253.305 135.497 254.648 141.858 256.392 147.403C253.451 149.357 250.799 151.03 248.333 153.608C245.882 156.172 243.356 159.759 240.54 161.829C238.308 161.895 236.027 161.936 233.791 162.205C229.647 162.703 226.148 163.744 221.922 163.203C205.637 161.118 194.495 146.992 179.223 142.95C176.239 142.282 171.671 142.313 168.499 142.223C167.003 136.273 165.816 118.829 175.821 121.589C185.548 124.271 187.375 110.389 193.693 108.63C197.448 110.295 201.406 114.557 206.315 113.92C222.907 76.8117 242.861 43.3461 289.98 34.1403Z" fill="#015734"/>
<path d="M307.902 47.0046C309.758 46.7286 313.09 46.7971 312.948 49.356C311.201 52.4736 300.194 55.2126 296.617 56.4287C262.969 67.8686 235.105 90.377 233.259 128.809C232.884 135.65 233.713 144.97 233.031 151.353L232.989 151.723C232.283 152.427 232.108 152.274 231.336 151.923C224.454 131.963 230.644 106.121 237.017 93.8316C247.195 74.2145 265.884 61.5766 285.986 53.8415C292.978 51.1515 300.617 48.2596 307.902 47.0046Z" fill="#6F8A54"/>
<path d="M295.173 39.4908C296.529 39.348 298.387 39.0393 298.871 40.5943C298.183 42.9076 294.139 44.3603 292.047 45.127C280.944 49.1917 270.569 54.5844 261.381 62.068C254.147 67.9612 246.751 73.0998 241.411 80.9063C228.993 98.3196 217.7 129.607 195.126 134.298C191.414 135.028 190.092 131.58 193.466 129.765C195.534 128.712 197.909 127.919 199.85 126.65C219.46 113.824 227.98 88.8586 243.266 71.6257C256.27 56.9762 276.299 43.8931 295.173 39.4908Z" fill="#6F8A54"/>
<path d="M218.579 125.684C219.483 125.895 219.352 125.936 219.738 126.673C219.993 131.413 211.167 141.83 207.295 143.444C206.715 142.758 205.974 141.612 205.443 140.845C208.085 135.747 214.435 129.56 218.579 125.684Z" fill="#6F8A54"/>
<path d="M220.641 136.987C221.612 137.335 222.502 137.935 222.458 139.063C222.298 143.264 221.975 147.956 221.667 152.133C221.089 152.954 220.627 153.328 219.904 153.994C216.155 150.946 217.644 139.664 220.641 136.987Z" fill="#6F8A54"/>
<path d="M109.074 250.386C113.269 253.752 113.74 262.506 114.556 267.514L118.554 293.309C119.616 299.818 122.574 305.935 122.907 312.49C122.962 313.555 119.877 315.962 118.653 314.436C110.907 304.733 109.707 292.244 108.088 280.374C107.049 272.764 104.494 256.906 109.074 250.386Z" fill="#FA919B"/>
<path d="M285.136 141.35C285.156 141.348 285.174 141.345 285.192 141.344C291.058 141.01 309.464 143.289 313.466 147.133C314.699 148.316 315.428 152.917 312.621 152.499C304.425 151.28 296.845 147.931 288.432 147.55C279.134 146.774 270.656 150.048 261.897 152.383C259.748 152.957 258.4 149.843 259.699 148.916C266.668 143.932 276.685 141.877 285.136 141.35Z" fill="#FA919B"/>
<path d="M248.484 168.11C264.972 166.008 268.462 202.005 262.635 213.301L261.228 215.311C257.46 208.739 258.104 205.056 258.233 197.843C258.37 190.869 257.7 183.425 253.208 177.777C251.192 175.242 244.992 171.365 248.484 168.11Z" fill="#FA919B"/>
<path d="M155.542 142.637C157.932 142.419 169.206 142.04 168.298 147.449C167.907 148.776 164.242 148.743 163.117 148.835C153.761 149.601 147.045 150.959 138.96 155.912C136.694 157.406 132.339 161.135 129.627 159.34C126.857 155.2 133.527 150.341 136.24 148.398C142.566 143.865 148.115 143.324 155.542 142.637Z" fill="#FA919B"/>
<path d="M230.217 310.442C231.64 311.059 231.219 314.439 231.152 315.694C230.963 319.421 226.318 338.534 220.501 337.747C220.057 337.149 218.785 335.417 218.898 334.765C220.298 326.652 225.513 316.934 230.217 310.442Z" fill="#FA919B"/>
<path d="M263.985 103.12C265.559 103.149 266.214 103.533 267.041 104.832C267.129 107.775 257.838 111.748 255.32 112.329C254.194 112.717 252.246 113.265 251.586 111.943C251.826 107.274 260.237 104.051 263.985 103.12Z" fill="#FA919B"/>
</g>
<defs>
<clipPath id="clip0_90_137">
<rect width="282.457" height="334" fill="white" transform="translate(59 33)"/>
</clipPath>
</defs>
</svg>
