<svg width="400" height="400" viewBox="0 0 400 400" fill="none" xmlns="http://www.w3.org/2000/svg">
<g clip-path="url(#clip0_90_2003)">
<path d="M201.452 128.983C230.77 127.709 246.63 140.854 263.39 162.619C284.134 192.963 292.297 236.503 283.557 271.943C274.167 310.039 255.786 348.86 215.996 362.295C193.656 369.841 167.903 368.016 147.132 356.916C126.037 362.306 105.669 361.923 86.6458 350.325C49.2378 327.52 36.5297 275.835 41.0487 235.175C45.2175 197.668 60.7007 158.997 96.9568 142.103C121.636 130.153 141.76 137.437 166.899 137.437C181.479 137.437 188.692 129.538 201.452 128.983Z" fill="#4F0D36"/>
<path d="M192.715 96.1796C193.863 99.9309 192.408 102.136 197.16 103.348C177.595 119.551 173.157 136.196 171.07 153.98C169.576 154.121 168.018 154.003 166.514 153.937C166.552 144.554 166.257 136.939 170.108 128.005C175.287 115.905 182.995 105.054 192.715 96.1796Z" fill="#B7C865"/>
<path d="M149.292 177.76C149.77 177.445 149.604 178.202 150.226 178.202C154.847 178.202 137.647 209.987 130.177 241.556C116.119 300.964 150.226 342.935 147.216 347.132C145.788 349.123 143.004 347.447 141.59 345.997C132.972 337.165 130.245 329.51 126.461 318.09C118.737 294.773 116.456 269.98 120.158 245.698C123.264 225.329 130.563 190.112 149.292 177.76Z" fill="#84ACE8"/>
<path d="M83.5654 324.862C91.2924 321.986 97.3949 339.809 88.2878 340.266C80.276 340.668 73.1319 328.744 83.5654 324.862Z" fill="#84ACE8"/>
<path d="M75.2619 173.709C76.1502 173.602 77.0955 173.752 77.8959 174.181C79.0319 174.791 79.8571 175.845 80.2098 177.085C81.2608 180.779 79.1563 183.978 75.5537 184.641C70.3424 185.6 68.8195 180.191 71.1027 176.171C71.9986 174.594 73.5166 173.918 75.2619 173.709Z" fill="#84ACE8"/>
<path d="M258.126 232.518C264.882 231.757 264.856 242.258 258.339 243.747C252.157 245.16 250.329 233.396 258.126 232.518Z" fill="#84ACE8"/>
<path d="M243.084 255.482C246.879 254.317 248.531 257.596 248.461 260.999C248.389 264.506 247.271 266.41 243.839 267.127C237.821 268.385 235.882 257.691 243.084 255.482Z" fill="#84ACE8"/>
<path d="M107.345 303.165C112.702 302.127 115.038 314.766 108.332 315.385C102.465 315.927 100.126 304.565 107.345 303.165Z" fill="#84ACE8"/>
<path d="M211.148 343.706C215.026 342.883 216.288 345.882 216.12 349.262C215.964 352.405 215.107 354.539 211.844 355.008C208.166 355.536 206.697 352.051 206.791 348.774C206.878 345.763 208.213 344.329 211.148 343.706Z" fill="#84ACE8"/>
<path d="M80.1257 287.608C83.2113 287.077 84.9083 291.47 84.1414 294.128C83.397 296.707 83.5703 298.661 81.0472 299.409C79.2363 299.947 78.1529 298.08 77.199 296.377C76.2929 294.76 76.1129 292.835 76.703 291.076C77.3795 289.06 78.2136 287.938 80.1257 287.608Z" fill="#84ACE8"/>
<path d="M225.735 320.407C228.522 319.335 230.293 321.064 229.828 324.582C229.558 326.629 228.344 327.922 226.681 329.059C226.323 329.304 226.005 329.37 225.588 329.253C222.123 328.279 221.957 321.859 225.735 320.407Z" fill="#84ACE8"/>
<path d="M232.51 227.222C237.771 226.36 237.951 234.017 233.095 235.686C229.516 236.915 227.05 228.117 232.51 227.222Z" fill="#84ACE8"/>
<path d="M230.265 337.029C235.125 335.472 236.74 342.53 231.821 345.088C230.952 345.539 229.704 344.991 229.12 344.178C227.043 341.288 227.302 337.978 230.265 337.029Z" fill="#84ACE8"/>
<path d="M86.8073 189.657C90.7156 188.943 92.0322 199.264 86.726 198.736C81.6209 198.228 81.5295 190.622 86.8073 189.657Z" fill="#84ACE8"/>
<path d="M61.8563 199.704C66.2917 199.366 66.3687 208.901 61.6092 208.463C56.3665 207.981 56.3546 200.122 61.8563 199.704Z" fill="#84ACE8"/>
<path d="M254.372 178.368C259.804 177.762 258.528 184.407 254.328 186.611C254.08 186.741 253.865 186.757 253.612 186.639C250.129 185.008 250.285 178.824 254.372 178.368Z" fill="#84ACE8"/>
<path d="M170.908 210.825C176.076 208.794 176.088 216.586 172.073 218.85C169.119 220.515 166.128 212.704 170.908 210.825Z" fill="#84ACE8"/>
<path d="M230.376 169.77C230.579 169.676 230.82 169.823 231.041 169.856C235.496 170.531 234.351 175.054 231.076 176.853C230.641 177.092 230.227 177.165 229.762 177C227.575 176.222 227.646 174.253 228.058 172.158C228.305 170.898 229.29 170.272 230.376 169.77Z" fill="#84ACE8"/>
<path d="M174.977 239.656C177.162 239.403 178.392 240.305 178.193 242.674C178.006 244.907 177.059 245.711 175.439 247.032C174.651 246.918 173.734 246.136 173.328 245.478C171.68 242.824 172.945 241.131 174.977 239.656Z" fill="#84ACE8"/>
<path d="M246.465 156.976C251.297 155.983 249.915 162.606 246.672 163.76C243.079 165.039 242.332 157.825 246.465 156.976Z" fill="#84ACE8"/>
<path d="M159.551 227.081C160.698 226.713 161.493 228.878 161.407 230.099C161.27 232.057 160.661 233.123 158.982 233.813C158.572 233.982 158.377 233.164 158.098 232.817C155.78 229.943 156.642 228.013 159.551 227.081Z" fill="#84ACE8"/>
<path d="M192.715 96.1795C195.156 82.1429 205.778 70.4381 215.78 61.1916C229.272 48.7194 244.234 41.003 262.704 38.969C269.958 38.1701 279.06 39.0159 286.405 39.6278C300.87 42.6215 315.806 42.9324 330.483 41.9245C334.533 41.6463 346.889 38.8664 350.925 36.755C353.813 35.2442 361.813 30.293 360.54 37.6488C355.203 49.0195 348.007 56.393 338.897 64.5968C309.45 91.1127 254.14 115.319 213.414 107.283C207.654 106.195 202.769 104.338 197.159 103.347C192.407 102.136 193.863 99.9309 192.715 96.1795Z" fill="#4E7D33"/>
<path d="M305.245 47.4765C306.551 47.4555 307.694 47.2174 308.54 48.3448C307.861 49.8961 298.029 57.6247 295.286 60.7985C302.032 58.759 309.45 57.5936 316.058 54.9824C323.948 51.8665 326.295 49.3379 334.894 49.7982C329.227 58.5274 314.746 62.5698 305.134 65.854C309.45 66.3731 313.581 67.321 317.823 68.2422C319.809 68.6736 323.87 68.3582 324.855 70.2413C324.171 72.2772 320.968 73.3789 318.982 73.3371C313.34 73.2192 306.59 71.1376 301.031 69.9267C299.305 69.5511 295.86 68.2614 294.332 68.4289C289.826 68.9222 284.658 70.3098 280.228 71.2008C273.143 72.6256 266.613 73.7288 259.633 75.6052C262.923 77.0042 265.623 78.3663 269.143 79.3336C273.415 80.507 290.231 81.4674 291.954 85.0091L291.716 85.5306C286.836 87.9915 264.668 85.5864 259.667 80.8724C258.757 80.0152 254.632 76.2727 253.855 76.4011C245.508 77.7832 230.775 80.6355 223.562 84.4601C234.496 91.8772 240.209 88.6276 251.841 94.3076C254.83 95.8188 252.603 96.682 250.275 96.5529C236.644 95.7958 228.792 96.5759 219.114 86.1986C215.847 87.6029 213.985 88.5647 210.985 90.4269C208.319 92.0814 205.128 94.8627 202.358 95.8866C201.751 95.0654 201.208 94.039 200.695 93.1427C202.958 90.1695 206.929 86.6416 210.084 84.7367C215.404 81.5243 216.322 81.1731 219.164 75.6488C222.702 68.7714 229.813 58.426 237.685 55.7608C239.156 55.4016 242.08 54.5932 242.575 56.6105C241.472 58.911 235.007 62.6888 232.75 65.1439C228.934 69.2942 225.885 73.6104 222.385 77.9696C232.352 74.209 240.03 72.0153 250.41 69.5658C256.168 61.4255 262.654 56.8191 271.698 52.815C273.359 52.0787 279.027 50.9128 280.583 51.5672L280.708 52.1331C278.827 54.9313 269.72 59.0436 266.471 61.1855C262.743 63.6434 260.232 65.0562 257.042 68.4755C259.622 67.5315 264.405 66.7839 267.287 66.178C274.505 64.6617 282.547 63.6098 289.618 61.7243C293.283 56.2221 298.867 49.7874 305.245 47.4765Z" fill="#B7C865"/>
<path d="M171.07 153.98C179.597 153.646 184.938 144.287 190.481 151.624C186.48 160.541 172.063 163.51 163.44 161.495C160.154 160.727 154.241 158.304 151.639 156.169C150.913 155.572 152.827 151.811 153.841 151.715C159.348 149.766 165.289 154.525 171.07 153.98Z" fill="#84ACE8"/>
</g>
<defs>
<clipPath id="clip0_90_2003">
<rect width="320.684" height="334" fill="white" transform="translate(40 33)"/>
</clipPath>
</defs>
</svg>
