<svg width="400" height="400" viewBox="0 0 400 400" fill="none" xmlns="http://www.w3.org/2000/svg">
<path d="M100.257 292.298C99.4263 287.285 100.22 282.245 100.24 277.202C100.278 267.782 96.0286 260.042 98.1849 250.561C99.7922 243.493 103.126 238.858 106.198 232.535C111.99 220.618 106.198 207.085 119.305 196.249C120.65 195.138 123.432 192.425 124.008 190.884C127.424 181.751 127.228 173.507 134.542 165.725C136.106 164.061 137.82 161.976 138.941 159.969C140.234 157.466 140.43 154.255 141.251 151.57C142.552 147.39 144.545 143.639 146.417 139.719C148.7 134.94 153.909 132.572 156.599 128.797C157.77 127.154 158.987 120.933 160.464 118.215C163.454 112.715 167.031 108.341 169.946 102.909C171.955 98.2019 172.266 88.7859 173.208 83.4312C174.127 78.2084 178.486 73.583 179.58 69.6967C181.326 63.5005 180.505 56.9632 183.852 50.3597C186.701 44.7378 192.966 38.4338 197.931 34.4534C202.863 31.001 211.066 34.2174 214.096 38.78C221.493 49.9169 222.924 62.8179 225.934 75.5182C226.94 79.7641 229.126 83.3842 230.219 87.5513C231.201 91.5902 230.385 96.8504 232.033 100.893C233.657 104.874 236.48 106.398 238.264 110.657C239.882 114.52 239.958 121.611 241.714 124.726C243.398 127.713 247.063 128.94 248.941 133.611C251.67 140.395 250.687 146.899 253.294 153.45C254.223 155.784 257.543 157.199 259.058 158.804C265.47 165.592 263.678 177.436 268.753 183.094C273.228 187.984 277.966 190.728 279.95 197.713C280.692 199.93 280.704 202.942 281.97 204.926C286.626 212.011 292.889 215.277 295.435 224.496C296.558 228.772 294.202 233.215 294.563 237.256C295.718 250.161 306.671 257.145 298.397 272.513C302.404 287.141 298.758 294.763 291.294 306.422C285.412 317.234 288.571 329.653 275.79 337.175C272.748 339 270.768 339.407 267.835 340.677C265.487 345.632 262.795 348.633 257.493 350.583C254.315 351.755 250.524 352.357 247.473 353.655C242.84 355.624 239.241 359.68 234.053 360.583C227.385 361.742 220.166 360.863 213.392 360.945C189.103 360.583 172.403 362.952 152.231 348.951C146.322 347.815 143.305 342.866 139.179 339.283C136.995 337.388 133.813 335.933 131.395 334.382C121.492 328.03 119.961 316.736 113.211 307.948C105.914 304.055 101.904 301.4 100.257 292.298Z" fill="#CBD78F"/>
<path d="M198.334 247.102C201.535 250.636 199.986 251.067 198.613 254.988C195.939 262.627 190.826 268.336 184.994 273.763C178.43 279.231 169.626 282.703 165.715 291.693C167.963 302.553 171.256 311.495 175.276 321.821C176.957 313.175 181.218 308.062 183.89 305.336C192.351 296.708 203.967 294.995 213.268 287.807C218.107 284.069 219.819 278.136 224.539 274.937C224.875 274.712 224.967 274.849 225.37 275.006C226.392 277.931 223.209 281.187 221.901 283.563C212.318 300.977 186.108 297.978 180.335 318.813C179.592 321.492 178.027 324.696 179.125 327.714C182.363 334.701 190.749 345.515 195.992 350.801C196.343 342.874 197.395 338.058 203.335 332.31C212.982 322.973 225.24 324.498 236.887 319.564C241.528 317.595 245.852 313.92 250.584 312.404C250.792 312.725 250.888 312.758 250.755 313.175C248.391 320.372 237.347 324.114 230.718 326.037C221.615 328.673 212.03 328.739 205.043 336.14C200.094 341.383 198.178 347.504 201.947 354.002C204.336 358.121 211.557 358.475 213.392 360.945C205.648 362.566 197.43 365.928 189.531 366.001C176.164 366.124 167.792 364.323 157.884 354.892C155.952 353.053 154.313 350.872 152.468 349.169C141.947 339.523 117.242 313.864 117.242 308.803C118.76 300.2 124.282 290.977 122.809 280.464C132.424 254.654 143.557 260.727 160.553 263.867C161.631 267.987 164.05 282.169 164.153 286.25L164.163 286.541C169.866 280.241 174.148 275.886 181.488 271.486C184.587 269.629 187.998 265.057 190.342 262.266C193.744 257.81 195.838 252.124 198.334 247.102Z" fill="#F2F6E4"/>
<path d="M122.261 274.687C124.904 269.105 131.771 265.249 137.746 264.492C137.634 268.47 137.44 272.443 137.163 276.41C136.86 280.527 136.282 285.572 136.653 289.621C133.467 286.929 130.463 284.545 128.113 281.071C127.616 280.337 127.171 279.517 126.353 279.264C124.335 280.699 125.945 283.829 126.997 285.345C129.697 289.229 134.113 291.243 136.775 295.081C138.231 297.882 138.352 306.336 139.007 309.79C139.89 314.453 142.025 323.261 143.958 327.198C138.223 321.794 134.22 318.724 127.416 315.025C125.583 314.028 121.977 308.985 119.122 306.948C119.14 309.19 119.007 310.058 120.076 312.047C122.856 317.219 127.609 319.61 132.371 322.355C141.876 327.836 147.724 335.647 151.62 345.725C152.013 346.742 152.805 347.846 152.231 348.951C146.321 347.815 143.305 342.866 139.179 339.283C136.995 337.388 133.812 335.933 131.394 334.382C126.909 331.505 122.722 327.952 119.885 323.398C116.338 317.705 117.648 313.77 113.345 308.122L113.211 307.948C116.522 304.628 117.994 299.228 118.324 294.664C124.724 288.345 123.496 283.504 122.261 274.687Z" fill="#CBD78F"/>
<path d="M207.283 98.9485C207.827 89.679 205.297 84.1123 199.057 79.4619C205.297 71.4608 208.839 60.8335 197.281 49.7726C196.824 48.2359 202.647 45.1887 204.201 43.9119C208.204 40.623 206.627 37.9126 208.287 35.4192C209.148 35.0521 208.72 35.0923 209.611 35.255C210.919 36.5788 210.534 40.1929 210.07 41.8616C208.986 45.7669 205.704 47.8154 202.314 49.6132C206.396 55.1892 210.061 66.7337 206.753 73.7212C206.132 75.0339 204.164 77.6568 203.299 79.0171C209.397 84.2356 210.371 89.9948 210.362 97.545C216.355 100.717 218.698 107.037 220.895 113.135C225.003 124.535 224.745 134.599 219.474 145.54C230.6 162.552 220.08 172.215 214.188 183.53C212.601 186.576 212.802 189.79 211.216 192.749C207.482 198.451 199.91 199.643 194.003 201.185C195.245 209.657 196.376 215.488 193.056 223.605C194.826 226.576 195.447 228.494 198.062 231.366C202.079 235.778 208.61 238.311 214.359 239.463C217.762 240.143 222.902 238.557 225.023 240.437C225.346 241.712 224.96 243.929 224.588 245.166C222.082 254.437 223.926 257.177 229.285 263.827C234.15 269.864 244.31 267.595 245.526 268.781C243.796 280.464 242.597 289.898 257.778 295.602C260.609 296.665 264.027 296.802 267.081 297.002C275.971 303.115 275.201 319.977 271.777 328.914C271.027 330.875 267.091 339.855 265.824 340.708C265.042 340.816 265.085 340.819 264.337 340.566C262.391 337.856 268.281 329.675 268.969 326.315C270.715 317.773 271.791 307.161 264.989 300.468L264.784 300.268C255.577 300.157 249.023 296.845 243.796 288.958C240.102 283.386 240.522 278.143 241.892 271.931C232.069 271.919 226.42 268.731 221.492 259.849C218.28 254.06 219.601 249.141 221.504 243.195C211.661 244.824 194.411 237.924 191.612 227.492C188.353 232.598 185.865 233.711 180.692 236.588C182.328 244.731 177.943 253.842 171.767 259.368C157.727 271.931 130.963 256.308 122.26 274.687C122.915 279.363 124.723 284.774 123.372 289.31C122.69 291.6 120.035 292.973 118.323 294.664C117.994 299.228 116.522 304.628 113.21 307.948C111.977 307.29 111.381 306.928 110.027 306.561C110.308 303.879 112.892 302.234 113.769 299.362C114.372 297.389 114.114 293.634 115.027 292.23C116.493 289.972 119.004 288.845 120.35 286.433C120.259 280.704 116.92 273.331 121.289 268.488C133.087 255.255 149.652 263.812 163.765 258.878C173.24 255.568 178.248 247.436 176.981 237.418C176.456 233.261 177.557 233.456 181.019 231.649C191.272 227.173 191.615 215.084 191.145 205.631C190.939 201.49 189.369 198.298 194.119 197.149C199.883 195.754 204.914 194.502 208.849 189.653C208.258 179.315 220.428 171.956 220.453 161.006C220.466 154.903 219.523 150.123 215.383 145.576C222.129 130.124 220.895 113.135 207.283 98.9485Z" fill="#9DB328"/>
<path d="M215.666 223.512C219.196 223.188 231.747 228.339 235.915 229.675C239.023 230.695 242.216 231.439 245.456 231.894C249.516 232.446 253.621 232.595 257.71 232.342C265.678 231.862 279.952 229.483 287.004 235.935C287.405 236.302 287.11 236.985 286.993 237.499C283.033 237.613 277.68 234.594 273.685 234.749C261.846 235.204 250.8 237.732 238.981 234.536C233.992 233.19 218.371 227.876 215.666 223.512Z" fill="#F2F6E4"/>
<path d="M203.006 157.466L203.292 157.873C203.809 162.727 198.065 165.195 194.536 166.777C191.462 168.073 188.056 170.115 184.785 170.906C173.601 173.512 161.91 173.475 150.516 175.112C146.892 175.633 141.773 178.554 139.432 178.789C138.896 178.071 138.83 177.956 138.545 177.108C140.254 170.357 175.228 169.553 181.665 167.699C188.263 165.799 197.882 161.736 203.006 157.466Z" fill="#F2F6E4"/>
<path d="M175.272 197.936C175.995 197.878 175.662 197.817 176.311 198.108L176.342 198.667C170.998 210.233 151.566 211.708 140.697 212.416C139.116 212.52 137.488 212.77 135.926 213.051C129.615 214.228 123.521 216.356 117.851 219.367C116.989 218.977 116.698 218.706 116.451 217.846C117.741 213.684 131.774 210.134 135.936 209.413C143.808 208.047 151.256 208.384 159.162 206.136C166.505 204.049 169.091 201.669 175.272 197.936Z" fill="#F2F6E4"/>
<path d="M156.465 235.622L156.838 235.781C157.133 237.147 154.904 239.756 153.832 240.52C146.433 245.791 136.656 246.269 128.066 248.448C121.184 250.191 113.616 253.164 108.697 258.435C107.709 259.482 107.166 261.54 106.221 262.468L105.41 262.395C105.067 262.079 104.738 261.739 104.408 261.411C104.304 261.044 104.223 260.679 104.281 260.297C104.545 258.569 106.476 256.729 107.691 255.515C122.131 241.107 142.943 246.107 156.465 235.622Z" fill="#F2F6E4"/>
<path d="M207.053 119.28L207.315 119.791C206.67 126.236 186.252 134.058 180.335 135.793C176.79 136.832 172.034 137.105 167.905 138.492C164.351 139.685 159.688 143.22 156.967 143.862C155.777 141.58 158.02 140.365 159.706 139.15C167.205 133.749 176.546 134.063 184.567 130.738C192.342 127.495 199.859 123.664 207.053 119.28Z" fill="#F2F6E4"/>
<path d="M252.643 264.728C255.685 264.821 261.005 268.116 264.705 269.001C269.986 270.396 274.99 269.869 280.284 271.486C285.476 273.073 292.572 277.182 295.43 281.974C295.67 282.374 295.141 282.951 294.908 283.298C294.324 283.75 294.329 283.74 293.635 284.006C292.655 283.619 289.477 280.669 288.2 279.737C285.721 277.976 282.142 275.939 279.219 275.077C271.182 272.708 261.828 274.573 254.906 268.432C253.772 267.425 252.719 266.372 252.643 264.728Z" fill="#F2F6E4"/>
<path d="M222.789 190.963C229.021 190.924 237.187 194.216 244.047 194.732C250.806 195.24 256.795 194.187 263.312 195.113C265.088 195.365 268.789 196.338 269.811 198.049C270.218 198.729 269.886 199.397 269.686 200.147C267.418 199.819 264.883 198.25 261.747 198.023C257.174 197.693 253.471 198.411 248.956 198.428C241.012 198.459 231.009 196.689 224.023 192.723C223.179 192.244 222.929 191.777 222.789 190.963Z" fill="#F2F6E4"/>
<path d="M228.742 146.28C229.754 146.905 231.351 149.579 232.228 150.589C237.521 156.69 244.626 160.386 252.231 162.768C253.683 163.223 255.711 164.044 256.727 165.214C257.216 165.777 256.929 166.638 256.811 167.314C256.573 167.368 256.284 167.448 256.032 167.39C247.994 165.549 226.678 156.868 228.742 146.28Z" fill="#F2F6E4"/>
<path d="M197.93 100.063L198.141 100.445C197.348 106.627 180.449 112.944 174.941 114.47C174.164 112.131 174.417 111.968 176.462 110.858C179.289 109.324 182.37 108.318 185.309 107.038C189.554 105.189 194.2 102.778 197.93 100.063Z" fill="#F2F6E4"/>
<path d="M209.42 78.6955C211.347 79.0902 223.528 88.2353 225.063 90.8081C225.832 92.098 225.618 92.7612 225.346 94.0977C223.176 93.6099 222.685 91.4095 221.007 90.1186C217.506 87.4263 209.461 83.7592 209.42 78.6955Z" fill="#F2F6E4"/>
<path d="M210.466 57.2137C211.831 57.9731 217.259 64.9544 219.034 66.6194C219.362 66.9271 219.043 67.5528 218.894 68.049L218.195 68.1965C214.599 67.3157 209.868 60.4844 210.466 57.2137Z" fill="#F2F6E4"/>
<path d="M190.456 82.0486C190.975 82.0299 190.951 82.055 191.435 82.2675C191.454 82.7966 191.493 83.0742 191.075 83.5423C188.658 86.2479 186.797 87.816 184.602 90.7901C183.882 90.1593 183.444 89.5037 182.871 88.7415C185.086 84.9446 186.353 83.7399 190.456 82.0486Z" fill="#F2F6E4"/>
<path d="M228.654 115.688C231.339 115.804 236.153 119.4 236.639 122.09C236.39 123.047 236.607 122.7 235.724 123.364C235.327 123.002 233.719 121.661 233.493 121.376C232.655 120.32 227.505 117.468 227.271 116.721C227.717 115.959 227.698 116.157 228.654 115.688Z" fill="#F2F6E4"/>
<path d="M193.055 55.1389L193.586 55.292C194.832 57.0508 191.597 61.3999 190.065 62.5993C186.839 61.1476 191.872 56.4524 193.055 55.1389Z" fill="#F2F6E4"/>
</svg>
