<svg width="400" height="400" viewBox="0 0 400 400" fill="none" xmlns="http://www.w3.org/2000/svg">
<path d="M113.067 74.1078C157.455 74.7501 187.953 115.827 225.87 131.765C261.85 147.183 302.465 144.274 336.532 166.643C366.528 186.345 374.593 235.876 358.414 266.42C342.574 296.317 313.227 310.785 282.699 320.971C246.856 332.591 203.928 321.871 169.574 309.075C136.723 295.35 107.489 276.016 79.4831 254.522C51.2079 232.812 36.4124 205.65 33.6545 170.113C31.7706 144.658 39.0758 119.995 55.9676 100.815C71.3126 83.391 90.5394 75.5666 113.067 74.1078Z" fill="#EDBA71"/>
<path d="M143.067 218.05L143.403 218.301C143.326 220.828 136.406 235.786 135.036 239.081C133.82 241.942 132.814 244.887 132.025 247.891C130.09 255.376 129.264 263.383 129.375 271.105C129.408 273.411 131.229 278.344 129.553 279.892C128.724 280.051 128.557 279.917 127.779 279.609C125.598 276.957 125.518 267.471 125.461 263.858C125.226 249.039 132.294 228.589 143.067 218.05Z" fill="#926823"/>
<path d="M350.977 232.044C351.827 232.029 351.877 231.989 352.722 232.235C355.615 235.866 343.368 262.036 338.147 264.701C336.636 265.473 336.457 265.605 334.755 265.697C333.857 265.369 333.119 265.225 332.553 264.499C332.766 263.786 334.461 261.761 335.075 260.955C339.523 255.128 343.383 248.875 346.599 242.287C348.055 239.238 348.885 233.865 350.977 232.044Z" fill="#926823"/>
<path d="M106.26 115.701C106.857 115.869 106.609 115.717 106.967 116.236C105.723 120.093 93.4256 129.486 90.3383 133.474C88.2759 136.137 83.7868 143.919 81.3116 144.869C80.9642 144.503 80.8385 144.318 80.5296 143.913C78.8919 136.255 99.0994 118.649 106.26 115.701Z" fill="#926823"/>
<path d="M67.809 103.542C71.2355 102.137 74.1524 104.913 74.233 108.283C74.3054 111.309 72.7523 111.581 69.892 112.843C69.8016 112.883 69.6987 112.884 69.602 112.904C69.4287 112.941 69.3302 112.954 69.1564 112.988C62.7244 114.247 61.3371 106.195 67.809 103.542Z" fill="#926823"/>
<path d="M199.375 240.786C205.129 239.639 205.573 245.629 204.4 248.276C203.228 250.924 203.838 250.405 200.925 250.508C198.012 250.611 193.621 241.934 199.375 240.786Z" fill="#926823"/>
<path d="M342.604 221.484C343.041 221.432 344.771 221.263 345.044 221.345C347.41 222.071 345.283 228.701 344.875 230.033C344.314 231.87 343.565 234.472 342.082 235.259C341.505 235.2 338.168 234.815 338.62 233.639C339.545 231.241 341.254 223.013 342.604 221.484Z" fill="#926823"/>
<path d="M328.485 189.536C331.691 188.846 334.163 197.728 329.427 198.581C324.69 199.435 323.55 195.437 324.588 192.544C325.625 189.65 325.278 190.226 328.485 189.536Z" fill="#926823"/>
<path d="M248.934 297.196C251.242 297.833 253.637 304.567 249.222 305.633C244.806 306.698 242.906 302.191 243.986 299.435C244.856 297.215 247.182 296.712 248.934 297.196Z" fill="#926823"/>
<path d="M203.58 139.341C204.775 139.267 205.36 139.215 206.213 140.119C206.207 140.758 206.161 140.814 205.602 141.288C200.533 145.579 196.38 149.496 192.239 154.692C191.672 155.203 191.296 155.644 190.56 155.572C189.638 151.6 200.341 140.768 203.58 139.341Z" fill="#926823"/>
<path d="M102.961 243.423C107.937 242.878 108.069 250.84 102.685 251.783C97.301 252.725 97.985 243.968 102.961 243.423Z" fill="#926823"/>
<path d="M60.5236 195.275C65.5927 193.501 66.7192 201.073 61.9088 202.624C57.0983 204.175 55.4544 197.048 60.5236 195.275Z" fill="#926823"/>
<path d="M198.924 152.76C199.49 152.719 199.723 152.771 200.283 152.841C200.589 153.151 200.837 153.26 200.814 153.628C200.678 155.825 195.43 160.604 193.845 162.162C192.946 162.662 193.155 162.736 192.351 162.61C191.311 159.964 196.664 154.187 198.924 152.76Z" fill="#926823"/>
<path d="M124.149 230.732C125.312 231.696 123.132 239.372 122.024 240.687C121.048 241.154 121.196 240.98 119.947 240.891C119.722 240.657 119.419 240.269 119.202 240.008C118.338 236.827 121.434 232.247 124.149 230.732Z" fill="#926823"/>
<path d="M218.122 198.65C219.793 198.484 222.229 201.875 221.631 203.424C221.033 204.972 221.084 204.814 219.22 205.385C217.357 205.956 215.306 203.568 215.669 201.516C216.032 199.463 216.45 198.816 218.122 198.65Z" fill="#926823"/>
<path d="M149.958 119.206C152.006 118.485 151.352 118.754 151.927 120.23C152.502 121.706 152.23 125.312 149.141 124.822C146.052 124.333 147.911 119.927 149.958 119.206Z" fill="#926823"/>
<path d="M286.44 271.023C289.759 270.244 290.566 275.675 286.728 275.928C282.891 276.182 283.121 271.801 286.44 271.023Z" fill="#926823"/>
<path d="M142.256 138.621C143.3 138.722 143.449 138.013 144.456 139.267C145.463 140.521 143.776 143.626 142.458 144.102C141.139 144.578 141.551 144.027 140.739 143.555C139.441 141.778 140.842 139.833 142.256 138.621Z" fill="#926823"/>
<path d="M260.738 302.971C263.212 301.861 265.355 306.574 262.411 308.133C259.466 309.692 258.265 304.082 260.738 302.971Z" fill="#926823"/>
<path d="M300.626 162.907C302.989 162.223 302.748 165.147 302.442 166.259C302.137 167.371 303.195 167.597 300.929 167.618C298.663 167.64 298.262 163.591 300.626 162.907Z" fill="#926823"/>
<path d="M62.9714 135.612C64.1932 135.016 64.6 135.094 65.4473 136.306C66.2947 137.517 65.1542 138.924 63.9612 139.483C62.7682 140.041 62.8089 140.165 61.8509 139.11C60.8928 138.055 61.7496 136.207 62.9714 135.612Z" fill="#926823"/>
<path d="M313.615 215.386C314.98 215.027 315.103 215.082 315.767 216.489C316.432 217.896 315.277 219.016 313.956 219.183C312.634 219.35 312.7 219.515 311.836 218.254C310.972 216.992 312.25 215.745 313.615 215.386Z" fill="#926823"/>
<path d="M82.5079 196.309C84.8697 195.973 84.7195 200.09 82.947 200.559C81.1745 201.028 81.8747 200.963 81.1338 199.844C80.3929 198.724 80.146 196.644 82.5079 196.309Z" fill="#926823"/>
<path d="M340.405 271.721C342.782 271.179 343.094 275.993 340.577 276.478C338.059 276.962 338.028 272.263 340.405 271.721Z" fill="#926823"/>
<path d="M158.004 140.537C159.278 140.182 159.523 140.595 159.642 141.833C159.761 143.071 158.914 144.511 157.616 144.704C156.319 144.896 156.138 144.484 155.977 143.235C155.817 141.986 156.731 140.891 158.004 140.537Z" fill="#926823"/>
</svg>
