<svg width="400" height="400" viewBox="0 0 400 400" fill="none" xmlns="http://www.w3.org/2000/svg">
<g clip-path="url(#clip0_90_107)">
<path d="M169.323 65.1462C173.132 68.7403 176.986 79.7746 178.894 84.6037C164.046 77.4931 215.136 98.6016 228.129 88.4915C228.391 84.29 220.498 84.3845 213.304 89.5229C211.249 83.8706 206.111 76.1629 203.541 72.0522C212.791 73.9268 215.874 81.8152 238.997 73.5937C247.411 71.5982 253.991 70.4044 262.765 71.3514L263.096 71.4354C265.003 71.9043 267.235 71.9665 269.185 72.1268C292.488 74.0419 314.162 85.7584 329.313 103.437C344.875 121.605 354.479 142.858 359.322 166.249C362.6 182.106 364.563 199.869 364.124 216.058C363.544 237.527 358.663 263.128 348.605 282.01C332.592 312.07 312.74 331.708 282.471 347.014C234.578 371.217 167.153 371.999 118.527 355.171C85.8624 343.875 59.7979 322.655 44.0564 291.382C32.4306 268.287 35.8407 224.734 39.3406 189.551L39.3697 189.227C46.0332 151.189 61.891 111.261 94.6911 88.6808C114.227 75.2314 144.402 61.0812 169.323 65.1462Z" fill="#F5733B"/>
<path d="M231.523 75.8252C233.224 75.0552 237.003 74.3988 238.994 73.9268C247.409 71.9313 253.991 70.4044 262.765 71.3514L263.096 71.4354C296.837 79.7343 321.333 88.5093 341.165 119.994C345.237 125.116 350.422 135.692 353.585 145.532C341.682 134.423 340.225 126.52 317.099 116.07C298.3 106.378 283.406 103.595 262.284 101.388C252.277 100.342 243.622 100.314 232.867 101.404C257.032 105.566 275.945 114.038 292.339 133.662C307.358 151.633 318.686 171.107 326.497 193.387C341.429 235.539 337.655 277.591 322.24 318.698C318.129 323.323 314.532 325.892 305.797 332.88C306.894 329.951 311.249 322.056 312.875 318.644C334.869 272.466 331.744 222.961 310.899 176.645C295.278 141.918 269.079 113.262 230.262 108.535C219.947 104.237 216.901 91.0643 220.606 85.7689C221.971 83.0144 229.401 78.2901 231.523 75.8252Z" fill="#CD511B"/>
<path d="M231.522 75.8252C233.223 75.0552 237.002 74.3988 238.993 73.9268C247.408 71.9313 253.99 70.4044 262.764 71.3514C264.868 71.8847 267.031 71.9498 269.184 72.1268C292.487 74.0419 314.161 85.7584 329.312 103.437C332.37 107.006 335.62 110.81 338.12 114.863C339.163 116.537 341.244 119.737 342.279 121.381C339.196 118.298 328.552 112.028 325.579 110.246C300.079 94.9585 270.222 91.0697 240.987 91.7336C237.064 91.8225 230.949 92.3659 227.249 93.3224L224.4 92.1943C225.49 90.8143 226.741 89.5711 228.128 88.4915C228.39 84.29 223.239 85.4973 220.605 85.7689C221.97 83.0144 229.4 78.2901 231.522 75.8252Z" fill="#F5733B"/>
<path d="M231.522 75.8252C240.463 71.7777 253.255 70.3251 262.764 71.3514C247.218 75.6493 238.055 79.4388 228.128 88.4915C228.39 84.2901 223.239 85.4974 220.605 85.7689C221.97 83.0145 229.4 78.2902 231.522 75.8252Z" fill="#CD511B"/>
<path d="M217.172 116.224C244.586 152.726 249.688 184.307 253.18 224.367C256.842 266.459 256.146 310.831 237.61 349.796C236.785 351.528 230.368 362.869 230.262 363.506C227.691 363.927 223.582 364.431 218.444 365.15C218.488 364.408 222.39 358.126 223.074 357.003C247.573 316.65 249.321 266.233 244.586 220.546C242.926 203.212 240.629 185.289 235.218 168.683C229.689 151.707 221.66 133.778 211.25 119.326C214.929 119.658 216.771 119.21 217.172 116.224Z" fill="#CD511B"/>
<path d="M141.881 66.7596C149.588 68.9691 166.031 74.1077 174.053 82.2318C172.305 82.2434 169.764 81.9232 169.824 84.4503C169.835 84.8553 169.878 85.2586 169.953 85.6566C161.157 81.5348 152.712 77.5968 143.178 75.1973C139.035 74.189 131.33 72.3822 125.438 72.0523C130.526 69.1799 136.228 68.3012 141.881 66.7596Z" fill="#CD511B"/>
<path d="M46.3041 160.434C53.1709 148.989 65.0704 137.243 74.9222 128.34C93.6151 111.216 116.501 99.3353 141.262 93.9006C150.024 91.9837 156.936 90.8543 165.895 91.356C163.975 94.148 160.199 94.7952 162.433 97.7449C145.632 100.89 129.385 103.717 113.779 111.596C81.311 127.989 55.4592 156.852 39.3691 189.227C41.0448 179.662 43.3718 169.737 46.3041 160.434Z" fill="#CD511B"/>
<path d="M99.2313 346.96C99.1398 345.996 90.9761 329.89 89.8857 327.146C73.162 285.069 75.4778 231.001 91.9368 189.453C104.441 156.953 133.254 117.761 166.545 103.397C166.551 106.76 164.49 108.021 167.388 109.484C163.976 111.104 160.488 114.357 157.627 116.323C113.465 146.649 87.0488 201.838 87.2207 255.179C87.3162 284.809 90.9749 328.847 111.779 352.663C108.499 351.646 102.197 348.735 99.2313 346.96Z" fill="#CD511B"/>
<path d="M173.224 365.972C159.867 340.905 149.765 326.92 145.139 291.876C139.496 254.54 142.728 215.702 149.765 178.845C153.772 157.855 160.241 134.784 173.224 117.271C173.267 120.488 174.062 119.706 177.335 120.354C164.396 146.23 154.396 175.49 152.317 204.635C148.089 237.367 148.685 272.109 155.01 304.411C160.055 330.18 172.318 345.763 185.645 366.589C180.932 366.486 176.821 366.486 173.224 365.972Z" fill="#CD511B"/>
<path d="M169.323 65.1462L169.141 64.8749C165.735 59.8626 160.179 54.4186 156.116 49.8647C153.826 47.298 148.236 46.3089 149.756 41.6932C151.127 37.5303 151.045 31.7932 157.011 33.2495C173.437 37.2588 184.733 48.3519 194.904 61.2181C202.66 71.0795 208.413 77.6103 213.305 89.5233C216.901 86.4402 229.447 81.9466 228.129 88.4915C227.782 90.2149 225.49 90.8144 224.401 92.1943C226.843 93.1614 234.72 94.9013 233.65 98.3206C231.335 100.704 226.367 100.656 226.058 102.303C227.934 103.607 231.716 105.139 232.232 106.875C232.047 107.862 231.878 107.994 231.279 108.847C229.265 110.084 225.94 109.213 223.083 109.437C220.545 109.614 218.047 110.164 215.668 111.07C216.015 112.264 217.415 114.671 217.415 116.243C217.415 119.256 215.849 123.586 212.901 121.36C208.166 117.785 199.968 110.788 193.113 111.766C186.439 112.718 181.251 119.868 175.803 123.912C173.125 125.901 171.779 122.501 172.075 119.298C172.465 115.091 176.246 109.79 178.676 106.586C174.488 108.105 169.812 109.258 165.367 109.71C157.438 110.482 167.917 101.301 170.217 100.153C167.368 98.8041 158.904 99.9914 158.669 96.2311C158.319 90.6131 169.509 91.118 173.133 90.4023C172.09 88.4936 171.17 87.4282 169.953 85.6566C168.256 83.1861 170.141 80.2741 174.052 82.2318C175.363 82.888 177.512 83.9419 178.894 84.6038C176.986 79.7746 173.132 68.7403 169.323 65.1462Z" fill="#015734"/>
</g>
<defs>
<clipPath id="clip0_90_107">
<rect width="329.889" height="334" fill="white" transform="translate(35 33)"/>
</clipPath>
</defs>
</svg>
