<svg width="400" height="400" viewBox="0 0 400 400" fill="none" xmlns="http://www.w3.org/2000/svg">
<g clip-path="url(#clip0_90_89)">
<path d="M205.547 63.435C207.033 65.0763 212.034 69.4572 215.723 68.5549C229.944 65.076 240.868 66.3638 249.656 77.2008C250.97 78.8209 252.192 80.0573 253.279 81.8821C264.997 81.793 275.925 83.1682 285.029 91.8848C294.148 100.616 297.289 108.771 300.571 120.666C303.967 132.973 296.391 144.847 305.611 153.819C313.185 160.645 317.989 165.535 323.105 174.345C330.05 186.298 330.572 195.415 332.446 208.319C335.642 230.337 331.82 251.132 321.201 270.481C311.066 286.001 311.289 302.105 306.398 319.097C302.971 331.423 295.69 340.84 286.653 349.658C280.243 355.916 270.055 363.624 260.661 363.352C252.94 363.131 245.885 357.743 238.31 359.521C227.703 362.009 215.917 368.347 205.005 365.73C200.102 364.555 195.112 359.995 190.244 359.864C187.186 359.783 183.32 361.072 180.257 361.524C146.524 366.544 118.909 339.864 110.476 309.281C107.274 297.671 105.736 285.192 101.263 274.017C93.3364 254.211 78.5294 263.134 69.1086 219.466C64.4793 198.008 66.5871 174.771 73.0298 153.876C80.0582 131.082 95.2803 115.112 118.903 108.772C120.359 108.382 131.283 107.687 131.603 106.62C132.413 103.802 132.966 98.6383 133.81 95.9457C134.846 92.6429 135.496 90.3716 137.133 87.8775C142.45 79.7804 149.861 81.9186 155.374 77.4731C157.996 75.3569 159.67 72.0166 162.297 69.5462C166.558 65.5377 169.842 65.6192 174.642 63.6437C177.851 62.323 179.111 60.2737 183.508 59.4616C191.193 58.0426 200.323 57.6631 205.547 63.435Z" fill="#FFC971"/>
<path d="M151.407 133.525C148.671 125.847 149.715 119.848 153.305 112.412C158.351 101.958 164.689 88.7518 173.428 80.8524C175.517 78.9642 180.59 76.7683 183.103 75.7683C184.631 76.2775 186.125 78.1982 189.213 78.8232C187.968 80.2699 184.113 81.2355 181.986 82.5911C170.533 89.8899 165.472 106.219 159.722 117.711C157.617 121.917 154.116 129.946 151.407 133.525Z" fill="#FF9505"/>
<path d="M261.543 299.637C272.269 316.452 262.122 342.432 248.738 354.64C246.948 356.272 244.828 357.716 242.839 359.2C241.203 359.2 240.367 359.2 238.311 359.521C249.449 347.304 258.513 330.549 259.099 312.86C259.224 309.09 259.741 303.184 261.543 299.637Z" fill="#FF9505"/>
<path d="M214.973 79.9023C218.585 80.0296 223.625 83.45 226.525 85.4339C234.47 90.868 239.817 105.383 233.525 113.76C228.127 106.112 229.29 100.98 225.168 93.247C223.026 89.2283 216.383 87.135 214.24 84.5406C215.913 82.837 215.936 82.0468 214.973 79.9023Z" fill="#FF9505"/>
<path d="M116.425 157.125C117.383 157.198 117.679 157.27 118.314 157.949C119.094 160.341 116.7 166.192 115.662 168.619C108.026 186.465 102.033 206.675 105.42 226.257C107.524 238.413 112.121 250.719 115.056 262.684C115.492 264.463 116.115 271.281 115.42 272.864L114.957 273.042C114.015 272.716 113.446 271.843 112.766 271.049C111.132 268.949 108.842 266.176 107.82 263.674C104.151 254.922 102.225 245.245 99.7505 236.147C93.5381 213.305 99.92 190.034 110.455 169.547C112.243 166.069 114.148 160.148 116.425 157.125Z" fill="#FF9505"/>
<path d="M275.391 138.048C276.068 138.055 276.582 138.415 276.793 139.065C278.715 144.835 280.248 151.22 283.616 156.386C288.611 164.055 294.844 170.729 300.347 177.993C305.227 184.431 309.641 191.627 311.675 199.509C313.218 205.34 311.772 208.974 309.618 214.415C309.193 214.419 309.384 214.419 308.918 214.092C305.61 207.253 304.899 199.303 301.26 192.409C292.032 174.904 274.426 162.14 272.756 141.007C273.708 139.476 274.072 139.157 275.391 138.048Z" fill="#FF9505"/>
<path d="M98.3196 139.944C102.479 137.929 106.297 143.231 102.491 147.043C101.606 147.93 99.9662 147.203 99.0174 146.424C96.3108 144.203 95.7456 141.191 98.3196 139.944Z" fill="#FF9505"/>
<path d="M178.749 345.127C181.65 344.548 183.511 345.064 183.744 347.846C183.901 349.727 181.97 350.009 180.294 350.697C178.027 351.628 175.781 349.669 176.374 347.184C176.627 346.122 177.749 345.327 178.749 345.127Z" fill="#FF9505"/>
<path d="M159.443 216.195C163.678 216.065 166.055 220.42 162.027 223.211C160.4 224.339 158.486 220.962 157.737 219.51C157.695 219.429 157.793 219.337 157.821 219.251C157.876 219.083 157.914 218.991 157.972 218.823C158.453 217.441 157.951 216.241 159.443 216.195Z" fill="#FF9505"/>
<path d="M290.437 255.105C291.279 254.66 292.291 256.266 292.586 257.126C293.594 260.062 292.725 262.396 290.16 262.409C285.605 262.432 287.661 256.572 290.437 255.105Z" fill="#FF9505"/>
<path d="M172.952 229.681C173.739 228.959 175.053 230.266 175.849 230.956C176.524 231.541 176.936 232.372 177 233.263C177.095 234.599 176.776 235.731 175.619 236.203C172.555 237.453 170.271 232.141 172.952 229.681Z" fill="#FF9505"/>
<path d="M107.021 129.14C110.525 127.225 113.95 132.002 110.582 134.942C108.321 136.916 104.051 130.763 107.021 129.14Z" fill="#FF9505"/>
<path d="M281.937 110.1C285.552 108.706 286.146 116.062 282.553 116.091C278.508 116.123 278.76 111.326 281.937 110.1Z" fill="#FF9505"/>
<path d="M302.761 263.788C303.139 263.552 303.527 263.773 303.869 264.058C305.898 265.751 304.877 268.824 302.53 269.425C301.632 269.655 301.318 269.369 300.778 268.648C299.435 266.854 301.112 264.819 302.761 263.788Z" fill="#FF9505"/>
<path d="M292.672 276.512C292.992 276.279 293.401 276.406 293.668 276.698C294.691 277.815 294.401 279.663 293.719 280.863C293.316 281.57 292.612 281.728 291.868 281.736C291.429 281.741 290.965 281.524 290.682 281.186C289.108 279.31 291.102 277.655 292.672 276.512Z" fill="#FF9505"/>
<path d="M209.68 57.4291C218.556 44.7597 233.704 36.0034 248.781 33.2146C251.098 32.7864 253.231 33.0761 255.146 34.506C255.533 35.3057 256.541 37.0749 256.021 37.7384C253.287 41.2357 244.795 41.8103 241.045 43.6867C231.861 48.2827 221.29 57.9483 214.612 69.7693C217.185 70.9255 221.114 69.7517 222.513 73.1388C224.612 78.2241 215.048 77.1954 214.659 79.4553C215.942 81.2742 216.119 83.3656 214.241 84.5406C210.713 86.7488 202.961 82.8965 201.938 82.4007C195.967 89.2772 185.408 87.9707 191.968 78.8066C188.829 79.0522 182.378 79.3703 182.593 74.8735C182.734 71.9241 185.633 71.3983 187.352 69.2278C193.079 61.9969 197.572 64.1149 202.479 70.3716C204.245 65.6207 206.786 61.5606 209.68 57.4291Z" fill="#59300E"/>
</g>
<defs>
<clipPath id="clip0_90_89">
<rect width="267.811" height="334" fill="white" transform="translate(66 33)"/>
</clipPath>
</defs>
</svg>
