<svg width="400" height="400" viewBox="0 0 400 400" fill="none" xmlns="http://www.w3.org/2000/svg">
<path d="M142.229 216.292C144.934 212.245 148.532 210.374 151.056 205.794C152.615 202.968 154.339 193.168 157.416 193.012C162.595 193.381 161.876 201.47 164.603 206.003C170.775 207.137 173.054 195.356 176.769 193.182C182.847 192.951 181.65 211.282 179.737 214.561C156.994 211.957 121.354 236.149 100.157 242.875C95.6177 241.153 85.745 235.825 88.1956 229.403C88.6999 228.93 89.4486 228.38 90.1693 228.718C97.8894 232.329 103.871 234.215 112.698 232.076C113.603 230.365 109.218 226.085 110.462 218.324C110.997 214.985 114.246 213.387 115.581 215.31C116.262 216.292 118.354 220.088 123.9 222.402C128.537 212.451 126.49 209.147 128.499 208.144C133.416 206.985 140.073 212.636 142.229 216.292Z" fill="#92BF67"/>
<path d="M260.86 114.463C264.564 104.935 265.692 100.834 266.094 91.0245C266.173 90.6278 266.995 90.1016 267.326 90.0487C274.295 88.9314 278.89 107.6 278.68 111.918C289.207 111.139 290.204 92.4818 290.92 85.5127C302.61 86.4602 302.101 105.808 301.129 108.56C305.556 110.02 316.357 99.6982 321.482 96.6829C326.54 98.1707 321.482 116.5 314.425 117.944C297.398 106.089 250.095 132.122 234.22 140.162C230.78 139.288 217.583 126.683 219.753 123.322C220.967 122.046 228.275 130.756 243.282 124.307C242.084 120.072 238.117 101.037 242.035 98.8108C244.601 98.3928 245.858 100.422 246.599 102.571C249.491 110.943 253.429 110.656 260.86 114.463Z" fill="#92BF67"/>
<path d="M125.366 33.7187C128.584 36.1116 128.06 38.4351 129.818 42.0946C130.445 43.4018 132.063 44.4866 133.188 45.0838C133.591 44.7251 133.497 44.942 133.528 44.5156C133.834 40.16 137.316 34.2981 142.113 33.8317C142.113 33.8317 143.304 33.8317 143.95 35.6919C145.422 39.931 146.35 50.2443 149.251 53.0184C151.393 43.6923 156.624 40.9224 161.389 38.3022C162.547 37.6658 163.723 37.5121 164.926 37.9341C167.333 40.0262 165.197 45.2852 164.783 47.9982C164.223 51.6666 163.134 58.7557 164.387 62.1754C164.79 62.1901 165.837 61.6792 166.585 61.4982C171.564 60.2964 176.572 58.7177 180.521 55.3378C182.639 53.525 185.184 49.6827 188.162 49.9309C190.248 50.1048 190.809 52.9366 190.469 54.6423C188.963 62.1952 183.996 69.839 178.263 74.8999C182.433 73.7457 187.475 72.6195 191.496 70.6549C195.699 68.6018 205.773 60.9346 203.462 72.3496C202.837 75.4394 201.764 78.3611 199.868 81.0436C197.924 83.8222 195.281 86.0388 192.206 87.4698C167.686 77.8051 128.482 54.8935 115.52 43.9632C116.714 39.1283 121.863 33.7187 125.366 33.7187Z" fill="#92BF67"/>
<path d="M127.463 49.2925C130.009 48.1909 135.991 46.2379 141.719 49.2925C146.345 51.7593 147.829 52.3477 153.43 62.1753C153.43 62.1753 162.085 60.494 168.195 65.5855C171.559 68.3894 174.305 73.7318 174.814 76.7867C181.433 77.2958 184.102 79.1396 185.506 79.8416C192.125 83.151 191.106 87.9879 196.338 91.9164C200.57 95.0949 202.007 99.7167 202.107 104.984C202.241 112.027 199.605 116.141 194.912 121.059C196.791 130.16 197.996 135.013 194.726 144.381C192.071 151.988 187.033 154.177 180.995 159.635C176.469 165.464 174.973 172.068 168.286 176.24C158.028 182.64 150.375 178.616 141.677 193.793C132.176 206.095 118.808 204.073 111.371 200.154C105.628 200.273 100.11 203.269 94.0648 201.767C89.3125 200.585 86.1311 196.483 81.7437 194.629C78.6733 193.331 75.2806 193.386 71.9684 192.079C65.5198 189.536 62.3613 184.292 59.6796 178.28C53.635 174.901 51.3775 170.684 53.7781 163.82C44.6818 152.541 45.2535 141.971 51.9034 129.001C46.5087 116.5 48.5308 103.174 60.9614 92.2394C62.1387 81.186 64.9438 69.9072 74.341 62.7242C76.9751 60.711 81.4866 59.6119 83.2666 57.2817C91.3137 46.7471 96.6873 43.4886 109.505 43.1664C115.026 43.0276 120.844 45.2193 127.463 49.2925Z" fill="#D12759"/>
<path d="M104.546 71.9329C110.669 71.7315 114.281 81.0115 115.942 86.4278C119.047 96.5488 107.431 108.304 98.4204 109.817C91.8682 110.916 90.0387 105.326 87.6922 100.329C84.5401 93.6149 91.1567 86.1348 94.8282 80.791C97.5396 76.8446 99.6102 72.0953 104.546 71.9329Z" fill="#FF8AAA"/>
<path d="M102.729 114.304C108.747 113.369 110.778 117.8 112.403 122.592C114.135 127.698 111.905 134.115 109.632 138.66C106.812 144.3 102.024 146.709 96.2777 148.491C95.1802 148.784 93.9865 148.89 92.8521 149.032C88.477 147.011 87.2082 140.227 86.1688 135.972C85.4542 132.772 86.9898 130.364 88.1558 127.671C91.4507 120.062 93.7729 115.476 102.729 114.304Z" fill="#FF8AAA"/>
<path d="M132.967 54.4654C135.107 54.2437 139.481 54.8663 141.277 56.0336C148.413 60.6716 145.03 69.1701 141.422 74.7129C137.541 80.675 136.076 84.1644 128.937 85.9424C128.218 86.1004 127.329 86.2962 126.606 86.4194C121.432 87.3013 117.086 79.5979 116.488 75.4155C115.836 70.8515 117.906 65.477 120.652 61.9437C123.887 57.7815 127.701 55.1693 132.967 54.4654Z" fill="#FF8AAA"/>
<path d="M156.005 67.1629C169.915 65.7009 169.675 84.4225 164.044 92.3535C160.451 97.4154 160.138 99.1686 153.822 101.059C136.028 103.131 138.979 74.1914 156.005 67.1629Z" fill="#FF8AAA"/>
<path d="M130.372 91.9052C142.645 90.5155 142.348 104.961 139.802 112.827C137.953 118.538 130.573 121.871 125.496 124.027C118.36 126.403 116.19 118.49 115.454 113.111C114.784 108.224 117.582 101.048 120.547 97.2291C122.938 94.1505 126.521 92.2858 130.372 91.9052Z" fill="#FF8AAA"/>
<path d="M75.2995 98.9452C95.896 101.226 87.0668 124.634 79.5692 130.868C74.5964 135.004 67.8111 134.804 64.7877 128.207C62.1366 122.422 65.4162 97.8509 75.2995 98.9452Z" fill="#FF8AAA"/>
<path d="M177.42 80.9376C179.742 80.6696 182.086 81.2179 184.047 82.489C186.803 84.2542 188.644 87.2638 189.272 90.476C191.024 99.4375 188.593 110.081 178.246 111.998C172.562 112.014 166.903 109.484 165.326 103.336C164.638 100.652 165.742 96.2645 166.303 93.5859C167.954 85.7091 168.911 82.3813 177.42 80.9376Z" fill="#FF8AAA"/>
<path d="M129.157 128.508C130.283 128.38 132.016 128.512 132.998 129.116C147.191 137.838 132.667 155.957 122.237 159.323C121.183 159.664 116.852 159.562 116.261 158.769C114.526 156.44 113.082 151.682 112.458 148.872C110.674 140.828 122.08 129.907 129.157 128.508Z" fill="#FF8AAA"/>
<path d="M154.335 105.381C154.512 105.359 154.69 105.339 154.868 105.322C160.66 104.8 164.41 110.352 164.558 115.614C164.685 120.089 161.394 126.83 158.309 130.053C155.745 132.732 153.418 133.813 149.682 133.851C147.238 133.865 144.968 133.895 142.879 132.383C139.303 129.729 138.505 125.015 139.194 120.844C140.718 111.624 145.276 106.764 154.335 105.381Z" fill="#FF8AAA"/>
<path d="M152.754 138.99C157.429 139.336 157.809 141.689 159.296 145.36C163.902 156.739 155.345 167.02 144.264 169.981C135.681 170.087 133.875 159.96 136.914 153.969C140.065 147.756 145.309 139.759 152.754 138.99Z" fill="#FF8AAA"/>
<path d="M83.6005 64.6602C89.1377 64.0447 91.5408 67.7866 92.9295 72.4754C90.8433 82.8436 85.5681 88.6359 76.0959 92.6508C70.9092 93.9988 66.9944 92.4512 66.3636 86.5802C65.763 80.6782 68.7879 75.7314 72.3583 71.3308C75.9136 66.9486 78.0197 65.2778 83.6005 64.6602Z" fill="#FF8AAA"/>
<path d="M105.648 46.8473C108.962 46.1843 114.441 46.9753 116.937 49.3764C121.205 53.4809 121.063 59.0153 117.028 63.2601C113.866 66.5863 110.398 67.4738 106.013 67.641C101.121 67.7368 98.1158 67.2279 93.8374 64.2896C92.2553 63.1051 90.9842 61.3279 90.8409 59.3216C90.2187 50.6078 98.7179 47.6367 105.648 46.8473Z" fill="#FF8AAA"/>
<path d="M101.371 151.441C105.063 151.52 107.303 153.9 109.077 156.804C109.548 157.576 110.591 158.899 110.83 159.746C112.77 166.618 102.928 176.751 97.2658 178.843C91.9745 180.093 88.3 174.234 87.5065 169.76C86.0778 161.704 93.6684 152.789 101.371 151.441Z" fill="#FF8AAA"/>
<path d="M127.147 161.591C131.94 161.113 133.108 166.643 133.349 170.343C133.929 179.257 123.849 188.74 115.179 188.835C108.511 188.789 107.967 179.304 109.892 174.735C112.465 168.626 121.279 163.977 127.147 161.591Z" fill="#FF8AAA"/>
<path d="M75.2844 138.15C90.7779 137.399 86.6882 162.832 75.8482 166.422C67.3178 166.699 64.3135 157.394 65.7801 150.464C67.1034 144.21 68.9572 140.096 75.2844 138.15Z" fill="#FF8AAA"/>
<path d="M173.491 117.568C174.909 117.477 177.266 117.257 178.568 117.721C183.9 119.624 182.954 128.645 181.463 132.705C179.64 137.67 175.583 141.813 170.896 144.026C159.58 148.335 161.595 133.948 164.072 127.984C166.11 123.077 168.606 119.739 173.491 117.568Z" fill="#FF8AAA"/>
<path d="M165.609 151.011C169.962 150.811 173.011 155.647 172.901 159.424C172.568 170.875 165.003 174.846 155.029 177.023C151.99 177.686 148.779 177.196 148.948 174.325C149.246 169.243 157.147 169.024 160.308 165.244C163.247 161.731 165.06 157.741 164.474 153.172C164.356 152.255 164.713 151.052 165.609 151.011Z" fill="#FF8AAA"/>
<path d="M55.6256 130.735C63.9626 130.78 61.1842 137.009 60.8649 141.62C60.4815 147.158 62.6637 154.707 60.3899 160.104C59.9306 161.194 58.3469 161.556 57.3663 161.774C48.7689 158.015 49.19 136.784 55.6256 130.735Z" fill="#FF8AAA"/>
<path d="M187.072 125.132C189.016 125.071 189.867 125.422 191.612 126.105C197.925 137.269 191.818 149.228 179.602 151.997C177.462 152.283 174.416 151.282 173.269 149.393C171.749 146.894 176.834 144.973 178.303 143.795C179.433 142.887 180.69 142.112 181.645 140.949C184.667 137.87 185.807 133.544 186.333 129.38C186.501 128.048 186.62 126.407 187.072 125.132Z" fill="#FF8AAA"/>
<path d="M77.507 169.278C87.4063 170.128 88.8459 189.106 75.7112 187.917C64.4204 183.316 65.8152 170.636 77.507 169.278Z" fill="#FF8AAA"/>
<path d="M137.703 178.482C139.717 178.641 140.793 181.277 141.907 182.952C140.713 187.644 139.088 191.688 135.021 194.569C130.547 197.739 125.415 199.333 119.985 198.484C119.495 198.338 118.235 197.989 117.866 197.663C111.145 191.723 121.135 192.292 124.361 190.508C127.956 188.52 131.357 185.94 133.984 182.791C135.251 181.272 136.279 179.853 137.703 178.482Z" fill="#FF8AAA"/>
<path d="M97.8483 182.021C102.802 181.6 105.207 181.917 107.834 186.41C108.135 192.303 105.837 195.604 100.015 196.947C95.5852 197.112 90.0635 195.241 89.3525 190.199C89.1088 188.392 89.62 186.565 90.7656 185.147C92.721 182.705 95.035 182.39 97.8483 182.021Z" fill="#FF8AAA"/>
<path d="M60.6899 96.3513C69.9717 96.3826 62.3923 107.354 60.834 111.065C59.1938 114.972 60.5155 121.288 57.5187 124.244L56.6954 124.383C55.7874 124.085 54.9101 123.878 54.319 123.104C52.5899 120.839 52.9674 116.07 53.3763 113.446C54.1174 108.688 56.6778 99.3217 60.6899 96.3513Z" fill="#FF8AAA"/>
<path d="M194.171 96.0504C200.738 96.6594 200.615 105.708 198.359 110.193C196.245 114.393 193.97 116.073 189.651 117.673C189.386 117.764 189.117 117.843 188.846 117.909C187.253 118.309 185.701 117.083 184.268 116.233C186.016 112.698 189.453 109.7 191.477 105.222C193.384 101.003 192.08 99.2883 194.171 96.0504Z" fill="#FF8AAA"/>
<path d="M59.9251 162.821C63.8432 162.828 70.7989 174.134 62.4869 175.827C59.8215 175.396 56.8598 172.744 55.814 170.284C55.231 168.946 55.2567 167.421 55.8848 166.104C56.7648 164.269 58.1492 163.485 59.9251 162.821Z" fill="#FF8AAA"/>
<path d="M272.57 114.973C278.68 113.862 279.698 117.009 282.244 117.009C287.361 117.009 290.39 110.899 302.61 112.427C311.853 113.582 314.194 115.347 317.909 123.189C329.085 124.137 339.428 131.861 340.449 145.641C352.883 152.865 357.188 172.518 350.472 184.624C356.951 199.505 352.506 216.293 345.23 220.641C345.23 231.058 341.183 236.035 334.324 243.499C331.817 246.225 330.503 250.118 326.415 251.411C325.096 251.925 323.711 252.48 322.344 252.987C320.31 257.154 318.184 259.473 313.78 261.171C307.447 263.615 301.393 259.476 296.253 260.191C291.067 260.914 289.57 267.202 281.307 262.908C279.021 261.721 277.944 260.825 275.897 259.043C262.565 259.455 256.786 252.442 256.02 244.566C235.891 236.125 234.377 226.476 234.56 208.088C232.316 204.663 228.503 202.676 226.311 199.235C224.062 195.545 224.806 190.601 223.686 186.659C222.7 183.186 220.031 180.53 219.17 176.906C217.51 169.916 221.879 166.372 225.966 161.656C227.257 160.166 227.965 156.378 228.988 154.566C230.259 152.121 233.77 149.236 233.67 146.575C233.366 138.393 236.327 133.171 242.021 129.229C248.64 124.646 253.732 125.23 257.296 123.628C259.743 122.528 263.098 116.695 272.57 114.973Z" fill="#D12759"/>
<path d="M314.971 155.222C318.454 155.293 321.267 157.791 323.528 160.156C328.497 165.354 329.693 172.223 329.469 179.176C329.286 184.891 324.357 191.966 318.021 191.471C304.394 189.906 300.626 179.189 303.508 166.687C304.625 161.84 310.302 156.783 314.971 155.222Z" fill="#FF8AAA"/>
<path d="M282.247 161.358C288.076 160.643 293.097 164.396 296.678 168.733C299.209 171.792 299.789 176.798 299.232 180.64C298.188 187.827 294.079 190.968 288.522 194.965C287.883 195.33 287.038 195.688 286.358 196C283.153 194.462 279.243 192.694 276.717 190.233C268.93 182.643 272.433 165.226 282.247 161.358Z" fill="#FF8AAA"/>
<path d="M302.314 190.871C308.915 190.55 315.04 193.921 316.621 200.889C317.601 205.211 316.893 212.248 314.263 215.946C312.155 218.912 308.859 222.746 305.068 223.54C301.39 222.85 294.58 220.455 293.085 216.557C291.354 212.046 289.694 207.067 291.184 202.289C292.777 197.186 297.706 193.244 302.314 190.871Z" fill="#FF8AAA"/>
<path d="M336.298 189.866C341.681 189.211 346.706 191.079 347.82 196.901C350.046 208.528 344.525 216.953 333.824 218.79C330.911 219.29 326.863 219.099 324.845 216.509C321.606 212.35 320.063 203.892 322.024 199.276C324.491 193.473 329.683 190.671 336.298 189.866Z" fill="#FF8AAA"/>
<path d="M272.031 198.273C281.649 196.921 283.339 204.34 287.28 210.702C287.585 216.672 285.073 228.314 277.619 228.774C275.221 228.113 270.689 226.328 268.566 225.103C258.154 219.088 260.092 201.273 272.031 198.273Z" fill="#FF8AAA"/>
<path d="M258.156 170.039C259.093 170.094 259.89 170.184 260.888 170.342C269.747 171.751 268.965 184.533 268.665 191.048C268.499 194.617 261.868 199.896 258.808 201.81C258.477 201.889 258.143 201.96 257.807 202.021C248.762 203.625 240.187 172.397 258.156 170.039Z" fill="#FF8AAA"/>
<path d="M295.389 134.921C297.861 134.815 300.297 135.531 302.321 136.957C306.601 139.951 312.239 147.036 307.823 151.992C303.844 156.459 302.018 159.361 295.794 160.217C293.33 160.462 289.259 159.49 287.426 157.783C279.944 150.811 278.521 141.114 289.343 136.746C291.708 135.793 292.742 135.109 295.389 134.921Z" fill="#FF8AAA"/>
<path d="M266.352 143.051C277.556 142.421 280.402 147.996 277.375 158.375C276.492 161.402 269.53 165.676 266.765 166.905C265.148 166.46 262.862 165.717 261.439 164.977C256.269 162.212 252.845 155.96 256.33 150.467C258.904 146.414 261.727 144.301 266.352 143.051Z" fill="#FF8AAA"/>
<path d="M244.092 209.35C244.634 208.932 248.374 210.49 249.155 210.697C252.551 211.6 256.412 215.662 257.805 218.808C259.197 221.952 261.546 228.8 260.152 232.203C259.12 234.727 258.307 235.641 255.944 236.294C251.431 237.542 248.454 234.867 245.458 231.638C239.34 225.046 235.664 215.851 244.092 209.35Z" fill="#FF8AAA"/>
<path d="M337.24 154.228C344.949 154.167 348.192 161.815 348.477 168.421C348.757 174.94 348.016 182.039 341.489 185.153C340.043 185.59 335.876 185.993 335.596 183.723C335.198 180.535 335.428 177.345 334.898 174.051C334.032 168.654 330.066 162.317 331.031 156.893C331.24 156.143 336.143 154.471 337.24 154.228Z" fill="#FF8AAA"/>
<path d="M320.16 130.029C332.968 129.45 342.603 151.835 326.349 152.154C324.053 152.214 321.988 152.164 319.7 152.096C315.234 149.555 313.154 144.983 311.253 140.442C308.949 134.944 315.792 131.423 320.16 130.029Z" fill="#FF8AAA"/>
<path d="M291.903 224.974C301.167 224.345 308.789 231.078 303.939 240.694C302.391 243.759 300.676 246.164 297.572 247.829C295.106 247.944 294.133 248.041 291.842 246.908C288.24 245.128 284.536 239.759 283.367 236.07C284.808 230.821 285.941 226.491 291.903 224.974Z" fill="#FF8AAA"/>
<path d="M318.838 220.396C322.86 220.19 327.57 221.158 329.706 225.03C331.065 227.499 330.795 230.605 329.945 233.214C328.25 238.425 324.362 240.413 319.747 242.702C312.98 244.963 307.285 238.092 309.592 231.88C311.473 226.819 313.971 222.779 318.838 220.396Z" fill="#FF8AAA"/>
<path d="M240.568 151.408C253.728 150.444 256.302 167.441 243.981 174.055C241.394 173.636 239.638 174.641 237.133 173.317C231.077 170.116 231.734 160.825 234.37 155.594C235.66 153.034 237.943 152.057 240.568 151.408Z" fill="#FF8AAA"/>
<path d="M274.516 118.833C279.844 118.404 285.745 121.599 287.107 126.988C287.614 128.92 287.296 130.977 286.229 132.665C284.154 136.002 280.073 137.54 276.438 138.381C270.387 139.325 265.578 135.945 263.783 130.224C265.166 123.252 267.92 121.144 274.516 118.833Z" fill="#FF8AAA"/>
<path d="M268.222 231.811C277.196 231.834 283.611 244.298 277.84 251.615C276.348 253.501 273.973 253.977 271.666 254.036C266.661 253.949 263.711 250.871 261.229 246.844C257.665 241.06 262.604 233.922 268.222 231.811Z" fill="#FF8AAA"/>
<path d="M235.219 176.837C241.508 176.861 241.794 179.728 242.82 185.234C243.654 189.712 244.735 193.591 246.242 197.875C245.598 200.461 245.332 201.586 243.985 203.88L241.654 204.178C229.377 206.194 226.74 182.175 235.219 176.837Z" fill="#FF8AAA"/>
<path d="M251.872 129.326C268.969 128.438 260.242 145.117 250.128 147.033C237.3 149.362 235.476 131.284 251.872 129.326Z" fill="#FF8AAA"/>
<path d="M302.124 116.35C304.375 116.249 306.613 116.703 308.647 117.672C314.385 120.431 315.39 125.805 310.052 129.755C307.888 131.355 305.724 131.808 303.168 132.461C290.804 133.256 284.62 118.12 302.124 116.35Z" fill="#FF8AAA"/>
<path d="M311.443 244.858C312.818 244.963 314.404 245.322 315.509 246.185C316.377 246.857 316.917 247.87 316.991 248.967C317.294 253.058 312.856 256.973 308.875 257.108C298.809 253.852 304.572 246.429 311.443 244.858Z" fill="#FF8AAA"/>
<path d="M285.296 249.924C288.152 249.795 291.031 250.019 291.711 253.46C292.004 255.011 291.67 256.615 290.784 257.923C289.618 259.639 288.366 260.171 286.449 260.497L286.228 260.476C283.611 260.222 279.441 259.03 280.136 255.469C280.65 252.826 283.173 251.268 285.296 249.924Z" fill="#FF8AAA"/>
<path d="M226.701 167.578C229.997 167.484 232.361 171.716 232.318 174.766C232.286 177.063 229.403 178.096 227.675 179.584C227.105 180.074 227.105 180.352 226.356 180.255C223.399 179.872 222.778 174.321 223.363 171.802C223.896 169.511 224.503 167.64 226.701 167.578Z" fill="#FF8AAA"/>
<path d="M335.611 221.417C342.077 222.484 340.17 231.096 337.113 234.479C332.042 234.905 334.626 227.079 334.328 224.103C334.206 222.871 334.611 222.089 335.611 221.417Z" fill="#FF8AAA"/>
<path d="M325.002 242.773C326.623 242.722 327.458 242.595 328.703 243.723C329.637 246.292 326.863 247.684 325.035 248.797C323.721 248.937 322.66 248.776 321.547 248.038C320.093 245.589 323.283 243.909 325.002 242.773Z" fill="#FF8AAA"/>
<path d="M145.284 219.347C148.848 214.765 155.467 209.051 163.613 209.165C172.532 209.289 172.215 212.973 176.342 213.747C187.431 215.826 199.377 221.215 202.078 233.599C212.492 239.204 218.392 245.194 219.933 258.631C220.479 263.223 218.743 266.831 219.234 271.179C220.253 280.203 226.238 278.408 223.122 295.559C222.73 297.048 222.207 299.309 222.083 300.806C225.541 308.849 224.711 315.067 221.063 321.177C224.248 333.065 222.701 341.197 210.325 346.013C207.338 355.298 204.43 360.046 193.971 359.829C188.088 366.361 180.427 369.347 172.508 363.347C164.385 363.556 161.573 361.804 155.673 356.242C144.926 358.414 137.138 348.161 134.607 341.914C133.051 340.145 128.642 339.244 126.652 337.844C123.259 335.723 122.367 331.902 119.572 329.298C116.328 326.589 110.287 326.867 107.281 323.44C102.722 318.242 103.893 311.007 101.496 305.032C98.3882 298.827 91.2364 294.983 92.4535 286.878C92.9432 283.615 94.6395 280.448 95.3039 276.863C90.7193 268.188 90.8201 263.857 97.0291 256.08C96.5826 250.683 97.2198 247.45 100.158 242.875C108.626 232.076 115.072 234.622 117.79 234.622C121.354 232.585 120.845 225.318 129.501 221.384C133.482 219.574 137.138 217.82 145.284 219.347Z" fill="#D12759"/>
<path d="M158.401 259.142C168.649 257.903 173.744 269.677 172.407 278.325C171.821 282.113 171.28 287.415 168.178 289.925C166.878 290.977 163.532 290.274 161.874 290.035C158.684 289.518 154.643 289.078 152.033 287.201C149.216 285.178 146.653 280.641 146.234 277.25C145.748 273.312 146.486 267.049 149.031 263.791C151.635 260.453 154.44 259.718 158.401 259.142Z" fill="#FF8AAA"/>
<path d="M184.743 274.643C194.418 273.203 203.94 289.475 199.844 297.85C199.167 299.235 197.697 300.814 196.751 302.084C195.271 304.07 194.416 307.455 191.426 307.135C184.771 304.334 176.765 301.761 174.905 294.055C173.906 289.913 176.237 282.637 178.156 278.857C179.452 276.306 182.182 275.247 184.743 274.643Z" fill="#FF8AAA"/>
<path d="M126.072 306.961C128.589 305.687 134.358 307.183 136.905 308.453C140.563 310.278 144.25 314.808 145.989 318.44C147.023 320.599 145.528 324.188 145.101 326.357C143.994 331.989 144.027 334.173 138.398 336.217C138.069 336.337 137.698 336.215 137.348 336.202C126.849 335.798 115.332 324.222 119.127 313.293C120.664 308.866 122.555 308.742 126.072 306.961Z" fill="#FF8AAA"/>
<path d="M184.308 242.819C190.781 242.496 196.416 247.134 199.849 252.279C202.251 255.881 202.553 261.66 201.729 265.805C201.22 268.366 199.807 269.893 197.65 271.204C195.792 271.321 194.549 271.334 192.688 271.265C191.704 271.095 190.722 270.909 189.743 270.708C185.046 269.763 179.626 268.847 176.952 264.575C173.256 258.666 175.252 253.646 176.633 247.363C179.355 244.418 180.46 243.687 184.308 242.819Z" fill="#FF8AAA"/>
<path d="M129.05 273.386C135.708 273.012 139.44 278.406 142.118 283.724C142.641 284.76 143.395 286.815 143.51 287.955C144.045 293.25 143.695 302.26 138.177 304.742C136.85 304.632 135.445 304.314 134.129 304.059C126.209 303.1 120.549 297.639 119.2 289.933C117.617 280.888 119.802 275.112 129.05 273.386Z" fill="#FF8AAA"/>
<path d="M150.322 291.679C151.692 291.603 162.677 293.79 164.389 294.368C172.184 297.003 174.847 312.532 166.493 316.824C165.201 317.157 155.79 315.989 154.401 315.566C144.736 312.628 145.005 303.326 147.301 295.249C147.903 293.131 148.583 292.573 150.322 291.679Z" fill="#FF8AAA"/>
<path d="M135.108 245.948C148.662 244.688 147.918 263.404 140.142 269.341C137.73 271.184 134.612 270.84 131.847 270.298C129.182 269.674 126.025 270.328 124.056 268.289C118.222 262.251 121.333 254.227 126.197 248.753C128.805 245.818 131.745 246.052 135.108 245.948Z" fill="#FF8AAA"/>
<path d="M157.604 229.833C167.902 229.452 179.546 244.237 169.704 252.786C168.221 254.074 166.197 254.425 164.317 254.906C151.671 257.733 146.096 247.949 150.303 236.801C152.254 231.628 151.991 231.226 157.604 229.833Z" fill="#FF8AAA"/>
<path d="M158.421 319.739C161.539 318.949 165.456 321.154 168.074 322.585C177.023 327.48 178.708 339.725 166.773 342.383C158.775 342.469 151.453 335.828 149.572 328.119C148.941 325.535 150.383 322.305 151.897 320.187C154.507 320.159 155.841 320.141 158.421 319.739Z" fill="#FF8AAA"/>
<path d="M180.536 219.925C187.426 218.378 195.688 227.713 197.687 233.4C195.919 238.583 191.904 239.382 186.843 239.708C184.74 239.864 181.175 239.912 179.108 239.433C176.841 237.644 173.392 235.523 171.421 233.662C164.749 227.364 174.942 220.87 180.536 219.925Z" fill="#FF8AAA"/>
<path d="M206.767 299.841C207.548 299.811 208.857 299.767 209.585 299.973C214.188 301.279 218.626 307.551 219.156 312.094C219.838 317.932 214.248 322.061 209.587 325.326C198.077 330.477 196.755 311.8 199.669 305.34C201.032 302.321 203.795 300.791 206.767 299.841Z" fill="#FF8AAA"/>
<path d="M134.9 222.453C140.92 222.135 145.068 223.293 146.634 229.688C144.976 236.534 142.138 240.943 134.904 242.193C131.512 242.73 123.597 242.863 123.588 238.453C123.572 230.353 126.996 223.999 134.9 222.453Z" fill="#FF8AAA"/>
<path d="M179.35 307.975C181.417 307.763 182.921 307.809 184.842 308.883C190.725 312.175 195.825 321.63 192.426 328.129C191.14 330.588 189.983 330.021 187.792 330.688L187.492 330.782C182.734 331.879 178.425 328.717 176.179 324.766C172.15 317.676 172.046 312.381 179.35 307.975Z" fill="#FF8AAA"/>
<path d="M107.744 263.177C109.903 263.081 111.722 263.043 113.587 264.338C119.674 268.559 117.885 280.486 112.24 284.366C110.6 285.493 109.307 285.694 107.411 286.023C94.0823 285.409 95.7545 266.782 107.744 263.177Z" fill="#FF8AAA"/>
<path d="M110.066 238.741C117.184 238.352 124.505 240.304 120.977 250.087C119.593 253.929 115.58 256.225 111.802 257.546C105.973 259.501 104.13 258.496 99.9804 254.341C99.804 251.187 100.485 248.043 101.951 245.243C103.902 241.557 106.212 239.953 110.066 238.741Z" fill="#FF8AAA"/>
<path d="M203.159 271.555C209.857 270.463 216.618 278.238 217.7 284.233C218.536 288.866 216.945 291.822 214.46 295.475C212.118 297.896 209.246 298.13 207.225 295.223C205.969 293.024 205.334 289.602 205.187 286.802C204.914 281.598 200.628 278.505 200.794 273.87C200.833 272.775 202.352 272.029 203.159 271.555Z" fill="#FF8AAA"/>
<path d="M201.223 239.538C207.797 240.009 211.517 244.736 214.292 250.383C216.33 254.53 217.358 265.102 212.022 267.215C205.13 267.503 206.463 260.448 205.041 255.637C204.481 253.74 204.118 252.002 203.194 250.207C201.641 247.19 198.558 245.887 196.848 242.992C198.171 240.668 198.454 239.889 201.223 239.538Z" fill="#FF8AAA"/>
<path d="M106.915 288.594C108.782 288.597 107.098 289.61 110.896 289.938C111.669 290.005 112.195 289.403 112.831 289.887C114.801 294.658 118.841 299.759 119.383 304.848C119.556 306.478 115.976 309.66 114.88 310.668C105.774 313.137 96.0757 296.807 106.915 288.594Z" fill="#FF8AAA"/>
<path d="M160.494 212.553C165.079 212.001 168.232 212.897 170.943 216.809C169.6 222.998 166.358 225.791 159.968 226.229C155.581 226.157 145.24 225.445 149.98 217.853C152.246 214.226 156.479 213.23 160.494 212.553Z" fill="#FF8AAA"/>
<path d="M183.088 334.891C192.287 335.059 194.507 348.89 185.271 350.374C184.649 350.236 184.031 350.084 183.418 349.911C179.212 348.691 175.762 344.806 177.202 340.25C178.089 337.442 180.65 336.075 183.088 334.891Z" fill="#FF8AAA"/>
<path d="M200.121 328.847C203.294 328.656 206.441 329.891 207.46 333.03C209.182 338.327 207.522 342.233 202.415 344.228C194.357 345.277 191.103 332.76 200.121 328.847Z" fill="#FF8AAA"/>
<path d="M161.872 346.369C169.454 345.868 176.448 345.891 174.631 356.303C174.468 357.242 173.096 357.858 172.316 358.128C166.952 358.042 152.824 352.314 161.872 346.369Z" fill="#FF8AAA"/>
<path d="M146.233 336.347C147.415 335.927 153.5 342.637 154.816 343.554C155.061 343.724 155.856 345.308 156.052 345.707C154.715 347.752 154.225 348.574 152.013 349.613C149.62 349.361 147.169 348.447 145.252 346.968C142.875 345.135 139.981 340.405 142.412 337.676C143.661 336.273 144.482 336.421 146.233 336.347Z" fill="#FF8AAA"/>
<path d="M216.786 325.477C221.4 326.872 220.662 332.429 218.694 335.68C217.389 337.834 216.229 338.938 214.254 340.428C213.472 340.583 213.453 340.634 212.655 340.428C211.8 339.837 211.465 338.847 210.988 337.872C211.6 332.123 211.626 328.666 216.786 325.477Z" fill="#FF8AAA"/>
<path d="M194.411 347.701C196.527 346.407 200.469 347.27 202.325 349.175C204.485 351.391 201.802 354.233 199.913 355.419C196.155 357.779 194.237 358.317 192.653 353.999C191.6 351.129 191.784 349.306 194.411 347.701Z" fill="#FF8AAA"/>
<path d="M180.508 352.189C182.849 351.151 184.677 352.918 186.324 354.681C187.02 355.425 187.458 356.599 187.323 357.611C186.964 360.315 185.945 361.125 183.656 362.232C177.847 365.041 174.802 354.718 180.508 352.189Z" fill="#FF8AAA"/>
<path d="M98.4992 258.834C101.761 258.689 101.502 260.797 101.894 263.539C100.392 265.326 99.1695 266.777 97.3269 268.221L96.5428 268.19C92.7041 266.072 94.5396 260.133 98.4992 258.834Z" fill="#FF8AAA"/>
<path d="M108.883 313.99C113.079 314.344 116.343 318.942 112.753 322.274C109.442 322.231 108.257 319.632 107.271 316.925C107.846 315.53 107.957 315.212 108.883 313.99Z" fill="#FF8AAA"/>
<path d="M98.1165 285.761C103.239 286.076 100.45 292.718 97.9592 294.78C95.6934 294.302 94.7385 289.925 95.5789 288.047C96.2278 286.593 96.8378 286.43 98.1165 285.761Z" fill="#FF8AAA"/>
</svg>
