<svg width="400" height="400" viewBox="0 0 400 400" fill="none" xmlns="http://www.w3.org/2000/svg">
<path fill-rule="evenodd" clip-rule="evenodd" d="M178.513 85.9331C195.438 95.9271 204.003 110.582 199.157 129.799C195.663 143.649 185.938 156.053 171.088 158.351C171.725 159.716 173.631 163.145 174.676 168.223C175.765 173.512 175.934 180.617 172.891 189.242C180.132 188.431 186.467 190.431 191.808 194.821C197.255 199.298 201.645 206.24 204.946 215.156C223.402 202.538 250.25 208.869 259.613 234.965C263.526 245.869 262.626 258.689 257.006 268.929C251.941 278.158 243.256 285.465 232.184 289.953C238.941 302.424 235.196 314.794 226.852 325.453C218.79 335.751 202.191 341.729 189.458 337.931C187.642 342.93 185.281 348.659 181.643 352.618C167.635 367.856 145.905 372.546 128.775 358.179L128.757 358.163C113.135 343.743 111.902 315.692 129.419 302.197C137.413 296.039 148.539 293.599 161.203 295.128C161.444 288.155 166.06 279.441 174.017 273.185C180.241 268.291 183.918 266.384 189.455 265.178C188.102 262.693 187.281 260.417 186.383 257.772C172.518 266.908 146.604 260.981 136.829 248.048C128.706 237.3 130.081 222.387 133.408 210.134C115.834 207.325 103.552 194.339 99.4542 179.456C95.31 164.404 99.5294 147.373 115.12 136.947C118.893 134.424 122.167 132.142 126.923 131.802C124.705 126.714 124.316 121.489 124.711 117.077C126.947 92.1045 154.806 71.9349 178.513 85.9331Z" fill="#EB3849"/>
<path fill-rule="evenodd" clip-rule="evenodd" d="M270.866 104.589C283.712 89.3233 304.353 85.4856 320.175 96.9054C330.318 104.227 335.345 113.461 336.045 123.239C337.183 139.147 327.251 155.495 314.061 164.052C318.915 172.465 320.113 184.532 317.733 193.86L317.732 193.859C310.708 215.228 284.861 231.018 259.398 217.564C247.365 211.206 234.885 197.501 237.066 182.737C218.833 180.711 206.002 167.377 201.575 152.286C195.421 131.307 205.636 102.669 233.163 99.6526C245.084 98.3464 257.802 102.063 266.625 110.324C267.668 108.421 269.428 105.932 270.86 104.583L270.866 104.589Z" fill="#EB3849"/>
<path d="M215.959 333.171C216.22 332.384 215.941 330.466 216.632 329.57C218.362 327.323 221.294 325.006 224.027 324.189C224.949 323.915 225.806 324.618 226.451 325.141C226.613 326.676 226.659 327.935 226.707 329.473C224.619 333.465 219.657 338.46 215.959 333.171Z" fill="#3E1500"/>
<path d="M154.413 349.815C157.103 349.937 159.508 350.922 160.253 353.769C160.639 355.269 160.399 356.861 159.587 358.18C158.243 360.409 156.511 361.092 154.183 361.685C151.429 361.036 148.746 360.371 148.361 356.909C147.962 353.315 151.061 350.488 154.413 349.815Z" fill="#3E1500"/>
<path d="M249.911 256.6C251.916 256.402 253.695 256.846 254.502 258.975C255.136 260.653 254.644 263.031 253.86 264.605C252.639 267.051 251.692 267.546 249.258 268.384C248.73 268.221 248.208 268.051 247.685 267.876C240.581 265.46 244.609 258.897 249.911 256.6Z" fill="#3E1500"/>
<path d="M122.076 119.868C122.185 119.371 122.304 118.878 122.433 118.386C122.983 116.303 123.616 114.944 125.49 113.834C130.941 116.473 130.545 116.586 129.424 121.72C128.758 124.767 130.37 127.413 125.332 126.34C123.827 124.454 122.641 122.214 122.076 119.868Z" fill="#3E1500"/>
<path d="M128.633 178.473C135.871 179.402 138.788 187.022 132.814 190.402C126.057 190.513 122.038 181.85 128.633 178.473Z" fill="#3E1500"/>
<path d="M291.887 219.89C291.344 218.53 292.108 216.786 292.981 215.723C293.826 214.685 295.08 214.063 296.42 214.017C298.113 213.961 299.303 215.076 300.488 216.152C300.991 216.989 301.536 217.657 301.245 218.634C299.78 223.56 294.362 224.842 291.887 219.89Z" fill="#3E1500"/>
<path d="M228.502 155.361C229.035 155.347 229.568 155.376 230.096 155.445C236.06 156.243 238.116 162.848 233.037 166.059C226.652 166.024 222.109 158.485 228.502 155.361Z" fill="#3E1500"/>
<path d="M323.53 127.891C326.578 127.797 329.451 130.754 328.71 133.841C328.131 136.244 327.043 137.199 325.175 138.552C318.873 139.031 317.814 131.615 323.53 127.891Z" fill="#3E1500"/>
<path d="M75.0632 228.842C83.5411 220.916 95.1245 219.736 106.151 219.705C135.253 219.618 149.135 257.866 131.152 280.873C122.801 291.558 103.215 292.788 90.8518 289.259C61.4763 280.873 54.6087 247.964 75.0632 228.842Z" fill="#EB3849"/>
<path d="M68.1441 271.46C74.2845 272.5 75.1827 277.155 74.4066 279.881C72.7258 285.784 60.4624 273.094 68.1441 271.46Z" fill="#3E1500"/>
<path d="M271.445 105C272.696 104.258 276.549 100.411 277.734 99.2261C267.054 92.3889 250.935 81.2993 243.05 63.9165C241.88 51.2739 243.05 33.6505 238.395 33.0804C233.184 32.4422 234.132 38.0678 234.695 43.2027C239.136 83.7597 226.933 94.6337 198.279 108.105C198.02 109.647 199.09 114.638 199.706 116.026C211.521 112.061 222.893 104.064 229.923 95.123C224.923 114.724 215.67 145.37 205.33 153.301C196.281 160.242 184.932 165.836 173.631 168.006C173.209 168.891 173.811 174.649 174.535 175.478C183.3 173.605 191.334 171.88 203.406 163.112C195.496 176.304 187.817 196.261 177.041 207.731C162.998 222.671 145.738 229.441 126.28 234.169C125.941 236.04 129.495 242.638 132.896 242.42C147.322 237.562 154.875 234.169 169.087 223.857C149.799 256.343 148.144 286.274 148.251 296.373C149.947 296.624 154.419 296.162 156.178 295.835C156.178 280.708 159.443 264.972 165.027 250.252C168.072 261.419 170.417 266.028 174.329 273.584C175.445 272.988 179.411 270.097 180.387 269.249C174.535 257.866 171.625 250.76 170.654 239.641C177.902 221.194 188.706 204.76 198.5 187.681C198.587 197.392 200.841 207.582 204.536 216.571C206.195 215.563 209.37 213.548 211.068 212.952C206.65 202.538 204.312 187.979 205.33 177.238C210.203 164.976 220.534 144.845 225.928 134.581C227.969 143.271 236.58 155.875 242.562 162.653C245.227 158.885 246.242 157.362 247.884 156.103C239.136 148.732 232.893 135.674 229.408 125.428C231.598 117.159 234.849 107.895 236.628 99.5312C238.083 94.8397 241.72 79.2262 241.88 74.5637C249.428 87.6608 258.932 95.9421 271.206 104.952L271.445 105Z" fill="#E8C2A5"/>
</svg>
