<svg width="400" height="400" viewBox="0 0 400 400" fill="none" xmlns="http://www.w3.org/2000/svg">
<g clip-path="url(#clip0_90_487)">
<path d="M230.47 36.6876C241.945 39.4507 253.743 43.7507 264.637 48.3185C272.746 51.7646 280.626 55.7235 288.23 60.1719C313.284 74.6718 333.457 92.0985 346.029 118.599C350.816 128.689 353.754 138.866 357.304 149.304C358.073 153.082 359.644 157.553 360.221 161.165C361.429 168.731 362.729 180.131 362.666 187.732C363.677 195.828 362.682 201.053 362.015 208.731C359.416 238.653 346.602 271.39 324.797 292.656C301.139 316.426 279.444 337.229 247.99 349.733C243.369 351.571 234.718 352.426 231.219 356.208C226.424 361.654 209.175 365.246 201.926 365.816C189.7 366.771 174.185 365.464 162.984 359.931C159.497 358.209 156.401 355.013 153.425 352.579C149.964 352.267 149.182 352.059 146.206 350.324C142.795 349.465 137.061 348.302 133.995 346.934C114.922 338.41 96.4248 324.137 80.9915 310.107C73.9893 303.738 65.5395 295.741 62.8946 286.443C57.7152 276.66 52.7367 268.302 49.7872 257.568C48.5171 252.944 46.0281 247.994 44.8037 243.27C35.6887 208.099 32.0818 173.301 46.4172 138.558C51.8127 125.483 58.416 112.224 66.6208 100.683C71.2415 94.1829 76.8362 88.884 82.579 83.4697C90.2763 76.212 98.7728 69.4976 107.456 63.4596C141.589 39.7275 189.198 26.7503 230.47 36.6876Z" fill="#4F0D36"/>
<path d="M230.471 36.6877C241.946 39.4509 253.744 43.7508 264.638 48.3187C272.747 51.7647 280.627 55.7236 288.231 60.172C313.285 74.672 333.458 92.0986 346.03 118.599C350.817 128.689 353.755 138.866 357.305 149.304C358.074 153.083 359.644 157.553 360.222 161.165C361.43 168.731 362.73 180.132 362.667 187.732C363.678 195.828 362.682 201.053 362.016 208.731C359.417 238.653 346.603 271.39 324.798 292.656C314.334 302.861 304.881 312.909 291.752 323.412C298.054 315.009 302.256 309.758 300.155 302.931C298.054 296.104 294.828 283.5 297.529 277.198C302.36 265.926 317.485 256.192 314.334 245.164C313.266 241.424 304.881 240.437 298.054 233.61C288.601 224.157 292.877 211.188 289.652 209.978C281.249 206.827 269.696 211.468 259.718 206.827C237.136 196.324 254.991 162.189 249.74 155.887C243.68 148.615 221.896 151.673 215.605 144.333C203.001 129.629 210.151 120.932 207.202 110.198C205.932 105.574 179.369 113.349 163.614 110.198C148.303 107.136 147.859 97.0692 141.557 94.4434C135.256 91.8176 116.35 101.796 99.5448 99.695C91.6312 98.7058 86.9411 90.7673 82.5801 83.4698C90.2773 76.2121 98.7738 69.4977 107.457 63.4597C141.59 39.7277 189.199 26.7504 230.471 36.6877Z" fill="#831957"/>
<path d="M187.203 120.11C190.526 119.471 194.825 118.323 198.184 117.521C196.386 127.443 196.336 130.725 199.403 140.607C199.437 141.394 202.433 145.653 203.15 146.682C208.05 153.713 216.348 157.399 224.303 159.783C225.658 160.188 228.204 160.981 229.496 161.025C233.603 161.352 237.371 161.389 241.487 161.483C240.817 162.356 238.401 165.066 237.661 165.865C228.055 189.879 226.107 207.877 251.68 215.584C254.429 217.286 257.945 219.131 261.112 219.959C256.884 224.176 252.394 228.049 248.287 232.161C244.06 236.399 239.716 242.354 236.144 247.059C225.713 260.805 218.323 274.273 214.545 291.186C213.931 293.937 211.083 303.645 211.307 306.252C212.006 314.387 217.303 324.964 220.611 332.437C221.78 335.081 223.113 338.342 224.403 340.669C226.295 344.381 228.372 348.079 229.953 351.917C230.609 353.514 230.735 354.743 231.219 356.208C226.424 361.654 209.176 365.246 201.926 365.816C189.7 366.772 174.186 365.464 162.984 359.931C156.905 356.928 150.409 350.436 149.11 343.512C146.323 328.656 146.808 307.657 142.936 293.444C132.519 275.536 115.938 260.774 97.7137 251.114C95.0764 249.714 90.9891 247.697 88.2 246.878C88.6655 244.827 88.7994 240.518 88.8073 238.407C88.5802 237.57 88.351 234.051 88.2367 233.014C87.9427 230.344 87.5714 228.595 86.9375 226.019C92.5887 226.113 99.222 225.313 104.83 224.425C115.174 222.792 124.036 217.493 130.773 209.508C132.086 207.953 133.532 205.627 134.743 203.857C136.017 201.659 137.29 199.769 138.537 197.479C144.359 189.369 141.254 173.153 147.457 166.052C149.451 164.447 152.549 163.552 154.828 162.419C162.056 158.826 169.222 154.549 174.71 148.406C182.105 140.126 187.215 131.334 187.203 120.11Z" fill="#ED74BF"/>
<path d="M239.362 164.14C232.981 180.454 232.384 197.997 246.205 211.173C247.846 212.725 250.343 214.287 251.679 215.584C249.896 217.834 243.912 222.398 240.974 225.804C225.147 244.155 209.189 266.666 206.419 291.409C202.824 276.426 199.771 261.317 197.265 246.111C196.439 241.115 195.26 234.442 195.199 229.482C195.168 226.893 198.596 219.854 199.78 217.036C209.73 193.359 220.457 180.916 239.362 164.14Z" fill="#831957"/>
<path d="M86.9375 226.019C92.5887 226.113 99.222 225.313 104.83 224.425C115.174 222.792 124.036 217.493 130.773 209.508C132.086 207.954 133.532 205.627 134.743 203.857C138.596 207.113 146.323 217.057 147.283 222.264C147.581 223.879 146.55 228.151 146.316 230.065C145.942 233.114 145.636 236.165 145.415 239.256C144.316 253.114 143.914 267.018 144.212 280.919C134.132 264.671 107.232 243.751 88.8073 238.407C88.5802 237.57 88.351 234.051 88.2367 233.014C87.9427 230.344 87.5714 228.595 86.9375 226.019Z" fill="#831957"/>
<path d="M199.403 140.607C199.437 141.394 202.433 145.653 203.15 146.682C208.05 153.713 216.348 157.399 224.303 159.783C225.658 160.188 228.204 160.981 229.496 161.025C227.818 161.182 224.572 165.242 223.097 166.584C213.24 175.557 205.5 186.31 199.415 198.136C197.131 202.576 195.056 206.588 193.623 211.399C193.985 205.01 193.41 198.115 193.623 191.671C194.085 177.685 195.192 163.247 197.632 149.469C198.054 147.08 198.728 142.795 199.403 140.607Z" fill="#831957"/>
<path d="M138.537 197.479C144.359 189.37 141.255 173.153 147.458 166.052C149.452 164.447 152.549 163.552 154.829 162.419C157.127 161.277 161.514 158.513 163.744 157.462C158.687 171.153 153.97 184.572 151.465 198.986C150.759 203.046 149.543 207.231 149.212 211.346C146.656 206.785 142.455 200.898 138.537 197.479Z" fill="#831957"/>
<path d="M201.757 33.7714C204.559 33.575 207.067 33.7268 209.865 33.8429C216.727 34.514 223.753 35.0701 230.47 36.6876C241.945 39.4507 253.743 43.7507 264.637 48.3185C272.746 51.7646 280.626 55.7235 288.23 60.1719C290.664 61.5806 294.734 63.8422 296.929 65.4413C299.629 67.135 301.713 68.5784 303.985 70.2124C323.319 87.2363 344.233 105.765 351.454 131.585C353.72 138.031 355.272 143.329 357.304 149.304C358.073 153.082 359.644 157.553 360.221 161.165C361.429 168.731 362.711 180.321 362.648 187.921C364.223 206.302 362.666 228.883 345.842 264.069C343.603 250.276 344.067 232.933 339.207 219.326C329.037 209.978 310.437 200.017 299.269 196.6C286.17 192.595 273.371 190.547 255.568 192.152C254.297 190.413 254.615 186.787 256.151 185.569C263.254 179.948 279.13 182.393 287.668 184.034C301.133 186.662 326.438 195.786 336.145 205.816C334.607 198.695 330.597 184.916 327.32 178.458C319.611 163.933 309.063 150.142 298.715 137.411C295.396 133.331 273.857 128.647 267.935 127.975C252.921 126.272 238.829 130.919 224.282 132.704C220.872 131.511 222.522 127.48 225.494 126.131C238.244 120.341 254.006 117.991 267.975 118.341C272.089 118.445 277.611 120.072 281.694 121.073L281.813 120.903C280.791 119.693 277.898 117.348 276.577 116.162C264.023 104.817 250.408 94.7073 235.919 85.9715C233.267 84.4013 226.842 80.2394 224.128 80.4359C207 81.6749 191.62 84.6002 175.401 90.6016C170.426 93.105 165.794 96.34 160.827 98.8361C159.785 99.3591 158.235 98.8836 157.83 97.5828C158.051 96.3899 158.658 95.5163 159.517 94.6666C169.337 84.9533 181.167 81.3355 194.105 77.5275C201.352 75.3941 207.399 74.1261 215.05 73.8391C201.365 68.084 188.915 63.247 174.253 61.1358C161.096 59.2415 147.929 57.7172 134.903 60.7868C133.764 61.0381 132.645 61.4451 131.635 60.8005V60.1075C132.083 59.3996 132.424 59.0801 133.173 58.6815C142.847 53.5359 154.535 50.9043 165.481 50.0463C180.346 48.8813 198.678 52.3016 212.978 56.4314C208.482 50.3942 203.619 41.1417 201.757 33.7714Z" fill="#ED74BF"/>
<path d="M209.865 33.8429C216.727 34.514 223.753 35.0702 230.471 36.6876C241.946 39.4508 253.743 43.7507 264.638 48.3186C272.746 51.7646 280.626 55.7235 288.23 60.1719C290.664 61.5806 294.734 63.8422 296.929 65.4413C295.858 76.3024 294.083 92.7035 297.78 103.228C288.063 92.8557 274.333 85.2268 262.093 78.112C251.587 72.0044 234.951 68.0143 226.354 59.736C220.61 54.2056 215.584 47.6931 212.331 40.3808C211.456 38.4306 210.791 35.5423 209.865 33.8429Z" fill="#831957"/>
<path d="M303.986 70.2128C309.608 74.4874 315.602 78.7113 320.762 83.0624C335.096 95.1471 346.217 113.5 351.455 131.585C351.282 133.725 350.084 137.23 349.541 139.441C348.033 145.593 346.408 152.544 346.721 158.888C342.01 147.337 323.587 128.608 315.243 119.332C313.617 117.524 308.174 113.03 307.363 111.524C302.807 103.056 302.313 78.8879 303.986 70.2128Z" fill="#831957"/>
<path d="M357.304 149.304C358.074 153.082 359.644 157.553 360.222 161.165C361.429 168.731 362.729 180.131 362.666 187.732C361.159 184.893 357.535 178.503 356.608 175.824C354.484 169.683 355.661 155.463 357.304 149.304Z" fill="#831957"/>
<path d="M74.0048 91.853C75.3534 93.7559 76.0209 94.8887 77.1274 96.9496C85.6463 108.721 99.1211 112.077 113.163 110.172C121.046 109.322 130.528 105.997 138.352 103.555C139.33 104.771 141.553 107.75 142.527 108.632C155.29 120.184 164.138 121.254 181.077 121.254C181.539 124.355 175.42 133.142 173.358 135.964C167.428 144.081 158.116 149.694 149.292 154.205C146.553 155.605 141.639 157.315 139.94 159.547C134.194 167.098 135.347 176.713 133.232 185.414C131.775 191.406 129.979 194.344 126.691 199.039C118.844 210.243 110.732 214.778 97.5757 216.802C92.086 217.645 81.0876 217.38 77.5068 219.538C76.4103 221.65 79.3987 228.915 79.7695 231.78C80.422 236.821 80.7055 238.21 80.0265 243.005C78.451 254.131 71.4286 256.441 67.1373 265.45C64.9794 269.98 64.391 276.626 63.5959 281.583C63.4145 282.715 63.1884 285.543 62.8951 286.443C57.7157 276.66 52.7372 268.302 49.7877 257.568C48.5176 252.944 46.0286 247.994 44.8042 243.27C43.861 239.631 42.9943 235.976 42.097 232.334C41.5963 230.199 41.0722 228.07 40.525 225.948C39.2974 221.828 37.8005 209.23 37.3396 204.745C36.4469 189.237 36.6265 161.603 43.6263 147.378C44.5984 144.654 45.3281 141.199 46.4178 138.558C51.8132 125.482 58.4166 112.224 66.6214 100.683C68.5232 98.0076 71.7605 94.8422 74.0048 91.853Z" fill="#831957"/>
<path d="M74.0048 91.853C75.3534 93.7559 76.0209 94.8887 77.1274 96.9496C78.8205 99.2892 79.9835 100.581 82.145 102.524C82.6539 102.982 84.108 104.111 84.4397 104.473C84.6991 104.929 90.1802 108.133 90.87 108.328C99.1228 110.17 104.54 111.342 113.163 110.172C106.551 114.589 99.5219 119.049 93.3303 123.947C107.622 121.453 140.511 123.065 154.754 126.982C156.266 128.729 156.628 129.894 157.533 132.011C154.948 138.385 151.214 135.685 146.111 134.27C128.715 129.448 110.1 129.719 92.2459 131.096C89.9 131.441 85.2886 131.481 83.2964 132.803C79.1776 135.537 76.0605 139.59 72.6853 143.04C66.8847 148.969 62.9744 155.861 58.0279 162.263C77.6264 156.988 105.4 161.897 123.791 171.03C126.54 172.171 128.492 176.54 126.651 179.143C124.446 182.261 120.452 179.564 118.04 178.402C97.6736 168.586 75.6029 168.877 53.5662 169.611C47.5382 180.385 40.1848 192.541 37.3396 204.745C36.4469 189.237 36.6265 161.603 43.6263 147.378C44.5984 144.654 45.3281 141.199 46.4178 138.558C51.8132 125.482 58.4166 112.224 66.6214 100.683C68.5232 98.0076 71.7605 94.8422 74.0048 91.853Z" fill="#ED74BF"/>
<path d="M74.0048 91.853C75.3534 93.7559 76.0209 94.8887 77.1274 96.9496L77.0975 97.3897C76.8323 101.806 78.1827 116.329 74.3294 119.054C65.6981 125.156 57.7394 131.756 50.6684 139.698C48.5181 142.132 45.9783 145.384 42.1445 150.635C43.1166 147.911 45.3281 141.199 46.4178 138.558C51.8132 125.482 58.4166 112.224 66.6214 100.683C68.5232 98.0076 71.7606 94.8422 74.0048 91.853Z" fill="#831957"/>
<path d="M84.4396 104.473C84.699 104.929 90.1801 108.133 90.8699 108.328C88.1963 109.92 85.5834 111.464 82.9805 113.171C83.5227 110.303 83.8814 107.408 84.4396 104.473Z" fill="#831957"/>
<path d="M40.5254 225.948C42.4244 223.117 59.1083 220.268 62.5964 219.158C71.7646 226.187 62.6122 228.834 55.7479 229.078C51.1157 229.246 46.4484 230.9 42.0974 232.334C41.5967 230.199 41.0726 228.07 40.5254 225.948Z" fill="#ED74BF"/>
<path d="M261.111 219.959C264.078 220.353 267.093 220.786 270.102 220.733C272.888 220.683 277.79 219.531 280.227 219.667C281.773 226.783 280.927 233.007 278.67 237.806C275.738 244.032 270.642 246.451 266.444 251.405C268.547 259.545 271.331 267.858 266.73 275.368C261.823 283.377 257.679 282.765 250.093 285.779C240.352 289.597 232.668 297.341 228.92 307.108C224.572 318.187 224.403 327.613 224.403 340.669C223.112 338.342 221.78 335.081 220.61 332.437C217.302 324.964 212.006 314.387 211.307 306.252C212.978 284.025 225.144 261.555 236.143 247.059C245.95 234.135 252.235 228.812 261.111 219.959Z" fill="#831957"/>
<path d="M255.519 293.709C260.024 293.899 266.731 290.297 270.103 287.155C275.336 282.297 278.24 275.1 278.398 268.008C278.487 263.933 277.434 259.834 276.744 255.832C282.825 250.94 287.821 240.349 289.072 236.703C291.112 238.783 293.386 240.618 295.851 242.17C298.955 244.137 301.124 244.956 303.682 247.637C303.952 253.112 302.744 253.563 300.032 257.867C295.846 264.505 289.521 270.263 287.874 278.112C284.718 290.298 293.998 297.246 289.996 307.93C288.336 312.361 273.897 331.815 271.796 337.801C260.321 344.273 254.991 348.095 236.611 353.084C236.086 351.245 235.892 351.222 235.064 349.279C239.155 345.214 242.669 340.608 245.507 335.59C250.441 326.881 258.129 303.12 255.519 293.709Z" fill="#831957"/>
<path d="M78.4193 264.888C78.5987 265.28 78.7901 265.666 78.9933 266.046C82.9958 273.522 89.7257 276.904 97.4628 279.223C98.0521 283.261 98.7802 285.485 100.49 289.222C100.884 290.083 101.838 291.84 102.044 292.638C101.984 294.678 105.026 299.956 105.929 302.246C108.165 307.92 110.172 313.739 113.236 319.03C115.224 322.48 117.603 325.691 120.326 328.598C125.148 333.708 131.322 338.074 137.307 341.687C138.254 342.259 140.507 343.368 142.752 344.597C143.293 345.432 146.445 349.809 146.207 350.324C142.796 349.465 137.061 348.302 133.996 346.934C114.923 338.41 96.4254 324.137 80.9921 310.107C79.4996 308.75 77.9449 307.536 76.58 306.166C74.862 300.305 73.9026 293.165 73.5165 290.133C72.1558 279.446 71.9906 273.59 78.4193 264.888Z" fill="#831957"/>
<path d="M88.1997 246.878C90.9888 247.697 95.0761 249.714 97.7135 251.114C115.937 260.774 132.519 275.536 142.936 293.444C145.742 298.267 145.269 302.001 145.562 307.4C145.722 310.354 146.309 313.883 146.249 316.761C144.821 315.59 143.647 313.888 142.432 312.449C140.871 310.624 139.089 309.002 137.126 307.618C128.443 301.376 116.212 299.331 110.501 291.062C107.96 287.386 106.975 280.74 105.522 276.626C103.557 271.062 98.6167 272.264 94.2684 270.305C88.8037 267.845 86.5184 262.636 84.4375 257.389C86.4911 253.091 86.6904 250.268 88.1997 246.878Z" fill="#831957"/>
<path d="M255.519 293.709C258.129 303.12 250.441 326.881 245.507 335.59C242.669 340.608 239.155 345.214 235.064 349.279C230.2 341.086 233.191 321.534 236.599 312.628C240.111 303.448 246.665 297.572 255.519 293.709Z" fill="#ED74BF"/>
<path d="M102.043 292.638C105.948 298.656 109.382 301.634 116.011 305.031C122.794 308.508 132.502 310.756 136.973 317.491C141.412 325.029 138.554 336.62 142.751 344.597C120.55 334.965 115.423 322.827 113.235 319.03C109.852 313.186 101.834 299.7 102.043 292.638Z" fill="#ED74BF"/>
<path d="M325.01 292.449C322.647 290.101 317.576 288.602 314.341 287.62C311.939 286.893 306.317 285.979 306.598 282.276C306.75 280.289 308.418 279.624 310.25 279.595C317.492 279.477 325.123 281.475 330.613 286.493C329.563 287.701 325.997 291.396 325.01 292.449Z" fill="#ED74BF"/>
</g>
<defs>
<clipPath id="clip0_90_487">
<rect width="327.698" height="334" fill="white" transform="translate(36 33)"/>
</clipPath>
</defs>
</svg>
