<svg width="400" height="400" viewBox="0 0 400 400" fill="none" xmlns="http://www.w3.org/2000/svg">
<path d="M53.642 335.705L53.5529 335.487C51.8885 331.525 50.119 330.147 49.0209 324.93C47.7275 318.784 48.372 312.74 46.538 306.834C44.0684 298.879 39.0601 291.704 36.8561 283.759C32.1926 266.949 32.8452 243.273 38.9922 227.07C43.1238 216.179 50.3792 206.581 53.8433 195.533C58.908 179.38 59.9016 163.247 67.6149 147.754C73.1451 136.931 80.2205 126.434 88.7744 117.76C91.644 114.85 96.202 112.591 98.629 109.404C113.47 89.9203 126.573 66.0896 149.226 54.6885C157.497 50.5255 163.779 58.2278 170.528 57.2153C180.817 55.6718 191.5 48.7418 201.759 46.4714C205.523 45.6385 213.282 45.5564 217.148 46.884C232.063 54.8238 225.262 79.2143 219.466 91.221C214.041 102.507 208.368 112.884 206.467 125.41C205.447 132.131 206.759 138.925 207.402 145.649C209.784 170.579 201.552 193.927 183.329 211.306C177.141 217.207 170.446 222.754 165.484 229.864C160.808 236.35 160.69 245.836 158.929 253.494C155.284 269.341 145.548 282.342 133.914 293.316C125.362 301.384 115.091 309.256 108.016 318.569C101.161 327.594 95.3037 340.603 92.0732 351.4C91.6807 352.482 91.247 353.886 90.0817 354.168C78.8792 356.87 57.8653 344.831 53.642 335.705Z" fill="#A7001B"/>
<path d="M346.991 64.7122L347.08 64.9302C348.744 68.8925 350.514 70.2699 351.612 75.4873C352.905 81.6328 352.261 87.6773 354.095 93.5835C356.564 101.538 361.573 108.713 363.777 116.658C368.44 133.469 367.788 157.144 361.641 173.347C357.509 184.238 350.254 193.836 346.79 204.884C341.725 221.038 340.731 237.17 333.018 252.663C327.488 263.487 320.412 273.983 311.858 282.657C308.989 285.567 304.431 287.826 302.004 291.013C287.163 310.497 274.059 334.328 251.407 345.729C243.136 349.892 236.854 342.189 230.104 343.202C219.815 344.745 209.133 351.675 198.874 353.946C195.11 354.779 187.351 354.861 183.485 353.533C168.569 345.593 175.371 321.203 181.167 309.196C186.592 297.91 192.265 287.533 194.166 275.007C195.186 268.286 193.874 261.492 193.231 254.768C190.849 229.838 199.081 206.49 217.304 189.111C223.492 183.21 230.186 177.663 235.149 170.553C239.825 164.067 239.943 154.581 241.704 146.923C245.349 131.077 255.085 118.075 266.719 107.101C275.271 99.0335 285.542 91.1616 292.617 81.8482C299.472 72.8228 305.329 59.8138 308.56 49.0173C308.952 47.935 309.386 46.5309 310.551 46.2491C321.754 43.5473 342.767 55.5857 346.991 64.7122Z" fill="#A7001B"/>
<path d="M129.049 141.026C134.754 133.467 138.979 129.154 145.679 122.574C151.168 117.184 154.879 112.737 161.04 107.62C167.26 102.454 172.558 95.9576 179.99 91.8347C181.287 90.9987 182.822 89.6278 184.459 90.148C185.432 91.2135 185.498 92.5269 184.43 93.5353C179.59 98.1047 176.177 104.071 171.971 108.992C162.63 119.918 154.995 131.601 148.006 144.146C145.83 148.053 143.236 152.188 141.462 156.35C153.005 149.735 164.853 143.593 175.536 135.624C177.439 134.204 182.32 129.478 184.428 129.514C188.544 132.33 179.02 139.789 176.957 141.919C165.243 154.011 149.157 165.259 133.813 172.014C128.259 181.469 124.461 193.463 120.147 203.591C118.853 206.628 118.116 210.082 116.755 213.156C122.041 211.009 127.296 208.105 132.228 205.225C142.961 198.955 154.035 192.855 163.329 184.514C165.287 182.757 169.163 177.571 171.839 179.228C172.875 179.869 170.08 183.97 168.941 185.359C161.919 193.924 152.851 201.47 144.445 208.678C137.802 214.31 130.794 219.497 123.466 224.205C120.65 226.012 113.175 230.384 110.905 232.139C109.255 235.59 107.185 245.422 106.277 249.514L99.8621 279.819C111.967 271.321 124.292 260.906 134.328 249.828C135.653 248.366 139.085 243.299 141.14 243.511C144.607 246.021 138.159 255.051 136.242 257.736C124.78 273.794 112.21 287.709 96.3985 299.59C94.1131 314.264 91.0523 328.318 91.9254 343.207C92.0804 345.855 91.8028 348.807 92.0719 351.4C91.6794 352.482 91.2457 353.886 90.0804 354.168C78.8778 356.87 57.864 344.831 53.6406 335.705C54.6474 326.496 54.8617 317.173 56.7073 307.935C57.5784 303.573 58.4533 299.031 59.3253 294.664C59.3703 285.415 54.8349 275.319 54.1703 265.711C53.0064 248.873 54.9179 236.217 62.7972 221.639C63.4049 220.514 65.0644 221.449 65.0644 223.03C65.0644 224.207 63.7314 231.98 63.5694 234.034C62.443 248.325 63.0336 256.616 67.0684 270.23C68.7531 259.644 73.4044 249.362 76.6114 239.197C77.4278 236.61 80.8377 230.362 80.927 228.167C81.2172 221.045 79.4913 212.923 79.4514 205.674C79.2685 186.071 83.9846 166.733 93.172 149.415C94.403 147.076 97.2726 140.676 99.9528 140.376C99.9528 140.376 100.462 140.362 100.536 140.593C101.352 143.125 96.5806 154.075 95.7993 157.603C94.2291 164.695 93.2002 171.509 92.2953 178.713C91.2372 187.135 92.1823 194.988 91.7203 203.371C95.8448 195.929 98.9817 187.997 103.134 180.559C105.401 176.498 107.817 172.467 110.278 168.52C111.757 166.149 113.661 163.701 114.748 161.129C117.563 153.497 115.967 146.583 119.939 136.124C122.841 128.484 133.268 102.207 141.47 99.8042C142.184 99.5949 142.843 99.6087 143.58 99.6635L144.032 100.035C144.185 102.957 138.769 111.223 137.411 114.538C134.11 122.589 130.492 132.482 129.049 141.026Z" fill="#E8E7E2"/>
<path d="M271.582 259.392C265.877 266.95 261.652 271.263 254.952 277.843C249.463 283.233 245.752 287.68 239.591 292.797C233.371 297.963 228.072 304.46 220.641 308.582C219.344 309.418 217.809 310.789 216.172 310.269C215.199 309.204 215.133 307.89 216.201 306.882C221.041 302.312 224.454 296.346 228.66 291.425C238.001 280.499 245.636 268.816 252.625 256.271C254.801 252.364 257.395 248.229 259.169 244.067C247.626 250.682 235.778 256.824 225.095 264.793C223.192 266.213 218.311 270.939 216.203 270.903C212.086 268.087 221.611 260.628 223.674 258.498C235.388 246.406 251.474 235.158 266.818 228.403C272.372 218.949 276.17 206.954 280.484 196.826C281.778 193.789 282.515 190.335 283.876 187.261C278.589 189.408 273.335 192.312 268.403 195.193C257.669 201.462 246.596 207.562 237.302 215.903C235.344 217.66 231.468 222.846 228.792 221.19C227.756 220.548 230.551 216.448 231.69 215.058C238.711 206.494 247.78 198.947 256.186 191.74C262.829 186.108 269.837 180.92 277.165 176.213C279.98 174.405 287.456 170.034 289.726 168.278C291.376 164.828 293.446 154.995 294.354 150.903L300.769 120.598C288.664 129.096 276.339 139.511 266.303 150.589C264.978 152.051 261.546 157.118 259.491 156.907C256.023 154.396 262.472 145.366 264.389 142.681C275.85 126.623 288.421 112.708 304.232 100.827C306.518 86.1535 309.579 72.0995 308.705 57.2104C308.55 54.5618 308.828 51.6101 308.559 49.0173C308.951 47.935 309.385 46.5309 310.55 46.2491C321.753 43.5473 342.767 55.5856 346.99 64.7121C345.983 73.9211 345.769 83.2443 343.924 92.4825C343.052 96.8437 342.178 101.386 341.306 105.753C341.261 115.002 345.796 125.098 346.461 134.706C347.624 151.544 345.713 164.201 337.834 178.778C337.226 179.903 335.566 178.968 335.566 177.387C335.566 176.211 336.9 168.437 337.061 166.383C338.188 152.092 337.597 143.801 333.562 130.188C331.878 140.773 327.226 151.055 324.019 161.22C323.203 163.807 319.793 170.055 319.704 172.25C319.414 179.372 321.14 187.494 321.179 194.743C321.362 214.346 316.646 233.684 307.459 251.002C306.228 253.342 303.358 259.741 300.678 260.041C300.678 260.041 300.169 260.055 300.095 259.824C299.279 257.292 304.05 246.342 304.832 242.814C306.402 235.722 307.431 228.908 308.336 221.704C309.394 213.282 308.449 205.429 308.911 197.046C304.786 204.488 301.649 212.42 297.497 219.858C295.23 223.919 292.813 227.95 290.353 231.897C288.874 234.268 286.969 236.716 285.883 239.288C283.068 246.92 284.663 253.834 280.691 264.293C277.79 271.934 267.363 298.21 259.161 300.613C258.447 300.822 257.788 300.808 257.051 300.754L256.599 300.382C256.445 297.46 261.861 289.194 263.22 285.879C266.521 277.828 270.139 267.935 271.582 259.392Z" fill="#E8E7E2"/>
</svg>
