<svg width="400" height="400" viewBox="0 0 400 400" fill="none" xmlns="http://www.w3.org/2000/svg">
<g clip-path="url(#clip0_90_362)">
<path d="M240.44 41.5002C242.862 30.9791 262.666 32.646 270.781 34.6817C279.843 36.956 290.458 42.9472 295.266 51.2292C297.376 55.0137 297.636 57.0545 298.036 61.2415C303.308 59.2205 311.671 60.1807 317.093 61.5532C331.388 65.1715 340.808 75.795 335.918 91.161C341.823 91.5485 351.926 95.493 355.993 100.157C361.001 105.881 363.506 113.372 362.951 120.956C362.383 128.731 358.148 136.444 352.338 141.506C350.328 143.257 343.503 148.544 341.146 147.787C332.293 144.943 323.963 141.604 314.871 139.29C297.448 134.855 280.451 134.228 262.95 138.694C259.112 139.614 251.583 142.476 249.052 142.772C249.314 142.319 249.306 141.994 249.501 141.5C249.341 140.357 249.698 140.516 248.819 139.471C246.622 137.141 245.303 136.297 242.501 134.688C241.236 134.753 240.543 134.48 239.293 134.688C250.008 110.88 253.817 76.3912 244.301 51.56C243.038 48.2652 241.255 44.922 240.44 41.5002Z" fill="#015734"/>
<path d="M242.561 134.302L242.798 134.09C246.7 130.579 254.811 118.801 257.214 113.998C263.986 100.469 267.033 83.2043 267.971 68.1983C268.111 65.8044 267.417 60.3216 270.463 60.3218C270.936 60.3218 271.491 61.3263 271.738 62.1765C275.176 73.949 269.006 106.085 263.003 116.679C261.199 119.865 258.683 122.671 256.984 125.895C273.108 114.98 289.053 105.29 301.418 89.782C303.046 87.7395 307.943 79.5916 309.631 81.4203C314.081 86.2442 288.838 110.578 283.308 114.542C278.518 117.975 272.606 121.432 267.808 125.018C272.431 124.215 276.968 122.881 281.716 122.069C293.303 120.19 304.988 118.967 316.713 118.408C318.979 118.28 339.171 117.5 339.171 119.591C339.171 122.069 324.821 121.666 317.801 122.425C304.511 123.862 291.391 125.338 278.328 128.263C271.078 129.886 263.823 131.489 256.969 134.476C254.209 135.678 251.359 137.819 248.819 139.472C246.622 137.141 245.363 135.91 242.561 134.302Z" fill="#92BF67"/>
<path d="M239.292 134.688C240.33 133.963 241.374 133.856 242.559 134.302C244.731 135.119 249.78 138.536 249.716 141.226C249.704 141.757 249.312 142.32 249.051 142.772C245.499 144.5 192.226 183.5 152.185 226.56C116.309 265.139 84.5319 307.254 60.8213 354.523C60.0801 356 59.339 362.138 56.904 365.52C55.8393 366.999 53.3827 366.836 52.1028 365.88C47.8392 362.697 34.8768 338.92 36.6049 334.145C52.9425 289.001 105.232 243.88 138.545 212.632C169.657 182.886 204.286 159.143 239.292 134.688Z" fill="#EB3849"/>
</g>
<defs>
<clipPath id="clip0_90_362">
<rect width="328" height="334" fill="white" transform="translate(36 33)"/>
</clipPath>
</defs>
</svg>
