<svg width="400" height="400" viewBox="0 0 400 400" fill="none" xmlns="http://www.w3.org/2000/svg">
<g clip-path="url(#clip0_90_1790)">
<path d="M109.457 42.8945C111.021 36.6836 115.07 36.6304 120.641 37.0733C121.32 37.1932 121.659 34.8869 124.188 35.0949C131.628 35.7068 124.453 71.7589 125.191 79.8746C130.314 67.6217 128.278 47.765 132.647 43.2754C135.827 40.0081 139.017 45.9797 139.016 48.7856C141.455 43.0623 142.216 39.5177 148.942 41.0845C157.563 43.0926 133.946 109.188 132.212 118.19C116.058 113.445 112.494 121.082 105.171 120.356C99.2564 74.6459 85.0003 38.3944 97.9723 38.3944C99.4785 38.3944 100.627 40.3495 101.045 41.85C104.874 55.5862 103.152 70.3488 107.22 84.0982C108.579 70.6373 106.124 56.1263 109.457 42.8945Z" fill="#80B44E"/>
<path d="M134.52 71.2025C134.99 70.4936 137.9 70.3331 137.922 71.8927C136.692 87.2654 131.697 102.07 130.823 117.518C123.407 113.835 116.563 115.13 109.439 119.046C108.93 116.698 105.178 98.4714 105.604 97.3459C108.864 88.737 112.626 105.887 113.227 107.844C112.639 101.41 112.353 95.1423 112.509 88.9009C112.575 86.287 113.067 72.3214 117.719 78.5286C119.208 80.5156 118.05 99.4657 120.08 101.782C120.814 100.895 121.461 89.4139 124.251 87.8758C125.676 87.0902 126.684 88.0231 127.105 89.2375C127.419 90.1428 126.613 98.1819 127.105 98.6798C128.445 89.9036 129.805 78.3138 134.52 71.2025Z" fill="#F2F6E4"/>
<path d="M204.943 36.1712C205.822 36.2284 206.54 36.9989 207.253 37.5167C214.749 42.9598 205.667 64.5671 208.965 67.6884C211.267 55.988 213.115 43.5536 215.129 36.7944C215.75 34.7092 219.017 33.5272 221.038 34.0713C227.148 35.7162 222.802 46.7401 221.534 51.1389C223.996 47.2561 228.069 48.2744 229.178 49.4083C230.636 47.5417 232.646 44.3817 235.552 45.6358C241.157 48.1494 238.496 52.9983 237.216 57.2486C232.151 74.0657 229.178 90.0244 222.606 108.737C210.597 104.28 198.326 105.333 192.853 113.534C190.361 105.119 184.387 63.8953 185.729 55.988C185.938 54.7569 186.597 53.1622 187.812 52.828C193.956 51.1389 195.275 55.8361 195.179 59.9871C196.77 58.7473 197.818 58.5187 199.725 57.8807C199.51 52.8772 198.03 35.7216 204.943 36.1712Z" fill="#80B44E"/>
<path d="M208.889 83.3688C210.885 76.8655 213.196 70.2644 216.473 64.2886C217.716 62.0224 219.591 58.9372 222.178 61.5237C222.662 62.7571 220.616 68.3444 220.166 69.8508C218.586 75.2975 217.975 80.8465 217.38 86.4605C218.729 82.4025 225.702 63.1374 228.391 70.5984C230.199 75.6158 220.944 93.0794 219.215 105.762C211.424 103.311 204.006 103.871 197.092 108.586C198.032 93.5885 187.85 71.1861 193.832 68.0894C198.176 65.8408 199.154 80.3088 199.56 83.9148C200.578 80.9015 199.453 73.5219 204.696 73.3333C208.236 74.5698 208.491 80.1457 208.889 83.3688Z" fill="#F2F6E4"/>
<path d="M281.522 62.7723C281.05 59.5953 278.689 34.9415 285.323 35.7664C293.749 37.5824 287.64 60.494 289.272 68.3775C291.713 67.1129 290.359 39.3089 297.792 40.0043C303.604 40.5481 300.246 50.2257 299.648 53.6991C302.797 54.6983 303.278 56.3268 304.35 59.3323C305.806 58.4347 306.213 56.0521 309.286 56.5737C311.274 56.9113 312.03 59.8424 311.778 61.489C309.425 76.8307 305.26 92.816 301.173 107.823C300.878 108.899 300.521 109.956 300.104 110.99C296.25 102.465 278.728 105.887 274.094 112.799C270.26 91.5519 259.528 62.9839 270.26 55.4808C274.072 52.8198 276.465 57.1156 277.648 59.9761C279.682 60.9781 280.071 61.1461 281.522 62.7723Z" fill="#80B44E"/>
<path d="M286.599 92.2931C287.462 88.5079 290.186 68.8325 293.75 69.1495C298.2 69.5453 294.441 87.1636 293.75 90.4134C295.277 87.4788 296.803 83.4051 298.841 83.9148C302.405 84.8058 297.828 102.949 297.765 107.405C292.991 105.474 283.391 106.907 278.707 108.91C278.043 103.667 269.379 79.5308 273.651 78.6391C276.894 77.9624 280.998 89.5832 281.235 90.4134C280.767 86.276 277.845 75.13 280.512 74.241C285.094 72.7136 286.075 87.0701 286.599 92.2931Z" fill="#F2F6E4"/>
<path d="M132.211 118.19C133.524 121.171 132.638 139.104 132.762 143.948C132.844 147.182 131.345 153.896 132.023 158.186C133.37 166.697 137.984 174.723 139.964 182.865C136.531 179.279 134.896 176.07 132.176 169.509C131.758 170.651 131.764 182.382 132.024 184.383C133.033 192.144 134.004 199.799 134.227 207.723C134.341 211.735 135.605 216.824 135.888 220.935C136.075 222.55 136.76 227.637 137.412 228.904C138.959 231.911 147.369 238.178 146.204 242.234C144.06 241.108 138.272 234.437 136.74 232.952C139.415 239.94 138.921 249.242 138.849 256.637C138.822 259.435 138.147 263.129 138.849 265.83C140.14 270.792 141.172 275.863 142.446 280.822C143.09 283.329 144.326 285.794 144.875 288.344C145.554 290.982 144.811 294.146 145.577 296.534C146.36 298.973 151.412 303.876 151.553 306.228C149.568 308.829 146.1 302.881 145.356 301.407C145.078 302.541 143.551 309.976 140.805 308.041C141.281 297.407 143.706 291.7 138.863 281.183C139.084 289.778 138.165 299.105 136.578 307.595C136.038 310.528 134.645 313.484 134.215 316.419C133.401 321.963 132.933 327.597 132.954 333.203C132.985 341.632 131.603 349.877 132.253 358.319C132.361 359.729 133.128 365.03 132.425 365.987C128.163 368.179 119.033 363.701 114.729 362.336C112.235 361.547 105.662 360.491 104.66 357.917C103.294 354.409 102.31 340.525 103.882 333.04C101.01 336.81 97.7297 354.684 92.3061 356.949L91.9489 356.725C91.5136 353.441 95.1412 347.352 96.3543 344.05C98.8061 337.38 99.6182 332.078 105.013 327.014C107.816 315.401 109.859 304.268 110.35 292.316C110.54 287.672 110.324 282.978 110.481 278.337C110.661 273.004 112.566 267.772 112.705 262.424C112.722 248.555 111.184 234.721 109.147 221.026C108.114 214.084 108.847 210.211 107.079 202.95C102.47 214.249 104.378 227.784 101.458 239.596C100.918 241.778 100.769 244.476 99.7169 246.477L99.3211 246.559C97.9133 244.545 98.2412 240.072 98.326 237.644C97.9154 238.362 96.2006 242.234 94.3103 241.108C92.5907 236.493 99.107 232.341 99.6948 228.894C100.796 222.437 100.664 216.119 102.04 209.498C103.397 202.971 106.947 198.874 105.906 192.153C104.909 185.715 104.614 179.005 104.019 172.518C103.108 164.452 103.525 156.899 103.323 148.847C100.084 151.726 95.8207 155.543 93.2452 158.999C92.1599 160.455 89.7206 168.385 87.8683 168.385C86.8195 167.039 87.7146 164.161 88.1474 162.596C87.2037 162.012 85.0265 160.674 86.2353 159.271C90.5439 154.275 96.8422 151.076 100.955 145.918C103.375 142.883 103.704 138.417 103.808 134.627C103.938 129.853 104.816 125.051 105.17 120.355C111.868 115.263 125.944 109.873 132.211 118.19Z" fill="#3E2519"/>
<path d="M222.606 108.737C223.417 114.667 223.733 120.373 224.192 126.323C229.511 134.32 229.049 142.47 230.695 149.292C232.126 155.222 235.478 161.328 238.312 166.745C233.349 164.003 234.372 163.489 231.212 160.135C230.771 160.987 231.461 163.835 229.511 164.855C227.641 164.131 229.072 156.148 228.546 154.159C226.687 147.12 225.834 139.717 223.922 132.72C222.606 157.741 217.066 173.433 218.539 193.451C220.4 196.428 226.078 203.672 226.438 206.903L226.201 207.324C223.031 206.969 220.172 200.635 218.4 198.161C218.386 211.572 215.503 227.843 218.367 240.974C219.605 246.645 219.067 249.929 221.541 255.665C222.739 258.442 225.609 261.176 225.402 262.877C223.413 264.206 220.313 258.99 219.587 257.551C217.883 254.171 216.577 250.108 216.039 246.355C214.032 263.633 211.186 285.183 209.527 302.664C209.415 303.838 215.27 319.191 216.397 321.668C217.702 322.324 226.231 324.369 225.629 326.11C223.456 327.157 221.407 326.378 218.983 325.82C219.148 327.564 222.786 331.001 222.454 333.218C217.536 336.023 212.093 317.476 209.924 313.57C210.363 326.103 210.369 338.495 210.592 351.013C210.644 353.917 214.736 361.137 214.204 362.479C209.527 360.847 208.203 353.394 207.674 350.776C202.134 355.747 193.9 362.479 190.423 360.847C181.228 356.532 185.169 337.663 185.077 326.228C184.962 311.982 184.552 297.746 185.016 283.487C185.203 277.77 184.635 271.184 185.468 265.586C184.217 267.503 181.711 272.537 178.941 272.202C177.265 269.896 182.147 263.979 183.42 261.739C184.713 259.471 185.64 257.014 186.167 254.458C186.947 250.734 187.589 245.406 187.749 241.615C188.469 224.586 192.786 208.075 191.711 190.936C191.25 183.571 191.17 175.954 190.711 168.584C185.408 179.829 188.488 193.053 182.758 204.285C182.179 205.42 180.826 208.154 179.33 207.366C178.572 205.187 181.372 197.966 182.412 195.711C181.008 197.079 178.57 201.174 176.715 198.477C176.017 195.34 182.675 191.588 183.027 190.261C184.066 186.354 184.03 181.203 184.77 176.902C186.167 166.745 189.831 166.006 189.906 160.746C190.064 149.635 191.039 138.57 191.695 127.496C191.891 122.743 191.951 118.243 192.854 113.534C197.012 102.753 216.12 98.4906 222.606 108.737Z" fill="#3E2519"/>
<path d="M300.104 110.99C303.151 122.61 302.237 124.894 303.151 131.506C307.337 136.233 314.115 137.375 315.039 144.77C311.035 141.849 306.058 139.198 302.998 135.576C302.91 153.185 303.022 171.185 301.44 188.71C301.023 193.346 300.447 198.401 300.183 203.017C299.346 219.2 299.867 229.918 300.959 251.554C301.025 252.865 303.454 257.798 304.016 259.415C305.053 262.39 305.631 267.323 308.021 269.641C309.663 271.227 314.726 272.648 314.981 275.079C314.372 275.593 314.159 275.613 313.331 275.542C310.696 275.29 314.234 278.416 314.075 279.936C313.21 281.433 312.083 280.977 311.203 279.666C308.787 276.066 306.257 272.564 304.197 268.755C303.189 266.887 302.934 264.236 302.374 263.485C304.951 279.936 305.926 303.031 305.926 310.615C305.926 315.402 306.842 317.916 309.037 322.027C311.384 326.419 313.423 331.869 313.423 336.309C309.037 335.433 306.86 322.112 306.05 322.424C304.835 329.43 307.191 337.678 304.159 344.335C302.084 348.393 299.001 351.379 296.899 355.501C294.992 359.23 293.265 364.333 289.658 366.43C282.548 370.564 279.711 345.217 279.17 343.595C276.416 349.216 274.878 352.586 273.455 358.759C273.297 359.437 272.65 361.45 272.088 361.888C269.032 361.256 270.571 357.541 270.571 356.822C268.861 356.901 264.356 359.015 264.827 355.885C266.184 353.994 269.585 353.085 271.747 351.812C273.475 348.818 277.179 341.652 278.417 338.508C277.569 333.485 276.599 328.262 276.436 323.168C275.807 303.433 278.187 283.851 277.279 264.114C276.728 252.124 275.571 240.004 274.17 228.075C273.134 229.128 272.821 229.48 271.938 230.646C270.705 232.27 268.643 238.855 266.492 238.919C264.356 235.118 271.884 226.701 273.608 223.788C273.152 212.903 273.442 202.076 273.345 191.198C273.31 187.026 273.552 180.917 273.236 176.856C271.843 178.506 269.018 181.594 268.241 183.487C265.909 189.177 266.869 194.15 262.149 198.731C262.091 194.041 262.643 193.623 263.432 189.322C262.287 190.376 261.319 191.56 259.996 192.201C259.053 192.129 258.967 191.015 259.145 190.196C259.596 188.153 262.77 186.204 263.924 184.663C264.815 183.471 265.741 181.453 266.643 180.176C268.264 177.877 272.839 172.561 273.17 169.829C274.074 162.31 272.566 153.782 272.378 146.378C272.145 137.364 270.865 118.536 274.094 112.799C278.131 105.626 297.571 101.332 300.104 110.99Z" fill="#3E2519"/>
</g>
<defs>
<clipPath id="clip0_90_1790">
<rect width="230.134" height="334" fill="white" transform="translate(85 33)"/>
</clipPath>
</defs>
</svg>
