<svg width="400" height="400" viewBox="0 0 400 400" fill="none" xmlns="http://www.w3.org/2000/svg">
<path d="M127.661 66.7942C136.798 53.6663 161.927 33.2167 175.074 53.1445L175.304 53.4893C175.349 53.5592 175.394 53.6294 175.438 53.6993C187.074 48.0311 200.301 53.1334 209.328 60.6422C220.047 58.0141 234.415 63.4399 241.337 71.9594C246.881 69.2395 254.616 69.7158 259.144 74.1771C270.683 66.3745 267.59 67.7167 281.694 67.8587C287.959 58.1765 297.772 51.3374 309.024 48.8106C320.9 46.2646 330.149 53.5558 334.151 64.2677C337.493 73.2198 337.807 78.5675 331.666 86.3725C341.604 95.0098 347.271 100.329 342.889 114.32C361.365 122.399 371.012 149.387 350.515 161.339C351.901 169.971 345.5 175.402 339.037 179.83C344.645 185.253 345.887 191.825 346.523 199.139C353.124 207.699 356.819 217.208 353.719 227.853C353.106 229.948 350.055 236.885 350.535 238.202C361.941 245.06 371.165 253.943 363.161 267.301C356.683 278.111 342.335 280.033 332.901 287.062C324.272 293.495 329.501 303.054 313.723 311.963C303.414 317.784 293.409 318.517 283.043 323.258C276.057 326.452 270.577 333.051 264.841 337.868C252.621 349.142 231.127 352.802 212.552 354.43C208.071 353.995 203.985 352.723 199.568 352.211C197.752 351.932 197.315 351.767 195.595 351.11C183.963 348.123 178.409 342.752 168.9 336.349C167.308 335.277 163.256 332.631 161.529 331.969C131.817 329.58 120.453 324.145 103.66 301.879C94.0901 300.066 81.3692 288.534 76.0368 280.666C59.2247 255.855 68.8095 231.709 60.9428 205.813C55.1641 186.79 31.156 183.223 33.5998 170.352C35.4341 160.692 46.1338 152.162 55.164 148.91C47.2016 138.909 43.3634 130.803 46.8365 117.923C32.8509 85.1377 66.5976 64.2573 81.3828 100.181C84.7411 96.4185 86.7861 96.2072 89.9719 93.0839C93.8557 89.276 95.281 82.4686 99.6747 78.1152C106.368 71.4832 117.609 64.2818 127.661 66.7942Z" fill="#015734"/>
<path d="M97.422 274.576C95.7448 269.722 94.6759 264.539 93.1635 259.598C86.7056 238.498 82.6227 216.358 72.8641 196.421C69.2353 189.286 64.9234 182.117 58.1901 177.503C56.3533 176.244 54.5904 175.262 52.7065 174.25C50.8737 173.265 51.5407 170.193 53.4338 170.015C57.1634 169.663 61.5968 172.616 64.6393 174.498C73.2603 180.119 79.2429 191.386 83.137 200.637C84.2618 203.31 85.728 206.792 86.5176 209.582C86.7196 210.296 86.6149 210.407 87.0371 210.357C88.2473 204.294 90.8223 189.979 94.9555 185.961C96.1344 195.842 93.6415 201.515 91.6896 210.855C89.8143 219.829 93.014 230.183 95.3742 238.817L102.737 264.988C103.635 268.165 105.082 272.276 105.616 275.389C106.951 266.56 112.797 263.363 119.356 258.205C124.942 253.812 131.062 249.449 135.734 244.064C139.761 239.445 142.801 228.944 148.409 226.833L148.812 226.986C149.414 228.342 148.051 231.811 147.519 233.219C143.985 243.071 137.619 249.852 129.883 256.703C119.022 266.322 104 271.155 110.765 288.499C117.438 305.607 125.648 310.802 139.656 320.946C138.527 317.84 138.293 312.126 138.67 308.754C140.043 296.474 150.509 285.673 158.716 277.219C163.056 272.75 169.709 264.376 174.736 261.251C173.235 264.331 171.312 268.82 169.332 271.426C165.922 275.92 162.029 280.278 158.152 284.45C148.932 294.374 139.419 305.093 144.093 319.646C145.199 323.09 147.462 325.761 150.708 327.352C151.796 327.884 157.014 330.568 161.529 331.969C159.656 332.522 157.32 332.725 155.528 333.441C143.82 338.123 132.112 339.278 121.21 331.541C107.727 321.971 105.069 307.156 102.048 292.005C101.118 287.338 100.424 282.968 96.5679 279.769C93.909 277.565 90.823 276.693 87.798 275.115C80.2101 271.118 75.3518 266.794 72.597 258.511C71.5261 255.292 70.7089 253.706 70.5802 250.04C70.5204 248.34 70.2264 247.162 71.0505 245.438L71.4868 245.279C73.3335 246.515 75.2013 253.587 76.082 255.957C79.4643 265.055 88.5954 271.053 97.422 274.576Z" fill="#80B44E"/>
<path d="M262.664 314.807C263.779 312.092 265.315 309.362 266.382 306.701C269.587 298.86 271.16 291.091 271.424 282.627C271.553 279.085 272.887 272.817 271.659 269.413C266.854 256.083 266.82 243.187 273.51 230.4C274.125 229.222 274.987 227.408 276.383 226.939C277.213 227.804 275.884 231.897 275.501 233.13C271.528 245.949 271.328 252.09 273.514 265.05C277.534 252.728 279.96 242.075 291.665 234.474C293.804 233.086 296.818 231.556 298.525 234.237C299.407 235.62 297.312 237.552 296.516 238.649C294.13 241.947 291.529 245.116 289.397 248.585C286.976 253.192 285.128 259.726 283.72 264.759C292.776 258.14 305.845 254.158 315.106 247.797C319.264 245.042 322.466 241.534 325.813 237.925C327.298 236.322 332.97 228.76 334.756 229.158C335.248 232.352 328.775 241.016 326.658 243.582C317.762 254.363 304.652 258.499 292.584 264.462C289.476 265.999 285.597 267.891 283.275 270.453L283.05 270.705C282.042 286.138 284.676 295.948 279.184 311.074C287.263 304.309 297.801 300.989 305.988 294.154C312.28 288.9 316.438 282.58 321.742 276.456C324.734 273 327.864 270.292 331.463 267.526C329.497 273.195 325.868 277.476 322.51 282.192C315.598 292.002 308.219 299.797 297.532 305.582C291.798 308.688 282.546 312.685 277.517 317.008C273.8 320.199 272.136 329.58 264.841 337.868C261.807 340.667 258.882 343.493 255.369 345.825C245.327 352.491 232.066 355.811 220.079 355.655C217.975 355.63 214.496 355.188 212.552 354.43C215.818 352.3 223.615 352.53 227.429 350.517C230.49 348.901 232.748 345.41 233.849 342.27C237.18 332.779 229.875 324.758 224.6 317.754C215.813 306.146 199.614 286.592 205.346 271.132C206.957 274.672 207.742 279.307 208.785 283.064C212.572 296.951 222.174 307.324 230.435 318.673C237.404 328.248 240.668 334.605 236.157 346.021C248.316 337.868 253.521 332.308 258.783 321.388C259.989 318.883 259.07 315.209 258.425 312.704C256.54 305.491 252.555 298.66 248.316 292.556C242.498 284.179 237.933 274.853 241.923 264.603C242.217 263.845 242.419 263.383 243.17 263.079C243.973 266.337 244.036 274.191 245.058 278.213C246.98 285.695 253.282 292.504 256.99 299.508C260.11 305.397 260.957 308.49 262.664 314.807Z" fill="#80B44E"/>
<path d="M195.595 351.11C197.203 348.812 199.686 345.329 198.9 342.359C197.502 337.073 192.736 332.794 189.864 328.397C185.583 321.843 175.275 303.529 180.461 296.402C180.833 296.503 180.907 296.437 181.047 296.881C184.176 306.773 187.409 316.716 193.37 325.368C199.661 334.501 207.112 340.983 199.567 352.211C197.752 351.932 197.314 351.767 195.595 351.11Z" fill="#80B44E"/>
<path d="M219.764 112.678C230.699 110.795 234.417 117.008 243.167 122.065C261.747 127.5 268.647 130.959 278.066 150.722C280.416 153.671 296.901 168.466 299.806 170.979C301.749 177.424 312.174 214.07 302.785 213.927C279.054 211 249.903 221.376 243.167 248.476C239.674 248.627 234.656 251.292 231.516 252.962C222.638 250.04 216.805 248.736 207.457 249.608C203.848 246.369 203 244.988 198.371 242.671C191.955 239.459 182.199 235.42 175.039 237.787C172.453 227.068 168.501 225.101 160.154 218.587C143.676 215.889 160.154 133.923 219.764 112.678Z" fill="#80B44E"/>
<path d="M102.492 173.433C108.825 161.361 102.352 163.842 113.535 155.663C135.925 139.11 131.816 125.524 176.284 110.701C208.893 133.429 177.84 147.304 172.825 154.18C156.52 177.896 157.509 192.719 149.549 214.11C148.271 213.977 147.007 213.777 145.739 213.564C139.676 212.554 133.519 213.053 127.406 212.979C124.514 210.492 121.604 208.326 118.14 206.668C116.615 205.938 114.515 205.339 113.098 204.623L112.778 204.459C111.527 204.096 108.679 203.668 107.292 203.419C110.463 194.965 111.244 189.503 108.135 180.976C106.172 177.51 105.63 176.415 102.492 173.433Z" fill="#80B44E"/>
<path d="M111.213 189.867C115.803 180.32 122.443 172.813 129.254 164.884C130.441 163.503 132.299 158.083 133.161 156.039C135.428 150.665 145.438 135.056 152.136 136.032C153.888 137.762 147.422 142.688 146.176 143.851C141.189 148.507 138.6 154.144 134.876 159.637C140.786 154.957 148.97 147.39 156.783 146.818C158.113 146.721 160.14 148.468 159.558 149.857C158.391 152.641 153.33 153.808 151.019 155.707C145.497 159.43 140.856 164.25 135.906 168.147C138.142 168.702 148.691 170.393 149.482 171.094C150.335 177.017 136.544 171.85 134.203 170.461L133.902 170.285C127.484 176.946 122.222 184.234 117.723 192.346C116.435 194.667 115.792 197.119 114.733 199.191C122.146 199.15 129.16 196.531 135.573 193.278C136.256 192.932 137.076 193.195 137.682 193.623C139.376 198.869 120.136 202.869 116.118 202.885C114.194 202.893 113.193 202.3 112.779 204.459C111.528 204.096 108.68 203.668 107.293 203.419C110.464 194.965 111.245 189.503 108.135 180.976C109.749 178.342 110.472 167.768 114.567 167.389C116.06 168.557 113.085 175.529 112.525 177.405C111.151 182.004 110.666 185.137 111.213 189.867Z" fill="#E8F09B"/>
<path d="M164.129 112.486C169.767 107.775 171.762 105.528 179.506 106.509C183.073 107.89 184.604 109.081 187.238 111.925C191.986 106.446 204.85 105.562 209.25 111.122C213.259 109.106 215.05 108.935 219.512 108.324C223.892 107.569 227.701 107.479 232.015 108.728C237.672 110.367 239.058 116.486 243.702 119.171C249.898 122.75 257.855 123.429 264.263 126.055C267.453 127.936 269.619 130.248 271.764 133.235C274.456 137.649 275.941 142.254 279.039 146.142C281.388 149.091 285.274 152.02 288.179 154.534C299.262 164.124 301.631 170.308 306.221 183.615C307.992 189.032 308.395 191.575 309.356 197.097C309.687 201.358 310.208 210.506 309.63 214.459C307.35 214.365 306.228 214.459 302.785 213.927C302.832 199.722 302.859 191.998 297.219 178.37C294.598 172.04 293.933 169.071 288.772 163.71C283.651 158.392 278.103 154.817 273.352 149.254C268.555 143.636 267.705 134.665 260.973 130.938C254.253 127.218 247.02 128.653 239.95 124.378C234.559 121.475 233.129 114.612 226.13 115.101C220.782 115.476 212.526 115.803 208.906 120.333C205.349 124.787 203.884 127.508 198.849 130.943C193.666 134.479 187.502 135.003 183.12 139.444C178.714 143.958 180.655 149.974 178.338 155.316C174.691 163.727 162.257 166.584 162.71 177.195C162.772 180.074 163.856 184.12 163.171 186.916C161.638 193.174 151.286 200.13 160.153 218.587C155.521 215.896 154.11 215.948 149.55 214.11C146.631 202.637 147.134 197.166 153.95 187.094C154.414 180.835 152.324 176.641 154.962 170.569C158.22 163.07 164.658 160.306 169.047 154.287C170.762 151.935 170.387 145.444 172.02 141.978C175.795 133.965 181.4 130.798 189.205 127.556C184.035 124.346 183.893 121.929 181.888 116.676C179.658 115.137 176.905 114.537 174.266 115.307C170.151 116.506 167.077 121.25 163.49 123.139C156.781 126.67 146.251 128.704 139.922 132.011C131.657 136.331 130.829 148.252 119.494 154.555C107.386 161.29 108.826 161.361 102.493 173.433C100.981 171.876 99.6229 170.754 97.8867 169.476L99.7425 165.173C102.402 160.544 103.427 159.604 107.624 156.344C111.055 153.943 119.788 148.053 122.002 144.985C125.408 140.156 127.812 133.391 132.77 129.79C138.234 125.82 145.121 122.513 151.286 119.898C156.621 117.635 160.003 116.597 164.129 112.486Z" fill="#E8F09B"/>
<path d="M198.276 113.515C199.993 113.24 202.471 113.961 204.235 114.364C201.209 116.223 197.174 125.092 193.764 124.974C193.328 124.449 189.351 118.6 189.183 118.198C187.846 115.002 196.47 113.74 198.276 113.515Z" fill="#80B44E"/>
<path d="M245.346 178.493C239.247 169.696 230.301 160.447 220.874 155.249C218.016 153.675 206.459 149.266 206.729 145.844C208.483 143.119 213.661 145.937 215.985 146.794C230.267 152.058 238.538 158.627 248.489 171.724C248.913 169.497 248.902 166.553 248.755 165.216C247.678 154.745 243.577 144.814 236.957 136.631C234.417 133.486 231.873 131.231 229.083 128.367C228.389 127.654 228.498 126.049 229.627 125.484C231.06 125.671 234.16 128.761 235.188 129.804C248.368 142.962 255.336 160.109 251.369 175.781C259.081 190.209 264.756 197.274 268.677 218.905C265.981 220.313 264.358 221.264 261.76 222.858C259.798 205.125 255.243 195.207 247.91 183.056C237.505 183.152 226.801 185.269 216.24 184.206C205.608 183.137 195.91 181.955 186.93 175.314C186.354 174.784 185.58 172.03 187.097 172.724C191.598 174.414 198.438 178.427 203.176 179.104C210.363 180.131 219.488 180.525 226.724 180.328C232.989 180.158 239.257 178.981 245.346 178.493Z" fill="#E8F09B"/>
<path d="M249.605 234.271C230.281 233.234 182.706 220.882 178.535 207.992L178.979 207.804C180.312 207.95 188.097 213.021 190.171 214.071C210.75 224.485 229.884 227.986 253.311 229.775C252.135 231.013 251.384 232.245 249.605 234.271Z" fill="#E8F09B"/>
<path d="M277.06 215.889C276.87 214.911 278.204 212.262 278.56 211.133C282.369 199.011 282.001 185.089 276.583 173.489C275.832 171.879 273.444 166.099 274.244 164.76C275.862 164.323 276.843 164.835 277.562 166.267C285.828 182.748 286.702 197.389 281.549 214.804C278.56 215.447 279.054 215.447 277.06 215.889Z" fill="#E8F09B"/>
<path d="M159.541 57.5349C164.756 61.3287 162.721 65.6677 163.31 71.347C163.727 75.3787 164.172 78.5875 165.26 82.5179C166.555 80.8583 168.359 78.4601 169.943 77.1423C174.504 73.3475 179.268 69.7795 183.782 65.9079C185.841 64.1418 188.796 61.7331 191.361 60.8695C191.715 61.1037 191.805 61.0488 191.857 61.4399C192.865 69.074 178.808 76.1796 173.873 80.4176C171.377 82.5607 169.477 85.3518 167.915 87.7636C169.231 94.6598 174.322 97.3125 175.774 104.432C182.193 94.8312 187.547 95.0869 194.304 87.7587C197.177 84.6181 199.709 81.1819 201.858 77.5082C202.886 75.7176 205.475 69.88 207.434 69.6194C209.334 71.7993 206.725 78.5008 205.594 80.7173C201.71 88.3291 196.416 94.5978 188.956 98.8578C185.342 100.922 182.094 103.177 179.506 106.509C171.762 105.528 169.767 107.775 164.129 112.486C158.498 111.69 148.06 116.056 142.801 116.517C133.715 117.294 125.29 114.563 117.991 109.012C116.639 107.983 114.463 105.169 114.324 103.476C115.387 102.705 126.428 108.243 128.406 109.069C139.445 113.677 149.677 109.849 160.606 107.558C162.085 107.248 166.403 106.678 169.445 106.678C168.679 103.24 163.436 95.9135 161.71 92.35C160.156 89.1396 154.968 88.4954 151.654 88.0037C139.586 86.2132 122.988 89.3528 113.62 79.9744C112.991 79.3447 112.655 77.797 113.656 77.1475C115.595 77.0139 118.737 78.9121 120.884 79.6859C122.941 80.4384 125.051 81.0364 127.197 81.4754C138.028 83.6104 147.944 82.0113 159.676 85.7174C156.834 80.9991 154.732 69.1565 155.69 63.5659C156.2 60.5928 157.22 59.1718 159.541 57.5349Z" fill="#80B44E"/>
<path d="M291.783 99.6839C295.99 88.9096 296.756 76.6752 305.368 68.2325C306.976 66.6576 311.058 62.8386 313.402 65.0153C313.496 65.5235 313.629 65.8095 313.236 66.2658C310.005 70.0167 307.362 73.3762 305.294 77.9425C302.453 84.2183 302.078 92.8833 299.128 98.9025C303.711 97.4891 308.422 97.2932 313.212 96.3253C315.702 95.8223 323.387 92.5708 324.519 92.5537C325.4 93.1041 324.946 94.1118 324.413 94.8549C321.248 99.2577 315.939 100.59 310.998 101.605C307.196 102.386 299.061 101.798 296.895 105.083C295.4 107.352 294.088 110.205 292.166 112.362C286.546 118.671 279.085 123.18 272.344 128.124C281.778 123.83 287.692 124.357 297.638 122.943C301.971 122.302 306.245 121.314 310.42 119.988C313.669 118.956 327.51 113.192 329.314 113.715C329.563 117.061 321.448 121.188 318.958 122.346C313.357 124.931 307.463 126.818 301.403 127.962C293.938 129.366 276.808 129.632 271.763 133.235C269.619 130.248 267.452 127.936 264.263 126.055C266.138 122.651 268.104 119.441 266.929 115.509C264.115 106.102 253.388 99.1989 252.682 89.2192C252.984 88.5805 252.682 83.2321 255.92 86.3621C257.472 88.6389 258.25 92.5933 259.559 94.9439C263.406 101.849 269.394 107.217 271.304 115.129C271.822 117.284 271.99 118.036 271.743 120.402C271.714 120.689 271.659 120.599 271.956 120.691C278.683 116.944 285.4 112.336 287.438 104.658C289.049 98.5986 284.258 94.1375 282.183 88.8489C280.617 84.7831 279.313 76.2411 282.828 73.0175L283.315 72.998C284.617 74.5442 283.955 80.9426 284.716 83.2321C286.899 89.8108 289.968 92.6849 291.783 99.6839Z" fill="#80B44E"/>
<path d="M61.2398 101.048C65.3117 103.313 65.5931 104.639 67.5826 108.833C71.8198 117.764 76.294 121.002 85.5059 124.187C83.3633 117.628 81.1259 109.207 87.295 104.133C87.4022 108.65 86.899 114.429 87.9104 118.604C89.2765 124.679 93.56 127.533 97.4817 131.622C99.3744 133.595 104.148 142.322 104.789 145.201C107.427 141.557 107.25 132.657 106.858 128.276C106.667 126.142 106.184 119.892 107.973 118.392L108.456 118.52C111.344 121.858 111.119 133.09 110.864 137.516C110.558 142.858 105.821 151.321 107.623 156.344C103.426 159.604 102.401 160.544 99.7417 165.173C98.38 163.299 96.9353 157.756 94.5301 154.78C88.0855 145.833 78.71 148.676 69.4783 147.504C66.9474 147.183 61.0404 146.232 61.7489 142.572L62.1788 142.328C80.1955 146.404 82.9792 138.338 98.4375 151.193C96.4078 146.668 95.9689 142.571 92.4265 138.538C89.0072 134.646 85.415 132.837 80.4196 131.538C73.8594 129.931 68.7945 135.071 62.2363 134.661C59.2535 134.475 52.0629 130.361 52.4295 127.212C55.0324 126.016 60.3438 129.828 63.1872 129.806C65.8328 129.786 69.4603 128.503 72.0031 127.67C65.8286 124.592 60.3731 115.769 58.9129 109.11C58.2713 106.184 59.5789 103.373 61.2398 101.048Z" fill="#80B44E"/>
<path d="M312.273 180.672C320.163 171.965 317.463 168.576 319.363 158.368C320.39 152.846 329.089 138.946 335.457 138.282C336.267 138.653 336.126 139.481 335.603 140.178C329.299 148.56 322.149 160.11 322.149 171.869C322.846 171.914 325.247 170.134 327.3 169.792C330.102 169.325 331.223 169.411 334.148 169.641C330.526 174.754 326.206 175.256 321.324 179.919C324.007 180.936 335.737 188.148 337.804 190.227C336.996 191.105 336.203 192.14 334.874 192.052C330.885 191.788 326.838 188.954 323.743 186.415C320.756 183.968 318.323 182.702 314.941 185.933C313.768 187.053 311.662 191.731 311.299 193.08C313.73 193.469 313.797 193.737 315.941 194.553C321.534 196.681 324.593 201.496 329.521 204.497C334.126 207.3 338.988 207.811 343.214 211.477L340.764 212.944C324.546 213.493 319.533 197.202 309.355 197.097C308.394 191.575 307.991 189.032 306.22 183.615C308.779 178.101 309.649 172.378 307.48 166.664C305.647 161.827 298.557 148.913 303.386 144.873L303.895 144.805C304.585 145.539 306 151.187 306.326 152.455C307.806 158.18 310.731 163.17 312.601 168.766C314.197 173.547 313.5 175.954 312.273 180.672Z" fill="#80B44E"/>
</svg>
