<svg width="863" height="120" viewBox="0 0 863 120" fill="none" xmlns="http://www.w3.org/2000/svg">
<path d="M818.665 76.6798H827.545C827.785 80.1198 829.065 82.9198 831.385 85.0798C833.785 87.2398 837.225 88.3198 841.705 88.3198C844.425 88.3198 846.545 87.9598 848.065 87.2398C849.665 86.5198 850.825 85.5598 851.545 84.3598C852.265 83.0798 852.625 81.6798 852.625 80.1598C852.625 78.3198 852.145 76.8798 851.185 75.8398C850.305 74.7198 849.065 73.7998 847.465 73.0798C845.945 72.3598 844.185 71.6798 842.185 71.0398C839.865 70.1598 837.465 69.2398 834.985 68.2798C832.585 67.2398 830.305 66.0398 828.145 64.6798C826.065 63.2398 824.385 61.5198 823.105 59.5198C821.825 57.4398 821.185 54.9598 821.185 52.0798C821.185 49.6798 821.665 47.4398 822.625 45.3598C823.585 43.1998 824.945 41.3598 826.705 39.8398C828.545 38.2398 830.665 36.9998 833.065 36.1198C835.545 35.2398 838.265 34.7998 841.225 34.7998C845.225 34.7998 848.585 35.5998 851.305 37.1998C854.105 38.7998 856.225 41.0798 857.665 44.0398C859.185 46.9198 859.985 50.2798 860.065 54.1198H851.785C851.225 50.5198 850.065 47.9198 848.305 46.3198C846.625 44.6398 844.185 43.7998 840.985 43.7998C837.705 43.7998 835.185 44.5198 833.425 45.9598C831.665 47.3998 830.785 49.3198 830.785 51.7198C830.785 53.4798 831.425 54.9598 832.705 56.1598C833.985 57.2798 835.625 58.3198 837.625 59.2798C839.705 60.1598 841.905 61.0798 844.225 62.0398C846.545 62.9998 848.785 63.9598 850.945 64.9198C853.105 65.8798 855.025 66.9998 856.705 68.2798C858.385 69.5598 859.705 71.1598 860.665 73.0798C861.705 74.9198 862.225 77.2398 862.225 80.0398C862.225 83.3998 861.425 86.3998 859.825 89.0398C858.305 91.5998 856.025 93.5998 852.985 95.0398C850.025 96.4798 846.385 97.1998 842.065 97.1998C838.145 97.1998 834.785 96.7198 831.985 95.7598C829.265 94.7198 826.985 93.3998 825.145 91.7998C823.305 90.1198 821.865 88.3598 820.825 86.5198C819.865 84.6798 819.225 82.8798 818.905 81.1198C818.585 79.3598 818.505 77.8798 818.665 76.6798Z" fill="url(#paint0_linear_251_16793)"/>
<path d="M778.455 86.5198C774.215 86.5198 770.175 85.5198 766.335 83.5198C762.575 81.4398 759.495 78.4798 757.095 74.6398C754.775 70.7998 753.615 66.1998 753.615 60.8398C753.615 55.4798 754.775 50.8798 757.095 47.0398C759.415 43.1198 762.455 40.1198 766.215 38.0398C769.975 35.8798 774.055 34.7998 778.455 34.7998C779.815 34.7998 781.095 34.9198 782.295 35.1598C783.575 35.3198 784.775 35.5998 785.895 35.9998H810.255V46.3198C806.815 46.3198 803.375 45.6798 799.935 44.3998C796.575 43.1198 793.695 41.7998 791.295 40.4398L790.815 39.9598C793.615 41.4798 795.895 43.2798 797.655 45.3598C799.495 47.4398 800.855 49.7998 801.735 52.4398C802.695 54.9998 803.175 57.7998 803.175 60.8398C803.175 66.1998 802.015 70.7998 799.695 74.6398C797.455 78.4798 794.455 81.4398 790.695 83.5198C786.935 85.5198 782.855 86.5198 778.455 86.5198ZM796.095 120V117.36C796.095 113.12 794.975 110.04 792.735 108.12C790.575 106.2 787.295 105.24 782.895 105.24H770.895C768.255 105.24 765.935 105 763.935 104.52C762.015 104.12 760.415 103.48 759.135 102.6C757.855 101.72 756.895 100.64 756.255 99.3598C755.615 98.0798 755.295 96.6398 755.295 95.0398C755.295 91.9998 756.215 89.7198 758.055 88.1998C759.895 86.5998 762.175 85.5998 764.895 85.1998C767.615 84.7998 770.215 84.7998 772.695 85.1998L778.455 86.5198C774.135 86.7598 770.775 87.1998 768.375 87.8398C766.055 88.4798 764.895 89.8398 764.895 91.9198C764.895 93.1198 765.335 94.1198 766.215 94.9198C767.175 95.6398 768.575 95.9998 770.415 95.9998H782.895C787.055 95.9998 790.855 96.5598 794.295 97.6798C797.735 98.8798 800.495 100.84 802.575 103.56C804.655 106.36 805.695 110.16 805.695 114.96V120H796.095ZM778.455 77.5198C781.095 77.5198 783.535 76.8798 785.775 75.5998C788.095 74.3198 789.975 72.4398 791.415 69.9598C792.855 67.4798 793.575 64.4398 793.575 60.8398C793.575 57.2398 792.855 54.1998 791.415 51.7198C790.055 49.1598 788.215 47.2398 785.895 45.9598C783.575 44.5998 781.095 43.9198 778.455 43.9198C775.815 43.9198 773.335 44.5998 771.015 45.9598C768.695 47.2398 766.815 49.1198 765.375 51.5998C763.935 54.0798 763.215 57.1598 763.215 60.8398C763.215 64.4398 763.935 67.4798 765.375 69.9598C766.815 72.4398 768.695 74.3198 771.015 75.5998C773.335 76.8798 775.815 77.5198 778.455 77.5198Z" fill="url(#paint1_linear_251_16793)"/>
<path d="M690.529 35.9998H700.129V95.9998H690.529V35.9998ZM720.769 34.7998C723.969 34.7998 726.849 35.2798 729.409 36.2398C731.969 37.1998 734.129 38.5998 735.889 40.4398C737.649 42.2798 739.009 44.5198 739.969 47.1598C740.929 49.7198 741.409 52.6398 741.409 55.9198V95.9998H731.809V58.3198C731.809 53.6798 730.729 50.1998 728.569 47.8798C726.409 45.5598 723.169 44.3998 718.849 44.3998C715.569 44.3998 712.529 45.2398 709.729 46.9198C706.929 48.5998 704.609 50.9198 702.769 53.8798C701.009 56.7598 699.929 60.1198 699.529 63.9598L699.409 56.9998C699.809 53.6398 700.609 50.5998 701.809 47.8798C703.089 45.1598 704.649 42.8398 706.489 40.9198C708.409 38.9198 710.569 37.3998 712.969 36.3598C715.449 35.3198 718.049 34.7998 720.769 34.7998Z" fill="url(#paint2_linear_251_16793)"/>
<path d="M675.574 12V23.64H663.094V12H675.574ZM664.534 36H674.134V96H664.534V36Z" fill="url(#paint3_linear_251_16793)"/>
<path d="M617.071 35.9999H652.351V44.9999H617.071V35.9999ZM629.911 20.3999H639.511V95.9999H629.911V20.3999Z" fill="url(#paint4_linear_251_16793)"/>
<path d="M575.632 97.1998C570.912 97.1998 566.552 95.8798 562.552 93.2398C558.632 90.5198 555.472 86.8398 553.072 82.1998C550.752 77.4798 549.592 72.1198 549.592 66.1198C549.592 60.1198 550.792 54.7598 553.192 50.0398C555.592 45.3198 558.832 41.5998 562.912 38.8798C567.072 36.1598 571.712 34.7998 576.832 34.7998C582.432 34.7998 586.672 36.2398 589.552 39.1198C592.512 41.9198 594.512 45.6798 595.552 50.3998C596.672 55.1198 597.232 60.3598 597.232 66.1198C597.232 69.1598 596.912 72.4798 596.272 76.0798C595.632 79.5998 594.512 82.9998 592.912 86.2798C591.392 89.4798 589.232 92.1198 586.432 94.1998C583.632 96.1998 580.032 97.1998 575.632 97.1998ZM578.032 88.0798C582.112 88.0798 585.472 87.0798 588.112 85.0798C590.832 83.0798 592.832 80.4398 594.112 77.1598C595.392 73.7998 596.032 70.1198 596.032 66.1198C596.032 61.7198 595.352 57.8798 593.992 54.5998C592.712 51.2398 590.712 48.6398 587.992 46.7998C585.352 44.8798 582.032 43.9198 578.032 43.9198C572.032 43.9198 567.392 46.0398 564.112 50.2798C560.832 54.4398 559.192 59.7198 559.192 66.1198C559.192 70.3598 559.992 74.1598 561.592 77.5198C563.272 80.7998 565.512 83.3998 568.312 85.3198C571.192 87.1598 574.432 88.0798 578.032 88.0798ZM596.032 35.9998H605.632V95.9998H596.872C596.872 95.9998 596.792 95.2798 596.632 93.8398C596.552 92.3998 596.432 90.7198 596.272 88.7998C596.112 86.8798 596.032 85.2798 596.032 83.9998V35.9998Z" fill="url(#paint5_linear_251_16793)"/>
<path d="M531.213 76.6798H540.213C539.573 80.5998 538.133 84.1198 535.893 87.2398C533.733 90.2798 530.853 92.7198 527.253 94.5598C523.733 96.3198 519.653 97.1998 515.013 97.1998C509.413 97.1998 504.373 95.8798 499.893 93.2398C495.413 90.5198 491.853 86.8398 489.213 82.1998C486.653 77.4798 485.373 72.1198 485.373 66.1198C485.373 60.1198 486.613 54.7598 489.093 50.0398C491.653 45.3198 495.133 41.5998 499.533 38.8798C503.933 36.1598 508.893 34.7998 514.413 34.7998C520.253 34.7998 525.173 36.1198 529.173 38.7598C533.253 41.3198 536.253 45.1198 538.173 50.1598C540.173 55.1198 540.973 61.2398 540.573 68.5198H494.973C495.373 72.4398 496.453 75.8798 498.213 78.8398C499.973 81.7998 502.293 84.1198 505.173 85.7998C508.053 87.3998 511.333 88.1998 515.013 88.1998C519.093 88.1998 522.533 87.1598 525.333 85.0798C528.213 82.9198 530.173 80.1198 531.213 76.6798ZM514.773 43.7998C509.813 43.7998 505.653 45.2398 502.293 48.1198C498.933 50.9998 496.693 54.9198 495.573 59.8798H530.733C530.413 54.5998 528.693 50.5998 525.573 47.8798C522.533 45.1598 518.933 43.7998 514.773 43.7998Z" fill="url(#paint6_linear_251_16793)"/>
<path d="M407.688 76.6798H416.568C416.808 80.1198 418.088 82.9198 420.408 85.0798C422.808 87.2398 426.248 88.3198 430.728 88.3198C433.448 88.3198 435.568 87.9598 437.088 87.2398C438.688 86.5198 439.848 85.5598 440.568 84.3598C441.288 83.0798 441.648 81.6798 441.648 80.1598C441.648 78.3198 441.168 76.8798 440.208 75.8398C439.328 74.7198 438.088 73.7998 436.488 73.0798C434.968 72.3598 433.208 71.6798 431.208 71.0398C428.888 70.1598 426.488 69.2398 424.008 68.2798C421.608 67.2398 419.328 66.0398 417.168 64.6798C415.088 63.2398 413.408 61.5198 412.128 59.5198C410.848 57.4398 410.208 54.9598 410.208 52.0798C410.208 49.6798 410.688 47.4398 411.648 45.3598C412.608 43.1998 413.968 41.3598 415.728 39.8398C417.568 38.2398 419.688 36.9998 422.088 36.1198C424.568 35.2398 427.288 34.7998 430.248 34.7998C434.248 34.7998 437.608 35.5998 440.328 37.1998C443.128 38.7998 445.248 41.0798 446.688 44.0398C448.208 46.9198 449.008 50.2798 449.088 54.1198H440.808C440.248 50.5198 439.088 47.9198 437.328 46.3198C435.648 44.6398 433.208 43.7998 430.008 43.7998C426.728 43.7998 424.208 44.5198 422.448 45.9598C420.688 47.3998 419.808 49.3198 419.808 51.7198C419.808 53.4798 420.448 54.9598 421.728 56.1598C423.008 57.2798 424.648 58.3198 426.648 59.2798C428.728 60.1598 430.928 61.0798 433.248 62.0398C435.568 62.9998 437.808 63.9598 439.968 64.9198C442.128 65.8798 444.048 66.9998 445.728 68.2798C447.408 69.5598 448.728 71.1598 449.688 73.0798C450.728 74.9198 451.248 77.2398 451.248 80.0398C451.248 83.3998 450.448 86.3998 448.848 89.0398C447.328 91.5998 445.048 93.5998 442.008 95.0398C439.048 96.4798 435.408 97.1998 431.088 97.1998C427.168 97.1998 423.808 96.7198 421.008 95.7598C418.288 94.7198 416.008 93.3998 414.168 91.7998C412.328 90.1198 410.888 88.3598 409.848 86.5198C408.888 84.6798 408.248 82.8798 407.928 81.1198C407.608 79.3598 407.528 77.8798 407.688 76.6798Z" fill="url(#paint7_linear_251_16793)"/>
<path d="M387.86 46.68L385.34 44.04C386.62 41.8 387.74 39.6 388.7 37.44C389.66 35.2 390.18 33.04 390.26 30.96L384.38 29.64V18H397.34V26.4C397.34 31.28 396.34 35.28 394.34 38.4C392.42 41.52 390.26 44.28 387.86 46.68Z" fill="url(#paint8_linear_251_16793)"/>
<path d="M321.506 35.9998H331.106V95.9998H321.506V35.9998ZM351.746 34.7998C354.946 34.7998 357.826 35.2798 360.386 36.2398C362.946 37.1998 365.106 38.5998 366.866 40.4398C368.626 42.2798 369.986 44.5198 370.946 47.1598C371.906 49.7198 372.386 52.6398 372.386 55.9198V95.9998H362.786V58.3198C362.786 53.6798 361.706 50.1998 359.546 47.8798C357.386 45.5598 354.146 44.3998 349.826 44.3998C346.546 44.3998 343.506 45.2398 340.706 46.9198C337.906 48.5998 335.586 50.9198 333.746 53.8798C331.986 56.7598 330.906 60.1198 330.506 63.9598L330.386 56.9998C330.786 53.6398 331.586 50.5998 332.786 47.8798C334.066 45.1598 335.626 42.8398 337.466 40.9198C339.386 38.9198 341.546 37.3998 343.946 36.3598C346.426 35.3198 349.026 34.7998 351.746 34.7998Z" fill="url(#paint9_linear_251_16793)"/>
<path d="M280.164 97.1998C275.044 97.1998 270.244 95.9598 265.764 93.4798C261.284 90.9998 257.644 87.4398 254.844 82.7998C252.124 78.0798 250.764 72.5198 250.764 66.1198C250.764 59.7198 252.124 54.1998 254.844 49.5598C257.644 44.8398 261.284 41.1998 265.764 38.6398C270.244 36.0798 275.044 34.7998 280.164 34.7998C285.284 34.7998 290.044 36.0798 294.444 38.6398C298.924 41.1998 302.524 44.8398 305.244 49.5598C307.964 54.1998 309.324 59.7198 309.324 66.1198C309.324 72.5198 307.964 78.0798 305.244 82.7998C302.524 87.4398 298.924 90.9998 294.444 93.4798C290.044 95.9598 285.284 97.1998 280.164 97.1998ZM280.164 88.1998C283.524 88.1998 286.684 87.3598 289.644 85.6798C292.604 83.9998 295.004 81.5198 296.844 78.2398C298.764 74.8798 299.724 70.8398 299.724 66.1198C299.724 61.3998 298.764 57.3998 296.844 54.1198C295.004 50.7598 292.604 48.1998 289.644 46.4398C286.684 44.6798 283.524 43.7998 280.164 43.7998C276.804 43.7998 273.604 44.6798 270.564 46.4398C267.604 48.1198 265.164 50.6398 263.244 53.9998C261.324 57.2798 260.364 61.3198 260.364 66.1198C260.364 70.8398 261.284 74.8798 263.124 78.2398C265.044 81.5198 267.524 83.9998 270.564 85.6798C273.604 87.3598 276.804 88.1998 280.164 88.1998Z" fill="url(#paint10_linear_251_16793)"/>
<path d="M198.274 76.6798H207.154C207.394 80.1198 208.674 82.9198 210.994 85.0798C213.394 87.2398 216.834 88.3198 221.314 88.3198C224.034 88.3198 226.154 87.9598 227.674 87.2398C229.274 86.5198 230.434 85.5598 231.154 84.3598C231.874 83.0798 232.234 81.6798 232.234 80.1598C232.234 78.3198 231.754 76.8798 230.794 75.8398C229.914 74.7198 228.674 73.7998 227.074 73.0798C225.554 72.3598 223.794 71.6798 221.794 71.0398C219.474 70.1598 217.074 69.2398 214.594 68.2798C212.194 67.2398 209.914 66.0398 207.754 64.6798C205.674 63.2398 203.994 61.5198 202.714 59.5198C201.434 57.4398 200.794 54.9598 200.794 52.0798C200.794 49.6798 201.274 47.4398 202.234 45.3598C203.194 43.1998 204.554 41.3598 206.314 39.8398C208.154 38.2398 210.274 36.9998 212.674 36.1198C215.154 35.2398 217.874 34.7998 220.834 34.7998C224.834 34.7998 228.194 35.5998 230.914 37.1998C233.714 38.7998 235.834 41.0798 237.274 44.0398C238.794 46.9198 239.594 50.2798 239.674 54.1198H231.394C230.834 50.5198 229.674 47.9198 227.914 46.3198C226.234 44.6398 223.794 43.7998 220.594 43.7998C217.314 43.7998 214.794 44.5198 213.034 45.9598C211.274 47.3998 210.394 49.3198 210.394 51.7198C210.394 53.4798 211.034 54.9598 212.314 56.1598C213.594 57.2798 215.234 58.3198 217.234 59.2798C219.314 60.1598 221.514 61.0798 223.834 62.0398C226.154 62.9998 228.394 63.9598 230.554 64.9198C232.714 65.8798 234.634 66.9998 236.314 68.2798C237.994 69.5598 239.314 71.1598 240.274 73.0798C241.314 74.9198 241.834 77.2398 241.834 80.0398C241.834 83.3998 241.034 86.3998 239.434 89.0398C237.914 91.5998 235.634 93.5998 232.594 95.0398C229.634 96.4798 225.994 97.1998 221.674 97.1998C217.754 97.1998 214.394 96.7198 211.594 95.7598C208.874 94.7198 206.594 93.3998 204.754 91.7998C202.914 90.1198 201.474 88.3598 200.434 86.5198C199.474 84.6798 198.834 82.8798 198.514 81.1198C198.194 79.3598 198.114 77.8798 198.274 76.6798Z" fill="url(#paint11_linear_251_16793)"/>
<path d="M155.515 97.1998C150.795 97.1998 146.435 95.8798 142.435 93.2398C138.515 90.5198 135.355 86.8398 132.955 82.1998C130.635 77.4798 129.475 72.1198 129.475 66.1198C129.475 60.1198 130.675 54.7598 133.075 50.0398C135.475 45.3198 138.715 41.5998 142.795 38.8798C146.955 36.1598 151.595 34.7998 156.715 34.7998C162.315 34.7998 166.555 36.2398 169.435 39.1198C172.395 41.9198 174.395 45.6798 175.435 50.3998C176.555 55.1198 177.115 60.3598 177.115 66.1198C177.115 69.1598 176.795 72.4798 176.155 76.0798C175.515 79.5998 174.395 82.9998 172.795 86.2798C171.275 89.4798 169.115 92.1198 166.315 94.1998C163.515 96.1998 159.915 97.1998 155.515 97.1998ZM157.915 88.0798C161.995 88.0798 165.355 87.0798 167.995 85.0798C170.715 83.0798 172.715 80.4398 173.995 77.1598C175.275 73.7998 175.915 70.1198 175.915 66.1198C175.915 61.7198 175.235 57.8798 173.875 54.5998C172.595 51.2398 170.595 48.6398 167.875 46.7998C165.235 44.8798 161.915 43.9198 157.915 43.9198C151.915 43.9198 147.275 46.0398 143.995 50.2798C140.715 54.4398 139.075 59.7198 139.075 66.1198C139.075 70.3598 139.875 74.1598 141.475 77.5198C143.155 80.7998 145.395 83.3998 148.195 85.3198C151.075 87.1598 154.315 88.0798 157.915 88.0798ZM175.915 35.9998H185.515V95.9998H176.755C176.755 95.9998 176.675 95.2798 176.515 93.8398C176.435 92.3998 176.315 90.7198 176.155 88.7998C175.995 86.8798 175.915 85.2798 175.915 83.9998V35.9998Z" fill="url(#paint12_linear_251_16793)"/>
<path d="M111.096 76.6798H120.096C119.456 80.5998 118.016 84.1198 115.776 87.2398C113.616 90.2798 110.736 92.7198 107.136 94.5598C103.616 96.3198 99.5359 97.1998 94.8959 97.1998C89.2959 97.1998 84.2559 95.8798 79.7759 93.2398C75.2959 90.5198 71.7359 86.8398 69.0959 82.1998C66.5359 77.4798 65.2559 72.1198 65.2559 66.1198C65.2559 60.1198 66.4959 54.7598 68.9759 50.0398C71.5359 45.3198 75.0159 41.5998 79.4159 38.8798C83.8159 36.1598 88.7759 34.7998 94.2959 34.7998C100.136 34.7998 105.056 36.1198 109.056 38.7598C113.136 41.3198 116.136 45.1198 118.056 50.1598C120.056 55.1198 120.856 61.2398 120.456 68.5198H74.8559C75.2559 72.4398 76.3359 75.8798 78.0959 78.8398C79.8559 81.7998 82.1759 84.1198 85.0559 85.7998C87.9359 87.3998 91.2159 88.1998 94.8959 88.1998C98.9759 88.1998 102.416 87.1598 105.216 85.0798C108.096 82.9198 110.056 80.1198 111.096 76.6798ZM94.6559 43.7998C89.6959 43.7998 85.5359 45.2398 82.1759 48.1198C78.8159 50.9998 76.5759 54.9198 75.4559 59.8798H110.616C110.296 54.5998 108.576 50.5998 105.456 47.8798C102.416 45.1598 98.8159 43.7998 94.6559 43.7998Z" fill="url(#paint13_linear_251_16793)"/>
<path d="M0.213333 70.6798H8.85333C9.09333 74.0398 10.0933 77.0398 11.8533 79.6798C13.6133 82.3198 16.0133 84.3998 19.0533 85.9198C22.1733 87.4398 25.8133 88.1998 29.9733 88.1998C33.5733 88.1998 36.5733 87.6798 38.9733 86.6398C41.4533 85.5198 43.2933 83.9998 44.4933 82.0798C45.7733 80.1598 46.4133 77.9198 46.4133 75.3598C46.4133 72.7198 45.7733 70.5998 44.4933 68.9998C43.2133 67.3998 41.3733 66.0398 38.9733 64.9198C36.5733 63.7998 33.7333 62.7198 30.4533 61.6798C27.3333 60.7198 24.1733 59.5998 20.9733 58.3198C17.7733 57.0398 14.7733 55.4798 11.9733 53.6398C9.25333 51.7998 7.05333 49.5998 5.37333 47.0398C3.69333 44.3998 2.85333 41.2398 2.85333 37.5598C2.85333 33.9598 3.81333 30.5998 5.73333 27.4798C7.73333 24.2798 10.6133 21.7198 14.3733 19.7998C18.2133 17.7998 22.8133 16.7998 28.1733 16.7998C36.5733 16.7998 42.8533 19.0798 47.0133 23.6398C51.1733 28.1998 53.1733 34.2398 53.0133 41.7598H44.3733C44.2133 36.0798 42.6133 31.9998 39.5733 29.5198C36.5333 27.0398 32.5733 25.7998 27.6933 25.7998C23.6133 25.7998 20.0533 26.7598 17.0133 28.6798C13.9733 30.5198 12.4533 33.4398 12.4533 37.4398C12.4533 39.1998 12.7733 40.7598 13.4133 42.1198C14.1333 43.3998 15.2533 44.5998 16.7733 45.7198C18.3733 46.8398 20.4933 47.9598 23.1333 49.0798C25.8533 50.1198 29.1733 51.2798 33.0933 52.5598C35.6533 53.3598 38.2533 54.3198 40.8933 55.4398C43.6133 56.5598 46.0933 57.9598 48.3333 59.6398C50.6533 61.3198 52.4933 63.4798 53.8533 66.1198C55.2933 68.6798 56.0133 71.9198 56.0133 75.8398C56.0133 79.5998 55.0933 83.1198 53.2533 86.3998C51.4933 89.5998 48.6933 92.1998 44.8533 94.1998C41.0933 96.1998 36.2133 97.1998 30.2133 97.1998C25.0933 97.1998 20.6933 96.5198 17.0133 95.1598C13.4133 93.7198 10.4533 91.8798 8.13333 89.6398C5.81333 87.3998 4.01333 85.0798 2.73333 82.6798C1.53333 80.1998 0.733333 77.8798 0.333333 75.7198C-0.0666667 73.5598 -0.106667 71.8798 0.213333 70.6798Z" fill="url(#paint14_linear_251_16793)"/>
<path d="M275.194 4.15259e-07L284.694 0V24H275.194V4.15259e-07Z" fill="url(#paint15_linear_251_16793)"/>
<path d="M314.864 9.80821L322.55 15.3922L308.443 34.8086L300.757 29.2246L314.864 9.80821Z" fill="url(#paint16_linear_251_16793)"/>
<path d="M244.943 9.80821L237.258 15.3922L251.365 34.8086L259.05 29.2246L244.943 9.80821Z" fill="url(#paint17_linear_251_16793)"/>
<defs>
<linearGradient id="paint0_linear_251_16793" x1="0" y1="59.9999" x2="862.225" y2="59.9999" gradientUnits="userSpaceOnUse">
<stop stop-color="#0D3B66"/>
<stop offset="0.5" stop-color="#5C946E"/>
<stop offset="0.75" stop-color="#EDAE49"/>
<stop offset="1" stop-color="#F28482"/>
</linearGradient>
<linearGradient id="paint1_linear_251_16793" x1="0" y1="59.9999" x2="862.225" y2="59.9999" gradientUnits="userSpaceOnUse">
<stop stop-color="#0D3B66"/>
<stop offset="0.5" stop-color="#5C946E"/>
<stop offset="0.75" stop-color="#EDAE49"/>
<stop offset="1" stop-color="#F28482"/>
</linearGradient>
<linearGradient id="paint2_linear_251_16793" x1="0" y1="59.9999" x2="862.225" y2="59.9999" gradientUnits="userSpaceOnUse">
<stop stop-color="#0D3B66"/>
<stop offset="0.5" stop-color="#5C946E"/>
<stop offset="0.75" stop-color="#EDAE49"/>
<stop offset="1" stop-color="#F28482"/>
</linearGradient>
<linearGradient id="paint3_linear_251_16793" x1="0" y1="59.9999" x2="862.225" y2="59.9999" gradientUnits="userSpaceOnUse">
<stop stop-color="#0D3B66"/>
<stop offset="0.5" stop-color="#5C946E"/>
<stop offset="0.75" stop-color="#EDAE49"/>
<stop offset="1" stop-color="#F28482"/>
</linearGradient>
<linearGradient id="paint4_linear_251_16793" x1="0" y1="59.9999" x2="862.225" y2="59.9999" gradientUnits="userSpaceOnUse">
<stop stop-color="#0D3B66"/>
<stop offset="0.5" stop-color="#5C946E"/>
<stop offset="0.75" stop-color="#EDAE49"/>
<stop offset="1" stop-color="#F28482"/>
</linearGradient>
<linearGradient id="paint5_linear_251_16793" x1="0" y1="59.9999" x2="862.225" y2="59.9999" gradientUnits="userSpaceOnUse">
<stop stop-color="#0D3B66"/>
<stop offset="0.5" stop-color="#5C946E"/>
<stop offset="0.75" stop-color="#EDAE49"/>
<stop offset="1" stop-color="#F28482"/>
</linearGradient>
<linearGradient id="paint6_linear_251_16793" x1="0" y1="59.9999" x2="862.225" y2="59.9999" gradientUnits="userSpaceOnUse">
<stop stop-color="#0D3B66"/>
<stop offset="0.5" stop-color="#5C946E"/>
<stop offset="0.75" stop-color="#EDAE49"/>
<stop offset="1" stop-color="#F28482"/>
</linearGradient>
<linearGradient id="paint7_linear_251_16793" x1="0" y1="59.9999" x2="862.225" y2="59.9999" gradientUnits="userSpaceOnUse">
<stop stop-color="#0D3B66"/>
<stop offset="0.5" stop-color="#5C946E"/>
<stop offset="0.75" stop-color="#EDAE49"/>
<stop offset="1" stop-color="#F28482"/>
</linearGradient>
<linearGradient id="paint8_linear_251_16793" x1="0" y1="59.9999" x2="862.225" y2="59.9999" gradientUnits="userSpaceOnUse">
<stop stop-color="#0D3B66"/>
<stop offset="0.5" stop-color="#5C946E"/>
<stop offset="0.75" stop-color="#EDAE49"/>
<stop offset="1" stop-color="#F28482"/>
</linearGradient>
<linearGradient id="paint9_linear_251_16793" x1="0" y1="59.9999" x2="862.225" y2="59.9999" gradientUnits="userSpaceOnUse">
<stop stop-color="#0D3B66"/>
<stop offset="0.5" stop-color="#5C946E"/>
<stop offset="0.75" stop-color="#EDAE49"/>
<stop offset="1" stop-color="#F28482"/>
</linearGradient>
<linearGradient id="paint10_linear_251_16793" x1="0" y1="59.9999" x2="862.225" y2="59.9999" gradientUnits="userSpaceOnUse">
<stop stop-color="#0D3B66"/>
<stop offset="0.5" stop-color="#5C946E"/>
<stop offset="0.75" stop-color="#EDAE49"/>
<stop offset="1" stop-color="#F28482"/>
</linearGradient>
<linearGradient id="paint11_linear_251_16793" x1="0" y1="59.9999" x2="862.225" y2="59.9999" gradientUnits="userSpaceOnUse">
<stop stop-color="#0D3B66"/>
<stop offset="0.5" stop-color="#5C946E"/>
<stop offset="0.75" stop-color="#EDAE49"/>
<stop offset="1" stop-color="#F28482"/>
</linearGradient>
<linearGradient id="paint12_linear_251_16793" x1="0" y1="59.9999" x2="862.225" y2="59.9999" gradientUnits="userSpaceOnUse">
<stop stop-color="#0D3B66"/>
<stop offset="0.5" stop-color="#5C946E"/>
<stop offset="0.75" stop-color="#EDAE49"/>
<stop offset="1" stop-color="#F28482"/>
</linearGradient>
<linearGradient id="paint13_linear_251_16793" x1="0" y1="59.9999" x2="862.225" y2="59.9999" gradientUnits="userSpaceOnUse">
<stop stop-color="#0D3B66"/>
<stop offset="0.5" stop-color="#5C946E"/>
<stop offset="0.75" stop-color="#EDAE49"/>
<stop offset="1" stop-color="#F28482"/>
</linearGradient>
<linearGradient id="paint14_linear_251_16793" x1="0" y1="59.9999" x2="862.225" y2="59.9999" gradientUnits="userSpaceOnUse">
<stop stop-color="#0D3B66"/>
<stop offset="0.5" stop-color="#5C946E"/>
<stop offset="0.75" stop-color="#EDAE49"/>
<stop offset="1" stop-color="#F28482"/>
</linearGradient>
<linearGradient id="paint15_linear_251_16793" x1="0" y1="59.9999" x2="862.225" y2="59.9999" gradientUnits="userSpaceOnUse">
<stop stop-color="#0D3B66"/>
<stop offset="0.5" stop-color="#5C946E"/>
<stop offset="0.75" stop-color="#EDAE49"/>
<stop offset="1" stop-color="#F28482"/>
</linearGradient>
<linearGradient id="paint16_linear_251_16793" x1="0" y1="59.9999" x2="862.225" y2="59.9999" gradientUnits="userSpaceOnUse">
<stop stop-color="#0D3B66"/>
<stop offset="0.5" stop-color="#5C946E"/>
<stop offset="0.75" stop-color="#EDAE49"/>
<stop offset="1" stop-color="#F28482"/>
</linearGradient>
<linearGradient id="paint17_linear_251_16793" x1="0" y1="59.9999" x2="862.225" y2="59.9999" gradientUnits="userSpaceOnUse">
<stop stop-color="#0D3B66"/>
<stop offset="0.5" stop-color="#5C946E"/>
<stop offset="0.75" stop-color="#EDAE49"/>
<stop offset="1" stop-color="#F28482"/>
</linearGradient>
</defs>
</svg>
