<svg width="400" height="400" viewBox="0 0 400 400" fill="none" xmlns="http://www.w3.org/2000/svg">
<g clip-path="url(#clip0_97_2113)">
<path d="M168.912 41.854C184.865 40 197.56 66 196.97 93.5625C196.651 108.5 178.428 129.914 177.174 150.935C177.051 152.994 177.041 157.716 177.359 159.625C179.401 171.887 177.224 184.186 171.865 195.344C167.926 203.675 160.003 207.145 154.352 214.007C148.891 221.537 150.001 229.032 141.503 237.715C134.73 244.636 130.62 248.784 129.505 258.84C125.038 289.087 140.073 323.323 151.958 350.65C153.027 353.108 157.25 359.865 151.076 358.98C148.692 358.608 146.627 355.27 145.552 353.253C134.501 332.5 125.619 307.893 122.082 286.13C120.022 273.448 119.068 259.608 115.519 247.214C111.534 233.3 97.3475 225.62 94.1726 211.222C88.1701 184 93.4584 181.721 91.6606 166.7C90.4439 156.533 85.6386 147.391 85.0948 137C83.9796 113.467 102.554 90.4943 115.582 72.581C122.455 63.13 120.741 57.0001 136.545 50.7045C144.274 47.6258 161.028 42.219 168.912 41.854Z" fill="#4E7D33"/>
<path d="M168.695 60.2428C171.439 60.3708 171.702 62.9543 170.38 64.7368C164.349 72.8637 152.547 80.679 149.361 90.5986C157.738 89.4559 164.999 83.5 172.865 80.7968C174.268 80.3721 175.41 83.4138 174.964 84.1481C166.499 91 155.162 95.2622 146.225 96.5723C140.999 103 136.32 131.834 135.96 137.256C145.635 135.464 152.276 131.536 159.53 125.031C160.983 123.728 165.519 119.243 167.459 120.426C164.499 131 141.51 141.348 135.51 140.776C133.892 152.681 129.571 159.883 126.376 171.258C124.773 176.965 124.081 182.845 123.735 188.752C134.499 187.5 145.999 179 153.379 177.061C154.519 178.418 152.687 180.286 151.613 181.232C144.175 187.783 133.192 193.021 123.245 192.999L123.261 193.159C121.932 207.5 125.999 229 123.266 238.613C122.444 238.841 122.795 238.852 121.932 238.455C119.499 231.5 118.32 214.577 118.196 208.582C112.999 206.754 103.653 193.159 101.103 183.656C100.942 182.667 102.103 179.962 103.653 180.057C107.999 188.752 112.357 196.193 117.982 203.469C117.997 190.928 118.196 177.061 122.854 163.466C109.499 155 102.17 137.229 99.0859 122.005C99.6164 120.814 99.8442 120.036 101.02 119.461C104.119 119.537 105.12 124.338 105.64 126.759C108.265 138.983 114.56 151.614 124.356 159.62C125.627 155.429 128.272 149.963 129.207 145.857C130.598 139.746 130.831 132.424 131.538 126.103C131.965 122.285 133.17 116.563 133.152 112.908C128.071 104.068 127.438 92.1378 128.071 80.8153C128.172 79.0226 129.623 74.0384 132.119 74.377C133.999 78.5 131.538 98 135.434 107.587C138.82 92.5374 149 78.5669 160.233 68.3978C163.651 65.3041 163.855 62.5395 168.695 60.2428Z" fill="#72A546"/>
<path d="M232.135 358.966C216.182 360.82 203.487 334.82 204.077 307.257C204.396 292.32 222.619 270.906 223.873 249.885C223.996 247.826 224.006 243.104 223.688 241.195C221.646 228.933 223.823 216.634 229.182 205.476C233.121 197.145 241.044 193.675 246.695 186.813C252.156 179.283 251.046 171.788 259.544 163.105C266.317 156.184 270.427 152.036 271.542 141.98C276.009 111.733 260.974 77.4969 249.089 50.1699C248.02 47.7124 243.797 40.9549 249.971 41.8399C252.355 42.2124 254.42 45.5502 255.495 47.5674C266.546 68.3199 275.428 92.9271 278.965 114.69C281.025 127.372 281.979 141.212 285.528 153.606C289.513 167.52 303.699 175.2 306.874 189.598C312.877 216.82 307.588 219.099 309.386 234.12C310.603 244.287 315.408 253.429 315.952 263.82C317.067 287.353 298.493 310.326 285.465 328.239C278.592 337.69 280.306 343.82 264.502 350.115C256.773 353.194 240.019 358.601 232.135 358.966Z" fill="#4E7D33"/>
<path d="M232.349 340.577C229.606 340.449 229.342 337.866 230.665 336.083C236.696 327.956 248.498 320.141 251.684 310.221C243.306 311.364 236.046 317.32 228.179 320.023C226.777 320.448 225.635 317.406 226.081 316.672C234.546 309.82 245.883 305.558 254.82 304.248C260.046 297.82 264.725 268.986 265.085 263.564C255.41 265.356 248.769 269.284 241.515 275.789C240.061 277.092 235.526 281.577 233.586 280.394C236.546 269.82 259.534 259.472 265.534 260.044C267.153 248.139 271.473 240.937 274.669 229.562C276.272 223.855 276.964 217.975 277.31 212.068C266.546 213.32 255.046 221.82 247.665 223.759C246.526 222.402 248.358 220.534 249.431 219.588C256.869 213.037 267.853 207.799 277.8 207.821L277.784 207.661C279.113 193.32 275.046 171.82 277.779 162.207C278.601 161.979 278.25 161.968 279.113 162.365C281.546 169.32 282.725 186.243 282.849 192.238C288.046 194.066 297.392 207.661 299.942 217.164C300.103 218.153 298.942 220.858 297.392 220.763C293.046 212.068 288.688 204.627 283.062 197.351C283.048 209.892 282.849 223.759 278.19 237.354C291.546 245.82 298.874 263.591 301.959 278.815C301.428 280.006 301.201 280.784 300.025 281.359C296.926 281.283 295.924 276.482 295.405 274.061C292.78 261.837 286.484 249.206 276.689 241.2C275.418 245.391 272.773 250.857 271.838 254.963C270.446 261.074 270.214 268.396 269.507 274.717C269.08 278.535 267.875 284.257 267.893 287.912C272.973 296.752 273.607 308.682 272.973 320.005C272.873 321.797 271.422 326.782 268.926 326.443C267.046 322.32 269.507 302.82 265.61 293.233C262.224 308.283 252.045 322.253 240.811 332.422C237.394 335.516 237.189 338.28 232.349 340.577Z" fill="#72A546"/>
</g>
<defs>
<clipPath id="clip0_97_2113">
<rect width="231" height="319" fill="white" transform="translate(85 41)"/>
</clipPath>
</defs>
</svg>
