<svg width="400" height="400" viewBox="0 0 400 400" fill="none" xmlns="http://www.w3.org/2000/svg">
<path d="M116.873 120.671C101.073 92.258 75.4295 62.0668 47.4807 38.4369C46.5876 37.6817 45.3295 35.8922 45.9727 34.7504C58.4661 32.5104 74.1548 34.9777 83.0089 34.9625C93.6776 34.9444 91.9123 33.2041 97.9198 42.2238C111.635 62.78 120.066 86.1549 130.766 108.254C134.208 115.364 140.335 123.68 144.742 130.342C139.854 134.171 135.852 146.443 135.276 152.703C135.161 153.944 134.641 160.043 134.422 160.766C126.059 156.086 118.349 151.018 109.77 146.751C98.0274 140.91 85.2452 135.789 73.6122 129.944C63.8049 124.894 54.3621 119.165 45.352 112.799C42.4213 110.725 37.0201 107.097 34.5401 104.784C33.7707 100.382 32.3194 77.9818 33.8474 73.9406C34.4348 73.2568 35.7575 73.008 36.6983 72.7214C63.0178 89.9591 88.0551 107.092 116.873 120.671Z" fill="#4E7D33"/>
<path d="M34.7423 121.739C45.3263 128.365 54.5675 137.03 65.2021 143.685C90.7094 159.543 130.947 178.452 182.036 195.239C185.29 199.741 187.291 213.221 187.627 218.304C172.102 213.016 155.116 211.316 139.228 207.32C103.535 198.345 59.8737 181.361 35.2813 152.236C33.7033 145.368 34.3421 128.967 34.7423 121.739Z" fill="#4E7D33"/>
<path d="M166.74 154.229C162.039 125.196 150.331 95.7554 137.465 69.5346C133.707 61.8877 116.4 41.7789 118.507 34.943C124.091 33.9794 138.958 34.6084 143.336 35.3232C154.059 42.951 168.553 84.7932 172.792 98.2052C177.88 114.302 181.817 132.629 187.244 148.846C189.057 154.481 191.232 156.965 193.037 161.293C189.272 161.134 168.294 156.606 166.74 154.229Z" fill="#4E7D33"/>
<path d="M335.097 336.86C336.872 337.338 341.534 338.106 344.311 339.47C348.676 341.615 362.077 356.72 361.977 361.295C360.872 362.821 359.074 361.701 357.984 360.695C352.177 355.339 348.098 347.864 341.685 343.153C340.44 342.258 336.133 341.321 333.874 340.209C341.24 346.508 344.305 349.824 347.17 359.302C347.748 361.209 351.338 363.941 350.018 366.365C345.039 369.445 342.077 357.651 340.737 354.521C339.045 350.572 333.221 344.393 329.567 342.28C327.443 342.106 332.118 350.411 333.021 351.422C334.797 353.415 340.737 359.302 337.333 362.037C335.783 361.779 333.527 358.635 332.232 357.473C328.333 353.971 326.166 349.56 325.307 344.401C323.062 348.576 322.023 351.77 323.29 356.656C323.954 359.213 325.76 361.159 325.507 363.961C324.221 365.117 322.201 362.966 321.387 361.91C319.044 358.858 318.533 354.502 318.986 350.78C319.705 346.602 321.759 342.933 322.876 338.425C328.511 338.883 329.784 339.064 335.097 336.86Z" fill="#E8C2A5"/>
<path d="M338.854 319.971C342.305 318.562 346.589 318.954 350.316 317.622C353.053 316.644 355.684 313.981 358.435 314.101C359.299 314.573 359.016 314.231 359.33 315.146C358.677 320.938 347.351 322.959 342.624 322.99C345.27 324.73 346.517 325.125 349.601 325.894C352.941 326.728 363.373 326.948 364.431 330.759C363.025 334.653 358.59 331.665 355.815 331.251C350.641 330.478 347.134 330.236 342.382 327.782C344.091 329.917 347.053 333.875 349.299 335.445C355.014 339.437 364.97 340.721 365.093 349.629C365.095 349.88 364.976 350.102 364.873 350.321C362.197 350.397 358.754 345.61 356.487 344.376C349.671 340.665 343.077 338.514 340.201 330.356C340.084 329.939 340.096 328.466 340.09 327.974C340.057 324.196 340.168 323.485 338.854 319.971Z" fill="#E8C2A5"/>
<path d="M134.422 160.766C134.422 150.537 135.131 137.872 144.742 130.342C150.368 137.991 159.623 147.904 166.739 154.229C168.293 156.606 189.271 161.134 193.036 161.293C199.728 174.059 207.704 185.196 215.932 196.894C220.371 203.206 224.389 210.028 229.495 215.822C254.247 243.902 280.526 273.335 310.641 295.85C318.807 301.554 327.835 306.979 334.954 314.001C340.717 319.678 343.247 332.202 335.096 336.86C330.065 339.735 324.882 340.064 319.716 337.157C309.043 333.249 304.197 323.312 297.022 315.41C278.773 296.597 260.925 277.403 242.538 258.72C225.661 241.576 210.799 226.453 187.627 218.304C187.34 213.97 185.308 198.997 179.966 195.058C164.722 183.817 151.537 169.33 134.422 160.766ZM250.132 259.343C268.563 278.358 284.778 295.041 301.643 313.203C304.793 316.594 319.716 344.962 335.657 331.739C340.002 328.135 334.924 320.738 330.514 316.563C322.575 309.047 312.408 303.469 303.75 296.87C291.045 287.185 267.093 262.686 256.729 251.502C253.119 253.832 251.869 255.291 250.132 259.343Z" fill="#92BF67"/>
</svg>
