<svg width="400" height="400" viewBox="0 0 400 400" fill="none" xmlns="http://www.w3.org/2000/svg">
<path d="M135.189 121.069C155.784 120.316 171.037 138.546 178.891 155.464C185.911 170.492 190.67 188.074 191.067 204.81C191.708 231.863 202.4 258.418 200.042 285.71C198.621 302.114 180.915 312.204 165.97 312.981C140.938 313.46 110.917 288.829 93.3868 273.938C79.1007 261.802 68.2064 250.519 59.0949 233.905C50.278 217.824 48.6931 201.243 49.3683 183.327C59.095 153.681 95.3127 129.752 135.189 121.069Z" fill="#EB3849"/>
<path d="M77.59 133.159C73.0377 127.5 62.4124 110.317 66.1603 95.5267C67.988 94.0803 72.0693 93.0324 72.8821 96.1107C73.6984 99.203 74.1391 102.255 74.6969 105.353C76.3896 114.75 79.2236 122.718 84.9712 130.427C87.3568 123.584 95.3763 116.453 101.399 112.779C102.607 111.952 106.684 109.666 108.076 110.317C111.922 112.114 107.245 118.725 106.396 121.754C108.736 119.924 111.885 117.088 114.681 115.586C125.849 109.588 139.87 100.684 152.866 101.25C155.239 100.349 159.109 104.178 156.333 105.463C145.037 110.69 129.598 122.459 123.614 133.902C132.203 132.245 143.34 129.323 151.253 135.343C157.755 140.289 153.461 141.943 147.779 142.009C141.495 142.083 119.359 143.888 114.513 148.211C124.579 153.219 133.597 160.643 127.857 171.282C125.224 174.618 102.069 169.104 96.8885 165.614C96.1658 165.127 95.5348 164.514 94.8765 163.946C91.5142 171.323 89.9888 179.502 88.0749 187.336C86.3543 194.377 87.858 204.887 77.4671 195.412C70.6413 188.959 67.84 177.949 66.8542 168.828C60.4938 174.607 44.5884 192.751 36.2239 194.503C31.2864 195.169 33.5374 185.188 33.8687 183.019C35.8275 170.192 45.076 161.943 53.6961 153.219C51.1311 154.285 45.1875 159.096 43.5298 154.659C44.2501 144.201 68.4265 133.94 77.59 133.159Z" fill="#015734"/>
<path d="M138.819 184.601C144.575 184.332 145.225 195.153 140.01 197.364C138.685 196.577 135.36 190.093 135.486 188.246C135.58 186.863 137.659 185.369 138.819 184.601Z" fill="#FFC971"/>
<path d="M74.5323 218.703C77.6846 218.044 79.6459 222.786 80.8434 225.451C81.9422 227.896 81.4389 229.971 78.6913 229.753C76.4874 229.577 73.2793 226.769 72.036 224.925C70.112 222.071 71.8669 219.261 74.5323 218.703Z" fill="#FFC971"/>
<path d="M137.258 239.663C139.419 238.872 140.696 241.176 141.171 243.287C141.958 246.787 144.441 251.389 139.549 251.371C138.17 251.365 136.46 248.579 135.732 247.39C133.609 243.923 133.563 241.017 137.258 239.663Z" fill="#FFC971"/>
<path d="M150.525 295.327C155.614 292.852 157.835 296.35 159.236 301.261C159.521 302.261 157.798 302.826 156.837 303.23C156.228 303.486 154.318 302.209 153.376 301.987C149.149 300.99 145.397 297.82 150.525 295.327Z" fill="#FFC971"/>
<path d="M178.788 268.542C180.595 267.538 181.762 269.688 182.507 271.528C183.528 274.053 184.95 280.736 181.431 279.972C176.822 278.972 173.357 271.558 178.788 268.542Z" fill="#FFC971"/>
<path d="M159.479 147.709C162.496 146.301 163.594 148.64 165.067 151.642C165.783 153.1 167.248 158.238 165.139 157.955C161.706 157.494 154.777 149.904 159.479 147.709Z" fill="#FFC971"/>
<path d="M172.543 209.426C176.179 208.698 179.415 220.448 174.142 219.531C171.711 219.108 169.238 215.547 169.133 213.1C169.031 210.71 170.195 209.896 172.543 209.426Z" fill="#FFC971"/>
<path d="M105.759 236.969C106.096 236.79 107.541 236.788 107.848 236.879C110.797 237.757 113.213 242.194 112.61 244.987C112.436 245.794 112.364 245.881 111.386 245.757C108.511 245.394 100.852 239.573 105.759 236.969Z" fill="#FFC971"/>
<path d="M353.058 242.662C353.254 245.438 353.853 248.056 353.688 250.877C351.203 293.35 307.577 355.797 261.574 352.6C254.682 352.122 249.757 349.983 245.218 344.719C227.613 324.317 225.521 290.301 227.491 265.344C229.121 244.638 239.809 216.233 256.001 202.746C262.993 196.925 272.688 193.041 281.838 193.859C298.705 186.582 351.909 226.463 353.058 242.662Z" fill="#EB3849"/>
<path d="M308.168 194.498C309.003 187.886 313.066 180.362 317.777 175.604C320.235 173.121 327.999 175.119 327.411 178.79C326.985 181.467 322.276 184.946 320.833 187.287C318.976 190.027 318.134 192.202 316.72 194.994C322.912 194.401 341.431 195.125 343.939 203.546C344.867 206.68 336.465 209.982 334.559 211.004C346.283 216.194 360.2 227.389 365.16 239.718C369.378 252.819 357.573 246.784 353.057 242.662C346.121 236.331 339.53 234.11 334.51 231.901C337.623 237.542 341.157 247.29 340.188 253.858C339.819 256.371 337.122 257.238 335.215 254.721C329.593 247.293 324.058 239.255 319.711 231.027C315.27 234.703 308.418 245.688 303.171 248.056C294.327 252.044 302.424 225.425 304.963 220.593C288.37 219.29 277.767 218.723 255.558 222.472C253.424 222.368 250.546 220.632 251.917 218.723C260.319 207.021 276.272 202.534 286.052 196.459C281.257 192.066 267.627 189.914 264.766 186.881C256.613 178.253 284.345 182.602 286.94 183.171C294.903 184.973 302.236 188.886 308.168 194.498Z" fill="#015734"/>
<path d="M274.008 228.574C274.095 228.357 274.469 228.521 274.701 228.499C280.199 227.99 281.504 233.504 277.834 237.29C277.404 237.733 275.88 238.056 275.339 237.941C272.266 237.288 273.428 230.012 274.008 228.574Z" fill="#FFC971"/>
<path d="M298.474 313.716C299.882 312.787 303.299 313.629 303.158 316.199C303.045 318.268 300.973 320.024 299.464 321.271C298.422 322.132 297.727 323.094 296.657 322.159C294.637 320.392 296.499 315.021 298.474 313.716Z" fill="#FFC971"/>
<path d="M263.502 334.871C265.105 334.589 266.915 336.052 266.789 337.922C266.623 340.392 265.263 341.902 263.412 343.283C262.997 343.593 261.996 343.702 261.6 343.328C259.149 341.008 260.104 335.468 263.502 334.871Z" fill="#FFC971"/>
<path d="M316.959 293.38C322.362 292.411 320.947 299.979 316.139 301.501C314.599 301.988 313.006 301.734 312.814 300.015C312.567 297.802 314.763 293.774 316.959 293.38Z" fill="#FFC971"/>
<path d="M249.143 234.758C255.589 234.23 253.08 240.091 250.509 242.859C249.818 243.602 249.259 243.485 248.3 243.145C245.743 242.238 246.477 234.976 249.143 234.758Z" fill="#FFC971"/>
<path d="M250.048 270.506C254.664 269.992 252.473 277.883 248.705 279.339C247.76 279.704 247.134 279.664 246.656 278.804C246.208 277.996 246.437 276.63 246.703 275.75C247.644 272.64 246.952 270.851 250.048 270.506Z" fill="#FFC971"/>
<path d="M277.61 271.565C283.58 269.775 280.962 277.147 277.952 279.382C274.099 282.242 273.1 272.918 277.61 271.565Z" fill="#FFC971"/>
<path d="M314.447 256.134C316.371 255.056 319.33 256.308 319.138 259.165C319.026 260.82 317.865 261.835 316.595 262.699C315.477 263.46 314.45 263.912 313.31 263.098C311.181 261.578 312.615 257.16 314.447 256.134Z" fill="#FFC971"/>
<path d="M243.996 313.46C249.849 312.819 247.606 317.841 244.958 320.581C244.145 321.422 243.112 321.423 242.393 320.456C240.844 318.374 241.363 313.748 243.996 313.46Z" fill="#FFC971"/>
<path d="M320.808 118.906C324.428 133.151 310.146 147.58 300.123 155.3C282.766 168.673 250.72 197.476 227.37 183.058C215.867 175.956 214.045 164.971 215.444 152.373C218.095 128.796 220.522 106.717 233.2 85.8657C239.275 75.89 250.038 69.1829 261.326 66.7865C284.746 57.4685 316.651 93.8598 320.808 118.906Z" fill="#EB3849"/>
<path d="M309.978 47.1296C311.289 47.1369 312.313 47.1224 313.627 47.3123C322.613 53.7102 310.347 65.7958 304.763 70.5807L305.043 70.722C315.621 75.939 332.551 78.0516 337.338 90.673C339.563 96.5405 329.38 94.6655 326.002 94.5616C329.761 100.794 334.3 115.297 327.007 120.546C319.638 125.852 307.803 101.37 305.835 97.5654C304.163 100.128 290.464 117.53 289.25 117.962C287.138 118.711 285.239 115.453 284.634 113.957C281.707 106.709 287.804 93.5364 290.793 86.756C280.304 89.6705 268.073 89.9696 257.246 91.3797C253.938 91.6738 244.469 94.5626 247.791 87.4863C252.104 78.3031 261.859 72.3481 271.246 69.2925C266.902 68.6839 265.426 68.1691 261.326 66.7865C257.258 64.2726 241.58 58.1526 240.561 53.9328C238.747 46.376 264.953 53.3524 267.674 54.6279C272.512 42.9217 295.641 62.2029 299.773 67.377C303.794 61.2423 304.911 52.2696 309.978 47.1296Z" fill="#015734"/>
<path d="M301.122 118.034C305.296 116.719 305.192 120.621 303.525 123.771C302.552 125.609 301.588 126.23 299.771 126.973C298.78 127.379 298.364 127.56 297.752 126.838C296.064 124.846 298.944 118.72 301.122 118.034Z" fill="#FFC971"/>
<path d="M246.605 141.622C249.035 141.101 249.94 142.385 249.895 144.587C249.819 148.322 249.119 148.738 246.037 150.723C245.142 151.299 244.322 151.488 243.637 150.725C242.425 149.376 244.152 145.618 244.708 143.995C245.012 143.107 245.686 141.82 246.605 141.622Z" fill="#FFC971"/>
<path d="M230.101 159.903C236.609 158.614 232.069 166.968 229.38 168.993C228.38 169.746 227.555 169.703 226.987 168.541C225.704 165.914 227.355 160.448 230.101 159.903Z" fill="#FFC971"/>
<path d="M270.915 152.376C276.073 151.557 272.817 158.66 269.462 159.911C268.508 160.267 266.62 160.42 266.239 159.499C265.275 157.173 268.61 152.742 270.915 152.376Z" fill="#FFC971"/>
<path d="M295.163 143.213C296.19 142.927 297.056 143.115 297.648 143.965C299.403 146.484 294.545 149.227 292.541 150.106C288.514 151.873 289.184 144.883 295.163 143.213Z" fill="#FFC971"/>
<path d="M246.539 103.031C251.258 102.862 247.813 110.451 244.774 111.374C242.176 112.162 242.379 108.869 243.104 106.931C243.89 104.828 244.299 103.111 246.539 103.031Z" fill="#FFC971"/>
<path d="M272.029 107.275C273.385 107.314 275.051 108.631 274.751 110.178C274.318 112.408 273.131 113.499 271.291 114.529C270.225 115.127 269.631 115.22 268.664 114.389C268.425 113.721 268.357 113.472 268.48 112.748C268.871 110.518 270.152 108.543 272.029 107.275Z" fill="#FFC971"/>
<path d="M228.855 108.225C230.767 107.62 231.753 110.109 231.757 111.97C231.761 114.183 230.528 114.759 228.975 116.237C228.196 116.978 227.514 117.618 226.901 116.662C225.394 114.309 226.229 109.056 228.855 108.225Z" fill="#FFC971"/>
</svg>
