<svg width="400" height="400" viewBox="0 0 400 400" fill="none" xmlns="http://www.w3.org/2000/svg">
<g clip-path="url(#clip0_90_797)">
<path d="M61.9817 84.4624C56.8706 70.9353 54.5569 56.6367 49.5159 43.0425C49.2336 42.2813 49.0838 41.3428 49.3714 40.5739C52.3935 39.8614 61.5814 41.4706 65.677 41.0575C68.996 40.954 73.0321 39.6129 76.2943 39.7968C85.1604 40.2962 98.5194 66.8844 102.936 73.299C105.166 76.472 109.017 82.3101 111.404 85.0984L111.662 85.3965C108.304 96.3743 86.7889 112.767 73.789 123.225C58.1018 109.181 44.7813 101.752 34.1852 91.1549C33.5704 88.1707 33.8232 70.6275 34.6439 67.8584C43.7582 73.299 57.0623 81.2584 61.9817 84.4624Z" fill="#92BF67"/>
<path d="M111.662 85.3965L111.918 85.5166C120.828 91.7639 125.485 96.7041 136.068 96.7656C149.674 96.8442 162.252 95.3649 175.963 98.5385C204.399 105.161 231.88 119.13 257.805 132.359C271.613 139.324 300.508 154.147 310.513 165.573C284.013 242.371 271.718 285.914 186.561 327.882C185.988 327.621 185.702 327.359 185.187 327.026C159.538 310.513 137.529 286.578 120.828 261.049C108.255 241.829 98.1831 220.424 91.7743 198.345C85.3039 173.414 87.3012 140.942 73.7891 123.225C81.6662 108.157 93.2751 104.197 101.744 94.6271C105.654 90.2093 106.169 88.0562 111.662 85.3965Z" fill="#CC6C8E"/>
<path d="M310.512 165.573C327.804 180.354 341.764 197.173 352.561 217.027C365.55 240.909 371.752 268.931 362.707 295.012C354.451 318.825 331.543 345.219 308.962 356.633C289.676 366.376 260.432 358.482 241.271 353.311C221.42 347.955 204.274 337.803 186.561 327.882C209.196 283.271 237.762 241.931 271.479 204.979C283.628 191.686 300.097 180.209 310.512 165.573Z" fill="#FFE6BF"/>
<path d="M251.842 136.284C256.264 137.469 248.472 144.225 247.411 145.376C238.611 154.92 231.23 165.931 222.256 175.196C221.407 175.064 220.375 174.779 220.706 173.659C221.323 171.621 223.296 169.117 224.433 167.331C229.719 159.031 244.027 141.204 251.842 136.284Z" fill="#FFE6BF"/>
<path d="M295.808 165.56C297.112 166.966 294.809 169.64 293.792 170.786C287.357 178.049 279.806 184.005 273.647 191.62C272.454 193.09 269.139 199.858 267.369 195.548C267.157 195.036 267.318 194.209 267.533 193.748C270.735 186.85 292.209 165.018 295.808 165.56Z" fill="#FFE6BF"/>
<path d="M140.132 194.193C142.643 195.213 132.572 206.895 131.639 208.302C126.247 216.429 121.795 225.047 116.62 233.299C115.5 235.079 114.333 233.03 114.688 231.654C119.573 219.319 129.629 201.191 140.132 194.193Z" fill="#FFE6BF"/>
<path d="M190.837 270.026C190.79 274.099 187.092 277.846 185.019 281.263C181.339 287.331 177.675 293.401 174.938 299.976C174.273 301.572 173.451 303.416 172.327 304.727C171.526 305.654 170.302 304.571 169.68 304.025C169.129 302.489 171.948 297.248 172.803 295.678C174.169 293.167 188.661 266.652 190.837 270.026Z" fill="#FFE6BF"/>
<path d="M193.498 247.922L194.437 248.498C194.255 253.403 187.046 259.217 184.187 263.174C180.9 267.723 178.128 272.608 174.712 277.024C173.833 277.351 172.372 276.619 172.776 275.454C174.501 270.992 177.85 265.48 180.838 261.676C183.98 257.68 189.625 251.093 193.498 247.922Z" fill="#FFE6BF"/>
<path d="M180.805 112.52C182.234 112.514 182.999 112.493 183.357 113.957C181.977 116.307 175.726 122.399 173.219 125.422C170.356 128.873 166.742 134.157 163.99 137.194C162.962 137.776 161.487 136.604 161.939 135.449C164.4 129.165 175.55 115.995 180.805 112.52Z" fill="#FFE6BF"/>
<path d="M109.125 152.41C111.831 152.897 105.398 160.415 104.666 161.553C103.295 163.682 99.2334 171.471 97.4607 172.355C95.9433 171.104 95.4408 171.027 96.4118 168.99C97.9327 165.935 99.699 162.925 101.533 160.043C103.667 156.691 105.359 153.976 109.125 152.41Z" fill="#FFE6BF"/>
<path d="M177.809 103.906C178.061 104.282 178.249 104.43 178.268 104.898C178.351 106.942 167.876 117.293 165.876 119.555C165.4 119.314 164.274 118.451 164.477 117.826C165.058 116.067 166.699 114.056 167.991 112.706C169.828 110.787 174.997 102.462 177.809 103.906Z" fill="#FFE6BF"/>
</g>
<defs>
<clipPath id="clip0_90_797">
<rect width="334" height="322.73" fill="white" transform="translate(33 39)"/>
</clipPath>
</defs>
</svg>
