<svg width="400" height="400" viewBox="0 0 400 400" fill="none" xmlns="http://www.w3.org/2000/svg">
<path d="M56.2611 305.989C63.5644 249.755 88.3192 210.042 132.007 171.793C170.82 139.261 285.289 57.2785 302.279 74.0074C309.227 73.7104 310.214 74.5362 316.056 78.3396C319.155 80.3558 321.361 80.4587 323.929 83.6251C324.618 86.5089 324.719 90.1608 323.855 92.9932C344.932 107.975 224.119 272.092 173.757 298.236C150.504 310.387 110.093 327.439 87.8719 337.003C66.997 342.967 54.402 320.303 56.2611 305.989Z" fill="#F59D40"/>
<path d="M33.168 326.16C34.6859 323.19 39.5322 317.861 39.7871 315.896C40.4289 310.954 39.3998 305.611 39.8629 300.034C43.8514 252.003 68.1895 217.121 109.635 183.307C135.006 162.041 160.637 141.702 187.038 121.588C191.303 118.339 196.157 115.394 200.57 112.293C217.908 99.9241 235.398 87.7694 253.037 75.8325C260.612 70.6197 267.543 64.6605 274.92 59.2226C282.444 53.6743 290.395 48.6133 297.749 42.7778C299.881 41.0873 302.61 39.0645 304.969 37.7452C306.141 38.4129 307.256 39.1548 308.389 39.8861C312.779 49.0585 306.418 65.4881 302.279 74.0074C288.886 79.4451 288.817 70.7527 275.234 83.1406C264.927 83.9815 264.218 84.4431 257.603 91.8684C250.294 91.6611 245.418 94.6445 242.007 101.043C234.99 101.568 230.107 102.912 225.111 108.46C223.35 110.416 222.299 112.524 220.831 114.491C215.626 116.499 210.316 117.217 206.172 121.152C204.89 122.37 202.935 125.43 202.012 126.079C197.233 129.441 195.98 129.364 192.731 134.323C184.222 136.758 181.594 139.846 178.043 147.487C170.786 150.24 169.205 150.776 164.818 157.301C154.242 161.263 154.593 164.329 149.032 172.71C146.216 173.46 143.178 174.149 140.619 175.666C138.257 177.066 136.271 181.141 134.361 182.706C128.796 187.264 127.349 187.162 124.869 194.117C121.241 194.281 118.467 195.194 115.892 197.919C113.879 200.046 112.605 203.568 110.819 205.53C108.177 208.431 104.56 208.524 102.299 212.49C100.275 216.042 101.087 219.6 98.7551 222.838C95.003 228.048 91.0994 232.479 87.5721 237.937C77.7441 253.143 70.7284 273.973 67.8381 291.729C66.6982 298.731 64.4237 321.715 70.0923 327.866C85.7202 333.134 115.277 316.132 128.965 310.343C142.601 304.574 154.825 296.218 168.118 289.966C170.201 288.988 172.988 288.529 175.167 287.742C181.744 285.714 181.903 282.636 184.682 277.37C188.904 275.035 189.433 274.009 191.979 269.968C198.494 268.844 199.56 266.276 201.408 260.476C204.447 258.606 209.402 254.756 209.695 251.085C210.476 241.307 215.406 249.039 219.511 239.082C226.02 235.637 227.733 231.573 227.299 224.478C233.596 223.401 236.567 219.077 239.664 213.844C246.659 210.51 248.797 211.154 248.901 201.96C255.08 200.544 257.69 197.818 258.689 191.311C265.885 187.311 269.854 184.666 270.581 175.846C275.937 173.449 278.207 171.071 279.119 165.217C285.991 163.265 287.901 158.739 288.436 151.918C295.118 149.524 294.901 141.845 300.081 137.91C303.639 135.205 306.231 129.413 305.198 125.114C306.355 121.873 313.548 122.294 314.917 110.303C324.612 103.522 319.623 97.6406 323.854 92.9933C330.293 89.8468 341.929 88.2922 349.098 88.6331C352.51 88.7953 364.063 89.989 366.138 92.5605C366.463 92.9646 366.508 93.1644 366.404 93.692C365.625 97.6227 336.535 123.965 331.289 129.468C326.371 134.623 321.716 140.175 317.237 145.719C284.576 186.154 260.609 233.155 225.989 272.106C183.682 319.131 115.307 354.3 82.5526 351.547C78.1354 353.453 74.5962 360.211 69.6521 362.802C59.6965 357.747 47.0376 346.693 40.1101 337.91C38.1404 335.414 34.538 329.155 33.168 326.16Z" fill="#CBD78F"/>
<path d="M93.8891 313.582C95.642 314.76 99.228 317.283 99.7493 319.48C99.8835 320.029 99.7723 320.605 99.4451 321.064C98.6769 322.123 96.7272 322.418 95.5827 323.277L95.4249 323.327C88.7413 323.551 91.1861 316.886 93.8891 313.582Z" fill="#FFC971"/>
<path d="M150.906 224.264C155.815 224.207 161.764 232.008 164.692 235.42C166.419 237.43 170.426 238.697 168.435 242.657C167.318 244.879 164.499 247.548 161.76 246.621C160.733 246.337 156.514 244.96 155.659 244.14C151.866 240.501 146.332 236.383 143.523 232.062C143.155 231.498 142.597 230.079 142.866 229.664C144.004 227.914 149.173 225.066 150.906 224.264Z" fill="#FFC971"/>
<path d="M161.522 212.362C166.393 212.138 169.018 215.228 172.076 218.547C176.509 223.36 182.575 232.253 172.284 234.492C166.652 233.162 160.374 228.114 157.265 223.291C153.293 217.133 156.806 215.296 161.522 212.362Z" fill="#FFC971"/>
<path d="M119.623 217.202C121.467 217.109 123.513 217.136 125.375 217.121C130.392 222.51 134.61 222.761 137.385 230.684C136.015 234.34 134.54 235.327 131.812 238.122L130.844 238.673C128.325 238.906 125.412 236.282 123.516 234.743C120.312 232.142 114.269 227.547 115.47 222.784C115.724 221.773 116.573 219.752 116.986 218.714C117.86 218.201 118.739 217.697 119.623 217.202Z" fill="#FFC971"/>
<path d="M109.703 230.258C113.65 230.338 117.066 233.46 120.299 235.494C124.751 238.295 134.772 247.166 124.965 250.533C117.602 250.662 111.632 245.956 106.801 240.865C103.904 237.811 105.518 235.939 105.864 232.283C107.133 231.588 108.413 230.911 109.703 230.258Z" fill="#FFC971"/>
<path d="M105.035 266.061C105.489 266.043 106.816 265.981 107.162 266.24C112.557 270.305 116.743 275.878 121.837 280.364C121.09 283.531 119.165 287.237 115.577 287.655C109.826 287.047 101.671 279.982 98.6386 275.231C98.3138 269.431 100.229 268.498 105.035 266.061Z" fill="#FFC971"/>
<path d="M76.6484 286.328C82.7242 285.818 92.1827 293.527 95.2394 298.54C97.3907 302.068 95.5308 304.698 92.2889 306.302C90.8574 306.708 89.6172 307.149 88.133 306.32C83.5649 303.765 77.6188 299.59 74.1402 295.68C73.6526 295.131 72.7925 292.766 72.5352 292.074C73.6892 288.904 74.1542 288.648 76.6484 286.328Z" fill="#FFC971"/>
<path d="M116.28 255.654C122.528 256.357 128.295 264.761 131.921 269.509C131.977 270.809 131.972 272.228 131.99 273.541C129.405 276.499 128.515 277.149 124.969 275.354C124.031 274.811 120.478 273.576 119.746 272.947C116.291 269.914 107.286 263.231 108.708 258.141C109.213 256.331 114.288 256.31 116.28 255.654Z" fill="#FFC971"/>
<path d="M92.1496 236.201C98.3637 235.667 106.574 244.605 110.478 248.822C110.534 249.979 110.535 251.285 110.56 252.457C108.447 254.303 107.838 254.98 105.194 255.877C104.989 255.88 103.37 255.895 103.239 255.836C99.9121 254.007 95.3789 251.804 92.457 249.343C84.6838 242.801 84.7091 241.217 92.1496 236.201Z" fill="#FFC971"/>
<path d="M140.933 273.019L143.658 273.266C147.137 278.369 152.518 280.483 156.945 285.576C157.972 292.385 155.778 292.286 149.825 292.289C144.129 291.582 135.509 284.983 133.467 279.514C134.315 277.814 136.065 275.38 137.526 274.176L137.893 273.877C138.972 272.989 139.514 273.078 140.933 273.019Z" fill="#FFC971"/>
<path d="M125.98 282.755C126.635 282.705 127.307 282.66 127.964 282.702C131.404 282.913 143.591 295.015 146.299 298.072C144.099 299.709 142.413 300.592 140.023 301.838L137.437 303.335C131.063 299.59 112.957 291.251 125.98 282.755Z" fill="#FFC971"/>
<path d="M88.9135 273.493L89.8266 273.645C95.2171 278.24 103.67 283.376 106.921 289.122C106.69 289.632 106.451 290.139 106.205 290.64C104.896 293.294 103.795 293.935 101.148 294.848C97.4353 294.132 92.0289 289.489 88.8831 287.232C82.6614 282.767 79.1013 276.484 88.9135 273.493Z" fill="#FFC971"/>
<path d="M139.19 236.156C139.513 236.174 139.897 236.291 140.226 236.368C143.896 239.982 149.849 243.967 153.658 247.659C153.934 247.927 157.513 249.352 158.599 250.053C157.235 252.257 155.29 255.862 152.833 256.79C152.584 256.793 150.73 256.808 150.494 256.754C144.909 255.269 138.593 250.62 134.67 246.49C130.836 242.449 135.786 238.408 139.19 236.156Z" fill="#FFC971"/>
<path d="M143.982 194.541C144.312 194.505 145.952 194.35 146.178 194.368C150.477 194.699 160.483 203.535 163.289 206.508C161.784 207.889 160.602 209.201 159.244 210.713C158.404 210.957 157.437 211.142 156.574 211.333L151.661 211.971C150.186 211.357 149.112 210.558 147.66 209.687C144.551 207.823 138.911 206.165 138.116 202.139C137.574 199.399 142.031 197.219 143.738 194.881L143.982 194.541Z" fill="#FFC971"/>
<path d="M173.912 240.313C177.84 240.129 183.994 254.186 188.985 254.845C190 254.977 191.073 256.164 191.536 257.127C191.805 259.36 187.68 262.298 185.819 262.975C179.547 263.643 170.365 253.328 167.914 248.159C169.181 246.278 170.747 244.596 171.829 242.392C172.4 241.229 172.799 240.999 173.912 240.313Z" fill="#FFC971"/>
<path d="M184.297 190.094C188.467 188.921 195.321 196.694 197.428 199.715C197.674 200.069 198.383 202.461 198.552 203.031C197.056 207.34 195.645 208.291 191.481 209.666C188.442 209.726 181.974 202.568 179.721 200.275C178.691 199.225 177.881 196.971 177.326 195.563C180.583 190.19 178.831 191.463 184.297 190.094Z" fill="#FFC971"/>
<path d="M110.45 292.31C110.943 292.283 111.437 292.268 111.931 292.268C116.001 292.28 121.986 296.745 124.532 299.649C126.037 301.367 130.281 304.859 130.27 306.926C129.412 308.542 127.217 309.255 125.516 310.033C124.67 310.54 120.698 311.005 120.078 310.683C114.395 307.728 101.195 298.224 110.45 292.31Z" fill="#FFC971"/>
<path d="M85.1739 248.046C86.4064 248.24 89.2901 251.392 90.4967 252.409C94.0783 255.427 99.7127 257.857 102.296 261.773C101.806 264.701 98.3612 264.4 95.8571 266.95L95.561 267.257C94.8742 267.815 94.0792 268.495 93.0921 268.241C89.812 267.403 83.0548 262.942 80.8378 260.497C79.3065 258.809 80.5602 254.801 80.8897 252.379C82.3746 250.697 83.4046 249.457 85.1739 248.046Z" fill="#FFC971"/>
<path d="M131.587 205.235C132.934 205.157 134.453 205.211 135.815 205.226C141.21 208.515 148.168 213.364 151.65 218.574C149.781 220.273 148.501 220.804 146.247 221.917C140.074 225.832 132.592 217.613 128.456 213.755C127.344 212.714 128.274 209.815 128.521 208.321C129.663 206.863 130.172 206.448 131.587 205.235Z" fill="#FFC971"/>
<path d="M172.932 201.626C181.396 203.004 184.893 208.425 188.66 215.454L188.426 216.534C187.764 219.603 187.021 220.443 184.482 222.17C179.729 220.795 164.692 210.584 169.552 204.212C170.159 203.418 172.036 202.217 172.932 201.626Z" fill="#FFC971"/>
<path d="M183.529 230.141C184.752 230.135 184.702 230.198 185.571 230.955C190.546 235.291 194.56 240.597 199.204 245.18C197.393 249.281 197.684 250.104 194.372 253.292C189.201 250.172 179.535 243.546 178.876 236.463C178.729 234.886 182.23 231.361 183.529 230.141Z" fill="#FFC971"/>
<path d="M69.7344 300.228C70.7904 300.305 73.4907 300.434 74.2842 300.857C77.8759 302.766 88.0751 311.008 89.5024 314.268C89.5614 316.307 88.5225 317.113 87.1757 318.717C85.6173 320.31 85.226 320.638 83.3637 321.872C81.1673 320.736 76.1522 316.621 74.1354 314.873C69.8283 311.139 69.9217 305.527 69.7344 300.228Z" fill="#FFC971"/>
<path d="M161.46 251.607C164.749 252.129 175.584 264.001 179 266.27C180.357 267.174 179.792 271.632 176.146 272.133C167.753 270.794 160.738 266.309 157.084 258.567C158.662 256.229 159.635 253.071 161.46 251.607Z" fill="#FFC971"/>
<path d="M153.866 263.729C156.475 266.055 167.806 275.13 168.861 277.223C168.63 280.179 165.14 281.643 162.644 282.388C157.535 281.512 153.434 277.429 148.826 275.067C147.744 274.516 145.833 273.323 145.535 272.085C145.676 270.883 146.391 270.022 147.065 268.975C152.285 266.625 151.722 261.824 153.866 263.729Z" fill="#FFC971"/>
<path d="M157.933 182.511C162.172 182.363 167.297 187.736 170.019 190.56C171.101 195.68 169.605 197.869 165.247 200.722C159.364 199.932 155.286 196.026 152.307 191.162C152.2 189.797 152.26 188.422 152.292 187.053C153.404 186.421 156.672 183.52 157.933 182.511Z" fill="#FFC971"/>
<path d="M131.521 250.48C131.7 250.48 131.899 250.468 132.081 250.536C137.62 252.615 143.474 256.128 146.054 261.707C147.893 265.686 143.906 267.209 141.138 268.226C135.511 267.165 129.031 261.415 125.748 256.829C127.877 253.17 128.045 252.827 131.521 250.48Z" fill="#FFC971"/>
<path d="M243.36 125.33C244.919 125.277 246.616 125.306 248.188 125.303C250.388 127.157 251.253 129.492 253.06 131.545C255.962 134.839 263.236 139.335 257.191 143.645C249.306 146.503 236.831 130.891 243.36 125.33Z" fill="#FFC971"/>
<path d="M100.688 299.924C104.93 300.281 106.556 305.115 109.128 307.934C110.786 309.75 112.43 311.587 114.089 313.403C112.18 316.442 112.005 316.722 108.637 318.013C107.94 318.523 107.25 319.254 106.379 319.072C102.339 318.228 98.168 312.368 95.8398 309.371C98.958 305.205 98.519 303.961 100.688 299.924Z" fill="#FFC971"/>
<path d="M192.674 220.933C198.359 223.807 202.658 225.892 205.684 231.826C204.048 234.504 203.394 236.249 200.702 237.952C197.039 239.034 188.378 230.66 188.115 226.801C187.934 224.156 191.082 223.002 192.674 220.933Z" fill="#FFC971"/>
<path d="M199.539 208.798C200.073 208.762 201.851 208.619 202.247 208.798C206.054 210.531 209.837 216.048 211.633 219.433C210.703 222.06 209.953 224.663 206.95 225.468C202.157 223.944 199.29 221.225 195.458 217.885C193.841 213.11 196.281 211.926 199.539 208.798Z" fill="#FFC971"/>
<path d="M236.53 104.653C236.848 104.66 237.165 104.69 237.478 104.743C237.982 104.833 240.438 107.009 241.037 107.459C244.964 110.408 248.781 112.875 251.438 117.145C250.281 119.571 249.786 120.742 247.32 121.901C244.633 121.448 239.448 117.001 236.384 115.61L233.804 114.409C233.687 114.163 233.571 113.917 233.457 113.67C231.613 109.677 232.152 106.478 236.53 104.653Z" fill="#FFC971"/>
<path d="M228.342 145.592C231.708 145.42 231.71 146.123 234.374 148.106C237.969 150.784 240.688 153.221 243.581 156.632C242.236 158.786 241.961 159.173 239.595 160.087C238.507 160.476 237.415 160.854 236.319 161.221C233.93 160.065 228.003 155.652 226.336 153.641C223.522 150.244 225.315 147.698 228.342 145.592Z" fill="#FFC971"/>
<path d="M188.167 157.424C190.135 157.286 198.445 162.579 200.056 164.26C203.52 167.878 200.116 169.465 197.449 171.541C196.635 172.092 195.813 172.633 194.985 173.164C190.587 170.525 187.089 168.399 184.521 163.953C184.238 159.778 184.797 159.647 188.167 157.424Z" fill="#FFC971"/>
<path d="M227.25 113.302C231.501 113.346 247.765 127.486 235.161 128.988C231.612 127.914 226.594 124.781 224.285 121.862C221.278 118.06 224.14 115.312 227.25 113.302Z" fill="#FFC971"/>
<path d="M235.858 132.649C240.037 132.356 239.97 136.271 241.643 138.638C243.709 141.567 252.56 148.043 247.965 151.798C247.649 151.919 246.31 152.413 246.074 152.365C240.247 151.178 234.22 144.8 234.342 138.631C234.391 136.119 234.216 134.426 235.858 132.649Z" fill="#FFC971"/>
<path d="M167.051 173.978C170.96 174.295 175.261 175.407 176.972 179.2C179.483 184.768 182.097 185.742 176.24 189.128L175.556 189.457C171.159 188.72 157.024 175.951 167.051 173.978Z" fill="#FFC971"/>
<path d="M263.6 113.364C268.276 113.171 270.999 113.614 274.175 117.32C276.876 120.476 279.396 123.965 275.621 127.343C274.186 127.806 272.663 127.656 271.142 127.622C270.957 127.519 270.772 127.416 270.587 127.311C267.292 125.437 263.337 122.387 262.356 118.511C261.757 116.155 262.428 115.221 263.6 113.364Z" fill="#FFC971"/>
<path d="M222.025 154.888L222.223 154.94C227.185 156.196 240.852 168.748 227.628 169.529C224.807 167.715 213.461 161.98 216.984 157.151C217.728 156.13 220.656 155.027 222.025 154.888Z" fill="#FFC971"/>
<path d="M203.33 170.389C204.605 170.673 205.792 172.062 206.843 172.887C210.26 175.599 213.971 178.615 214.476 183.266C214.795 186.211 212.642 187.374 210.016 187.42C204.453 184.765 200.895 180.877 198.654 175.283C200.74 173.013 202.027 173.044 203.33 170.389Z" fill="#FFC971"/>
<path d="M300.644 89.8405C302.004 89.8924 303.373 90.4635 304.688 90.906C310.76 96.5691 304.956 102.411 299.04 104.387C297.435 104.309 292.706 96.3082 291.951 94.7247C294.841 91.1777 296.329 90.8142 300.644 89.8405Z" fill="#FFC971"/>
<path d="M179.306 167.289C184.306 167.488 191.125 173.805 191.458 179.039C191.543 180.37 189.406 181.985 188.417 182.898C187.471 183.664 186.254 184.469 185.242 185.177C183.704 183.36 182.104 180.666 180.679 178.664C178.128 175.08 175.255 170.971 179.306 167.289Z" fill="#FFC971"/>
<path d="M215.628 121.727C217.177 121.596 218.298 121.477 219.667 122.292C223.758 124.727 226.909 128.408 231.117 130.679L230.971 135.367L228.832 137.472C227.962 137.499 226.055 136.503 225.119 136.146C220.613 134.43 210.534 127.272 215.628 121.727Z" fill="#FFC971"/>
<path d="M283.747 93.5101C288.554 94.8917 294.969 102.89 294.507 108.004C294.375 109.477 292.998 110.317 291.921 111.057C286.329 110.773 281.91 103.914 280.201 99.1797C281.281 96.6852 281.838 95.4353 283.747 93.5101Z" fill="#FFC971"/>
<path d="M255.995 93.6013C262.652 94.3934 266.314 97.6666 270.507 102.389C269.4 104.341 268.708 105.559 266.988 106.989C262.58 107.396 244.976 99.4189 255.995 93.6013Z" fill="#FFC971"/>
<path d="M194.099 182.314C198.802 181.776 203.628 185.612 205.99 189.375C208.047 192.65 205.957 194.06 203.436 195.295C198.652 198.337 192.647 191.305 190.742 187.325C191.606 185.435 192.305 183.35 194.099 182.314Z" fill="#FFC971"/>
<path d="M209.439 164.687C211.077 164.62 212.9 164.675 214.554 164.691C217.309 166.863 225.828 172.043 224.983 175.925C224.306 176.85 222.996 177.419 221.944 178.002C217.894 179.581 214.756 174.893 211.828 172.92C208.287 170.533 203.506 168.326 209.439 164.687Z" fill="#FFC971"/>
<path d="M256.324 119.585C262.047 119.5 273.289 133.451 264.757 134.975C258.501 134.631 254.469 127.646 252.346 122.552C253.804 120.809 254.359 120.512 256.324 119.585Z" fill="#FFC971"/>
<path d="M287.173 78.7553C289.338 78.8797 292.139 80.4116 293.937 81.5779L295.532 84.5577C293.74 88.1786 292.732 90.2318 288.345 90.6517C285.214 90.725 277.726 91.6388 279.539 86.2068C280.821 82.3625 283.702 80.3427 287.173 78.7553Z" fill="#FFC971"/>
<path d="M206.585 197.991C208.948 197.991 212.042 199.783 213.428 201.629C216.888 206.24 221.166 208.44 216.243 213.289C211.019 215.344 207.076 209.246 204.814 205.44C204.722 203.732 204.786 201.772 204.803 200.04L206.585 197.991Z" fill="#FFC971"/>
<path d="M207.231 140.385C207.531 140.413 208.4 140.513 208.579 140.659C211.793 143.279 216.654 146.405 219.634 148.986C218.061 152.065 217.696 153.467 214.124 154.212C210.748 153.785 203.14 149.544 202.301 146.306C202.669 143.899 205.377 141.877 207.231 140.385Z" fill="#FFC971"/>
<path d="M198.447 149.137C201.401 149.251 205.327 153.833 207.673 155.624C209.185 156.777 210.494 158.127 209.98 160.14C208.924 161.664 207.471 162.171 205.732 162.52C201.081 164.45 193.122 155.911 194.244 151.375C195.081 150.154 197.022 149.64 198.447 149.137Z" fill="#FFC971"/>
<path d="M247.714 157.496C253.529 157.178 255.256 162.351 259.765 166.344C258.524 168.557 257.889 169.556 255.876 171.093C252.7 172.209 248.114 168.409 246.101 166.179C242.919 162.649 244.574 159.855 247.714 157.496Z" fill="#FFC971"/>
<path d="M276.919 129.814C281.291 130.806 284.204 137.249 286.047 140.946C284.589 142.847 283.644 143.874 281.273 144.262C275.103 142.014 275.353 141.671 271.625 136.284C271.256 131.109 272.642 131.556 276.919 129.814Z" fill="#FFC971"/>
<path d="M269.383 86.8956C281.923 87.0391 279.275 99.3774 274.718 100.263C270.203 97.8929 256.846 88.8152 269.383 86.8956Z" fill="#FFC971"/>
<path d="M246.127 99.7877C246.321 99.7982 247.696 99.8969 247.857 100.018C250.028 101.641 265.845 111.591 257.787 113.843C256.323 114.386 255.443 114.755 253.797 113.901C251.343 112.629 245.381 108.604 244.275 106.133C243.738 104.937 245.438 101.008 246.127 99.7877Z" fill="#FFC971"/>
<path d="M255.784 147.955C260.603 147.583 264.647 153.174 266.847 156.867L266.078 158.121C264.867 160.117 264.724 160.39 262.55 161.324C260.108 160.848 253.619 156.025 251.835 153.919C249.7 151.392 253.872 149.292 255.784 147.955Z" fill="#FFC971"/>
<path d="M273.366 105.284C274.571 105.104 276.172 105.519 277.371 105.866C281.731 107.129 283.667 109.403 285.844 113.088C285.987 115.381 286.252 116.627 284.648 118.436C284.027 118.442 282.143 118.393 281.46 118.214C277.344 117.133 271.121 111.513 271.666 106.947C271.759 106.184 272.722 105.674 273.366 105.284Z" fill="#FFC971"/>
<path d="M238.352 164.383C239.681 164.207 240.461 164.117 241.57 165.013C244.016 166.987 249.539 172.953 249.956 175.99C249.25 177.439 248.14 177.621 246.592 178.188C243.008 179.971 237.636 173.215 235.842 170.733C235.596 167.458 235.479 166.207 238.352 164.383Z" fill="#FFC971"/>
<path d="M264.922 138.65C269.967 138.789 281.309 148.928 273.892 151.488C272.338 151.559 270.477 151.497 268.897 151.483C265.321 149.093 261.45 145.517 262.438 140.589C262.608 139.734 264.176 139.054 264.922 138.65Z" fill="#FFC971"/>
<path d="M223.438 180.738C228.586 180.026 232.888 186.581 236.234 190.03C235.385 191.869 234.692 193.837 232.88 194.803C229.633 193.929 221.11 188.002 220.455 184.644C220.805 183.496 222.528 181.795 223.438 180.738Z" fill="#FFC971"/>
<path d="M303.4 76.3997C307.703 76.1396 309.159 77.7524 310.769 81.5051C310.611 81.9482 310.438 82.386 310.25 82.8172C309.439 84.6545 307.277 87.7771 305.38 88.5266C299.971 86.4692 297.048 86.2378 297.94 79.6478C299.628 77.8764 301.181 77.3578 303.4 76.3997Z" fill="#FFC971"/>
<path d="M299.666 107.71C303.283 107.394 306.614 107.689 308.985 110.816C311.526 114.167 309.337 116.784 306.4 118.506C301.062 121.174 298.917 116.067 296.955 112.245C297.659 109.853 297.638 109.161 299.666 107.71Z" fill="#FFC971"/>
<path d="M215.074 190.054C219.535 189.677 222.346 191.654 225.021 195.2C227.228 198.125 227.333 201.686 223.992 203.857C222.505 204.057 219.577 201.76 218.624 200.696C216.237 198.03 211.392 193.386 215.074 190.054Z" fill="#FFC971"/>
<path d="M215.5 220.825C221.13 223.124 226.827 231.74 218.404 235.122C214.471 233.988 213.405 232.294 210.895 229.262C212.098 226.834 214.053 223.014 215.5 220.825Z" fill="#FFC971"/>
<path d="M120.998 197.931C122.931 198.065 126.873 200.257 127.429 202.24C127.275 203.117 126.753 203.848 126.137 204.495C123.677 207.08 125.275 208.894 122.106 211.172C121.681 211.184 121.114 211.208 120.708 211.175C118.085 210.939 114.823 206.746 115.147 204.221C115.476 201.656 119.072 199.601 120.998 197.931Z" fill="#FFC971"/>
<path d="M316.357 83.5565C324.209 83.1432 323.186 93.9236 314.452 95.6741C312.158 95.3416 308.669 92.1293 309.597 89.6258C310.539 87.0882 314.001 84.7285 316.357 83.5565Z" fill="#FFC971"/>
<path d="M290.127 113.244C291.865 113.472 295.572 115.32 296.771 116.638C300.141 120.348 299.455 123.117 296.323 126.309C290.705 127.3 287.434 121.205 287.878 116.334C288.03 114.679 288.907 114.185 290.127 113.244Z" fill="#FFC971"/>
<path d="M214.838 134.838C219.356 134.641 223.308 137.462 225.91 141.104C227.486 143.31 225.422 144.677 223.561 145.564C218.19 145.7 214.543 142.215 211.674 138.103C212.802 136.38 213.27 136.053 214.838 134.838Z" fill="#FFC971"/>
<path d="M243.769 184.927C244.366 184.915 246.149 184.817 246.492 185.326C248.571 188.433 251.084 191.201 253.375 194.141C254.594 195.704 252.689 197.368 251.526 198.164C251.451 198.161 251.374 198.161 251.296 198.158L250.915 198.14C246.602 197.988 242.824 194.979 240.951 191.186C241.792 189.19 242.693 186.748 243.769 184.927Z" fill="#FFC971"/>
<path d="M107.334 211.145C109.15 210.954 113.06 211.643 113.839 213.489C114.946 216.119 112.179 220.566 111.174 223.208C107.446 224.72 104.256 220.724 104.374 217.241C104.486 213.96 105.197 213.289 107.334 211.145Z" fill="#FFC971"/>
<path d="M230.714 172.968C234.342 173.1 238.769 178.618 240.811 181.292C240.698 183.374 241.095 185.184 239.241 186.313C235.077 184.853 228.67 180.604 228.753 175.426C228.771 174.263 229.838 173.637 230.714 172.968Z" fill="#FFC971"/>
<path d="M312.313 97.883C315.743 97.4575 316.175 98.4225 317.872 101.146C316.623 105.393 315.633 107.21 312.415 110.066C311.183 109.614 308.681 107.477 307.948 106.365C305.383 102.473 309.644 99.5092 312.313 97.883Z" fill="#FFC971"/>
<path d="M187.623 139.877C190.056 139.683 194.973 141.919 195.236 144.527C194.527 146.008 191.627 148.48 190.346 149.695C187.956 151.783 178.407 145.218 187.623 139.877Z" fill="#FFC971"/>
<path d="M170.087 158.795C170.31 158.754 170.677 158.848 170.932 158.89C175.053 161.766 177.312 172.132 170.642 169.08C168.528 168.097 164.406 165.78 164.118 163.347C163.713 159.927 168.077 159.326 170.087 158.795Z" fill="#FFC971"/>
<path d="M280.498 121.711C286.369 121.478 292.143 128.828 288.084 133.453C283.184 135 278.186 126.006 280.498 121.711Z" fill="#FFC971"/>
<path d="M133.168 188.128C142.338 188.454 139.02 194.597 136.057 199.372C134.239 199.211 132.199 198.385 131.13 196.801C128.505 192.909 130.265 190.711 133.168 188.128Z" fill="#FFC971"/>
<path d="M157.322 166.096C164.131 165.029 161.726 175.387 158.317 177.963C155.81 177.677 155.325 176.972 153.541 175.246C153.227 173.154 153.402 171.547 153.537 169.456C154.735 167.471 155.357 167.23 157.322 166.096Z" fill="#FFC971"/>
<path d="M238.036 195.28C241.657 195.844 245.084 200.511 246.36 203.872C246.703 204.775 246.31 205.428 245.862 206.162C244.81 206.845 244.547 206.743 243.22 206.743C240.041 204.874 236.623 201.898 234.105 199.226C235.304 197.964 236.734 196.375 238.036 195.28Z" fill="#FFC971"/>
<path d="M298.559 126.446C306.28 125.601 301.413 136.613 296.084 137.411C294.351 136.967 292.443 135.781 291.912 133.993C292.148 130.88 295.86 129.327 298.559 126.446Z" fill="#FFC971"/>
<path d="M258.934 172.974C263.735 173.005 270.594 178.582 264.544 182.578C264.031 182.595 263.518 182.6 263.005 182.593C259.856 182.546 256.217 179.544 256.45 176.178C256.554 174.638 257.813 173.854 258.934 172.974Z" fill="#FFC971"/>
<path d="M144.55 176.6C147.077 176.418 149.87 177.412 149.834 180.426C149.795 183.544 147.975 185.195 145.948 187.28C143.308 185.892 139.485 183.686 140.701 180.133C141.281 178.439 143.116 177.54 144.55 176.6Z" fill="#FFC971"/>
<path d="M267.825 163.168C271.043 162.972 272.492 166.39 273.53 168.882C272.137 171.019 271.18 171.686 269.084 173.017C267.223 173.015 266.814 172.525 265.281 171.487C263.227 167.031 261.652 164.542 267.825 163.168Z" fill="#FFC971"/>
<path d="M77.5875 264.687C78.6065 264.839 80.7552 266.198 81.481 267.004C84.6346 270.496 82.1675 273.317 79.8766 275.553C77.4354 275.637 76.4143 274.531 74.5845 273.01C74.5031 269.368 75.1848 267.373 77.5875 264.687Z" fill="#FFC971"/>
<path d="M199.422 131.46C201.275 131.587 204.327 134.318 204.827 136.035C205.54 138.483 201.842 139.36 200.83 141.427L200.697 141.715C196.988 143.976 193.707 136.152 199.422 131.46Z" fill="#FFC971"/>
<path d="M278.778 147.89C284.182 147.869 284.48 151.397 285.974 155.747L283.991 157.815C279.276 160.315 277.365 156.735 278.268 152.461C278.57 151.022 278.68 149.364 278.778 147.89Z" fill="#FFC971"/>
<path d="M208.025 122.793C211.594 122.99 211.958 126.645 212.886 129.606C211.874 132.099 211.737 132.168 209.33 133.408C206.353 132.242 205.837 130.719 204.502 127.965C205.675 125.29 205.895 124.755 208.025 122.793Z" fill="#FFC971"/>
<path d="M289.408 137.489C290.479 137.794 291.803 138.314 292.873 138.698L294.35 141.933C292.891 144.838 292.39 146.138 290.088 148.329C288.502 148.805 286.226 148.157 286.065 146.22C285.88 144.008 286.772 143.368 288.141 141.853C288.221 139.839 288.084 139.034 289.408 137.489Z" fill="#FFC971"/>
<path d="M230.462 203.398C233.576 203.973 236.872 207.641 236.785 210.933C236.757 211.995 235.647 212.836 234.892 213.474C231.834 213.898 230.371 211.05 228.641 208.825C228.501 206.162 227.992 204.918 230.462 203.398Z" fill="#FFC971"/>
<path d="M224.219 212.541C228.108 214.154 231.571 220.232 225.833 221.896C221.26 221.905 221.497 220.387 220.992 216.176C222.126 214.363 222.647 213.948 224.219 212.541Z" fill="#FFC971"/>
<path d="M272.197 154.739C272.707 154.756 273.268 154.833 273.781 154.888C276.116 156.221 278.436 159.741 278.096 162.543C277.669 163.508 276.966 163.827 276.068 164.435C273.238 164.397 269.934 160.422 270.214 157.63C270.372 156.054 271.076 155.657 272.197 154.739Z" fill="#FFC971"/>
<path d="M177.788 150.956C177.922 150.916 178.655 150.867 178.823 150.852C180.784 151.598 181.257 153.067 182.293 154.953C181.307 157.157 181.287 158.212 178.832 158.944C175.059 159.226 172.757 157.025 174.284 153.022C174.795 151.683 176.467 151.341 177.788 150.956Z" fill="#FFC971"/>
<path d="M251.818 180.093C254.421 180.254 257.329 184.34 259.01 186.32C257.728 187.422 257.311 187.862 255.76 188.559C252.957 188.472 248.564 185.341 248.979 182.223C249.474 181.352 250.899 180.652 251.818 180.093Z" fill="#FFC971"/>
<path d="M208.805 235.226C213.498 236.616 217.208 239.666 211.002 242.875C205.044 244.611 204.688 238.873 208.805 235.226Z" fill="#FFC971"/>
<path d="M73.7861 276.633C75.9404 277.015 80.7044 278.801 79.5088 281.792C79.2076 282.547 77.5054 283.17 76.756 283.498C76.1688 283.733 75.5763 283.957 74.9787 284.169C73.7449 284.592 73.2114 284.586 72.0568 284.035C70.235 281.78 72.3302 278.652 73.7861 276.633Z" fill="#FFC971"/>
<path d="M174.435 276.4C175.452 276.749 177.287 277.963 177.847 278.849C179.753 281.858 175.909 283.921 174.039 285.004C171.865 285.213 171.23 284.39 169.678 283.051C171.454 281.035 174.435 280.343 174.435 276.4Z" fill="#FFC971"/>
<path d="M71.47 317.5C74.397 318.526 76.526 320.271 78.2511 322.77L76.4347 325.352C74.2369 326.071 73.5874 325.46 71.7077 324.392C70.1346 321.434 69.2558 320.435 71.47 317.5Z" fill="#FFC971"/>
<path d="M203.065 247.924C207.934 248.834 206.66 254.747 201.957 256.545C200.343 256.512 199.8 256.685 198.971 255.242C198.973 252.937 201.628 251.034 202.915 248.258L203.065 247.924Z" fill="#FFC971"/>
<path d="M99.8059 226.041C103.864 226.202 104.611 231.516 100.754 232.64C99.1051 232.685 97.0214 232.986 96.3197 231.129C95.3338 228.519 97.772 226.813 99.8059 226.041Z" fill="#FFC971"/>
<path d="M194.821 261.278C195.791 261.144 196.821 261.594 197.492 262.271C198.115 264.946 194.581 267.218 192.527 268.146C191.032 268.211 190.069 266.756 189.098 265.718C191.282 263.354 191.961 262.733 194.821 261.278Z" fill="#FFC971"/>
<path d="M162.262 285.141C163.856 285.022 164.656 285.046 165.963 285.955C167.186 288.207 165.151 289.531 163.599 290.938C157.412 291.958 159.396 287.977 162.262 285.141Z" fill="#FFC971"/>
<path d="M184.041 268.298C187.304 268.656 188.048 272.324 185.352 274.462C180.572 274.352 181.399 270.916 184.041 268.298Z" fill="#FFC971"/>
</svg>
