<svg width="400" height="400" viewBox="0 0 400 400" fill="none" xmlns="http://www.w3.org/2000/svg">
<g clip-path="url(#clip0_90_367)">
<path d="M115.809 263.878L115.694 263.661C112.676 258.063 108.844 253.754 102.595 251.869C98.7028 250.694 94.3768 250.346 90.8011 249.303C77.8153 245.512 68.6881 239.413 62.3057 227.298C55.977 215.284 52.3658 197.194 56.3624 183.961C57.8662 178.982 60.3432 173.79 60.804 168.426C61.2309 163.459 58.5497 157.765 57.3856 152.898C55.7652 146.124 56.0007 141.183 56.9587 134.346C58.1525 125.826 67.2012 119.645 66.3453 111.765C65.2005 101.226 64.8882 93.4454 71.268 83.6827C76.3373 75.9243 87.7605 72.8921 93.3927 65.4543C100.634 55.8915 102.021 42.561 113.714 36.5493C127.327 29.5515 136.745 37.226 137.705 51.187C139.812 52.4117 142.785 53.9002 144.667 55.2917C151.781 60.554 154.936 69.9365 154.654 78.5424C154.525 82.4997 153.097 86.6218 154.338 90.4684C155.403 93.4163 159.007 95.7907 161.235 97.6692C172.149 106.873 172.245 118.476 172.153 131.217C183.796 137.199 190.639 144.137 194.521 156.772C196.832 165.157 196.829 175.057 192.984 182.933C190.586 187.846 184.381 193.313 182.5 197.678C176.441 211.731 174.68 228.21 164.905 240.339C159.796 246.679 151.898 251.62 144.78 255.436C138.387 258.577 134.436 259.137 130.685 266.36C123.752 266.36 123.243 266.36 115.809 263.878Z" fill="#015734"/>
<path d="M114.104 124.063C114.003 119.681 113.281 115.35 113.276 111.002C113.272 107.042 113.924 103.017 114.042 99.0299C114.404 86.8102 117.043 74.6915 118.173 62.5463C118.276 61.4417 119.219 60.1625 120.28 59.7516C122.54 59.958 122.283 63.8902 122.044 65.5571C120.701 74.9364 120.19 84.35 119.947 93.815C119.922 94.7908 119.64 97.8785 119.843 98.5918C122.059 97.5962 123.447 93.7424 124.863 91.878C127.438 88.4848 130.598 85.2135 132.633 81.4575C133.595 79.6799 135.379 70.6761 138.771 72.1773C140.833 73.0894 140.068 75.1859 139.684 76.8355C138.69 81.0996 137.443 84.7079 134.888 88.3394C129.977 95.3211 123.406 101.009 120.119 109.137C118.462 113.234 123.162 148.839 123.922 155.696C126.043 153.007 127.155 149.147 129.252 146.367C134.409 139.51 140.123 133.181 145.078 126.155C147.778 122.327 150.668 118.356 151.811 113.703C153.182 108.123 157.145 109.949 156.482 114.04C154.334 127.295 142.694 137.278 135.296 147.84C130.99 154.034 127.174 163.529 125.405 170.907C124.981 172.673 126.054 176.164 125.966 178.084C126.003 190.023 127.236 201.704 128.237 213.581C130.275 210.297 132.027 207.732 134.992 205.159C144.265 197.111 153.117 188.984 159.991 178.688C164.798 171.488 166.112 156.692 169.765 156.133C175.469 155.809 166.211 179.498 164.999 181.677C159.352 191.528 150.82 200.432 142.301 207.761C134.934 214.099 133.938 219.525 128.849 227.017C129.434 234.496 130.202 241.15 130.382 248.72C130.453 251.734 130.263 264.618 130.685 266.36C130.348 268.027 130.313 270.99 130.162 272.803C127.254 304 120.578 339.066 98.9312 363.416C98.0117 364.45 94.2761 366.445 92.8584 366.19C87.7315 365.269 84.981 357.176 86.8919 352.622C95.6143 331.833 104.521 310.92 110.005 288.966C110.914 285.328 112.553 281.407 113.24 277.754C114.105 273.152 114.972 268.498 115.809 263.878C117.224 257.651 118.612 250.249 118.053 243.86C117.944 242.612 116.667 240.36 116.019 239.334C104.191 220.598 80.6707 213.178 71.9365 192.125C71.1611 190.256 68.2684 185.728 70.6104 183.988C72.9313 182.471 81.5432 198.191 83.5682 200.045C90.0417 205.972 97.5939 211.17 104.498 216.659C110.236 221.22 113.238 224.45 118.137 229.95C118.177 221.685 118.182 213.372 118.241 205.061C118.257 202.769 119.312 193.241 119.041 191.884C117.904 186.186 109.154 175.176 105.141 171.265C100.727 166.872 95.5815 163.249 90.7538 159.37C83.8714 153.842 78.0799 147.047 74.3224 139.022C73.2995 136.838 70.3268 133.306 72.3118 131.356C75.8563 130.624 81.7446 143.57 84.5817 146.485C91.4625 153.548 100.739 158.334 108.045 165.232C112.61 169.542 115.251 174.444 119.162 178.713C118.873 171.634 118.262 164.51 117.392 157.483C116.637 151.381 116.588 142.223 114.422 136.597C109.355 123.439 95.745 116.217 88.9132 104.331C86.7982 100.652 82.6377 93.8346 85.1545 89.5209C87.6161 87.8827 90.5519 98.3144 91.4488 99.7188C95.5772 106.935 101.476 110.635 107.335 116.237C110.517 119.278 111.506 120.897 114.104 124.063Z" fill="#EB3849"/>
<path d="M285.127 136.254L285.242 136.47C288.26 142.069 292.091 146.377 298.34 148.263C302.233 149.437 306.559 149.785 310.134 150.829C323.12 154.62 332.247 160.718 338.63 172.834C344.959 184.848 348.57 202.937 344.573 216.171C343.069 221.149 340.592 226.342 340.132 231.706C339.705 236.673 342.386 242.366 343.55 247.233C345.17 254.008 344.935 258.948 343.977 265.786C342.783 274.305 333.734 280.487 334.59 288.367C335.735 298.906 336.047 306.686 329.668 316.449C324.598 324.207 313.175 327.239 307.543 334.677C300.302 344.24 298.915 357.571 287.221 363.582C273.609 370.58 264.19 362.906 263.23 348.945C261.123 347.72 258.15 346.231 256.269 344.84C249.155 339.578 246 330.195 246.281 321.589C246.411 317.632 247.839 313.51 246.598 309.663C245.532 306.715 241.928 304.341 239.701 302.462C228.786 293.259 228.691 281.656 228.783 268.914C217.14 262.933 210.297 255.995 206.415 243.36C204.104 234.974 204.107 225.074 207.951 217.199C210.35 212.286 216.554 206.818 218.436 202.454C224.494 188.401 226.256 171.922 236.031 159.792C241.14 153.453 249.038 148.511 256.155 144.696C262.548 141.554 266.5 140.994 270.25 133.772C277.183 133.772 277.692 133.772 285.127 136.254Z" fill="#015734"/>
<path d="M286.832 276.068C286.933 280.45 287.655 284.781 287.659 289.13C287.663 293.09 287.012 297.115 286.893 301.102C286.531 313.321 283.892 325.44 282.762 337.585C282.659 338.69 281.716 339.969 280.655 340.38C278.396 340.174 278.653 336.241 278.892 334.574C280.235 325.195 280.746 315.782 280.988 306.317C281.014 305.341 281.296 302.253 281.092 301.54C278.877 302.535 277.489 306.389 276.073 308.254C273.497 311.647 270.337 314.918 268.303 318.674C267.34 320.452 265.556 329.456 262.164 327.954C260.103 327.042 260.867 324.946 261.252 323.296C262.246 319.032 263.493 315.424 266.047 311.792C270.958 304.811 277.529 299.122 280.816 290.995C282.473 286.898 277.774 251.292 277.013 244.435C274.892 247.124 273.78 250.985 271.683 253.765C266.526 260.622 260.812 266.95 255.857 273.977C253.158 277.805 250.268 281.775 249.125 286.429C247.754 292.009 243.791 290.183 244.454 286.092C246.602 272.836 258.241 262.853 265.64 252.292C269.946 246.098 273.761 236.602 275.531 229.225C275.955 227.459 274.881 223.968 274.969 222.048C274.933 210.109 273.699 198.428 272.699 186.55C270.66 189.835 268.909 192.399 265.944 194.973C256.67 203.021 247.818 211.148 240.944 221.443C236.137 228.644 234.823 243.44 231.17 243.998C225.466 244.323 234.724 220.633 235.937 218.454C241.584 208.604 250.115 199.699 258.634 192.371C266.002 186.033 266.997 180.607 272.087 173.115C271.502 165.636 270.733 158.982 270.554 151.411C270.482 148.397 270.672 135.513 270.25 133.772C270.587 132.105 270.622 129.141 270.774 127.329C273.681 96.1316 280.357 61.0652 302.004 36.7159C302.924 35.6817 306.659 33.6862 308.077 33.9411C313.204 34.8631 315.955 42.9555 314.044 47.5099C305.321 68.2982 296.414 89.2115 290.93 111.166C290.022 114.804 288.382 118.724 287.695 122.377C286.83 126.98 285.964 131.634 285.126 136.254C283.711 142.481 282.324 149.882 282.883 156.271C282.992 157.52 284.268 159.771 284.917 160.798C296.745 179.534 320.265 186.954 328.999 208.006C329.774 209.875 332.667 214.404 330.325 216.144C328.004 217.661 319.392 201.941 317.367 200.087C310.894 194.159 303.342 188.962 296.437 183.472C290.7 178.911 287.698 175.681 282.798 170.182C282.758 178.446 282.753 186.76 282.694 195.07C282.678 197.362 281.623 206.891 281.894 208.248C283.032 213.946 291.781 224.956 295.794 228.867C300.209 233.26 305.354 236.883 310.182 240.761C317.064 246.29 322.856 253.085 326.613 261.11C327.636 263.294 330.609 266.826 328.624 268.775C325.079 269.507 319.191 256.561 316.354 253.646C309.473 246.584 300.197 241.797 292.891 234.9C288.326 230.589 285.684 225.687 281.774 221.418C282.063 228.497 282.674 235.622 283.543 242.649C284.299 248.75 284.347 257.908 286.514 263.534C291.58 276.692 305.191 283.915 312.022 295.801C314.137 299.48 318.298 306.297 315.781 310.611C313.319 312.249 310.384 301.817 309.487 300.413C305.358 293.197 299.459 289.497 293.6 283.895C290.419 280.854 289.43 279.235 286.832 276.068Z" fill="#FFC971"/>
</g>
<defs>
<clipPath id="clip0_90_367">
<rect width="292.25" height="334" fill="white" transform="translate(54 33)"/>
</clipPath>
</defs>
</svg>
