<svg width="400" height="400" viewBox="0 0 400 400" fill="none" xmlns="http://www.w3.org/2000/svg">
<g clip-path="url(#clip0_90_152)">
<path d="M352.157 249.542C365.796 269.347 370.338 308.156 357.267 329.118C346.915 345.407 330.225 359.064 311.429 364.106C288.539 370.248 259.036 363.085 239.38 349.901C214.718 333.365 208.606 303.273 215.322 276.072C225.603 234.441 276.113 193.632 318.598 220.393C330.111 239.88 335.594 237.388 352.157 249.542Z" fill="#F25435"/>
<path d="M363.139 195.057C365.106 194.652 367.85 195.911 366.445 198.804C364.46 202.888 359.348 205.017 356.153 208.06C350.031 213.518 340.046 225.448 337.591 233.082C352.544 233.082 357.529 223.33 360.52 223.928C363.012 224.427 360.219 237.38 358.832 239.896C355.006 246.988 350.089 252.079 342.085 253.749C343.592 257.354 352.831 268.794 348.735 271.479C341.083 276.493 330.918 267.989 326.519 262.632C323.344 265.167 321.696 267.697 319.757 271.334C318.067 274.365 318.111 280.696 314.774 281.576C306.526 283.749 306.058 261.618 306.526 259.31C299.811 260.508 280.148 260.401 278.433 250.524C278.131 248.3 280.1 245.623 282.306 245.232C287.021 244.319 292.272 246.128 297.137 245.658C292.346 240.756 287.875 235.669 287.047 228.511C286.379 225.195 288.161 217.155 292.538 217.426C299.216 217.839 309.286 227.842 313.954 232.263C315.156 218.943 326.621 204.851 329.989 204.424C337.591 203.459 330.609 215.952 334.665 227.034C338.072 217.361 352.892 197.171 363.139 195.057Z" fill="#015734"/>
<path d="M205.536 64.889C241.377 45.9612 267.798 56.4298 293.109 82.8674C307.224 97.61 316.888 119.281 315.627 140.055C314.812 153.419 306.031 173.76 295.709 183.178C250.587 224.352 168.883 189.811 169.029 128.024C169.083 105.487 184.048 75.8716 205.536 64.889Z" fill="#F25435"/>
<path d="M187.151 53.6073C184.656 50.4343 171.534 38.6511 175.937 34.9801C182.278 29.6403 188.868 41.9697 191.72 45.868C196.36 52.1831 200.966 58.5233 205.537 64.889C205.808 62.73 205.806 62.0747 205.579 59.895C205.17 55.9443 202.227 49.7339 204.206 46.0998C208.966 37.3876 219.361 52.978 220.918 56.973C221.795 59.2141 221.122 62.4118 223.431 62.4118C224.926 62.4118 229.127 50.1907 230.048 47.2117C230.767 44.8894 230.679 41.0559 232.329 39.2301C234.031 37.5447 238.127 37.9649 239.605 39.7378C242.686 43.4395 242.593 50.2922 242.234 54.7716C241.33 62.3272 239.677 67.2265 236.207 73.8868C238.304 72.9656 239.767 72.074 241.646 70.8955C244.44 69.1453 247.765 66.7245 251.205 67.9583C253.832 68.9008 255.704 71.2256 254.204 74.0523C250.196 80.8358 244.547 84.9153 237.553 88.2551C238.687 90.6479 239.707 92.4959 241.512 94.4336C245.859 99.1008 255.609 102.33 244.298 107.423C240.338 109.209 235.829 109.346 231.766 107.803C228.63 106.594 224.505 103.609 221.651 101.612C220.609 104.243 219.57 106.82 218.832 109.72C217.937 113.322 218.605 119.588 214.625 121.539C212.085 122.783 208.164 118.149 207.576 115.974C206.364 111.494 207.351 106.234 207.498 101.623C201.614 103.868 189.572 109.264 183.223 105.431C175.363 100.688 187.862 97.5669 190.883 95.7384C192.52 94.7479 197.618 90.1484 198.191 88.6965C197.715 87.9826 195.531 87.7027 194.423 87.2658C189.33 85.2573 180.487 81.5178 182.31 74.1211C183.725 68.3823 201.201 78.1138 204.206 74.8747C206.98 71.8837 188.741 55.6285 187.151 53.6073Z" fill="#015734"/>
<path d="M101.809 186.36C124.95 182.02 152.849 199.551 166.341 217.517C188.272 246.721 180.331 290.913 152.18 313.505C141.193 322.319 126.421 327.112 112.502 328.194C95.3288 329.526 76.2927 320.284 62.8505 310.594C49.5515 300.908 38.5754 287.525 36.0156 270.838C33.9578 257.42 35.8078 235.01 45.6791 224.108C63.9068 213.46 67.8949 201.994 101.809 186.36Z" fill="#F25435"/>
<path d="M55.4394 189.476C55.177 189.033 54.9212 188.587 54.6717 188.137C48.8228 177.561 46.4603 168.594 45.7582 155.167C45.6694 153.47 45.5817 150.853 47.4331 150.168C53.2497 147.976 53.6231 153.99 53.583 158.051C53.4775 168.69 55.8898 176.674 60.2149 186.196C60.6127 183.112 61.7273 174.276 64.3256 172.354C67.6065 169.927 69.0743 177.019 69.6593 178.997C71.1484 184.03 73.5295 187.814 76.872 191.822C95.3141 185.045 98.3051 174.576 103.29 174.576C105.287 174.576 103.934 181.318 101.811 186.36C99.4815 191.889 95.3021 196.36 91.8878 201.296C104.786 208.873 110.747 201.389 112.508 204.078C114.27 206.766 105.783 215.683 97.9711 217.796C91.8878 219.442 85.0631 217.653 84.6019 220.551C84.0657 223.913 83.6038 228.928 84.7033 232.258C85.555 234.837 88.9625 244.539 81.8304 241.563C74.1417 238.356 67.5301 230.64 64.7488 222.851C56.3749 226.489 49.9499 225.424 45.6804 224.108C42.2507 223.05 32.1043 219.133 34.2344 213.731C36.0554 209.113 40.9717 217.796 53.3003 208.873C45.5953 203.138 33.0498 189.511 38.461 178.366C38.9643 177.316 39.8693 176.513 40.9717 176.138C45.6804 175.075 42.9708 189.033 55.4394 189.476Z" fill="#015734"/>
</g>
<defs>
<clipPath id="clip0_90_152">
<rect width="334" height="334" fill="white" transform="translate(33 33)"/>
</clipPath>
</defs>
</svg>
