<svg width="400" height="400" viewBox="0 0 400 400" fill="none" xmlns="http://www.w3.org/2000/svg">
<path d="M269.69 107.957C348.527 178.518 373.858 252.911 290.457 333.482C288.429 336.687 275.782 348.237 266.309 353.659C253.624 360.921 239.671 360.868 225.647 362.993C222.164 363.522 218.22 364.911 214.81 365.529C204.019 367.473 193.442 365.256 182.652 364.851C170.307 364.389 159.235 365.567 147.618 360.987C138.029 357.212 133.636 352.317 126.993 344.937C124.958 342.675 122.675 339.407 120.194 337.77L112.877 333.283C82.1544 314.128 60.0909 282.921 47.112 249.397C41.9633 236.097 37.6529 220.813 37.1207 206.495C36.0581 177.898 36.1081 156.451 48.5778 130.892C130.799 58.9044 183.993 52.9608 269.69 107.957Z" fill="#F2F6E4"/>
<path d="M168.093 82.9912C174.698 81.4066 182.687 79.3378 187.854 74.5194C188.763 76.1618 189.692 77.7927 190.619 79.4233C200.801 97.3435 219.386 99.0121 237.987 100.314C234.506 109.054 234.426 118.84 238.075 127.628C244.865 143.983 255.828 151.693 273.647 153.414C269.728 161.451 266.137 169.668 266.38 178.79C266.815 195.04 278.003 207.501 294.282 208.444C287.299 215.788 283.19 216.356 272.85 218.067C271.001 218.373 267.531 218.409 266.079 219.635C262.612 222.567 262.158 228.186 259.195 232.372C256.663 236.52 252.931 239.496 249.443 242.687C244.262 247.419 236.317 253.787 228.909 253.688C222.513 253.181 221.006 251.406 214.675 254.73C210.853 256.739 206.582 258.445 203.548 262.088C193.867 273.714 184.723 291.467 184.94 306.778C185.087 317.109 188.244 326.639 191.216 336.306C191.917 338.505 194.697 345.406 194.751 346.988C192.536 345.863 189.201 342.87 187.247 341.228C175.481 331.326 163.889 322.155 161.524 306.017C159.649 293.231 160.319 284.338 165.554 272.262C175.112 250.218 193.386 229.727 214.416 218.094C221.99 214.09 230.932 211.288 238.918 208.325C243.27 206.713 247.927 204.536 252.176 202.687C243.964 199.581 237.94 200.353 229.813 202.863C208.509 209.419 190.979 222.865 176.742 239.799C163.165 255.951 150.947 277.661 154.477 299.519C154.59 300.222 154.843 299.944 154.671 300.952L154.353 300.773C151.121 292.806 146.694 284.462 143.921 276.299C139.843 264.295 136.107 252.475 133.009 240.171C137.824 225.323 141.948 217.802 152.869 206.426C167.258 191.438 184.706 180.927 203.919 173.211C214.601 168.921 224.161 167.737 234.291 161.806C232.28 161.144 226.898 159.321 224.982 159.356C218.161 159.481 207.485 162.712 201.158 165.348C176.35 175.686 151.719 190.498 137.069 213.716C134.519 217.755 132.758 222.225 130.89 226.555C130.63 206.09 130.558 187.85 134.966 167.8C137.58 155.908 137.555 152.335 148.154 144.996C164.149 133.808 183.856 128.523 202.86 125.267C210.024 124.039 217.921 124.767 222.911 118.952C220.711 117.425 217.577 115.594 214.781 115.734C189.033 117.024 160.256 125.767 140.962 143.248C145.881 130.258 150.442 117.29 156.42 104.66C157.633 102.098 168.679 83.5296 168.648 83.146L168.093 82.9912Z" fill="#CBD78F"/>
<path d="M243.518 40.1769C254.384 43.7439 265.702 46.322 276.041 51.4116C283.011 54.8434 289.771 59.2653 296.134 63.7013C297.17 64.4238 301.736 67.7647 302.56 68.5795C304.608 70.4121 308.422 73.6444 310.166 75.5299C327.23 91.3158 343.376 117.967 349.86 140.148C353.346 147.32 354.457 151.831 356.127 159.593C357.406 165.526 360.269 171.349 360.66 177.628C361.151 181.749 361.619 185.629 361.68 189.801C362.468 197.109 362.49 204.318 362.317 211.66C361.374 224.626 359.109 238.071 354.876 250.395C354.063 252.768 352.429 256.066 351.373 258.411C345.586 273.339 337.41 287.226 327.167 299.53C326.8 297.26 329.581 291.913 330.553 289.488C335.632 276.842 329.308 270.151 319.737 262.757C313.95 258.285 310.028 257.794 306.763 250.009C302.841 240.493 304.82 229.25 308.064 219.847C309.403 215.959 313.763 209.221 311.384 205.487C308.896 201.574 299.355 202.998 295.34 202.836C293.232 202.77 291.146 202.381 289.156 201.687C283.047 199.551 279.384 195.894 276.617 190.319C270.632 178.394 276.036 165.924 281.01 154.772C284.221 147.572 271.268 147.183 266.832 145.715C257.503 142.627 253.193 139.776 248.387 131.254C241.242 118.583 243.022 111.823 247.051 98.4028C243.581 92.6278 235.551 93.9594 229.687 93.4049C224.971 92.9596 221.122 92.5493 216.481 91.3414C204.196 88.1439 198.383 81.8423 192.309 71.1496C194.489 69.0141 195.627 67.3565 197.279 64.8085C206.954 68.237 219.235 64.0562 227.347 58.5179C234.778 53.4446 238.05 46.4879 243.518 40.1769Z" fill="#CBD78F"/>
<path d="M244.689 68.2839C259.948 67.7683 295.999 89.89 308.802 98.8184C306.822 94.5405 297.921 71.7399 302.561 68.5796C304.608 70.4122 308.422 73.6444 310.167 75.5299C327.23 91.3158 343.376 117.967 349.861 140.148C360.668 162.379 362.894 187.26 362.317 211.66C361.141 227.83 358.03 243.622 351.374 258.411L350.776 258.185C349.921 257.08 350.142 245.713 350.037 243.139C345.312 235.237 335.749 231.832 327.148 229.842C323.93 229.095 316.091 229.803 315.926 224.926C315.695 216.32 335.691 225.215 339.138 227.031C343.861 229.52 346.171 230.79 349.916 234.643C349.916 225.833 346.248 195.131 340.687 189.492C338.163 186.932 334.434 185.202 331.234 183.653C320.57 178.491 311.462 176.802 299.656 176.772C296.117 176.763 288.059 178.788 286.641 173.703C284.361 165.526 303.377 168.955 308.091 169.305C319.288 170.138 329.752 175.015 339.055 181.06C334.63 169.708 329.347 160.034 322.909 149.682C320.947 146.526 315.303 135.132 312.542 133.736C305 129.923 294.822 128.439 286.519 126.677C270.324 123.24 264.272 128.109 262.103 121.848C260.177 116.291 267.496 116.518 270.324 116.633C281.203 117.079 295.506 119.456 305.468 123.641C297.318 112.714 287.566 100.137 276.26 92.2704C265.602 84.8515 254.961 78.1785 243.477 72.1902C241.898 71.3668 243.976 69.1555 244.689 68.2839Z" fill="#F2F6E4"/>
<path d="M310.167 75.5299C327.231 91.3158 343.377 117.967 349.861 140.148C338.919 130.848 331.37 117.834 320.746 108.079C316.811 104.467 310.073 81.0384 310.167 75.5299Z" fill="#CBD78F"/>
<path d="M234.106 38.2434C237.138 38.3318 240.643 39.201 243.517 40.1768C238.049 46.4878 234.777 53.4446 227.346 58.5179C219.235 64.0562 206.953 68.237 197.279 64.8085C195.627 67.3565 194.489 69.0141 192.308 71.1495C198.383 81.8422 204.195 88.1439 216.481 91.3414C221.122 92.5492 224.971 92.9596 229.686 93.4049C235.55 93.9594 243.581 92.6278 247.05 98.4028C243.021 111.823 241.241 118.583 248.387 131.254C253.193 139.776 257.503 142.627 266.831 145.714C271.268 147.183 284.22 147.572 281.01 154.772C276.035 165.924 270.631 178.394 276.617 190.319C279.384 195.894 283.046 199.551 289.156 201.687C291.145 202.381 293.232 202.77 295.34 202.836C299.355 202.998 308.895 201.574 311.384 205.487C313.762 209.221 309.402 215.959 308.063 219.847C304.82 229.25 302.841 240.493 306.762 250.009C310.028 257.794 313.949 258.285 319.737 262.757C329.307 270.151 335.632 276.842 330.553 289.488C329.58 291.913 326.8 297.26 327.166 299.53C323.923 304.168 323.151 305.271 318.378 310.176C318.13 306.549 317.65 304.783 318.094 301.131C318.673 296.361 323.914 288.353 323.923 284.233C326.144 281.193 324.468 276.098 322.189 273.502C319.943 271.35 316.771 268.5 314.25 266.794C309.044 262.705 305.373 261.98 301.529 255.292C295.552 244.892 296.351 231.824 300.005 220.784C301.074 217.552 303.221 213.738 303.974 210.825L303.726 210.444C303.103 210.422 302.516 210.444 302.031 210.924C297.285 215.614 293.4 219.177 287.224 221.964C281.792 223.485 276.49 225.02 270.924 225.948C269.482 229.04 268.413 231.341 266.547 234.246C265.42 236.001 264.009 237.63 263.003 239.173C260.964 241.648 259.231 243.354 256.952 245.611L256.646 245.826C253.543 247.995 250.837 250.896 247.833 253.14C242.55 257.089 233.401 261.611 226.547 260.688C223.224 260.236 221.629 260.813 218.409 262.096C215.985 263.143 212.649 264.706 210.738 266.582C204.702 272.535 197.206 286.052 194.847 294.143C189.803 311.573 194.768 335.468 204.101 351.121C199.74 352.303 197.239 350.46 194.751 346.988C190.173 334.182 185.134 320.458 184.94 306.778C184.723 291.467 193.867 273.714 203.547 262.088C206.582 258.444 210.853 256.739 214.675 254.73C221.005 251.406 222.512 253.181 228.909 253.688C236.316 253.787 244.261 247.419 249.442 242.687C252.931 239.496 256.662 236.52 259.195 232.372C262.157 228.186 262.612 222.567 266.079 219.635C267.531 218.409 271.001 218.373 272.85 218.067C283.189 216.356 287.298 215.788 294.281 208.444C278.003 207.501 266.815 195.04 266.379 178.79C266.137 169.668 269.728 161.451 273.646 153.414C255.827 151.693 244.865 143.983 238.075 127.628C234.426 118.84 234.506 109.054 237.986 100.314C219.386 99.0121 200.801 97.3435 190.618 79.4232C189.692 77.7926 188.762 76.1618 187.854 74.5193C179.106 82.677 163.028 85.8507 151.819 81.9194C146.303 86.5939 142.661 91.2322 135.897 94.055C127.439 97.5849 121.463 98.0531 112.618 95.5734C106.976 107.124 101.035 118.98 83.4782 118.362C82.4283 135.829 58.0454 159.214 41.252 149.894C43.1279 143.398 45.5981 136.997 48.5768 130.891C110.405 71.1495 140.719 46.6773 234.106 38.2434Z" fill="#9DB328"/>
<path d="M140.494 45.1205C171.208 33.6579 202.099 29.4282 234.107 38.2435C226.492 48.7893 221.739 53.7719 205.1 58.0569C200.483 59.2459 192.171 54.3444 191.076 56.7612C186.266 67.3789 175.714 73.0814 164.386 75.5423C157.083 77.1288 156.633 75.2896 149.688 73.9376C144.376 75.752 142.517 79.5856 138.412 83.0661C135.766 85.3093 131.981 87.1868 128.701 88.2809C126.198 89.1159 122.549 90.3389 119.911 90.2965C115.616 90.227 112.044 87.0846 107.733 89.416C102.08 92.4735 104.894 98.5874 90.7578 108.838C85.6738 112.525 82.8322 110.53 77.9379 111.996C76.4547 113.485 75.1413 118.729 74.4218 120.209C69.4002 130.542 62.8649 140.322 52.1345 145.337C49.8419 146.409 44.6614 147.097 42.6133 145.337C43.7156 141.578 46.8198 134.365 48.577 130.892C69.5585 89.416 109.303 56.7612 140.494 45.1205Z" fill="#CBD78F"/>
<path d="M140.496 45.1205C152.191 44.3317 168.741 47.1918 177.622 54.9002C179.182 56.2405 177.582 58.5732 175.55 58.642C168.907 58.8663 161.316 56.5867 154.521 56.4817C144.54 56.3271 135.002 58.0605 125.351 59.9474C131.023 63.2176 135.311 67.4257 137.427 73.7728C138.428 76.7747 135.867 83.3296 132.094 80.2208C131.021 79.3414 130.567 77.2217 130.031 75.9684C126.76 68.5234 123.924 65.5374 116.534 63.367C112.726 62.2486 110.417 63.1803 107.373 63.4241C116.534 55.5973 132.258 48.2475 140.496 45.1205Z" fill="#F2F6E4"/>
<path d="M79.9308 87.3491C85.2558 91.7374 91.006 99.5097 87.2986 106.563C86.3418 107.09 86.858 106.926 85.6526 106.922C82.3214 105.057 81.6104 95.2242 75.416 92.0945C76.9546 90.3903 78.2908 88.9507 79.9308 87.3491Z" fill="#F2F6E4"/>
<path d="M39.8574 225.904C51.88 226.883 78.8784 248.673 86.8955 257.789C90.8497 262.283 98.2917 274.486 101.567 280.039C104.894 302.515 105.942 321.555 120.193 337.77L112.876 333.283C82.1536 314.128 60.09 282.921 47.1112 249.397C44.2468 241.998 41.5109 234.172 39.8574 225.904Z" fill="#CBD78F"/>
<path d="M37.6542 171.34C40.5786 171.925 43.998 173.047 46.8119 174.131C63.3661 180.508 79.9757 192.953 89.7659 207.865C92.011 211.282 96.3078 217.962 97.1111 221.867C98.1842 227.084 97.6716 234.753 97.8767 240.493C98.214 249.932 99.2543 258.216 100.088 267.387C97.8455 263.171 92.9146 254.967 89.339 251.304C82.2377 244.029 47.0238 214.33 38.2053 217.918C37.6542 213.779 37.2546 210.083 37.1212 206.495C36.6883 194.844 36.3394 182.93 37.6542 171.34Z" fill="#CBD78F"/>
<path d="M41.2535 149.894C52.4323 154.257 59.3093 150.214 67.9776 142.669C74.1939 137.259 82.9845 126.601 83.4797 118.362C84.2023 120.089 87.9157 123.861 89.1786 125.813C97.6306 138.881 107.152 151.796 106.469 168.183C106.282 172.689 104.312 177.727 103.403 182.159C101.653 189.506 99.9829 197.062 99.5751 204.646C96.8314 200.821 93.7882 196.338 90.6943 192.926C79.4827 180.557 65.843 171.43 50.0505 165.969C46.3484 164.688 42.2125 163.224 38.3594 162.533C39.4383 158.475 39.92 153.757 41.2535 149.894Z" fill="#CBD78F"/>
<path d="M210.739 266.582C214.626 271.984 219.295 278.3 222.33 284.172C229.684 298.4 235.821 323.302 229.577 338.502C220.652 345.419 214.551 347.778 204.102 351.121C194.769 335.468 189.804 311.573 194.848 294.143C197.207 286.052 204.702 272.535 210.739 266.582Z" fill="#CBD78F"/>
<path d="M223.502 260.068C224.258 260.216 225.859 260.594 226.548 260.688C233.402 261.611 242.551 257.089 247.834 253.14C250.837 250.896 253.544 247.995 256.647 245.826L256.952 245.611C262.748 259.765 266.581 271.667 266.611 287.184C266.631 296.783 267.094 295.096 261.973 303.521C255.514 314.147 248.511 322.549 239.569 331.136C241.377 309.994 237.734 294.052 226.983 275.392C225.636 273.053 218.863 263.49 218.41 262.096L223.502 260.068Z" fill="#CBD78F"/>
<path d="M112.618 95.5734C113.712 94.7292 121.98 99.8638 135.898 94.055C137.663 93.3181 141.821 90.8712 144.026 88.6665C143.079 91.0123 136.965 99.6404 135.466 102.21C131.916 108.358 128.568 114.621 125.43 120.988C121.912 128.22 118.691 136.546 115.388 143.937C114.187 146.623 112.563 152.252 111.158 154.578C110.504 154.165 108.831 149.157 108.705 148.022C108.24 143.828 94.5782 117.944 92.0371 117.445C97.5321 114.93 101.465 112.705 105.445 107.957C106.603 106.575 111.065 96.7718 112.618 95.5734Z" fill="#CBD78F"/>
<path d="M270.924 225.948C276.491 225.02 281.793 223.485 287.224 221.964C288.453 239.264 285.477 256.604 278.549 272.502C277.43 275.073 275.68 279.127 274.173 281.444C273.972 268.751 270.861 258.491 266.424 246.65C265.804 244.994 263.999 240.309 263.004 239.173C264.01 237.63 265.421 236.001 266.548 234.246C268.413 231.341 269.483 229.04 270.924 225.948Z" fill="#CBD78F"/>
<path d="M323.923 284.233C323.915 288.353 318.673 296.361 318.095 301.131C317.651 304.783 318.131 306.549 318.379 310.176C311.723 316.39 297.856 328.857 290.457 333.482C296.597 324.034 299.164 312.32 304.426 302.383C306.964 297.585 319.134 286.429 323.923 284.233Z" fill="#CBD78F"/>
<path d="M314.252 266.794C316.773 268.5 319.945 271.35 322.191 273.502C318.504 275.811 314.58 279.11 311.182 281.863C312.648 277.018 313.226 269.71 314.252 266.794Z" fill="#CBD78F"/>
</svg>
